# https://github.com/mikedh/trimesh
v 0.60000002 0.60000002 0.00000000
v 0.00000000 0.60000002 0.60000002
v 0.60000002 0.00000000 0.60000002
v 0.00000000 0.60000002 4.40000010
v 0.60000002 0.00000000 4.40000010
v 0.60000002 0.60000002 5.00000000
v 0.19999985 29.62500000 4.59999990
v 0.19999985 29.97500038 4.59999990
v 0.19999985 32.22499847 4.59999990
v 0.19999985 32.57500076 4.59999990
v 0.19999985 34.82500076 4.59999990
v 0.60000002 29.62500000 5.00000000
v 0.60000002 29.97500038 5.00000000
v 0.60000002 32.22499847 5.00000000
v 0.60000002 32.57500076 5.00000000
v 0.60000002 34.82500076 5.00000000
v 4.40000010 24.35000038 5.00000000
v 4.40000010 24.85000038 5.00000000
v 4.40000010 24.35000038 5.50000000
v 4.40000010 24.85000038 5.50000000
v 4.40000010 26.95000076 5.00000000
v 4.40000010 27.45000076 5.00000000
v 4.40000010 26.95000076 5.50000000
v 4.40000010 27.45000076 5.50000000
v 5.43635130 24.03087807 5.00000000
v 5.46558046 23.96098900 5.00000000
v 5.50137997 23.89383698 5.00000000
v 5.54359722 23.82970619 5.00000000
v 5.59205055 23.76887703 5.00000000
v 5.38919592 24.25392151 5.00000000
v 5.38721228 24.33166504 5.00000000
v 5.38835621 24.35000038 5.00000000
v 5.39807701 24.17765808 5.00000000
v 5.41381836 24.10320473 5.00000000
v 5.54122019 24.85000038 5.00000000
v 5.56347227 24.88896942 5.00000000
v 5.61451912 24.96635437 5.00000000
v 5.64653349 23.71160507 5.00000000
v 5.70681143 23.65813828 5.00000000
v 5.77262735 23.60870361 5.00000000
v 5.84369946 23.56351471 5.00000000
v 5.91972256 23.52276421 5.00000000
v 6.00037146 23.48662567 5.00000000
v 6.08530140 23.45525551 5.00000000
v 6.17414808 23.42878723 5.00000000
v 5.67149878 25.04217148 5.00000000
v 5.73416758 25.11609459 5.00000000
v 5.80225658 25.18780708 5.00000000
v 5.87547445 25.25700378 5.00000000
v 5.95350790 25.32338524 5.00000000
v 6.03602266 25.38667107 5.00000000
v 6.12266493 25.44658661 5.00000000
v 6.21306419 25.50287819 5.00000000
v 5.43635130 24.03087807 5.50000000
v 5.46558046 23.96098900 5.50000000
v 5.50137997 23.89383698 5.50000000
v 5.54359722 23.82970619 5.50000000
v 5.59205055 23.76887703 5.50000000
v 5.38919592 24.25392151 5.50000000
v 5.38721228 24.33166504 5.50000000
v 5.38835621 24.35000038 5.50000000
v 5.39807701 24.17765808 5.50000000
v 5.41381836 24.10320473 5.50000000
v 5.54122019 24.85000038 5.50000000
v 5.56347227 24.88896942 5.50000000
v 5.61451912 24.96635437 5.50000000
v 5.64653349 23.71160507 5.50000000
v 5.70681143 23.65813828 5.50000000
v 5.77262735 23.60870361 5.50000000
v 5.84369946 23.56351471 5.50000000
v 5.91972256 23.52276421 5.50000000
v 6.00037146 23.48662567 5.50000000
v 6.08530140 23.45525551 5.50000000
v 6.17414808 23.42878723 5.50000000
v 5.67149878 25.04217148 5.50000000
v 5.73416758 25.11609459 5.50000000
v 5.80225658 25.18780708 5.50000000
v 5.87547445 25.25700378 5.50000000
v 5.95350790 25.32338524 5.50000000
v 6.03602266 25.38667107 5.50000000
v 6.12266493 25.44658661 5.50000000
v 6.21306419 25.50287819 5.50000000
v 6.26653099 23.40733337 5.00000000
v 6.36205482 23.39098740 5.00000000
v 6.46031046 23.37981987 5.00000000
v 6.56087685 23.37387466 5.00000000
v 6.66332388 23.37318230 5.00000000
v 6.76721287 23.37774277 5.00000000
v 6.87209845 23.38753700 5.00000000
v 6.30683374 25.55530357 5.00000000
v 6.40357113 25.60363770 5.00000000
v 6.50286245 25.64767456 5.00000000
v 6.60428286 25.68722343 5.00000000
v 6.70739746 25.72211838 5.00000000
v 6.81176519 25.75220871 5.00000000
v 6.97753143 23.40252304 5.00000000
v 7.08306122 23.42263603 5.00000000
v 7.18823481 23.44779205 5.00000000
v 7.29260254 23.47788048 5.00000000
v 7.39571714 23.51277542 5.00000000
v 7.49713755 23.55232620 5.00000000
v 6.91693878 25.77736282 5.00000000
v 7.02246857 25.79747772 5.00000000
v 7.12790155 25.81246376 5.00000000
v 7.23278713 25.82225800 5.00000000
v 7.33667612 25.82681847 5.00000000
v 7.43912315 25.82612419 5.00000000
v 6.26653099 23.40733337 5.50000000
v 6.36205482 23.39098740 5.50000000
v 6.46031046 23.37981987 5.50000000
v 6.56087685 23.37387466 5.50000000
v 6.66332388 23.37318230 5.50000000
v 6.76721287 23.37774277 5.50000000
v 6.87209845 23.38753700 5.50000000
v 6.30683374 25.55530357 5.50000000
v 6.40357113 25.60363770 5.50000000
v 6.50286245 25.64767456 5.50000000
v 6.60428286 25.68722343 5.50000000
v 6.70739746 25.72211838 5.50000000
v 6.81176519 25.75220871 5.50000000
v 6.97753143 23.40252304 5.50000000
v 7.08306122 23.42263603 5.50000000
v 7.18823481 23.44779205 5.50000000
v 7.29260254 23.47788048 5.50000000
v 7.39571714 23.51277542 5.50000000
v 7.49713755 23.55232620 5.50000000
v 6.91693878 25.77736282 5.50000000
v 7.02246857 25.79747772 5.50000000
v 7.12790155 25.81246376 5.50000000
v 7.23278713 25.82225800 5.50000000
v 7.33667612 25.82681847 5.50000000
v 7.43912315 25.82612419 5.50000000
v 7.59642887 23.59636307 5.00000000
v 7.69316626 23.64469719 5.00000000
v 7.78693581 23.69712067 5.00000000
v 7.87733507 23.75341225 5.00000000
v 7.96397734 23.81332970 5.00000000
v 8.04649258 23.87661362 5.00000000
v 8.12452507 23.94299698 5.00000000
v 7.53968954 25.82018089 5.00000000
v 7.63794518 25.80901146 5.00000000
v 7.73346901 25.79266739 5.00000000
v 7.82585192 25.77121353 5.00000000
v 7.91469860 25.74474525 5.00000000
v 8.08027744 25.67723656 5.00000000
v 8.11294460 25.65972710 5.00000000
v 7.99962854 25.71337509 5.00000000
v 8.19774342 24.01219368 5.00000000
v 8.26583290 24.08390617 5.00000000
v 8.32850075 24.15782928 5.00000000
v 8.38548088 24.23364639 5.00000000
v 8.43652821 24.31103134 5.00000000
v 8.45877934 24.35000038 5.00000000
v 8.61294460 24.85000038 5.00000000
v 7.59642887 23.59636307 5.50000000
v 7.69316626 23.64469719 5.50000000
v 7.78693581 23.69712067 5.50000000
v 7.87733507 23.75341225 5.50000000
v 7.96397734 23.81332970 5.50000000
v 8.04649258 23.87661362 5.50000000
v 8.12452507 23.94299698 5.50000000
v 7.53968954 25.82018089 5.50000000
v 7.63794518 25.80901146 5.50000000
v 7.73346901 25.79266739 5.50000000
v 7.82585192 25.77121353 5.50000000
v 7.91469860 25.74474525 5.50000000
v 8.08027744 25.67723656 5.50000000
v 8.11294460 25.65972710 5.50000000
v 7.99962854 25.71337509 5.50000000
v 8.19774342 24.01219368 5.50000000
v 8.26583290 24.08390617 5.50000000
v 8.32850075 24.15782928 5.50000000
v 8.38548088 24.23364639 5.50000000
v 8.43652821 24.31103134 5.50000000
v 8.45877934 24.35000038 5.50000000
v 8.61294460 24.85000038 5.50000000
v 9.60000038 24.35000038 5.00000000
v 9.60000038 24.85000038 5.00000000
v 9.60000038 24.35000038 5.50000000
v 9.60000038 24.85000038 5.50000000
v 8.11294460 29.62500000 4.59999990
v 8.11294460 29.97500038 4.59999990
v 8.61294460 29.62500000 4.59999990
v 8.61294460 29.97500038 4.59999990
v 8.11294460 32.22499847 4.59999990
v 8.11294460 32.57500076 4.59999990
v 8.61294460 32.22499847 4.59999990
v 8.61294460 32.57500076 4.59999990
v 8.11294460 26.95000076 5.00000000
v 8.11294460 27.45000076 5.00000000
v 8.11294460 29.62500000 5.00000000
v 8.11294460 29.97500038 5.00000000
v 8.61294460 26.95000076 5.00000000
v 8.61294460 27.45000076 5.00000000
v 8.61294460 29.62500000 5.00000000
v 8.61294460 29.97500038 5.00000000
v 8.11294460 26.95000076 5.50000000
v 8.11294460 27.45000076 5.50000000
v 8.61294460 26.95000076 5.50000000
v 8.61294460 27.45000076 5.50000000
v 8.11294460 32.22499847 5.00000000
v 8.11294460 32.57500076 5.00000000
v 8.11294460 33.70000076 5.00000000
v 8.61294460 32.22499847 5.00000000
v 8.61294460 32.57500076 5.00000000
v 8.61294460 33.70000076 5.00000000
v 8.11294460 33.70000076 5.50000000
v 8.61294460 33.70000076 5.50000000
v 9.60000038 26.95000076 5.00000000
v 9.60000038 27.45000076 5.00000000
v 9.60000038 26.95000076 5.50000000
v 9.60000038 27.45000076 5.50000000
v 9.64653301 32.81160355 5.00000000
v 9.70681190 32.75813675 5.00000000
v 9.77262783 32.70870209 5.00000000
v 9.84369946 32.66351318 5.00000000
v 9.91972256 32.62276459 5.00000000
v 9.41381836 33.20320511 5.00000000
v 9.38919640 33.35391998 5.00000000
v 9.39807701 33.27766037 5.00000000
v 9.43635178 33.13087845 5.00000000
v 9.46558094 33.06098938 5.00000000
v 9.50137997 32.99383545 5.00000000
v 9.38721275 33.43166351 5.00000000
v 9.39213467 33.51055908 5.00000000
v 9.40394306 33.59026337 5.00000000
v 9.42258453 33.67043686 5.00000000
v 9.44798183 33.75074005 5.00000000
v 9.48002529 33.83082199 5.00000000
v 9.54359722 32.92970657 5.00000000
v 9.59205055 32.86887741 5.00000000
v 9.51857662 33.91034698 5.00000000
v 9.56347179 33.98896790 5.00000000
v 9.61451912 34.06635284 5.00000000
v 9.67149925 34.14216995 5.00000000
v 9.73416710 34.21609497 5.00000000
v 9.80225658 34.28780746 5.00000000
v 9.87547493 34.35700226 5.00000000
v 9.95350742 34.42338562 5.00000000
v 9.64653301 32.81160355 5.50000000
v 9.70681190 32.75813675 5.50000000
v 9.77262783 32.70870209 5.50000000
v 9.84369946 32.66351318 5.50000000
v 9.91972256 32.62276459 5.50000000
v 9.41381836 33.20320511 5.50000000
v 9.38919640 33.35391998 5.50000000
v 9.39807701 33.27766037 5.50000000
v 9.43635178 33.13087845 5.50000000
v 9.46558094 33.06098938 5.50000000
v 9.50137997 32.99383545 5.50000000
v 9.38721275 33.43166351 5.50000000
v 9.39213467 33.51055908 5.50000000
v 9.40394306 33.59026337 5.50000000
v 9.42258453 33.67043686 5.50000000
v 9.44798183 33.75074005 5.50000000
v 9.48002529 33.83082199 5.50000000
v 9.54359722 32.92970657 5.50000000
v 9.59205055 32.86887741 5.50000000
v 9.51857662 33.91034698 5.50000000
v 9.56347179 33.98896790 5.50000000
v 9.61451912 34.06635284 5.50000000
v 9.67149925 34.14216995 5.50000000
v 9.73416710 34.21609497 5.50000000
v 9.80225658 34.28780746 5.50000000
v 9.87547493 34.35700226 5.50000000
v 9.95350742 34.42338562 5.50000000
v 0.60000002 69.40000153 0.00000000
v 0.00000000 69.40000153 0.60000002
v 0.60000002 70.00000000 0.60000002
v 0.19999985 35.17499924 4.59999990
v 0.19999985 37.42499924 4.59999990
v 0.19999985 37.77500153 4.59999990
v 0.19999985 40.02500153 4.59999990
v 0.19999985 40.37500000 4.59999990
v 0.60000002 35.17499924 5.00000000
v 0.60000002 37.42499924 5.00000000
v 0.60000002 37.77500153 5.00000000
v 0.60000002 40.02500153 5.00000000
v 0.60000002 40.37500000 5.00000000
v 0.00000000 69.40000153 4.40000010
v 0.60000002 70.00000000 4.40000010
v 0.60000002 69.40000153 5.00000000
v 5.89419699 56.73559189 4.59999990
v 7.10580301 56.26440811 4.59999990
v 5.89419699 56.73559189 5.00000000
v 7.10580301 56.26440811 5.00000000
v 7.99464369 58.54999924 4.59999990
v 8.50019932 59.84999847 4.59999990
v 7.99464369 58.54999924 5.00000000
v 8.50019932 59.84999847 5.00000000
v 9.39419651 65.73558807 4.59999990
v 9.39419651 65.73558807 5.00000000
v 19.39999962 0.60000002 0.00000000
v 19.39999962 0.00000000 0.60000002
v 20.00000000 0.60000002 0.60000002
v 10.03184223 32.57500076 4.59999990
v 10.08530140 32.55525589 4.59999990
v 10.17414761 32.52878571 4.59999990
v 10.26653099 32.50733185 4.59999990
v 10.36205482 32.49098587 4.59999990
v 10.46030998 32.47982025 4.59999990
v 10.56087685 32.47387695 4.59999990
v 10.66332436 32.47318268 4.59999990
v 10.76721287 32.47774124 4.59999990
v 10.87209797 32.48753738 4.59999990
v 10.97753143 32.50252151 4.59999990
v 11.08306122 32.52263641 4.59999990
v 11.18823433 32.54779053 4.59999990
v 10.71738815 34.82500076 4.59999990
v 10.81176567 34.85220718 4.59999990
v 10.91693878 34.87736511 4.59999990
v 11.02246857 34.89747620 4.59999990
v 11.12790203 34.91246414 4.59999990
v 11.23278713 34.92225647 4.59999990
v 11.28261280 32.57500076 4.59999990
v 11.33667564 34.92681885 4.59999990
v 11.43912315 34.92612457 4.59999990
v 11.53969002 34.92018127 4.59999990
v 11.63794518 34.90901184 4.59999990
v 11.73346901 34.89266586 4.59999990
v 11.82585239 34.87121201 4.59999990
v 11.91469860 34.84474564 4.59999990
v 11.96815109 34.82500076 4.59999990
v 12.11294460 34.82500076 4.59999990
v 10.00037193 32.58662415 5.00000000
v 10.03184223 32.57500076 5.00000000
v 10.03602219 34.48667145 5.00000000
v 10.12266541 34.54658890 5.00000000
v 10.21306419 34.60287857 5.00000000
v 10.30683327 34.65530396 5.00000000
v 10.40357113 34.70363617 5.00000000
v 10.50286198 34.74767303 5.00000000
v 10.60428238 34.78722382 5.00000000
v 10.71738815 34.82500076 5.00000000
v 10.70739746 34.82212067 5.00000000
v 10.00037193 32.58662415 5.50000000
v 10.08530140 32.55525589 5.50000000
v 10.17414761 32.52878571 5.50000000
v 10.26653099 32.50733185 5.50000000
v 10.36205482 32.49098587 5.50000000
v 10.46030998 32.47982025 5.50000000
v 10.56087685 32.47387695 5.50000000
v 10.03602219 34.48667145 5.50000000
v 10.12266541 34.54658890 5.50000000
v 10.21306419 34.60287857 5.50000000
v 10.30683327 34.65530396 5.50000000
v 10.40357113 34.70363617 5.50000000
v 10.50286198 34.74767303 5.50000000
v 10.60428238 34.78722382 5.50000000
v 10.66332436 32.47318268 5.50000000
v 10.76721287 32.47774124 5.50000000
v 10.87209797 32.48753738 5.50000000
v 10.97753143 32.50252151 5.50000000
v 11.08306122 32.52263641 5.50000000
v 11.18823433 32.54779053 5.50000000
v 10.70739746 34.82212067 5.50000000
v 10.81176567 34.85220718 5.50000000
v 10.91693878 34.87736511 5.50000000
v 11.02246857 34.89747620 5.50000000
v 11.12790203 34.91246414 5.50000000
v 11.23278713 34.92225647 5.50000000
v 11.28261280 32.57500076 5.00000000
v 11.29260254 32.57788086 5.00000000
v 11.39571762 32.61277390 5.00000000
v 11.49713802 32.65232468 5.00000000
v 11.59642887 32.69636154 5.00000000
v 11.69316673 32.74469757 5.00000000
v 11.78693581 32.79712296 5.00000000
v 11.87733459 32.85341263 5.00000000
v 11.96397781 32.91333008 5.00000000
v 12.04649258 32.97661591 5.00000000
v 12.12452507 33.04299545 5.00000000
v 11.96815109 34.82500076 5.00000000
v 11.99962807 34.81337357 5.00000000
v 12.08027744 34.77723694 5.00000000
v 12.11294460 34.75972748 5.00000000
v 12.11294460 34.82500076 5.00000000
v 12.19774342 33.11219406 5.00000000
v 12.26583290 33.18390656 5.00000000
v 12.32850075 33.25782776 5.00000000
v 12.38548088 33.33364487 5.00000000
v 12.43652821 33.41102982 5.00000000
v 12.48142338 33.48965454 5.00000000
v 11.29260254 32.57788086 5.50000000
v 11.39571762 32.61277390 5.50000000
v 11.49713802 32.65232468 5.50000000
v 11.59642887 32.69636154 5.50000000
v 11.69316673 32.74469757 5.50000000
v 11.78693581 32.79712296 5.50000000
v 11.33667564 34.92681885 5.50000000
v 11.43912315 34.92612457 5.50000000
v 11.53969002 34.92018127 5.50000000
v 11.63794518 34.90901184 5.50000000
v 11.73346901 34.89266586 5.50000000
v 11.82585239 34.87121201 5.50000000
v 11.87733459 32.85341263 5.50000000
v 11.96397781 32.91333008 5.50000000
v 12.04649258 32.97661591 5.50000000
v 12.12452507 33.04299545 5.50000000
v 11.91469860 34.84474564 5.50000000
v 11.99962807 34.81337357 5.50000000
v 12.08027744 34.77723694 5.50000000
v 12.11294460 34.75972748 5.50000000
v 12.19774342 33.11219406 5.50000000
v 12.26583290 33.18390656 5.50000000
v 12.32850075 33.25782776 5.50000000
v 12.38548088 33.33364487 5.50000000
v 12.43652821 33.41102982 5.50000000
v 12.48142338 33.48965454 5.50000000
v 12.61294460 34.82500076 4.59999990
v 13.38705540 34.82500076 4.59999990
v 13.88705540 34.82500076 4.59999990
v 12.51997471 33.56917953 5.00000000
v 12.55201817 33.64926147 5.00000000
v 12.56806564 33.70000076 5.00000000
v 12.61294460 33.70000076 5.00000000
v 12.61294460 34.82500076 5.00000000
v 13.38705540 33.70000076 5.00000000
v 13.38705540 34.82500076 5.00000000
v 12.51997471 33.56917953 5.50000000
v 12.55201817 33.64926147 5.50000000
v 12.56806564 33.70000076 5.50000000
v 12.61294460 33.70000076 5.50000000
v 13.38705540 33.70000076 5.50000000
v 13.88705540 33.70000076 5.00000000
v 13.88705540 34.82500076 5.00000000
v 13.88705540 33.70000076 5.50000000
v 19.39999962 0.00000000 4.40000010
v 20.00000000 0.60000002 4.40000010
v 19.39999962 0.60000002 5.00000000
v 19.79999924 29.62500000 4.59999990
v 19.79999924 29.97500038 4.59999990
v 19.79999924 32.22499847 4.59999990
v 19.79999924 32.57500076 4.59999990
v 19.79999924 34.82500076 4.59999990
v 19.39999962 29.62500000 5.00000000
v 19.39999962 29.97500038 5.00000000
v 19.39999962 32.22499847 5.00000000
v 19.39999962 32.57500076 5.00000000
v 19.39999962 34.82500076 5.00000000
v 19.39999962 69.40000153 0.00000000
v 19.39999962 70.00000000 0.60000002
v 20.00000000 69.40000153 0.60000002
v 12.11294460 35.17499924 4.59999990
v 12.11294460 37.42499924 4.59999990
v 12.11294460 37.77500153 4.59999990
v 12.11294460 40.02500153 4.59999990
v 12.11294460 40.37500000 4.59999990
v 12.11294460 35.17499924 5.00000000
v 12.11294460 37.42499924 5.00000000
v 12.11294460 37.77500153 5.00000000
v 12.11294460 40.02500153 5.00000000
v 12.11294460 40.37500000 5.00000000
v 12.11294460 42.20000076 5.00000000
v 12.39999962 42.54999924 5.00000000
v 12.39999962 43.04999924 5.00000000
v 12.11294460 42.20000076 5.50000000
v 12.39999962 42.54999924 5.50000000
v 12.39999962 43.04999924 5.50000000
v 12.61294460 35.17499924 4.59999990
v 12.61294460 37.42499924 4.59999990
v 12.61294460 37.77500153 4.59999990
v 13.38705540 35.17499924 4.59999990
v 13.38705540 37.42499924 4.59999990
v 13.38705540 37.77500153 4.59999990
v 12.61294460 40.02500153 4.59999990
v 12.61294460 40.37500000 4.59999990
v 13.38705540 40.02500153 4.59999990
v 13.38705540 40.37500000 4.59999990
v 13.88705540 35.17499924 4.59999990
v 13.88705540 37.42499924 4.59999990
v 13.88705540 37.77500153 4.59999990
v 13.88705540 40.02500153 4.59999990
v 13.88705540 40.37500000 4.59999990
v 12.61294460 35.17499924 5.00000000
v 12.61294460 37.42499924 5.00000000
v 12.61294460 37.77500153 5.00000000
v 13.38705540 35.17499924 5.00000000
v 13.38705540 37.42499924 5.00000000
v 13.38705540 37.77500153 5.00000000
v 12.61294460 40.02500153 5.00000000
v 12.61294460 40.37500000 5.00000000
v 12.61294460 42.20000076 5.00000000
v 13.38705540 40.02500153 5.00000000
v 13.38705540 40.37500000 5.00000000
v 13.38705540 42.54999924 5.00000000
v 13.54122066 43.04999924 5.00000000
v 13.56347179 43.08897018 5.00000000
v 13.61451912 43.16635513 5.00000000
v 13.67149925 43.24217224 5.00000000
v 13.73416710 43.31609344 5.00000000
v 12.61294460 42.20000076 5.50000000
v 13.38705540 42.54999924 5.50000000
v 13.54122066 43.04999924 5.50000000
v 13.56347179 43.08897018 5.50000000
v 13.61451912 43.16635513 5.50000000
v 13.67149925 43.24217224 5.50000000
v 13.73416710 43.31609344 5.50000000
v 13.88705540 35.17499924 5.00000000
v 13.88705540 37.42499924 5.00000000
v 13.88705540 37.77500153 5.00000000
v 13.88705540 40.02500153 5.00000000
v 13.88705540 40.37500000 5.00000000
v 13.88705540 41.74027252 5.00000000
v 13.91972256 41.72276306 5.00000000
v 14.00037193 41.68662643 5.00000000
v 13.80225658 43.38780594 5.00000000
v 13.87547493 43.45700455 5.00000000
v 13.95350742 43.52338409 5.00000000
v 14.03602219 43.58666992 5.00000000
v 14.08530140 41.65525436 5.00000000
v 14.17414761 41.62878799 5.00000000
v 14.26653099 41.60733414 5.00000000
v 14.36205482 41.59098816 5.00000000
v 14.12266541 43.64658737 5.00000000
v 14.21306419 43.70287704 5.00000000
v 14.46030998 41.57981873 5.00000000
v 14.56087685 41.57387543 5.00000000
v 14.66332436 41.57318115 5.00000000
v 14.76721287 41.57774353 5.00000000
v 14.87209797 41.58753586 5.00000000
v 14.97753143 41.60252380 5.00000000
v 13.88705540 41.74027252 5.50000000
v 13.91972256 41.72276306 5.50000000
v 14.00037193 41.68662643 5.50000000
v 13.80225658 43.38780594 5.50000000
v 13.87547493 43.45700455 5.50000000
v 13.95350742 43.52338409 5.50000000
v 14.03602219 43.58666992 5.50000000
v 14.08530140 41.65525436 5.50000000
v 14.17414761 41.62878799 5.50000000
v 14.26653099 41.60733414 5.50000000
v 14.36205482 41.59098816 5.50000000
v 14.12266541 43.64658737 5.50000000
v 14.21306419 43.70287704 5.50000000
v 14.46030998 41.57981873 5.50000000
v 14.56087685 41.57387543 5.50000000
v 14.66332436 41.57318115 5.50000000
v 14.76721287 41.57774353 5.50000000
v 14.87209797 41.58753586 5.50000000
v 14.97753143 41.60252380 5.50000000
v 14.30683327 43.75530243 5.00000000
v 14.40357113 43.80363846 5.00000000
v 14.50286198 43.84767532 5.00000000
v 14.60428238 43.88722610 5.00000000
v 14.70739746 43.92211914 5.00000000
v 14.81176567 43.95220947 5.00000000
v 14.91693878 43.97736359 5.00000000
v 14.30683327 43.75530243 5.50000000
v 14.40357113 43.80363846 5.50000000
v 14.50286198 43.84767532 5.50000000
v 14.60428238 43.88722610 5.50000000
v 14.70739746 43.92211914 5.50000000
v 14.81176567 43.95220947 5.50000000
v 14.91693878 43.97736359 5.50000000
v 11.49980068 59.84999847 4.59999990
v 12.00535679 58.54999924 4.59999990
v 11.49980068 59.84999847 5.00000000
v 12.00535679 58.54999924 5.00000000
v 10.00000000 63.70663071 4.59999990
v 10.00000000 65.50000000 4.59999990
v 10.60580349 65.73558807 4.59999990
v 10.00000000 63.70663071 5.00000000
v 10.00000000 65.50000000 5.00000000
v 10.60580349 65.73558807 5.00000000
v 12.89419651 56.26440811 4.59999990
v 14.10580349 56.73559189 4.59999990
v 12.89419651 56.26440811 5.00000000
v 14.10580349 56.73559189 5.00000000
v 15.08306122 41.62263489 5.00000000
v 15.18823433 41.64779282 5.00000000
v 15.29260254 41.67787933 5.00000000
v 15.39571762 41.71277618 5.00000000
v 15.49713802 41.75232697 5.00000000
v 15.59642887 41.79636383 5.00000000
v 15.69316673 41.84469604 5.00000000
v 15.78693581 41.89712143 5.00000000
v 15.87733459 41.95341110 5.00000000
v 15.96397781 42.01332855 5.00000000
v 16.04649162 42.07661438 5.00000000
v 16.12452507 42.14299774 5.00000000
v 16.19774437 42.21219254 5.00000000
v 15.08306122 41.62263489 5.50000000
v 15.18823433 41.64779282 5.50000000
v 15.29260254 41.67787933 5.50000000
v 15.39571762 41.71277618 5.50000000
v 15.49713802 41.75232697 5.50000000
v 15.59642887 41.79636383 5.50000000
v 15.69316673 41.84469604 5.50000000
v 15.78693581 41.89712143 5.50000000
v 15.87733459 41.95341110 5.50000000
v 15.96397781 42.01332855 5.50000000
v 16.04649162 42.07661438 5.50000000
v 16.12452507 42.14299774 5.50000000
v 16.19774437 42.21219254 5.50000000
v 16.26583290 42.28390503 5.00000000
v 16.32850075 42.35783005 5.00000000
v 16.38548088 42.43364716 5.00000000
v 16.43652725 42.51103210 5.00000000
v 16.45878029 42.54999924 5.00000000
v 16.29318810 43.74186325 5.00000000
v 16.35346603 43.68839645 5.00000000
v 16.40794945 43.63112259 5.00000000
v 16.45640373 43.57029343 5.00000000
v 16.53442001 43.43901062 5.00000000
v 16.49861908 43.50616455 5.00000000
v 16.61164284 43.04999924 5.00000000
v 16.61278725 43.06833649 5.00000000
v 16.61080360 43.14608002 5.00000000
v 16.58618164 43.29679489 5.00000000
v 16.56364822 43.36912155 5.00000000
v 16.60192299 43.22233963 5.00000000
v 16.26583290 42.28390503 5.50000000
v 16.32850075 42.35783005 5.50000000
v 16.38548088 42.43364716 5.50000000
v 16.43652725 42.51103210 5.50000000
v 16.45878029 42.54999924 5.50000000
v 16.29318810 43.74186325 5.50000000
v 16.35346603 43.68839645 5.50000000
v 16.40794945 43.63112259 5.50000000
v 16.45640373 43.57029343 5.50000000
v 16.53442001 43.43901062 5.50000000
v 16.49861908 43.50616455 5.50000000
v 16.61164284 43.04999924 5.50000000
v 16.61278725 43.06833649 5.50000000
v 16.61080360 43.14608002 5.50000000
v 16.58618164 43.29679489 5.50000000
v 16.56364822 43.36912155 5.50000000
v 16.60192299 43.22233963 5.50000000
v 15.02246857 43.99747849 5.00000000
v 15.12790203 44.01246262 5.00000000
v 15.23278713 44.02225876 5.00000000
v 15.33667564 44.02681732 5.00000000
v 15.43912315 44.02612305 5.00000000
v 15.53969002 44.02017975 5.00000000
v 15.63794518 44.00901413 5.00000000
v 15.73346901 43.99266815 5.00000000
v 15.82585239 43.97121429 5.00000000
v 15.91469860 43.94474411 5.00000000
v 15.99962807 43.91337585 5.00000000
v 16.08027840 43.87723541 5.00000000
v 16.15630150 43.83648682 5.00000000
v 16.22737312 43.79129791 5.00000000
v 15.02246857 43.99747849 5.50000000
v 15.12790203 44.01246262 5.50000000
v 15.23278713 44.02225876 5.50000000
v 15.33667564 44.02681732 5.50000000
v 15.43912315 44.02612305 5.50000000
v 15.53969002 44.02017975 5.50000000
v 15.63794518 44.00901413 5.50000000
v 15.73346901 43.99266815 5.50000000
v 15.82585239 43.97121429 5.50000000
v 15.91469860 43.94474411 5.50000000
v 15.99962807 43.91337585 5.50000000
v 16.08027840 43.87723541 5.50000000
v 16.15630150 43.83648682 5.50000000
v 16.22737312 43.79129791 5.50000000
v 19.79999924 35.17499924 4.59999990
v 19.79999924 37.42499924 4.59999990
v 19.79999924 37.77500153 4.59999990
v 19.79999924 40.02500153 4.59999990
v 19.79999924 40.37500000 4.59999990
v 17.60000038 42.54999924 5.00000000
v 17.60000038 43.04999924 5.00000000
v 17.60000038 42.54999924 5.50000000
v 17.60000038 43.04999924 5.50000000
v 19.39999962 35.17499924 5.00000000
v 19.39999962 37.42499924 5.00000000
v 19.39999962 37.77500153 5.00000000
v 19.39999962 40.02500153 5.00000000
v 19.39999962 40.37500000 5.00000000
v 19.39999962 70.00000000 4.40000010
v 20.00000000 69.40000153 4.40000010
v 19.39999962 69.40000153 5.00000000
f 1 3 2
f 2 3 5
f 1 2 267
f 2 4 268
f 1 294 3
f 1 267 293
f 2 5 4
f 4 5 6
f 4 6 7
f 6 12 7
f 4 7 280
f 8 13 9
f 10 15 11
f 13 14 9
f 11 15 16
f 18 37 21
f 7 182 8
f 7 12 181
f 9 186 10
f 9 14 185
f 11 309 270
f 11 16 309
f 8 192 13
f 12 17 18
f 12 18 21
f 12 21 22
f 10 202 15
f 13 201 14
f 15 203 16
f 12 22 191
f 3 428 5
f 5 428 6
f 6 430 12
f 430 27 17
f 17 33 30
f 17 34 33
f 17 30 31
f 17 31 32
f 17 25 34
f 17 26 25
f 17 27 26
f 18 35 36
f 18 36 37
f 46 21 37
f 47 21 46
f 48 21 47
f 49 21 48
f 50 21 49
f 51 21 50
f 52 21 51
f 21 52 53
f 21 53 90
f 21 90 91
f 21 91 92
f 21 92 93
f 21 93 94
f 21 94 95
f 21 95 102
f 21 102 103
f 21 103 104
f 21 104 105
f 21 105 106
f 21 106 107
f 7 181 182
f 8 182 192
f 9 185 186
f 10 186 202
f 270 309 310
f 270 310 311
f 270 311 312
f 270 312 313
f 12 191 181
f 14 201 185
f 13 192 201
f 15 202 203
f 16 203 206
f 16 206 226
f 21 107 189
f 191 22 190
f 16 226 227
f 16 227 228
f 16 228 229
f 16 229 232
f 16 232 233
f 16 233 234
f 16 234 235
f 16 235 236
f 16 236 237
f 16 237 238
f 16 238 239
f 16 239 327
f 16 334 309
f 16 327 328
f 16 328 329
f 16 329 330
f 16 330 331
f 16 331 332
f 16 332 333
f 16 333 335
f 16 335 334
f 12 430 17
f 140 189 107
f 141 189 140
f 142 189 141
f 143 189 142
f 144 189 143
f 147 189 144
f 145 189 147
f 146 189 145
f 154 178 209
f 187 296 188
f 187 297 296
f 187 298 297
f 187 299 298
f 187 300 299
f 187 301 300
f 187 302 301
f 326 188 296
f 154 209 193
f 188 326 205
f 205 231 230
f 205 213 231
f 205 214 213
f 205 215 214
f 205 218 206
f 205 222 221
f 205 221 218
f 205 223 222
f 219 206 220
f 224 206 219
f 225 206 224
f 226 206 225
f 220 206 218
f 205 230 223
f 205 216 215
f 205 217 216
f 205 325 217
f 205 326 325
f 2 268 267
f 267 268 269
f 268 281 269
f 267 269 442
f 269 281 442
f 4 280 268
f 270 275 271
f 272 277 273
f 7 8 280
f 271 275 276
f 277 278 273
f 8 9 280
f 9 10 280
f 10 11 280
f 11 270 280
f 270 271 280
f 271 272 280
f 272 273 280
f 273 274 280
f 274 279 280
f 271 446 272
f 271 276 445
f 273 448 274
f 273 278 447
f 274 448 279
f 270 449 275
f 272 451 277
f 275 450 276
f 277 452 278
f 279 286 285
f 268 280 281
f 279 282 280
f 279 285 282
f 280 282 281
f 279 568 286
f 270 313 314
f 270 314 316
f 270 316 317
f 270 317 444
f 270 444 449
f 271 445 446
f 272 446 451
f 273 447 448
f 275 449 450
f 276 450 445
f 277 451 452
f 278 452 447
f 279 448 453
f 279 453 454
f 279 454 568
f 283 285 284
f 283 284 287
f 283 287 288
f 284 286 287
f 285 286 284
f 283 292 285
f 281 282 672
f 282 285 292
f 282 292 564
f 282 564 565
f 283 288 560
f 287 289 557
f 287 556 288
f 288 290 560
f 286 289 287
f 286 559 289
f 288 558 290
f 283 561 291
f 283 560 561
f 283 291 292
f 291 561 564
f 290 563 560
f 291 564 292
f 1 293 294
f 3 294 428
f 293 295 294
f 294 295 428
f 293 441 295
f 430 28 27
f 430 29 28
f 430 38 29
f 430 39 38
f 430 40 39
f 430 41 40
f 430 42 41
f 430 43 42
f 430 44 43
f 430 45 44
f 430 83 45
f 430 84 83
f 430 85 84
f 430 86 85
f 430 87 86
f 430 88 87
f 430 89 88
f 430 96 89
f 430 97 96
f 430 98 97
f 430 99 98
f 430 100 99
f 430 101 100
f 430 133 101
f 430 134 133
f 430 135 134
f 430 136 135
f 430 137 136
f 430 138 137
f 430 139 138
f 430 148 139
f 430 149 148
f 430 150 149
f 430 151 150
f 430 152 151
f 430 153 152
f 430 177 153
f 6 428 430
f 430 178 177
f 432 184 183
f 431 183 195
f 444 319 320
f 433 187 204
f 444 320 321
f 444 321 322
f 444 322 323
f 323 324 444
f 323 373 324
f 437 196 184
f 436 195 194
f 438 204 196
f 324 373 377
f 373 374 377
f 377 374 375
f 377 375 376
f 433 302 187
f 410 417 411
f 433 303 302
f 433 304 303
f 410 411 463
f 433 305 304
f 433 306 305
f 433 307 306
f 433 308 307
f 433 315 308
f 436 194 210
f 436 209 178
f 436 210 209
f 414 416 415
f 417 416 418
f 417 419 411
f 417 418 419
f 439 362 315
f 439 363 362
f 439 364 363
f 439 365 364
f 439 366 365
f 439 367 366
f 439 368 367
f 439 369 368
f 439 370 369
f 439 371 370
f 439 372 371
f 439 378 372
f 439 379 378
f 439 380 379
f 439 381 380
f 439 382 381
f 439 383 382
f 439 413 383
f 439 414 413
f 439 416 414
f 295 429 428
f 428 429 430
f 429 436 430
f 295 673 429
f 430 436 178
f 431 432 183
f 432 437 184
f 435 412 426
f 434 439 315
f 433 434 315
f 431 195 436
f 439 418 416
f 439 425 418
f 433 204 438
f 437 438 196
f 440 426 425
f 429 431 436
f 435 658 412
f 429 673 431
f 432 433 438
f 434 435 440
f 435 426 440
f 439 440 425
f 432 438 437
f 434 440 439
f 267 441 293
f 267 442 441
f 295 441 443
f 295 443 673
f 441 442 443
f 442 673 443
f 444 317 318
f 444 318 319
f 456 454 455
f 483 455 454
f 568 454 456
f 410 463 460
f 461 465 462
f 461 476 464
f 460 463 478
f 461 464 465
f 462 465 480
f 469 467 466
f 466 481 468
f 468 469 466
f 469 485 467
f 460 478 475
f 479 476 475
f 480 477 462
f 477 484 481
f 475 478 479
f 464 476 479
f 480 484 477
f 485 482 467
f 485 483 482
f 455 483 486
f 468 481 484
f 485 486 483
f 456 487 488
f 456 488 489
f 456 489 490
f 503 505 504
f 503 506 505
f 503 511 506
f 503 512 511
f 503 513 512
f 503 514 513
f 503 517 514
f 503 518 517
f 503 519 518
f 503 520 519
f 568 456 490
f 568 490 491
f 568 491 507
f 568 507 508
f 568 508 509
f 568 509 510
f 568 510 515
f 568 515 516
f 568 516 542
f 568 542 543
f 568 543 544
f 568 544 545
f 568 545 546
f 568 546 547
f 568 547 548
f 568 548 630
f 568 630 631
f 568 631 632
f 568 632 633
f 568 633 634
f 568 634 635
f 568 635 636
f 568 636 637
f 568 637 638
f 568 638 639
f 568 639 640
f 568 640 641
f 281 672 442
f 287 557 556
f 288 556 558
f 557 559 566
f 557 567 561
f 290 558 563
f 289 559 557
f 286 568 559
f 556 563 558
f 556 561 560
f 556 560 563
f 556 557 561
f 561 562 565
f 561 567 562
f 561 565 564
f 282 565 674
f 562 569 565
f 566 568 567
f 557 566 567
f 562 567 569
f 568 569 567
f 559 568 566
f 282 674 672
f 565 569 674
f 658 470 412
f 660 472 471
f 659 471 500
f 662 474 473
f 661 473 502
f 667 499 470
f 668 500 499
f 669 501 472
f 670 502 501
f 671 503 474
f 671 520 503
f 671 521 520
f 671 522 521
f 671 570 522
f 671 571 570
f 671 572 571
f 671 573 572
f 671 574 573
f 671 575 574
f 671 576 575
f 671 577 576
f 671 578 577
f 671 579 578
f 671 580 579
f 671 581 580
f 607 664 608
f 612 664 610
f 608 664 609
f 609 664 612
f 611 664 605
f 610 664 611
f 671 582 581
f 671 596 582
f 671 597 596
f 671 598 597
f 671 599 598
f 671 600 599
f 568 641 642
f 568 642 643
f 568 643 601
f 568 601 602
f 568 602 603
f 568 603 604
f 568 604 606
f 568 606 605
f 568 605 664
f 568 671 569
f 568 664 671
f 658 667 470
f 659 660 471
f 660 669 472
f 661 662 473
f 662 671 474
f 658 659 668
f 660 661 670
f 431 673 432
f 667 668 499
f 659 500 668
f 669 670 501
f 661 502 670
f 671 663 600
f 671 664 663
f 658 668 667
f 660 670 669
f 432 673 433
f 433 673 434
f 434 673 435
f 435 673 658
f 658 673 659
f 659 673 660
f 660 673 661
f 661 673 662
f 662 674 671
f 442 672 673
f 662 673 674
f 569 671 674
f 672 674 673
f 19 18 17
f 19 20 18
f 19 17 61
f 20 64 18
f 19 64 20
f 23 22 21
f 23 24 22
f 54 34 25
f 55 25 26
f 56 26 27
f 57 27 28
f 58 28 29
f 55 54 25
f 55 26 56
f 56 27 57
f 58 29 67
f 57 28 58
f 55 63 54
f 55 56 57
f 55 57 63
f 57 58 67
f 57 69 63
f 61 17 32
f 64 35 18
f 59 31 30
f 60 32 31
f 63 33 34
f 62 30 33
f 64 36 35
f 65 37 36
f 19 61 64
f 59 60 31
f 60 61 32
f 62 33 63
f 63 34 54
f 62 59 30
f 64 65 36
f 65 66 37
f 59 61 60
f 62 63 59
f 63 61 59
f 63 64 61
f 63 78 64
f 64 66 65
f 67 29 38
f 68 38 39
f 69 39 40
f 70 40 41
f 71 41 42
f 72 42 43
f 73 43 44
f 74 44 45
f 108 45 83
f 68 67 38
f 68 39 69
f 69 40 70
f 70 41 71
f 57 67 69
f 68 69 67
f 69 70 71
f 63 69 110
f 69 71 73
f 71 42 72
f 72 43 73
f 73 44 74
f 74 45 108
f 71 72 73
f 69 73 110
f 73 74 108
f 66 46 37
f 75 47 46
f 76 48 47
f 77 49 48
f 78 50 49
f 79 51 50
f 80 52 51
f 81 53 52
f 82 90 53
f 66 75 46
f 75 76 47
f 64 76 66
f 66 76 75
f 64 78 76
f 76 77 48
f 77 78 49
f 78 79 50
f 76 78 77
f 63 118 78
f 79 80 51
f 80 81 52
f 81 82 53
f 78 80 79
f 78 82 80
f 80 82 81
f 78 118 82
f 109 83 84
f 110 84 85
f 111 85 86
f 112 86 87
f 113 87 88
f 114 88 89
f 108 83 109
f 109 84 110
f 110 85 111
f 73 108 110
f 108 109 110
f 110 111 112
f 111 86 112
f 112 87 113
f 113 88 114
f 110 112 114
f 63 110 160
f 112 113 114
f 115 91 90
f 116 92 91
f 117 93 92
f 118 94 93
f 119 95 94
f 120 102 95
f 82 115 90
f 115 116 91
f 116 117 92
f 82 116 115
f 82 118 116
f 116 118 117
f 63 168 118
f 117 118 93
f 118 119 94
f 119 120 95
f 118 120 119
f 118 128 120
f 121 89 96
f 122 96 97
f 123 97 98
f 124 98 99
f 125 99 100
f 126 100 101
f 114 89 121
f 121 96 122
f 122 97 123
f 110 114 124
f 114 121 122
f 114 122 124
f 123 98 124
f 124 99 125
f 125 100 126
f 122 123 124
f 110 124 160
f 124 125 126
f 124 126 156
f 127 103 102
f 128 104 103
f 129 105 104
f 130 106 105
f 131 107 106
f 132 140 107
f 120 127 102
f 127 128 103
f 128 129 104
f 120 128 127
f 118 132 128
f 128 130 129
f 63 160 168
f 129 130 105
f 130 131 106
f 131 132 107
f 128 132 130
f 130 132 131
f 118 168 132
f 24 190 22
f 23 21 197
f 23 198 24
f 197 21 189
f 23 197 198
f 24 198 190
f 155 101 133
f 156 133 134
f 157 134 135
f 158 135 136
f 159 136 137
f 160 137 138
f 161 138 139
f 126 101 155
f 155 133 156
f 156 134 157
f 126 155 156
f 124 156 160
f 156 157 158
f 157 135 158
f 158 136 159
f 159 137 160
f 160 138 161
f 156 158 160
f 158 159 160
f 160 161 170
f 162 141 140
f 163 142 141
f 164 143 142
f 165 144 143
f 166 147 144
f 169 145 147
f 167 146 145
f 168 189 146
f 132 162 140
f 162 163 141
f 163 164 142
f 164 165 143
f 132 163 162
f 132 165 163
f 163 165 164
f 132 168 165
f 165 166 144
f 169 167 145
f 167 168 146
f 166 169 147
f 165 169 166
f 169 168 167
f 165 168 169
f 170 139 148
f 171 148 149
f 161 139 170
f 170 148 171
f 160 170 172
f 172 149 150
f 173 150 151
f 174 151 152
f 175 152 153
f 171 149 172
f 172 150 173
f 173 151 174
f 170 171 172
f 160 172 175
f 172 173 174
f 172 174 175
f 160 175 199
f 160 199 168
f 174 152 175
f 176 154 199
f 175 176 199
f 176 178 154
f 179 153 177
f 175 153 179
f 175 180 176
f 176 180 178
f 175 179 180
f 180 177 178
f 179 177 180
f 181 192 182
f 195 183 184
f 185 202 186
f 204 187 188
f 181 191 192
f 196 195 184
f 198 191 190
f 168 197 189
f 198 192 191
f 198 201 192
f 199 154 193
f 168 199 197
f 197 199 198
f 198 199 200
f 208 194 195
f 198 200 207
f 200 194 208
f 185 201 202
f 204 188 205
f 198 207 201
f 207 202 201
f 207 203 202
f 208 195 196
f 208 196 204
f 200 208 207
f 207 206 203
f 208 204 205
f 208 205 206
f 207 208 206
f 200 210 194
f 211 193 209
f 199 193 211
f 199 212 200
f 199 211 212
f 200 212 210
f 212 209 210
f 211 209 212
f 241 213 214
f 242 214 215
f 243 215 216
f 244 216 217
f 336 217 325
f 240 213 241
f 241 214 242
f 242 215 243
f 243 216 244
f 244 217 336
f 258 241 243
f 241 242 243
f 243 244 336
f 245 220 218
f 247 219 220
f 248 218 221
f 249 221 222
f 250 222 223
f 257 223 230
f 246 224 219
f 251 225 224
f 252 226 225
f 253 227 226
f 254 228 227
f 255 229 228
f 256 232 229
f 258 230 231
f 240 231 213
f 259 233 232
f 260 234 233
f 261 235 234
f 262 236 235
f 263 237 236
f 264 238 237
f 265 239 238
f 266 327 239
f 247 246 219
f 245 247 220
f 248 245 218
f 248 221 249
f 250 249 222
f 250 223 257
f 246 251 224
f 251 252 225
f 252 253 226
f 253 254 227
f 254 255 228
f 255 256 229
f 256 259 232
f 257 230 258
f 258 231 240
f 247 251 246
f 248 251 247
f 248 247 245
f 250 248 249
f 250 258 248
f 251 253 252
f 251 255 253
f 248 255 251
f 253 255 254
f 255 259 256
f 250 257 258
f 248 243 255
f 258 243 248
f 258 240 241
f 259 260 233
f 260 261 234
f 261 262 235
f 255 261 259
f 259 261 260
f 255 265 261
f 261 263 262
f 262 263 236
f 263 264 237
f 264 265 238
f 265 266 239
f 261 265 263
f 263 265 264
f 265 343 266
f 255 349 265
f 326 296 297
f 323 322 373
f 338 297 298
f 339 298 299
f 340 299 300
f 341 300 301
f 342 301 302
f 337 326 297
f 350 302 303
f 351 303 304
f 352 304 305
f 353 305 306
f 354 306 307
f 355 307 308
f 355 308 315
f 357 310 309
f 357 311 310
f 358 312 311
f 359 313 312
f 360 314 313
f 357 309 334
f 337 325 326
f 337 297 338
f 338 298 339
f 339 299 340
f 340 300 341
f 341 301 342
f 342 302 350
f 336 325 337
f 243 336 338
f 336 337 338
f 243 338 342
f 338 339 340
f 338 340 342
f 340 341 342
f 243 342 385
f 343 328 327
f 344 329 328
f 345 330 329
f 346 331 330
f 347 332 331
f 348 333 332
f 243 385 255
f 266 343 327
f 343 344 328
f 344 345 329
f 345 346 330
f 265 345 343
f 343 345 344
f 265 349 345
f 345 347 346
f 346 347 331
f 347 348 332
f 348 349 333
f 345 349 347
f 347 349 348
f 350 303 351
f 351 304 352
f 352 305 353
f 353 306 354
f 354 307 355
f 342 350 351
f 342 351 353
f 351 352 353
f 342 353 385
f 353 354 355
f 353 355 385
f 349 335 333
f 356 334 335
f 357 358 311
f 358 359 312
f 359 360 313
f 360 361 314
f 349 356 335
f 356 357 334
f 255 403 349
f 349 357 356
f 349 359 357
f 357 359 358
f 255 385 403
f 349 391 359
f 359 361 360
f 359 391 361
f 355 315 362
f 361 316 314
f 390 317 316
f 391 318 317
f 392 319 318
f 393 320 319
f 394 321 320
f 395 322 321
f 324 377 449
f 400 373 322
f 384 362 363
f 385 363 364
f 386 364 365
f 387 365 366
f 388 366 367
f 389 367 368
f 355 362 384
f 384 363 385
f 385 364 386
f 386 365 387
f 355 384 385
f 385 386 387
f 387 366 388
f 388 367 389
f 385 387 389
f 387 388 389
f 361 390 316
f 390 391 317
f 391 392 318
f 396 368 369
f 392 393 319
f 393 394 320
f 394 395 321
f 361 391 390
f 349 403 391
f 391 393 392
f 389 368 396
f 385 389 399
f 391 395 393
f 393 395 394
f 391 403 395
f 397 369 370
f 398 370 371
f 399 371 372
f 404 372 378
f 400 374 373
f 401 375 374
f 395 400 322
f 402 376 375
f 403 377 376
f 403 449 377
f 405 378 379
f 406 379 380
f 407 380 381
f 408 381 382
f 409 382 383
f 396 369 397
f 397 370 398
f 398 371 399
f 399 372 404
f 389 396 397
f 389 397 399
f 385 399 403
f 397 398 399
f 400 401 374
f 401 402 375
f 402 403 376
f 395 401 400
f 395 403 401
f 401 403 402
f 404 378 405
f 405 379 406
f 406 380 407
f 407 381 408
f 408 382 409
f 409 383 420
f 399 404 405
f 399 405 407
f 405 406 407
f 407 408 420
f 408 409 420
f 417 410 460
f 426 412 470
f 411 419 478
f 420 383 413
f 421 413 414
f 422 414 415
f 423 415 416
f 423 416 417
f 423 417 475
f 420 413 421
f 421 414 422
f 422 415 423
f 420 421 422
f 424 419 418
f 424 478 419
f 427 418 425
f 424 418 427
f 427 425 426
f 427 426 499
f 324 449 444
f 445 451 446
f 447 453 448
f 445 450 451
f 403 450 449
f 403 451 450
f 399 492 403
f 399 407 492
f 403 452 451
f 403 457 452
f 447 452 453
f 457 453 452
f 403 492 457
f 457 454 453
f 457 483 454
f 458 456 455
f 457 492 483
f 458 459 456
f 476 461 462
f 411 478 463
f 465 464 480
f 481 466 467
f 468 485 469
f 500 471 472
f 502 473 474
f 460 475 417
f 462 477 476
f 464 479 480
f 423 475 492
f 407 420 492
f 420 422 492
f 422 423 492
f 492 475 476
f 492 476 477
f 424 479 478
f 424 480 479
f 424 484 480
f 424 427 493
f 424 493 484
f 427 523 493
f 482 481 467
f 468 484 485
f 492 477 481
f 492 481 482
f 492 482 483
f 493 455 486
f 458 455 493
f 459 494 456
f 458 494 459
f 458 493 494
f 493 485 484
f 493 486 485
f 494 487 456
f 494 488 487
f 495 489 488
f 496 490 489
f 497 491 490
f 494 495 488
f 495 496 489
f 496 497 490
f 497 498 491
f 493 497 494
f 494 497 495
f 495 497 496
f 497 526 498
f 470 499 426
f 472 501 500
f 427 499 523
f 523 499 500
f 523 500 501
f 503 502 474
f 523 501 502
f 523 502 503
f 523 503 504
f 524 504 505
f 525 505 506
f 530 506 511
f 498 507 491
f 526 508 507
f 527 509 508
f 528 510 509
f 531 511 512
f 532 512 513
f 533 513 514
f 529 515 510
f 534 516 515
f 535 542 516
f 523 504 524
f 524 505 525
f 525 506 530
f 493 523 531
f 523 524 525
f 523 525 531
f 493 541 497
f 498 526 507
f 526 527 508
f 527 528 509
f 528 529 510
f 497 528 526
f 526 528 527
f 497 549 528
f 528 534 529
f 530 511 531
f 531 512 532
f 532 513 533
f 525 530 531
f 493 531 541
f 531 532 533
f 531 533 537
f 529 534 515
f 534 535 516
f 535 549 542
f 528 549 534
f 534 549 535
f 497 645 549
f 536 514 517
f 537 517 518
f 538 518 519
f 539 519 520
f 540 520 521
f 541 521 522
f 533 514 536
f 536 517 537
f 537 518 538
f 533 536 537
f 531 537 541
f 537 538 539
f 538 519 539
f 539 520 540
f 540 521 541
f 537 539 541
f 539 540 541
f 549 543 542
f 549 550 543
f 550 544 543
f 551 545 544
f 552 546 545
f 553 547 546
f 554 548 547
f 555 630 548
f 550 551 544
f 551 552 545
f 552 553 546
f 549 551 550
f 549 553 551
f 551 553 552
f 553 554 547
f 554 555 548
f 555 644 630
f 549 645 553
f 553 555 554
f 553 645 555
f 583 522 570
f 584 570 571
f 585 571 572
f 586 572 573
f 587 573 574
f 588 574 575
f 541 522 583
f 583 570 584
f 584 571 585
f 541 583 584
f 541 584 586
f 584 585 586
f 497 541 621
f 497 621 645
f 585 572 586
f 586 573 587
f 587 574 588
f 541 586 590
f 586 587 588
f 586 588 590
f 589 575 576
f 590 576 577
f 591 577 578
f 592 578 579
f 593 579 580
f 594 580 581
f 595 581 582
f 613 582 596
f 588 575 589
f 589 576 590
f 590 577 591
f 591 578 592
f 588 589 590
f 541 590 615
f 590 591 592
f 592 579 593
f 593 580 594
f 594 581 595
f 595 582 613
f 590 592 594
f 592 593 594
f 541 615 621
f 590 594 615
f 594 595 613
f 614 596 597
f 615 597 598
f 616 598 599
f 617 599 600
f 618 602 601
f 619 603 602
f 620 604 603
f 621 606 604
f 622 611 605
f 623 605 606
f 625 607 608
f 626 608 609
f 629 609 612
f 627 612 610
f 628 610 611
f 613 596 614
f 614 597 615
f 615 598 616
f 616 599 617
f 594 613 615
f 613 614 615
f 615 616 617
f 619 602 618
f 619 620 603
f 620 621 604
f 623 622 605
f 628 611 622
f 621 623 606
f 619 618 657
f 619 657 621
f 619 621 620
f 615 617 624
f 615 624 621
f 624 627 621
f 627 622 621
f 628 622 627
f 621 622 623
f 617 600 665
f 624 607 625
f 625 608 626
f 626 609 629
f 628 627 610
f 627 629 612
f 624 625 626
f 624 626 627
f 626 629 627
f 624 664 607
f 665 600 663
f 617 666 624
f 624 666 664
f 617 665 666
f 644 631 630
f 645 632 631
f 646 633 632
f 647 634 633
f 648 635 634
f 649 636 635
f 644 645 631
f 645 646 632
f 646 647 633
f 555 645 644
f 645 647 646
f 647 648 634
f 648 649 635
f 649 650 636
f 645 649 647
f 647 649 648
f 645 653 649
f 650 637 636
f 651 638 637
f 652 639 638
f 653 640 639
f 654 641 640
f 655 642 641
f 656 643 642
f 657 601 643
f 650 651 637
f 651 652 638
f 652 653 639
f 649 651 650
f 649 653 651
f 645 621 653
f 651 653 652
f 653 654 640
f 654 655 641
f 655 656 642
f 656 657 643
f 653 655 654
f 653 657 655
f 655 657 656
f 653 621 657
f 657 618 601
f 666 663 664
f 665 663 666

