# https://github.com/mikedh/trimesh
v 0.60000002 0.60000002 0.00000000
v 0.00000000 0.60000002 0.60000002
v 0.60000002 0.00000000 0.60000002
v 0.00000000 0.60000002 4.40000010
v 0.60000002 0.00000000 4.40000010
v 0.60000002 0.60000002 5.00000000
v 0.19999985 29.62500000 4.59999990
v 0.19999985 29.97500038 4.59999990
v 0.19999985 32.22499847 4.59999990
v 0.19999985 32.57500076 4.59999990
v 0.19999985 34.82500076 4.59999990
v 0.60000002 29.62500000 5.00000000
v 0.60000002 29.97500038 5.00000000
v 0.60000002 32.22499847 5.00000000
v 0.60000002 32.57500076 5.00000000
v 0.60000002 34.82500076 5.00000000
v 6.03184509 29.97500038 4.59999990
v 6.08530140 29.95525551 4.59999990
v 6.17414808 29.92878723 4.59999990
v 6.26653099 29.90733337 4.59999990
v 6.36205482 29.89098740 4.59999990
v 6.46031046 29.87981987 4.59999990
v 6.56087685 29.87387466 4.59999990
v 6.66332388 29.87318230 4.59999990
v 6.76721287 29.87774277 4.59999990
v 6.87209845 29.88753700 4.59999990
v 6.97753143 29.90252304 4.59999990
v 7.08306122 29.92263603 4.59999990
v 7.18823481 29.94779205 4.59999990
v 7.28261232 29.97500038 4.59999990
v 6.71738720 32.22499847 4.59999990
v 6.81176519 32.25220871 4.59999990
v 6.91693878 32.27736282 4.59999990
v 7.02246857 32.29747772 4.59999990
v 7.12790155 32.31246185 4.59999990
v 7.23278713 32.32225800 4.59999990
v 7.33667612 32.32681656 4.59999990
v 7.43912315 32.32612610 4.59999990
v 5.41381836 30.60320473 5.00000000
v 5.46558046 30.46098900 5.00000000
v 5.43635130 30.53087807 5.00000000
v 5.54359722 30.32970619 5.00000000
v 5.50137997 30.39383698 5.00000000
v 5.59205055 30.26887703 5.00000000
v 5.64653349 30.21160507 5.00000000
v 5.70681143 30.15813828 5.00000000
v 5.77262735 30.10870361 5.00000000
v 5.84369946 30.06351471 5.00000000
v 5.91972256 30.02276421 5.00000000
v 6.00037146 29.98662567 5.00000000
v 6.03184509 29.97500038 5.00000000
v 5.41381836 30.60320473 5.50000000
v 5.46558046 30.46098900 5.50000000
v 5.43635130 30.53087807 5.50000000
v 5.54359722 30.32970619 5.50000000
v 5.50137997 30.39383698 5.50000000
v 5.59205055 30.26887703 5.50000000
v 5.64653349 30.21160507 5.50000000
v 5.70681143 30.15813828 5.50000000
v 5.77262735 30.10870361 5.50000000
v 5.84369946 30.06351471 5.50000000
v 5.91972256 30.02276421 5.50000000
v 6.00037146 29.98662567 5.50000000
v 6.08530140 29.95525551 5.50000000
v 6.17414808 29.92878723 5.50000000
v 5.38919592 30.75392151 5.00000000
v 5.38721228 30.83166504 5.00000000
v 5.39807701 30.67765808 5.00000000
v 5.39213514 30.91055870 5.00000000
v 5.40394258 30.99026299 5.00000000
v 5.42258501 31.07043839 5.00000000
v 5.44798183 31.15073776 5.00000000
v 5.48002481 31.23082161 5.00000000
v 5.51857662 31.31034660 5.00000000
v 5.56347227 31.38896942 5.00000000
v 5.61451912 31.46635437 5.00000000
v 5.67149878 31.54217148 5.00000000
v 5.73416758 31.61609459 5.00000000
v 5.80225658 31.68780708 5.00000000
v 5.87547445 31.75700378 5.00000000
v 5.95350790 31.82338524 5.00000000
v 6.03602266 31.88667107 5.00000000
v 6.12266493 31.94658661 5.00000000
v 6.21306419 32.00288010 5.00000000
v 5.38919592 30.75392151 5.50000000
v 5.38721228 30.83166504 5.50000000
v 5.39807701 30.67765808 5.50000000
v 5.39213514 30.91055870 5.50000000
v 5.40394258 30.99026299 5.50000000
v 5.42258501 31.07043839 5.50000000
v 5.44798183 31.15073776 5.50000000
v 5.48002481 31.23082161 5.50000000
v 5.51857662 31.31034660 5.50000000
v 5.56347227 31.38896942 5.50000000
v 5.61451912 31.46635437 5.50000000
v 5.67149878 31.54217148 5.50000000
v 5.73416758 31.61609459 5.50000000
v 5.80225658 31.68780708 5.50000000
v 5.87547445 31.75700378 5.50000000
v 5.95350790 31.82338524 5.50000000
v 6.03602266 31.88667107 5.50000000
v 6.12266493 31.94658661 5.50000000
v 6.21306419 32.00288010 5.50000000
v 7.28261232 29.97500038 5.00000000
v 7.29260254 29.97788048 5.00000000
v 7.39571714 30.01277542 5.00000000
v 7.49713755 30.05232620 5.00000000
v 6.26653099 29.90733337 5.50000000
v 6.36205482 29.89098740 5.50000000
v 6.46031046 29.87981987 5.50000000
v 6.56087685 29.87387466 5.50000000
v 6.66332388 29.87318230 5.50000000
v 6.76721287 29.87774277 5.50000000
v 6.87209845 29.88753700 5.50000000
v 6.97753143 29.90252304 5.50000000
v 7.08306122 29.92263603 5.50000000
v 7.18823481 29.94779205 5.50000000
v 7.29260254 29.97788048 5.50000000
v 7.39571714 30.01277542 5.50000000
v 7.49713755 30.05232620 5.50000000
v 6.30683374 32.05530167 5.00000000
v 6.40357113 32.10363770 5.00000000
v 6.50286245 32.14767456 5.00000000
v 6.60428286 32.18722534 5.00000000
v 6.71738720 32.22499847 5.00000000
v 6.70739746 32.22211838 5.00000000
v 6.30683374 32.05530167 5.50000000
v 6.40357113 32.10363770 5.50000000
v 6.50286245 32.14767456 5.50000000
v 6.60428286 32.18722534 5.50000000
v 6.70739746 32.22211838 5.50000000
v 6.81176519 32.25220871 5.50000000
v 6.91693878 32.27736282 5.50000000
v 7.02246857 32.29747772 5.50000000
v 7.12790155 32.31246185 5.50000000
v 7.23278713 32.32225800 5.50000000
v 7.33667612 32.32681656 5.50000000
v 7.43912315 32.32612610 5.50000000
v 7.53968954 32.32018280 4.59999990
v 7.63794518 32.30901337 4.59999990
v 7.73346901 32.29266739 4.59999990
v 7.91469860 32.24474335 4.59999990
v 7.96815825 32.22499847 4.59999990
v 7.82585192 32.27121353 4.59999990
v 8.11294460 32.22499847 4.59999990
v 8.11294460 32.57500076 4.59999990
v 8.11294460 34.82500076 4.59999990
v 8.61294460 32.22499847 4.59999990
v 8.61294460 32.57500076 4.59999990
v 8.61294460 34.82500076 4.59999990
v 9.38705540 32.22499847 4.59999990
v 9.38705540 32.57500076 4.59999990
v 9.88705540 32.22499847 4.59999990
v 9.88705540 32.57500076 4.59999990
v 9.38705540 34.82500076 4.59999990
v 9.88705540 34.82500076 4.59999990
v 7.59642887 30.09636307 5.00000000
v 7.69316626 30.14469719 5.00000000
v 7.78693581 30.19712067 5.00000000
v 7.87733507 30.25341225 5.00000000
v 7.96397734 30.31332970 5.00000000
v 8.04649258 30.37661362 5.00000000
v 8.12452507 30.44299698 5.00000000
v 8.19774342 30.51219368 5.00000000
v 8.26583290 30.58390617 5.00000000
v 7.59642887 30.09636307 5.50000000
v 7.69316626 30.14469719 5.50000000
v 7.78693581 30.19712067 5.50000000
v 7.87733507 30.25341225 5.50000000
v 7.96397734 30.31332970 5.50000000
v 8.04649258 30.37661362 5.50000000
v 8.12452507 30.44299698 5.50000000
v 8.19774342 30.51219368 5.50000000
v 8.26583290 30.58390617 5.50000000
v 7.96815825 32.22499847 5.00000000
v 7.99962854 32.21337509 5.00000000
v 8.08027744 32.17723846 5.00000000
v 8.11294460 32.15972519 5.00000000
v 8.11294460 32.22499847 5.00000000
v 8.11294460 32.57500076 5.00000000
v 8.11294460 34.82500076 5.00000000
v 8.32850075 30.65782928 5.00000000
v 8.38548088 30.73364639 5.00000000
v 8.43652821 30.81103134 5.00000000
v 8.48142338 30.88965416 5.00000000
v 8.51997471 30.96917725 5.00000000
v 8.55201817 31.04926109 5.00000000
v 8.56806564 31.10000038 5.00000000
v 8.61294460 31.10000038 5.00000000
v 8.61294460 32.22499847 5.00000000
v 8.61294460 32.57500076 5.00000000
v 8.61294460 34.82500076 5.00000000
v 7.53968954 32.32018280 5.50000000
v 7.63794518 32.30901337 5.50000000
v 7.73346901 32.29266739 5.50000000
v 7.91469860 32.24474335 5.50000000
v 7.82585192 32.27121353 5.50000000
v 7.99962854 32.21337509 5.50000000
v 8.08027744 32.17723846 5.50000000
v 8.11294460 32.15972519 5.50000000
v 8.32850075 30.65782928 5.50000000
v 8.38548088 30.73364639 5.50000000
v 8.43652821 30.81103134 5.50000000
v 8.48142338 30.88965416 5.50000000
v 8.51997471 30.96917725 5.50000000
v 8.55201817 31.04926109 5.50000000
v 8.56806564 31.10000038 5.50000000
v 8.61294460 31.10000038 5.50000000
v 9.38705540 31.10000038 5.00000000
v 9.38705540 32.22499847 5.00000000
v 9.38705540 32.57500076 5.00000000
v 9.88705540 31.10000038 5.00000000
v 9.88705540 32.22499847 5.00000000
v 9.88705540 32.57500076 5.00000000
v 9.38705540 34.82500076 5.00000000
v 9.88705540 34.82500076 5.00000000
v 9.38705540 31.10000038 5.50000000
v 9.88705540 31.10000038 5.50000000
v 0.60000002 69.40000153 0.00000000
v 0.00000000 69.40000153 0.60000002
v 0.60000002 70.00000000 0.60000002
v 0.19999985 35.17499924 4.59999990
v 0.19999985 37.42499924 4.59999990
v 0.19999985 37.77500153 4.59999990
v 0.19999985 40.02500153 4.59999990
v 0.19999985 40.37500000 4.59999990
v 0.60000002 35.17499924 5.00000000
v 0.60000002 37.42499924 5.00000000
v 0.60000002 37.77500153 5.00000000
v 0.60000002 40.02500153 5.00000000
v 0.60000002 40.37500000 5.00000000
v 0.00000000 69.40000153 4.40000010
v 0.60000002 70.00000000 4.40000010
v 0.60000002 69.40000153 5.00000000
v 8.11294460 35.17499924 4.59999990
v 8.11294460 37.42499924 4.59999990
v 8.11294460 37.77500153 4.59999990
v 8.61294460 35.17499924 4.59999990
v 8.61294460 37.42499924 4.59999990
v 8.61294460 37.77500153 4.59999990
v 8.11294460 40.02500153 4.59999990
v 8.11294460 40.20000076 4.59999990
v 8.61294460 40.02500153 4.59999990
v 8.61294460 40.20000076 4.59999990
v 9.38705540 35.17499924 4.59999990
v 9.88705540 35.17499924 4.59999990
v 9.38705540 37.42499924 4.59999990
v 9.38705540 37.77500153 4.59999990
v 9.88705540 37.42499924 4.59999990
v 9.88705540 37.77500153 4.59999990
v 9.38705540 40.02500153 4.59999990
v 9.38705540 40.20000076 4.59999990
v 9.43193436 40.20000076 4.59999990
v 9.44798183 40.25074005 4.59999990
v 9.48002529 40.33082199 4.59999990
v 9.50144100 40.37500000 4.59999990
v 8.11294460 35.17499924 5.00000000
v 8.11294460 37.42499924 5.00000000
v 8.11294460 37.77500153 5.00000000
v 8.61294460 35.17499924 5.00000000
v 8.61294460 37.42499924 5.00000000
v 8.61294460 37.77500153 5.00000000
v 8.11294460 40.02500153 5.00000000
v 8.61294460 40.02500153 5.00000000
v 8.11294460 40.20000076 5.50000000
v 8.61294460 40.20000076 5.50000000
v 9.38705540 35.17499924 5.00000000
v 9.88705540 35.17499924 5.00000000
v 9.38705540 37.42499924 5.00000000
v 9.38705540 37.77500153 5.00000000
v 9.88705540 37.42499924 5.00000000
v 9.88705540 37.77500153 5.00000000
v 9.88705540 39.14027405 5.00000000
v 9.91972256 39.12276459 5.00000000
v 9.88705540 39.14027405 5.50000000
v 9.91972256 39.12276459 5.50000000
v 9.38705540 40.02500153 5.00000000
v 9.50144100 40.37500000 5.00000000
v 9.51857662 40.41034698 5.00000000
v 9.56347179 40.48896790 5.00000000
v 9.61451912 40.56635284 5.00000000
v 9.67149925 40.64216995 5.00000000
v 9.73416710 40.71609497 5.00000000
v 9.80225658 40.78780746 5.00000000
v 9.87547493 40.85700226 5.00000000
v 9.95350742 40.92338562 5.00000000
v 9.38705540 40.20000076 5.50000000
v 9.43193436 40.20000076 5.50000000
v 9.44798183 40.25074005 5.50000000
v 9.48002529 40.33082199 5.50000000
v 9.51857662 40.41034698 5.50000000
v 9.56347179 40.48896790 5.50000000
v 9.61451912 40.56635284 5.50000000
v 9.67149925 40.64216995 5.50000000
v 9.73416710 40.71609497 5.50000000
v 9.80225658 40.78780746 5.50000000
v 9.87547493 40.85700226 5.50000000
v 9.95350742 40.92338562 5.50000000
v 6.50000000 56.50000000 4.59999990
v 6.50000000 60.34999847 4.59999990
v 6.50000000 56.50000000 5.00000000
v 6.50000000 61.65000153 4.59999990
v 6.50000000 64.19999695 4.59999990
v 6.50000000 65.50000000 4.59999990
v 6.50000000 65.50000000 5.00000000
v 7.80000019 56.50000000 4.59999990
v 7.80000019 60.34999847 4.59999990
v 7.80000019 56.50000000 5.00000000
v 7.80000019 60.34999847 5.00000000
v 7.80000019 61.65000153 4.59999990
v 7.80000019 64.19999695 4.59999990
v 7.80000019 65.50000000 4.59999990
v 7.80000019 61.65000153 5.00000000
v 7.80000019 64.19999695 5.00000000
v 19.39999962 0.60000002 0.00000000
v 19.39999962 0.00000000 0.60000002
v 20.00000000 0.60000002 0.60000002
v 19.39999962 0.00000000 4.40000010
v 20.00000000 0.60000002 4.40000010
v 19.39999962 0.60000002 5.00000000
v 19.79999924 29.62500000 4.59999990
v 19.79999924 29.97500038 4.59999990
v 19.79999924 32.22499847 4.59999990
v 19.79999924 32.57500076 4.59999990
v 19.79999924 34.82500076 4.59999990
v 19.39999962 29.62500000 5.00000000
v 19.39999962 29.97500038 5.00000000
v 19.39999962 32.22499847 5.00000000
v 19.39999962 32.57500076 5.00000000
v 19.39999962 34.82500076 5.00000000
v 19.39999962 69.40000153 0.00000000
v 19.39999962 70.00000000 0.60000002
v 20.00000000 69.40000153 0.60000002
v 12.49855900 40.02500153 4.59999990
v 10.00037193 39.08662415 5.00000000
v 10.08530140 39.05525589 5.00000000
v 10.17414761 39.02878571 5.00000000
v 10.26653099 39.00733185 5.00000000
v 10.36205482 38.99098587 5.00000000
v 10.46030998 38.97982025 5.00000000
v 10.56087685 38.97387695 5.00000000
v 10.66332436 38.97318268 5.00000000
v 10.76721287 38.97774124 5.00000000
v 10.87209797 38.98753738 5.00000000
v 10.97753143 39.00252151 5.00000000
v 11.08306122 39.02263641 5.00000000
v 11.18823433 39.04779053 5.00000000
v 10.00037193 39.08662415 5.50000000
v 10.08530140 39.05525589 5.50000000
v 10.17414761 39.02878571 5.50000000
v 10.26653099 39.00733185 5.50000000
v 10.36205482 38.99098587 5.50000000
v 10.46030998 38.97982025 5.50000000
v 10.56087685 38.97387695 5.50000000
v 10.66332436 38.97318268 5.50000000
v 10.76721287 38.97774124 5.50000000
v 10.87209797 38.98753738 5.50000000
v 10.97753143 39.00252151 5.50000000
v 11.08306122 39.02263641 5.50000000
v 11.18823433 39.04779053 5.50000000
v 10.03602219 40.98667145 5.00000000
v 10.12266541 41.04658890 5.00000000
v 10.21306419 41.10287857 5.00000000
v 10.30683327 41.15530396 5.00000000
v 10.40357113 41.20363617 5.00000000
v 10.50286198 41.24767303 5.00000000
v 10.60428238 41.28722382 5.00000000
v 10.70739746 41.32212067 5.00000000
v 10.81176567 41.35220718 5.00000000
v 10.91693878 41.37736511 5.00000000
v 11.02246857 41.39747620 5.00000000
v 11.12790203 41.41246414 5.00000000
v 11.23278713 41.42225647 5.00000000
v 10.03602219 40.98667145 5.50000000
v 10.12266541 41.04658890 5.50000000
v 10.21306419 41.10287857 5.50000000
v 10.30683327 41.15530396 5.50000000
v 10.40357113 41.20363617 5.50000000
v 10.50286198 41.24767303 5.50000000
v 10.60428238 41.28722382 5.50000000
v 10.70739746 41.32212067 5.50000000
v 10.81176567 41.35220718 5.50000000
v 10.91693878 41.37736511 5.50000000
v 11.02246857 41.39747620 5.50000000
v 11.12790203 41.41246414 5.50000000
v 11.23278713 41.42225647 5.50000000
v 11.29260254 39.07788086 5.00000000
v 11.39571762 39.11277390 5.00000000
v 11.49713802 39.15232468 5.00000000
v 11.59642887 39.19636154 5.00000000
v 11.69316673 39.24469757 5.00000000
v 11.78693581 39.29712296 5.00000000
v 11.87733459 39.35341263 5.00000000
v 11.29260254 39.07788086 5.50000000
v 11.39571762 39.11277390 5.50000000
v 11.49713802 39.15232468 5.50000000
v 11.59642887 39.19636154 5.50000000
v 11.69316673 39.24469757 5.50000000
v 11.78693581 39.29712296 5.50000000
v 11.87733459 39.35341263 5.50000000
v 11.33667564 41.42681885 5.00000000
v 11.43912315 41.42612457 5.00000000
v 11.53969002 41.42018127 5.00000000
v 11.63794518 41.40901184 5.00000000
v 11.73346901 41.39266586 5.00000000
v 11.82585239 41.37121201 5.00000000
v 11.96397781 39.41333008 5.00000000
v 12.04649258 39.47661591 5.00000000
v 12.12452507 39.54299545 5.00000000
v 11.91469860 41.34474564 5.00000000
v 11.99962807 41.31337357 5.00000000
v 12.08027744 41.27723694 5.00000000
v 12.15630054 41.23648453 5.00000000
v 12.19774342 39.61219406 5.00000000
v 12.26583290 39.68390656 5.00000000
v 12.32850075 39.75782776 5.00000000
v 12.38548088 39.83364487 5.00000000
v 12.43652821 39.91102982 5.00000000
v 12.48142338 39.98965454 5.00000000
v 12.49855900 40.02500153 5.00000000
v 12.22737217 41.19129562 5.00000000
v 12.29318810 41.14186096 5.00000000
v 12.45640278 40.97029114 5.00000000
v 12.49862003 40.90616226 5.00000000
v 12.35346699 41.08839417 5.00000000
v 12.40794945 41.03112411 5.00000000
v 12.39999962 42.54999924 5.00000000
v 12.39999962 43.04999924 5.00000000
v 11.33667564 41.42681885 5.50000000
v 11.43912315 41.42612457 5.50000000
v 11.53969002 41.42018127 5.50000000
v 11.63794518 41.40901184 5.50000000
v 11.73346901 41.39266586 5.50000000
v 11.82585239 41.37121201 5.50000000
v 11.96397781 39.41333008 5.50000000
v 12.04649258 39.47661591 5.50000000
v 12.12452507 39.54299545 5.50000000
v 11.91469860 41.34474564 5.50000000
v 11.99962807 41.31337357 5.50000000
v 12.08027744 41.27723694 5.50000000
v 12.15630054 41.23648453 5.50000000
v 12.19774342 39.61219406 5.50000000
v 12.26583290 39.68390656 5.50000000
v 12.32850075 39.75782776 5.50000000
v 12.38548088 39.83364487 5.50000000
v 12.43652821 39.91102982 5.50000000
v 12.48142338 39.98965454 5.50000000
v 12.22737217 41.19129562 5.50000000
v 12.29318810 41.14186096 5.50000000
v 12.45640278 40.97029114 5.50000000
v 12.49862003 40.90616226 5.50000000
v 12.35346699 41.08839417 5.50000000
v 12.40794945 41.03112411 5.50000000
v 12.39999962 42.54999924 5.50000000
v 12.39999962 43.04999924 5.50000000
v 12.39999962 45.15000153 5.00000000
v 12.39999962 45.65000153 5.00000000
v 12.39999962 47.75000000 5.00000000
v 12.39999962 45.15000153 5.50000000
v 12.39999962 45.65000153 5.50000000
v 12.39999962 47.75000000 5.50000000
v 12.39999962 48.25000000 5.00000000
v 12.39999962 48.25000000 5.50000000
v 12.51997471 40.06917953 4.59999990
v 12.55201817 40.14926147 4.59999990
v 12.57741547 40.22956085 4.59999990
v 12.59605694 40.30973816 4.59999990
v 12.60572529 40.37500000 4.59999990
v 13.38705540 40.20000076 4.59999990
v 13.38705540 40.37500000 4.59999990
v 13.88705540 40.20000076 4.59999990
v 13.88705540 40.37500000 4.59999990
v 12.60572529 40.37500000 5.00000000
v 12.60786533 40.38944244 5.00000000
v 12.61278725 40.46833420 5.00000000
v 12.53441906 40.83901215 5.00000000
v 12.56364822 40.76912308 5.00000000
v 12.61080360 40.54607773 5.00000000
v 12.58618164 40.69679642 5.00000000
v 12.60192299 40.62234116 5.00000000
v 13.38705540 40.37500000 5.00000000
v 13.38705540 42.54999924 5.00000000
v 13.38705540 43.04999924 5.00000000
v 12.51997471 40.06917953 5.50000000
v 12.55201817 40.14926147 5.50000000
v 12.57741547 40.22956085 5.50000000
v 12.59605694 40.30973816 5.50000000
v 12.60786533 40.38944244 5.50000000
v 12.61278725 40.46833420 5.50000000
v 12.53441906 40.83901215 5.50000000
v 12.56364822 40.76912308 5.50000000
v 12.61080360 40.54607773 5.50000000
v 12.58618164 40.69679642 5.50000000
v 12.60192299 40.62234116 5.50000000
v 13.38705540 40.20000076 5.50000000
v 13.38705540 42.54999924 5.50000000
v 13.38705540 43.04999924 5.50000000
v 13.88705540 40.37500000 5.00000000
v 13.88705540 42.54999924 5.00000000
v 13.88705540 43.04999924 5.00000000
v 13.88705540 40.20000076 5.50000000
v 13.88705540 42.54999924 5.50000000
v 13.88705540 43.04999924 5.50000000
v 13.38705540 45.15000153 5.00000000
v 13.38705540 45.65000153 5.00000000
v 13.38705540 47.75000000 5.00000000
v 13.38705540 45.15000153 5.50000000
v 13.38705540 45.65000153 5.50000000
v 13.38705540 47.75000000 5.50000000
v 13.38705540 48.25000000 5.00000000
v 13.38705540 49.29999924 5.00000000
v 13.43193436 49.29999924 5.00000000
v 13.44798183 49.35073853 5.00000000
v 13.48002529 49.43082047 5.00000000
v 13.51857662 49.51034546 5.00000000
v 13.56347179 49.58897018 5.00000000
v 13.61451912 49.66635513 5.00000000
v 13.67149925 49.74217224 5.00000000
v 13.73416710 49.81609344 5.00000000
v 13.38705540 48.25000000 5.50000000
v 13.38705540 49.29999924 5.50000000
v 13.43193436 49.29999924 5.50000000
v 13.44798183 49.35073853 5.50000000
v 13.48002529 49.43082047 5.50000000
v 13.51857662 49.51034546 5.50000000
v 13.56347179 49.58897018 5.50000000
v 13.61451912 49.66635513 5.50000000
v 13.67149925 49.74217224 5.50000000
v 13.73416710 49.81609344 5.50000000
v 13.88705540 45.15000153 5.00000000
v 13.88705540 45.65000153 5.00000000
v 13.88705540 47.75000000 5.00000000
v 13.88705540 45.15000153 5.50000000
v 13.88705540 45.65000153 5.50000000
v 13.88705540 47.75000000 5.50000000
v 13.80225658 49.88780594 5.00000000
v 13.87547493 49.95700455 5.00000000
v 13.95350742 50.02338409 5.00000000
v 14.03602219 50.08666992 5.00000000
v 14.12266541 50.14658737 5.00000000
v 14.21306419 50.20287704 5.00000000
v 14.30683327 50.25530243 5.00000000
v 14.40357113 50.30363846 5.00000000
v 14.50286198 50.34767532 5.00000000
v 14.60428238 50.38722610 5.00000000
v 14.70739746 50.42211914 5.00000000
v 14.81176567 50.45220947 5.00000000
v 14.91693878 50.47736359 5.00000000
v 13.80225658 49.88780594 5.50000000
v 13.87547493 49.95700455 5.50000000
v 13.95350742 50.02338409 5.50000000
v 14.03602219 50.08666992 5.50000000
v 14.12266541 50.14658737 5.50000000
v 14.21306419 50.20287704 5.50000000
v 14.30683327 50.25530243 5.50000000
v 14.40357113 50.30363846 5.50000000
v 14.50286198 50.34767532 5.50000000
v 14.60428238 50.38722610 5.50000000
v 14.70739746 50.42211914 5.50000000
v 14.81176567 50.45220947 5.50000000
v 14.91693878 50.47736359 5.50000000
v 12.80000019 60.34999847 4.59999990
v 12.80000019 60.34999847 5.00000000
v 12.80000019 61.65000153 4.59999990
v 13.50000000 64.19999695 4.59999990
v 13.50000000 65.50000000 4.59999990
v 12.80000019 61.65000153 5.00000000
v 13.50000000 64.19999695 5.00000000
v 13.50000000 65.50000000 5.00000000
v 15.49713802 48.25232697 5.00000000
v 15.49117374 48.25000000 5.00000000
v 15.59642887 48.29636383 5.00000000
v 15.02246857 50.49747849 5.00000000
v 15.12790203 50.51246262 5.00000000
v 15.23278713 50.52225876 5.00000000
v 15.33667564 50.52681732 5.00000000
v 15.43912315 50.52612305 5.00000000
v 15.53969002 50.52017975 5.00000000
v 15.69316673 48.34469604 5.00000000
v 15.78693581 48.39712143 5.00000000
v 15.87733459 48.45341110 5.00000000
v 15.96397781 48.51332855 5.00000000
v 16.04649162 48.57661438 5.00000000
v 16.12452507 48.64299774 5.00000000
v 16.19774437 48.71219254 5.00000000
v 16.22737312 50.29129791 5.00000000
v 15.63794518 50.50901413 5.00000000
v 15.73346901 50.49266815 5.00000000
v 15.82585239 50.47121429 5.00000000
v 15.91469860 50.44474411 5.00000000
v 15.99962807 50.41337585 5.00000000
v 16.08027840 50.37723541 5.00000000
v 16.15630150 50.33648682 5.00000000
v 15.49713802 48.25232697 5.50000000
v 15.49117374 48.25000000 5.50000000
v 15.59642887 48.29636383 5.50000000
v 15.02246857 50.49747849 5.50000000
v 15.12790203 50.51246262 5.50000000
v 15.23278713 50.52225876 5.50000000
v 15.33667564 50.52681732 5.50000000
v 15.43912315 50.52612305 5.50000000
v 15.53969002 50.52017975 5.50000000
v 15.69316673 48.34469604 5.50000000
v 15.78693581 48.39712143 5.50000000
v 15.87733459 48.45341110 5.50000000
v 15.96397781 48.51332855 5.50000000
v 16.04649162 48.57661438 5.50000000
v 16.12452507 48.64299774 5.50000000
v 16.19774437 48.71219254 5.50000000
v 16.22737312 50.29129791 5.50000000
v 15.63794518 50.50901413 5.50000000
v 15.73346901 50.49266815 5.50000000
v 15.82585239 50.47121429 5.50000000
v 15.91469860 50.44474411 5.50000000
v 15.99962807 50.41337585 5.50000000
v 16.08027840 50.37723541 5.50000000
v 16.15630150 50.33648682 5.50000000
v 16.26583290 48.78390503 5.00000000
v 16.32850075 48.85783005 5.00000000
v 16.38548088 48.93364716 5.00000000
v 16.43652725 49.01103210 5.00000000
v 16.48142242 49.08965302 5.00000000
v 16.51997566 49.16917801 5.00000000
v 16.29318810 50.24186325 5.00000000
v 16.35346603 50.18839645 5.00000000
v 16.55201721 49.24925995 5.00000000
v 16.40794945 50.13112259 5.00000000
v 16.45640373 50.07029343 5.00000000
v 16.49861908 50.00616455 5.00000000
v 16.53442001 49.93901062 5.00000000
v 16.57741547 49.32956314 5.00000000
v 16.59605789 49.40973663 5.00000000
v 16.60786438 49.48944092 5.00000000
v 16.61278725 49.56833649 5.00000000
v 16.61080360 49.64608002 5.00000000
v 16.60192299 49.72233963 5.00000000
v 16.56364822 49.86912155 5.00000000
v 16.58618164 49.79679489 5.00000000
v 16.26583290 48.78390503 5.50000000
v 16.32850075 48.85783005 5.50000000
v 16.38548088 48.93364716 5.50000000
v 16.43652725 49.01103210 5.50000000
v 16.48142242 49.08965302 5.50000000
v 16.51997566 49.16917801 5.50000000
v 16.29318810 50.24186325 5.50000000
v 16.35346603 50.18839645 5.50000000
v 16.55201721 49.24925995 5.50000000
v 16.40794945 50.13112259 5.50000000
v 16.45640373 50.07029343 5.50000000
v 16.49861908 50.00616455 5.50000000
v 16.53442001 49.93901062 5.50000000
v 16.57741547 49.32956314 5.50000000
v 16.59605789 49.40973663 5.50000000
v 16.60786438 49.48944092 5.50000000
v 16.61278725 49.56833649 5.50000000
v 16.61080360 49.64608002 5.50000000
v 16.60192299 49.72233963 5.50000000
v 16.56364822 49.86912155 5.50000000
v 16.58618164 49.79679489 5.50000000
v 19.79999924 35.17499924 4.59999990
v 19.79999924 37.42499924 4.59999990
v 19.79999924 37.77500153 4.59999990
v 19.79999924 40.02500153 4.59999990
v 19.79999924 40.37500000 4.59999990
v 17.60000038 42.54999924 5.00000000
v 17.60000038 43.04999924 5.00000000
v 17.60000038 42.54999924 5.50000000
v 17.60000038 43.04999924 5.50000000
v 19.39999962 35.17499924 5.00000000
v 19.39999962 37.42499924 5.00000000
v 19.39999962 37.77500153 5.00000000
v 19.39999962 40.02500153 5.00000000
v 19.39999962 40.37500000 5.00000000
v 17.60000038 45.15000153 5.00000000
v 17.60000038 45.65000153 5.00000000
v 17.60000038 47.75000000 5.00000000
v 17.60000038 45.15000153 5.50000000
v 17.60000038 45.65000153 5.50000000
v 17.60000038 47.75000000 5.50000000
v 17.60000038 48.25000000 5.00000000
v 17.60000038 48.25000000 5.50000000
v 19.39999962 70.00000000 4.40000010
v 20.00000000 69.40000153 4.40000010
v 19.39999962 69.40000153 5.00000000
f 1 3 2
f 2 3 5
f 1 2 219
f 2 4 220
f 1 316 3
f 1 219 315
f 2 5 4
f 4 5 6
f 4 6 7
f 6 12 7
f 4 7 232
f 8 13 9
f 10 15 11
f 9 31 10
f 13 14 9
f 11 15 16
f 8 51 13
f 13 70 14
f 9 14 31
f 11 16 147
f 8 18 17
f 8 19 18
f 8 20 19
f 8 21 20
f 8 22 21
f 8 17 51
f 8 23 22
f 10 31 32
f 10 32 33
f 10 33 34
f 10 34 35
f 10 35 36
f 10 36 37
f 10 37 38
f 10 180 15
f 15 181 16
f 13 39 68
f 13 68 66
f 13 41 39
f 13 66 67
f 13 67 69
f 13 40 41
f 13 43 40
f 13 42 43
f 13 44 42
f 13 45 44
f 13 46 45
f 13 47 46
f 13 48 47
f 13 49 48
f 13 50 49
f 13 51 50
f 13 69 70
f 14 70 71
f 14 71 72
f 14 72 73
f 14 73 74
f 14 74 75
f 14 75 76
f 14 76 77
f 14 77 78
f 14 78 79
f 14 79 80
f 14 80 81
f 14 81 82
f 14 82 83
f 14 83 84
f 14 84 121
f 14 125 31
f 14 121 122
f 14 122 123
f 14 123 124
f 14 124 126
f 14 126 125
f 3 318 5
f 5 318 6
f 6 320 12
f 10 38 146
f 10 146 180
f 11 147 235
f 7 321 8
f 7 12 321
f 16 181 147
f 15 180 181
f 146 38 139
f 146 139 140
f 146 140 141
f 146 141 144
f 146 144 142
f 146 142 143
f 143 145 146
f 143 175 145
f 8 321 23
f 148 152 149
f 148 151 152
f 148 190 151
f 149 152 211
f 150 155 245
f 150 192 155
f 145 175 179
f 175 176 179
f 179 176 177
f 179 177 178
f 187 189 188
f 149 211 191
f 190 210 151
f 189 210 190
f 210 189 209
f 155 192 215
f 215 192 191
f 191 211 215
f 2 220 219
f 219 220 221
f 220 233 221
f 219 221 332
f 221 233 332
f 4 232 220
f 222 227 223
f 224 229 225
f 7 8 232
f 223 227 228
f 229 230 225
f 8 9 232
f 9 10 232
f 10 11 232
f 11 222 232
f 222 223 232
f 223 224 232
f 224 225 232
f 225 226 232
f 226 231 232
f 11 235 222
f 223 237 224
f 223 228 236
f 225 242 226
f 225 230 241
f 226 256 231
f 222 257 227
f 227 258 228
f 224 259 229
f 229 263 230
f 231 308 301
f 220 232 233
f 231 234 232
f 232 234 233
f 231 301 234
f 234 301 305
f 222 235 257
f 223 236 237
f 224 237 259
f 225 241 242
f 226 242 244
f 226 244 252
f 226 252 253
f 226 253 254
f 226 254 255
f 226 255 256
f 227 257 258
f 228 258 236
f 229 259 263
f 230 263 241
f 231 256 278
f 231 278 279
f 231 279 280
f 231 280 281
f 231 281 282
f 231 282 283
f 231 283 284
f 231 284 285
f 231 285 286
f 231 286 361
f 231 361 362
f 231 362 363
f 231 363 364
f 231 364 365
f 231 365 366
f 231 366 367
f 231 367 368
f 231 368 369
f 231 369 370
f 231 462 308
f 150 245 238
f 238 245 267
f 239 248 240
f 247 248 239
f 239 261 247
f 270 240 248
f 251 244 243
f 251 252 244
f 243 264 251
f 231 370 371
f 231 371 372
f 231 372 427
f 231 427 428
f 231 428 456
f 231 456 457
f 267 260 238
f 260 269 261
f 267 269 260
f 270 262 240
f 247 261 269
f 262 277 264
f 270 277 262
f 272 274 273
f 272 335 274
f 272 336 335
f 251 264 277
f 231 457 458
f 231 458 462
f 299 301 306
f 299 300 305
f 299 306 300
f 300 306 302
f 302 306 307
f 302 307 310
f 301 308 306
f 299 305 301
f 300 302 305
f 302 303 305
f 303 304 305
f 302 310 311
f 302 312 303
f 303 312 304
f 302 311 312
f 233 234 682
f 234 305 569
f 306 308 307
f 307 564 310
f 307 309 562
f 308 309 307
f 308 537 309
f 310 313 311
f 304 312 569
f 311 566 312
f 311 314 565
f 311 313 314
f 304 569 305
f 310 567 313
f 313 567 314
f 1 315 316
f 3 316 318
f 315 317 316
f 316 317 318
f 315 331 317
f 6 318 320
f 321 24 23
f 321 25 24
f 321 26 25
f 321 27 26
f 321 28 27
f 321 29 28
f 321 30 29
f 327 104 30
f 327 105 104
f 327 106 105
f 327 107 106
f 327 157 107
f 327 158 157
f 327 159 158
f 327 160 159
f 327 161 160
f 327 162 161
f 327 163 162
f 327 164 163
f 327 165 164
f 327 182 165
f 327 183 182
f 327 184 183
f 327 185 184
f 327 186 185
f 327 187 186
f 327 189 187
f 327 209 189
f 12 320 326
f 324 154 153
f 323 153 213
f 325 156 216
f 12 326 321
f 329 214 154
f 327 212 209
f 328 213 212
f 330 216 214
f 317 319 318
f 318 319 320
f 319 326 320
f 317 683 319
f 322 327 30
f 321 322 30
f 323 324 153
f 324 329 154
f 325 660 156
f 327 328 212
f 329 330 214
f 323 213 328
f 325 216 330
f 319 321 326
f 319 683 321
f 322 323 328
f 324 325 330
f 322 328 327
f 324 330 329
f 219 331 315
f 219 332 331
f 317 331 333
f 317 333 683
f 331 332 333
f 332 683 333
f 272 337 336
f 272 338 337
f 272 339 338
f 373 427 372
f 401 427 373
f 402 427 401
f 402 403 427
f 404 427 403
f 405 427 404
f 406 427 405
f 410 427 406
f 411 427 410
f 412 427 411
f 413 427 412
f 421 427 413
f 422 427 421
f 425 427 422
f 308 462 510
f 308 510 511
f 308 511 512
f 308 512 513
f 308 513 514
f 308 514 515
f 308 515 516
f 308 516 517
f 308 517 518
f 308 518 519
f 308 519 536
f 308 536 537
f 660 246 156
f 662 250 249
f 661 249 271
f 465 469 466
f 466 469 467
f 468 467 469
f 468 469 470
f 468 470 481
f 663 464 334
f 663 465 464
f 663 334 420
f 669 268 246
f 670 271 268
f 671 272 250
f 671 339 272
f 671 340 339
f 671 341 340
f 671 342 341
f 671 343 342
f 671 344 343
f 671 345 344
f 473 468 481
f 426 482 425
f 423 482 426
f 424 482 423
f 476 482 424
f 473 481 474
f 481 475 474
f 481 478 475
f 481 480 478
f 477 482 476
f 479 482 477
f 480 482 479
f 427 425 482
f 481 482 480
f 671 346 345
f 671 347 346
f 671 387 347
f 671 388 387
f 671 389 388
f 671 390 389
f 671 391 390
f 671 392 391
f 671 393 392
f 671 407 393
f 671 408 407
f 671 409 408
f 671 414 409
f 671 415 414
f 671 416 415
f 671 417 416
f 671 418 417
f 671 419 418
f 671 420 419
f 456 428 504
f 483 504 428
f 458 457 506
f 505 506 457
f 233 682 332
f 307 562 564
f 309 563 562
f 309 537 563
f 310 564 567
f 311 565 566
f 312 566 569
f 234 569 684
f 314 567 568
f 314 568 565
f 562 563 564
f 563 537 538
f 563 538 539
f 563 539 540
f 563 540 541
f 563 567 564
f 563 541 542
f 563 542 543
f 563 543 544
f 563 544 545
f 563 545 546
f 563 546 547
f 563 547 548
f 563 548 573
f 563 573 574
f 563 574 575
f 563 575 576
f 563 576 577
f 563 577 578
f 563 578 587
f 563 587 588
f 563 588 589
f 563 589 590
f 563 590 591
f 563 591 592
f 563 627 567
f 567 680 568
f 565 568 566
f 234 684 682
f 566 568 569
f 663 469 465
f 663 471 469
f 664 472 471
f 660 669 246
f 661 662 249
f 662 671 250
f 669 670 268
f 498 665 499
f 673 498 472
f 661 271 670
f 671 672 420
f 663 420 672
f 673 665 498
f 500 666 530
f 532 531 675
f 680 570 571
f 680 572 570
f 666 674 530
f 675 676 532
f 680 579 572
f 680 580 579
f 680 581 580
f 680 582 581
f 680 583 582
f 680 584 583
f 680 585 584
f 680 618 585
f 680 619 618
f 680 620 619
f 680 621 620
f 680 622 621
f 622 680 623
f 680 626 623
f 680 631 626
f 680 632 631
f 680 633 632
f 680 634 633
f 680 635 634
f 680 636 635
f 680 630 637
f 680 629 630
f 680 638 636
f 680 637 638
f 663 664 471
f 664 673 472
f 660 661 670
f 662 663 672
f 321 683 322
f 673 666 665
f 673 674 666
f 673 675 674
f 660 670 669
f 662 672 671
f 322 683 323
f 323 683 324
f 324 683 325
f 325 683 660
f 660 683 661
f 661 683 662
f 662 683 663
f 663 683 664
f 673 676 675
f 673 680 676
f 664 684 673
f 332 682 683
f 563 624 625
f 563 625 627
f 563 592 593
f 563 593 586
f 563 586 624
f 567 627 628
f 567 628 629
f 567 629 680
f 568 680 684
f 568 684 569
f 664 683 684
f 673 684 680
f 682 684 683
f 51 17 18
f 65 18 19
f 108 19 20
f 64 51 18
f 54 39 41
f 53 41 40
f 55 43 42
f 56 40 43
f 57 42 44
f 52 39 54
f 53 54 41
f 53 40 56
f 55 56 43
f 55 42 57
f 57 44 58
f 87 52 54
f 53 56 54
f 55 57 56
f 56 57 54
f 57 61 54
f 54 61 91
f 58 44 45
f 59 45 46
f 60 46 47
f 62 48 49
f 61 47 48
f 63 49 50
f 64 50 51
f 64 18 65
f 65 19 108
f 59 58 45
f 59 46 60
f 61 48 62
f 60 47 61
f 59 57 58
f 59 61 57
f 59 60 61
f 61 62 63
f 62 49 63
f 63 50 64
f 61 63 65
f 63 64 65
f 61 65 111
f 91 61 119
f 85 67 66
f 86 69 67
f 52 68 39
f 87 66 68
f 88 70 69
f 89 71 70
f 90 72 71
f 91 73 72
f 92 74 73
f 93 75 74
f 94 76 75
f 85 86 67
f 86 88 69
f 87 68 52
f 87 85 66
f 88 89 70
f 89 90 71
f 90 91 72
f 91 92 73
f 92 93 74
f 93 94 75
f 94 95 76
f 87 54 86
f 87 86 85
f 54 91 86
f 86 89 88
f 86 91 89
f 89 91 90
f 91 93 92
f 91 95 93
f 93 95 94
f 95 77 76
f 96 78 77
f 97 79 78
f 98 80 79
f 99 81 80
f 100 82 81
f 101 83 82
f 102 84 83
f 103 121 84
f 95 96 77
f 96 97 78
f 97 98 79
f 91 99 95
f 95 97 96
f 95 99 97
f 97 99 98
f 98 99 80
f 99 100 81
f 91 130 99
f 100 101 82
f 101 102 83
f 102 103 84
f 99 101 100
f 99 103 101
f 101 103 102
f 99 130 103
f 109 20 21
f 110 21 22
f 111 22 23
f 112 23 24
f 113 24 25
f 114 25 26
f 115 26 27
f 116 27 28
f 117 28 29
f 117 29 30
f 117 30 104
f 108 20 109
f 109 21 110
f 110 22 111
f 111 23 112
f 112 24 113
f 113 25 114
f 65 108 109
f 65 109 111
f 109 110 111
f 61 111 119
f 111 112 113
f 111 113 115
f 113 114 115
f 114 26 115
f 115 27 116
f 116 28 117
f 118 104 105
f 119 105 106
f 120 106 107
f 111 115 119
f 115 116 117
f 115 117 119
f 117 104 118
f 118 105 119
f 119 106 120
f 117 118 119
f 119 120 166
f 132 32 31
f 132 33 32
f 132 31 125
f 133 34 33
f 134 35 34
f 135 36 35
f 136 37 36
f 137 38 37
f 138 139 38
f 127 122 121
f 128 123 122
f 129 124 123
f 130 126 124
f 131 125 126
f 103 127 121
f 127 128 122
f 128 129 123
f 103 128 127
f 103 130 128
f 128 130 129
f 129 130 124
f 130 131 126
f 131 132 125
f 130 132 131
f 91 200 130
f 130 134 132
f 132 133 33
f 133 134 34
f 134 135 35
f 135 136 36
f 136 137 37
f 137 138 38
f 91 119 200
f 132 134 133
f 130 138 134
f 134 136 135
f 134 138 136
f 136 138 137
f 130 200 138
f 143 142 175
f 145 180 146
f 190 148 149
f 192 150 238
f 151 211 152
f 213 153 154
f 156 246 216
f 166 107 157
f 167 157 158
f 168 158 159
f 169 159 160
f 170 160 161
f 171 161 162
f 172 162 163
f 120 107 166
f 166 157 167
f 167 158 168
f 119 166 168
f 166 167 168
f 119 168 172
f 168 159 169
f 169 160 170
f 170 161 171
f 171 162 172
f 168 169 170
f 168 170 172
f 170 171 172
f 173 163 164
f 174 164 165
f 172 163 173
f 173 164 174
f 174 165 201
f 172 173 174
f 172 174 202
f 193 140 139
f 194 141 140
f 195 144 141
f 145 179 180
f 197 142 144
f 196 175 142
f 147 181 257
f 190 149 191
f 138 193 139
f 193 194 140
f 194 195 141
f 195 197 144
f 196 176 175
f 197 196 142
f 198 177 176
f 199 178 177
f 200 179 178
f 200 180 179
f 138 194 193
f 138 197 194
f 138 200 197
f 194 197 195
f 119 172 200
f 196 198 176
f 198 199 177
f 199 200 178
f 197 198 196
f 197 200 198
f 198 200 199
f 200 181 180
f 200 257 181
f 201 165 182
f 202 182 183
f 203 183 184
f 204 184 185
f 205 185 186
f 206 186 187
f 207 187 188
f 208 188 189
f 208 189 190
f 208 190 191
f 201 182 202
f 202 183 203
f 174 201 202
f 203 184 204
f 204 185 205
f 205 186 206
f 206 187 207
f 207 188 208
f 202 203 205
f 203 204 205
f 205 206 207
f 208 191 192
f 208 192 260
f 172 202 266
f 172 266 200
f 202 205 266
f 205 207 266
f 207 208 266
f 151 210 211
f 213 154 214
f 155 215 267
f 217 210 209
f 217 211 210
f 218 209 212
f 218 212 213
f 218 213 214
f 217 209 218
f 217 215 211
f 217 267 215
f 217 269 267
f 218 214 216
f 217 218 275
f 147 257 235
f 236 259 237
f 261 239 240
f 243 244 264
f 245 155 267
f 247 270 248
f 271 249 250
f 256 255 278
f 236 258 259
f 260 192 238
f 261 240 262
f 200 265 257
f 265 258 257
f 265 259 258
f 265 263 259
f 208 260 266
f 266 260 261
f 266 261 262
f 266 262 264
f 200 266 265
f 265 242 241
f 265 241 263
f 265 244 242
f 266 264 244
f 265 266 244
f 246 268 216
f 247 269 270
f 271 250 272
f 275 216 268
f 217 287 269
f 217 288 287
f 217 289 288
f 217 275 289
f 218 216 275
f 287 270 269
f 287 277 270
f 275 268 271
f 275 271 272
f 275 272 273
f 276 273 274
f 348 274 335
f 275 273 276
f 276 274 348
f 275 276 348
f 287 252 251
f 287 253 252
f 288 254 253
f 289 255 254
f 287 251 277
f 290 278 255
f 290 279 278
f 287 288 253
f 288 289 254
f 289 290 255
f 291 280 279
f 292 281 280
f 293 282 281
f 294 283 282
f 295 284 283
f 296 285 284
f 297 286 285
f 298 361 286
f 290 291 279
f 291 292 280
f 289 291 290
f 289 293 291
f 292 293 281
f 293 294 282
f 291 293 292
f 289 297 293
f 293 295 294
f 275 354 289
f 354 297 289
f 294 295 283
f 295 296 284
f 296 297 285
f 297 298 286
f 293 297 295
f 295 297 296
f 297 374 298
f 349 335 336
f 350 336 337
f 351 337 338
f 352 338 339
f 353 339 340
f 354 340 341
f 348 335 349
f 349 336 350
f 350 337 351
f 351 338 352
f 275 348 350
f 348 349 350
f 275 350 354
f 350 351 352
f 352 339 353
f 353 340 354
f 354 341 355
f 350 352 354
f 352 353 354
f 355 341 342
f 356 342 343
f 357 343 344
f 358 344 345
f 359 345 346
f 360 346 347
f 355 342 356
f 356 343 357
f 357 344 358
f 354 355 356
f 354 356 358
f 356 357 358
f 358 345 359
f 359 346 360
f 360 347 394
f 354 358 395
f 358 359 360
f 358 360 395
f 374 362 361
f 375 363 362
f 376 364 363
f 377 365 364
f 378 366 365
f 379 367 366
f 298 374 361
f 374 375 362
f 375 376 363
f 376 377 364
f 297 376 374
f 374 376 375
f 297 380 376
f 376 378 377
f 377 378 365
f 378 379 366
f 379 380 367
f 376 380 378
f 378 380 379
f 380 368 367
f 381 369 368
f 382 370 369
f 383 371 370
f 384 372 371
f 385 373 372
f 380 381 368
f 381 382 369
f 382 383 370
f 297 430 380
f 380 382 381
f 380 384 382
f 382 384 383
f 354 491 297
f 383 384 371
f 384 385 372
f 385 386 373
f 380 430 384
f 384 386 385
f 384 430 386
f 394 347 387
f 395 387 388
f 396 388 389
f 397 389 390
f 398 390 391
f 399 391 392
f 400 392 393
f 394 387 395
f 395 388 396
f 396 389 397
f 360 394 395
f 354 395 437
f 395 396 397
f 397 390 398
f 398 391 399
f 399 392 400
f 395 397 399
f 397 398 399
f 395 399 437
f 400 393 435
f 399 400 435
f 386 401 373
f 429 402 401
f 430 403 402
f 431 404 403
f 432 405 404
f 433 406 405
f 434 410 406
f 386 429 401
f 429 430 402
f 430 431 403
f 297 491 430
f 386 430 429
f 430 432 431
f 354 437 491
f 431 432 404
f 432 433 405
f 433 434 406
f 430 434 432
f 432 434 433
f 430 441 434
f 435 393 407
f 436 407 408
f 437 408 409
f 442 409 414
f 438 411 410
f 439 412 411
f 440 413 412
f 441 421 413
f 443 414 415
f 444 415 416
f 445 416 417
f 446 417 418
f 447 418 419
f 484 419 420
f 448 422 421
f 449 425 422
f 453 423 426
f 450 424 423
f 452 426 425
f 435 407 436
f 436 408 437
f 437 409 442
f 399 435 437
f 435 436 437
f 434 438 410
f 438 439 411
f 439 440 412
f 440 441 413
f 434 439 438
f 434 441 439
f 430 491 441
f 439 441 440
f 442 414 443
f 443 415 444
f 444 416 445
f 445 417 446
f 446 418 447
f 447 419 484
f 437 442 443
f 437 443 445
f 443 444 445
f 437 445 485
f 445 446 447
f 437 485 491
f 445 447 485
f 441 448 421
f 448 449 422
f 449 452 425
f 453 450 423
f 450 451 424
f 452 453 426
f 441 449 448
f 441 453 449
f 441 491 453
f 453 451 450
f 491 451 453
f 449 453 452
f 454 428 427
f 454 455 428
f 459 457 456
f 459 460 457
f 461 462 458
f 461 463 462
f 334 464 420
f 470 469 481
f 498 471 472
f 485 464 465
f 486 465 466
f 487 466 467
f 487 467 468
f 484 420 464
f 487 468 473
f 501 469 471
f 495 481 469
f 488 473 474
f 489 474 475
f 484 464 485
f 485 465 486
f 486 466 487
f 451 476 424
f 490 477 476
f 491 479 477
f 492 475 478
f 494 478 480
f 493 480 479
f 487 473 488
f 488 474 489
f 447 484 485
f 485 486 487
f 485 489 491
f 485 487 489
f 487 488 489
f 490 476 451
f 490 491 477
f 489 475 492
f 492 478 494
f 494 480 493
f 493 479 491
f 490 451 491
f 489 492 494
f 489 494 491
f 494 493 491
f 455 483 428
f 496 427 482
f 454 427 496
f 454 497 455
f 455 497 483
f 454 496 497
f 495 482 481
f 495 469 501
f 495 501 496
f 495 496 482
f 496 501 502
f 496 502 497
f 502 507 497
f 501 471 498
f 501 498 502
f 502 498 499
f 460 505 457
f 507 456 504
f 459 456 507
f 459 508 460
f 460 508 505
f 459 507 508
f 509 458 506
f 461 458 509
f 461 520 463
f 461 509 520
f 497 504 483
f 497 507 504
f 502 508 507
f 502 503 508
f 508 506 505
f 508 509 506
f 503 527 508
f 508 527 509
f 463 510 462
f 463 520 510
f 520 511 510
f 521 512 511
f 522 513 512
f 523 514 513
f 524 515 514
f 525 516 515
f 526 517 516
f 527 518 517
f 528 519 518
f 520 521 511
f 520 522 521
f 520 523 522
f 521 522 512
f 509 527 520
f 520 527 523
f 522 523 513
f 523 524 514
f 524 525 515
f 525 526 516
f 526 527 517
f 527 528 518
f 528 529 519
f 523 525 524
f 523 527 525
f 525 527 526
f 527 529 528
f 527 550 529
f 533 500 530
f 503 500 533
f 535 531 532
f 534 531 535
f 503 533 527
f 533 534 527
f 534 535 527
f 529 536 519
f 549 537 536
f 550 538 537
f 551 539 538
f 552 540 539
f 553 541 540
f 554 542 541
f 555 543 542
f 529 549 536
f 549 550 537
f 550 551 538
f 551 552 539
f 529 550 549
f 527 554 550
f 550 552 551
f 550 554 552
f 552 553 540
f 553 554 541
f 554 555 542
f 555 556 543
f 552 554 553
f 527 597 554
f 554 556 555
f 535 648 527
f 554 558 556
f 556 544 543
f 557 545 544
f 558 546 545
f 559 547 546
f 560 548 547
f 561 573 548
f 556 557 544
f 557 558 545
f 558 559 546
f 556 558 557
f 554 597 558
f 559 560 547
f 560 561 548
f 561 597 573
f 558 560 559
f 558 597 560
f 560 597 561
f 503 666 500
f 502 499 667
f 502 668 503
f 667 499 665
f 503 668 666
f 502 667 668
f 534 675 531
f 533 530 677
f 533 678 534
f 535 532 679
f 535 681 595
f 594 571 570
f 596 570 572
f 535 595 604
f 527 648 597
f 594 595 571
f 594 570 596
f 535 604 641
f 594 596 595
f 595 596 604
f 535 641 648
f 597 574 573
f 598 575 574
f 599 576 575
f 600 577 576
f 601 578 577
f 602 587 578
f 597 598 574
f 598 599 575
f 599 600 576
f 597 599 598
f 597 601 599
f 600 601 577
f 601 602 578
f 602 611 587
f 599 601 600
f 597 613 601
f 601 611 602
f 603 572 579
f 604 579 580
f 605 580 581
f 606 581 582
f 607 582 583
f 608 583 584
f 595 680 571
f 609 584 585
f 639 585 618
f 610 624 586
f 596 572 603
f 603 579 604
f 604 580 605
f 605 581 606
f 596 603 604
f 604 605 606
f 606 582 607
f 607 583 608
f 608 584 609
f 609 585 639
f 604 606 608
f 606 607 608
f 604 608 641
f 608 609 639
f 617 610 586
f 617 645 610
f 611 588 587
f 612 589 588
f 613 590 589
f 614 591 590
f 615 592 591
f 616 593 592
f 617 586 593
f 611 612 588
f 612 613 589
f 613 614 590
f 601 613 611
f 611 613 612
f 597 648 613
f 613 615 614
f 614 615 591
f 615 616 592
f 617 593 616
f 613 617 615
f 615 617 616
f 613 648 617
f 677 530 674
f 534 678 675
f 533 677 678
f 679 532 676
f 535 679 681
f 640 618 619
f 641 619 620
f 642 620 621
f 643 621 622
f 644 622 623
f 645 625 624
f 646 627 625
f 647 623 626
f 648 628 627
f 649 629 628
f 650 630 629
f 651 637 630
f 652 626 631
f 653 631 632
f 654 632 633
f 655 633 634
f 656 634 635
f 657 635 636
f 658 638 637
f 659 636 638
f 639 618 640
f 640 619 641
f 641 620 642
f 642 621 643
f 643 622 644
f 644 623 647
f 608 639 641
f 639 640 641
f 641 642 643
f 641 643 647
f 643 644 647
f 610 645 624
f 646 625 645
f 646 648 627
f 647 626 652
f 648 649 628
f 650 629 649
f 650 651 630
f 658 637 651
f 617 648 645
f 646 645 648
f 641 655 648
f 641 647 655
f 648 650 649
f 648 658 650
f 648 655 658
f 658 651 650
f 652 631 653
f 653 632 654
f 659 657 636
f 654 633 655
f 655 634 656
f 656 635 657
f 659 638 658
f 647 652 653
f 647 653 655
f 653 654 655
f 655 657 658
f 655 656 657
f 659 658 657
f 595 681 680
f 668 665 666
f 667 665 668
f 678 674 675
f 677 674 678
f 681 676 680
f 679 676 681

