# https://github.com/mikedh/trimesh
v 0.60000002 0.60000002 0.00000000
v 0.00000000 0.60000002 0.60000002
v 0.60000002 0.00000000 0.60000002
v 0.00000000 0.60000002 4.40000010
v 0.60000002 0.00000000 4.40000010
v 0.60000002 0.60000002 5.00000000
v 0.19999985 29.62500000 4.59999990
v 0.19999985 29.97500038 4.59999990
v 0.19999985 32.22499847 4.59999990
v 0.19999985 32.57500076 4.59999990
v 0.19999985 34.82500076 4.59999990
v 1.60231137 29.97500038 4.59999990
v 1.67670631 29.62500000 4.59999990
v 1.86158371 29.62500000 4.59999990
v 2.02500010 29.62500000 4.59999990
v 2.02500010 29.65973473 4.59999990
v 2.47499990 29.62500000 4.59999990
v 2.47499990 29.75538635 4.59999990
v 2.02500010 32.22499847 4.59999990
v 2.02500010 32.57500076 4.59999990
v 2.47499990 32.30645370 4.59999990
v 2.47499990 32.57500076 4.59999990
v 0.60000002 29.62500000 5.00000000
v 0.60000002 29.97500038 5.00000000
v 0.60000002 32.22499847 5.00000000
v 0.60000002 32.57500076 5.00000000
v 0.60000002 34.82500076 5.00000000
v 1.60231137 29.97500038 5.00000000
v 1.67670631 29.62500000 5.00000000
v 1.68469799 29.58740234 5.00000000
v 1.56774771 30.13760948 5.00000000
v 1.86158371 29.62500000 5.00000000
v 2.02500010 28.23999977 5.00000000
v 2.47499990 28.23999977 5.00000000
v 2.02500010 29.62500000 5.00000000
v 2.02500010 30.23480225 5.00000000
v 2.47499990 29.62500000 5.00000000
v 2.47499990 30.33045197 5.00000000
v 1.68469799 29.58740234 5.50000000
v 1.56774771 30.13760948 5.50000000
v 2.02500010 28.23999977 5.50000000
v 2.47499990 28.23999977 5.50000000
v 2.02500010 29.65973473 5.50000000
v 2.02500010 30.23480225 5.50000000
v 2.47499990 29.75538635 5.50000000
v 2.47499990 30.33045197 5.50000000
v 1.68469799 31.56340218 5.00000000
v 1.56774771 32.11360931 5.00000000
v 2.02500010 31.63573456 5.00000000
v 2.02500010 32.22499847 5.00000000
v 2.02500010 32.21080017 5.00000000
v 2.02500010 32.57500076 5.00000000
v 2.47499990 31.73138618 5.00000000
v 2.47499990 32.57500076 5.00000000
v 2.02500010 33.95999908 5.00000000
v 2.47499990 33.95999908 5.00000000
v 1.68469799 31.56340218 5.50000000
v 1.56774771 32.11360931 5.50000000
v 2.02500010 31.63573456 5.50000000
v 2.02500010 32.21080017 5.50000000
v 2.47499990 31.73138618 5.50000000
v 2.47499990 32.30645370 5.50000000
v 2.02500010 33.95999908 5.50000000
v 2.47499990 33.95999908 5.50000000
v 3.12500000 29.62500000 4.59999990
v 3.12500000 29.89354706 4.59999990
v 3.57500005 29.62500000 4.59999990
v 3.57500005 29.97500038 4.59999990
v 3.12500000 32.44461441 4.59999990
v 3.12500000 32.57500076 4.59999990
v 3.57500005 32.57500076 4.59999990
v 3.57500005 32.54026413 4.59999990
v 3.73842120 32.57500076 4.59999990
v 3.99768877 32.22499847 4.59999990
v 3.92329359 32.57500076 4.59999990
v 3.12500000 28.23999977 5.00000000
v 3.57500005 28.23999977 5.00000000
v 3.12500000 29.62500000 5.00000000
v 3.12500000 30.46861458 5.00000000
v 3.57500005 29.62500000 5.00000000
v 3.57500005 29.97500038 5.00000000
v 3.57500005 29.98919868 5.00000000
v 3.57500005 30.56426430 5.00000000
v 3.12500000 28.23999977 5.50000000
v 3.57500005 28.23999977 5.50000000
v 3.12500000 29.89354706 5.50000000
v 3.12500000 30.46861458 5.50000000
v 3.57500005 29.98919868 5.50000000
v 3.57500005 30.56426430 5.50000000
v 3.12500000 31.86954689 5.00000000
v 3.12500000 32.57500076 5.00000000
v 3.57500005 31.96519852 5.00000000
v 3.57500005 32.57500076 5.00000000
v 3.73842120 32.57500076 5.00000000
v 3.12500000 33.95999908 5.00000000
v 3.57500005 33.95999908 5.00000000
v 3.12500000 31.86954689 5.50000000
v 3.12500000 32.44461441 5.50000000
v 3.57500005 31.96519852 5.50000000
v 3.57500005 32.54026413 5.50000000
v 3.12500000 33.95999908 5.50000000
v 3.57500005 33.95999908 5.50000000
v 4.03225231 30.08638954 5.00000000
v 4.03225231 30.08638954 5.50000000
v 3.91530204 30.63659859 5.00000000
v 3.99768877 32.22499847 5.00000000
v 4.03225231 32.06238937 5.00000000
v 3.92329359 32.57500076 5.00000000
v 3.91530204 32.61259842 5.00000000
v 3.91530204 30.63659859 5.50000000
v 4.03225231 32.06238937 5.50000000
v 3.91530204 32.61259842 5.50000000
v 6.03184509 29.97500038 4.59999990
v 6.08530140 29.95525551 4.59999990
v 6.17414808 29.92878723 4.59999990
v 6.26653099 29.90733337 4.59999990
v 6.36205482 29.89098740 4.59999990
v 6.46031046 29.87981987 4.59999990
v 6.56087685 29.87387466 4.59999990
v 6.66332388 29.87318230 4.59999990
v 6.76721287 29.87774277 4.59999990
v 6.87209845 29.88753700 4.59999990
v 6.97753143 29.90252304 4.59999990
v 7.08306122 29.92263603 4.59999990
v 7.18823481 29.94779205 4.59999990
v 7.28261232 29.97500038 4.59999990
v 6.71738720 32.22499847 4.59999990
v 6.81176519 32.25220871 4.59999990
v 6.91693878 32.27736282 4.59999990
v 7.02246857 32.29747772 4.59999990
v 7.12790155 32.31246185 4.59999990
v 7.23278713 32.32225800 4.59999990
v 7.33667612 32.32681656 4.59999990
v 7.43912315 32.32612610 4.59999990
v 5.41381836 30.60320473 5.00000000
v 5.46558046 30.46098900 5.00000000
v 5.43635130 30.53087807 5.00000000
v 5.54359722 30.32970619 5.00000000
v 5.50137997 30.39383698 5.00000000
v 5.59205055 30.26887703 5.00000000
v 5.64653349 30.21160507 5.00000000
v 5.70681143 30.15813828 5.00000000
v 5.77262735 30.10870361 5.00000000
v 5.84369946 30.06351471 5.00000000
v 5.91972256 30.02276421 5.00000000
v 6.00037146 29.98662567 5.00000000
v 6.03184509 29.97500038 5.00000000
v 5.41381836 30.60320473 5.50000000
v 5.46558046 30.46098900 5.50000000
v 5.43635130 30.53087807 5.50000000
v 5.54359722 30.32970619 5.50000000
v 5.50137997 30.39383698 5.50000000
v 5.59205055 30.26887703 5.50000000
v 5.64653349 30.21160507 5.50000000
v 5.70681143 30.15813828 5.50000000
v 5.77262735 30.10870361 5.50000000
v 5.84369946 30.06351471 5.50000000
v 5.91972256 30.02276421 5.50000000
v 6.00037146 29.98662567 5.50000000
v 6.08530140 29.95525551 5.50000000
v 6.17414808 29.92878723 5.50000000
v 5.38919592 30.75392151 5.00000000
v 5.38721228 30.83166504 5.00000000
v 5.39807701 30.67765808 5.00000000
v 5.39213514 30.91055870 5.00000000
v 5.40394258 30.99026299 5.00000000
v 5.42258501 31.07043839 5.00000000
v 5.44798183 31.15073776 5.00000000
v 5.48002481 31.23082161 5.00000000
v 5.51857662 31.31034660 5.00000000
v 5.56347227 31.38896942 5.00000000
v 5.61451912 31.46635437 5.00000000
v 5.67149878 31.54217148 5.00000000
v 5.73416758 31.61609459 5.00000000
v 5.80225658 31.68780708 5.00000000
v 5.87547445 31.75700378 5.00000000
v 5.95350790 31.82338524 5.00000000
v 6.03602266 31.88667107 5.00000000
v 6.12266493 31.94658661 5.00000000
v 6.21306419 32.00288010 5.00000000
v 5.38919592 30.75392151 5.50000000
v 5.38721228 30.83166504 5.50000000
v 5.39807701 30.67765808 5.50000000
v 5.39213514 30.91055870 5.50000000
v 5.40394258 30.99026299 5.50000000
v 5.42258501 31.07043839 5.50000000
v 5.44798183 31.15073776 5.50000000
v 5.48002481 31.23082161 5.50000000
v 5.51857662 31.31034660 5.50000000
v 5.56347227 31.38896942 5.50000000
v 5.61451912 31.46635437 5.50000000
v 5.67149878 31.54217148 5.50000000
v 5.73416758 31.61609459 5.50000000
v 5.80225658 31.68780708 5.50000000
v 5.87547445 31.75700378 5.50000000
v 5.95350790 31.82338524 5.50000000
v 6.03602266 31.88667107 5.50000000
v 6.12266493 31.94658661 5.50000000
v 6.21306419 32.00288010 5.50000000
v 7.28261232 29.97500038 5.00000000
v 7.29260254 29.97788048 5.00000000
v 7.39571714 30.01277542 5.00000000
v 7.49713755 30.05232620 5.00000000
v 6.26653099 29.90733337 5.50000000
v 6.36205482 29.89098740 5.50000000
v 6.46031046 29.87981987 5.50000000
v 6.56087685 29.87387466 5.50000000
v 6.66332388 29.87318230 5.50000000
v 6.76721287 29.87774277 5.50000000
v 6.87209845 29.88753700 5.50000000
v 6.97753143 29.90252304 5.50000000
v 7.08306122 29.92263603 5.50000000
v 7.18823481 29.94779205 5.50000000
v 7.29260254 29.97788048 5.50000000
v 7.39571714 30.01277542 5.50000000
v 7.49713755 30.05232620 5.50000000
v 6.30683374 32.05530167 5.00000000
v 6.40357113 32.10363770 5.00000000
v 6.50286245 32.14767456 5.00000000
v 6.60428286 32.18722534 5.00000000
v 6.71738720 32.22499847 5.00000000
v 6.70739746 32.22211838 5.00000000
v 6.30683374 32.05530167 5.50000000
v 6.40357113 32.10363770 5.50000000
v 6.50286245 32.14767456 5.50000000
v 6.60428286 32.18722534 5.50000000
v 6.70739746 32.22211838 5.50000000
v 6.81176519 32.25220871 5.50000000
v 6.91693878 32.27736282 5.50000000
v 7.02246857 32.29747772 5.50000000
v 7.12790155 32.31246185 5.50000000
v 7.23278713 32.32225800 5.50000000
v 7.33667612 32.32681656 5.50000000
v 7.43912315 32.32612610 5.50000000
v 7.53968954 32.32018280 4.59999990
v 7.63794518 32.30901337 4.59999990
v 7.73346901 32.29266739 4.59999990
v 7.91469860 32.24474335 4.59999990
v 7.96815825 32.22499847 4.59999990
v 7.82585192 32.27121353 4.59999990
v 8.11294460 32.22499847 4.59999990
v 8.11294460 32.57500076 4.59999990
v 8.11294460 34.82500076 4.59999990
v 8.61294460 32.22499847 4.59999990
v 8.61294460 32.57500076 4.59999990
v 8.61294460 34.82500076 4.59999990
v 9.38705540 32.22499847 4.59999990
v 9.38705540 32.57500076 4.59999990
v 9.88705540 32.22499847 4.59999990
v 9.88705540 32.57500076 4.59999990
v 9.38705540 34.82500076 4.59999990
v 9.88705540 34.82500076 4.59999990
v 7.59642887 30.09636307 5.00000000
v 7.69316626 30.14469719 5.00000000
v 7.78693581 30.19712067 5.00000000
v 7.87733507 30.25341225 5.00000000
v 7.96397734 30.31332970 5.00000000
v 8.04649258 30.37661362 5.00000000
v 8.12452507 30.44299698 5.00000000
v 8.19774342 30.51219368 5.00000000
v 8.26583290 30.58390617 5.00000000
v 7.59642887 30.09636307 5.50000000
v 7.69316626 30.14469719 5.50000000
v 7.78693581 30.19712067 5.50000000
v 7.87733507 30.25341225 5.50000000
v 7.96397734 30.31332970 5.50000000
v 8.04649258 30.37661362 5.50000000
v 8.12452507 30.44299698 5.50000000
v 8.19774342 30.51219368 5.50000000
v 8.26583290 30.58390617 5.50000000
v 7.96815825 32.22499847 5.00000000
v 7.99962854 32.21337509 5.00000000
v 8.08027744 32.17723846 5.00000000
v 8.11294460 32.15972519 5.00000000
v 8.11294460 32.22499847 5.00000000
v 8.11294460 32.57500076 5.00000000
v 8.11294460 34.82500076 5.00000000
v 8.32850075 30.65782928 5.00000000
v 8.38548088 30.73364639 5.00000000
v 8.43652821 30.81103134 5.00000000
v 8.48142338 30.88965416 5.00000000
v 8.51997471 30.96917725 5.00000000
v 8.55201817 31.04926109 5.00000000
v 8.56806564 31.10000038 5.00000000
v 8.61294460 31.10000038 5.00000000
v 8.61294460 32.22499847 5.00000000
v 8.61294460 32.57500076 5.00000000
v 8.61294460 34.82500076 5.00000000
v 7.53968954 32.32018280 5.50000000
v 7.63794518 32.30901337 5.50000000
v 7.73346901 32.29266739 5.50000000
v 7.91469860 32.24474335 5.50000000
v 7.82585192 32.27121353 5.50000000
v 7.99962854 32.21337509 5.50000000
v 8.08027744 32.17723846 5.50000000
v 8.11294460 32.15972519 5.50000000
v 8.32850075 30.65782928 5.50000000
v 8.38548088 30.73364639 5.50000000
v 8.43652821 30.81103134 5.50000000
v 8.48142338 30.88965416 5.50000000
v 8.51997471 30.96917725 5.50000000
v 8.55201817 31.04926109 5.50000000
v 8.56806564 31.10000038 5.50000000
v 8.61294460 31.10000038 5.50000000
v 9.38705540 31.10000038 5.00000000
v 9.38705540 32.22499847 5.00000000
v 9.38705540 32.57500076 5.00000000
v 9.88705540 31.10000038 5.00000000
v 9.88705540 32.22499847 5.00000000
v 9.88705540 32.57500076 5.00000000
v 9.38705540 34.82500076 5.00000000
v 9.88705540 34.82500076 5.00000000
v 9.38705540 31.10000038 5.50000000
v 9.88705540 31.10000038 5.50000000
v 0.60000002 69.40000153 0.00000000
v 0.00000000 69.40000153 0.60000002
v 0.60000002 70.00000000 0.60000002
v 0.19999985 35.17499924 4.59999990
v 0.19999985 37.42499924 4.59999990
v 0.19999985 37.77500153 4.59999990
v 0.19999985 40.02500153 4.59999990
v 0.19999985 40.37500000 4.59999990
v 0.60000002 35.17499924 5.00000000
v 0.60000002 37.42499924 5.00000000
v 0.60000002 37.77500153 5.00000000
v 0.60000002 40.02500153 5.00000000
v 0.60000002 40.37500000 5.00000000
v 0.00000000 69.40000153 4.40000010
v 0.60000002 70.00000000 4.40000010
v 0.60000002 69.40000153 5.00000000
v 4.54141092 56.50000000 4.59999990
v 4.54141092 60.34999847 4.59999990
v 4.54141092 56.50000000 5.00000000
v 4.54141092 61.65000153 4.59999990
v 4.54141092 64.19999695 4.59999990
v 4.54141092 65.50000000 4.59999990
v 4.54141092 65.50000000 5.00000000
v 6.02500010 37.42499924 4.59999990
v 6.02500010 37.77500153 4.59999990
v 6.02500010 40.02500153 4.59999990
v 6.02500010 40.37500000 4.59999990
v 6.47499990 37.42499924 4.59999990
v 6.47499990 37.77500153 4.59999990
v 7.12500000 37.42499924 4.59999990
v 7.12500000 37.77500153 4.59999990
v 6.47499990 40.02500153 4.59999990
v 6.47499990 40.37500000 4.59999990
v 7.12500000 40.02500153 4.59999990
v 7.12500000 40.37500000 4.59999990
v 5.56774759 39.23760986 5.00000000
v 5.68469810 38.68740082 5.00000000
v 6.02500010 37.34000015 5.00000000
v 6.02500010 37.42499924 5.00000000
v 6.02500010 37.77500153 5.00000000
v 6.02500010 38.75973511 5.00000000
v 6.02500010 39.33480072 5.00000000
v 5.56774759 39.23760986 5.50000000
v 5.68469810 38.68740082 5.50000000
v 6.02500010 37.34000015 5.50000000
v 6.02500010 38.75973511 5.50000000
v 6.02500010 39.33480072 5.50000000
v 5.56774759 41.21361160 5.00000000
v 5.68469810 40.66340256 5.00000000
v 6.02500010 40.02500153 5.00000000
v 6.02500010 40.37500000 5.00000000
v 6.02500010 40.73573685 5.00000000
v 6.02500010 41.31080246 5.00000000
v 6.02500010 43.06000137 5.00000000
v 5.56774759 41.21361160 5.50000000
v 5.68469810 40.66340256 5.50000000
v 6.02500010 40.73573685 5.50000000
v 6.02500010 41.31080246 5.50000000
v 6.02500010 43.06000137 5.50000000
v 6.47499990 37.34000015 5.00000000
v 6.47499990 37.42499924 5.00000000
v 6.47499990 37.77500153 5.00000000
v 6.47499990 38.85538483 5.00000000
v 7.12500000 37.34000015 5.00000000
v 7.12500000 37.42499924 5.00000000
v 7.12500000 37.77500153 5.00000000
v 7.12500000 38.99354935 5.00000000
v 6.47499990 37.34000015 5.50000000
v 6.47499990 38.85538483 5.50000000
v 7.12500000 37.34000015 5.50000000
v 7.12500000 38.99354935 5.50000000
v 6.47499990 39.43045425 5.00000000
v 6.47499990 40.02500153 5.00000000
v 6.47499990 40.37500000 5.00000000
v 6.47499990 40.83138657 5.00000000
v 6.47499990 41.40645218 5.00000000
v 6.47499990 43.06000137 5.00000000
v 7.12500000 39.56861496 5.00000000
v 7.12500000 40.02500153 5.00000000
v 7.12500000 40.37500000 5.00000000
v 7.12500000 40.96954727 5.00000000
v 7.12500000 41.54461288 5.00000000
v 7.12500000 43.06000137 5.00000000
v 6.47499990 39.43045425 5.50000000
v 6.47499990 40.83138657 5.50000000
v 6.47499990 41.40645218 5.50000000
v 6.47499990 43.06000137 5.50000000
v 7.12500000 39.56861496 5.50000000
v 7.12500000 40.96954727 5.50000000
v 7.12500000 41.54461288 5.50000000
v 7.12500000 43.06000137 5.50000000
v 8.11294460 35.17499924 4.59999990
v 7.57499981 37.42499924 4.59999990
v 7.57499981 37.77500153 4.59999990
v 8.11294460 37.42499924 4.59999990
v 8.11294460 37.77500153 4.59999990
v 8.61294460 35.17499924 4.59999990
v 8.61294460 37.42499924 4.59999990
v 8.61294460 37.77500153 4.59999990
v 7.57499981 40.02500153 4.59999990
v 7.57499981 40.37500000 4.59999990
v 9.38705540 35.17499924 4.59999990
v 9.88705540 35.17499924 4.59999990
v 9.38705540 37.42499924 4.59999990
v 9.38705540 37.77500153 4.59999990
v 9.88705540 37.42499924 4.59999990
v 9.88705540 37.77500153 4.59999990
v 9.38705540 40.02500153 4.59999990
v 9.38705540 40.20000076 4.59999990
v 9.43193436 40.20000076 4.59999990
v 9.44798183 40.25074005 4.59999990
v 9.48002529 40.33082199 4.59999990
v 9.50144100 40.37500000 4.59999990
v 8.11294460 35.17499924 5.00000000
v 7.57499981 37.34000015 5.00000000
v 7.57499981 37.42499924 5.00000000
v 7.57499981 37.77500153 5.00000000
v 7.57499981 39.08919907 5.00000000
v 8.11294460 37.42499924 5.00000000
v 8.11294460 37.77500153 5.00000000
v 8.11294460 38.79999924 5.00000000
v 8.03225231 39.18638992 5.00000000
v 8.61294460 35.17499924 5.00000000
v 8.61294460 37.42499924 5.00000000
v 8.61294460 37.77500153 5.00000000
v 8.61294460 38.79999924 5.00000000
v 7.57499981 37.34000015 5.50000000
v 7.57499981 39.08919907 5.50000000
v 8.11294460 38.79999924 5.50000000
v 8.03225231 39.18638992 5.50000000
v 8.61294460 38.79999924 5.50000000
v 7.57499981 39.66426468 5.00000000
v 7.57499981 40.02500153 5.00000000
v 7.57499981 40.37500000 5.00000000
v 7.57499981 41.06519699 5.00000000
v 7.91530180 39.73659897 5.00000000
v 8.03225231 41.16239166 5.00000000
v 7.57499981 41.64026642 5.00000000
v 7.57499981 43.06000137 5.00000000
v 7.91530180 41.71259689 5.00000000
v 7.57499981 39.66426468 5.50000000
v 7.57499981 41.06519699 5.50000000
v 7.91530180 39.73659897 5.50000000
v 8.03225231 41.16239166 5.50000000
v 7.57499981 41.64026642 5.50000000
v 7.57499981 43.06000137 5.50000000
v 7.91530180 41.71259689 5.50000000
v 9.38705540 35.17499924 5.00000000
v 9.88705540 35.17499924 5.00000000
v 9.38705540 37.42499924 5.00000000
v 9.38705540 37.77500153 5.00000000
v 9.38705540 38.97335815 5.00000000
v 9.88705540 37.42499924 5.00000000
v 9.88705540 37.77500153 5.00000000
v 9.88705540 39.14027405 5.00000000
v 9.91972256 39.12276459 5.00000000
v 9.88705540 39.14027405 5.50000000
v 9.91972256 39.12276459 5.50000000
v 9.38705540 40.02500153 5.00000000
v 9.50144100 40.37500000 5.00000000
v 9.51857662 40.41034698 5.00000000
v 9.56347179 40.48896790 5.00000000
v 9.61451912 40.56635284 5.00000000
v 9.67149925 40.64216995 5.00000000
v 9.73416710 40.71609497 5.00000000
v 9.80225658 40.78780746 5.00000000
v 9.87547493 40.85700226 5.00000000
v 9.95350742 40.92338562 5.00000000
v 9.38705540 40.20000076 5.50000000
v 9.43193436 40.20000076 5.50000000
v 9.44798183 40.25074005 5.50000000
v 9.48002529 40.33082199 5.50000000
v 9.51857662 40.41034698 5.50000000
v 9.56347179 40.48896790 5.50000000
v 9.61451912 40.56635284 5.50000000
v 9.67149925 40.64216995 5.50000000
v 9.73416710 40.71609497 5.50000000
v 9.80225658 40.78780746 5.50000000
v 9.87547493 40.85700226 5.50000000
v 9.95350742 40.92338562 5.50000000
v 9.68469810 47.78740311 5.00000000
v 9.68469810 47.78740311 5.50000000
v 9.56774807 48.33760834 5.00000000
v 9.68469810 49.76340103 5.00000000
v 9.56774807 50.31361008 5.00000000
v 9.56774807 48.33760834 5.50000000
v 9.68469810 49.76340103 5.50000000
v 9.56774807 50.31361008 5.50000000
v 5.84141111 56.50000000 4.59999990
v 5.84141111 60.34999847 4.59999990
v 5.84141111 56.50000000 5.00000000
v 5.84141111 60.34999847 5.00000000
v 5.84141111 61.65000153 4.59999990
v 5.84141111 64.19999695 4.59999990
v 5.84141111 65.50000000 4.59999990
v 5.84141111 61.65000153 5.00000000
v 5.84141111 64.19999695 5.00000000
v 19.39999962 0.60000002 0.00000000
v 19.39999962 0.00000000 0.60000002
v 20.00000000 0.60000002 0.60000002
v 19.39999962 0.00000000 4.40000010
v 20.00000000 0.60000002 4.40000010
v 19.39999962 0.60000002 5.00000000
v 19.79999924 29.62500000 4.59999990
v 19.79999924 29.97500038 4.59999990
v 19.79999924 32.22499847 4.59999990
v 19.79999924 32.57500076 4.59999990
v 19.79999924 34.82500076 4.59999990
v 19.39999962 29.62500000 5.00000000
v 19.39999962 29.97500038 5.00000000
v 19.39999962 32.22499847 5.00000000
v 19.39999962 32.57500076 5.00000000
v 19.39999962 34.82500076 5.00000000
v 19.39999962 69.40000153 0.00000000
v 19.39999962 70.00000000 0.60000002
v 20.00000000 69.40000153 0.60000002
v 12.49855900 40.02500153 4.59999990
v 10.00037193 39.08662415 5.00000000
v 10.08530140 39.05525589 5.00000000
v 10.17414761 39.02878571 5.00000000
v 10.26653099 39.00733185 5.00000000
v 10.36205482 38.99098587 5.00000000
v 10.46030998 38.97982025 5.00000000
v 10.56087685 38.97387695 5.00000000
v 10.66332436 38.97318268 5.00000000
v 10.76721287 38.97774124 5.00000000
v 10.87209797 38.98753738 5.00000000
v 10.97753143 39.00252151 5.00000000
v 11.08306122 39.02263641 5.00000000
v 11.18823433 39.04779053 5.00000000
v 10.00037193 39.08662415 5.50000000
v 10.08530140 39.05525589 5.50000000
v 10.17414761 39.02878571 5.50000000
v 10.26653099 39.00733185 5.50000000
v 10.36205482 38.99098587 5.50000000
v 10.46030998 38.97982025 5.50000000
v 10.56087685 38.97387695 5.50000000
v 10.66332436 38.97318268 5.50000000
v 10.76721287 38.97774124 5.50000000
v 10.87209797 38.98753738 5.50000000
v 10.97753143 39.00252151 5.50000000
v 11.08306122 39.02263641 5.50000000
v 11.18823433 39.04779053 5.50000000
v 10.03602219 40.98667145 5.00000000
v 10.12266541 41.04658890 5.00000000
v 10.21306419 41.10287857 5.00000000
v 10.30683327 41.15530396 5.00000000
v 10.40357113 41.20363617 5.00000000
v 10.50286198 41.24767303 5.00000000
v 10.60428238 41.28722382 5.00000000
v 10.70739746 41.32212067 5.00000000
v 10.81176567 41.35220718 5.00000000
v 10.91693878 41.37736511 5.00000000
v 11.02246857 41.39747620 5.00000000
v 11.12790203 41.41246414 5.00000000
v 11.23278713 41.42225647 5.00000000
v 10.03602219 40.98667145 5.50000000
v 10.12266541 41.04658890 5.50000000
v 10.21306419 41.10287857 5.50000000
v 10.30683327 41.15530396 5.50000000
v 10.40357113 41.20363617 5.50000000
v 10.50286198 41.24767303 5.50000000
v 10.60428238 41.28722382 5.50000000
v 10.70739746 41.32212067 5.50000000
v 10.81176567 41.35220718 5.50000000
v 10.91693878 41.37736511 5.50000000
v 11.02246857 41.39747620 5.50000000
v 11.12790203 41.41246414 5.50000000
v 11.23278713 41.42225647 5.50000000
v 11.29260254 39.07788086 5.00000000
v 11.39571762 39.11277390 5.00000000
v 11.49713802 39.15232468 5.00000000
v 11.59642887 39.19636154 5.00000000
v 11.69316673 39.24469757 5.00000000
v 11.78693581 39.29712296 5.00000000
v 11.87733459 39.35341263 5.00000000
v 11.29260254 39.07788086 5.50000000
v 11.39571762 39.11277390 5.50000000
v 11.49713802 39.15232468 5.50000000
v 11.59642887 39.19636154 5.50000000
v 11.69316673 39.24469757 5.50000000
v 11.78693581 39.29712296 5.50000000
v 11.87733459 39.35341263 5.50000000
v 11.33667564 41.42681885 5.00000000
v 11.43912315 41.42612457 5.00000000
v 11.53969002 41.42018127 5.00000000
v 11.63794518 41.40901184 5.00000000
v 11.73346901 41.39266586 5.00000000
v 11.82585239 41.37121201 5.00000000
v 11.96397781 39.41333008 5.00000000
v 12.04649258 39.47661591 5.00000000
v 12.12452507 39.54299545 5.00000000
v 11.91469860 41.34474564 5.00000000
v 11.99962807 41.31337357 5.00000000
v 12.08027744 41.27723694 5.00000000
v 12.15630054 41.23648453 5.00000000
v 12.19774342 39.61219406 5.00000000
v 12.26583290 39.68390656 5.00000000
v 12.32850075 39.75782776 5.00000000
v 12.38548088 39.83364487 5.00000000
v 12.43652821 39.91102982 5.00000000
v 12.48142338 39.98965454 5.00000000
v 12.49855900 40.02500153 5.00000000
v 12.22737217 41.19129562 5.00000000
v 12.29318810 41.14186096 5.00000000
v 12.45640278 40.97029114 5.00000000
v 12.49862003 40.90616226 5.00000000
v 12.35346699 41.08839417 5.00000000
v 12.40794945 41.03112411 5.00000000
v 12.39999962 42.54999924 5.00000000
v 12.39999962 43.04999924 5.00000000
v 11.33667564 41.42681885 5.50000000
v 11.43912315 41.42612457 5.50000000
v 11.53969002 41.42018127 5.50000000
v 11.63794518 41.40901184 5.50000000
v 11.73346901 41.39266586 5.50000000
v 11.82585239 41.37121201 5.50000000
v 11.96397781 39.41333008 5.50000000
v 12.04649258 39.47661591 5.50000000
v 12.12452507 39.54299545 5.50000000
v 11.91469860 41.34474564 5.50000000
v 11.99962807 41.31337357 5.50000000
v 12.08027744 41.27723694 5.50000000
v 12.15630054 41.23648453 5.50000000
v 12.19774342 39.61219406 5.50000000
v 12.26583290 39.68390656 5.50000000
v 12.32850075 39.75782776 5.50000000
v 12.38548088 39.83364487 5.50000000
v 12.43652821 39.91102982 5.50000000
v 12.48142338 39.98965454 5.50000000
v 12.22737217 41.19129562 5.50000000
v 12.29318810 41.14186096 5.50000000
v 12.45640278 40.97029114 5.50000000
v 12.49862003 40.90616226 5.50000000
v 12.35346699 41.08839417 5.50000000
v 12.40794945 41.03112411 5.50000000
v 12.39999962 42.54999924 5.50000000
v 12.39999962 43.04999924 5.50000000
v 10.02499962 46.43999863 5.00000000
v 10.02499962 47.85973358 5.00000000
v 10.47500038 46.43999863 5.00000000
v 10.47500038 47.95538712 5.00000000
v 11.12500000 46.43999863 5.00000000
v 11.12500000 48.09354782 5.00000000
v 10.02499962 46.43999863 5.50000000
v 10.02499962 47.85973358 5.50000000
v 10.47500038 46.43999863 5.50000000
v 10.47500038 47.95538712 5.50000000
v 11.12500000 46.43999863 5.50000000
v 11.12500000 48.09354782 5.50000000
v 10.02499962 48.43480301 5.00000000
v 10.02499962 49.83573532 5.00000000
v 10.47500038 48.53045273 5.00000000
v 10.47500038 49.93138504 5.00000000
v 10.02499962 50.41080093 5.00000000
v 10.02499962 52.15999985 5.00000000
v 10.47500038 50.50645065 5.00000000
v 10.47500038 52.15999985 5.00000000
v 11.12500000 48.66861343 5.00000000
v 11.12500000 50.06954575 5.00000000
v 11.12500000 50.64461517 5.00000000
v 11.12500000 52.15999985 5.00000000
v 10.02499962 48.43480301 5.50000000
v 10.02499962 49.83573532 5.50000000
v 10.47500038 48.53045273 5.50000000
v 10.47500038 49.93138504 5.50000000
v 10.02499962 50.41080093 5.50000000
v 10.02499962 52.15999985 5.50000000
v 10.47500038 50.50645065 5.50000000
v 10.47500038 52.15999985 5.50000000
v 11.12500000 48.66861343 5.50000000
v 11.12500000 50.06954575 5.50000000
v 11.12500000 50.64461517 5.50000000
v 11.12500000 52.15999985 5.50000000
v 11.57499981 46.43999863 5.00000000
v 12.39999962 45.15000153 5.00000000
v 12.39999962 45.65000153 5.00000000
v 12.39999962 47.75000000 5.00000000
v 11.57499981 46.43999863 5.50000000
v 12.39999962 45.15000153 5.50000000
v 12.39999962 45.65000153 5.50000000
v 12.39999962 47.75000000 5.50000000
v 11.57499981 48.18919754 5.00000000
v 11.57499981 48.76426315 5.00000000
v 11.57499981 50.16519928 5.00000000
v 11.57499981 50.74026489 5.00000000
v 11.57499981 52.15999985 5.00000000
v 11.91530228 48.83659744 5.00000000
v 12.03225231 48.28638840 5.00000000
v 12.03225231 50.26239014 5.00000000
v 12.39999962 48.25000000 5.00000000
v 11.91530228 50.81259918 5.00000000
v 11.57499981 48.18919754 5.50000000
v 11.57499981 48.76426315 5.50000000
v 11.57499981 50.16519928 5.50000000
v 11.57499981 50.74026489 5.50000000
v 11.57499981 52.15999985 5.50000000
v 11.91530228 48.83659744 5.50000000
v 12.03225231 48.28638840 5.50000000
v 12.03225231 50.26239014 5.50000000
v 12.39999962 48.25000000 5.50000000
v 11.91530228 50.81259918 5.50000000
v 12.51997471 40.06917953 4.59999990
v 12.55201817 40.14926147 4.59999990
v 12.57741547 40.22956085 4.59999990
v 12.59605694 40.30973816 4.59999990
v 12.60572529 40.37500000 4.59999990
v 13.38705540 40.20000076 4.59999990
v 13.38705540 40.37500000 4.59999990
v 13.88705540 40.20000076 4.59999990
v 13.88705540 40.37500000 4.59999990
v 12.60572529 40.37500000 5.00000000
v 12.60786533 40.38944244 5.00000000
v 12.61278725 40.46833420 5.00000000
v 12.53441906 40.83901215 5.00000000
v 12.56364822 40.76912308 5.00000000
v 12.61080360 40.54607773 5.00000000
v 12.58618164 40.69679642 5.00000000
v 12.60192299 40.62234116 5.00000000
v 13.38705540 40.37500000 5.00000000
v 13.38705540 42.54999924 5.00000000
v 13.38705540 43.04999924 5.00000000
v 12.51997471 40.06917953 5.50000000
v 12.55201817 40.14926147 5.50000000
v 12.57741547 40.22956085 5.50000000
v 12.59605694 40.30973816 5.50000000
v 12.60786533 40.38944244 5.50000000
v 12.61278725 40.46833420 5.50000000
v 12.53441906 40.83901215 5.50000000
v 12.56364822 40.76912308 5.50000000
v 12.61080360 40.54607773 5.50000000
v 12.58618164 40.69679642 5.50000000
v 12.60192299 40.62234116 5.50000000
v 13.38705540 40.20000076 5.50000000
v 13.38705540 42.54999924 5.50000000
v 13.38705540 43.04999924 5.50000000
v 13.88705540 40.37500000 5.00000000
v 13.88705540 42.54999924 5.00000000
v 13.88705540 43.04999924 5.00000000
v 13.88705540 40.20000076 5.50000000
v 13.88705540 42.54999924 5.50000000
v 13.88705540 43.04999924 5.50000000
v 13.38705540 45.15000153 5.00000000
v 13.38705540 45.65000153 5.00000000
v 13.38705540 47.75000000 5.00000000
v 13.38705540 45.15000153 5.50000000
v 13.38705540 45.65000153 5.50000000
v 13.38705540 47.75000000 5.50000000
v 13.38705540 48.25000000 5.00000000
v 13.38705540 49.29999924 5.00000000
v 13.43193436 49.29999924 5.00000000
v 13.44798183 49.35073853 5.00000000
v 13.48002529 49.43082047 5.00000000
v 13.51857662 49.51034546 5.00000000
v 13.56347179 49.58897018 5.00000000
v 13.61451912 49.66635513 5.00000000
v 13.67149925 49.74217224 5.00000000
v 13.73416710 49.81609344 5.00000000
v 13.38705540 48.25000000 5.50000000
v 13.38705540 49.29999924 5.50000000
v 13.43193436 49.29999924 5.50000000
v 13.44798183 49.35073853 5.50000000
v 13.48002529 49.43082047 5.50000000
v 13.51857662 49.51034546 5.50000000
v 13.56347179 49.58897018 5.50000000
v 13.61451912 49.66635513 5.50000000
v 13.67149925 49.74217224 5.50000000
v 13.73416710 49.81609344 5.50000000
v 13.88705540 45.15000153 5.00000000
v 13.88705540 45.65000153 5.00000000
v 13.88705540 47.75000000 5.00000000
v 13.88705540 45.15000153 5.50000000
v 13.88705540 45.65000153 5.50000000
v 13.88705540 47.75000000 5.50000000
v 13.80225658 49.88780594 5.00000000
v 13.87547493 49.95700455 5.00000000
v 13.95350742 50.02338409 5.00000000
v 14.03602219 50.08666992 5.00000000
v 14.12266541 50.14658737 5.00000000
v 14.21306419 50.20287704 5.00000000
v 14.30683327 50.25530243 5.00000000
v 14.40357113 50.30363846 5.00000000
v 14.50286198 50.34767532 5.00000000
v 14.60428238 50.38722610 5.00000000
v 14.70739746 50.42211914 5.00000000
v 14.81176567 50.45220947 5.00000000
v 14.91693878 50.47736359 5.00000000
v 13.80225658 49.88780594 5.50000000
v 13.87547493 49.95700455 5.50000000
v 13.95350742 50.02338409 5.50000000
v 14.03602219 50.08666992 5.50000000
v 14.12266541 50.14658737 5.50000000
v 14.21306419 50.20287704 5.50000000
v 14.30683327 50.25530243 5.50000000
v 14.40357113 50.30363846 5.50000000
v 14.50286198 50.34767532 5.50000000
v 14.60428238 50.38722610 5.50000000
v 14.70739746 50.42211914 5.50000000
v 14.81176567 50.45220947 5.50000000
v 14.91693878 50.47736359 5.50000000
v 10.84141159 60.34999847 4.59999990
v 12.34141159 59.88298416 4.59999990
v 10.84141159 60.34999847 5.00000000
v 12.34141159 59.88298416 5.00000000
v 10.84141159 61.65000153 4.59999990
v 11.54141140 64.19999695 4.59999990
v 11.54141140 65.50000000 4.59999990
v 12.34141159 62.35298157 4.59999990
v 10.84141159 61.65000153 5.00000000
v 11.54141140 64.19999695 5.00000000
v 11.54141140 65.50000000 5.00000000
v 12.34141159 62.35298157 5.00000000
v 12.52414608 59.02328110 4.59999990
v 12.86093712 57.42499924 4.59999990
v 12.86093712 59.09487152 4.59999990
v 12.86093712 59.99341202 4.59999990
v 13.56406212 57.42499924 4.59999990
v 13.56406212 59.24432373 4.59999990
v 13.56406212 60.14286423 4.59999990
v 14.23593712 57.42499924 4.59999990
v 14.23593712 59.38713455 4.59999990
v 14.23593712 60.28567505 4.59999990
v 14.93906212 57.42499924 4.59999990
v 14.93906212 59.53659058 4.59999990
v 14.93906212 60.43513107 4.59999990
v 12.52414608 59.02328110 5.00000000
v 12.86093712 57.42499924 5.00000000
v 12.86093712 59.09487152 5.00000000
v 12.86093712 59.99341202 5.00000000
v 13.56406212 57.42499924 5.00000000
v 13.56406212 59.24432373 5.00000000
v 13.56406212 60.14286423 5.00000000
v 14.23593712 57.42499924 5.00000000
v 14.23593712 59.38713455 5.00000000
v 14.23593712 60.28567505 5.00000000
v 14.93906212 57.42499924 5.00000000
v 14.93906212 59.53659058 5.00000000
v 14.93906212 60.43513107 5.00000000
v 12.52414608 61.49328232 4.59999990
v 12.86093712 61.56486893 4.59999990
v 12.86093712 62.46340942 4.59999990
v 12.86093712 64.57499695 4.59999990
v 13.56406212 61.71432495 4.59999990
v 13.56406212 62.61286545 4.59999990
v 13.56406212 64.57499695 4.59999990
v 14.23593712 61.85713577 4.59999990
v 14.23593712 62.75567627 4.59999990
v 14.23593712 64.57499695 4.59999990
v 14.93906212 62.00658798 4.59999990
v 14.93906212 62.90512848 4.59999990
v 14.93906212 64.57499695 4.59999990
v 12.52414608 61.49328232 5.00000000
v 12.86093712 61.56486893 5.00000000
v 12.86093712 62.46340942 5.00000000
v 12.86093712 64.57499695 5.00000000
v 13.56406212 61.71432495 5.00000000
v 13.56406212 62.61286545 5.00000000
v 13.56406212 64.57499695 5.00000000
v 14.23593712 61.85713577 5.00000000
v 14.23593712 62.75567627 5.00000000
v 14.23593712 64.57499695 5.00000000
v 14.93906212 62.00658798 5.00000000
v 14.93906212 62.90512848 5.00000000
v 14.93906212 64.57499695 5.00000000
v 15.49713802 48.25232697 5.00000000
v 15.49117374 48.25000000 5.00000000
v 15.59642887 48.29636383 5.00000000
v 15.02246857 50.49747849 5.00000000
v 15.12790203 50.51246262 5.00000000
v 15.23278713 50.52225876 5.00000000
v 15.33667564 50.52681732 5.00000000
v 15.43912315 50.52612305 5.00000000
v 15.53969002 50.52017975 5.00000000
v 15.69316673 48.34469604 5.00000000
v 15.78693581 48.39712143 5.00000000
v 15.87733459 48.45341110 5.00000000
v 15.96397781 48.51332855 5.00000000
v 16.04649162 48.57661438 5.00000000
v 16.12452507 48.64299774 5.00000000
v 16.19774437 48.71219254 5.00000000
v 16.22737312 50.29129791 5.00000000
v 15.63794518 50.50901413 5.00000000
v 15.73346901 50.49266815 5.00000000
v 15.82585239 50.47121429 5.00000000
v 15.91469860 50.44474411 5.00000000
v 15.99962807 50.41337585 5.00000000
v 16.08027840 50.37723541 5.00000000
v 16.15630150 50.33648682 5.00000000
v 15.49713802 48.25232697 5.50000000
v 15.49117374 48.25000000 5.50000000
v 15.59642887 48.29636383 5.50000000
v 15.02246857 50.49747849 5.50000000
v 15.12790203 50.51246262 5.50000000
v 15.23278713 50.52225876 5.50000000
v 15.33667564 50.52681732 5.50000000
v 15.43912315 50.52612305 5.50000000
v 15.53969002 50.52017975 5.50000000
v 15.69316673 48.34469604 5.50000000
v 15.78693581 48.39712143 5.50000000
v 15.87733459 48.45341110 5.50000000
v 15.96397781 48.51332855 5.50000000
v 16.04649162 48.57661438 5.50000000
v 16.12452507 48.64299774 5.50000000
v 16.19774437 48.71219254 5.50000000
v 16.22737312 50.29129791 5.50000000
v 15.63794518 50.50901413 5.50000000
v 15.73346901 50.49266815 5.50000000
v 15.82585239 50.47121429 5.50000000
v 15.91469860 50.44474411 5.50000000
v 15.99962807 50.41337585 5.50000000
v 16.08027840 50.37723541 5.50000000
v 16.15630150 50.33648682 5.50000000
v 16.26583290 48.78390503 5.00000000
v 16.32850075 48.85783005 5.00000000
v 16.38548088 48.93364716 5.00000000
v 16.43652725 49.01103210 5.00000000
v 16.48142242 49.08965302 5.00000000
v 16.51997566 49.16917801 5.00000000
v 16.29318810 50.24186325 5.00000000
v 16.35346603 50.18839645 5.00000000
v 16.55201721 49.24925995 5.00000000
v 16.40794945 50.13112259 5.00000000
v 16.45640373 50.07029343 5.00000000
v 16.49861908 50.00616455 5.00000000
v 16.53442001 49.93901062 5.00000000
v 16.57741547 49.32956314 5.00000000
v 16.59605789 49.40973663 5.00000000
v 16.60786438 49.48944092 5.00000000
v 16.61278725 49.56833649 5.00000000
v 16.61080360 49.64608002 5.00000000
v 16.60192299 49.72233963 5.00000000
v 16.56364822 49.86912155 5.00000000
v 16.58618164 49.79679489 5.00000000
v 16.26583290 48.78390503 5.50000000
v 16.32850075 48.85783005 5.50000000
v 16.38548088 48.93364716 5.50000000
v 16.43652725 49.01103210 5.50000000
v 16.48142242 49.08965302 5.50000000
v 16.51997566 49.16917801 5.50000000
v 16.29318810 50.24186325 5.50000000
v 16.35346603 50.18839645 5.50000000
v 16.55201721 49.24925995 5.50000000
v 16.40794945 50.13112259 5.50000000
v 16.45640373 50.07029343 5.50000000
v 16.49861908 50.00616455 5.50000000
v 16.53442001 49.93901062 5.50000000
v 16.57741547 49.32956314 5.50000000
v 16.59605789 49.40973663 5.50000000
v 16.60786438 49.48944092 5.50000000
v 16.61278725 49.56833649 5.50000000
v 16.61080360 49.64608002 5.50000000
v 16.60192299 49.72233963 5.50000000
v 16.56364822 49.86912155 5.50000000
v 16.58618164 49.79679489 5.50000000
v 19.79999924 35.17499924 4.59999990
v 19.79999924 37.42499924 4.59999990
v 19.79999924 37.77500153 4.59999990
v 19.79999924 40.02500153 4.59999990
v 19.79999924 40.37500000 4.59999990
v 17.60000038 42.54999924 5.00000000
v 17.60000038 43.04999924 5.00000000
v 17.60000038 42.54999924 5.50000000
v 17.60000038 43.04999924 5.50000000
v 19.39999962 35.17499924 5.00000000
v 19.39999962 37.42499924 5.00000000
v 19.39999962 37.77500153 5.00000000
v 19.39999962 40.02500153 5.00000000
v 19.39999962 40.37500000 5.00000000
v 17.60000038 45.15000153 5.00000000
v 17.60000038 45.65000153 5.00000000
v 17.60000038 47.75000000 5.00000000
v 17.60000038 45.15000153 5.50000000
v 17.60000038 45.65000153 5.50000000
v 17.60000038 47.75000000 5.50000000
v 17.60000038 48.25000000 5.00000000
v 17.60000038 48.25000000 5.50000000
v 15.27585411 60.50671768 4.59999990
v 15.45858860 59.64701843 4.59999990
v 15.27585411 60.50671768 5.00000000
v 15.45858860 59.64701843 5.00000000
v 15.27585411 62.97671890 4.59999990
v 15.45858860 62.11701584 4.59999990
v 15.27585411 62.97671890 5.00000000
v 15.45858860 62.11701584 5.00000000
v 19.39999962 70.00000000 4.40000010
v 20.00000000 69.40000153 4.40000010
v 19.39999962 69.40000153 5.00000000
f 1 3 2
f 2 3 5
f 1 2 315
f 2 4 316
f 1 513 3
f 1 315 512
f 2 5 4
f 4 5 6
f 4 6 7
f 6 23 7
f 7 12 8
f 7 13 12
f 7 23 13
f 8 12 28
f 4 7 328
f 8 24 9
f 10 26 11
f 9 20 10
f 9 25 19
f 15 16 14
f 14 32 15
f 9 19 20
f 10 20 52
f 8 28 24
f 24 25 9
f 11 26 27
f 10 52 26
f 24 48 25
f 26 55 27
f 23 29 13
f 23 33 30
f 23 30 29
f 24 28 31
f 24 31 47
f 32 30 33
f 15 32 35
f 35 32 33
f 25 50 19
f 24 47 48
f 25 48 51
f 25 51 50
f 49 47 31
f 36 49 31
f 26 52 55
f 27 55 56
f 27 56 95
f 27 95 96
f 65 18 17
f 65 66 18
f 17 37 65
f 21 70 22
f 21 69 70
f 22 70 91
f 11 27 243
f 71 72 73
f 94 71 73
f 67 113 68
f 74 127 75
f 74 106 127
f 65 37 78
f 37 34 78
f 34 76 78
f 22 91 54
f 38 90 53
f 38 79 90
f 54 95 56
f 91 95 54
f 71 94 93
f 105 92 83
f 94 109 93
f 68 147 81
f 81 147 82
f 82 144 103
f 103 162 105
f 136 103 139
f 135 103 137
f 103 135 164
f 103 164 162
f 137 103 136
f 92 105 163
f 27 96 277
f 174 107 92
f 106 107 174
f 92 163 165
f 92 165 166
f 92 166 167
f 92 167 168
f 92 168 169
f 163 105 162
f 92 169 170
f 92 170 171
f 92 171 172
f 92 172 173
f 92 173 174
f 3 515 5
f 5 515 6
f 6 517 23
f 23 517 33
f 67 114 113
f 67 115 114
f 67 116 115
f 67 118 117
f 67 117 116
f 67 119 118
f 147 68 113
f 11 243 406
f 127 128 75
f 75 128 129
f 75 129 130
f 75 130 131
f 75 131 132
f 75 132 133
f 75 133 134
f 75 134 242
f 75 242 276
f 82 145 144
f 139 103 138
f 138 103 140
f 140 103 141
f 141 103 142
f 82 146 145
f 147 146 82
f 142 103 143
f 143 103 144
f 75 276 108
f 106 174 175
f 106 175 176
f 106 176 177
f 106 177 178
f 106 178 179
f 106 179 180
f 106 180 217
f 106 217 218
f 27 277 243
f 277 96 93
f 277 93 109
f 108 277 109
f 106 221 127
f 106 218 219
f 106 219 220
f 106 220 222
f 106 222 221
f 108 276 277
f 517 34 33
f 517 76 34
f 517 77 76
f 242 134 235
f 242 235 236
f 242 236 237
f 242 237 240
f 242 240 238
f 242 238 239
f 239 241 242
f 239 271 241
f 518 67 80
f 518 119 67
f 244 248 245
f 244 247 248
f 244 286 247
f 245 248 307
f 246 251 416
f 246 288 251
f 241 271 275
f 271 272 275
f 275 272 273
f 275 273 274
f 283 285 284
f 523 80 77
f 245 307 287
f 286 306 247
f 285 306 286
f 306 285 305
f 251 288 311
f 311 288 287
f 307 311 287
f 2 316 315
f 315 316 317
f 316 329 317
f 315 317 529
f 317 329 529
f 4 328 316
f 318 323 319
f 320 325 321
f 7 8 328
f 319 339 320
f 319 324 338
f 321 341 322
f 321 326 340
f 322 341 327
f 319 323 324
f 325 326 321
f 320 354 325
f 325 350 326
f 8 9 328
f 9 10 328
f 10 11 328
f 11 318 328
f 318 319 328
f 319 320 328
f 320 321 328
f 321 322 328
f 322 327 328
f 11 406 318
f 319 338 339
f 320 339 354
f 321 340 341
f 318 428 323
f 323 428 324
f 324 353 338
f 325 351 350
f 324 352 353
f 325 354 351
f 324 428 352
f 326 364 340
f 327 341 365
f 327 363 362
f 326 350 356
f 326 356 364
f 327 365 363
f 327 362 368
f 327 505 333
f 316 328 329
f 327 330 328
f 327 333 330
f 328 330 329
f 331 333 503
f 331 503 332
f 332 503 334
f 331 332 337
f 331 337 333
f 332 334 337
f 334 509 335
f 335 509 336
f 334 335 337
f 335 336 337
f 330 333 337
f 318 406 428
f 342 345 343
f 342 375 344
f 342 344 345
f 343 345 380
f 349 347 346
f 346 387 348
f 346 348 349
f 349 394 347
f 354 355 351
f 365 366 363
f 367 368 362
f 428 374 352
f 343 380 376
f 375 374 378
f 376 381 377
f 428 378 374
f 375 379 344
f 375 378 379
f 380 381 376
f 394 388 347
f 393 387 386
f 388 395 389
f 390 397 391
f 348 387 393
f 393 386 392
f 394 395 388
f 390 396 397
f 327 368 670
f 391 495 368
f 327 841 505
f 407 410 408
f 407 409 410
f 407 430 409
f 408 410 434
f 414 423 415
f 414 447 422
f 246 416 411
f 411 416 462
f 412 419 413
f 418 419 412
f 412 438 418
f 465 413 419
f 414 422 423
f 415 423 424
f 415 424 425
f 415 425 426
f 415 426 427
f 427 474 415
f 378 428 429
f 433 429 428
f 408 434 431
f 430 433 409
f 430 429 433
f 431 435 432
f 434 435 431
f 432 435 440
f 466 436 432
f 466 432 440
f 447 446 450
f 448 451 449
f 448 415 474
f 447 450 473
f 448 474 451
f 473 450 436
f 451 480 454
f 452 653 453
f 452 454 653
f 462 437 411
f 437 464 438
f 462 464 437
f 465 439 413
f 418 438 464
f 465 440 439
f 465 466 440
f 468 470 469
f 468 532 470
f 468 533 532
f 447 473 422
f 466 473 436
f 474 475 451
f 476 451 475
f 451 476 477
f 451 477 478
f 451 478 479
f 451 479 480
f 454 480 481
f 454 481 482
f 454 482 558
f 454 558 559
f 454 559 560
f 454 560 561
f 454 561 653
f 391 397 653
f 453 653 397
f 368 495 497
f 368 497 498
f 368 498 499
f 391 654 495
f 327 670 841
f 368 499 670
f 391 653 654
f 665 666 497
f 666 498 497
f 669 670 499
f 334 503 504
f 334 504 507
f 503 505 504
f 333 505 503
f 505 506 504
f 334 507 508
f 334 508 509
f 507 510 508
f 336 509 825
f 329 330 999
f 508 510 511
f 330 337 825
f 336 825 337
f 504 819 507
f 504 506 815
f 504 815 819
f 505 817 506
f 506 817 815
f 505 818 817
f 508 821 509
f 508 511 820
f 507 819 823
f 508 820 821
f 509 821 825
f 507 823 510
f 510 823 511
f 511 823 824
f 511 824 820
f 1 512 513
f 3 513 515
f 512 514 513
f 513 514 515
f 512 528 514
f 6 515 517
f 518 120 119
f 518 121 120
f 518 122 121
f 518 123 122
f 518 124 123
f 518 125 124
f 518 126 125
f 524 200 126
f 524 201 200
f 524 202 201
f 524 203 202
f 524 253 203
f 524 254 253
f 524 255 254
f 524 256 255
f 524 257 256
f 524 258 257
f 524 259 258
f 524 260 259
f 524 261 260
f 524 278 261
f 524 279 278
f 524 280 279
f 524 281 280
f 524 282 281
f 524 283 282
f 524 285 283
f 524 305 285
f 517 523 77
f 521 250 249
f 520 249 309
f 522 252 312
f 526 310 250
f 524 308 305
f 525 309 308
f 527 312 310
f 518 80 523
f 514 516 515
f 515 516 517
f 516 523 517
f 514 1000 516
f 519 524 126
f 518 519 126
f 520 521 249
f 521 526 250
f 522 969 252
f 524 525 308
f 526 527 310
f 520 309 525
f 522 312 527
f 516 518 523
f 516 1000 518
f 519 520 525
f 521 522 527
f 519 525 524
f 521 527 526
f 315 528 512
f 315 529 528
f 514 528 530
f 514 530 1000
f 528 529 530
f 529 1000 530
f 468 534 533
f 468 535 534
f 468 536 535
f 562 653 561
f 563 653 562
f 564 653 563
f 565 653 564
f 566 653 565
f 567 653 566
f 568 653 567
f 569 653 568
f 569 625 653
f 570 625 569
f 598 625 570
f 599 624 598
f 600 624 599
f 601 624 600
f 602 624 601
f 603 624 602
f 607 624 603
f 608 624 607
f 609 624 608
f 598 624 625
f 610 624 609
f 618 624 610
f 619 624 618
f 622 624 619
f 653 625 655
f 655 657 658
f 655 658 656
f 667 673 674
f 667 674 668
f 671 675 676
f 671 676 672
f 625 690 655
f 690 657 655
f 691 689 657
f 689 703 697
f 691 657 690
f 691 692 689
f 689 692 703
f 705 703 692
f 698 704 699
f 698 702 704
f 703 766 702
f 702 766 704
f 969 417 252
f 971 421 420
f 970 420 467
f 718 722 719
f 719 722 720
f 721 720 722
f 721 722 723
f 721 723 734
f 972 717 531
f 972 718 717
f 972 531 617
f 978 463 417
f 979 467 463
f 980 468 421
f 980 536 468
f 980 537 536
f 980 538 537
f 980 539 538
f 980 540 539
f 980 541 540
f 980 542 541
f 726 721 734
f 623 735 622
f 620 735 623
f 621 735 620
f 729 735 621
f 726 734 727
f 734 728 727
f 734 731 728
f 734 733 731
f 730 735 729
f 732 735 730
f 733 735 732
f 624 622 735
f 734 735 733
f 980 543 542
f 980 544 543
f 980 584 544
f 980 585 584
f 980 586 585
f 980 587 586
f 980 588 587
f 980 589 588
f 980 590 589
f 980 604 590
f 980 605 604
f 980 606 605
f 980 611 606
f 980 612 611
f 980 613 612
f 980 614 613
f 980 615 614
f 980 616 615
f 980 617 616
f 757 690 625
f 736 757 625
f 759 692 691
f 758 759 691
f 703 705 764
f 703 764 766
f 763 764 705
f 767 704 766
f 768 704 767
f 769 704 768
f 770 704 769
f 771 704 770
f 704 795 706
f 772 704 771
f 789 704 772
f 790 704 789
f 765 766 764
f 791 704 790
f 792 704 791
f 793 704 792
f 794 704 793
f 795 704 794
f 329 999 529
f 815 817 819
f 816 818 827
f 841 670 672
f 505 840 818
f 505 841 842
f 505 842 840
f 817 823 819
f 841 672 676
f 841 676 701
f 841 701 700
f 841 700 706
f 818 840 827
f 817 818 866
f 820 824 821
f 822 826 853
f 330 825 1001
f 817 826 823
f 823 826 824
f 821 824 825
f 826 866 853
f 817 866 826
f 824 869 825
f 824 826 869
f 828 831 829
f 827 840 829
f 828 841 831
f 828 829 842
f 816 827 830
f 827 833 830
f 830 833 854
f 816 830 843
f 830 854 867
f 829 831 832
f 831 844 832
f 827 829 836
f 833 857 854
f 829 832 836
f 827 836 833
f 833 846 857
f 834 835 848
f 832 835 839
f 832 839 836
f 832 845 835
f 833 836 849
f 834 837 835
f 835 837 838
f 834 847 837
f 837 850 838
f 836 839 860
f 835 838 839
f 839 852 863
f 841 706 795
f 828 842 841
f 816 843 818
f 829 840 842
f 830 867 843
f 818 843 866
f 843 867 866
f 831 841 844
f 832 844 845
f 846 870 857
f 841 795 796
f 841 796 797
f 841 797 798
f 841 798 799
f 841 799 800
f 841 800 801
f 841 801 882
f 841 882 883
f 841 887 844
f 841 883 884
f 841 884 885
f 841 885 886
f 841 886 887
f 844 887 896
f 844 896 897
f 844 900 847
f 834 848 847
f 844 848 845
f 844 847 848
f 845 848 835
f 833 849 846
f 836 873 849
f 846 873 870
f 846 849 873
f 837 847 850
f 838 850 851
f 822 853 855
f 853 854 855
f 854 858 855
f 855 858 856
f 853 866 854
f 822 855 868
f 855 856 869
f 854 857 861
f 854 861 858
f 858 871 859
f 856 858 859
f 856 859 872
f 330 1001 999
f 857 860 861
f 857 870 860
f 858 861 874
f 836 860 873
f 861 862 875
f 839 861 860
f 861 864 862
f 839 863 861
f 861 863 864
f 862 864 865
f 864 877 865
f 862 865 878
f 854 866 867
f 822 868 826
f 855 869 868
f 826 868 869
f 856 872 869
f 825 869 872
f 825 872 875
f 859 871 872
f 825 875 878
f 870 873 860
f 858 874 871
f 861 875 874
f 871 874 875
f 871 875 872
f 852 876 863
f 862 878 875
f 865 877 878
f 972 722 718
f 972 724 722
f 973 725 724
f 969 978 417
f 970 971 420
f 971 980 421
f 978 979 463
f 751 974 752
f 982 751 725
f 970 467 979
f 980 981 617
f 972 617 981
f 982 974 751
f 753 975 783
f 984 785 784
f 989 879 880
f 989 881 879
f 850 938 939
f 983 783 975
f 984 985 785
f 989 888 881
f 989 889 888
f 989 890 889
f 989 891 890
f 989 892 891
f 989 893 892
f 989 894 893
f 989 927 894
f 989 928 927
f 989 929 928
f 989 930 929
f 989 931 930
f 989 932 931
f 850 939 989
f 989 935 932
f 989 940 935
f 989 941 940
f 989 942 941
f 989 943 942
f 989 944 943
f 989 945 944
f 989 939 946
f 989 947 945
f 989 946 947
f 982 994 989
f 972 973 724
f 973 982 725
f 969 970 979
f 971 972 981
f 518 1000 519
f 982 975 974
f 982 983 975
f 982 984 983
f 969 979 978
f 971 981 980
f 519 1000 520
f 520 1000 521
f 521 1000 522
f 522 1000 969
f 969 1000 970
f 970 1000 971
f 971 1000 972
f 972 1000 973
f 982 985 984
f 982 989 985
f 973 1001 982
f 529 999 1000
f 838 992 991
f 838 991 839
f 838 851 992
f 839 991 993
f 991 992 994
f 844 897 898
f 844 898 899
f 844 899 900
f 847 900 901
f 847 901 902
f 847 902 895
f 847 895 933
f 847 938 850
f 847 933 934
f 847 934 936
f 847 936 937
f 847 937 938
f 850 989 994
f 850 994 851
f 851 994 992
f 839 993 852
f 991 994 993
f 852 993 876
f 993 994 998
f 982 998 994
f 863 995 864
f 863 996 995
f 863 876 996
f 864 995 997
f 995 996 998
f 876 998 996
f 864 997 877
f 995 998 997
f 876 993 998
f 825 878 1001
f 877 997 1001
f 997 998 1001
f 877 1001 878
f 973 1000 1001
f 982 1001 998
f 999 1001 1000
f 28 12 13
f 14 16 32
f 17 18 37
f 19 52 20
f 22 54 21
f 40 13 29
f 40 28 13
f 43 16 15
f 43 32 16
f 43 15 35
f 45 37 18
f 39 29 30
f 40 31 28
f 43 30 32
f 40 36 31
f 39 40 29
f 39 30 43
f 40 44 36
f 39 44 40
f 42 33 34
f 41 33 42
f 43 35 33
f 45 34 37
f 41 43 33
f 41 42 43
f 39 46 44
f 42 34 45
f 43 42 45
f 39 43 87
f 39 87 46
f 19 50 52
f 62 21 54
f 57 48 47
f 58 51 48
f 57 47 59
f 57 58 48
f 58 60 51
f 57 60 58
f 44 49 36
f 59 47 49
f 60 50 51
f 60 52 50
f 61 38 53
f 44 59 49
f 44 46 59
f 57 59 60
f 59 62 60
f 46 38 61
f 46 61 59
f 59 61 62
f 60 55 52
f 63 56 55
f 64 54 56
f 60 63 55
f 60 62 63
f 62 54 64
f 62 64 63
f 63 64 56
f 80 67 68
f 91 70 69
f 71 93 72
f 94 73 72
f 74 75 106
f 86 18 66
f 86 66 65
f 80 68 81
f 86 65 78
f 45 18 86
f 46 79 38
f 43 45 87
f 46 87 79
f 45 86 87
f 85 76 77
f 84 76 85
f 84 78 76
f 88 77 80
f 88 80 81
f 88 81 82
f 89 105 83
f 84 86 78
f 84 85 86
f 86 85 88
f 86 88 89
f 85 77 88
f 88 82 104
f 88 110 89
f 62 69 21
f 98 91 69
f 100 72 93
f 100 94 72
f 97 53 90
f 62 98 69
f 61 53 97
f 61 97 62
f 62 97 99
f 62 99 98
f 87 90 79
f 89 83 92
f 100 109 94
f 87 97 90
f 86 99 87
f 87 99 97
f 86 89 99
f 98 99 100
f 89 92 99
f 99 92 111
f 99 112 100
f 98 95 91
f 101 96 95
f 102 93 96
f 98 101 95
f 98 100 101
f 101 100 102
f 101 102 96
f 100 93 102
f 104 82 103
f 110 103 105
f 89 110 105
f 104 103 110
f 88 104 110
f 111 75 108
f 111 106 75
f 111 92 107
f 111 107 106
f 112 108 109
f 100 112 109
f 111 108 112
f 99 111 112
f 147 113 114
f 161 114 115
f 204 115 116
f 160 147 114
f 150 135 137
f 149 137 136
f 151 139 138
f 152 136 139
f 153 138 140
f 150 148 135
f 149 150 137
f 149 136 152
f 152 139 151
f 151 138 153
f 153 140 154
f 150 183 148
f 149 152 150
f 152 151 153
f 152 153 150
f 150 153 157
f 150 157 187
f 154 140 141
f 155 141 142
f 156 142 143
f 158 144 145
f 157 143 144
f 159 145 146
f 160 146 147
f 160 114 161
f 161 115 204
f 154 141 155
f 156 155 142
f 157 144 158
f 156 143 157
f 153 154 155
f 153 155 157
f 156 157 155
f 157 158 159
f 158 145 159
f 159 146 160
f 157 159 161
f 159 160 161
f 157 161 207
f 187 157 215
f 181 163 162
f 182 165 163
f 148 164 135
f 183 162 164
f 184 166 165
f 185 167 166
f 186 168 167
f 187 169 168
f 188 170 169
f 189 171 170
f 190 172 171
f 182 163 181
f 182 184 165
f 148 183 164
f 183 181 162
f 184 185 166
f 185 186 167
f 186 187 168
f 187 188 169
f 188 189 170
f 189 190 171
f 190 191 172
f 150 182 183
f 182 181 183
f 150 187 182
f 182 185 184
f 182 187 185
f 185 187 186
f 187 189 188
f 187 191 189
f 189 191 190
f 191 173 172
f 192 174 173
f 193 175 174
f 194 176 175
f 195 177 176
f 196 178 177
f 197 179 178
f 198 180 179
f 199 217 180
f 191 192 173
f 192 193 174
f 193 194 175
f 187 195 191
f 191 193 192
f 191 195 193
f 193 195 194
f 194 195 176
f 195 196 177
f 187 226 195
f 196 197 178
f 197 198 179
f 198 199 180
f 195 197 196
f 195 199 197
f 197 199 198
f 195 226 199
f 205 116 117
f 206 117 118
f 207 118 119
f 208 119 120
f 209 120 121
f 210 121 122
f 211 122 123
f 212 123 124
f 213 124 125
f 213 125 126
f 213 126 200
f 204 116 205
f 205 117 206
f 206 118 207
f 207 119 208
f 208 120 209
f 209 121 210
f 161 204 205
f 161 205 207
f 205 206 207
f 157 207 215
f 207 208 209
f 207 209 211
f 209 210 211
f 210 122 211
f 211 123 212
f 212 124 213
f 214 200 201
f 215 201 202
f 216 202 203
f 207 211 215
f 211 212 213
f 211 213 215
f 213 200 214
f 214 201 215
f 215 202 216
f 213 214 215
f 215 216 262
f 228 128 127
f 228 129 128
f 228 127 221
f 229 130 129
f 230 131 130
f 231 132 131
f 232 133 132
f 233 134 133
f 234 235 134
f 223 218 217
f 224 219 218
f 225 220 219
f 226 222 220
f 227 221 222
f 199 223 217
f 223 224 218
f 224 225 219
f 199 224 223
f 199 226 224
f 224 226 225
f 225 226 220
f 226 227 222
f 227 228 221
f 226 228 227
f 187 296 226
f 226 230 228
f 228 229 129
f 229 230 130
f 230 231 131
f 231 232 132
f 232 233 133
f 233 234 134
f 187 215 296
f 228 230 229
f 226 234 230
f 230 232 231
f 230 234 232
f 232 234 233
f 226 296 234
f 239 238 271
f 241 276 242
f 286 244 245
f 246 411 288
f 247 307 248
f 309 249 250
f 252 417 312
f 262 203 253
f 263 253 254
f 264 254 255
f 265 255 256
f 266 256 257
f 267 257 258
f 268 258 259
f 216 203 262
f 262 253 263
f 263 254 264
f 215 262 264
f 262 263 264
f 215 264 268
f 264 255 265
f 265 256 266
f 266 257 267
f 267 258 268
f 264 265 266
f 264 266 268
f 266 267 268
f 269 259 260
f 270 260 261
f 268 259 269
f 269 260 270
f 270 261 297
f 268 269 270
f 268 270 298
f 289 236 235
f 290 237 236
f 291 240 237
f 241 275 276
f 293 238 240
f 292 271 238
f 243 277 428
f 286 245 287
f 234 289 235
f 289 290 236
f 290 291 237
f 291 293 240
f 292 272 271
f 293 292 238
f 294 273 272
f 295 274 273
f 296 275 274
f 296 276 275
f 234 290 289
f 234 293 290
f 234 296 293
f 290 293 291
f 215 268 296
f 292 294 272
f 294 295 273
f 295 296 274
f 293 294 292
f 293 296 294
f 294 296 295
f 296 277 276
f 296 428 277
f 297 261 278
f 298 278 279
f 299 279 280
f 300 280 281
f 301 281 282
f 302 282 283
f 303 283 284
f 304 284 285
f 304 285 286
f 304 286 287
f 297 278 298
f 298 279 299
f 270 297 298
f 298 299 300
f 299 280 300
f 300 281 301
f 301 282 302
f 302 283 303
f 303 284 304
f 298 300 302
f 300 301 302
f 304 287 288
f 304 288 437
f 268 298 445
f 268 445 296
f 298 302 445
f 302 303 445
f 303 304 445
f 247 306 307
f 309 250 310
f 251 311 462
f 313 306 305
f 313 307 306
f 314 305 308
f 314 308 309
f 314 309 310
f 313 305 314
f 313 311 307
f 313 462 311
f 313 464 462
f 314 310 312
f 313 314 471
f 338 354 339
f 341 340 365
f 375 342 343
f 344 380 345
f 347 387 346
f 348 394 349
f 338 353 354
f 357 350 358
f 358 350 351
f 357 356 350
f 360 351 355
f 359 353 352
f 359 354 353
f 360 355 354
f 358 351 360
f 357 361 356
f 357 358 360
f 357 360 361
f 359 360 354
f 359 352 382
f 359 382 360
f 360 398 361
f 371 340 364
f 371 365 340
f 369 362 370
f 370 362 363
f 369 367 362
f 371 363 366
f 361 364 356
f 371 366 365
f 370 363 371
f 369 372 367
f 369 370 372
f 370 371 372
f 361 371 364
f 361 398 371
f 371 400 372
f 372 368 367
f 373 391 368
f 372 373 368
f 372 400 373
f 375 343 376
f 344 379 380
f 382 352 374
f 382 374 375
f 382 375 376
f 383 376 377
f 382 376 383
f 382 383 360
f 360 383 402
f 360 402 398
f 383 377 385
f 384 379 378
f 384 380 379
f 384 381 380
f 385 377 381
f 441 378 429
f 384 385 381
f 383 385 455
f 383 455 402
f 384 378 441
f 384 441 385
f 441 442 385
f 385 442 455
f 388 387 347
f 348 393 394
f 398 386 387
f 399 387 388
f 399 388 389
f 398 392 386
f 400 396 390
f 398 387 399
f 398 399 371
f 371 399 404
f 371 404 400
f 399 389 403
f 401 390 391
f 400 390 401
f 400 401 373
f 373 401 391
f 402 393 392
f 402 394 393
f 403 389 395
f 403 395 394
f 398 402 392
f 402 403 394
f 400 404 396
f 399 403 404
f 402 455 403
f 455 404 403
f 455 456 404
f 404 456 459
f 404 397 396
f 405 453 397
f 404 405 397
f 404 459 405
f 459 460 405
f 405 460 453
f 406 243 428
f 430 407 408
f 409 434 410
f 438 412 413
f 414 415 447
f 416 251 462
f 418 465 419
f 467 420 421
f 427 426 474
f 430 408 431
f 409 433 434
f 288 411 437
f 438 413 439
f 443 433 428
f 296 443 428
f 441 429 430
f 441 430 431
f 442 431 432
f 443 434 433
f 444 432 436
f 443 435 434
f 441 431 442
f 442 432 444
f 444 436 457
f 442 444 457
f 445 437 438
f 296 445 443
f 304 437 445
f 443 440 435
f 445 438 439
f 445 439 440
f 443 445 440
f 455 447 415
f 455 415 448
f 455 446 447
f 455 450 446
f 456 448 449
f 457 436 450
f 458 449 451
f 461 451 454
f 455 448 456
f 455 457 450
f 442 457 455
f 456 449 458
f 456 461 459
f 458 451 461
f 456 458 461
f 460 452 453
f 459 454 452
f 459 452 460
f 459 461 454
f 417 463 312
f 418 464 465
f 467 421 468
f 471 312 463
f 313 483 464
f 313 484 483
f 313 485 484
f 313 471 485
f 314 312 471
f 483 465 464
f 483 466 465
f 471 463 467
f 471 467 468
f 471 468 469
f 472 469 470
f 545 470 532
f 471 469 472
f 472 470 545
f 471 472 545
f 483 423 422
f 483 424 423
f 484 425 424
f 485 426 425
f 483 422 473
f 486 474 426
f 483 473 466
f 486 475 474
f 483 484 424
f 484 485 425
f 485 486 426
f 487 476 475
f 488 477 476
f 489 478 477
f 490 479 478
f 491 480 479
f 492 481 480
f 493 482 481
f 494 558 482
f 486 487 475
f 487 488 476
f 485 487 486
f 485 489 487
f 488 489 477
f 489 490 478
f 487 489 488
f 485 493 489
f 489 491 490
f 490 491 479
f 491 492 480
f 492 493 481
f 493 494 482
f 489 493 491
f 491 493 492
f 493 571 494
f 485 577 493
f 496 497 495
f 660 495 654
f 496 495 660
f 500 496 660
f 501 499 498
f 500 665 497
f 678 498 666
f 500 497 496
f 502 499 501
f 500 677 665
f 500 660 677
f 501 498 678
f 502 501 681
f 501 678 681
f 502 669 499
f 502 681 669
f 546 532 533
f 547 533 534
f 548 534 535
f 549 535 536
f 550 536 537
f 551 537 538
f 545 532 546
f 546 533 547
f 547 534 548
f 548 535 549
f 471 545 547
f 545 546 547
f 471 547 551
f 547 548 549
f 549 536 550
f 550 537 551
f 551 538 552
f 547 549 551
f 549 550 551
f 471 551 592
f 552 538 539
f 553 539 540
f 554 540 541
f 555 541 542
f 556 542 543
f 557 543 544
f 552 539 553
f 553 540 554
f 554 541 555
f 551 552 553
f 551 553 555
f 553 554 555
f 555 542 556
f 556 543 557
f 557 544 591
f 551 555 592
f 555 556 557
f 555 557 592
f 571 559 558
f 572 560 559
f 573 561 560
f 574 562 561
f 575 563 562
f 576 564 563
f 485 471 592
f 494 571 558
f 571 572 559
f 572 573 560
f 573 574 561
f 493 573 571
f 571 573 572
f 493 577 573
f 573 575 574
f 574 575 562
f 575 576 563
f 576 577 564
f 573 577 575
f 575 577 576
f 577 565 564
f 578 566 565
f 579 567 566
f 580 568 567
f 581 569 568
f 582 570 569
f 577 578 565
f 578 579 566
f 579 580 567
f 485 638 577
f 577 579 578
f 577 581 579
f 579 581 580
f 485 592 638
f 580 581 568
f 581 582 569
f 582 583 570
f 577 627 581
f 581 583 582
f 581 627 583
f 591 544 584
f 592 584 585
f 593 585 586
f 594 586 587
f 595 587 588
f 596 588 589
f 597 589 590
f 591 584 592
f 592 585 593
f 593 586 594
f 557 591 592
f 592 593 594
f 594 587 595
f 595 588 596
f 596 589 597
f 592 594 596
f 594 595 596
f 592 596 634
f 597 590 632
f 596 597 632
f 583 598 570
f 626 599 598
f 627 600 599
f 628 601 600
f 629 602 601
f 630 603 602
f 631 607 603
f 583 626 598
f 626 627 599
f 627 628 600
f 583 627 626
f 577 638 627
f 627 629 628
f 628 629 601
f 629 630 602
f 630 631 603
f 627 631 629
f 629 631 630
f 627 638 631
f 632 590 604
f 633 604 605
f 634 605 606
f 639 606 611
f 635 608 607
f 636 609 608
f 637 610 609
f 638 618 610
f 640 611 612
f 641 612 613
f 642 613 614
f 643 614 615
f 644 615 616
f 737 616 617
f 645 619 618
f 646 622 619
f 650 620 623
f 647 621 620
f 649 623 622
f 632 604 633
f 633 605 634
f 634 606 639
f 596 632 634
f 592 634 738
f 632 633 634
f 592 738 638
f 631 635 607
f 636 608 635
f 636 637 609
f 637 638 610
f 631 636 635
f 631 638 636
f 636 638 637
f 639 611 640
f 640 612 641
f 641 613 642
f 642 614 643
f 643 615 644
f 644 616 737
f 634 639 640
f 634 640 642
f 640 641 642
f 634 642 738
f 642 643 644
f 642 644 738
f 638 645 618
f 645 646 619
f 646 649 622
f 650 647 620
f 648 621 647
f 649 650 623
f 638 646 645
f 638 650 646
f 744 650 638
f 738 744 638
f 648 647 650
f 648 650 744
f 646 650 649
f 651 625 624
f 651 652 625
f 659 654 653
f 661 653 655
f 662 655 656
f 659 653 661
f 659 661 660
f 659 660 654
f 661 655 662
f 661 662 660
f 664 656 658
f 663 658 657
f 662 656 664
f 663 664 658
f 677 666 665
f 680 667 668
f 660 679 677
f 677 679 678
f 677 678 666
f 678 683 681
f 679 667 680
f 660 662 685
f 660 685 679
f 679 680 678
f 678 680 687
f 681 670 669
f 682 672 670
f 684 671 672
f 681 683 682
f 681 682 670
f 683 671 684
f 678 687 683
f 682 684 672
f 683 684 682
f 679 673 667
f 686 668 674
f 685 674 673
f 679 685 673
f 680 668 686
f 680 686 687
f 662 664 708
f 662 708 685
f 685 686 674
f 683 675 671
f 687 676 675
f 683 687 675
f 687 688 676
f 693 657 689
f 707 689 697
f 663 657 693
f 663 693 664
f 693 707 664
f 693 689 707
f 694 691 690
f 694 695 691
f 696 705 692
f 696 715 705
f 708 702 698
f 709 698 699
f 685 708 686
f 664 707 708
f 708 687 686
f 708 709 687
f 707 697 713
f 708 712 702
f 707 712 708
f 707 713 712
f 708 698 709
f 709 699 714
f 688 701 676
f 710 706 700
f 711 700 701
f 687 710 688
f 687 709 710
f 688 711 701
f 710 711 688
f 710 700 711
f 710 716 706
f 709 716 710
f 709 714 716
f 713 697 703
f 712 703 702
f 714 699 704
f 713 703 712
f 716 704 706
f 714 704 716
f 531 717 617
f 723 722 734
f 751 724 725
f 738 717 718
f 739 718 719
f 740 719 720
f 740 720 721
f 737 617 717
f 740 721 726
f 754 722 724
f 748 734 722
f 741 726 727
f 742 727 728
f 737 717 738
f 738 718 739
f 739 719 740
f 648 729 621
f 743 730 729
f 744 732 730
f 745 728 731
f 747 731 733
f 746 733 732
f 740 726 741
f 741 727 742
f 644 737 738
f 738 739 740
f 738 742 744
f 738 740 742
f 740 741 742
f 648 743 729
f 743 744 730
f 742 728 745
f 745 731 747
f 746 747 733
f 746 732 744
f 648 744 743
f 742 745 747
f 744 742 747
f 746 744 747
f 652 736 625
f 749 624 735
f 651 624 749
f 651 750 652
f 652 750 736
f 651 749 750
f 748 735 734
f 748 722 754
f 748 754 749
f 748 749 735
f 749 754 755
f 749 755 750
f 750 755 760
f 754 724 751
f 754 751 755
f 755 751 752
f 695 758 691
f 760 690 757
f 694 690 760
f 694 761 695
f 695 761 758
f 694 760 761
f 762 692 759
f 696 692 762
f 696 773 715
f 696 762 773
f 750 757 736
f 750 760 757
f 760 755 761
f 761 755 756
f 761 759 758
f 761 762 759
f 761 756 780
f 761 780 762
f 715 763 705
f 715 773 763
f 773 764 763
f 774 765 764
f 775 766 765
f 776 767 766
f 777 768 767
f 778 769 768
f 779 770 769
f 780 771 770
f 781 772 771
f 773 774 764
f 773 775 774
f 773 776 775
f 774 775 765
f 762 780 773
f 773 780 776
f 775 776 766
f 776 777 767
f 777 778 768
f 778 779 769
f 779 780 770
f 780 781 771
f 781 782 772
f 776 778 777
f 776 780 778
f 778 780 779
f 780 782 781
f 780 803 782
f 786 753 783
f 756 753 786
f 788 784 785
f 787 784 788
f 756 786 780
f 786 787 780
f 787 788 780
f 782 789 772
f 802 790 789
f 803 791 790
f 804 792 791
f 805 793 792
f 806 794 793
f 807 795 794
f 808 796 795
f 782 802 789
f 802 803 790
f 803 804 791
f 804 805 792
f 782 803 802
f 780 807 803
f 803 805 804
f 803 807 805
f 805 806 793
f 806 807 794
f 807 808 795
f 808 809 796
f 805 807 806
f 780 906 807
f 807 809 808
f 788 957 780
f 807 811 809
f 809 797 796
f 810 798 797
f 811 799 798
f 812 800 799
f 813 801 800
f 814 882 801
f 809 810 797
f 810 811 798
f 811 812 799
f 809 811 810
f 807 906 811
f 812 813 800
f 813 814 801
f 814 906 882
f 811 813 812
f 811 906 813
f 813 906 814
f 756 975 753
f 755 752 976
f 755 977 756
f 976 752 974
f 756 977 975
f 755 976 977
f 787 984 784
f 786 783 986
f 786 987 787
f 788 785 988
f 788 990 904
f 903 880 879
f 905 879 881
f 788 904 913
f 780 957 906
f 903 904 880
f 903 879 905
f 788 913 950
f 903 905 904
f 904 905 913
f 788 950 957
f 906 883 882
f 907 884 883
f 908 885 884
f 909 886 885
f 910 887 886
f 911 896 887
f 906 907 883
f 907 908 884
f 908 909 885
f 906 908 907
f 906 910 908
f 909 910 886
f 910 911 887
f 911 920 896
f 908 910 909
f 906 922 910
f 910 920 911
f 912 881 888
f 913 888 889
f 914 889 890
f 915 890 891
f 916 891 892
f 917 892 893
f 904 989 880
f 918 893 894
f 948 894 927
f 919 933 895
f 905 881 912
f 912 888 913
f 913 889 914
f 914 890 915
f 905 912 913
f 913 914 915
f 915 891 916
f 916 892 917
f 917 893 918
f 918 894 948
f 913 915 917
f 915 916 917
f 913 917 950
f 917 918 948
f 926 919 895
f 954 919 926
f 920 897 896
f 921 898 897
f 922 899 898
f 923 900 899
f 924 901 900
f 925 902 901
f 926 895 902
f 920 921 897
f 922 898 921
f 922 923 899
f 910 922 920
f 920 922 921
f 906 957 922
f 922 924 923
f 923 924 900
f 924 925 901
f 925 926 902
f 922 926 924
f 924 926 925
f 922 957 926
f 986 783 983
f 787 987 984
f 786 986 987
f 988 785 985
f 788 988 990
f 949 927 928
f 950 928 929
f 951 929 930
f 952 930 931
f 953 931 932
f 954 934 933
f 955 936 934
f 956 932 935
f 957 937 936
f 958 938 937
f 959 939 938
f 960 946 939
f 961 935 940
f 962 940 941
f 963 941 942
f 964 942 943
f 965 943 944
f 966 944 945
f 967 947 946
f 968 945 947
f 948 927 949
f 949 928 950
f 950 929 951
f 951 930 952
f 952 931 953
f 953 932 956
f 917 948 950
f 948 949 950
f 950 951 952
f 950 952 956
f 952 953 956
f 954 933 919
f 954 955 934
f 955 957 936
f 956 935 961
f 958 937 957
f 958 959 938
f 959 960 939
f 967 946 960
f 954 926 957
f 954 957 955
f 950 964 957
f 950 956 964
f 958 957 959
f 967 959 957
f 967 957 964
f 967 960 959
f 961 940 962
f 962 941 963
f 968 966 945
f 963 942 964
f 964 943 965
f 965 944 966
f 968 947 967
f 956 961 962
f 956 962 964
f 962 963 964
f 967 964 966
f 964 965 966
f 968 967 966
f 904 990 989
f 977 974 975
f 976 974 977
f 987 983 984
f 986 983 987
f 990 985 989
f 988 985 990

