# https://github.com/mikedh/trimesh
v 0.60000002 0.60000002 0.00000000
v 0.00000000 0.60000002 0.60000002
v 0.60000002 0.00000000 0.60000002
v 0.00000000 0.60000002 4.40000010
v 0.60000002 0.00000000 4.40000010
v 0.60000002 0.60000002 5.00000000
v 0.19999985 29.62500000 4.59999990
v 0.19999985 29.97500038 4.59999990
v 0.19999985 32.22499847 4.59999990
v 0.19999985 32.57500076 4.59999990
v 0.19999985 34.82500076 4.59999990
v 0.60000002 29.62500000 5.00000000
v 0.60000002 29.97500038 5.00000000
v 0.60000002 32.22499847 5.00000000
v 0.60000002 32.57500076 5.00000000
v 0.60000002 34.82500076 5.00000000
v 4.40000010 26.95000076 5.00000000
v 4.40000010 27.45000076 5.00000000
v 4.40000010 26.95000076 5.50000000
v 4.40000010 27.45000076 5.50000000
v 5.54359722 25.12970734 5.00000000
v 5.59205055 25.06887627 5.00000000
v 5.38919592 25.55392075 5.00000000
v 5.38721228 25.63166428 5.00000000
v 5.41381836 25.40320396 5.00000000
v 5.46558046 25.26098824 5.00000000
v 5.43635130 25.33087921 5.00000000
v 5.39807701 25.47765923 5.00000000
v 5.39213514 25.71055794 5.00000000
v 5.40394258 25.79026222 5.00000000
v 5.42258501 25.87043762 5.00000000
v 5.44798183 25.95073891 5.00000000
v 5.50137997 25.19383621 5.00000000
v 5.48002481 26.03082275 5.00000000
v 5.51857662 26.11034584 5.00000000
v 5.56347227 26.18896866 5.00000000
v 5.64653349 25.01160431 5.00000000
v 5.70681143 24.95813751 5.00000000
v 5.77262735 24.90870285 5.00000000
v 5.84369946 24.86351395 5.00000000
v 5.91972256 24.82276344 5.00000000
v 6.00037146 24.78662491 5.00000000
v 6.08530140 24.75525475 5.00000000
v 6.17414808 24.72878647 5.00000000
v 5.54359722 25.12970734 5.50000000
v 5.59205055 25.06887627 5.50000000
v 5.38919592 25.55392075 5.50000000
v 5.38721228 25.63166428 5.50000000
v 5.41381836 25.40320396 5.50000000
v 5.46558046 25.26098824 5.50000000
v 5.43635130 25.33087921 5.50000000
v 5.39807701 25.47765923 5.50000000
v 5.39213514 25.71055794 5.50000000
v 5.40394258 25.79026222 5.50000000
v 5.42258501 25.87043762 5.50000000
v 5.44798183 25.95073891 5.50000000
v 5.50137997 25.19383621 5.50000000
v 5.48002481 26.03082275 5.50000000
v 5.51857662 26.11034584 5.50000000
v 5.56347227 26.18896866 5.50000000
v 5.64653349 25.01160431 5.50000000
v 5.70681143 24.95813751 5.50000000
v 5.77262735 24.90870285 5.50000000
v 5.84369946 24.86351395 5.50000000
v 5.91972256 24.82276344 5.50000000
v 6.00037146 24.78662491 5.50000000
v 6.08530140 24.75525475 5.50000000
v 6.17414808 24.72878647 5.50000000
v 6.26653099 24.70733261 5.00000000
v 6.36205482 24.69098854 5.00000000
v 6.46031046 24.67981911 5.00000000
v 6.56087685 24.67387581 5.00000000
v 6.66332388 24.67318153 5.00000000
v 6.76721287 24.67774200 5.00000000
v 6.87209845 24.68753624 5.00000000
v 6.97753143 24.70252228 5.00000000
v 7.08306122 24.72263718 5.00000000
v 7.18823481 24.74779129 5.00000000
v 7.29260254 24.77788162 5.00000000
v 7.39571714 24.81277657 5.00000000
v 7.49713755 24.85232544 5.00000000
v 6.26653099 24.70733261 5.50000000
v 6.36205482 24.69098854 5.50000000
v 6.46031046 24.67981911 5.50000000
v 6.56087685 24.67387581 5.50000000
v 6.66332388 24.67318153 5.50000000
v 6.76721287 24.67774200 5.50000000
v 6.87209845 24.68753624 5.50000000
v 6.97753143 24.70252228 5.50000000
v 7.08306122 24.72263718 5.50000000
v 7.18823481 24.74779129 5.50000000
v 7.29260254 24.77788162 5.50000000
v 7.39571714 24.81277657 5.50000000
v 7.49713755 24.85232544 5.50000000
v 5.61451912 26.26635361 5.00000000
v 5.67149878 26.34217072 5.00000000
v 5.73416758 26.41609383 5.00000000
v 5.80225658 26.48780632 5.00000000
v 5.87547445 26.55700302 5.00000000
v 5.95350790 26.62338638 5.00000000
v 6.03602266 26.68667030 5.00000000
v 6.12266493 26.74658775 5.00000000
v 6.21306419 26.80287933 5.00000000
v 5.61451912 26.26635361 5.50000000
v 5.67149878 26.34217072 5.50000000
v 5.73416758 26.41609383 5.50000000
v 5.80225658 26.48780632 5.50000000
v 5.87547445 26.55700302 5.50000000
v 5.95350790 26.62338638 5.50000000
v 6.03602266 26.68667030 5.50000000
v 6.12266493 26.74658775 5.50000000
v 6.21306419 26.80287933 5.50000000
v 6.30683374 26.85530281 5.00000000
v 6.40357113 26.90363693 5.00000000
v 6.50286245 26.94767380 5.00000000
v 6.50882673 26.95000076 5.00000000
v 6.30683374 26.85530281 5.50000000
v 6.40357113 26.90363693 5.50000000
v 6.50286245 26.94767380 5.50000000
v 6.50882673 26.95000076 5.50000000
v 7.59642887 24.89636230 5.00000000
v 7.69316626 24.94469643 5.00000000
v 7.78693581 24.99712181 5.00000000
v 7.87733507 25.05341339 5.00000000
v 7.96397734 25.11332893 5.00000000
v 8.04649258 25.17661476 5.00000000
v 8.12452507 25.24299622 5.00000000
v 8.19774342 25.31219292 5.00000000
v 8.26583290 25.38390541 5.00000000
v 8.32850075 25.45782852 5.00000000
v 8.38548088 25.53364563 5.00000000
v 8.43652821 25.61103058 5.00000000
v 8.48142338 25.68965340 5.00000000
v 8.51997471 25.76917839 5.00000000
v 8.55201817 25.84926224 5.00000000
v 8.56806564 25.89999962 5.00000000
v 8.61294460 25.89999962 5.00000000
v 7.59642887 24.89636230 5.50000000
v 7.69316626 24.94469643 5.50000000
v 7.78693581 24.99712181 5.50000000
v 7.87733507 25.05341339 5.50000000
v 7.96397734 25.11332893 5.50000000
v 8.04649258 25.17661476 5.50000000
v 8.12452507 25.24299622 5.50000000
v 8.19774342 25.31219292 5.50000000
v 8.26583290 25.38390541 5.50000000
v 8.32850075 25.45782852 5.50000000
v 8.38548088 25.53364563 5.50000000
v 8.43652821 25.61103058 5.50000000
v 8.48142338 25.68965340 5.50000000
v 8.51997471 25.76917839 5.50000000
v 8.55201817 25.84926224 5.50000000
v 8.56806564 25.89999962 5.50000000
v 8.61294460 25.89999962 5.50000000
v 8.11294460 29.62500000 4.59999990
v 8.11294460 29.97500038 4.59999990
v 8.61294460 29.62500000 4.59999990
v 8.61294460 29.97500038 4.59999990
v 8.11294460 32.22499847 4.59999990
v 8.11294460 32.57500076 4.59999990
v 8.11294460 34.82500076 4.59999990
v 8.61294460 32.22499847 4.59999990
v 8.61294460 32.57500076 4.59999990
v 8.61294460 34.82500076 4.59999990
v 9.38705540 29.62500000 4.59999990
v 9.38705540 29.97500038 4.59999990
v 9.88705540 29.62500000 4.59999990
v 9.88705540 29.97500038 4.59999990
v 9.38705540 32.22499847 4.59999990
v 9.38705540 32.57500076 4.59999990
v 9.88705540 32.22499847 4.59999990
v 9.88705540 32.57500076 4.59999990
v 9.38705540 34.82500076 4.59999990
v 8.11294460 27.45000076 5.00000000
v 8.11294460 29.62500000 5.00000000
v 8.11294460 29.97500038 5.00000000
v 8.61294460 26.95000076 5.00000000
v 8.61294460 27.45000076 5.00000000
v 8.61294460 29.62500000 5.00000000
v 8.61294460 29.97500038 5.00000000
v 8.11294460 27.45000076 5.50000000
v 8.61294460 26.95000076 5.50000000
v 8.61294460 27.45000076 5.50000000
v 8.11294460 32.22499847 5.00000000
v 8.11294460 32.57500076 5.00000000
v 8.11294460 34.82500076 5.00000000
v 8.61294460 32.22499847 5.00000000
v 8.61294460 32.57500076 5.00000000
v 8.61294460 34.82500076 5.00000000
v 9.60000038 26.95000076 5.00000000
v 9.38705540 27.79999924 5.00000000
v 9.60000038 27.45000076 5.00000000
v 9.88705540 27.79999924 5.00000000
v 9.38705540 29.62500000 5.00000000
v 9.38705540 29.97500038 5.00000000
v 9.88705540 29.62500000 5.00000000
v 9.88705540 29.97500038 5.00000000
v 9.60000038 26.95000076 5.50000000
v 9.38705540 27.79999924 5.50000000
v 9.60000038 27.45000076 5.50000000
v 9.88705540 27.79999924 5.50000000
v 9.38705540 32.22499847 5.00000000
v 9.38705540 32.57500076 5.00000000
v 9.88705540 32.22499847 5.00000000
v 9.88705540 32.57500076 5.00000000
v 9.38705540 34.82500076 5.00000000
v 9.88705540 33.94027328 5.00000000
v 9.91972256 33.92276382 5.00000000
v 9.88705540 33.94027328 5.50000000
v 9.91972256 33.92276382 5.50000000
v 0.60000002 69.40000153 0.00000000
v 0.00000000 69.40000153 0.60000002
v 0.60000002 70.00000000 0.60000002
v 0.19999985 35.17499924 4.59999990
v 0.19999985 37.42499924 4.59999990
v 0.19999985 37.77500153 4.59999990
v 0.19999985 40.02500153 4.59999990
v 0.19999985 40.37500000 4.59999990
v 0.60000002 35.17499924 5.00000000
v 0.60000002 37.42499924 5.00000000
v 0.60000002 37.77500153 5.00000000
v 0.60000002 40.02500153 5.00000000
v 0.60000002 40.37500000 5.00000000
v 0.00000000 69.40000153 4.40000010
v 0.60000002 70.00000000 4.40000010
v 0.60000002 69.40000153 5.00000000
v 8.11294460 35.00000000 4.59999990
v 8.61294460 35.00000000 4.59999990
v 9.38705540 35.00000000 4.59999990
v 9.43193436 35.00000000 4.59999990
v 9.44798183 35.05073929 4.59999990
v 9.48002529 35.13082123 4.59999990
v 9.50144100 35.17499924 4.59999990
v 8.11294460 35.00000000 5.50000000
v 8.61294460 35.00000000 5.50000000
v 8.53125000 40.37500000 5.00000000
v 9.50144100 35.17499924 5.00000000
v 9.51857662 35.21034622 5.00000000
v 9.56347179 35.28896713 5.00000000
v 9.61451912 35.36635590 5.00000000
v 9.67149925 35.44216919 5.00000000
v 9.73416710 35.51609421 5.00000000
v 9.80225658 35.58780670 5.00000000
v 9.87547493 35.65700150 5.00000000
v 9.95350742 35.72338486 5.00000000
v 9.38705540 35.00000000 5.50000000
v 9.43193436 35.00000000 5.50000000
v 9.44798183 35.05073929 5.50000000
v 9.48002529 35.13082123 5.50000000
v 9.51857662 35.21034622 5.50000000
v 9.56347179 35.28896713 5.50000000
v 9.61451912 35.36635590 5.50000000
v 9.67149925 35.44216919 5.50000000
v 9.73416710 35.51609421 5.50000000
v 9.80225658 35.58780670 5.50000000
v 9.87547493 35.65700150 5.50000000
v 9.95350742 35.72338486 5.50000000
v 6.50000000 56.50000000 4.59999990
v 7.15000010 56.50000000 4.59999990
v 6.50000000 56.50000000 5.00000000
v 6.50000000 65.50000000 4.59999990
v 7.15000010 65.50000000 4.59999990
v 6.50000000 65.50000000 5.00000000
v 7.80000019 56.51193237 4.59999990
v 7.80000019 56.50000000 4.59999990
v 7.98751545 56.51965714 4.59999990
v 8.19517612 56.53068542 4.59999990
v 8.40169334 56.54414368 4.59999990
v 8.60684204 56.56001663 4.59999990
v 7.80000019 57.80794907 4.59999990
v 7.81605530 57.80830002 4.59999990
v 7.98120260 57.81295776 4.59999990
v 7.80000019 59.69205093 4.59999990
v 7.80000019 61.01193237 4.59999990
v 7.80000019 60.98806763 4.59999990
v 7.81605530 59.69169998 4.59999990
v 7.98120260 59.68704224 4.59999990
v 7.98751545 60.98034286 4.59999990
v 7.98751545 61.01965714 4.59999990
v 8.14544106 57.81863785 4.59999990
v 8.30859089 57.82534027 4.59999990
v 8.47047329 57.83304977 4.59999990
v 8.63091278 57.84176636 4.59999990
v 8.14544106 59.68136215 4.59999990
v 8.30859089 59.67465973 4.59999990
v 8.19517612 60.96931458 4.59999990
v 8.19517612 61.03068542 4.59999990
v 8.40169334 60.95585632 4.59999990
v 8.40169334 61.04414368 4.59999990
v 8.47047329 59.66695023 4.59999990
v 8.63091278 59.65823364 4.59999990
v 8.60684204 60.93998337 4.59999990
v 8.60684204 61.06001663 4.59999990
v 8.81039810 56.57828140 4.59999990
v 9.01213741 56.59891891 4.59999990
v 9.21184158 56.62191010 4.59999990
v 9.40929127 56.64722824 4.59999990
v 9.60426998 56.67484665 4.59999990
v 9.79656506 56.70473480 4.59999990
v 9.98596573 56.73685837 4.59999990
v 8.78973198 57.85147476 4.59999990
v 8.94675922 57.86216354 4.59999990
v 9.10182095 57.87382507 4.59999990
v 9.25474834 57.88644409 4.59999990
v 8.78973198 59.64852524 4.59999990
v 8.94675922 59.63783646 4.59999990
v 8.81039810 60.92171860 4.59999990
v 8.81039810 61.07828140 4.59999990
v 9.01213741 60.90108109 4.59999990
v 9.01213741 61.09891891 4.59999990
v 9.10182095 59.62617493 4.59999990
v 9.25474834 59.61355591 4.59999990
v 9.21184158 60.87808990 4.59999990
v 9.21184158 61.12191010 4.59999990
v 9.40537453 57.90000534 4.59999990
v 9.55353451 57.91450119 4.59999990
v 9.69906616 57.92990494 4.59999990
v 9.84181023 57.94620895 4.59999990
v 9.98161125 57.96339035 4.59999990
v 9.40537453 59.59999466 4.59999990
v 9.55353451 59.58549881 4.59999990
v 9.40929127 60.85277176 4.59999990
v 9.40929127 61.14722824 4.59999990
v 9.60426998 60.82515335 4.59999990
v 9.60426998 61.17484665 4.59999990
v 9.69906616 59.57009506 4.59999990
v 9.84181023 59.55379105 4.59999990
v 9.98161125 59.53660965 4.59999990
v 9.79656506 60.79526520 4.59999990
v 9.79656506 61.20473480 4.59999990
v 9.98596573 60.76314163 4.59999990
v 9.98596573 61.23685837 4.59999990
v 7.80000019 56.50000000 5.00000000
v 7.80000019 56.51193237 5.00000000
v 7.98751545 56.51965714 5.00000000
v 8.19517612 56.53068542 5.00000000
v 8.40169334 56.54414368 5.00000000
v 8.60684204 56.56001663 5.00000000
v 7.80000019 57.80794907 5.00000000
v 7.81605530 57.80830002 5.00000000
v 7.98120260 57.81295776 5.00000000
v 7.80000019 59.69205093 5.00000000
v 7.80000019 61.01193237 5.00000000
v 7.80000019 60.98806763 5.00000000
v 7.81605530 59.69169998 5.00000000
v 7.98120260 59.68704224 5.00000000
v 7.98751545 60.98034286 5.00000000
v 7.98751545 61.01965714 5.00000000
v 8.14544106 57.81863785 5.00000000
v 8.30859089 57.82534027 5.00000000
v 8.47047329 57.83304977 5.00000000
v 8.63091278 57.84176636 5.00000000
v 8.14544106 59.68136215 5.00000000
v 8.30859089 59.67465973 5.00000000
v 8.19517612 60.96931458 5.00000000
v 8.19517612 61.03068542 5.00000000
v 8.40169334 60.95585632 5.00000000
v 8.40169334 61.04414368 5.00000000
v 8.47047329 59.66695023 5.00000000
v 8.63091278 59.65823364 5.00000000
v 8.60684204 60.93998337 5.00000000
v 8.60684204 61.06001663 5.00000000
v 8.81039810 56.57828140 5.00000000
v 9.01213741 56.59891891 5.00000000
v 9.21184158 56.62191010 5.00000000
v 9.40929127 56.64722824 5.00000000
v 9.60426998 56.67484665 5.00000000
v 9.79656506 56.70473480 5.00000000
v 9.98596573 56.73685837 5.00000000
v 8.78973198 57.85147476 5.00000000
v 8.94675922 57.86216354 5.00000000
v 9.10182095 57.87382507 5.00000000
v 9.25474834 57.88644409 5.00000000
v 8.78973198 59.64852524 5.00000000
v 8.94675922 59.63783646 5.00000000
v 8.81039810 60.92171860 5.00000000
v 8.81039810 61.07828140 5.00000000
v 9.01213741 60.90108109 5.00000000
v 9.01213741 61.09891891 5.00000000
v 9.10182095 59.62617493 5.00000000
v 9.25474834 59.61355591 5.00000000
v 9.21184158 60.87808990 5.00000000
v 9.21184158 61.12191010 5.00000000
v 9.40537453 57.90000534 5.00000000
v 9.55353451 57.91450119 5.00000000
v 9.69906616 57.92990494 5.00000000
v 9.84181023 57.94620895 5.00000000
v 9.98161125 57.96339035 5.00000000
v 9.40537453 59.59999466 5.00000000
v 9.55353451 59.58549881 5.00000000
v 9.40929127 60.85277176 5.00000000
v 9.40929127 61.14722824 5.00000000
v 9.60426998 60.82515335 5.00000000
v 9.60426998 61.17484665 5.00000000
v 9.69906616 59.57009506 5.00000000
v 9.84181023 59.55379105 5.00000000
v 9.98161125 59.53660965 5.00000000
v 9.79656506 60.79526520 5.00000000
v 9.79656506 61.20473480 5.00000000
v 9.98596573 60.76314163 5.00000000
v 9.98596573 61.23685837 5.00000000
v 7.80000019 62.30794907 4.59999990
v 7.81605530 62.30830002 4.59999990
v 7.98120260 62.31295776 4.59999990
v 7.80000019 64.19205475 4.59999990
v 7.80000019 65.48806763 4.59999990
v 7.80000019 65.50000000 4.59999990
v 7.81605530 64.19170380 4.59999990
v 7.98120260 64.18704224 4.59999990
v 7.98751545 65.48034668 4.59999990
v 8.14544106 62.31863785 4.59999990
v 8.30859089 62.32534027 4.59999990
v 8.47047329 62.33304977 4.59999990
v 8.63091278 62.34176636 4.59999990
v 8.14544106 64.18135834 4.59999990
v 8.30859089 64.17465973 4.59999990
v 8.19517612 65.46931458 4.59999990
v 8.40169334 65.45585632 4.59999990
v 8.47047329 64.16694641 4.59999990
v 8.63091278 64.15823364 4.59999990
v 8.60684204 65.43998718 4.59999990
v 8.78973198 62.35147476 4.59999990
v 8.94675922 62.36216354 4.59999990
v 9.10182095 62.37382507 4.59999990
v 9.25474834 62.38644409 4.59999990
v 8.78973198 64.14852905 4.59999990
v 8.94675922 64.13783264 4.59999990
v 8.81039810 65.42172241 4.59999990
v 9.01213741 65.40107727 4.59999990
v 9.10182095 64.12617493 4.59999990
v 9.25474834 64.11355591 4.59999990
v 9.21184158 65.37808990 4.59999990
v 9.40537453 62.40000534 4.59999990
v 9.55353451 62.41450119 4.59999990
v 9.69906616 62.42990494 4.59999990
v 9.84181023 62.44620895 4.59999990
v 9.98161125 62.46339035 4.59999990
v 9.40537453 64.09999084 4.59999990
v 9.55353451 64.08550262 4.59999990
v 9.40929127 65.35276794 4.59999990
v 9.60426998 65.32514954 4.59999990
v 9.69906616 64.07009125 4.59999990
v 9.84181023 64.05378723 4.59999990
v 9.98161125 64.03660583 4.59999990
v 9.79656506 65.29526520 4.59999990
v 9.98596573 65.26313782 4.59999990
v 7.80000019 62.30794907 5.00000000
v 7.81605530 62.30830002 5.00000000
v 7.98120260 62.31295776 5.00000000
v 7.80000019 64.19205475 5.00000000
v 7.80000019 65.48806763 5.00000000
v 7.80000019 65.50000000 5.00000000
v 7.81605530 64.19170380 5.00000000
v 7.98120260 64.18704224 5.00000000
v 7.98751545 65.48034668 5.00000000
v 8.14544106 62.31863785 5.00000000
v 8.30859089 62.32534027 5.00000000
v 8.47047329 62.33304977 5.00000000
v 8.63091278 62.34176636 5.00000000
v 8.14544106 64.18135834 5.00000000
v 8.30859089 64.17465973 5.00000000
v 8.19517612 65.46931458 5.00000000
v 8.40169334 65.45585632 5.00000000
v 8.47047329 64.16694641 5.00000000
v 8.63091278 64.15823364 5.00000000
v 8.60684204 65.43998718 5.00000000
v 8.78973198 62.35147476 5.00000000
v 8.94675922 62.36216354 5.00000000
v 9.10182095 62.37382507 5.00000000
v 9.25474834 62.38644409 5.00000000
v 8.78973198 64.14852905 5.00000000
v 8.94675922 64.13783264 5.00000000
v 8.81039810 65.42172241 5.00000000
v 9.01213741 65.40107727 5.00000000
v 9.10182095 64.12617493 5.00000000
v 9.25474834 64.11355591 5.00000000
v 9.21184158 65.37808990 5.00000000
v 9.40537453 62.40000534 5.00000000
v 9.55353451 62.41450119 5.00000000
v 9.69906616 62.42990494 5.00000000
v 9.84181023 62.44620895 5.00000000
v 9.98161125 62.46339035 5.00000000
v 9.40537453 64.09999084 5.00000000
v 9.55353451 64.08550262 5.00000000
v 9.40929127 65.35276794 5.00000000
v 9.60426998 65.32514954 5.00000000
v 9.69906616 64.07009125 5.00000000
v 9.84181023 64.05378723 5.00000000
v 9.98161125 64.03660583 5.00000000
v 9.79656506 65.29526520 5.00000000
v 9.98596573 65.26313782 5.00000000
v 19.39999962 0.60000002 0.00000000
v 19.39999962 0.00000000 0.60000002
v 20.00000000 0.60000002 0.60000002
v 12.49855900 34.82500076 4.59999990
v 10.00037193 33.88662338 5.00000000
v 10.08530140 33.85525513 5.00000000
v 10.17414761 33.82878494 5.00000000
v 10.26653099 33.80733490 5.00000000
v 10.36205482 33.79098892 5.00000000
v 10.46030998 33.77981949 5.00000000
v 10.56087685 33.77387619 5.00000000
v 10.66332436 33.77318192 5.00000000
v 10.76721287 33.77774048 5.00000000
v 10.87209797 33.78753662 5.00000000
v 10.97753143 33.80252075 5.00000000
v 11.08306122 33.82263565 5.00000000
v 11.18823433 33.84779358 5.00000000
v 10.00037193 33.88662338 5.50000000
v 10.08530140 33.85525513 5.50000000
v 10.17414761 33.82878494 5.50000000
v 10.26653099 33.80733490 5.50000000
v 10.36205482 33.79098892 5.50000000
v 10.46030998 33.77981949 5.50000000
v 10.56087685 33.77387619 5.50000000
v 10.66332436 33.77318192 5.50000000
v 10.76721287 33.77774048 5.50000000
v 10.87209797 33.78753662 5.50000000
v 10.97753143 33.80252075 5.50000000
v 11.08306122 33.82263565 5.50000000
v 11.18823433 33.84779358 5.50000000
v 11.29260254 33.87788010 5.00000000
v 11.39571762 33.91277695 5.00000000
v 11.49713802 33.95232391 5.00000000
v 11.59642887 33.99636078 5.00000000
v 11.69316673 34.04469681 5.00000000
v 11.78693581 34.09712219 5.00000000
v 11.87733459 34.15341187 5.00000000
v 11.96397781 34.21332932 5.00000000
v 12.04649258 34.27661514 5.00000000
v 12.12452507 34.34299850 5.00000000
v 12.19774342 34.41219330 5.00000000
v 12.26583290 34.48390579 5.00000000
v 12.32850075 34.55783081 5.00000000
v 12.38548088 34.63364410 5.00000000
v 12.43652821 34.71103287 5.00000000
v 12.48142338 34.78965378 5.00000000
v 12.49855900 34.82500076 5.00000000
v 11.29260254 33.87788010 5.50000000
v 11.39571762 33.91277695 5.50000000
v 11.49713802 33.95232391 5.50000000
v 11.59642887 33.99636078 5.50000000
v 11.69316673 34.04469681 5.50000000
v 11.78693581 34.09712219 5.50000000
v 11.87733459 34.15341187 5.50000000
v 11.96397781 34.21332932 5.50000000
v 12.04649258 34.27661514 5.50000000
v 12.12452507 34.34299850 5.50000000
v 12.19774342 34.41219330 5.50000000
v 12.26583290 34.48390579 5.50000000
v 12.32850075 34.55783081 5.50000000
v 12.38548088 34.63364410 5.50000000
v 12.43652821 34.71103287 5.50000000
v 12.48142338 34.78965378 5.50000000
v 12.51997471 34.86917877 4.59999990
v 12.55201817 34.94926071 4.59999990
v 12.51997471 34.86917877 5.50000000
v 12.55201817 34.94926071 5.50000000
v 19.39999962 0.00000000 4.40000010
v 20.00000000 0.60000002 4.40000010
v 19.39999962 0.60000002 5.00000000
v 19.79999924 29.62500000 4.59999990
v 19.79999924 29.97500038 4.59999990
v 19.79999924 32.22499847 4.59999990
v 19.79999924 32.57500076 4.59999990
v 19.79999924 34.82500076 4.59999990
v 19.39999962 29.62500000 5.00000000
v 19.39999962 29.97500038 5.00000000
v 19.39999962 32.22499847 5.00000000
v 19.39999962 32.57500076 5.00000000
v 19.39999962 34.82500076 5.00000000
v 19.39999962 69.40000153 0.00000000
v 19.39999962 70.00000000 0.60000002
v 20.00000000 69.40000153 0.60000002
v 10.03602219 35.78667068 5.00000000
v 10.12266541 35.84658813 5.00000000
v 10.21306419 35.90287781 5.00000000
v 10.30683327 35.95530319 5.00000000
v 10.40357113 36.00363922 5.00000000
v 10.50286198 36.04767609 5.00000000
v 10.60428238 36.08722305 5.00000000
v 10.70739746 36.12211990 5.00000000
v 10.81176567 36.15220642 5.00000000
v 10.91693878 36.17736435 5.00000000
v 11.02246857 36.19747925 5.00000000
v 11.12790203 36.21246338 5.00000000
v 11.23278713 36.22225952 5.00000000
v 10.03602219 35.78667068 5.50000000
v 10.12266541 35.84658813 5.50000000
v 10.21306419 35.90287781 5.50000000
v 10.30683327 35.95530319 5.50000000
v 10.40357113 36.00363922 5.50000000
v 10.50286198 36.04767609 5.50000000
v 10.60428238 36.08722305 5.50000000
v 10.70739746 36.12211990 5.50000000
v 10.81176567 36.15220642 5.50000000
v 10.91693878 36.17736435 5.50000000
v 11.02246857 36.19747925 5.50000000
v 11.12790203 36.21246338 5.50000000
v 11.23278713 36.22225952 5.50000000
v 11.33667564 36.22681808 5.00000000
v 11.43912315 36.22612381 5.00000000
v 11.53969002 36.22018051 5.00000000
v 11.63794518 36.20901108 5.00000000
v 11.73346901 36.19266510 5.00000000
v 11.82585239 36.17121506 5.00000000
v 12.08027744 36.07723618 5.00000000
v 12.15630054 36.03648758 5.00000000
v 11.91469860 36.14474487 5.00000000
v 11.99962807 36.11337662 5.00000000
v 12.22737217 35.99129486 5.00000000
v 12.29318810 35.94186401 5.00000000
v 12.35346699 35.88839340 5.00000000
v 12.40794945 35.83112335 5.00000000
v 12.45640278 35.77029419 5.00000000
v 12.49862003 35.70616531 5.00000000
v 11.33667564 36.22681808 5.50000000
v 11.43912315 36.22612381 5.50000000
v 11.53969002 36.22018051 5.50000000
v 11.63794518 36.20901108 5.50000000
v 11.73346901 36.19266510 5.50000000
v 11.82585239 36.17121506 5.50000000
v 12.08027744 36.07723618 5.50000000
v 12.15630054 36.03648758 5.50000000
v 11.91469860 36.14474487 5.50000000
v 11.99962807 36.11337662 5.50000000
v 12.22737217 35.99129486 5.50000000
v 12.29318810 35.94186401 5.50000000
v 12.35346699 35.88839340 5.50000000
v 12.40794945 35.83112335 5.50000000
v 12.45640278 35.77029419 5.50000000
v 12.49862003 35.70616531 5.50000000
v 12.39999962 42.54999924 5.00000000
v 12.39999962 43.04999924 5.00000000
v 12.39999962 42.54999924 5.50000000
v 12.39999962 43.04999924 5.50000000
v 12.57741547 35.02956390 4.59999990
v 12.59605694 35.10973740 4.59999990
v 12.60572529 35.17499924 4.59999990
v 13.38705540 35.00000000 4.59999990
v 13.38705540 35.17499924 4.59999990
v 13.38705540 37.42499924 4.59999990
v 13.38705540 37.77500153 4.59999990
v 13.38705540 40.02500153 4.59999990
v 13.38705540 40.37500000 4.59999990
v 13.88705540 35.00000000 4.59999990
v 13.88705540 35.17499924 4.59999990
v 13.88705540 37.42499924 4.59999990
v 13.88705540 37.77500153 4.59999990
v 13.88705540 40.02500153 4.59999990
v 13.88705540 40.37500000 4.59999990
v 12.60572529 35.17499924 5.00000000
v 12.60786533 35.18944168 5.00000000
v 12.61278725 35.26833344 5.00000000
v 12.61080360 35.34608078 5.00000000
v 12.58618164 35.49679565 5.00000000
v 12.60192299 35.42234039 5.00000000
v 12.53441906 35.63901138 5.00000000
v 12.56364822 35.56912231 5.00000000
v 13.38705540 35.17499924 5.00000000
v 13.38705540 37.42499924 5.00000000
v 13.38705540 37.77500153 5.00000000
v 12.57741547 35.02956390 5.50000000
v 12.59605694 35.10973740 5.50000000
v 12.60786533 35.18944168 5.50000000
v 12.61278725 35.26833344 5.50000000
v 12.61080360 35.34608078 5.50000000
v 12.58618164 35.49679565 5.50000000
v 12.60192299 35.42234039 5.50000000
v 12.53441906 35.63901138 5.50000000
v 12.56364822 35.56912231 5.50000000
v 13.38705540 35.00000000 5.50000000
v 13.38705540 40.02500153 5.00000000
v 13.38705540 40.37500000 5.00000000
v 13.38705540 42.54999924 5.00000000
v 13.38705540 43.04999924 5.00000000
v 13.38705540 42.54999924 5.50000000
v 13.38705540 43.04999924 5.50000000
v 13.88705540 35.17499924 5.00000000
v 13.88705540 37.42499924 5.00000000
v 13.88705540 37.77500153 5.00000000
v 13.88705540 35.00000000 5.50000000
v 13.88705540 40.02500153 5.00000000
v 13.88705540 40.37500000 5.00000000
v 13.88705540 42.54999924 5.00000000
v 13.88705540 42.54999924 5.50000000
v 13.38705540 44.09999847 5.00000000
v 13.43193436 44.09999847 5.00000000
v 13.44798183 44.15073776 5.00000000
v 13.48002529 44.23082352 5.00000000
v 13.51857662 44.31034470 5.00000000
v 13.56347179 44.38896942 5.00000000
v 13.61451912 44.46635437 5.00000000
v 13.67149925 44.54217148 5.00000000
v 13.73416710 44.61609268 5.00000000
v 13.38705540 44.09999847 5.50000000
v 13.43193436 44.09999847 5.50000000
v 13.44798183 44.15073776 5.50000000
v 13.48002529 44.23082352 5.50000000
v 13.51857662 44.31034470 5.50000000
v 13.56347179 44.38896942 5.50000000
v 13.61451912 44.46635437 5.50000000
v 13.67149925 44.54217148 5.50000000
v 13.73416710 44.61609268 5.50000000
v 13.80225658 44.68780518 5.00000000
v 13.87547493 44.75700378 5.00000000
v 13.95350742 44.82338715 5.00000000
v 14.03602219 44.88666916 5.00000000
v 14.12266541 44.94658661 5.00000000
v 14.21306419 45.00288010 5.00000000
v 14.30683327 45.05530167 5.00000000
v 14.40357113 45.10363770 5.00000000
v 14.50286198 45.14767456 5.00000000
v 14.60428238 45.18722534 5.00000000
v 14.70739746 45.22211838 5.00000000
v 14.81176567 45.25220871 5.00000000
v 14.91693878 45.27736282 5.00000000
v 13.80225658 44.68780518 5.50000000
v 13.87547493 44.75700378 5.50000000
v 13.95350742 44.82338715 5.50000000
v 14.03602219 44.88666916 5.50000000
v 14.12266541 44.94658661 5.50000000
v 14.21306419 45.00288010 5.50000000
v 14.30683327 45.05530167 5.50000000
v 14.40357113 45.10363770 5.50000000
v 14.50286198 45.14767456 5.50000000
v 14.60428238 45.18722534 5.50000000
v 14.70739746 45.22211838 5.50000000
v 14.81176567 45.25220871 5.50000000
v 14.91693878 45.27736282 5.50000000
v 10.17226601 56.77118301 4.59999990
v 10.35526085 56.80767441 4.59999990
v 10.53475189 56.84628677 4.59999990
v 10.11831570 57.98143387 4.59999990
v 10.25177383 58.00031662 4.59999990
v 10.38184071 58.02001953 4.59999990
v 10.50837421 58.04051971 4.59999990
v 10.11831570 59.51856613 4.59999990
v 10.25177383 59.49968338 4.59999990
v 10.17226601 60.72881699 4.59999990
v 10.38184071 59.47998047 4.59999990
v 10.50837421 59.45948029 4.59999990
v 10.35526085 60.69232559 4.59999990
v 10.53475189 60.65371323 4.59999990
v 10.71054077 56.88698196 4.59999990
v 10.88243675 56.92971039 4.59999990
v 10.63123512 58.06179428 4.59999990
v 10.75028896 58.08382416 4.59999990
v 10.86540604 58.10658264 4.59999990
v 11.05025101 56.97443390 4.59999990
v 11.21380043 57.02109909 4.59999990
v 10.97646046 58.13004303 4.59999990
v 11.08333015 58.15418243 4.59999990
v 11.18589973 58.17897415 4.59999990
v 10.63123512 59.43820572 4.59999990
v 10.75028896 59.41617584 4.59999990
v 10.86540604 59.39341736 4.59999990
v 10.71054077 60.61301804 4.59999990
v 10.88243675 60.57028961 4.59999990
v 10.97646046 59.36995697 4.59999990
v 11.08333015 59.34581757 4.59999990
v 11.18589973 59.32102585 4.59999990
v 11.05025101 60.52556610 4.59999990
v 11.21380043 60.47890091 4.59999990
v 11.37290573 57.06965256 4.59999990
v 11.52739429 57.12004471 4.59999990
v 11.28405571 58.20438766 4.59999990
v 11.37769032 58.23040009 4.59999990
v 11.46670341 58.25697708 4.59999990
v 11.55099583 58.28409576 4.59999990
v 11.67709541 57.17221832 4.59999990
v 11.82184696 57.22611618 4.59999990
v 11.63047504 58.31172562 4.59999990
v 11.70505524 58.33983231 4.59999990
v 11.77465534 58.36838913 4.59999990
v 11.83919811 58.39736176 4.59999990
v 11.28405571 59.29561234 4.59999990
v 11.37769032 59.26959991 4.59999990
v 11.46670341 59.24302292 4.59999990
v 11.55099583 59.21590424 4.59999990
v 11.37290573 60.43034744 4.59999990
v 11.52739429 60.37995529 4.59999990
v 11.63047504 59.18827438 4.59999990
v 11.70505524 59.16016769 4.59999990
v 11.77465534 59.13161087 4.59999990
v 11.83919811 59.10263824 4.59999990
v 11.67709541 60.32778168 4.59999990
v 11.82184696 60.27388382 4.59999990
v 11.96148968 57.28168106 4.59999990
v 12.09587097 57.33885193 4.59999990
v 11.89861298 58.42671967 4.59999990
v 11.95283508 58.45643234 4.59999990
v 12.00180626 58.48646545 4.59999990
v 11.95283508 59.04356766 4.59999990
v 12.00180626 59.01353455 4.59999990
v 12.04547119 58.51678848 4.59999990
v 12.08378315 58.54736710 4.59999990
v 12.04547119 58.98321152 4.59999990
v 12.08378315 58.95263290 4.59999990
v 12.11670017 58.57816315 4.59999990
v 12.14418697 58.60914993 4.59999990
v 12.16621208 58.64028931 4.59999990
v 12.18275166 58.67155075 4.59999990
v 12.11670017 58.92183685 4.59999990
v 12.14418697 58.89085007 4.59999990
v 12.16621208 58.85971069 4.59999990
v 12.18275166 58.82844925 4.59999990
v 12.22484398 57.39756775 4.59999990
v 12.34826756 57.45775986 4.59999990
v 12.46600723 57.51936722 4.59999990
v 12.19378853 58.70289612 4.59999990
v 12.19930935 58.73429108 4.59999990
v 12.19930935 58.76570892 4.59999990
v 12.19378853 58.79710388 4.59999990
v 11.89861298 59.07328033 4.59999990
v 11.96148968 60.21831894 4.59999990
v 12.09587097 60.16114807 4.59999990
v 12.22484398 60.10243225 4.59999990
v 12.34826756 60.04224014 4.59999990
v 12.46600723 59.98063278 4.59999990
v 10.17226601 56.77118301 5.00000000
v 10.35526085 56.80767441 5.00000000
v 10.53475189 56.84628677 5.00000000
v 10.11831570 57.98143387 5.00000000
v 10.25177383 58.00031662 5.00000000
v 10.38184071 58.02001953 5.00000000
v 10.50837421 58.04051971 5.00000000
v 10.11831570 59.51856613 5.00000000
v 10.25177383 59.49968338 5.00000000
v 10.17226601 60.72881699 5.00000000
v 10.38184071 59.47998047 5.00000000
v 10.50837421 59.45948029 5.00000000
v 10.35526085 60.69232559 5.00000000
v 10.53475189 60.65371323 5.00000000
v 10.71054077 56.88698196 5.00000000
v 10.88243675 56.92971039 5.00000000
v 10.63123512 58.06179428 5.00000000
v 10.75028896 58.08382416 5.00000000
v 10.86540604 58.10658264 5.00000000
v 11.05025101 56.97443390 5.00000000
v 11.21380043 57.02109909 5.00000000
v 10.97646046 58.13004303 5.00000000
v 11.08333015 58.15418243 5.00000000
v 11.18589973 58.17897415 5.00000000
v 10.63123512 59.43820572 5.00000000
v 10.75028896 59.41617584 5.00000000
v 10.86540604 59.39341736 5.00000000
v 10.71054077 60.61301804 5.00000000
v 10.88243675 60.57028961 5.00000000
v 10.97646046 59.36995697 5.00000000
v 11.08333015 59.34581757 5.00000000
v 11.18589973 59.32102585 5.00000000
v 11.05025101 60.52556610 5.00000000
v 11.21380043 60.47890091 5.00000000
v 11.37290573 57.06965256 5.00000000
v 11.52739429 57.12004471 5.00000000
v 11.28405571 58.20438766 5.00000000
v 11.37769032 58.23040009 5.00000000
v 11.46670341 58.25697708 5.00000000
v 11.55099583 58.28409576 5.00000000
v 11.67709541 57.17221832 5.00000000
v 11.82184696 57.22611618 5.00000000
v 11.63047504 58.31172562 5.00000000
v 11.70505524 58.33983231 5.00000000
v 11.77465534 58.36838913 5.00000000
v 11.83919811 58.39736176 5.00000000
v 11.28405571 59.29561234 5.00000000
v 11.37769032 59.26959991 5.00000000
v 11.46670341 59.24302292 5.00000000
v 11.55099583 59.21590424 5.00000000
v 11.37290573 60.43034744 5.00000000
v 11.52739429 60.37995529 5.00000000
v 11.63047504 59.18827438 5.00000000
v 11.70505524 59.16016769 5.00000000
v 11.77465534 59.13161087 5.00000000
v 11.83919811 59.10263824 5.00000000
v 11.67709541 60.32778168 5.00000000
v 11.82184696 60.27388382 5.00000000
v 11.96148968 57.28168106 5.00000000
v 12.09587097 57.33885193 5.00000000
v 11.89861298 58.42671967 5.00000000
v 11.95283508 58.45643234 5.00000000
v 12.00180626 58.48646545 5.00000000
v 11.95283508 59.04356766 5.00000000
v 12.00180626 59.01353455 5.00000000
v 12.04547119 58.51678848 5.00000000
v 12.08378315 58.54736710 5.00000000
v 12.04547119 58.98321152 5.00000000
v 12.08378315 58.95263290 5.00000000
v 12.11670017 58.57816315 5.00000000
v 12.14418697 58.60914993 5.00000000
v 12.16621208 58.64028931 5.00000000
v 12.18275166 58.67155075 5.00000000
v 12.11670017 58.92183685 5.00000000
v 12.14418697 58.89085007 5.00000000
v 12.16621208 58.85971069 5.00000000
v 12.18275166 58.82844925 5.00000000
v 12.22484398 57.39756775 5.00000000
v 12.34826756 57.45775986 5.00000000
v 12.46600723 57.51936722 5.00000000
v 12.19378853 58.70289612 5.00000000
v 12.19930935 58.73429108 5.00000000
v 12.19930935 58.76570892 5.00000000
v 12.19378853 58.79710388 5.00000000
v 11.89861298 59.07328033 5.00000000
v 11.96148968 60.21831894 5.00000000
v 12.09587097 60.16114807 5.00000000
v 12.22484398 60.10243225 5.00000000
v 12.34826756 60.04224014 5.00000000
v 12.46600723 59.98063278 5.00000000
v 10.17226601 61.27118301 4.59999990
v 10.11831570 62.48143387 4.59999990
v 10.25177383 62.50031662 4.59999990
v 10.35526085 61.30767441 4.59999990
v 10.53475189 61.34628677 4.59999990
v 10.38184071 62.52001953 4.59999990
v 10.50837421 62.54051971 4.59999990
v 10.11831570 64.01856995 4.59999990
v 10.25177383 63.99968338 4.59999990
v 10.17226601 65.22881317 4.59999990
v 10.38184071 63.97998047 4.59999990
v 10.50837421 63.95948029 4.59999990
v 10.35526085 65.19232941 4.59999990
v 10.53475189 65.15371704 4.59999990
v 10.71054077 61.38698196 4.59999990
v 10.88243675 61.42971039 4.59999990
v 10.63123512 62.56179428 4.59999990
v 10.75028896 62.58382416 4.59999990
v 10.86540604 62.60658264 4.59999990
v 11.05025101 61.47443390 4.59999990
v 11.21380043 61.52109909 4.59999990
v 10.97646046 62.63004303 4.59999990
v 11.08333015 62.65418243 4.59999990
v 11.18589973 62.67897415 4.59999990
v 10.63123512 63.93820572 4.59999990
v 10.75028896 63.91617584 4.59999990
v 10.86540604 63.89341736 4.59999990
v 10.71054077 65.11302185 4.59999990
v 10.88243675 65.07028961 4.59999990
v 10.97646046 63.86995697 4.59999990
v 11.08333015 63.84581757 4.59999990
v 11.18589973 63.82102585 4.59999990
v 11.05025101 65.02556610 4.59999990
v 11.21380043 64.97890472 4.59999990
v 11.37290573 61.56965256 4.59999990
v 11.52739429 61.62004471 4.59999990
v 11.28405571 62.70438766 4.59999990
v 11.37769032 62.73040009 4.59999990
v 11.46670341 62.75697708 4.59999990
v 11.55099583 62.78409576 4.59999990
v 11.67709541 61.67221832 4.59999990
v 11.82184696 61.72611618 4.59999990
v 11.63047504 62.81172562 4.59999990
v 11.70505524 62.83983231 4.59999990
v 11.77465534 62.86838913 4.59999990
v 11.83919811 62.89736176 4.59999990
v 11.28405571 63.79561234 4.59999990
v 11.37769032 63.76959991 4.59999990
v 11.46670341 63.74302292 4.59999990
v 11.55099583 63.71590424 4.59999990
v 11.37290573 64.93035126 4.59999990
v 11.52739429 64.87995911 4.59999990
v 11.63047504 63.68827438 4.59999990
v 11.70505524 63.66016769 4.59999990
v 11.77465534 63.63161087 4.59999990
v 11.83919811 63.60263824 4.59999990
v 11.67709541 64.82778168 4.59999990
v 11.82184696 64.77388000 4.59999990
v 11.96148968 61.78168106 4.59999990
v 12.09587097 61.83885193 4.59999990
v 11.89861298 62.92671967 4.59999990
v 11.95283508 62.95643234 4.59999990
v 12.00180626 62.98646545 4.59999990
v 12.04547119 63.01678848 4.59999990
v 12.08378315 63.04736710 4.59999990
v 12.11670017 63.07816315 4.59999990
v 12.14418697 63.10914993 4.59999990
v 12.16621208 63.14028931 4.59999990
v 12.11670017 63.42183685 4.59999990
v 12.14418697 63.39085007 4.59999990
v 12.18275166 63.17155075 4.59999990
v 12.16621208 63.35971069 4.59999990
v 12.18275166 63.32844925 4.59999990
v 12.22484398 61.89756775 4.59999990
v 12.34826756 61.95775986 4.59999990
v 12.46600723 62.01936722 4.59999990
v 12.19378853 63.20289612 4.59999990
v 12.19930935 63.23429108 4.59999990
v 12.19930935 63.26570892 4.59999990
v 12.19378853 63.29710388 4.59999990
v 11.89861298 63.57328033 4.59999990
v 11.95283508 63.54356766 4.59999990
v 12.00180626 63.51353455 4.59999990
v 12.04547119 63.48321152 4.59999990
v 12.08378315 63.45263290 4.59999990
v 11.96148968 64.71831512 4.59999990
v 12.09587097 64.66114807 4.59999990
v 12.46600723 64.48063660 4.59999990
v 12.22484398 64.60243225 4.59999990
v 12.34826756 64.54223633 4.59999990
v 10.17226601 61.27118301 5.00000000
v 10.11831570 62.48143387 5.00000000
v 10.25177383 62.50031662 5.00000000
v 10.35526085 61.30767441 5.00000000
v 10.53475189 61.34628677 5.00000000
v 10.38184071 62.52001953 5.00000000
v 10.50837421 62.54051971 5.00000000
v 10.11831570 64.01856995 5.00000000
v 10.25177383 63.99968338 5.00000000
v 10.17226601 65.22881317 5.00000000
v 10.38184071 63.97998047 5.00000000
v 10.50837421 63.95948029 5.00000000
v 10.35526085 65.19232941 5.00000000
v 10.53475189 65.15371704 5.00000000
v 10.71054077 61.38698196 5.00000000
v 10.88243675 61.42971039 5.00000000
v 10.63123512 62.56179428 5.00000000
v 10.75028896 62.58382416 5.00000000
v 10.86540604 62.60658264 5.00000000
v 11.05025101 61.47443390 5.00000000
v 11.21380043 61.52109909 5.00000000
v 10.97646046 62.63004303 5.00000000
v 11.08333015 62.65418243 5.00000000
v 11.18589973 62.67897415 5.00000000
v 10.63123512 63.93820572 5.00000000
v 10.75028896 63.91617584 5.00000000
v 10.86540604 63.89341736 5.00000000
v 10.71054077 65.11302185 5.00000000
v 10.88243675 65.07028961 5.00000000
v 10.97646046 63.86995697 5.00000000
v 11.08333015 63.84581757 5.00000000
v 11.18589973 63.82102585 5.00000000
v 11.05025101 65.02556610 5.00000000
v 11.21380043 64.97890472 5.00000000
v 11.37290573 61.56965256 5.00000000
v 11.52739429 61.62004471 5.00000000
v 11.28405571 62.70438766 5.00000000
v 11.37769032 62.73040009 5.00000000
v 11.46670341 62.75697708 5.00000000
v 11.55099583 62.78409576 5.00000000
v 11.67709541 61.67221832 5.00000000
v 11.82184696 61.72611618 5.00000000
v 11.63047504 62.81172562 5.00000000
v 11.70505524 62.83983231 5.00000000
v 11.77465534 62.86838913 5.00000000
v 11.83919811 62.89736176 5.00000000
v 11.28405571 63.79561234 5.00000000
v 11.37769032 63.76959991 5.00000000
v 11.46670341 63.74302292 5.00000000
v 11.55099583 63.71590424 5.00000000
v 11.37290573 64.93035126 5.00000000
v 11.52739429 64.87995911 5.00000000
v 11.63047504 63.68827438 5.00000000
v 11.70505524 63.66016769 5.00000000
v 11.77465534 63.63161087 5.00000000
v 11.83919811 63.60263824 5.00000000
v 11.67709541 64.82778168 5.00000000
v 11.82184696 64.77388000 5.00000000
v 11.96148968 61.78168106 5.00000000
v 12.09587097 61.83885193 5.00000000
v 11.89861298 62.92671967 5.00000000
v 11.95283508 62.95643234 5.00000000
v 12.00180626 62.98646545 5.00000000
v 12.04547119 63.01678848 5.00000000
v 12.08378315 63.04736710 5.00000000
v 12.11670017 63.07816315 5.00000000
v 12.14418697 63.10914993 5.00000000
v 12.16621208 63.14028931 5.00000000
v 12.11670017 63.42183685 5.00000000
v 12.14418697 63.39085007 5.00000000
v 12.18275166 63.17155075 5.00000000
v 12.16621208 63.35971069 5.00000000
v 12.18275166 63.32844925 5.00000000
v 12.22484398 61.89756775 5.00000000
v 12.34826756 61.95775986 5.00000000
v 12.46600723 62.01936722 5.00000000
v 12.19378853 63.20289612 5.00000000
v 12.19930935 63.23429108 5.00000000
v 12.19930935 63.26570892 5.00000000
v 12.19378853 63.29710388 5.00000000
v 11.89861298 63.57328033 5.00000000
v 11.95283508 63.54356766 5.00000000
v 12.00180626 63.51353455 5.00000000
v 12.04547119 63.48321152 5.00000000
v 12.08378315 63.45263290 5.00000000
v 11.96148968 64.71831512 5.00000000
v 12.09587097 64.66114807 5.00000000
v 12.46600723 64.48063660 5.00000000
v 12.22484398 64.60243225 5.00000000
v 12.34826756 64.54223633 5.00000000
v 12.57793331 57.58231735 4.59999990
v 12.68392467 57.64654541 4.59999990
v 12.78386497 57.71198273 4.59999990
v 12.87764454 57.77855301 4.59999990
v 12.96516037 57.84618378 4.59999990
v 13.04631805 57.91480637 4.59999990
v 13.12102795 57.98434067 4.59999990
v 12.57793331 59.91768265 4.59999990
v 12.68392467 59.85345459 4.59999990
v 12.78386497 59.78801727 4.59999990
v 12.87764454 59.72144699 4.59999990
v 12.96516037 59.65381622 4.59999990
v 13.04631805 59.58519363 4.59999990
v 13.12102795 59.51565933 4.59999990
v 13.18920898 58.05471039 4.59999990
v 13.25078583 58.12584305 4.59999990
v 13.30569172 58.19765854 4.59999990
v 13.35386658 58.27007675 4.59999990
v 13.39525700 58.34301758 4.59999990
v 13.42981911 58.41640854 4.59999990
v 13.45751381 58.49015808 4.59999990
v 13.47831154 58.56419754 4.59999990
v 13.49218941 58.63843536 4.59999990
v 13.49913216 58.71279907 4.59999990
v 13.49913216 58.78720093 4.59999990
v 13.45751381 59.00984192 4.59999990
v 13.49218941 58.86156464 4.59999990
v 13.47831154 58.93580246 4.59999990
v 13.18920898 59.44528961 4.59999990
v 13.25078583 59.37415695 4.59999990
v 13.30569172 59.30234146 4.59999990
v 13.35386658 59.22992325 4.59999990
v 13.39525700 59.15698242 4.59999990
v 13.42981911 59.08359146 4.59999990
v 12.57793331 57.58231735 5.00000000
v 12.68392467 57.64654541 5.00000000
v 12.78386497 57.71198273 5.00000000
v 12.87764454 57.77855301 5.00000000
v 12.96516037 57.84618378 5.00000000
v 13.04631805 57.91480637 5.00000000
v 13.12102795 57.98434067 5.00000000
v 12.57793331 59.91768265 5.00000000
v 12.68392467 59.85345459 5.00000000
v 12.78386497 59.78801727 5.00000000
v 12.87764454 59.72144699 5.00000000
v 12.96516037 59.65381622 5.00000000
v 13.04631805 59.58519363 5.00000000
v 13.12102795 59.51565933 5.00000000
v 13.18920898 58.05471039 5.00000000
v 13.25078583 58.12584305 5.00000000
v 13.30569172 58.19765854 5.00000000
v 13.35386658 58.27007675 5.00000000
v 13.39525700 58.34301758 5.00000000
v 13.42981911 58.41640854 5.00000000
v 13.45751381 58.49015808 5.00000000
v 13.47831154 58.56419754 5.00000000
v 13.49218941 58.63843536 5.00000000
v 13.49913216 58.71279907 5.00000000
v 13.49913216 58.78720093 5.00000000
v 13.45751381 59.00984192 5.00000000
v 13.49218941 58.86156464 5.00000000
v 13.47831154 58.93580246 5.00000000
v 13.18920898 59.44528961 5.00000000
v 13.25078583 59.37415695 5.00000000
v 13.30569172 59.30234146 5.00000000
v 13.35386658 59.22992325 5.00000000
v 13.39525700 59.15698242 5.00000000
v 13.42981911 59.08359146 5.00000000
v 12.57793331 62.08231735 4.59999990
v 12.68392467 62.14654541 4.59999990
v 12.78386497 62.21198273 4.59999990
v 12.87764454 62.27855301 4.59999990
v 12.96516037 62.34618378 4.59999990
v 13.04631805 62.41480637 4.59999990
v 13.12102795 62.48434067 4.59999990
v 12.57793331 64.41767883 4.59999990
v 12.68392467 64.35345459 4.59999990
v 12.78386497 64.28801727 4.59999990
v 12.87764454 64.22145081 4.59999990
v 12.96516037 64.15381622 4.59999990
v 13.04631805 64.08519745 4.59999990
v 13.12102795 64.01566315 4.59999990
v 13.18920898 62.55471039 4.59999990
v 13.25078583 62.62584305 4.59999990
v 13.30569172 62.69765854 4.59999990
v 13.35386658 62.77007675 4.59999990
v 13.39525700 62.84301758 4.59999990
v 13.42981911 62.91640854 4.59999990
v 13.45751381 62.99015808 4.59999990
v 13.47831154 63.06419754 4.59999990
v 13.49218941 63.13843536 4.59999990
v 13.49913216 63.21279907 4.59999990
v 13.49913216 63.28720093 4.59999990
v 13.49218941 63.36156464 4.59999990
v 13.47831154 63.43580246 4.59999990
v 13.18920898 63.94528961 4.59999990
v 13.25078583 63.87415695 4.59999990
v 13.30569172 63.80234146 4.59999990
v 13.35386658 63.72992325 4.59999990
v 13.39525700 63.65698242 4.59999990
v 13.42981911 63.58359146 4.59999990
v 13.45751381 63.50984192 4.59999990
v 12.57793331 62.08231735 5.00000000
v 12.68392467 62.14654541 5.00000000
v 12.78386497 62.21198273 5.00000000
v 12.87764454 62.27855301 5.00000000
v 12.96516037 62.34618378 5.00000000
v 13.04631805 62.41480637 5.00000000
v 13.12102795 62.48434067 5.00000000
v 12.57793331 64.41767883 5.00000000
v 12.68392467 64.35345459 5.00000000
v 12.78386497 64.28801727 5.00000000
v 12.87764454 64.22145081 5.00000000
v 12.96516037 64.15381622 5.00000000
v 13.04631805 64.08519745 5.00000000
v 13.12102795 64.01566315 5.00000000
v 13.18920898 62.55471039 5.00000000
v 13.25078583 62.62584305 5.00000000
v 13.30569172 62.69765854 5.00000000
v 13.35386658 62.77007675 5.00000000
v 13.39525700 62.84301758 5.00000000
v 13.42981911 62.91640854 5.00000000
v 13.45751381 62.99015808 5.00000000
v 13.47831154 63.06419754 5.00000000
v 13.49218941 63.13843536 5.00000000
v 13.49913216 63.21279907 5.00000000
v 13.49913216 63.28720093 5.00000000
v 13.49218941 63.36156464 5.00000000
v 13.47831154 63.43580246 5.00000000
v 13.18920898 63.94528961 5.00000000
v 13.25078583 63.87415695 5.00000000
v 13.30569172 63.80234146 5.00000000
v 13.35386658 63.72992325 5.00000000
v 13.39525700 63.65698242 5.00000000
v 13.42981911 63.58359146 5.00000000
v 13.45751381 63.50984192 5.00000000
v 15.49713802 43.05232620 5.00000000
v 15.49117374 43.04999924 5.00000000
v 15.59642887 43.09636307 5.00000000
v 15.69316673 43.14469528 5.00000000
v 15.78693581 43.19712067 5.00000000
v 15.87733459 43.25341415 5.00000000
v 15.96397781 43.31332779 5.00000000
v 16.04649162 43.37661362 5.00000000
v 16.12452507 43.44299698 5.00000000
v 16.19774437 43.51219177 5.00000000
v 15.49713802 43.05232620 5.50000000
v 15.49117374 43.04999924 5.50000000
v 15.59642887 43.09636307 5.50000000
v 15.69316673 43.14469528 5.50000000
v 15.78693581 43.19712067 5.50000000
v 15.87733459 43.25341415 5.50000000
v 15.96397781 43.31332779 5.50000000
v 16.04649162 43.37661362 5.50000000
v 16.12452507 43.44299698 5.50000000
v 16.19774437 43.51219177 5.50000000
v 16.26583290 43.58390427 5.00000000
v 16.32850075 43.65782928 5.00000000
v 16.38548088 43.73364639 5.00000000
v 16.26583290 43.58390427 5.50000000
v 16.32850075 43.65782928 5.50000000
v 16.38548088 43.73364639 5.50000000
v 15.02246857 45.29747772 5.00000000
v 15.12790203 45.31246185 5.00000000
v 15.23278713 45.32225800 5.00000000
v 15.33667564 45.32681656 5.00000000
v 15.43912315 45.32612610 5.00000000
v 15.53969002 45.32018280 5.00000000
v 15.63794518 45.30901337 5.00000000
v 15.73346901 45.29266739 5.00000000
v 15.82585239 45.27121353 5.00000000
v 15.91469860 45.24474335 5.00000000
v 15.99962807 45.21337509 5.00000000
v 16.08027840 45.17723846 5.00000000
v 16.15630150 45.13648605 5.00000000
v 16.22737312 45.09129715 5.00000000
v 15.02246857 45.29747772 5.50000000
v 15.12790203 45.31246185 5.50000000
v 15.23278713 45.32225800 5.50000000
v 15.33667564 45.32681656 5.50000000
v 15.43912315 45.32612610 5.50000000
v 15.53969002 45.32018280 5.50000000
v 15.63794518 45.30901337 5.50000000
v 15.73346901 45.29266739 5.50000000
v 15.82585239 45.27121353 5.50000000
v 15.91469860 45.24474335 5.50000000
v 15.99962807 45.21337509 5.50000000
v 16.08027840 45.17723846 5.50000000
v 16.15630150 45.13648605 5.50000000
v 16.22737312 45.09129715 5.50000000
v 16.43652725 43.81103134 5.00000000
v 16.48142242 43.88965607 5.00000000
v 16.51997566 43.96917725 5.00000000
v 16.55201721 44.04926300 5.00000000
v 16.49861908 44.80616379 5.00000000
v 16.53442001 44.73900986 5.00000000
v 16.29318810 45.04186249 5.00000000
v 16.35346603 44.98839569 5.00000000
v 16.40794945 44.93112183 5.00000000
v 16.45640373 44.87029266 5.00000000
v 16.57741547 44.12956238 5.00000000
v 16.59605789 44.20973587 5.00000000
v 16.60786438 44.28944016 5.00000000
v 16.61278725 44.36833572 5.00000000
v 16.61080360 44.44607925 5.00000000
v 16.60192299 44.52234268 5.00000000
v 16.56364822 44.66912079 5.00000000
v 16.58618164 44.59679413 5.00000000
v 16.43652725 43.81103134 5.50000000
v 16.48142242 43.88965607 5.50000000
v 16.51997566 43.96917725 5.50000000
v 16.55201721 44.04926300 5.50000000
v 16.49861908 44.80616379 5.50000000
v 16.53442001 44.73900986 5.50000000
v 16.29318810 45.04186249 5.50000000
v 16.35346603 44.98839569 5.50000000
v 16.40794945 44.93112183 5.50000000
v 16.45640373 44.87029266 5.50000000
v 16.57741547 44.12956238 5.50000000
v 16.59605789 44.20973587 5.50000000
v 16.60786438 44.28944016 5.50000000
v 16.61278725 44.36833572 5.50000000
v 16.61080360 44.44607925 5.50000000
v 16.60192299 44.52234268 5.50000000
v 16.56364822 44.66912079 5.50000000
v 16.58618164 44.59679413 5.50000000
v 19.79999924 35.17499924 4.59999990
v 19.79999924 37.42499924 4.59999990
v 19.79999924 37.77500153 4.59999990
v 19.79999924 40.02500153 4.59999990
v 19.79999924 40.37500000 4.59999990
v 17.60000038 42.54999924 5.00000000
v 17.60000038 43.04999924 5.00000000
v 17.60000038 42.54999924 5.50000000
v 17.60000038 43.04999924 5.50000000
v 19.39999962 35.17499924 5.00000000
v 19.39999962 37.42499924 5.00000000
v 19.39999962 37.77500153 5.00000000
v 19.39999962 40.02500153 5.00000000
v 19.39999962 40.37500000 5.00000000
v 19.39999962 70.00000000 4.40000010
v 20.00000000 69.40000153 4.40000010
v 19.39999962 69.40000153 5.00000000
f 1 3 2
f 2 3 5
f 1 2 211
f 2 4 212
f 1 493 3
f 1 211 492
f 2 5 4
f 4 5 6
f 4 6 7
f 6 12 7
f 4 7 224
f 8 13 9
f 10 15 11
f 13 14 9
f 11 15 16
f 7 156 8
f 7 12 155
f 9 160 10
f 9 14 159
f 11 16 161
f 8 176 13
f 12 17 18
f 10 185 15
f 13 184 14
f 15 186 16
f 12 18 175
f 3 559 5
f 5 559 6
f 6 561 12
f 28 17 25
f 23 17 28
f 29 17 24
f 24 17 23
f 30 17 29
f 31 17 30
f 25 17 27
f 27 17 26
f 26 17 33
f 7 155 156
f 8 156 176
f 9 159 160
f 10 160 185
f 11 161 227
f 32 17 31
f 34 17 32
f 35 17 34
f 36 17 35
f 17 36 95
f 17 95 96
f 17 96 97
f 17 97 98
f 17 98 99
f 17 99 100
f 17 100 101
f 17 101 102
f 17 102 103
f 12 175 155
f 17 103 113
f 17 113 114
f 17 114 115
f 17 115 116
f 14 184 159
f 13 176 184
f 16 186 161
f 15 185 186
f 175 18 174
f 12 561 17
f 561 33 17
f 157 166 158
f 157 165 166
f 157 179 165
f 158 166 195
f 162 170 163
f 169 170 162
f 162 187 169
f 203 163 170
f 173 228 164
f 173 229 228
f 164 189 173
f 179 178 191
f 192 191 178
f 158 195 180
f 179 194 165
f 179 191 194
f 193 191 192
f 203 188 163
f 187 202 169
f 180 202 187
f 180 195 202
f 173 189 206
f 206 189 188
f 188 203 206
f 205 208 207
f 205 496 208
f 205 497 496
f 2 212 211
f 211 212 213
f 212 225 213
f 211 213 573
f 213 225 573
f 4 224 212
f 214 219 215
f 216 221 217
f 7 8 224
f 215 219 220
f 221 222 217
f 8 9 224
f 9 10 224
f 10 11 224
f 11 214 224
f 214 215 224
f 215 216 224
f 216 217 224
f 217 218 224
f 218 223 224
f 11 227 214
f 215 643 216
f 215 220 642
f 217 645 218
f 217 222 644
f 214 237 219
f 219 237 220
f 218 236 223
f 216 662 221
f 221 673 222
f 223 236 226
f 212 224 225
f 223 226 224
f 224 226 225
f 226 260 263
f 226 263 452
f 214 227 228
f 214 228 229
f 214 229 230
f 214 230 231
f 214 231 232
f 214 232 233
f 214 233 237
f 218 645 236
f 220 237 238
f 220 238 239
f 220 239 240
f 220 240 241
f 220 241 242
f 220 242 243
f 220 243 244
f 220 244 245
f 220 245 575
f 220 575 576
f 220 576 577
f 220 577 578
f 220 578 579
f 220 579 580
f 220 580 581
f 220 581 582
f 220 582 583
f 220 583 584
f 215 642 643
f 216 643 662
f 217 644 645
f 220 584 585
f 220 585 661
f 220 661 642
f 221 662 673
f 222 673 644
f 236 333 260
f 236 334 333
f 236 335 334
f 236 336 335
f 236 337 336
f 236 338 337
f 236 363 338
f 236 633 363
f 258 260 259
f 258 259 264
f 259 260 265
f 258 271 270
f 258 272 271
f 258 270 273
f 258 273 275
f 258 275 274
f 258 274 411
f 258 403 402
f 258 404 403
f 258 402 405
f 226 236 260
f 260 333 265
f 258 263 260
f 258 262 261
f 258 261 263
f 258 405 262
f 261 262 452
f 225 226 1331
f 226 452 455
f 226 455 462
f 226 462 463
f 226 463 466
f 226 466 473
f 226 473 474
f 261 452 263
f 226 477 485
f 226 485 486
f 226 474 477
f 226 486 490
f 226 490 491
f 226 491 1010
f 259 265 264
f 258 264 269
f 264 266 267
f 264 265 333
f 264 334 266
f 266 335 267
f 264 267 269
f 267 268 269
f 258 269 731
f 267 336 268
f 268 337 269
f 269 338 294
f 258 280 272
f 258 281 280
f 258 282 281
f 258 283 282
f 258 301 283
f 258 302 301
f 270 271 340
f 270 339 273
f 271 272 341
f 272 280 349
f 258 411 404
f 274 279 287
f 273 342 276
f 274 275 344
f 276 345 277
f 277 346 284
f 274 343 279
f 275 278 347
f 279 348 287
f 258 303 302
f 258 304 303
f 258 315 304
f 258 316 315
f 258 317 316
f 258 318 317
f 280 281 350
f 281 282 351
f 282 283 352
f 283 301 370
f 278 288 286
f 275 307 278
f 274 287 293
f 278 307 288
f 287 289 293
f 288 307 292
f 274 293 323
f 284 353 285
f 285 354 290
f 278 286 355
f 287 356 289
f 286 288 357
f 290 359 291
f 291 360 305
f 289 358 293
f 288 292 361
f 292 307 376
f 293 362 308
f 269 294 295
f 269 295 297
f 295 296 297
f 294 363 295
f 295 364 296
f 296 365 297
f 269 297 731
f 297 298 299
f 297 299 731
f 299 300 731
f 297 366 298
f 298 367 299
f 299 368 300
f 258 319 318
f 258 734 319
f 258 735 734
f 258 736 735
f 258 737 736
f 258 747 737
f 258 748 747
f 258 749 748
f 301 302 371
f 302 303 372
f 303 304 373
f 304 315 384
f 293 308 310
f 275 743 307
f 307 313 309
f 293 310 323
f 307 324 313
f 310 314 323
f 274 323 926
f 305 374 306
f 306 375 311
f 308 377 310
f 307 309 378
f 311 380 312
f 312 381 320
f 310 379 314
f 309 313 382
f 314 383 323
f 313 322 391
f 258 752 749
f 258 753 752
f 258 754 753
f 258 767 754
f 258 731 1091
f 258 768 767
f 258 769 768
f 258 770 769
f 258 773 770
f 315 316 385
f 316 317 386
f 317 318 387
f 318 319 388
f 273 276 1099
f 276 277 1099
f 277 284 1099
f 273 1099 275
f 313 324 322
f 307 743 324
f 323 325 330
f 284 285 1099
f 285 290 1099
f 290 291 1099
f 324 331 329
f 323 330 911
f 324 743 331
f 330 332 911
f 320 389 321
f 321 390 326
f 323 392 325
f 322 324 393
f 325 394 330
f 326 395 327
f 327 396 328
f 324 329 398
f 330 399 332
f 329 331 400
f 264 333 334
f 266 334 335
f 267 335 336
f 268 336 337
f 269 337 338
f 338 363 294
f 270 340 339
f 271 341 340
f 272 349 341
f 339 340 341
f 339 341 349
f 339 349 350
f 339 346 345
f 339 353 346
f 273 339 342
f 276 342 345
f 274 344 343
f 277 345 346
f 284 346 353
f 275 347 344
f 279 343 348
f 278 355 347
f 339 345 342
f 343 344 347
f 343 347 348
f 347 355 348
f 280 350 349
f 281 351 350
f 282 352 351
f 283 370 352
f 339 350 351
f 339 351 352
f 339 352 353
f 352 359 354
f 352 360 359
f 352 370 360
f 360 370 374
f 285 353 354
f 290 354 359
f 287 348 356
f 286 357 355
f 289 356 358
f 291 359 360
f 360 374 305
f 288 361 357
f 293 358 362
f 292 376 361
f 362 377 308
f 352 354 353
f 348 355 356
f 355 357 356
f 356 357 358
f 357 361 358
f 358 361 362
f 361 376 362
f 362 376 377
f 295 363 364
f 296 364 365
f 297 365 366
f 298 366 367
f 299 367 368
f 300 368 369
f 301 371 370
f 302 372 371
f 303 373 372
f 304 384 373
f 370 371 374
f 371 375 374
f 371 372 375
f 372 380 375
f 372 373 380
f 373 381 380
f 373 384 381
f 381 384 389
f 306 374 375
f 311 375 380
f 307 378 376
f 310 377 379
f 312 380 381
f 320 381 389
f 309 382 378
f 314 379 383
f 313 391 382
f 323 383 392
f 376 378 377
f 377 378 379
f 378 382 379
f 379 382 383
f 382 391 383
f 383 391 392
f 315 385 384
f 316 386 385
f 317 387 386
f 318 388 387
f 384 385 389
f 385 390 389
f 385 386 390
f 386 395 390
f 386 387 395
f 387 396 395
f 387 388 396
f 388 397 396
f 321 389 390
f 326 390 395
f 322 393 391
f 325 392 394
f 324 398 393
f 327 395 396
f 328 396 397
f 330 394 399
f 329 400 398
f 332 399 401
f 391 393 392
f 392 393 394
f 393 398 394
f 394 398 399
f 398 400 399
f 399 400 401
f 274 412 411
f 402 403 448
f 402 447 405
f 403 404 449
f 404 411 456
f 262 405 410
f 262 406 407
f 262 410 406
f 405 450 408
f 262 407 452
f 406 451 407
f 408 453 409
f 409 454 415
f 406 410 455
f 274 413 412
f 274 414 413
f 274 422 414
f 274 423 422
f 274 424 423
f 274 425 424
f 411 412 457
f 412 413 458
f 413 414 459
f 414 422 467
f 410 418 417
f 410 428 418
f 405 441 410
f 418 428 421
f 415 460 416
f 416 461 419
f 410 417 462
f 417 418 463
f 419 464 420
f 420 465 426
f 418 421 466
f 421 428 473
f 274 433 425
f 274 434 433
f 274 435 434
f 274 436 435
f 274 437 436
f 274 912 437
f 422 423 468
f 423 424 469
f 424 425 470
f 425 433 478
f 410 441 428
f 428 432 429
f 405 408 999
f 408 409 999
f 428 441 432
f 426 471 427
f 427 472 430
f 428 429 474
f 430 475 431
f 431 476 438
f 429 432 477
f 432 440 485
f 274 913 912
f 274 916 913
f 274 917 916
f 274 927 917
f 274 928 927
f 274 929 928
f 274 932 929
f 274 933 932
f 433 434 479
f 434 435 480
f 435 436 481
f 436 437 482
f 409 415 999
f 415 416 999
f 416 419 999
f 432 441 440
f 419 420 999
f 420 426 999
f 426 427 999
f 441 446 445
f 405 999 441
f 441 923 446
f 438 483 439
f 439 484 442
f 440 441 486
f 442 487 443
f 443 488 444
f 441 445 490
f 445 446 491
f 402 448 447
f 403 449 448
f 404 456 449
f 447 448 449
f 447 449 456
f 447 456 457
f 405 447 450
f 408 450 453
f 407 451 452
f 409 453 454
f 415 454 460
f 406 455 451
f 410 462 455
f 447 453 450
f 447 454 453
f 447 460 454
f 451 455 452
f 411 457 456
f 412 458 457
f 413 459 458
f 414 467 459
f 447 457 458
f 447 458 459
f 447 459 460
f 459 467 465
f 416 460 461
f 419 461 464
f 417 463 462
f 420 464 465
f 465 471 426
f 418 466 463
f 421 473 466
f 459 461 460
f 459 464 461
f 459 465 464
f 465 467 471
f 422 468 467
f 423 469 468
f 424 470 469
f 425 478 470
f 467 468 471
f 468 469 472
f 469 470 475
f 470 478 476
f 427 471 472
f 430 472 475
f 428 474 473
f 431 475 476
f 438 476 483
f 429 477 474
f 432 485 477
f 468 472 471
f 469 475 472
f 470 476 475
f 476 478 483
f 433 479 478
f 434 480 479
f 435 481 480
f 436 482 481
f 478 479 483
f 479 480 484
f 480 481 487
f 481 482 488
f 439 483 484
f 442 484 487
f 440 486 485
f 441 490 486
f 443 487 488
f 444 488 489
f 445 491 490
f 479 484 483
f 480 487 484
f 481 488 487
f 482 489 488
f 1 492 493
f 3 493 559
f 492 494 493
f 493 494 559
f 492 572 494
f 561 21 33
f 561 22 21
f 561 37 22
f 561 38 37
f 561 39 38
f 561 40 39
f 561 41 40
f 561 42 41
f 561 43 42
f 561 69 44
f 561 44 43
f 561 70 69
f 561 71 70
f 561 72 71
f 561 73 72
f 561 74 73
f 561 75 74
f 561 76 75
f 561 77 76
f 561 78 77
f 561 79 78
f 561 80 79
f 561 81 80
f 561 121 81
f 561 122 121
f 561 123 122
f 561 124 123
f 561 125 124
f 561 126 125
f 561 127 126
f 561 128 127
f 561 129 128
f 561 130 129
f 561 131 130
f 561 132 131
f 561 133 132
f 561 134 133
f 561 135 134
f 561 136 135
f 561 137 136
f 6 559 561
f 561 177 137
f 205 498 497
f 205 499 498
f 205 500 499
f 561 190 177
f 561 192 190
f 561 193 192
f 563 168 167
f 562 167 196
f 556 640 637
f 565 172 171
f 564 171 204
f 566 555 495
f 566 556 555
f 566 495 538
f 568 197 168
f 567 196 193
f 570 205 172
f 569 204 197
f 570 500 205
f 570 501 500
f 570 502 501
f 570 503 502
f 570 504 503
f 570 505 504
f 570 506 505
f 570 507 506
f 570 508 507
f 570 522 508
f 570 523 522
f 570 524 523
f 570 525 524
f 570 526 525
f 570 527 526
f 570 528 527
f 570 529 528
f 570 530 529
f 570 531 530
f 570 532 531
f 570 533 532
f 570 534 533
f 570 535 534
f 570 536 535
f 570 537 536
f 570 538 537
f 494 560 559
f 559 560 561
f 560 567 561
f 494 1332 560
f 561 567 193
f 566 640 556
f 566 646 640
f 562 563 167
f 563 568 168
f 564 565 171
f 565 570 172
f 568 569 197
f 562 196 567
f 564 204 569
f 566 538 571
f 570 571 538
f 560 562 567
f 560 1332 562
f 563 564 569
f 565 566 571
f 563 569 568
f 565 571 570
f 211 572 492
f 211 573 572
f 494 572 574
f 494 574 1332
f 572 573 574
f 573 1332 574
f 661 585 586
f 661 586 587
f 661 587 601
f 661 601 602
f 661 602 603
f 661 603 604
f 661 604 605
f 661 605 606
f 661 606 609
f 661 609 610
f 661 610 607
f 236 645 674
f 236 674 633
f 363 633 634
f 363 634 676
f 363 676 687
f 363 687 688
f 363 688 689
f 363 689 690
f 363 690 691
f 363 691 692
f 363 692 693
f 363 693 694
f 363 694 695
f 363 695 705
f 363 705 706
f 363 706 707
f 363 707 708
f 363 708 709
f 363 709 710
f 363 710 711
f 363 1330 364
f 637 640 638
f 639 638 640
f 639 640 641
f 639 641 660
f 639 660 652
f 661 607 608
f 661 608 611
f 661 611 612
f 661 612 613
f 661 613 614
f 661 614 615
f 661 615 616
f 661 616 658
f 652 660 653
f 660 654 653
f 660 655 654
f 661 657 655
f 661 658 659
f 661 659 656
f 661 656 657
f 660 661 655
f 674 675 633
f 363 711 712
f 363 712 713
f 363 713 714
f 363 714 715
f 363 715 716
f 363 716 717
f 363 717 1253
f 363 1253 1254
f 363 1254 1255
f 364 1330 365
f 365 1330 366
f 366 1330 367
f 367 1330 368
f 368 1330 369
f 363 1255 1256
f 363 1256 1257
f 363 1257 1258
f 363 1258 1259
f 363 1259 1260
f 363 1260 1261
f 363 1261 1262
f 363 1262 1263
f 363 1263 1264
f 363 1265 1266
f 363 1264 1265
f 369 1330 821
f 821 1330 822
f 822 1330 823
f 823 1330 835
f 835 1330 836
f 363 1285 1330
f 363 1266 1287
f 363 1287 1288
f 363 1288 1289
f 363 1289 1290
f 363 1290 1285
f 836 1330 840
f 840 1330 841
f 841 1330 855
f 855 1330 856
f 856 1330 861
f 861 1330 862
f 862 1330 879
f 879 1330 880
f 880 1330 898
f 898 1330 899
f 899 1330 900
f 900 1330 1125
f 1125 1330 1126
f 1126 1330 1127
f 225 1331 573
f 731 732 733
f 731 733 746
f 300 369 731
f 731 821 732
f 732 822 733
f 733 823 745
f 258 1091 773
f 319 734 824
f 734 735 825
f 735 736 826
f 736 737 827
f 737 747 837
f 291 305 1099
f 305 306 1099
f 306 311 1099
f 275 1099 743
f 331 743 740
f 311 312 1099
f 312 320 1099
f 320 321 1099
f 743 758 744
f 328 397 738
f 738 828 739
f 739 829 741
f 332 401 911
f 331 740 830
f 740 743 833
f 741 831 742
f 742 832 755
f 743 744 834
f 733 745 746
f 731 746 766
f 746 750 751
f 746 751 766
f 745 835 746
f 747 748 838
f 748 749 839
f 746 836 750
f 750 840 751
f 749 752 842
f 752 753 843
f 753 754 844
f 321 326 1099
f 326 327 1099
f 327 328 1099
f 328 738 1099
f 743 763 758
f 758 763 759
f 738 739 1099
f 741 742 1099
f 739 741 1099
f 743 787 763
f 763 781 764
f 755 845 756
f 756 846 757
f 757 847 760
f 744 758 848
f 758 759 849
f 760 850 761
f 761 851 762
f 762 852 777
f 759 763 853
f 763 764 854
f 751 765 766
f 731 766 1091
f 766 771 772
f 766 772 790
f 751 841 765
f 765 855 766
f 754 767 857
f 767 768 858
f 768 769 859
f 769 770 860
f 766 856 771
f 771 861 772
f 772 862 789
f 770 773 863
f 773 774 864
f 774 775 865
f 775 776 866
f 742 755 1099
f 755 756 1099
f 756 757 1099
f 757 760 1099
f 763 787 781
f 781 787 782
f 760 761 1099
f 761 762 1099
f 762 777 1099
f 777 778 1099
f 778 779 1099
f 743 1099 787
f 787 816 788
f 777 867 778
f 778 868 779
f 779 869 780
f 764 781 871
f 781 782 872
f 780 870 783
f 783 873 784
f 784 874 785
f 785 875 786
f 786 876 815
f 782 787 877
f 787 788 878
f 772 789 790
f 766 790 1091
f 773 1091 774
f 774 1091 775
f 775 1091 776
f 776 1091 791
f 791 1091 792
f 792 1091 793
f 790 808 809
f 790 809 1091
f 809 810 1091
f 793 1091 796
f 796 1091 797
f 797 1091 800
f 800 1091 801
f 801 1091 802
f 802 1091 803
f 803 1091 811
f 811 1091 812
f 812 1091 813
f 813 1091 814
f 814 1091 1099
f 789 879 790
f 790 880 808
f 776 791 881
f 791 792 882
f 792 793 883
f 793 796 886
f 794 884 795
f 795 885 798
f 796 797 887
f 797 800 890
f 798 888 799
f 799 889 804
f 800 801 891
f 801 802 892
f 802 803 893
f 804 894 805
f 805 895 806
f 807 897 814
f 806 896 807
f 808 898 809
f 809 899 810
f 803 811 901
f 811 812 902
f 812 813 903
f 813 814 904
f 779 780 1099
f 780 783 1099
f 783 784 1099
f 784 785 1099
f 785 786 1099
f 794 1099 815
f 786 815 1099
f 787 818 816
f 816 818 817
f 794 795 1099
f 795 798 1099
f 798 799 1099
f 799 804 1099
f 804 805 1099
f 805 806 1099
f 787 1099 818
f 807 814 1099
f 806 807 1099
f 818 820 819
f 818 1099 820
f 794 815 905
f 817 818 908
f 788 816 906
f 816 817 907
f 818 819 909
f 819 820 910
f 369 821 731
f 732 821 822
f 733 822 823
f 823 835 745
f 319 824 388
f 734 825 824
f 735 826 825
f 736 827 826
f 737 837 827
f 388 824 397
f 397 824 828
f 824 825 828
f 825 826 829
f 825 829 828
f 826 827 831
f 826 831 829
f 827 832 831
f 827 837 832
f 832 837 845
f 397 828 738
f 739 828 829
f 331 830 400
f 740 833 830
f 741 829 831
f 742 831 832
f 755 832 845
f 743 834 833
f 744 848 834
f 400 830 401
f 401 830 1001
f 830 833 1001
f 833 1004 1001
f 833 834 1004
f 834 1005 1004
f 834 848 1005
f 746 835 836
f 747 838 837
f 748 839 838
f 749 842 839
f 750 836 840
f 751 840 841
f 752 843 842
f 753 844 843
f 754 857 844
f 837 838 845
f 838 846 845
f 838 839 846
f 839 847 846
f 839 842 847
f 842 843 850
f 842 850 847
f 843 851 850
f 843 844 851
f 844 852 851
f 844 857 852
f 756 845 846
f 757 846 847
f 758 849 848
f 760 847 850
f 761 850 851
f 762 851 852
f 759 853 849
f 763 854 853
f 848 1015 1005
f 848 849 1015
f 849 1016 1015
f 849 853 1016
f 853 1020 1016
f 853 854 1020
f 854 1021 1020
f 841 855 765
f 766 855 856
f 767 858 857
f 768 859 858
f 769 860 859
f 771 856 861
f 772 861 862
f 770 863 860
f 773 864 863
f 774 865 864
f 775 866 865
f 776 881 866
f 857 858 867
f 852 857 867
f 858 868 867
f 858 859 868
f 859 869 868
f 859 860 869
f 860 870 869
f 860 863 870
f 863 873 870
f 863 864 873
f 864 874 873
f 864 865 874
f 865 866 875
f 865 875 874
f 866 881 876
f 866 876 875
f 852 867 777
f 778 867 868
f 779 868 869
f 780 869 870
f 764 871 854
f 781 872 871
f 783 870 873
f 784 873 874
f 785 874 875
f 786 875 876
f 782 877 872
f 787 878 877
f 788 906 878
f 854 871 1021
f 871 1035 1021
f 871 872 1035
f 872 1036 1035
f 872 877 1036
f 877 1041 1036
f 877 878 1041
f 878 1042 1041
f 878 906 1042
f 789 862 879
f 790 879 880
f 808 880 898
f 791 882 881
f 792 883 882
f 793 886 883
f 794 905 884
f 795 884 885
f 798 885 888
f 796 887 886
f 797 890 887
f 799 888 889
f 804 889 894
f 800 891 890
f 801 892 891
f 802 893 892
f 803 901 893
f 805 894 895
f 806 895 896
f 807 896 897
f 809 898 899
f 810 899 900
f 811 902 901
f 812 903 902
f 813 904 903
f 814 897 904
f 881 882 905
f 876 881 905
f 882 884 905
f 882 883 884
f 883 886 885
f 883 885 884
f 885 886 888
f 886 887 888
f 887 890 889
f 887 889 888
f 889 890 894
f 890 891 894
f 891 892 895
f 892 893 897
f 892 897 896
f 893 904 897
f 891 895 894
f 892 896 895
f 893 901 904
f 901 903 904
f 901 902 903
f 815 876 905
f 817 908 907
f 816 907 906
f 818 909 908
f 819 910 909
f 906 1059 1042
f 906 907 1059
f 907 908 1060
f 908 909 1074
f 909 910 1075
f 323 911 926
f 274 934 933
f 274 947 934
f 274 948 947
f 274 949 948
f 274 950 949
f 911 914 915
f 274 953 950
f 274 954 953
f 274 955 954
f 911 915 926
f 274 926 1163
f 274 956 955
f 911 1001 914
f 437 912 1002
f 912 913 1003
f 914 1004 915
f 915 1005 925
f 913 916 1006
f 916 917 1007
f 917 927 1017
f 427 430 999
f 430 431 999
f 431 438 999
f 446 923 920
f 438 439 999
f 439 442 999
f 442 443 999
f 441 943 923
f 923 938 924
f 444 489 918
f 918 1008 919
f 919 1009 921
f 446 920 1010
f 920 923 1013
f 921 1011 922
f 922 1012 935
f 923 924 1014
f 915 925 926
f 274 1163 956
f 926 930 931
f 926 931 946
f 925 1015 926
f 927 928 1018
f 928 929 1019
f 926 1016 930
f 930 1020 931
f 929 932 1022
f 932 933 1023
f 933 934 1024
f 443 444 999
f 444 918 999
f 918 919 999
f 923 943 938
f 938 943 939
f 919 921 999
f 921 922 999
f 922 935 999
f 935 936 999
f 441 999 943
f 943 961 944
f 935 1025 936
f 936 1026 937
f 937 1027 940
f 924 938 1028
f 938 939 1029
f 940 1030 941
f 941 1031 942
f 942 1032 957
f 939 943 1033
f 943 944 1034
f 931 945 946
f 926 946 970
f 946 951 952
f 946 952 970
f 931 1021 945
f 945 1035 946
f 934 947 1037
f 947 948 1038
f 948 949 1039
f 949 950 1040
f 946 1036 951
f 951 1041 952
f 952 1042 969
f 950 953 1043
f 953 954 1044
f 954 955 1045
f 955 956 1046
f 936 937 999
f 937 940 999
f 940 941 999
f 941 942 999
f 943 967 961
f 961 967 962
f 942 957 999
f 957 958 999
f 958 959 999
f 963 964 999
f 959 960 999
f 960 963 999
f 943 999 967
f 967 996 968
f 957 1047 958
f 958 1048 959
f 959 1049 960
f 944 961 1051
f 961 962 1052
f 960 1050 963
f 963 1053 964
f 964 1054 965
f 965 1055 966
f 966 1056 991
f 962 967 1057
f 967 968 1058
f 952 969 970
f 926 970 1163
f 970 984 985
f 970 985 1159
f 985 986 1159
f 956 1163 971
f 971 1163 972
f 972 1163 973
f 973 1163 974
f 974 1163 975
f 975 1163 976
f 976 1163 977
f 977 1163 978
f 978 1163 981
f 982 983 1163
f 981 1163 987
f 987 1163 988
f 988 1163 989
f 989 1163 990
f 983 990 1163
f 980 982 1163
f 969 1059 970
f 970 1060 984
f 956 971 1061
f 971 972 1062
f 972 973 1063
f 973 974 1064
f 974 975 1065
f 975 976 1066
f 976 977 1067
f 977 978 1068
f 978 981 1071
f 979 1069 980
f 980 1070 982
f 983 1073 990
f 982 1072 983
f 984 1074 985
f 985 1075 986
f 981 987 1077
f 987 988 1078
f 988 989 1079
f 989 990 1080
f 964 965 999
f 965 966 999
f 966 991 999
f 991 992 999
f 992 993 999
f 993 994 999
f 994 995 999
f 979 999 995
f 979 980 999
f 967 999 996
f 996 999 997
f 980 1163 999
f 998 999 1167
f 998 1000 999
f 991 1081 992
f 992 1082 993
f 993 1083 994
f 994 1084 995
f 979 995 1085
f 968 996 1086
f 996 997 1087
f 997 999 1089
f 998 1088 1000
f 999 1000 1090
f 401 1001 911
f 914 1001 1004
f 437 1002 482
f 912 1003 1002
f 913 1006 1003
f 915 1004 1005
f 916 1007 1006
f 917 1017 1007
f 482 1002 489
f 1002 1003 1008
f 1003 1006 1009
f 1006 1007 1011
f 1007 1017 1012
f 489 1008 918
f 919 1008 1009
f 446 1010 491
f 920 1013 1010
f 922 1011 1012
f 921 1009 1011
f 935 1012 1025
f 923 1014 1013
f 924 1028 1014
f 489 1002 1008
f 1003 1009 1008
f 1006 1011 1009
f 1007 1012 1011
f 1012 1017 1025
f 925 1005 1015
f 926 1015 1016
f 927 1018 1017
f 928 1019 1018
f 929 1022 1019
f 930 1016 1020
f 931 1020 1021
f 932 1023 1022
f 933 1024 1023
f 934 1037 1024
f 1017 1018 1025
f 1018 1019 1026
f 1019 1022 1027
f 1022 1023 1030
f 1023 1024 1031
f 1024 1037 1032
f 936 1025 1026
f 937 1026 1027
f 938 1029 1028
f 940 1027 1030
f 941 1030 1031
f 942 1031 1032
f 939 1033 1029
f 943 1034 1033
f 1018 1026 1025
f 1019 1027 1026
f 1022 1030 1027
f 1023 1031 1030
f 1024 1032 1031
f 226 1010 1333
f 1021 1035 945
f 946 1035 1036
f 947 1038 1037
f 948 1039 1038
f 949 1040 1039
f 951 1036 1041
f 952 1041 1042
f 950 1043 1040
f 953 1044 1043
f 954 1045 1044
f 955 1046 1045
f 956 1061 1046
f 1037 1038 1047
f 1038 1048 1047
f 1038 1039 1048
f 1039 1049 1048
f 1039 1040 1049
f 1040 1050 1049
f 1040 1043 1050
f 1043 1053 1050
f 1043 1044 1053
f 1044 1054 1053
f 1044 1045 1054
f 1045 1046 1055
f 1045 1055 1054
f 1046 1061 1056
f 1046 1056 1055
f 1032 1047 957
f 958 1047 1048
f 959 1048 1049
f 960 1049 1050
f 944 1051 1034
f 961 1052 1051
f 963 1050 1053
f 964 1053 1054
f 965 1054 1055
f 966 1055 1056
f 962 1057 1052
f 967 1058 1057
f 968 1086 1058
f 1032 1037 1047
f 969 1042 1059
f 970 1059 1060
f 984 1060 1074
f 971 1062 1061
f 972 1063 1062
f 973 1064 1063
f 974 1065 1064
f 975 1066 1065
f 979 1085 1069
f 976 1067 1066
f 977 1068 1067
f 978 1071 1068
f 980 1069 1070
f 981 1077 1071
f 982 1070 1072
f 983 1072 1073
f 985 1074 1075
f 986 1075 1076
f 987 1078 1077
f 988 1079 1078
f 989 1080 1079
f 990 1073 1080
f 907 1060 1059
f 908 1074 1060
f 1061 1062 1081
f 1056 1061 1081
f 1062 1082 1081
f 1062 1063 1082
f 1063 1083 1082
f 1063 1064 1083
f 1064 1084 1083
f 1064 1065 1084
f 1065 1066 1085
f 1065 1085 1084
f 1066 1069 1085
f 1066 1067 1069
f 1067 1070 1069
f 1067 1068 1070
f 1068 1072 1070
f 1068 1071 1073
f 1068 1073 1072
f 1071 1080 1073
f 909 1075 1074
f 910 1076 1075
f 1071 1077 1080
f 1077 1079 1080
f 1077 1078 1079
f 991 1056 1081
f 992 1081 1082
f 993 1082 1083
f 994 1083 1084
f 995 1084 1085
f 996 1087 1086
f 997 1089 1087
f 1000 1088 1090
f 999 1090 1089
f 1091 1092 1093
f 1091 1093 1095
f 1093 1094 1095
f 1091 1095 1106
f 1095 1096 1097
f 1091 1114 1099
f 1095 1097 1106
f 1091 1106 1114
f 810 900 1091
f 1091 1125 1092
f 1092 1126 1093
f 1093 1127 1094
f 1094 1128 1095
f 1095 1129 1096
f 1096 1130 1097
f 820 1099 1098
f 1099 1101 1100
f 1099 1103 1101
f 1101 1103 1102
f 1099 1121 1103
f 1103 1119 1104
f 820 1098 1132
f 1098 1099 1133
f 1099 1100 1134
f 1100 1101 1135
f 1101 1102 1136
f 1102 1103 1137
f 1103 1104 1138
f 1097 1105 1106
f 1106 1107 1108
f 1106 1108 1110
f 1108 1109 1110
f 1106 1110 1114
f 1114 1116 1121
f 1110 1111 1112
f 1110 1112 1114
f 1112 1113 1114
f 1114 1115 1117
f 1116 1117 1118
f 1114 1117 1116
f 1097 1131 1105
f 1105 1139 1106
f 1106 1140 1107
f 1107 1141 1108
f 1108 1142 1109
f 1109 1143 1110
f 1110 1144 1111
f 1111 1145 1112
f 1112 1146 1113
f 1113 1147 1114
f 1114 1148 1115
f 1116 1150 1124
f 1116 1118 1152
f 1117 1151 1118
f 1115 1149 1117
f 1099 1114 1121
f 1103 1121 1119
f 1119 1121 1120
f 1121 1123 1122
f 1116 1123 1121
f 1116 1124 1123
f 1104 1119 1153
f 1119 1120 1154
f 1120 1121 1155
f 1121 1122 1156
f 1122 1123 1157
f 1123 1124 1158
f 900 1125 1091
f 1092 1125 1126
f 1093 1126 1127
f 1094 1127 1128
f 1095 1128 1129
f 1096 1129 1130
f 1097 1130 1131
f 820 1132 910
f 1098 1133 1132
f 1099 1134 1133
f 1100 1135 1134
f 1101 1136 1135
f 1103 1138 1137
f 1102 1137 1136
f 910 1132 1076
f 1132 1133 1193
f 1133 1134 1194
f 1134 1135 1195
f 1135 1136 1196
f 1136 1137 1197
f 1137 1138 1198
f 1138 1153 1198
f 1105 1131 1139
f 1106 1139 1140
f 1107 1140 1141
f 1108 1141 1142
f 1109 1142 1143
f 1110 1143 1144
f 1111 1144 1145
f 1112 1145 1146
f 1113 1146 1147
f 1114 1147 1148
f 1115 1148 1149
f 1124 1150 1158
f 1116 1152 1150
f 1117 1149 1151
f 1118 1151 1152
f 1104 1153 1138
f 1119 1154 1153
f 1120 1155 1154
f 1121 1156 1155
f 1122 1157 1156
f 1123 1158 1157
f 1153 1154 1198
f 1154 1155 1198
f 1155 1156 1198
f 1156 1157 1198
f 1157 1158 1198
f 1150 1198 1158
f 970 1159 1163
f 1159 1160 1161
f 1159 1161 1163
f 1161 1162 1163
f 1163 1164 1165
f 1163 1165 1174
f 986 1076 1159
f 1159 1193 1160
f 1160 1194 1161
f 1161 1195 1162
f 1162 1196 1163
f 1163 1197 1164
f 1164 1198 1165
f 998 1167 1166
f 999 1171 1167
f 1167 1169 1168
f 999 1163 1192
f 1167 1171 1169
f 999 1192 1171
f 1169 1171 1170
f 1171 1186 1172
f 998 1166 1200
f 1166 1167 1201
f 1167 1168 1202
f 1168 1169 1203
f 1169 1170 1204
f 1170 1171 1205
f 1171 1172 1206
f 1165 1173 1174
f 1163 1174 1178
f 1174 1175 1176
f 1174 1176 1178
f 1176 1177 1178
f 1163 1178 1192
f 1178 1179 1180
f 1178 1180 1182
f 1180 1181 1182
f 1178 1182 1192
f 1184 1185 1192
f 1182 1183 1184
f 1182 1184 1192
f 1165 1199 1173
f 1173 1207 1174
f 1174 1208 1175
f 1175 1209 1176
f 1176 1210 1177
f 1177 1211 1178
f 1178 1212 1179
f 1179 1213 1180
f 1180 1214 1181
f 1181 1215 1182
f 1182 1216 1183
f 1184 1218 1185
f 1183 1217 1184
f 1171 1188 1186
f 1171 1192 1188
f 1186 1188 1187
f 1188 1190 1189
f 1188 1192 1190
f 1190 1192 1191
f 1172 1186 1220
f 1186 1187 1221
f 1187 1188 1222
f 1188 1189 1223
f 1189 1190 1224
f 1190 1191 1225
f 1191 1192 1226
f 1185 1219 1192
f 226 1333 1331
f 1076 1193 1159
f 1160 1193 1194
f 1161 1194 1195
f 1162 1195 1196
f 1163 1196 1197
f 1164 1197 1198
f 1165 1198 1199
f 1076 1132 1193
f 1133 1194 1193
f 1134 1195 1194
f 1135 1196 1195
f 1136 1197 1196
f 1137 1198 1197
f 998 1200 1088
f 1166 1201 1200
f 1167 1202 1201
f 1168 1203 1202
f 1169 1204 1203
f 1170 1205 1204
f 1171 1206 1205
f 1173 1199 1207
f 1174 1207 1208
f 1175 1208 1209
f 1176 1209 1210
f 1177 1210 1211
f 1178 1211 1212
f 1179 1212 1213
f 1180 1213 1214
f 1181 1214 1215
f 1182 1215 1216
f 1183 1216 1217
f 1184 1217 1218
f 1185 1218 1219
f 1186 1221 1220
f 1187 1222 1221
f 1172 1220 1206
f 1188 1223 1222
f 1189 1224 1223
f 1190 1225 1224
f 1191 1226 1225
f 1192 1219 1226
f 1010 1013 1333
f 1013 1014 1333
f 1014 1028 1333
f 1028 1029 1333
f 1029 1033 1333
f 1033 1034 1333
f 1034 1051 1333
f 1051 1052 1333
f 1052 1057 1333
f 1057 1058 1333
f 1058 1086 1333
f 1086 1087 1333
f 1087 1089 1333
f 1089 1090 1333
f 1088 1333 1090
f 1088 1200 1333
f 1200 1201 1333
f 1201 1202 1333
f 1317 647 646
f 1319 649 648
f 1318 648 680
f 1321 651 650
f 1320 650 683
f 1326 679 647
f 1327 680 679
f 1328 681 649
f 1329 683 681
f 684 1322 685
f 1330 684 651
f 1228 1323 1227
f 1227 1323 1229
f 1229 1323 1230
f 1230 1323 1231
f 1231 1323 1232
f 1232 1323 1233
f 1233 1323 1234
f 1234 1323 1235
f 1235 1323 1236
f 1236 1323 1247
f 1247 1323 1248
f 1248 1323 1249
f 1249 1323 1281
f 1281 1323 1282
f 1282 1323 1283
f 1330 1322 684
f 1283 1323 1284
f 1284 1323 1291
f 1127 1330 1128
f 1128 1330 1129
f 1129 1330 1130
f 1130 1330 1131
f 1131 1330 1139
f 1139 1330 1140
f 1140 1330 1141
f 1141 1330 1142
f 1142 1330 1143
f 1143 1330 1144
f 1144 1330 1145
f 1145 1330 1146
f 1291 1323 1292
f 1292 1323 1293
f 1293 1323 1294
f 1294 1323 1295
f 1295 1323 1296
f 1297 1323 1286
f 1286 1323 1285
f 1296 1323 1298
f 1298 1323 1297
f 566 1317 646
f 1317 1326 647
f 1318 1319 648
f 1319 1328 649
f 1320 1321 650
f 1321 1330 651
f 1317 1318 1327
f 1319 1320 1329
f 562 1332 563
f 1326 1327 679
f 1318 680 1327
f 1328 1329 681
f 1320 683 1329
f 1330 1285 1323
f 1330 1323 1322
f 1317 1327 1326
f 1319 1329 1328
f 563 1332 564
f 564 1332 565
f 565 1332 566
f 566 1332 1317
f 1317 1332 1318
f 1318 1332 1319
f 1319 1332 1320
f 1320 1332 1321
f 1321 1333 1330
f 573 1331 1332
f 1150 1330 1198
f 1146 1330 1147
f 1147 1330 1148
f 1148 1330 1149
f 1149 1330 1151
f 1151 1330 1152
f 1150 1152 1330
f 1198 1330 1199
f 1199 1330 1207
f 1207 1330 1208
f 1208 1330 1209
f 1209 1330 1210
f 1210 1330 1211
f 1211 1330 1212
f 1212 1330 1213
f 1213 1330 1214
f 1215 1330 1216
f 1214 1330 1215
f 1216 1330 1217
f 1217 1330 1333
f 1223 1224 1333
f 1217 1333 1218
f 1224 1225 1333
f 1225 1226 1333
f 1219 1333 1226
f 1218 1333 1219
f 1202 1203 1333
f 1204 1205 1333
f 1203 1204 1333
f 1205 1206 1333
f 1206 1220 1333
f 1220 1221 1333
f 1221 1222 1333
f 1222 1223 1333
f 1321 1332 1333
f 1331 1333 1332
f 19 18 17
f 19 20 18
f 45 33 21
f 46 21 22
f 47 24 23
f 48 29 24
f 49 28 25
f 51 25 27
f 50 27 26
f 52 23 28
f 53 30 29
f 54 31 30
f 55 32 31
f 56 34 32
f 57 26 33
f 58 35 34
f 59 36 35
f 60 95 36
f 45 21 46
f 46 22 61
f 57 45 46
f 46 64 51
f 47 48 24
f 48 53 29
f 49 25 51
f 50 51 27
f 52 28 49
f 52 47 23
f 53 54 30
f 54 55 31
f 55 56 32
f 50 26 57
f 57 33 45
f 56 58 34
f 58 59 35
f 59 60 36
f 60 104 95
f 52 49 51
f 50 57 51
f 52 51 48
f 52 48 47
f 48 51 56
f 48 54 53
f 48 56 54
f 54 56 55
f 57 46 51
f 51 64 56
f 56 59 58
f 56 104 59
f 59 104 60
f 61 22 37
f 62 37 38
f 63 38 39
f 64 39 40
f 65 40 41
f 66 41 42
f 67 42 43
f 68 43 44
f 82 44 69
f 62 61 37
f 62 38 63
f 63 39 64
f 64 40 65
f 46 61 62
f 46 62 64
f 62 63 64
f 64 65 66
f 65 41 66
f 66 42 67
f 67 43 68
f 68 44 82
f 64 66 68
f 66 67 68
f 64 68 85
f 56 64 93
f 83 69 70
f 84 70 71
f 85 71 72
f 86 72 73
f 87 73 74
f 88 74 75
f 82 69 83
f 83 70 84
f 84 71 85
f 68 82 83
f 68 83 85
f 83 84 85
f 85 72 86
f 86 73 87
f 87 74 88
f 64 85 93
f 85 86 87
f 85 87 89
f 87 88 89
f 89 75 76
f 90 76 77
f 91 77 78
f 92 78 79
f 93 79 80
f 94 80 81
f 88 75 89
f 89 76 90
f 90 77 91
f 85 89 93
f 89 90 91
f 89 91 93
f 56 93 153
f 91 78 92
f 92 79 93
f 93 80 94
f 91 92 93
f 93 94 138
f 19 17 120
f 104 96 95
f 105 97 96
f 106 98 97
f 107 99 98
f 108 100 99
f 120 17 116
f 20 174 18
f 109 101 100
f 110 102 101
f 111 103 102
f 112 113 103
f 104 105 96
f 105 106 97
f 106 107 98
f 107 108 99
f 108 109 100
f 56 108 104
f 104 106 105
f 104 108 106
f 19 181 20
f 106 108 107
f 109 110 101
f 110 111 102
f 111 112 103
f 56 120 108
f 108 110 109
f 108 112 110
f 110 112 111
f 108 120 112
f 117 114 113
f 118 115 114
f 119 116 115
f 112 117 113
f 117 118 114
f 118 119 115
f 119 120 116
f 112 118 117
f 112 120 118
f 19 120 181
f 118 120 119
f 56 153 120
f 20 181 174
f 138 81 121
f 139 121 122
f 140 122 123
f 141 123 124
f 142 124 125
f 143 125 126
f 144 126 127
f 94 81 138
f 138 121 139
f 139 122 140
f 93 138 140
f 138 139 140
f 93 140 144
f 140 123 141
f 141 124 142
f 142 125 143
f 140 141 142
f 140 142 144
f 143 126 144
f 142 143 144
f 93 144 153
f 145 127 128
f 146 128 129
f 147 129 130
f 148 130 131
f 149 131 132
f 150 132 133
f 151 133 134
f 152 134 135
f 153 135 136
f 154 136 137
f 144 127 145
f 145 128 146
f 146 129 147
f 147 130 148
f 148 131 149
f 144 145 146
f 144 146 148
f 146 147 148
f 144 148 153
f 148 149 150
f 149 132 150
f 150 133 151
f 151 134 152
f 152 135 153
f 153 136 154
f 148 150 153
f 150 151 152
f 150 152 153
f 155 176 156
f 179 157 158
f 159 185 160
f 187 162 163
f 164 228 189
f 165 195 166
f 196 167 168
f 169 203 170
f 204 171 172
f 155 175 176
f 179 158 180
f 181 175 174
f 120 183 181
f 120 153 183
f 181 176 175
f 182 137 177
f 183 178 179
f 154 137 182
f 153 154 182
f 153 182 183
f 183 179 180
f 181 183 234
f 159 184 185
f 234 227 161
f 234 161 186
f 187 163 188
f 235 189 228
f 234 184 176
f 181 234 176
f 234 185 184
f 234 186 185
f 235 180 187
f 183 180 235
f 183 235 234
f 235 187 188
f 235 188 189
f 165 194 195
f 196 168 197
f 183 192 178
f 198 177 190
f 182 177 198
f 182 200 183
f 182 198 200
f 183 200 192
f 200 190 192
f 199 194 191
f 199 191 193
f 201 193 196
f 198 190 200
f 199 193 201
f 199 195 194
f 199 202 195
f 201 196 197
f 201 197 209
f 199 201 209
f 202 203 169
f 204 172 205
f 246 229 173
f 246 173 206
f 209 197 204
f 199 246 202
f 199 247 246
f 199 248 247
f 199 209 248
f 246 203 202
f 246 206 203
f 209 204 205
f 209 205 207
f 509 208 496
f 210 207 208
f 209 207 210
f 210 208 509
f 209 210 509
f 237 233 232
f 234 228 227
f 234 235 228
f 246 230 229
f 247 231 230
f 248 232 231
f 249 237 232
f 249 238 237
f 246 247 230
f 247 248 231
f 248 249 232
f 250 239 238
f 251 240 239
f 252 241 240
f 253 242 241
f 254 243 242
f 255 244 243
f 256 245 244
f 257 575 245
f 249 250 238
f 250 251 239
f 251 252 240
f 252 253 241
f 248 250 249
f 248 252 250
f 250 252 251
f 248 256 252
f 252 254 253
f 253 254 242
f 254 255 243
f 255 256 244
f 256 257 245
f 252 256 254
f 254 256 255
f 256 588 257
f 248 594 256
f 510 496 497
f 511 497 498
f 512 498 499
f 513 499 500
f 514 500 501
f 515 501 502
f 509 496 510
f 510 497 511
f 511 498 512
f 512 499 513
f 209 509 511
f 509 510 511
f 209 511 515
f 511 512 513
f 209 540 248
f 513 500 514
f 514 501 515
f 515 502 516
f 511 513 515
f 513 514 515
f 209 515 540
f 516 502 503
f 517 503 504
f 518 504 505
f 519 505 506
f 520 506 507
f 521 507 508
f 516 503 517
f 517 504 518
f 518 505 519
f 515 516 517
f 515 517 519
f 517 518 519
f 519 506 520
f 520 507 521
f 521 508 539
f 515 519 540
f 519 520 521
f 519 521 540
f 539 508 522
f 540 522 523
f 541 523 524
f 542 524 525
f 543 525 526
f 544 526 527
f 545 527 528
f 539 522 540
f 521 539 540
f 540 523 541
f 541 524 542
f 540 541 542
f 542 525 543
f 543 526 544
f 544 527 545
f 540 542 544
f 542 543 544
f 540 544 548
f 546 528 529
f 547 529 530
f 548 530 531
f 549 531 532
f 550 532 533
f 551 533 534
f 552 534 535
f 553 535 536
f 554 536 537
f 557 537 538
f 545 528 546
f 546 529 547
f 547 530 548
f 548 531 549
f 544 545 546
f 544 546 548
f 540 548 558
f 546 547 548
f 540 558 624
f 549 532 550
f 550 533 551
f 551 534 552
f 552 535 553
f 553 536 554
f 554 537 557
f 548 549 550
f 548 550 552
f 550 551 552
f 548 552 558
f 552 553 554
f 552 554 558
f 495 555 538
f 558 555 556
f 557 538 555
f 557 555 558
f 558 556 663
f 554 557 558
f 588 576 575
f 589 577 576
f 590 578 577
f 591 579 578
f 592 580 579
f 593 581 580
f 257 588 575
f 588 589 576
f 589 590 577
f 590 591 578
f 256 590 588
f 588 590 589
f 256 594 590
f 590 592 591
f 591 592 579
f 592 593 580
f 593 594 581
f 590 594 592
f 592 594 593
f 594 582 581
f 595 583 582
f 596 584 583
f 597 585 584
f 598 586 585
f 599 587 586
f 248 624 594
f 594 595 582
f 595 596 583
f 596 597 584
f 594 596 595
f 594 598 596
f 596 598 597
f 248 540 624
f 597 598 585
f 598 599 586
f 599 600 587
f 594 618 598
f 598 600 599
f 598 618 600
f 600 601 587
f 617 602 601
f 618 603 602
f 619 604 603
f 620 605 604
f 621 606 605
f 622 609 606
f 600 617 601
f 617 618 602
f 618 619 603
f 600 618 617
f 594 624 618
f 618 620 619
f 619 620 604
f 620 621 605
f 621 622 606
f 618 622 620
f 620 622 621
f 618 624 622
f 623 608 607
f 624 611 608
f 625 610 609
f 626 607 610
f 627 612 611
f 628 613 612
f 629 614 613
f 630 615 614
f 631 616 615
f 626 623 607
f 623 624 608
f 626 624 623
f 622 625 609
f 625 626 610
f 622 626 625
f 622 624 626
f 624 627 611
f 627 628 612
f 628 629 613
f 629 630 614
f 630 631 615
f 631 632 616
f 624 628 627
f 624 630 628
f 558 671 624
f 624 671 630
f 628 630 629
f 630 632 631
f 671 632 630
f 635 634 633
f 635 636 634
f 660 641 640
f 642 662 643
f 644 674 645
f 680 648 649
f 683 650 651
f 663 556 637
f 664 637 638
f 664 638 639
f 664 639 652
f 682 640 646
f 672 660 640
f 642 661 662
f 671 656 659
f 665 652 653
f 666 653 654
f 667 654 655
f 669 655 657
f 668 657 656
f 663 637 664
f 632 658 616
f 670 659 658
f 664 652 665
f 665 653 666
f 666 654 667
f 667 655 669
f 669 657 668
f 668 656 671
f 670 658 632
f 670 671 659
f 558 663 664
f 558 666 671
f 558 664 666
f 664 665 666
f 666 667 669
f 666 669 671
f 669 668 671
f 670 632 671
f 672 661 660
f 672 662 661
f 672 640 682
f 672 673 662
f 672 677 673
f 672 682 677
f 644 673 674
f 636 676 634
f 677 633 675
f 635 633 677
f 635 678 636
f 636 678 676
f 635 677 678
f 677 674 673
f 682 686 677
f 677 675 674
f 678 687 676
f 678 696 687
f 677 697 678
f 678 697 696
f 682 646 647
f 682 647 679
f 649 681 680
f 682 679 680
f 682 680 681
f 682 681 683
f 682 683 686
f 684 683 651
f 686 683 684
f 686 684 685
f 677 1238 697
f 677 686 1238
f 696 688 687
f 697 689 688
f 698 690 689
f 699 691 690
f 700 692 691
f 701 693 692
f 702 694 693
f 703 695 694
f 696 697 688
f 697 698 689
f 698 699 690
f 699 700 691
f 700 701 692
f 701 702 693
f 702 703 694
f 703 704 695
f 697 699 698
f 697 700 699
f 697 702 700
f 700 702 701
f 697 719 702
f 702 704 703
f 702 719 704
f 704 705 695
f 718 706 705
f 719 707 706
f 720 708 707
f 721 709 708
f 722 710 709
f 723 711 710
f 724 712 711
f 704 718 705
f 718 719 706
f 719 720 707
f 704 719 718
f 697 727 719
f 719 721 720
f 720 721 708
f 719 723 721
f 721 722 709
f 722 723 710
f 723 724 711
f 724 725 712
f 721 723 722
f 719 727 723
f 723 725 724
f 725 713 712
f 726 714 713
f 727 715 714
f 728 716 715
f 729 717 716
f 730 1253 717
f 725 726 713
f 726 727 714
f 727 728 715
f 723 727 725
f 725 727 726
f 697 1302 727
f 728 729 716
f 729 730 717
f 730 1267 1253
f 727 729 728
f 727 1267 729
f 729 1267 730
f 1237 1228 1227
f 1239 1227 1229
f 686 685 1324
f 697 1238 1302
f 1237 1238 1228
f 1237 1227 1239
f 1237 1239 1238
f 1238 1239 1241
f 1240 1229 1230
f 1241 1230 1231
f 1242 1231 1232
f 1243 1232 1233
f 1244 1233 1234
f 1238 1323 1228
f 1245 1234 1235
f 1246 1235 1236
f 1250 1236 1247
f 1239 1229 1240
f 1240 1230 1241
f 1241 1231 1242
f 1242 1232 1243
f 686 1325 1238
f 1239 1240 1241
f 1238 1241 1245
f 1241 1242 1243
f 1243 1233 1244
f 1244 1234 1245
f 1245 1235 1246
f 1246 1236 1250
f 1241 1243 1245
f 1243 1244 1245
f 1238 1245 1302
f 1245 1246 1250
f 1324 685 1322
f 1251 1247 1248
f 1252 1248 1249
f 1250 1247 1251
f 1251 1248 1252
f 686 1324 1325
f 1245 1250 1252
f 1250 1251 1252
f 1245 1252 1302
f 1238 1325 1323
f 1267 1254 1253
f 1268 1255 1254
f 1269 1256 1255
f 1270 1257 1256
f 1271 1258 1257
f 1272 1259 1258
f 1267 1268 1254
f 1268 1269 1255
f 1269 1270 1256
f 727 1271 1267
f 1267 1269 1268
f 1267 1271 1269
f 1270 1271 1257
f 1271 1272 1258
f 1272 1273 1259
f 1269 1271 1270
f 727 1279 1271
f 1271 1273 1272
f 1273 1260 1259
f 1274 1261 1260
f 1275 1262 1261
f 1276 1263 1262
f 1277 1264 1263
f 1278 1265 1264
f 1280 1287 1266
f 1279 1266 1265
f 727 1302 1279
f 1273 1274 1260
f 1274 1275 1261
f 1275 1276 1262
f 1271 1275 1273
f 1273 1275 1274
f 1271 1279 1275
f 1275 1277 1276
f 1276 1277 1263
f 1277 1278 1264
f 1278 1279 1265
f 1279 1280 1266
f 1275 1279 1277
f 1277 1279 1278
f 1279 1305 1280
f 1299 1249 1281
f 1300 1281 1282
f 1301 1282 1283
f 1302 1283 1284
f 1303 1286 1285
f 1304 1297 1286
f 1305 1288 1287
f 1306 1289 1288
f 1307 1290 1289
f 1308 1285 1290
f 1309 1284 1291
f 1310 1291 1292
f 1311 1292 1293
f 1312 1293 1294
f 1313 1294 1295
f 1314 1295 1296
f 1315 1298 1297
f 1316 1296 1298
f 1252 1249 1299
f 1299 1281 1300
f 1300 1282 1301
f 1301 1283 1302
f 1302 1284 1309
f 1308 1303 1285
f 1303 1304 1286
f 1315 1297 1304
f 1252 1299 1300
f 1252 1300 1302
f 1300 1301 1302
f 1279 1302 1315
f 1315 1303 1307
f 1315 1304 1303
f 1280 1305 1287
f 1306 1288 1305
f 1306 1307 1289
f 1307 1308 1290
f 1279 1307 1305
f 1306 1305 1307
f 1279 1315 1307
f 1307 1303 1308
f 1309 1291 1310
f 1310 1292 1311
f 1316 1314 1296
f 1311 1293 1312
f 1312 1294 1313
f 1313 1295 1314
f 1315 1316 1298
f 1302 1309 1310
f 1302 1310 1312
f 1310 1311 1312
f 1302 1312 1315
f 1315 1312 1314
f 1312 1313 1314
f 1315 1314 1316
f 1325 1322 1323
f 1324 1322 1325

