# https://github.com/mikedh/trimesh
v 0.60000002 0.60000002 0.00000000
v 0.00000000 0.60000002 0.60000002
v 0.60000002 0.00000000 0.60000002
v 0.00000000 0.60000002 4.40000010
v 0.60000002 0.00000000 4.40000010
v 0.60000002 0.60000002 5.00000000
v 2.02500010 21.73999977 5.00000000
v 2.47499990 21.73999977 5.00000000
v 2.02500010 21.73999977 5.50000000
v 2.47499990 21.73999977 5.50000000
v 1.68469799 23.08740234 5.00000000
v 1.56774771 23.63760948 5.00000000
v 1.68469799 25.06340218 5.00000000
v 1.56774771 25.61360931 5.00000000
v 2.02500010 23.15973473 5.00000000
v 2.02500010 23.73480225 5.00000000
v 2.47499990 23.25538635 5.00000000
v 2.47499990 23.83045197 5.00000000
v 2.02500010 25.13573456 5.00000000
v 2.02500010 25.71080208 5.00000000
v 2.47499990 25.23138618 5.00000000
v 2.47499990 25.80645180 5.00000000
v 1.68469799 23.08740234 5.50000000
v 1.56774771 23.63760948 5.50000000
v 1.68469799 25.06340218 5.50000000
v 1.56774771 25.61360931 5.50000000
v 2.02500010 23.15973473 5.50000000
v 2.02500010 23.73480225 5.50000000
v 2.47499990 23.25538635 5.50000000
v 2.47499990 23.83045197 5.50000000
v 2.02500010 25.13573456 5.50000000
v 2.02500010 25.71080208 5.50000000
v 2.47499990 25.23138618 5.50000000
v 2.47499990 25.80645180 5.50000000
v 0.19999985 29.62500000 4.59999990
v 0.19999985 29.97500038 4.59999990
v 0.19999985 32.22499847 4.59999990
v 0.19999985 32.57500076 4.59999990
v 0.19999985 34.82500076 4.59999990
v 0.60000002 29.62500000 5.00000000
v 0.60000002 29.97500038 5.00000000
v 0.60000002 32.22499847 5.00000000
v 0.60000002 32.57500076 5.00000000
v 0.60000002 34.82500076 5.00000000
v 2.02500010 27.45999908 5.00000000
v 2.47499990 27.45999908 5.00000000
v 2.02500010 27.45999908 5.50000000
v 2.47499990 27.45999908 5.50000000
v 3.12500000 21.73999977 5.00000000
v 3.57500005 21.73999977 5.00000000
v 3.12500000 21.73999977 5.50000000
v 3.57500005 21.73999977 5.50000000
v 3.12500000 23.39354706 5.00000000
v 3.12500000 23.96861458 5.00000000
v 3.57500005 23.48919868 5.00000000
v 3.12500000 25.36954689 5.00000000
v 3.12500000 25.94461441 5.00000000
v 3.57500005 24.06426430 5.00000000
v 3.57500005 25.46519852 5.00000000
v 3.57500005 26.04026413 5.00000000
v 3.12500000 23.39354706 5.50000000
v 3.12500000 23.96861458 5.50000000
v 3.57500005 23.48919868 5.50000000
v 3.12500000 25.36954689 5.50000000
v 3.12500000 25.94461441 5.50000000
v 3.57500005 24.06426430 5.50000000
v 3.57500005 25.46519852 5.50000000
v 3.57500005 26.04026413 5.50000000
v 4.03225231 23.58638954 5.00000000
v 3.91530204 24.13659859 5.00000000
v 4.03225231 25.56238937 5.00000000
v 3.91530204 26.11259842 5.00000000
v 4.40000010 24.35000038 5.00000000
v 4.40000010 24.85000038 5.00000000
v 4.03225231 23.58638954 5.50000000
v 3.91530204 24.13659859 5.50000000
v 4.03225231 25.56238937 5.50000000
v 3.91530204 26.11259842 5.50000000
v 4.40000010 24.35000038 5.50000000
v 4.40000010 24.85000038 5.50000000
v 3.12500000 27.45999908 5.00000000
v 3.57500005 27.45999908 5.00000000
v 3.12500000 27.45999908 5.50000000
v 3.57500005 27.45999908 5.50000000
v 4.40000010 26.95000076 5.00000000
v 4.40000010 27.45000076 5.00000000
v 4.40000010 26.95000076 5.50000000
v 4.40000010 27.45000076 5.50000000
v 5.43635130 24.03087807 5.00000000
v 5.46558046 23.96098900 5.00000000
v 5.50137997 23.89383698 5.00000000
v 5.54359722 23.82970619 5.00000000
v 5.59205055 23.76887703 5.00000000
v 5.38919592 24.25392151 5.00000000
v 5.38721228 24.33166504 5.00000000
v 5.38835621 24.35000038 5.00000000
v 5.39807701 24.17765808 5.00000000
v 5.41381836 24.10320473 5.00000000
v 5.54122019 24.85000038 5.00000000
v 5.56347227 24.88896942 5.00000000
v 5.61451912 24.96635437 5.00000000
v 5.64653349 23.71160507 5.00000000
v 5.70681143 23.65813828 5.00000000
v 5.77262735 23.60870361 5.00000000
v 5.84369946 23.56351471 5.00000000
v 5.91972256 23.52276421 5.00000000
v 6.00037146 23.48662567 5.00000000
v 6.08530140 23.45525551 5.00000000
v 6.17414808 23.42878723 5.00000000
v 5.67149878 25.04217148 5.00000000
v 5.73416758 25.11609459 5.00000000
v 5.80225658 25.18780708 5.00000000
v 5.87547445 25.25700378 5.00000000
v 5.95350790 25.32338524 5.00000000
v 6.03602266 25.38667107 5.00000000
v 6.12266493 25.44658661 5.00000000
v 6.21306419 25.50287819 5.00000000
v 5.43635130 24.03087807 5.50000000
v 5.46558046 23.96098900 5.50000000
v 5.50137997 23.89383698 5.50000000
v 5.54359722 23.82970619 5.50000000
v 5.59205055 23.76887703 5.50000000
v 5.38919592 24.25392151 5.50000000
v 5.38721228 24.33166504 5.50000000
v 5.38835621 24.35000038 5.50000000
v 5.39807701 24.17765808 5.50000000
v 5.41381836 24.10320473 5.50000000
v 5.54122019 24.85000038 5.50000000
v 5.56347227 24.88896942 5.50000000
v 5.61451912 24.96635437 5.50000000
v 5.64653349 23.71160507 5.50000000
v 5.70681143 23.65813828 5.50000000
v 5.77262735 23.60870361 5.50000000
v 5.84369946 23.56351471 5.50000000
v 5.91972256 23.52276421 5.50000000
v 6.00037146 23.48662567 5.50000000
v 6.08530140 23.45525551 5.50000000
v 6.17414808 23.42878723 5.50000000
v 5.67149878 25.04217148 5.50000000
v 5.73416758 25.11609459 5.50000000
v 5.80225658 25.18780708 5.50000000
v 5.87547445 25.25700378 5.50000000
v 5.95350790 25.32338524 5.50000000
v 6.03602266 25.38667107 5.50000000
v 6.12266493 25.44658661 5.50000000
v 6.21306419 25.50287819 5.50000000
v 6.26653099 23.40733337 5.00000000
v 6.36205482 23.39098740 5.00000000
v 6.46031046 23.37981987 5.00000000
v 6.56087685 23.37387466 5.00000000
v 6.66332388 23.37318230 5.00000000
v 6.76721287 23.37774277 5.00000000
v 6.87209845 23.38753700 5.00000000
v 6.30683374 25.55530357 5.00000000
v 6.40357113 25.60363770 5.00000000
v 6.50286245 25.64767456 5.00000000
v 6.60428286 25.68722343 5.00000000
v 6.70739746 25.72211838 5.00000000
v 6.81176519 25.75220871 5.00000000
v 6.97753143 23.40252304 5.00000000
v 7.08306122 23.42263603 5.00000000
v 7.18823481 23.44779205 5.00000000
v 7.29260254 23.47788048 5.00000000
v 7.39571714 23.51277542 5.00000000
v 7.49713755 23.55232620 5.00000000
v 6.91693878 25.77736282 5.00000000
v 7.02246857 25.79747772 5.00000000
v 7.12790155 25.81246376 5.00000000
v 7.23278713 25.82225800 5.00000000
v 7.33667612 25.82681847 5.00000000
v 7.43912315 25.82612419 5.00000000
v 6.26653099 23.40733337 5.50000000
v 6.36205482 23.39098740 5.50000000
v 6.46031046 23.37981987 5.50000000
v 6.56087685 23.37387466 5.50000000
v 6.66332388 23.37318230 5.50000000
v 6.76721287 23.37774277 5.50000000
v 6.87209845 23.38753700 5.50000000
v 6.30683374 25.55530357 5.50000000
v 6.40357113 25.60363770 5.50000000
v 6.50286245 25.64767456 5.50000000
v 6.60428286 25.68722343 5.50000000
v 6.70739746 25.72211838 5.50000000
v 6.81176519 25.75220871 5.50000000
v 6.97753143 23.40252304 5.50000000
v 7.08306122 23.42263603 5.50000000
v 7.18823481 23.44779205 5.50000000
v 7.29260254 23.47788048 5.50000000
v 7.39571714 23.51277542 5.50000000
v 7.49713755 23.55232620 5.50000000
v 6.91693878 25.77736282 5.50000000
v 7.02246857 25.79747772 5.50000000
v 7.12790155 25.81246376 5.50000000
v 7.23278713 25.82225800 5.50000000
v 7.33667612 25.82681847 5.50000000
v 7.43912315 25.82612419 5.50000000
v 5.60231113 32.57500076 4.59999990
v 5.67670631 32.22499847 4.59999990
v 5.86157894 32.22499847 4.59999990
v 6.02500010 32.22499847 4.59999990
v 6.02500010 32.25973511 4.59999990
v 6.02500010 34.82500076 4.59999990
v 6.47499990 32.22499847 4.59999990
v 6.47499990 32.35538483 4.59999990
v 6.47499990 34.90645218 4.59999990
v 7.12500000 32.22499847 4.59999990
v 7.12500000 32.49354935 4.59999990
v 5.56774759 32.73760986 5.00000000
v 5.60231113 32.57500076 5.00000000
v 5.56774759 34.71361160 5.00000000
v 5.67670631 32.22499847 5.00000000
v 5.68469810 32.18740082 5.00000000
v 5.86157894 32.22499847 5.00000000
v 6.02500010 30.84000015 5.00000000
v 6.02500010 32.22499847 5.00000000
v 5.68469810 34.16340256 5.00000000
v 6.02500010 32.83480072 5.00000000
v 6.02500010 34.23573685 5.00000000
v 6.02500010 34.82500076 5.00000000
v 6.02500010 34.81080246 5.00000000
v 5.56774759 32.73760986 5.50000000
v 5.56774759 34.71361160 5.50000000
v 5.68469810 32.18740082 5.50000000
v 6.02500010 30.84000015 5.50000000
v 6.02500010 32.25973511 5.50000000
v 5.68469810 34.16340256 5.50000000
v 6.02500010 32.83480072 5.50000000
v 6.02500010 34.23573685 5.50000000
v 6.02500010 34.81080246 5.50000000
v 6.47499990 30.84000015 5.00000000
v 6.47499990 32.22499847 5.00000000
v 6.47499990 32.93045425 5.00000000
v 6.47499990 34.33138657 5.00000000
v 7.12500000 30.84000015 5.00000000
v 7.12500000 32.22499847 5.00000000
v 7.12500000 33.06861496 5.00000000
v 7.12500000 34.46954727 5.00000000
v 6.47499990 30.84000015 5.50000000
v 6.47499990 32.35538483 5.50000000
v 6.47499990 32.93045425 5.50000000
v 6.47499990 34.33138657 5.50000000
v 6.47499990 34.90645218 5.50000000
v 7.12500000 30.84000015 5.50000000
v 7.12500000 32.49354935 5.50000000
v 7.12500000 33.06861496 5.50000000
v 7.12500000 34.46954727 5.50000000
v 7.59642887 23.59636307 5.00000000
v 7.69316626 23.64469719 5.00000000
v 7.78693581 23.69712067 5.00000000
v 7.87733507 23.75341225 5.00000000
v 7.96397734 23.81332970 5.00000000
v 8.04649258 23.87661362 5.00000000
v 8.12452507 23.94299698 5.00000000
v 7.53968954 25.82018089 5.00000000
v 7.63794518 25.80901146 5.00000000
v 7.73346901 25.79266739 5.00000000
v 7.82585192 25.77121353 5.00000000
v 7.91469860 25.74474525 5.00000000
v 8.08027744 25.67723656 5.00000000
v 8.11294460 25.65972710 5.00000000
v 7.99962854 25.71337509 5.00000000
v 8.19774342 24.01219368 5.00000000
v 8.26583290 24.08390617 5.00000000
v 8.32850075 24.15782928 5.00000000
v 8.38548088 24.23364639 5.00000000
v 8.43652821 24.31103134 5.00000000
v 8.45877934 24.35000038 5.00000000
v 8.61294460 24.85000038 5.00000000
v 7.59642887 23.59636307 5.50000000
v 7.69316626 23.64469719 5.50000000
v 7.78693581 23.69712067 5.50000000
v 7.87733507 23.75341225 5.50000000
v 7.96397734 23.81332970 5.50000000
v 8.04649258 23.87661362 5.50000000
v 8.12452507 23.94299698 5.50000000
v 7.53968954 25.82018089 5.50000000
v 7.63794518 25.80901146 5.50000000
v 7.73346901 25.79266739 5.50000000
v 7.82585192 25.77121353 5.50000000
v 7.91469860 25.74474525 5.50000000
v 8.08027744 25.67723656 5.50000000
v 8.11294460 25.65972710 5.50000000
v 7.99962854 25.71337509 5.50000000
v 8.19774342 24.01219368 5.50000000
v 8.26583290 24.08390617 5.50000000
v 8.32850075 24.15782928 5.50000000
v 8.38548088 24.23364639 5.50000000
v 8.43652821 24.31103134 5.50000000
v 8.45877934 24.35000038 5.50000000
v 8.61294460 24.85000038 5.50000000
v 9.60000038 24.35000038 5.00000000
v 9.60000038 24.85000038 5.00000000
v 9.60000038 24.35000038 5.50000000
v 9.60000038 24.85000038 5.50000000
v 8.11294460 29.62500000 4.59999990
v 8.11294460 29.97500038 4.59999990
v 8.61294460 29.62500000 4.59999990
v 8.61294460 29.97500038 4.59999990
v 7.57499981 32.22499847 4.59999990
v 7.57499981 32.44330215 4.59999990
v 7.57499981 32.57500076 4.59999990
v 8.11294460 32.22499847 4.59999990
v 8.11294460 32.29999924 4.59999990
v 7.99768829 34.82500076 4.59999990
v 8.61294460 32.22499847 4.59999990
v 8.61294460 32.29999924 4.59999990
v 8.11294460 26.95000076 5.00000000
v 8.11294460 27.45000076 5.00000000
v 8.11294460 29.62500000 5.00000000
v 8.11294460 29.97500038 5.00000000
v 8.61294460 26.95000076 5.00000000
v 8.61294460 27.45000076 5.00000000
v 8.61294460 29.62500000 5.00000000
v 8.61294460 29.97500038 5.00000000
v 8.11294460 26.95000076 5.50000000
v 8.11294460 27.45000076 5.50000000
v 8.61294460 26.95000076 5.50000000
v 8.61294460 27.45000076 5.50000000
v 7.57499981 30.84000015 5.00000000
v 7.57499981 32.22499847 5.00000000
v 7.57499981 32.57500076 5.00000000
v 7.57499981 32.58919907 5.00000000
v 8.11294460 32.22499847 5.00000000
v 8.03225231 32.68638992 5.00000000
v 7.57499981 33.16426468 5.00000000
v 7.57499981 34.56519699 5.00000000
v 7.91530180 33.23659897 5.00000000
v 8.03225231 34.66239166 5.00000000
v 7.99768829 34.82500076 5.00000000
v 8.61294460 32.22499847 5.00000000
v 7.57499981 30.84000015 5.50000000
v 7.57499981 32.58919907 5.50000000
v 8.03225231 32.68638992 5.50000000
v 8.11294460 32.29999924 5.50000000
v 7.57499981 33.16426468 5.50000000
v 7.57499981 34.56519699 5.50000000
v 7.91530180 33.23659897 5.50000000
v 8.03225231 34.66239166 5.50000000
v 8.61294460 32.29999924 5.50000000
v 9.60000038 26.95000076 5.00000000
v 9.60000038 27.45000076 5.00000000
v 9.60000038 26.95000076 5.50000000
v 9.60000038 27.45000076 5.50000000
v 9.64653301 32.81160355 5.00000000
v 9.70681190 32.75813675 5.00000000
v 9.77262783 32.70870209 5.00000000
v 9.84369946 32.66351318 5.00000000
v 9.91972256 32.62276459 5.00000000
v 9.41381836 33.20320511 5.00000000
v 9.38919640 33.35391998 5.00000000
v 9.39807701 33.27766037 5.00000000
v 9.43635178 33.13087845 5.00000000
v 9.46558094 33.06098938 5.00000000
v 9.50137997 32.99383545 5.00000000
v 9.38721275 33.43166351 5.00000000
v 9.39213467 33.51055908 5.00000000
v 9.40394306 33.59026337 5.00000000
v 9.42258453 33.67043686 5.00000000
v 9.44798183 33.75074005 5.00000000
v 9.48002529 33.83082199 5.00000000
v 9.54359722 32.92970657 5.00000000
v 9.59205055 32.86887741 5.00000000
v 9.51857662 33.91034698 5.00000000
v 9.56347179 33.98896790 5.00000000
v 9.61451912 34.06635284 5.00000000
v 9.67149925 34.14216995 5.00000000
v 9.73416710 34.21609497 5.00000000
v 9.80225658 34.28780746 5.00000000
v 9.87547493 34.35700226 5.00000000
v 9.95350742 34.42338562 5.00000000
v 9.64653301 32.81160355 5.50000000
v 9.70681190 32.75813675 5.50000000
v 9.77262783 32.70870209 5.50000000
v 9.84369946 32.66351318 5.50000000
v 9.91972256 32.62276459 5.50000000
v 9.41381836 33.20320511 5.50000000
v 9.38919640 33.35391998 5.50000000
v 9.39807701 33.27766037 5.50000000
v 9.43635178 33.13087845 5.50000000
v 9.46558094 33.06098938 5.50000000
v 9.50137997 32.99383545 5.50000000
v 9.38721275 33.43166351 5.50000000
v 9.39213467 33.51055908 5.50000000
v 9.40394306 33.59026337 5.50000000
v 9.42258453 33.67043686 5.50000000
v 9.44798183 33.75074005 5.50000000
v 9.48002529 33.83082199 5.50000000
v 9.54359722 32.92970657 5.50000000
v 9.59205055 32.86887741 5.50000000
v 9.51857662 33.91034698 5.50000000
v 9.56347179 33.98896790 5.50000000
v 9.61451912 34.06635284 5.50000000
v 9.67149925 34.14216995 5.50000000
v 9.73416710 34.21609497 5.50000000
v 9.80225658 34.28780746 5.50000000
v 9.87547493 34.35700226 5.50000000
v 9.95350742 34.42338562 5.50000000
v 0.60000002 69.40000153 0.00000000
v 0.00000000 69.40000153 0.60000002
v 0.60000002 70.00000000 0.60000002
v 0.19999985 35.17499924 4.59999990
v 0.19999985 37.42499924 4.59999990
v 0.19999985 37.77500153 4.59999990
v 0.19999985 40.02500153 4.59999990
v 0.19999985 40.37500000 4.59999990
v 0.60000002 35.17499924 5.00000000
v 0.60000002 37.42499924 5.00000000
v 0.60000002 37.77500153 5.00000000
v 0.60000002 40.02500153 5.00000000
v 0.60000002 40.37500000 5.00000000
v 0.00000000 69.40000153 4.40000010
v 0.60000002 70.00000000 4.40000010
v 0.60000002 69.40000153 5.00000000
v 3.93560815 56.73559189 4.59999990
v 3.93560815 56.73559189 5.00000000
v 6.02500010 35.17499924 4.59999990
v 6.47499990 35.17499924 4.59999990
v 7.12500000 35.04461288 4.59999990
v 7.12500000 35.17499924 4.59999990
v 6.02500010 35.17499924 5.00000000
v 6.02500010 36.56000137 5.00000000
v 6.02500010 36.56000137 5.50000000
v 6.47499990 35.17499924 5.00000000
v 6.47499990 36.56000137 5.00000000
v 7.12500000 35.17499924 5.00000000
v 7.12500000 36.56000137 5.00000000
v 6.47499990 36.56000137 5.50000000
v 7.12500000 35.04461288 5.50000000
v 7.12500000 36.56000137 5.50000000
v 7.57499981 35.17499924 4.59999990
v 7.57499981 35.14026642 4.59999990
v 7.73841143 35.17499924 4.59999990
v 7.92329359 35.17499924 4.59999990
v 7.57499981 35.17499924 5.00000000
v 7.73841143 35.17499924 5.00000000
v 7.57499981 36.56000137 5.00000000
v 7.92329359 35.17499924 5.00000000
v 7.91530180 35.21259689 5.00000000
v 7.57499981 35.14026642 5.50000000
v 7.57499981 36.56000137 5.50000000
v 7.91530180 35.21259689 5.50000000
v 9.68469810 41.28740311 5.00000000
v 9.56774807 41.83760834 5.00000000
v 9.68469810 43.26340103 5.00000000
v 9.68469810 41.28740311 5.50000000
v 9.56774807 41.83760834 5.50000000
v 9.68469810 43.26340103 5.50000000
v 9.56774807 43.81361008 5.00000000
v 9.56774807 43.81361008 5.50000000
v 5.14721441 56.26440811 4.59999990
v 6.03605461 58.54999924 4.59999990
v 6.54161024 59.84999847 4.59999990
v 5.14721441 56.26440811 5.00000000
v 6.03605461 58.54999924 5.00000000
v 6.54161024 59.84999847 5.00000000
v 7.43560791 65.73558807 4.59999990
v 7.43560791 65.73558807 5.00000000
v 9.54121208 59.84999847 4.59999990
v 9.54121208 59.84999847 5.00000000
v 8.04141140 63.70663071 4.59999990
v 8.04141140 65.50000000 4.59999990
v 8.64721394 65.73558807 4.59999990
v 8.04141140 63.70663071 5.00000000
v 8.04141140 65.50000000 5.00000000
v 8.64721394 65.73558807 5.00000000
v 19.39999962 0.60000002 0.00000000
v 19.39999962 0.00000000 0.60000002
v 20.00000000 0.60000002 0.60000002
v 10.03184223 32.57500076 4.59999990
v 10.08530140 32.55525589 4.59999990
v 10.17414761 32.52878571 4.59999990
v 10.26653099 32.50733185 4.59999990
v 10.36205482 32.49098587 4.59999990
v 10.46030998 32.47982025 4.59999990
v 10.56087685 32.47387695 4.59999990
v 10.66332436 32.47318268 4.59999990
v 10.76721287 32.47774124 4.59999990
v 10.87209797 32.48753738 4.59999990
v 10.97753143 32.50252151 4.59999990
v 11.08306122 32.52263641 4.59999990
v 11.18823433 32.54779053 4.59999990
v 10.71738815 34.82500076 4.59999990
v 10.81176567 34.85220718 4.59999990
v 10.91693878 34.87736511 4.59999990
v 11.02246857 34.89747620 4.59999990
v 11.12790203 34.91246414 4.59999990
v 11.23278713 34.92225647 4.59999990
v 11.28261280 32.57500076 4.59999990
v 11.33667564 34.92681885 4.59999990
v 11.43912315 34.92612457 4.59999990
v 11.53969002 34.92018127 4.59999990
v 11.63794518 34.90901184 4.59999990
v 11.73346901 34.89266586 4.59999990
v 11.82585239 34.87121201 4.59999990
v 11.91469860 34.84474564 4.59999990
v 11.96815109 34.82500076 4.59999990
v 12.11294460 34.82500076 4.59999990
v 10.00037193 32.58662415 5.00000000
v 10.03184223 32.57500076 5.00000000
v 10.03602219 34.48667145 5.00000000
v 10.12266541 34.54658890 5.00000000
v 10.21306419 34.60287857 5.00000000
v 10.30683327 34.65530396 5.00000000
v 10.40357113 34.70363617 5.00000000
v 10.50286198 34.74767303 5.00000000
v 10.60428238 34.78722382 5.00000000
v 10.71738815 34.82500076 5.00000000
v 10.70739746 34.82212067 5.00000000
v 10.00037193 32.58662415 5.50000000
v 10.08530140 32.55525589 5.50000000
v 10.17414761 32.52878571 5.50000000
v 10.26653099 32.50733185 5.50000000
v 10.36205482 32.49098587 5.50000000
v 10.46030998 32.47982025 5.50000000
v 10.56087685 32.47387695 5.50000000
v 10.03602219 34.48667145 5.50000000
v 10.12266541 34.54658890 5.50000000
v 10.21306419 34.60287857 5.50000000
v 10.30683327 34.65530396 5.50000000
v 10.40357113 34.70363617 5.50000000
v 10.50286198 34.74767303 5.50000000
v 10.60428238 34.78722382 5.50000000
v 10.66332436 32.47318268 5.50000000
v 10.76721287 32.47774124 5.50000000
v 10.87209797 32.48753738 5.50000000
v 10.97753143 32.50252151 5.50000000
v 11.08306122 32.52263641 5.50000000
v 11.18823433 32.54779053 5.50000000
v 10.70739746 34.82212067 5.50000000
v 10.81176567 34.85220718 5.50000000
v 10.91693878 34.87736511 5.50000000
v 11.02246857 34.89747620 5.50000000
v 11.12790203 34.91246414 5.50000000
v 11.23278713 34.92225647 5.50000000
v 11.28261280 32.57500076 5.00000000
v 11.29260254 32.57788086 5.00000000
v 11.39571762 32.61277390 5.00000000
v 11.49713802 32.65232468 5.00000000
v 11.59642887 32.69636154 5.00000000
v 11.69316673 32.74469757 5.00000000
v 11.78693581 32.79712296 5.00000000
v 11.87733459 32.85341263 5.00000000
v 11.96397781 32.91333008 5.00000000
v 12.04649258 32.97661591 5.00000000
v 12.12452507 33.04299545 5.00000000
v 11.96815109 34.82500076 5.00000000
v 11.99962807 34.81337357 5.00000000
v 12.08027744 34.77723694 5.00000000
v 12.11294460 34.75972748 5.00000000
v 12.11294460 34.82500076 5.00000000
v 12.19774342 33.11219406 5.00000000
v 12.26583290 33.18390656 5.00000000
v 12.32850075 33.25782776 5.00000000
v 12.38548088 33.33364487 5.00000000
v 12.43652821 33.41102982 5.00000000
v 12.48142338 33.48965454 5.00000000
v 11.29260254 32.57788086 5.50000000
v 11.39571762 32.61277390 5.50000000
v 11.49713802 32.65232468 5.50000000
v 11.59642887 32.69636154 5.50000000
v 11.69316673 32.74469757 5.50000000
v 11.78693581 32.79712296 5.50000000
v 11.33667564 34.92681885 5.50000000
v 11.43912315 34.92612457 5.50000000
v 11.53969002 34.92018127 5.50000000
v 11.63794518 34.90901184 5.50000000
v 11.73346901 34.89266586 5.50000000
v 11.82585239 34.87121201 5.50000000
v 11.87733459 32.85341263 5.50000000
v 11.96397781 32.91333008 5.50000000
v 12.04649258 32.97661591 5.50000000
v 12.12452507 33.04299545 5.50000000
v 11.91469860 34.84474564 5.50000000
v 11.99962807 34.81337357 5.50000000
v 12.08027744 34.77723694 5.50000000
v 12.11294460 34.75972748 5.50000000
v 12.19774342 33.11219406 5.50000000
v 12.26583290 33.18390656 5.50000000
v 12.32850075 33.25782776 5.50000000
v 12.38548088 33.33364487 5.50000000
v 12.43652821 33.41102982 5.50000000
v 12.48142338 33.48965454 5.50000000
v 12.61294460 34.82500076 4.59999990
v 13.38705540 34.82500076 4.59999990
v 13.88705540 34.82500076 4.59999990
v 12.51997471 33.56917953 5.00000000
v 12.55201817 33.64926147 5.00000000
v 12.56806564 33.70000076 5.00000000
v 12.61294460 33.70000076 5.00000000
v 12.61294460 34.82500076 5.00000000
v 13.38705540 33.70000076 5.00000000
v 13.38705540 34.82500076 5.00000000
v 12.51997471 33.56917953 5.50000000
v 12.55201817 33.64926147 5.50000000
v 12.56806564 33.70000076 5.50000000
v 12.61294460 33.70000076 5.50000000
v 13.38705540 33.70000076 5.50000000
v 13.88705540 33.70000076 5.00000000
v 13.88705540 34.82500076 5.00000000
v 13.88705540 33.70000076 5.50000000
v 19.39999962 0.00000000 4.40000010
v 20.00000000 0.60000002 4.40000010
v 19.39999962 0.60000002 5.00000000
v 19.79999924 29.62500000 4.59999990
v 19.79999924 29.97500038 4.59999990
v 19.79999924 32.22499847 4.59999990
v 19.79999924 32.57500076 4.59999990
v 19.79999924 34.82500076 4.59999990
v 19.39999962 29.62500000 5.00000000
v 19.39999962 29.97500038 5.00000000
v 19.39999962 32.22499847 5.00000000
v 19.39999962 32.57500076 5.00000000
v 19.39999962 34.82500076 5.00000000
v 19.39999962 69.40000153 0.00000000
v 19.39999962 70.00000000 0.60000002
v 20.00000000 69.40000153 0.60000002
v 10.02499962 40.02500153 4.59999990
v 10.02499962 40.37500000 4.59999990
v 10.47500038 40.02500153 4.59999990
v 10.47500038 40.37500000 4.59999990
v 11.12500000 40.02500153 4.59999990
v 11.12500000 40.37500000 4.59999990
v 12.11294460 35.17499924 4.59999990
v 12.11294460 37.42499924 4.59999990
v 12.11294460 37.77500153 4.59999990
v 11.57499981 40.02500153 4.59999990
v 11.57499981 40.37500000 4.59999990
v 12.11294460 40.02500153 4.59999990
v 12.11294460 40.37500000 4.59999990
v 10.02499962 39.93999863 5.00000000
v 10.02499962 40.02500153 5.00000000
v 10.02499962 40.37500000 5.00000000
v 10.02499962 41.35973358 5.00000000
v 10.47500038 39.93999863 5.00000000
v 10.47500038 40.02500153 5.00000000
v 10.47500038 40.37500000 5.00000000
v 10.47500038 41.45538712 5.00000000
v 10.02499962 41.93480301 5.00000000
v 10.02499962 43.33573532 5.00000000
v 10.47500038 42.03045273 5.00000000
v 10.47500038 43.43138504 5.00000000
v 11.12500000 39.93999863 5.00000000
v 11.12500000 40.02500153 5.00000000
v 11.12500000 40.37500000 5.00000000
v 11.12500000 41.59354782 5.00000000
v 11.12500000 42.16861343 5.00000000
v 11.12500000 43.56954575 5.00000000
v 10.02499962 39.93999863 5.50000000
v 10.02499962 41.35973358 5.50000000
v 10.47500038 39.93999863 5.50000000
v 10.47500038 41.45538712 5.50000000
v 10.02499962 41.93480301 5.50000000
v 10.02499962 43.33573532 5.50000000
v 10.47500038 42.03045273 5.50000000
v 10.47500038 43.43138504 5.50000000
v 11.12500000 39.93999863 5.50000000
v 11.12500000 41.59354782 5.50000000
v 11.12500000 42.16861343 5.50000000
v 11.12500000 43.56954575 5.50000000
v 12.11294460 35.17499924 5.00000000
v 12.11294460 37.42499924 5.00000000
v 12.11294460 37.77500153 5.00000000
v 11.57499981 39.93999863 5.00000000
v 11.57499981 40.02500153 5.00000000
v 11.57499981 40.37500000 5.00000000
v 11.57499981 41.68919754 5.00000000
v 11.57499981 42.26426315 5.00000000
v 11.57499981 43.66519928 5.00000000
v 12.11294460 40.02500153 5.00000000
v 12.11294460 40.37500000 5.00000000
v 12.11294460 41.40000153 5.00000000
v 11.91530228 42.33659744 5.00000000
v 12.03225231 41.78638840 5.00000000
v 12.39999962 42.54999924 5.00000000
v 12.39999962 43.04999924 5.00000000
v 11.57499981 39.93999863 5.50000000
v 11.57499981 41.68919754 5.50000000
v 11.57499981 42.26426315 5.50000000
v 11.57499981 43.66519928 5.50000000
v 12.11294460 41.40000153 5.50000000
v 11.91530228 42.33659744 5.50000000
v 12.03225231 41.78638840 5.50000000
v 12.39999962 42.54999924 5.50000000
v 12.39999962 43.04999924 5.50000000
v 10.02499962 43.91080093 5.00000000
v 10.02499962 45.65999985 5.00000000
v 10.47500038 44.00645065 5.00000000
v 10.47500038 45.65999985 5.00000000
v 11.12500000 44.14461517 5.00000000
v 11.12500000 45.65999985 5.00000000
v 10.02499962 43.91080093 5.50000000
v 10.02499962 45.65999985 5.50000000
v 10.47500038 44.00645065 5.50000000
v 10.47500038 45.65999985 5.50000000
v 11.12500000 44.14461517 5.50000000
v 11.12500000 45.65999985 5.50000000
v 11.57499981 44.24026489 5.00000000
v 11.57499981 45.65999985 5.00000000
v 11.91530228 44.31259918 5.00000000
v 12.03225231 43.76239014 5.00000000
v 11.57499981 44.24026489 5.50000000
v 11.57499981 45.65999985 5.50000000
v 11.91530228 44.31259918 5.50000000
v 12.03225231 43.76239014 5.50000000
v 12.61294460 35.17499924 4.59999990
v 12.61294460 37.42499924 4.59999990
v 12.61294460 37.77500153 4.59999990
v 13.38705540 35.17499924 4.59999990
v 13.38705540 37.42499924 4.59999990
v 13.38705540 37.77500153 4.59999990
v 12.61294460 40.02500153 4.59999990
v 12.61294460 40.37500000 4.59999990
v 13.38705540 40.02500153 4.59999990
v 13.38705540 40.37500000 4.59999990
v 13.88705540 35.17499924 4.59999990
v 13.88705540 37.42499924 4.59999990
v 13.88705540 37.77500153 4.59999990
v 13.88705540 40.02500153 4.59999990
v 13.88705540 40.37500000 4.59999990
v 12.61294460 35.17499924 5.00000000
v 12.61294460 37.42499924 5.00000000
v 12.61294460 37.77500153 5.00000000
v 13.38705540 35.17499924 5.00000000
v 13.38705540 37.42499924 5.00000000
v 13.38705540 37.77500153 5.00000000
v 12.61294460 40.02500153 5.00000000
v 12.61294460 40.37500000 5.00000000
v 12.61294460 41.40000153 5.00000000
v 13.38705540 40.02500153 5.00000000
v 13.38705540 40.37500000 5.00000000
v 13.38705540 42.54999924 5.00000000
v 13.54122066 43.04999924 5.00000000
v 13.56347179 43.08897018 5.00000000
v 13.61451912 43.16635513 5.00000000
v 13.67149925 43.24217224 5.00000000
v 13.73416710 43.31609344 5.00000000
v 12.61294460 41.40000153 5.50000000
v 13.38705540 42.54999924 5.50000000
v 13.54122066 43.04999924 5.50000000
v 13.56347179 43.08897018 5.50000000
v 13.61451912 43.16635513 5.50000000
v 13.67149925 43.24217224 5.50000000
v 13.73416710 43.31609344 5.50000000
v 13.88705540 35.17499924 5.00000000
v 13.88705540 37.42499924 5.00000000
v 13.88705540 37.77500153 5.00000000
v 13.88705540 40.02500153 5.00000000
v 13.88705540 40.37500000 5.00000000
v 13.88705540 41.74027252 5.00000000
v 13.91972256 41.72276306 5.00000000
v 14.00037193 41.68662643 5.00000000
v 13.80225658 43.38780594 5.00000000
v 13.87547493 43.45700455 5.00000000
v 13.95350742 43.52338409 5.00000000
v 14.03602219 43.58666992 5.00000000
v 14.08530140 41.65525436 5.00000000
v 14.17414761 41.62878799 5.00000000
v 14.26653099 41.60733414 5.00000000
v 14.36205482 41.59098816 5.00000000
v 14.12266541 43.64658737 5.00000000
v 14.21306419 43.70287704 5.00000000
v 14.46030998 41.57981873 5.00000000
v 14.56087685 41.57387543 5.00000000
v 14.66332436 41.57318115 5.00000000
v 14.76721287 41.57774353 5.00000000
v 14.87209797 41.58753586 5.00000000
v 14.97753143 41.60252380 5.00000000
v 13.88705540 41.74027252 5.50000000
v 13.91972256 41.72276306 5.50000000
v 14.00037193 41.68662643 5.50000000
v 13.80225658 43.38780594 5.50000000
v 13.87547493 43.45700455 5.50000000
v 13.95350742 43.52338409 5.50000000
v 14.03602219 43.58666992 5.50000000
v 14.08530140 41.65525436 5.50000000
v 14.17414761 41.62878799 5.50000000
v 14.26653099 41.60733414 5.50000000
v 14.36205482 41.59098816 5.50000000
v 14.12266541 43.64658737 5.50000000
v 14.21306419 43.70287704 5.50000000
v 14.46030998 41.57981873 5.50000000
v 14.56087685 41.57387543 5.50000000
v 14.66332436 41.57318115 5.50000000
v 14.76721287 41.57774353 5.50000000
v 14.87209797 41.58753586 5.50000000
v 14.97753143 41.60252380 5.50000000
v 14.30683327 43.75530243 5.00000000
v 14.40357113 43.80363846 5.00000000
v 14.50286198 43.84767532 5.00000000
v 14.60428238 43.88722610 5.00000000
v 14.70739746 43.92211914 5.00000000
v 14.81176567 43.95220947 5.00000000
v 14.91693878 43.97736359 5.00000000
v 14.30683327 43.75530243 5.50000000
v 14.40357113 43.80363846 5.50000000
v 14.50286198 43.84767532 5.50000000
v 14.60428238 43.88722610 5.50000000
v 14.70739746 43.92211914 5.50000000
v 14.81176567 43.95220947 5.50000000
v 14.91693878 43.97736359 5.50000000
v 10.93560791 56.26440811 4.59999990
v 10.04676723 58.54999924 4.59999990
v 12.14721394 56.73559189 4.59999990
v 10.93560791 56.26440811 5.00000000
v 10.04676723 58.54999924 5.00000000
v 12.14721394 56.73559189 5.00000000
v 12.94721413 59.88298416 4.59999990
v 13.12994862 59.02328110 4.59999990
v 13.46674061 57.42499924 4.59999990
v 13.46674061 59.09487152 4.59999990
v 13.46674061 59.99341202 4.59999990
v 14.16986561 57.42499924 4.59999990
v 14.16986561 59.24432373 4.59999990
v 14.16986561 60.14286423 4.59999990
v 14.84174061 57.42499924 4.59999990
v 14.84174061 59.38713455 4.59999990
v 14.84174061 60.28567505 4.59999990
v 12.94721413 59.88298416 5.00000000
v 13.12994862 59.02328110 5.00000000
v 13.46674061 57.42499924 5.00000000
v 13.46674061 59.09487152 5.00000000
v 13.46674061 59.99341202 5.00000000
v 14.16986561 57.42499924 5.00000000
v 14.16986561 59.24432373 5.00000000
v 14.16986561 60.14286423 5.00000000
v 14.84174061 57.42499924 5.00000000
v 14.84174061 59.38713455 5.00000000
v 14.84174061 60.28567505 5.00000000
v 12.94721413 62.35298157 4.59999990
v 13.12994862 61.49328232 4.59999990
v 13.46674061 61.56486893 4.59999990
v 13.46674061 62.46340942 4.59999990
v 13.46674061 64.57499695 4.59999990
v 14.16986561 61.71432495 4.59999990
v 14.16986561 62.61286545 4.59999990
v 14.16986561 64.57499695 4.59999990
v 14.84174061 61.85713577 4.59999990
v 14.84174061 62.75567627 4.59999990
v 14.84174061 64.57499695 4.59999990
v 12.94721413 62.35298157 5.00000000
v 13.12994862 61.49328232 5.00000000
v 13.46674061 61.56486893 5.00000000
v 13.46674061 62.46340942 5.00000000
v 13.46674061 64.57499695 5.00000000
v 14.16986561 61.71432495 5.00000000
v 14.16986561 62.61286545 5.00000000
v 14.16986561 64.57499695 5.00000000
v 14.84174061 61.85713577 5.00000000
v 14.84174061 62.75567627 5.00000000
v 14.84174061 64.57499695 5.00000000
v 15.08306122 41.62263489 5.00000000
v 15.18823433 41.64779282 5.00000000
v 15.29260254 41.67787933 5.00000000
v 15.39571762 41.71277618 5.00000000
v 15.49713802 41.75232697 5.00000000
v 15.59642887 41.79636383 5.00000000
v 15.69316673 41.84469604 5.00000000
v 15.78693581 41.89712143 5.00000000
v 15.87733459 41.95341110 5.00000000
v 15.96397781 42.01332855 5.00000000
v 16.04649162 42.07661438 5.00000000
v 16.12452507 42.14299774 5.00000000
v 16.19774437 42.21219254 5.00000000
v 15.08306122 41.62263489 5.50000000
v 15.18823433 41.64779282 5.50000000
v 15.29260254 41.67787933 5.50000000
v 15.39571762 41.71277618 5.50000000
v 15.49713802 41.75232697 5.50000000
v 15.59642887 41.79636383 5.50000000
v 15.69316673 41.84469604 5.50000000
v 15.78693581 41.89712143 5.50000000
v 15.87733459 41.95341110 5.50000000
v 15.96397781 42.01332855 5.50000000
v 16.04649162 42.07661438 5.50000000
v 16.12452507 42.14299774 5.50000000
v 16.19774437 42.21219254 5.50000000
v 16.26583290 42.28390503 5.00000000
v 16.32850075 42.35783005 5.00000000
v 16.38548088 42.43364716 5.00000000
v 16.43652725 42.51103210 5.00000000
v 16.45878029 42.54999924 5.00000000
v 16.29318810 43.74186325 5.00000000
v 16.35346603 43.68839645 5.00000000
v 16.40794945 43.63112259 5.00000000
v 16.45640373 43.57029343 5.00000000
v 16.53442001 43.43901062 5.00000000
v 16.49861908 43.50616455 5.00000000
v 16.61164284 43.04999924 5.00000000
v 16.61278725 43.06833649 5.00000000
v 16.61080360 43.14608002 5.00000000
v 16.58618164 43.29679489 5.00000000
v 16.56364822 43.36912155 5.00000000
v 16.60192299 43.22233963 5.00000000
v 16.26583290 42.28390503 5.50000000
v 16.32850075 42.35783005 5.50000000
v 16.38548088 42.43364716 5.50000000
v 16.43652725 42.51103210 5.50000000
v 16.45878029 42.54999924 5.50000000
v 16.29318810 43.74186325 5.50000000
v 16.35346603 43.68839645 5.50000000
v 16.40794945 43.63112259 5.50000000
v 16.45640373 43.57029343 5.50000000
v 16.53442001 43.43901062 5.50000000
v 16.49861908 43.50616455 5.50000000
v 16.61164284 43.04999924 5.50000000
v 16.61278725 43.06833649 5.50000000
v 16.61080360 43.14608002 5.50000000
v 16.58618164 43.29679489 5.50000000
v 16.56364822 43.36912155 5.50000000
v 16.60192299 43.22233963 5.50000000
v 15.02246857 43.99747849 5.00000000
v 15.12790203 44.01246262 5.00000000
v 15.23278713 44.02225876 5.00000000
v 15.33667564 44.02681732 5.00000000
v 15.43912315 44.02612305 5.00000000
v 15.53969002 44.02017975 5.00000000
v 15.63794518 44.00901413 5.00000000
v 15.73346901 43.99266815 5.00000000
v 15.82585239 43.97121429 5.00000000
v 15.91469860 43.94474411 5.00000000
v 15.99962807 43.91337585 5.00000000
v 16.08027840 43.87723541 5.00000000
v 16.15630150 43.83648682 5.00000000
v 16.22737312 43.79129791 5.00000000
v 15.02246857 43.99747849 5.50000000
v 15.12790203 44.01246262 5.50000000
v 15.23278713 44.02225876 5.50000000
v 15.33667564 44.02681732 5.50000000
v 15.43912315 44.02612305 5.50000000
v 15.53969002 44.02017975 5.50000000
v 15.63794518 44.00901413 5.50000000
v 15.73346901 43.99266815 5.50000000
v 15.82585239 43.97121429 5.50000000
v 15.91469860 43.94474411 5.50000000
v 15.99962807 43.91337585 5.50000000
v 16.08027840 43.87723541 5.50000000
v 16.15630150 43.83648682 5.50000000
v 16.22737312 43.79129791 5.50000000
v 19.79999924 35.17499924 4.59999990
v 19.79999924 37.42499924 4.59999990
v 19.79999924 37.77500153 4.59999990
v 19.79999924 40.02500153 4.59999990
v 19.79999924 40.37500000 4.59999990
v 17.60000038 42.54999924 5.00000000
v 17.60000038 43.04999924 5.00000000
v 17.60000038 42.54999924 5.50000000
v 17.60000038 43.04999924 5.50000000
v 19.39999962 35.17499924 5.00000000
v 19.39999962 37.42499924 5.00000000
v 19.39999962 37.77500153 5.00000000
v 19.39999962 40.02500153 5.00000000
v 19.39999962 40.37500000 5.00000000
v 15.54486561 57.42499924 4.59999990
v 15.54486561 59.53659058 4.59999990
v 15.54486561 60.43513107 4.59999990
v 15.88165665 60.50671768 4.59999990
v 16.06439209 59.64701843 4.59999990
v 15.54486561 57.42499924 5.00000000
v 15.54486561 59.53659058 5.00000000
v 15.54486561 60.43513107 5.00000000
v 15.88165665 60.50671768 5.00000000
v 16.06439209 59.64701843 5.00000000
v 15.54486561 62.00658798 4.59999990
v 15.54486561 62.90512848 4.59999990
v 15.54486561 64.57499695 4.59999990
v 15.88165665 62.97671890 4.59999990
v 16.06439209 62.11701584 4.59999990
v 15.54486561 62.00658798 5.00000000
v 15.54486561 62.90512848 5.00000000
v 15.54486561 64.57499695 5.00000000
v 15.88165665 62.97671890 5.00000000
v 16.06439209 62.11701584 5.00000000
v 19.39999962 70.00000000 4.40000010
v 20.00000000 69.40000153 4.40000010
v 19.39999962 69.40000153 5.00000000
f 1 3 2
f 2 3 5
f 1 2 398
f 2 4 399
f 1 467 3
f 1 398 466
f 2 5 4
f 4 5 6
f 4 6 35
f 6 12 14
f 6 7 11
f 6 8 7
f 6 11 12
f 6 49 8
f 6 50 49
f 6 40 35
f 6 14 40
f 14 12 13
f 16 19 12
f 19 13 12
f 15 11 7
f 4 35 411
f 36 41 37
f 38 43 39
f 37 197 38
f 37 42 198
f 39 44 202
f 41 42 37
f 39 43 44
f 40 14 45
f 20 45 14
f 40 45 46
f 40 46 81
f 38 209 43
f 41 214 42
f 43 208 44
f 8 53 17
f 8 49 53
f 18 56 21
f 18 54 56
f 50 69 55
f 59 58 70
f 59 74 71
f 59 73 74
f 71 85 72
f 74 101 71
f 113 85 71
f 35 296 36
f 35 40 295
f 37 198 197
f 38 197 209
f 39 202 416
f 22 81 46
f 57 81 22
f 36 310 41
f 60 85 82
f 60 72 85
f 86 82 85
f 40 81 309
f 41 230 214
f 309 81 82
f 41 234 230
f 42 211 198
f 42 212 211
f 43 209 208
f 42 214 212
f 44 219 202
f 44 216 210
f 44 208 217
f 44 217 216
f 44 210 220
f 44 220 219
f 3 601 5
f 5 601 6
f 6 603 50
f 603 69 50
f 603 59 70
f 603 70 69
f 603 73 59
f 603 91 73
f 73 97 94
f 73 98 97
f 73 94 95
f 73 95 96
f 73 89 98
f 73 90 89
f 73 91 90
f 74 99 100
f 74 100 101
f 110 71 101
f 111 71 110
f 112 71 111
f 113 71 112
f 114 85 113
f 115 85 114
f 116 85 115
f 117 85 116
f 154 85 117
f 155 85 154
f 156 85 155
f 157 85 156
f 85 157 158
f 85 158 159
f 85 159 166
f 85 166 167
f 85 167 168
f 85 168 169
f 85 169 170
f 85 170 171
f 35 295 296
f 36 296 310
f 200 201 199
f 200 199 213
f 206 204 203
f 203 231 206
f 206 207 204
f 309 82 86
f 40 309 295
f 41 310 234
f 200 213 215
f 213 212 214
f 215 213 214
f 218 216 217
f 85 171 307
f 309 86 308
f 230 235 231
f 237 233 232
f 206 231 235
f 235 230 234
f 236 237 232
f 254 307 171
f 255 307 254
f 256 307 255
f 257 307 256
f 258 307 257
f 261 307 258
f 259 307 261
f 260 307 259
f 268 292 340
f 299 303 300
f 302 303 299
f 300 303 306
f 299 320 302
f 300 469 301
f 300 470 469
f 300 471 470
f 300 472 471
f 301 469 499
f 304 482 433
f 304 329 482
f 300 473 472
f 300 474 473
f 300 475 474
f 300 476 475
f 482 483 433
f 433 483 484
f 433 484 485
f 310 319 234
f 302 320 323
f 323 320 319
f 310 323 319
f 327 326 325
f 301 499 321
f 321 499 322
f 322 347 324
f 327 349 326
f 326 363 328
f 324 349 327
f 329 328 367
f 268 340 311
f 324 344 362
f 322 348 347
f 324 345 344
f 322 498 348
f 324 346 345
f 499 498 322
f 324 347 346
f 326 351 350
f 326 355 356
f 326 350 355
f 326 349 351
f 326 356 357
f 349 324 352
f 352 324 353
f 353 324 354
f 354 324 361
f 324 362 361
f 326 357 358
f 326 358 359
f 326 359 360
f 326 360 363
f 364 328 363
f 328 364 365
f 328 365 366
f 328 366 367
f 329 367 368
f 329 368 369
f 329 369 370
f 329 370 500
f 329 507 482
f 329 500 501
f 329 501 502
f 329 502 503
f 329 503 504
f 329 504 505
f 329 505 506
f 329 506 508
f 329 508 507
f 2 399 398
f 398 399 400
f 399 412 400
f 398 400 615
f 400 412 615
f 4 411 399
f 401 406 402
f 403 408 404
f 35 36 411
f 39 416 401
f 402 406 407
f 408 409 404
f 401 420 406
f 406 421 407
f 36 37 411
f 37 38 411
f 38 39 411
f 39 401 411
f 401 402 411
f 402 403 411
f 403 404 411
f 404 405 411
f 405 410 411
f 404 618 405
f 404 409 617
f 401 416 420
f 402 625 403
f 402 407 624
f 405 632 410
f 406 420 421
f 407 421 424
f 403 662 408
f 407 424 426
f 408 662 409
f 410 448 415
f 399 411 412
f 410 413 411
f 410 415 413
f 411 413 412
f 414 415 450
f 415 453 450
f 413 415 457
f 205 419 417
f 205 418 419
f 417 419 425
f 404 617 618
f 405 618 632
f 407 426 436
f 417 425 423
f 423 426 424
f 407 436 661
f 425 426 423
f 410 442 443
f 410 632 442
f 410 443 444
f 410 444 448
f 409 631 617
f 409 630 631
f 430 431 432
f 430 432 435
f 402 624 625
f 403 625 662
f 430 435 434
f 435 438 434
f 409 662 630
f 407 661 624
f 433 660 437
f 661 434 438
f 437 661 438
f 661 436 434
f 632 633 442
f 638 639 443
f 639 444 443
f 415 448 686
f 415 686 688
f 415 688 690
f 415 923 453
f 685 686 448
f 415 690 698
f 414 450 451
f 414 451 452
f 450 453 451
f 414 452 460
f 451 454 802
f 451 458 452
f 452 455 460
f 414 457 415
f 453 454 451
f 453 805 454
f 414 461 456
f 414 460 461
f 414 456 457
f 412 413 973
f 451 802 458
f 452 458 459
f 452 459 455
f 455 459 463
f 454 805 802
f 453 804 805
f 458 463 459
f 458 461 460
f 458 460 463
f 456 461 457
f 461 462 465
f 458 802 461
f 461 803 462
f 462 803 465
f 455 463 460
f 457 461 464
f 461 465 464
f 457 464 465
f 413 457 975
f 1 466 467
f 3 467 601
f 466 468 467
f 467 468 601
f 466 614 468
f 603 92 91
f 603 93 92
f 603 102 93
f 603 103 102
f 603 104 103
f 603 105 104
f 603 106 105
f 603 107 106
f 603 108 107
f 603 109 108
f 603 147 109
f 603 148 147
f 603 149 148
f 603 150 149
f 603 151 150
f 603 152 151
f 603 153 152
f 603 160 153
f 603 161 160
f 603 162 161
f 603 163 162
f 603 164 163
f 603 165 164
f 603 247 165
f 603 248 247
f 603 249 248
f 603 250 249
f 603 251 250
f 603 252 251
f 603 253 252
f 603 262 253
f 603 263 262
f 603 264 263
f 603 265 264
f 603 266 265
f 603 267 266
f 603 291 267
f 6 601 603
f 603 292 291
f 433 485 486
f 605 298 297
f 604 297 313
f 623 492 493
f 606 300 306
f 606 306 305
f 606 305 330
f 623 493 494
f 623 494 495
f 623 495 496
f 496 497 623
f 496 546 497
f 610 314 298
f 609 313 312
f 611 330 314
f 497 546 550
f 546 547 550
f 550 547 548
f 550 548 549
f 606 476 300
f 583 590 584
f 606 477 476
f 583 584 708
f 606 478 477
f 606 479 478
f 606 480 479
f 606 481 480
f 606 488 481
f 609 312 341
f 609 340 292
f 609 341 340
f 587 589 588
f 590 589 591
f 590 592 584
f 590 591 592
f 612 535 488
f 612 536 535
f 612 537 536
f 612 538 537
f 612 539 538
f 612 540 539
f 612 541 540
f 612 542 541
f 612 543 542
f 612 544 543
f 612 545 544
f 612 551 545
f 612 552 551
f 612 553 552
f 612 554 553
f 612 555 554
f 612 556 555
f 612 586 556
f 612 587 586
f 612 589 587
f 468 602 601
f 601 602 603
f 602 609 603
f 468 974 602
f 603 609 292
f 604 605 297
f 605 610 298
f 608 585 599
f 607 612 488
f 606 607 488
f 604 313 609
f 612 591 589
f 612 598 591
f 606 330 611
f 610 611 314
f 613 599 598
f 602 604 609
f 608 939 585
f 602 974 604
f 605 606 611
f 607 608 613
f 608 599 613
f 612 613 598
f 605 611 610
f 607 613 612
f 398 614 466
f 398 615 614
f 468 614 616
f 468 616 974
f 614 615 616
f 615 974 616
f 433 486 487
f 433 487 623
f 433 623 660
f 619 622 620
f 619 621 622
f 619 635 621
f 620 622 644
f 623 487 489
f 623 489 490
f 623 490 491
f 623 491 492
f 626 629 627
f 626 664 628
f 628 629 626
f 670 627 629
f 437 660 661
f 662 634 630
f 662 642 634
f 620 644 636
f 635 643 621
f 635 634 642
f 635 642 643
f 636 645 637
f 644 645 636
f 640 646 647
f 640 647 641
f 662 663 642
f 669 663 662
f 670 665 627
f 669 664 663
f 665 671 666
f 667 700 668
f 628 664 669
f 670 671 665
f 728 673 671
f 666 671 673
f 667 672 674
f 673 674 672
f 667 674 675
f 667 675 700
f 728 674 673
f 687 689 690
f 687 690 688
f 415 698 917
f 453 945 804
f 698 697 699
f 415 917 918
f 415 918 919
f 415 919 920
f 415 920 921
f 415 921 922
f 415 922 923
f 583 708 705
f 706 710 707
f 706 721 709
f 705 708 723
f 706 709 710
f 707 710 725
f 711 714 712
f 711 726 713
f 713 714 711
f 730 712 714
f 705 723 720
f 724 721 720
f 725 722 707
f 722 729 726
f 720 723 724
f 709 721 724
f 725 729 722
f 730 727 712
f 730 728 727
f 674 728 731
f 700 675 734
f 700 734 735
f 713 726 729
f 730 731 728
f 675 732 733
f 675 733 734
f 700 735 736
f 700 736 752
f 753 699 752
f 748 750 749
f 748 751 750
f 748 756 751
f 748 757 756
f 748 758 757
f 748 759 758
f 748 762 759
f 748 763 762
f 748 764 763
f 748 765 764
f 700 752 699
f 698 699 791
f 453 923 924
f 453 924 882
f 453 882 883
f 453 883 884
f 453 884 945
f 754 699 753
f 755 699 754
f 760 699 755
f 761 699 760
f 787 699 761
f 788 699 787
f 789 699 788
f 790 699 789
f 791 699 790
f 698 791 792
f 793 698 792
f 911 698 793
f 912 698 911
f 913 698 912
f 914 698 913
f 915 698 914
f 916 698 915
f 917 698 916
f 804 952 806
f 412 973 615
f 801 802 805
f 461 802 803
f 801 803 802
f 801 804 803
f 801 805 804
f 465 803 806
f 465 806 818
f 804 806 803
f 465 818 841
f 465 841 840
f 465 840 844
f 457 465 975
f 807 818 808
f 809 812 810
f 808 819 810
f 809 820 812
f 809 810 821
f 807 808 811
f 808 814 811
f 811 814 831
f 807 811 822
f 811 831 842
f 810 812 813
f 812 823 813
f 808 810 817
f 808 817 814
f 814 834 831
f 810 813 817
f 814 825 834
f 815 816 827
f 813 816 955
f 813 955 817
f 813 824 816
f 814 817 828
f 806 819 818
f 806 820 821
f 806 821 819
f 808 818 819
f 807 822 818
f 809 821 820
f 810 819 821
f 811 842 822
f 818 822 841
f 822 842 841
f 820 823 812
f 813 823 824
f 825 845 834
f 815 827 826
f 823 827 824
f 823 826 827
f 816 824 827
f 814 828 825
f 817 848 828
f 825 848 845
f 825 828 848
f 829 840 830
f 829 830 832
f 830 831 832
f 831 835 832
f 832 835 833
f 830 841 831
f 829 832 843
f 832 833 844
f 413 975 973
f 831 834 838
f 831 838 835
f 835 846 836
f 833 835 836
f 833 836 847
f 834 837 838
f 834 845 837
f 835 838 849
f 817 837 848
f 838 839 850
f 830 840 841
f 829 843 840
f 831 841 842
f 832 844 843
f 840 843 844
f 833 847 844
f 836 846 847
f 837 845 848
f 835 849 846
f 838 850 849
f 846 849 850
f 846 850 847
f 465 844 975
f 939 715 585
f 941 717 716
f 940 716 745
f 943 719 718
f 942 718 747
f 948 744 715
f 949 745 744
f 950 746 717
f 951 747 746
f 952 748 719
f 952 765 748
f 952 766 765
f 952 767 766
f 952 851 767
f 952 852 851
f 952 853 852
f 952 854 853
f 952 855 854
f 952 856 855
f 945 884 885
f 945 885 887
f 952 857 856
f 952 858 857
f 952 859 858
f 952 860 859
f 952 861 860
f 952 862 861
f 945 889 888
f 945 891 893
f 945 890 889
f 945 893 890
f 945 887 886
f 945 886 892
f 945 892 891
f 952 863 862
f 952 877 863
f 952 878 877
f 952 879 878
f 952 880 879
f 952 881 880
f 804 945 952
f 806 952 820
f 820 952 823
f 823 952 826
f 826 952 958
f 952 962 958
f 939 948 715
f 940 941 716
f 941 950 717
f 942 943 718
f 943 952 719
f 939 940 949
f 941 942 951
f 604 974 605
f 948 949 744
f 940 745 949
f 950 951 746
f 942 747 951
f 952 944 881
f 952 945 944
f 939 949 948
f 941 951 950
f 605 974 606
f 606 974 607
f 607 974 608
f 608 974 939
f 939 974 940
f 940 974 941
f 941 974 942
f 942 974 943
f 943 975 952
f 615 973 974
f 815 953 816
f 816 953 954
f 815 826 953
f 953 958 954
f 816 954 955
f 817 955 837
f 955 960 963
f 954 957 956
f 954 956 955
f 954 959 957
f 955 956 961
f 956 957 962
f 826 958 953
f 954 958 959
f 958 962 959
f 957 959 962
f 955 961 960
f 956 962 961
f 960 961 968
f 961 962 972
f 952 972 962
f 837 955 838
f 838 955 963
f 838 964 839
f 838 963 964
f 839 964 965
f 839 965 970
f 964 969 965
f 963 966 964
f 963 967 966
f 963 968 967
f 964 966 971
f 966 967 972
f 960 968 963
f 839 970 850
f 965 969 970
f 967 968 972
f 964 971 969
f 966 972 971
f 961 972 968
f 844 847 975
f 847 850 975
f 969 971 975
f 971 972 975
f 850 970 975
f 969 975 970
f 943 974 975
f 952 975 972
f 973 975 974
f 10 7 8
f 9 7 10
f 23 12 11
f 24 16 12
f 23 24 12
f 23 11 27
f 24 28 16
f 23 28 24
f 25 14 13
f 26 20 14
f 25 13 31
f 25 26 14
f 26 32 20
f 25 32 26
f 9 15 7
f 27 11 15
f 29 8 17
f 9 27 15
f 9 10 27
f 23 30 28
f 10 8 29
f 27 10 29
f 23 27 62
f 23 62 30
f 28 19 16
f 31 13 19
f 33 18 21
f 28 31 19
f 28 30 31
f 25 31 32
f 31 34 32
f 30 18 33
f 30 33 31
f 31 33 34
f 32 45 20
f 47 46 45
f 48 22 46
f 32 47 45
f 32 34 47
f 34 22 48
f 34 48 47
f 47 48 46
f 52 49 50
f 51 49 52
f 30 54 18
f 61 17 53
f 29 17 61
f 27 29 62
f 30 62 54
f 29 61 62
f 34 57 22
f 64 21 56
f 33 21 64
f 33 64 34
f 34 65 57
f 34 64 67
f 34 67 65
f 51 53 49
f 63 50 55
f 51 61 53
f 51 52 61
f 61 52 63
f 61 63 66
f 52 50 63
f 63 55 75
f 63 76 66
f 62 56 54
f 67 58 59
f 66 70 58
f 68 72 60
f 62 64 56
f 61 67 62
f 62 67 64
f 61 66 67
f 65 67 68
f 66 58 67
f 67 59 77
f 67 78 68
f 75 55 69
f 76 69 70
f 75 69 76
f 63 75 76
f 77 59 71
f 78 71 72
f 66 76 70
f 68 78 72
f 77 71 78
f 67 77 78
f 79 74 73
f 79 80 74
f 79 73 125
f 80 128 74
f 79 128 80
f 65 81 57
f 83 82 81
f 84 60 82
f 65 83 81
f 65 68 83
f 83 68 84
f 83 84 82
f 68 60 84
f 87 86 85
f 87 88 86
f 118 98 89
f 119 89 90
f 120 90 91
f 121 91 92
f 122 92 93
f 119 118 89
f 119 90 120
f 120 91 121
f 122 93 131
f 121 92 122
f 119 127 118
f 119 120 121
f 119 121 127
f 121 122 131
f 121 133 127
f 125 73 96
f 128 99 74
f 123 95 94
f 124 96 95
f 127 97 98
f 126 94 97
f 128 100 99
f 129 101 100
f 79 125 128
f 124 95 123
f 124 125 96
f 127 126 97
f 118 127 98
f 126 123 94
f 128 129 100
f 129 130 101
f 124 123 125
f 127 123 126
f 127 125 123
f 127 128 125
f 127 142 128
f 128 139 129
f 129 139 130
f 131 93 102
f 132 102 103
f 133 103 104
f 134 104 105
f 135 105 106
f 136 106 107
f 137 107 108
f 138 108 109
f 172 109 147
f 131 102 132
f 133 132 103
f 133 104 134
f 134 105 135
f 121 131 133
f 133 131 132
f 133 134 135
f 127 133 174
f 133 135 137
f 135 106 136
f 136 107 137
f 137 108 138
f 138 109 172
f 135 136 137
f 133 137 174
f 137 138 172
f 130 110 101
f 139 111 110
f 140 112 111
f 141 113 112
f 142 114 113
f 143 115 114
f 144 116 115
f 145 117 116
f 146 154 117
f 130 139 110
f 139 140 111
f 128 142 139
f 139 141 140
f 140 141 112
f 141 142 113
f 142 143 114
f 139 142 141
f 127 182 142
f 143 144 115
f 144 145 116
f 145 146 117
f 142 144 143
f 142 146 144
f 144 146 145
f 142 182 146
f 173 147 148
f 174 148 149
f 175 149 150
f 176 150 151
f 177 151 152
f 178 152 153
f 172 147 173
f 173 148 174
f 174 149 175
f 137 172 174
f 172 173 174
f 174 175 176
f 175 150 176
f 176 151 177
f 177 152 178
f 174 176 178
f 127 174 274
f 176 177 178
f 179 155 154
f 180 156 155
f 181 157 156
f 182 158 157
f 183 159 158
f 184 166 159
f 146 179 154
f 179 180 155
f 180 181 156
f 146 180 179
f 146 182 180
f 180 182 181
f 127 282 182
f 181 182 157
f 182 183 158
f 183 184 159
f 182 184 183
f 182 192 184
f 185 153 160
f 186 160 161
f 187 161 162
f 188 162 163
f 189 163 164
f 190 164 165
f 178 153 185
f 185 160 186
f 186 161 187
f 174 178 188
f 178 185 186
f 178 186 188
f 187 162 188
f 188 163 189
f 189 164 190
f 186 187 188
f 174 188 274
f 188 189 190
f 188 190 270
f 191 167 166
f 192 168 167
f 193 169 168
f 194 170 169
f 195 171 170
f 196 254 171
f 184 191 166
f 191 192 167
f 192 193 168
f 184 192 191
f 182 196 192
f 192 194 193
f 127 274 282
f 193 194 169
f 194 195 170
f 195 196 171
f 192 196 194
f 194 196 195
f 182 282 196
f 209 197 198
f 199 201 213
f 203 204 231
f 206 235 207
f 88 308 86
f 87 85 315
f 87 316 88
f 221 209 198
f 225 201 200
f 221 198 211
f 225 213 201
f 225 200 215
f 202 219 420
f 221 208 209
f 222 210 226
f 223 211 212
f 221 217 208
f 225 212 213
f 225 215 214
f 221 211 223
f 223 212 225
f 221 227 217
f 221 223 225
f 221 225 227
f 224 225 214
f 224 214 238
f 224 238 225
f 225 240 227
f 226 210 216
f 222 220 210
f 228 216 218
f 228 218 217
f 229 219 220
f 229 420 219
f 226 216 228
f 222 229 220
f 222 226 229
f 226 228 229
f 227 228 217
f 227 240 228
f 228 242 229
f 315 85 307
f 87 315 316
f 88 316 308
f 239 231 204
f 242 418 205
f 242 205 423
f 244 204 207
f 244 207 235
f 238 214 230
f 239 230 231
f 239 204 244
f 238 230 239
f 238 239 225
f 225 239 245
f 225 245 240
f 241 232 233
f 240 236 232
f 240 232 241
f 240 241 228
f 228 241 428
f 228 428 242
f 241 233 246
f 243 235 234
f 331 234 319
f 243 244 235
f 239 244 335
f 243 234 331
f 243 331 244
f 331 332 244
f 244 332 335
f 245 237 236
f 246 233 237
f 242 428 418
f 240 245 236
f 239 335 245
f 245 246 237
f 241 246 428
f 245 335 246
f 335 428 246
f 335 336 428
f 428 336 439
f 269 165 247
f 270 247 248
f 271 248 249
f 272 249 250
f 273 250 251
f 274 251 252
f 275 252 253
f 190 165 269
f 269 247 270
f 270 248 271
f 190 269 270
f 188 270 274
f 270 271 272
f 271 249 272
f 272 250 273
f 273 251 274
f 274 252 275
f 270 272 274
f 272 273 274
f 274 275 284
f 276 255 254
f 277 256 255
f 278 257 256
f 279 258 257
f 280 261 258
f 283 259 261
f 281 260 259
f 282 307 260
f 196 276 254
f 276 277 255
f 277 278 256
f 278 279 257
f 196 277 276
f 196 279 277
f 277 279 278
f 196 282 279
f 279 280 258
f 283 281 259
f 281 282 260
f 280 283 261
f 279 283 280
f 283 282 281
f 279 282 283
f 284 253 262
f 285 262 263
f 275 253 284
f 284 262 285
f 274 284 286
f 286 263 264
f 287 264 265
f 288 265 266
f 289 266 267
f 285 263 286
f 286 264 287
f 287 265 288
f 284 285 286
f 274 286 289
f 286 287 288
f 286 288 289
f 274 289 317
f 274 317 282
f 288 266 289
f 290 268 317
f 289 290 317
f 290 292 268
f 293 267 291
f 289 267 293
f 289 294 290
f 290 294 292
f 289 293 294
f 294 291 292
f 293 291 294
f 296 295 310
f 297 298 313
f 299 300 320
f 320 300 301
f 304 433 329
f 305 306 330
f 295 309 310
f 298 314 313
f 316 309 308
f 282 315 307
f 316 310 309
f 316 323 310
f 317 268 311
f 282 317 315
f 315 317 316
f 316 317 318
f 339 312 313
f 316 318 334
f 318 312 339
f 320 301 321
f 334 303 302
f 334 302 323
f 338 329 433
f 334 306 303
f 339 330 306
f 332 319 320
f 332 320 321
f 332 321 322
f 333 322 324
f 331 319 332
f 332 322 333
f 316 334 323
f 335 325 326
f 335 327 325
f 337 324 327
f 338 326 328
f 338 328 329
f 335 337 327
f 332 337 335
f 335 326 336
f 336 326 338
f 336 441 439
f 333 324 337
f 332 333 337
f 336 338 441
f 339 313 314
f 339 314 330
f 334 339 306
f 318 339 334
f 318 341 312
f 342 311 340
f 317 311 342
f 317 343 318
f 317 342 343
f 318 343 341
f 343 340 341
f 342 340 343
f 372 344 345
f 373 345 346
f 374 346 347
f 375 347 348
f 509 348 498
f 372 371 344
f 372 345 373
f 373 346 374
f 374 347 375
f 375 348 509
f 372 374 389
f 372 373 374
f 374 375 509
f 376 351 349
f 378 350 351
f 379 349 352
f 380 352 353
f 381 353 354
f 388 354 361
f 377 355 350
f 382 356 355
f 383 357 356
f 384 358 357
f 385 359 358
f 386 360 359
f 387 363 360
f 389 361 362
f 371 362 344
f 390 364 363
f 391 365 364
f 392 366 365
f 393 367 366
f 394 368 367
f 395 369 368
f 396 370 369
f 397 500 370
f 378 377 350
f 376 378 351
f 379 376 349
f 379 352 380
f 381 380 353
f 388 381 354
f 377 382 355
f 382 383 356
f 383 384 357
f 384 385 358
f 385 386 359
f 386 387 360
f 387 390 363
f 388 361 389
f 389 362 371
f 378 382 377
f 379 382 378
f 379 378 376
f 379 380 381
f 379 381 389
f 382 384 383
f 382 386 384
f 379 386 382
f 384 386 385
f 386 390 387
f 388 389 381
f 379 374 386
f 379 389 374
f 372 389 371
f 390 391 364
f 391 392 365
f 392 393 366
f 386 392 390
f 390 392 391
f 386 396 392
f 392 394 393
f 393 394 367
f 394 395 368
f 395 396 369
f 396 397 370
f 392 396 394
f 394 396 395
f 396 516 397
f 386 522 396
f 202 420 416
f 417 423 205
f 425 419 418
f 229 421 420
f 422 424 421
f 229 422 421
f 229 242 422
f 428 425 418
f 427 423 424
f 242 423 427
f 242 427 422
f 422 427 424
f 428 426 425
f 429 436 426
f 428 429 426
f 428 439 429
f 439 440 429
f 429 440 436
f 432 431 435
f 439 431 430
f 439 430 434
f 439 435 431
f 338 433 437
f 439 438 435
f 440 434 436
f 441 437 438
f 439 434 440
f 439 441 438
f 338 437 441
f 445 443 442
f 649 442 633
f 445 442 649
f 446 445 649
f 447 448 444
f 446 638 443
f 653 444 639
f 446 443 445
f 449 448 447
f 446 652 638
f 446 649 652
f 447 444 653
f 449 447 691
f 447 653 691
f 449 685 448
f 449 691 685
f 499 469 470
f 496 495 546
f 511 470 471
f 512 471 472
f 513 472 473
f 514 473 474
f 515 474 475
f 510 499 470
f 523 475 476
f 524 476 477
f 525 477 478
f 526 478 479
f 527 479 480
f 528 480 481
f 528 481 488
f 530 483 482
f 530 484 483
f 531 485 484
f 532 486 485
f 533 487 486
f 530 482 507
f 510 498 499
f 510 470 511
f 511 471 512
f 512 472 513
f 513 473 514
f 514 474 515
f 515 475 523
f 509 498 510
f 374 509 511
f 509 510 511
f 374 511 515
f 511 512 513
f 511 513 515
f 513 514 515
f 374 515 558
f 516 501 500
f 517 502 501
f 518 503 502
f 519 504 503
f 520 505 504
f 521 506 505
f 386 374 558
f 397 516 500
f 516 517 501
f 517 518 502
f 518 519 503
f 396 518 516
f 516 518 517
f 396 522 518
f 518 520 519
f 519 520 504
f 520 521 505
f 521 522 506
f 518 522 520
f 520 522 521
f 523 476 524
f 524 477 525
f 525 478 526
f 526 479 527
f 527 480 528
f 515 523 524
f 515 524 526
f 524 525 526
f 515 526 558
f 526 527 528
f 526 528 558
f 522 508 506
f 529 507 508
f 530 531 484
f 531 532 485
f 532 533 486
f 533 534 487
f 522 529 508
f 529 530 507
f 386 576 522
f 522 530 529
f 522 532 530
f 530 532 531
f 386 558 576
f 522 564 532
f 532 534 533
f 532 564 534
f 528 488 535
f 534 489 487
f 563 490 489
f 564 491 490
f 565 492 491
f 566 493 492
f 567 494 493
f 568 495 494
f 497 550 660
f 573 546 495
f 557 535 536
f 558 536 537
f 559 537 538
f 560 538 539
f 561 539 540
f 562 540 541
f 528 535 557
f 557 536 558
f 558 537 559
f 559 538 560
f 528 557 558
f 558 559 560
f 560 539 561
f 561 540 562
f 558 560 562
f 560 561 562
f 534 563 489
f 563 564 490
f 564 565 491
f 569 541 542
f 565 566 492
f 566 567 493
f 567 568 494
f 534 564 563
f 522 576 564
f 564 566 565
f 562 541 569
f 558 562 572
f 564 568 566
f 566 568 567
f 564 576 568
f 570 542 543
f 571 543 544
f 572 544 545
f 577 545 551
f 573 547 546
f 574 548 547
f 568 573 495
f 575 549 548
f 576 550 549
f 576 660 550
f 578 551 552
f 579 552 553
f 580 553 554
f 581 554 555
f 582 555 556
f 569 542 570
f 570 543 571
f 571 544 572
f 572 545 577
f 562 569 570
f 562 570 572
f 558 572 576
f 570 571 572
f 574 547 573
f 574 575 548
f 575 576 549
f 568 574 573
f 568 576 574
f 574 576 575
f 577 551 578
f 578 552 579
f 579 553 580
f 580 554 581
f 581 555 582
f 582 556 593
f 572 577 578
f 572 578 580
f 578 579 580
f 580 581 593
f 581 582 593
f 590 583 705
f 599 585 715
f 584 592 723
f 593 556 586
f 594 586 587
f 595 587 588
f 596 588 589
f 596 589 590
f 596 590 720
f 593 586 594
f 594 587 595
f 595 588 596
f 593 594 595
f 597 592 591
f 597 723 592
f 600 591 598
f 597 591 600
f 600 598 599
f 600 599 744
f 617 632 618
f 635 619 620
f 621 644 622
f 497 660 623
f 625 624 662
f 664 626 627
f 628 670 629
f 617 631 632
f 620 636 635
f 621 643 644
f 648 631 630
f 648 632 631
f 649 633 632
f 650 630 634
f 650 634 635
f 650 635 636
f 651 636 637
f 648 630 650
f 648 650 649
f 648 649 632
f 650 636 651
f 650 651 649
f 652 639 638
f 655 640 641
f 649 654 652
f 652 654 653
f 652 653 639
f 654 640 655
f 649 651 658
f 649 658 654
f 654 655 653
f 653 655 695
f 657 637 645
f 656 643 642
f 656 644 643
f 656 645 644
f 651 637 657
f 656 657 645
f 654 646 640
f 659 641 647
f 658 647 646
f 654 658 646
f 655 641 659
f 655 659 695
f 651 657 678
f 651 678 658
f 658 659 647
f 624 661 662
f 576 661 660
f 576 662 661
f 572 580 737
f 572 737 576
f 576 680 662
f 576 737 680
f 627 665 664
f 628 669 670
f 676 642 663
f 676 663 664
f 676 664 665
f 677 665 666
f 656 642 676
f 656 676 657
f 676 677 657
f 676 665 677
f 678 672 667
f 679 667 668
f 657 677 678
f 658 678 659
f 678 695 659
f 678 679 695
f 677 666 682
f 678 681 672
f 677 681 678
f 677 682 681
f 678 667 679
f 679 668 704
f 680 669 662
f 680 670 669
f 680 671 670
f 680 728 671
f 680 737 728
f 682 666 673
f 681 673 672
f 704 668 700
f 683 675 674
f 682 673 681
f 683 684 675
f 691 686 685
f 692 688 686
f 694 687 688
f 653 693 691
f 691 693 692
f 691 692 686
f 693 687 694
f 653 695 693
f 692 694 688
f 693 694 692
f 693 689 687
f 695 690 689
f 693 695 689
f 695 696 690
f 696 698 690
f 701 699 697
f 701 697 698
f 695 701 696
f 695 679 701
f 696 702 698
f 701 702 696
f 701 703 699
f 679 703 701
f 679 704 703
f 701 698 702
f 703 700 699
f 704 700 703
f 721 706 707
f 584 723 708
f 710 709 725
f 726 711 712
f 713 730 714
f 745 716 717
f 747 718 719
f 705 720 590
f 707 722 721
f 709 724 725
f 596 720 737
f 580 593 737
f 593 595 737
f 595 596 737
f 737 720 721
f 737 721 722
f 597 724 723
f 597 725 724
f 597 729 725
f 597 600 738
f 597 738 729
f 738 600 768
f 712 727 726
f 713 729 730
f 737 722 726
f 737 726 727
f 737 727 728
f 738 674 731
f 683 674 738
f 684 739 675
f 683 739 684
f 683 738 739
f 738 730 729
f 738 731 730
f 739 732 675
f 739 733 732
f 740 734 733
f 741 735 734
f 742 736 735
f 739 740 733
f 740 741 734
f 741 742 735
f 742 743 736
f 738 742 739
f 739 742 740
f 740 742 741
f 742 771 743
f 715 744 599
f 717 746 745
f 600 744 768
f 768 744 745
f 768 745 746
f 719 748 747
f 768 746 747
f 768 747 748
f 768 748 749
f 769 749 750
f 770 750 751
f 775 751 756
f 743 752 736
f 771 753 752
f 772 754 753
f 773 755 754
f 776 756 757
f 777 757 758
f 778 758 759
f 774 760 755
f 779 761 760
f 780 787 761
f 769 768 749
f 769 750 770
f 770 751 775
f 738 768 776
f 769 770 768
f 768 770 776
f 738 786 742
f 743 771 752
f 771 772 753
f 772 773 754
f 773 774 755
f 742 773 771
f 771 773 772
f 742 794 773
f 773 779 774
f 775 756 776
f 776 757 777
f 777 758 778
f 770 775 776
f 738 776 786
f 776 777 778
f 776 778 782
f 774 779 760
f 779 780 761
f 780 794 787
f 773 794 779
f 779 794 780
f 742 926 794
f 781 759 762
f 782 762 763
f 783 763 764
f 784 764 765
f 785 765 766
f 786 766 767
f 778 759 781
f 781 762 782
f 782 763 783
f 778 781 782
f 776 782 786
f 782 783 784
f 783 764 784
f 784 765 785
f 785 766 786
f 782 784 786
f 784 785 786
f 794 788 787
f 794 795 788
f 795 789 788
f 796 790 789
f 797 791 790
f 798 792 791
f 799 793 792
f 800 911 793
f 795 796 789
f 796 797 790
f 797 798 791
f 794 796 795
f 794 798 796
f 796 798 797
f 798 799 792
f 799 800 793
f 800 925 911
f 794 926 798
f 798 800 799
f 798 926 800
f 864 767 851
f 865 851 852
f 866 852 853
f 867 853 854
f 868 854 855
f 869 855 856
f 786 767 864
f 864 851 865
f 865 852 866
f 786 864 865
f 786 865 867
f 865 866 867
f 786 902 742
f 742 902 926
f 866 853 867
f 867 854 868
f 868 855 869
f 786 867 871
f 867 868 869
f 867 869 871
f 870 856 857
f 871 857 858
f 872 858 859
f 873 859 860
f 874 860 861
f 875 861 862
f 876 862 863
f 894 863 877
f 869 856 870
f 870 857 871
f 871 858 872
f 872 859 873
f 869 870 871
f 786 871 896
f 871 872 873
f 873 860 874
f 874 861 875
f 875 862 876
f 876 863 894
f 871 873 875
f 873 874 875
f 786 896 902
f 871 875 896
f 875 876 894
f 895 877 878
f 896 878 879
f 897 879 880
f 898 880 881
f 899 883 882
f 900 884 883
f 901 885 884
f 902 887 885
f 903 892 886
f 904 886 887
f 906 888 889
f 907 889 890
f 910 890 893
f 908 893 891
f 909 891 892
f 894 877 895
f 895 878 896
f 896 879 897
f 897 880 898
f 875 894 896
f 894 895 896
f 896 897 898
f 899 900 883
f 900 901 884
f 902 885 901
f 904 903 886
f 909 892 903
f 902 904 887
f 899 938 900
f 938 902 900
f 902 901 900
f 896 898 905
f 896 905 902
f 908 902 905
f 908 903 902
f 908 909 903
f 902 903 904
f 898 881 946
f 905 888 906
f 906 889 907
f 907 890 910
f 908 891 909
f 908 910 893
f 905 906 907
f 908 905 907
f 908 907 910
f 905 945 888
f 946 881 944
f 898 947 905
f 905 947 945
f 898 946 947
f 925 912 911
f 926 913 912
f 927 914 913
f 928 915 914
f 929 916 915
f 930 917 916
f 925 926 912
f 926 927 913
f 927 928 914
f 800 926 925
f 926 928 927
f 928 929 915
f 929 930 916
f 930 931 917
f 926 930 928
f 928 930 929
f 926 934 930
f 931 918 917
f 932 919 918
f 933 920 919
f 934 921 920
f 935 922 921
f 936 923 922
f 937 924 923
f 938 882 924
f 931 932 918
f 933 919 932
f 933 934 920
f 930 932 931
f 930 934 932
f 926 902 934
f 933 932 934
f 934 935 921
f 935 936 922
f 936 937 923
f 937 938 924
f 934 936 935
f 934 938 936
f 936 938 937
f 934 902 938
f 899 882 938
f 947 944 945
f 946 944 947

