# https://github.com/mikedh/trimesh
v 0.60000002 0.60000002 0.00000000
v 0.00000000 0.60000002 0.60000002
v 0.60000002 0.00000000 0.60000002
v 0.00000000 0.60000002 4.40000010
v 0.60000002 0.00000000 4.40000010
v 0.60000002 0.60000002 5.00000000
v 1.68469799 25.68740273 5.00000000
v 1.56774771 26.23760986 5.00000000
v 2.02500010 24.34000015 5.00000000
v 2.02500010 25.75973511 5.00000000
v 2.47499990 24.34000015 5.00000000
v 2.47499990 25.85538673 5.00000000
v 1.68469799 25.68740273 5.50000000
v 1.56774771 26.23760986 5.50000000
v 2.02500010 24.34000015 5.50000000
v 2.02500010 25.75973511 5.50000000
v 2.47499990 24.34000015 5.50000000
v 2.47499990 25.85538673 5.50000000
v 0.19999985 29.62500000 4.59999990
v 0.19999985 29.97500038 4.59999990
v 0.19999985 32.22499847 4.59999990
v 0.19999985 32.57500076 4.59999990
v 0.19999985 34.82500076 4.59999990
v 2.02500010 29.62500000 4.59999990
v 2.02500010 29.97500038 4.59999990
v 2.47499990 29.62500000 4.59999990
v 2.47499990 29.97500038 4.59999990
v 0.60000002 29.62500000 5.00000000
v 0.60000002 29.97500038 5.00000000
v 0.60000002 32.22499847 5.00000000
v 0.60000002 32.57500076 5.00000000
v 0.60000002 34.82500076 5.00000000
v 1.68469799 27.66340256 5.00000000
v 1.56774771 28.21360970 5.00000000
v 2.02500010 26.33480263 5.00000000
v 2.02500010 27.73573494 5.00000000
v 2.02500010 28.31080246 5.00000000
v 2.47499990 26.43045235 5.00000000
v 2.47499990 27.83138657 5.00000000
v 2.47499990 28.40645218 5.00000000
v 2.02500010 29.62500000 5.00000000
v 2.02500010 29.97500038 5.00000000
v 2.02500010 30.05999947 5.00000000
v 2.47499990 29.62500000 5.00000000
v 2.47499990 29.97500038 5.00000000
v 2.47499990 30.05999947 5.00000000
v 1.68469799 27.66340256 5.50000000
v 1.56774771 28.21360970 5.50000000
v 2.02500010 26.33480263 5.50000000
v 2.02500010 27.73573494 5.50000000
v 2.02500010 28.31080246 5.50000000
v 2.47499990 26.43045235 5.50000000
v 2.47499990 27.83138657 5.50000000
v 2.47499990 28.40645218 5.50000000
v 2.02500010 30.05999947 5.50000000
v 2.47499990 30.05999947 5.50000000
v 3.12500000 24.34000015 5.00000000
v 3.12500000 25.99354744 5.00000000
v 3.57500005 24.34000015 5.00000000
v 3.57500005 26.08919716 5.00000000
v 3.12500000 24.34000015 5.50000000
v 3.12500000 25.99354744 5.50000000
v 3.57500005 24.34000015 5.50000000
v 3.57500005 26.08919716 5.50000000
v 4.03225231 26.18638992 5.00000000
v 4.03225231 26.18638992 5.50000000
v 3.12500000 29.62500000 4.59999990
v 3.12500000 29.97500038 4.59999990
v 3.57500005 29.62500000 4.59999990
v 3.57500005 29.97500038 4.59999990
v 3.12500000 26.56861496 5.00000000
v 3.12500000 27.96954727 5.00000000
v 3.57500005 26.66426468 5.00000000
v 3.57500005 28.06519890 5.00000000
v 3.12500000 28.54461479 5.00000000
v 3.12500000 29.62500000 5.00000000
v 3.12500000 29.97500038 5.00000000
v 3.12500000 30.05999947 5.00000000
v 3.57500005 28.64026451 5.00000000
v 3.57500005 29.62500000 5.00000000
v 3.57500005 29.97500038 5.00000000
v 3.57500005 30.05999947 5.00000000
v 3.12500000 26.56861496 5.50000000
v 3.12500000 27.96954727 5.50000000
v 3.57500005 26.66426468 5.50000000
v 3.57500005 28.06519890 5.50000000
v 3.12500000 28.54461479 5.50000000
v 3.12500000 30.05999947 5.50000000
v 3.57500005 28.64026451 5.50000000
v 3.57500005 30.05999947 5.50000000
v 3.91530204 26.73659897 5.00000000
v 4.03225231 28.16238976 5.00000000
v 3.91530204 28.71259880 5.00000000
v 4.40000010 26.95000076 5.00000000
v 4.40000010 27.45000076 5.00000000
v 3.91530204 26.73659897 5.50000000
v 4.03225231 28.16238976 5.50000000
v 3.91530204 28.71259880 5.50000000
v 4.40000010 26.95000076 5.50000000
v 4.40000010 27.45000076 5.50000000
v 5.77262735 26.20870399 5.00000000
v 5.84369946 26.16351318 5.00000000
v 5.91972256 26.12276268 5.00000000
v 6.00037146 26.08662605 5.00000000
v 6.08530140 26.05525589 5.00000000
v 6.17414808 26.02878571 5.00000000
v 5.77262735 26.20870399 5.50000000
v 5.84369946 26.16351318 5.50000000
v 5.91972256 26.12276268 5.50000000
v 6.00037146 26.08662605 5.50000000
v 6.08530140 26.05525589 5.50000000
v 6.17414808 26.02878571 5.50000000
v 6.26653099 26.00733376 5.00000000
v 6.36205482 25.99098778 5.00000000
v 6.46031046 25.97981834 5.00000000
v 6.56087685 25.97387505 5.00000000
v 6.66332388 25.97318268 5.00000000
v 6.76721287 25.97774315 5.00000000
v 6.87209845 25.98753548 5.00000000
v 6.97753143 26.00252151 5.00000000
v 7.08306122 26.02263641 5.00000000
v 7.18823481 26.04779243 5.00000000
v 7.29260254 26.07788086 5.00000000
v 7.39571714 26.11277580 5.00000000
v 7.49713755 26.15232658 5.00000000
v 6.26653099 26.00733376 5.50000000
v 6.36205482 25.99098778 5.50000000
v 6.46031046 25.97981834 5.50000000
v 6.56087685 25.97387505 5.50000000
v 6.66332388 25.97318268 5.50000000
v 6.76721287 25.97774315 5.50000000
v 6.87209845 25.98753548 5.50000000
v 6.97753143 26.00252151 5.50000000
v 7.08306122 26.02263641 5.50000000
v 7.18823481 26.04779243 5.50000000
v 7.29260254 26.07788086 5.50000000
v 7.39571714 26.11277580 5.50000000
v 7.49713755 26.15232658 5.50000000
v 5.67670631 34.82500076 4.59999990
v 5.86158848 34.82500076 4.59999990
v 6.02500010 34.82500076 4.59999990
v 6.02500010 34.85973358 4.59999990
v 6.47499990 34.82500076 4.59999990
v 6.47499990 34.95538712 4.59999990
v 7.12500000 34.82500076 4.59999990
v 5.39807701 26.77765846 5.00000000
v 5.41381836 26.70320511 5.00000000
v 5.43635130 26.63087845 5.00000000
v 5.46558046 26.56098938 5.00000000
v 5.38919592 26.85392189 5.00000000
v 5.38721228 26.93166542 5.00000000
v 5.38835621 26.95000076 5.00000000
v 5.50137997 26.49383545 5.00000000
v 5.54359722 26.42970657 5.00000000
v 5.59205055 26.36887550 5.00000000
v 5.54122019 27.45000076 5.00000000
v 5.56347227 27.48896790 5.00000000
v 5.61451912 27.56635475 5.00000000
v 5.64653349 26.31160545 5.00000000
v 5.70681143 26.25813675 5.00000000
v 5.67149878 27.64216995 5.00000000
v 5.73416758 27.71609306 5.00000000
v 5.80225658 27.78780746 5.00000000
v 5.87547445 27.85700226 5.00000000
v 5.95350790 27.92338562 5.00000000
v 6.03602266 27.98667145 5.00000000
v 6.12266493 28.04658699 5.00000000
v 6.21306419 28.10287857 5.00000000
v 5.39807701 26.77765846 5.50000000
v 5.41381836 26.70320511 5.50000000
v 5.43635130 26.63087845 5.50000000
v 5.46558046 26.56098938 5.50000000
v 5.38919592 26.85392189 5.50000000
v 5.38721228 26.93166542 5.50000000
v 5.38835621 26.95000076 5.50000000
v 5.50137997 26.49383545 5.50000000
v 5.54359722 26.42970657 5.50000000
v 5.59205055 26.36887550 5.50000000
v 5.54122019 27.45000076 5.50000000
v 5.56347227 27.48896790 5.50000000
v 5.61451912 27.56635475 5.50000000
v 5.64653349 26.31160545 5.50000000
v 5.70681143 26.25813675 5.50000000
v 5.67149878 27.64216995 5.50000000
v 5.73416758 27.71609306 5.50000000
v 5.80225658 27.78780746 5.50000000
v 5.87547445 27.85700226 5.50000000
v 5.95350790 27.92338562 5.50000000
v 6.03602266 27.98667145 5.50000000
v 6.12266493 28.04658699 5.50000000
v 6.21306419 28.10287857 5.50000000
v 5.67670631 34.82500076 5.00000000
v 5.68469810 34.78740311 5.00000000
v 5.86158848 34.82500076 5.00000000
v 6.02500010 33.43999863 5.00000000
v 6.02500010 34.82500076 5.00000000
v 5.68469810 34.78740311 5.50000000
v 6.02500010 33.43999863 5.50000000
v 6.02500010 34.85973358 5.50000000
v 6.30683374 28.15530396 5.00000000
v 6.40357113 28.20363808 5.00000000
v 6.50286245 28.24767494 5.00000000
v 6.60428286 28.28722382 5.00000000
v 6.70739746 28.32211876 5.00000000
v 6.81176519 28.35220909 5.00000000
v 6.91693878 28.37736320 5.00000000
v 7.02246857 28.39747810 5.00000000
v 7.12790155 28.41246414 5.00000000
v 7.23278713 28.42225838 5.00000000
v 7.33667612 28.42681885 5.00000000
v 7.43912315 28.42612457 5.00000000
v 6.30683374 28.15530396 5.50000000
v 6.40357113 28.20363808 5.50000000
v 6.50286245 28.24767494 5.50000000
v 6.60428286 28.28722382 5.50000000
v 6.70739746 28.32211876 5.50000000
v 6.81176519 28.35220909 5.50000000
v 6.91693878 28.37736320 5.50000000
v 7.02246857 28.39747810 5.50000000
v 7.12790155 28.41246414 5.50000000
v 7.23278713 28.42225838 5.50000000
v 7.33667612 28.42681885 5.50000000
v 7.43912315 28.42612457 5.50000000
v 6.47499990 33.43999863 5.00000000
v 6.47499990 34.82500076 5.00000000
v 7.12500000 33.43999863 5.00000000
v 7.12500000 34.82500076 5.00000000
v 6.47499990 33.43999863 5.50000000
v 6.47499990 34.95538712 5.50000000
v 7.12500000 33.43999863 5.50000000
v 7.59642887 26.19636154 5.00000000
v 7.69316626 26.24469566 5.00000000
v 7.59642887 26.19636154 5.50000000
v 7.69316626 26.24469566 5.50000000
v 8.11294460 29.62500000 4.59999990
v 8.11294460 29.97500038 4.59999990
v 8.61294460 29.62500000 4.59999990
v 8.61294460 29.97500038 4.59999990
v 8.11294460 32.22499847 4.59999990
v 8.11294460 32.57500076 4.59999990
v 7.57499981 34.82500076 4.59999990
v 8.11294460 34.82500076 4.59999990
v 8.11294460 34.90000153 4.59999990
v 8.61294460 32.22499847 4.59999990
v 8.61294460 32.57500076 4.59999990
v 8.61294460 34.82500076 4.59999990
v 8.61294460 34.90000153 4.59999990
v 9.38705540 29.62500000 4.59999990
v 9.38705540 29.97500038 4.59999990
v 9.88705540 29.62500000 4.59999990
v 9.88705540 29.97500038 4.59999990
v 9.38705540 32.22499847 4.59999990
v 9.38705540 32.57500076 4.59999990
v 9.88705540 32.22499847 4.59999990
v 9.88705540 32.57500076 4.59999990
v 9.38705540 34.82500076 4.59999990
v 9.88705540 34.82500076 4.59999990
v 7.78693581 26.29712105 5.00000000
v 7.53968954 28.42018127 5.00000000
v 7.63794518 28.40901184 5.00000000
v 7.73346901 28.39266586 5.00000000
v 7.87733507 26.35341263 5.00000000
v 7.96397734 26.41332817 5.00000000
v 8.04649258 26.47661400 5.00000000
v 8.12452507 26.54299736 5.00000000
v 7.82585192 28.37121391 5.00000000
v 7.91469860 28.34474564 5.00000000
v 7.99962854 28.31337547 5.00000000
v 8.08027744 28.27723694 5.00000000
v 8.11294460 28.25972557 5.00000000
v 8.11294460 29.62500000 5.00000000
v 8.11294460 29.97500038 5.00000000
v 8.19774342 26.61219215 5.00000000
v 8.26583290 26.68390656 5.00000000
v 8.32850075 26.75782967 5.00000000
v 8.38548088 26.83364677 5.00000000
v 8.43652821 26.91103172 5.00000000
v 8.45877934 26.95000076 5.00000000
v 8.61294460 27.45000076 5.00000000
v 8.61294460 29.62500000 5.00000000
v 8.61294460 29.97500038 5.00000000
v 7.78693581 26.29712105 5.50000000
v 7.53968954 28.42018127 5.50000000
v 7.63794518 28.40901184 5.50000000
v 7.73346901 28.39266586 5.50000000
v 7.87733507 26.35341263 5.50000000
v 7.96397734 26.41332817 5.50000000
v 8.04649258 26.47661400 5.50000000
v 8.12452507 26.54299736 5.50000000
v 7.82585192 28.37121391 5.50000000
v 7.91469860 28.34474564 5.50000000
v 7.99962854 28.31337547 5.50000000
v 8.08027744 28.27723694 5.50000000
v 8.11294460 28.25972557 5.50000000
v 8.19774342 26.61219215 5.50000000
v 8.26583290 26.68390656 5.50000000
v 8.32850075 26.75782967 5.50000000
v 8.38548088 26.83364677 5.50000000
v 8.43652821 26.91103172 5.50000000
v 8.45877934 26.95000076 5.50000000
v 8.61294460 27.45000076 5.50000000
v 8.11294460 32.22499847 5.00000000
v 8.11294460 32.57500076 5.00000000
v 7.57499981 33.43999863 5.00000000
v 7.57499981 34.82500076 5.00000000
v 8.11294460 34.82500076 5.00000000
v 8.61294460 32.22499847 5.00000000
v 8.61294460 32.57500076 5.00000000
v 8.61294460 34.82500076 5.00000000
v 7.57499981 33.43999863 5.50000000
v 8.11294460 34.90000153 5.50000000
v 8.61294460 34.90000153 5.50000000
v 9.60000038 26.95000076 5.00000000
v 9.38705540 27.79999924 5.00000000
v 9.60000038 27.45000076 5.00000000
v 9.88705540 27.79999924 5.00000000
v 9.38705540 29.62500000 5.00000000
v 9.38705540 29.97500038 5.00000000
v 9.88705540 29.62500000 5.00000000
v 9.88705540 29.97500038 5.00000000
v 9.60000038 26.95000076 5.50000000
v 9.38705540 27.79999924 5.50000000
v 9.60000038 27.45000076 5.50000000
v 9.88705540 27.79999924 5.50000000
v 9.38705540 32.22499847 5.00000000
v 9.38705540 32.57500076 5.00000000
v 9.88705540 32.22499847 5.00000000
v 9.88705540 32.57500076 5.00000000
v 9.38705540 34.82500076 5.00000000
v 9.88705540 34.82500076 5.00000000
v 0.60000002 69.40000153 0.00000000
v 0.00000000 69.40000153 0.60000002
v 0.60000002 70.00000000 0.60000002
v 0.19999985 35.17499924 4.59999990
v 0.19999985 37.42499924 4.59999990
v 0.19999985 37.77500153 4.59999990
v 0.19999985 40.02500153 4.59999990
v 0.19999985 40.37500000 4.59999990
v 0.60000002 35.17499924 5.00000000
v 0.60000002 37.42499924 5.00000000
v 0.60000002 37.77500153 5.00000000
v 0.60000002 40.02500153 5.00000000
v 0.60000002 40.37500000 5.00000000
v 0.00000000 69.40000153 4.40000010
v 0.60000002 70.00000000 4.40000010
v 0.60000002 69.40000153 5.00000000
v 4.97915745 60.42287827 4.59999990
v 4.96066904 60.65311432 4.59999990
v 4.95141220 60.88426971 4.59999990
v 4.95141220 61.11573029 4.59999990
v 4.97915745 60.42287827 5.00000000
v 4.96066904 60.65311432 5.00000000
v 4.95141220 60.88426971 5.00000000
v 4.95141220 61.11573029 5.00000000
v 4.96066904 61.34688568 4.59999990
v 4.97915745 61.57712173 4.59999990
v 4.96066904 61.34688568 5.00000000
v 4.97915745 61.57712173 5.00000000
v 5.60231161 35.17499924 4.59999990
v 6.02500010 37.42499924 4.59999990
v 6.02500010 37.77500153 4.59999990
v 6.47499990 37.50645065 4.59999990
v 6.47499990 37.77500153 4.59999990
v 7.12500000 35.09354782 4.59999990
v 7.12500000 37.64461517 4.59999990
v 7.12500000 37.77500153 4.59999990
v 5.60231161 35.17499924 5.00000000
v 5.56774759 35.33760834 5.00000000
v 5.56774759 37.31361008 5.00000000
v 5.68469810 36.76340103 5.00000000
v 6.02500010 35.43480301 5.00000000
v 6.02500010 36.83573532 5.00000000
v 6.02500010 37.42499924 5.00000000
v 6.02500010 37.41080093 5.00000000
v 6.02500010 37.77500153 5.00000000
v 6.02500010 39.15999985 5.00000000
v 5.56774759 35.33760834 5.50000000
v 5.56774759 37.31361008 5.50000000
v 5.68469810 36.76340103 5.50000000
v 6.02500010 35.43480301 5.50000000
v 6.02500010 36.83573532 5.50000000
v 6.02500010 37.41080093 5.50000000
v 6.02500010 39.15999985 5.50000000
v 6.47499990 35.53045273 5.00000000
v 6.47499990 36.93138504 5.00000000
v 6.47499990 37.77500153 5.00000000
v 6.47499990 39.15999985 5.00000000
v 7.12500000 35.66861343 5.00000000
v 7.12500000 37.06954575 5.00000000
v 7.12500000 37.77500153 5.00000000
v 7.12500000 39.15999985 5.00000000
v 6.47499990 35.53045273 5.50000000
v 6.47499990 36.93138504 5.50000000
v 6.47499990 37.50645065 5.50000000
v 6.47499990 39.15999985 5.50000000
v 7.12500000 35.09354782 5.50000000
v 7.12500000 35.66861343 5.50000000
v 7.12500000 37.06954575 5.50000000
v 7.12500000 37.64461517 5.50000000
v 7.12500000 39.15999985 5.50000000
v 7.57499981 35.17499924 4.59999990
v 7.57499981 37.77500153 4.59999990
v 7.57499981 37.74026489 4.59999990
v 7.73842096 37.77500153 4.59999990
v 7.92329359 37.77500153 4.59999990
v 7.99768877 37.42499924 4.59999990
v 9.38705540 35.17499924 4.59999990
v 9.88705540 35.17499924 4.59999990
v 7.57499981 35.17499924 5.00000000
v 7.57499981 35.18919754 5.00000000
v 7.57499981 35.76426315 5.00000000
v 7.57499981 37.16519928 5.00000000
v 7.91530180 35.83659744 5.00000000
v 8.03225231 35.28638840 5.00000000
v 7.57499981 37.77500153 5.00000000
v 7.73842096 37.77500153 5.00000000
v 7.57499981 39.15999985 5.00000000
v 7.92329359 37.77500153 5.00000000
v 7.91530180 37.81259918 5.00000000
v 7.99768877 37.42499924 5.00000000
v 8.03225231 37.26239014 5.00000000
v 7.57499981 35.18919754 5.50000000
v 7.57499981 35.76426315 5.50000000
v 7.57499981 37.16519928 5.50000000
v 7.91530180 35.83659744 5.50000000
v 8.03225231 35.28638840 5.50000000
v 7.57499981 37.74026489 5.50000000
v 7.57499981 39.15999985 5.50000000
v 7.91530180 37.81259918 5.50000000
v 8.03225231 37.26239014 5.50000000
v 9.38705540 35.17499924 5.00000000
v 9.38705540 36.29999924 5.00000000
v 9.43193436 36.29999924 5.00000000
v 9.44798183 36.35073853 5.00000000
v 9.48002529 36.43082047 5.00000000
v 9.51857662 36.51034546 5.00000000
v 9.56347179 36.58897018 5.00000000
v 9.61451912 36.66635513 5.00000000
v 9.67149925 36.74217224 5.00000000
v 9.88705540 35.17499924 5.00000000
v 9.88705540 35.24027252 5.00000000
v 9.91972256 35.22276306 5.00000000
v 9.73416710 36.81609344 5.00000000
v 9.80225658 36.88780594 5.00000000
v 9.87547493 36.95700455 5.00000000
v 9.95350742 37.02338409 5.00000000
v 9.38705540 36.29999924 5.50000000
v 9.43193436 36.29999924 5.50000000
v 9.44798183 36.35073853 5.50000000
v 9.48002529 36.43082047 5.50000000
v 9.51857662 36.51034546 5.50000000
v 9.56347179 36.58897018 5.50000000
v 9.61451912 36.66635513 5.50000000
v 9.67149925 36.74217224 5.50000000
v 9.88705540 35.24027252 5.50000000
v 9.91972256 35.22276306 5.50000000
v 9.73416710 36.81609344 5.50000000
v 9.80225658 36.88780594 5.50000000
v 9.87547493 36.95700455 5.50000000
v 9.95350742 37.02338409 5.50000000
v 9.68469810 43.88740158 5.00000000
v 9.56774807 44.43761063 5.00000000
v 9.68469810 45.86340332 5.00000000
v 9.56774807 46.41360855 5.00000000
v 9.68469810 43.88740158 5.50000000
v 9.56774807 44.43761063 5.50000000
v 9.68469810 45.86340332 5.50000000
v 9.56774807 46.41360855 5.50000000
v 5.35993814 58.88737869 4.59999990
v 5.44851446 58.68587112 4.59999990
v 5.54503202 58.49048996 4.59999990
v 5.14409208 59.52322388 4.59999990
v 5.04361153 59.96759415 4.59999990
v 5.08940601 59.74374771 4.59999990
v 5.20752525 59.30660629 4.59999990
v 5.27953720 59.09447098 4.59999990
v 5.00682974 60.19416809 4.59999990
v 5.87958002 57.94615555 4.59999990
v 5.64923620 58.30174637 4.59999990
v 5.76085043 58.12014008 4.59999990
v 6.00511074 57.78025055 4.59999990
v 6.13711023 57.62285995 4.59999990
v 7.21098757 56.79152679 4.59999990
v 7.38093328 56.71516418 4.59999990
v 6.27522945 57.47440720 4.59999990
v 6.41910315 57.33528137 4.59999990
v 6.56835032 57.20584869 4.59999990
v 6.72257614 57.08645630 4.59999990
v 6.75977230 58.95209885 4.59999990
v 6.83440208 58.82837677 4.59999990
v 6.33772135 60.10666275 4.59999990
v 6.37209558 59.94984818 4.59999990
v 6.50777006 59.49769211 4.59999990
v 6.41196775 59.79581070 4.59999990
v 6.45723248 59.64495850 4.59999990
v 6.28581619 60.42696381 4.59999990
v 6.30893612 60.26584244 4.59999990
v 6.26842213 60.58960342 4.59999990
v 6.25680065 60.75332642 4.59999990
v 6.25098228 60.91770172 4.59999990
v 6.25098228 61.08229828 4.59999990
v 6.25680065 61.24667358 4.59999990
v 6.62411499 59.21545792 4.59999990
v 6.56344652 59.35439682 4.59999990
v 6.68961430 59.08124161 4.59999990
v 6.88137293 56.97741699 4.59999990
v 7.04432058 56.87902069 4.59999990
v 6.91330719 58.71039963 4.59999990
v 6.99627829 58.59848022 4.59999990
v 7.08309603 58.49291229 4.59999990
v 7.17353058 58.39397812 4.59999990
v 7.26734352 58.30193710 4.59999990
v 7.36428547 58.21703720 4.59999990
v 7.46410036 58.13949585 4.59999990
v 5.35993814 58.88737869 5.00000000
v 5.44851446 58.68587112 5.00000000
v 5.54503202 58.49048996 5.00000000
v 5.14409208 59.52322388 5.00000000
v 5.04361153 59.96759415 5.00000000
v 5.08940601 59.74374771 5.00000000
v 5.20752525 59.30660629 5.00000000
v 5.27953720 59.09447098 5.00000000
v 5.00682974 60.19416809 5.00000000
v 5.87958002 57.94615555 5.00000000
v 5.64923620 58.30174637 5.00000000
v 5.76085043 58.12014008 5.00000000
v 6.00511074 57.78025055 5.00000000
v 6.13711023 57.62285995 5.00000000
v 7.21098757 56.79152679 5.00000000
v 7.38093328 56.71516418 5.00000000
v 6.27522945 57.47440720 5.00000000
v 6.41910315 57.33528137 5.00000000
v 6.56835032 57.20584869 5.00000000
v 6.72257614 57.08645630 5.00000000
v 6.75977230 58.95209885 5.00000000
v 6.83440208 58.82837677 5.00000000
v 6.33772135 60.10666275 5.00000000
v 6.37209558 59.94984818 5.00000000
v 6.50777006 59.49769211 5.00000000
v 6.41196775 59.79581070 5.00000000
v 6.45723248 59.64495850 5.00000000
v 6.28581619 60.42696381 5.00000000
v 6.30893612 60.26584244 5.00000000
v 6.26842213 60.58960342 5.00000000
v 6.25680065 60.75332642 5.00000000
v 6.25098228 60.91770172 5.00000000
v 6.25098228 61.08229828 5.00000000
v 6.25680065 61.24667358 5.00000000
v 6.62411499 59.21545792 5.00000000
v 6.56344652 59.35439682 5.00000000
v 6.68961430 59.08124161 5.00000000
v 6.88137293 56.97741699 5.00000000
v 7.04432058 56.87902069 5.00000000
v 6.91330719 58.71039963 5.00000000
v 6.99627829 58.59848022 5.00000000
v 7.08309603 58.49291229 5.00000000
v 7.17353058 58.39397812 5.00000000
v 7.26734352 58.30193710 5.00000000
v 7.36428547 58.21703720 5.00000000
v 7.46410036 58.13949585 5.00000000
v 5.00682974 61.80583191 4.59999990
v 5.04361153 62.03240585 4.59999990
v 5.08940601 62.25625229 4.59999990
v 5.14409208 62.47677612 4.59999990
v 5.20752525 62.69339371 4.59999990
v 5.27953720 62.90552902 4.59999990
v 5.35993814 63.11262131 4.59999990
v 5.44851446 63.31412888 4.59999990
v 5.54503202 63.50951004 4.59999990
v 5.64923620 63.69825363 4.59999990
v 5.76085043 63.87985992 4.59999990
v 5.87958002 64.05384064 4.59999990
v 6.00511074 64.21974945 4.59999990
v 6.13711023 64.37713623 4.59999990
v 6.26842213 61.41039658 4.59999990
v 6.28581619 61.57303619 4.59999990
v 6.30893612 61.73415756 4.59999990
v 6.33772135 61.89333725 4.59999990
v 6.37209558 62.05015182 4.59999990
v 6.41196775 62.20418930 4.59999990
v 6.45723248 62.35504150 4.59999990
v 6.50777006 62.50230789 4.59999990
v 6.56344652 62.64560318 4.59999990
v 6.62411499 62.78454208 4.59999990
v 6.68961430 62.91875839 4.59999990
v 6.75977230 63.04790115 4.59999990
v 6.83440208 63.17162323 4.59999990
v 6.27522945 64.52559662 4.59999990
v 6.41910315 64.66471863 4.59999990
v 6.56835032 64.79415131 4.59999990
v 6.72257614 64.91354370 4.59999990
v 6.91330719 63.28960037 4.59999990
v 6.99627829 63.40151978 4.59999990
v 7.08309603 63.50708771 4.59999990
v 7.17353058 63.60602188 4.59999990
v 6.88137293 65.02258301 4.59999990
v 7.04432058 65.12097931 4.59999990
v 7.26734352 63.69806290 4.59999990
v 7.36428547 63.78296280 4.59999990
v 7.46410036 63.86050415 4.59999990
v 7.21098757 65.20847321 4.59999990
v 7.38093328 65.28483582 4.59999990
v 5.00682974 61.80583191 5.00000000
v 5.04361153 62.03240585 5.00000000
v 5.08940601 62.25625229 5.00000000
v 5.14409208 62.47677612 5.00000000
v 5.20752525 62.69339371 5.00000000
v 5.27953720 62.90552902 5.00000000
v 5.35993814 63.11262131 5.00000000
v 5.44851446 63.31412888 5.00000000
v 5.54503202 63.50951004 5.00000000
v 5.64923620 63.69825363 5.00000000
v 5.76085043 63.87985992 5.00000000
v 5.87958002 64.05384064 5.00000000
v 6.00511074 64.21974945 5.00000000
v 6.13711023 64.37713623 5.00000000
v 6.26842213 61.41039658 5.00000000
v 6.28581619 61.57303619 5.00000000
v 6.30893612 61.73415756 5.00000000
v 6.33772135 61.89333725 5.00000000
v 6.37209558 62.05015182 5.00000000
v 6.41196775 62.20418930 5.00000000
v 6.45723248 62.35504150 5.00000000
v 6.50777006 62.50230789 5.00000000
v 6.56344652 62.64560318 5.00000000
v 6.62411499 62.78454208 5.00000000
v 6.68961430 62.91875839 5.00000000
v 6.75977230 63.04790115 5.00000000
v 6.83440208 63.17162323 5.00000000
v 6.27522945 64.52559662 5.00000000
v 6.41910315 64.66471863 5.00000000
v 6.56835032 64.79415131 5.00000000
v 6.72257614 64.91354370 5.00000000
v 6.91330719 63.28960037 5.00000000
v 6.99627829 63.40151978 5.00000000
v 7.08309603 63.50708771 5.00000000
v 7.17353058 63.60602188 5.00000000
v 6.88137293 65.02258301 5.00000000
v 7.04432058 65.12097931 5.00000000
v 7.26734352 63.69806290 5.00000000
v 7.36428547 63.78296280 5.00000000
v 7.46410036 63.86050415 5.00000000
v 7.21098757 65.20847321 5.00000000
v 7.38093328 65.28483582 5.00000000
v 7.55370808 56.65013885 4.59999990
v 7.72885466 56.59662247 4.59999990
v 7.90590954 56.55475616 4.59999990
v 8.08440495 56.52465057 4.59999990
v 8.26386833 56.50638580 4.59999990
v 8.44382477 56.50000763 4.59999990
v 8.62379742 56.50553513 4.59999990
v 7.77810955 57.95300674 4.59999990
v 7.56652451 58.06952667 4.59999990
v 7.67128658 58.00730515 4.59999990
v 7.88671112 57.90676498 4.59999990
v 7.99680328 57.86870956 4.59999990
v 8.10809517 57.83893967 4.59999990
v 8.22029209 57.81753159 4.59999990
v 8.33309746 57.80454254 4.59999990
v 8.44621277 57.80000687 4.59999990
v 8.55933857 57.80393600 4.59999990
v 8.67217636 57.81632233 4.59999990
v 8.80331230 56.52295303 4.59999990
v 8.98189163 56.55221558 4.59999990
v 9.15906525 56.59324646 4.59999990
v 9.33436394 56.64593506 4.59999990
v 9.50732327 56.71014404 4.59999990
v 9.67748642 56.78569794 4.59999990
v 9.84440231 56.87240601 4.59999990
v 8.78442669 57.83713150 4.59999990
v 8.89579296 57.86631012 4.59999990
v 9.00598049 57.90377426 4.59999990
v 9.11469746 57.94943619 4.59999990
v 9.22165680 58.00316238 4.59999990
v 9.32657623 58.06482315 4.59999990
v 9.42917633 58.13424683 4.59999990
v 9.52918625 58.21125031 4.59999990
v 9.62634182 58.29563522 4.59999990
v 9.72038651 58.38717270 4.59999990
v 9.81107044 58.48562241 4.59999990
v 9.89815426 58.59072495 4.59999990
v 9.98140812 58.70220184 4.59999990
v 7.55370808 56.65013885 5.00000000
v 7.72885466 56.59662247 5.00000000
v 7.90590954 56.55475616 5.00000000
v 8.08440495 56.52465057 5.00000000
v 8.26386833 56.50638580 5.00000000
v 8.44382477 56.50000763 5.00000000
v 8.62379742 56.50553513 5.00000000
v 7.77810955 57.95300674 5.00000000
v 7.56652451 58.06952667 5.00000000
v 7.67128658 58.00730515 5.00000000
v 7.88671112 57.90676498 5.00000000
v 7.99680328 57.86870956 5.00000000
v 8.10809517 57.83893967 5.00000000
v 8.22029209 57.81753159 5.00000000
v 8.33309746 57.80454254 5.00000000
v 8.44621277 57.80000687 5.00000000
v 8.55933857 57.80393600 5.00000000
v 8.67217636 57.81632233 5.00000000
v 8.80331230 56.52295303 5.00000000
v 8.98189163 56.55221558 5.00000000
v 9.15906525 56.59324646 5.00000000
v 9.33436394 56.64593506 5.00000000
v 9.50732327 56.71014404 5.00000000
v 9.67748642 56.78569794 5.00000000
v 9.84440231 56.87240601 5.00000000
v 8.78442669 57.83713150 5.00000000
v 8.89579296 57.86631012 5.00000000
v 9.00598049 57.90377426 5.00000000
v 9.11469746 57.94943619 5.00000000
v 9.22165680 58.00316238 5.00000000
v 9.32657623 58.06482315 5.00000000
v 9.42917633 58.13424683 5.00000000
v 9.52918625 58.21125031 5.00000000
v 9.62634182 58.29563522 5.00000000
v 9.72038651 58.38717270 5.00000000
v 9.81107044 58.48562241 5.00000000
v 9.89815426 58.59072495 5.00000000
v 9.98140812 58.70220184 5.00000000
v 7.56652451 63.93047333 4.59999990
v 7.67128658 63.99269485 4.59999990
v 7.77810955 64.04699707 4.59999990
v 7.55370808 65.34986115 4.59999990
v 7.72885466 65.40337372 4.59999990
v 7.88671112 64.09323120 4.59999990
v 7.99680328 64.13128662 4.59999990
v 8.10809517 64.16106415 4.59999990
v 7.90590954 65.44524384 4.59999990
v 8.08440495 65.47534943 4.59999990
v 8.22029209 64.18247223 4.59999990
v 8.33309746 64.19545746 4.59999990
v 8.26386833 65.49361420 4.59999990
v 8.44621277 64.19999695 4.59999990
v 8.55933857 64.19606018 4.59999990
v 8.67217636 64.18367767 4.59999990
v 8.44382477 65.49999237 4.59999990
v 8.62379742 65.49446106 4.59999990
v 8.78442669 64.16287231 4.59999990
v 8.89579296 64.13368988 4.59999990
v 9.00598049 64.09622192 4.59999990
v 8.80331230 65.47704315 4.59999990
v 8.98189163 65.44778442 4.59999990
v 9.11469746 64.05056763 4.59999990
v 9.32657623 63.93517685 4.59999990
v 9.22165680 63.99683762 4.59999990
v 9.15906525 65.40675354 4.59999990
v 9.33436394 65.35406494 4.59999990
v 9.89815426 63.40927505 4.59999990
v 9.98140812 63.29779816 4.59999990
v 9.42917633 63.86575317 4.59999990
v 9.52918625 63.78874969 4.59999990
v 9.62634182 63.70436478 4.59999990
v 9.50732327 65.28985596 4.59999990
v 9.67748642 65.21430206 4.59999990
v 9.72038651 63.61282730 4.59999990
v 9.81107044 63.51437759 4.59999990
v 9.84440231 65.12759399 4.59999990
v 7.56652451 63.93047333 5.00000000
v 7.67128658 63.99269485 5.00000000
v 7.77810955 64.04699707 5.00000000
v 7.55370808 65.34986115 5.00000000
v 7.72885466 65.40337372 5.00000000
v 7.88671112 64.09323120 5.00000000
v 7.99680328 64.13128662 5.00000000
v 8.10809517 64.16106415 5.00000000
v 7.90590954 65.44524384 5.00000000
v 8.08440495 65.47534943 5.00000000
v 8.22029209 64.18247223 5.00000000
v 8.33309746 64.19545746 5.00000000
v 8.26386833 65.49361420 5.00000000
v 8.44621277 64.19999695 5.00000000
v 8.55933857 64.19606018 5.00000000
v 8.67217636 64.18367767 5.00000000
v 8.44382477 65.49999237 5.00000000
v 8.62379742 65.49446106 5.00000000
v 8.78442669 64.16287231 5.00000000
v 8.89579296 64.13368988 5.00000000
v 9.00598049 64.09622192 5.00000000
v 8.80331230 65.47704315 5.00000000
v 8.98189163 65.44778442 5.00000000
v 9.11469746 64.05056763 5.00000000
v 9.32657623 63.93517685 5.00000000
v 9.22165680 63.99683762 5.00000000
v 9.15906525 65.40675354 5.00000000
v 9.33436394 65.35406494 5.00000000
v 9.89815426 63.40927505 5.00000000
v 9.98140812 63.29779816 5.00000000
v 9.42917633 63.86575317 5.00000000
v 9.52918625 63.78874969 5.00000000
v 9.62634182 63.70436478 5.00000000
v 9.50732327 65.28985596 5.00000000
v 9.67748642 65.21430206 5.00000000
v 9.72038651 63.61282730 5.00000000
v 9.81107044 63.51437759 5.00000000
v 9.84440231 65.12759399 5.00000000
v 19.39999962 0.60000002 0.00000000
v 19.39999962 0.00000000 0.60000002
v 20.00000000 0.60000002 0.60000002
v 19.39999962 0.00000000 4.40000010
v 20.00000000 0.60000002 4.40000010
v 19.39999962 0.60000002 5.00000000
v 19.79999924 29.62500000 4.59999990
v 19.79999924 29.97500038 4.59999990
v 19.79999924 32.22499847 4.59999990
v 19.79999924 32.57500076 4.59999990
v 19.79999924 34.82500076 4.59999990
v 19.39999962 29.62500000 5.00000000
v 19.39999962 29.97500038 5.00000000
v 19.39999962 32.22499847 5.00000000
v 19.39999962 32.57500076 5.00000000
v 19.39999962 34.82500076 5.00000000
v 19.39999962 69.40000153 0.00000000
v 19.39999962 70.00000000 0.60000002
v 20.00000000 69.40000153 0.60000002
v 10.03184891 35.17499924 4.59999990
v 10.08530140 35.15525436 4.59999990
v 10.17414761 35.12878799 4.59999990
v 10.26653099 35.10733414 4.59999990
v 10.36205482 35.09098816 4.59999990
v 10.46030998 35.07981873 4.59999990
v 10.56087685 35.07387543 4.59999990
v 10.66332436 35.07318115 4.59999990
v 10.76721287 35.07774353 4.59999990
v 10.87209797 35.08753586 4.59999990
v 10.97753143 35.10252380 4.59999990
v 11.08306122 35.12263489 4.59999990
v 11.18823433 35.14779282 4.59999990
v 10.71738720 37.42499924 4.59999990
v 10.81176567 37.45220947 4.59999990
v 10.91693878 37.47736359 4.59999990
v 11.02246857 37.49747849 4.59999990
v 11.12790203 37.51246262 4.59999990
v 11.23278713 37.52225876 4.59999990
v 11.28261185 35.17499924 4.59999990
v 11.33667564 37.52681732 4.59999990
v 11.43912315 37.52612305 4.59999990
v 11.53969002 37.52017975 4.59999990
v 11.63794518 37.50901413 4.59999990
v 11.73346901 37.49266815 4.59999990
v 11.82585239 37.47121429 4.59999990
v 11.91469860 37.44474411 4.59999990
v 11.96815777 37.42499924 4.59999990
v 10.00037193 35.18662643 5.00000000
v 10.03184891 35.17499924 5.00000000
v 10.03602219 37.08666992 5.00000000
v 10.12266541 37.14658737 5.00000000
v 10.21306419 37.20287704 5.00000000
v 10.30683327 37.25530243 5.00000000
v 10.40357113 37.30363846 5.00000000
v 10.50286198 37.34767532 5.00000000
v 10.60428238 37.38722610 5.00000000
v 10.71738720 37.42499924 5.00000000
v 10.70739746 37.42211914 5.00000000
v 10.00037193 35.18662643 5.50000000
v 10.08530140 35.15525436 5.50000000
v 10.17414761 35.12878799 5.50000000
v 10.26653099 35.10733414 5.50000000
v 10.03602219 37.08666992 5.50000000
v 10.12266541 37.14658737 5.50000000
v 10.36205482 35.09098816 5.50000000
v 10.46030998 35.07981873 5.50000000
v 10.56087685 35.07387543 5.50000000
v 10.21306419 37.20287704 5.50000000
v 10.30683327 37.25530243 5.50000000
v 10.40357113 37.30363846 5.50000000
v 10.50286198 37.34767532 5.50000000
v 10.60428238 37.38722610 5.50000000
v 10.66332436 35.07318115 5.50000000
v 10.76721287 35.07774353 5.50000000
v 10.87209797 35.08753586 5.50000000
v 10.97753143 35.10252380 5.50000000
v 11.08306122 35.12263489 5.50000000
v 11.18823433 35.14779282 5.50000000
v 10.70739746 37.42211914 5.50000000
v 10.81176567 37.45220947 5.50000000
v 10.91693878 37.47736359 5.50000000
v 11.02246857 37.49747849 5.50000000
v 11.12790203 37.51246262 5.50000000
v 11.23278713 37.52225876 5.50000000
v 10.02499962 42.54000092 5.00000000
v 10.47500038 42.54000092 5.00000000
v 11.12500000 42.54000092 5.00000000
v 10.02499962 42.54000092 5.50000000
v 10.47500038 42.54000092 5.50000000
v 11.12500000 42.54000092 5.50000000
v 11.28261185 35.17499924 5.00000000
v 11.29260254 35.17787933 5.00000000
v 11.39571762 35.21277618 5.00000000
v 11.49713802 35.25232697 5.00000000
v 11.59642887 35.29636383 5.00000000
v 11.69316673 35.34469604 5.00000000
v 11.78693581 35.39712143 5.00000000
v 11.87733459 35.45341110 5.00000000
v 11.96397781 35.51332855 5.00000000
v 12.04649258 35.57661438 5.00000000
v 12.12452507 35.64299774 5.00000000
v 12.19774342 35.71219254 5.00000000
v 12.26583290 35.78390503 5.00000000
v 12.32850075 35.85783005 5.00000000
v 12.38548088 35.93364716 5.00000000
v 12.43652821 36.01103210 5.00000000
v 12.48142338 36.08965302 5.00000000
v 12.40794945 37.13112259 5.00000000
v 12.45640278 37.07029343 5.00000000
v 12.49862003 37.00616455 5.00000000
v 11.96815777 37.42499924 5.00000000
v 11.99962807 37.41337585 5.00000000
v 12.08027744 37.37723541 5.00000000
v 12.15630054 37.33648682 5.00000000
v 12.22737217 37.29129791 5.00000000
v 12.29318810 37.24186325 5.00000000
v 12.35346699 37.18839645 5.00000000
v 11.29260254 35.17787933 5.50000000
v 11.39571762 35.21277618 5.50000000
v 11.49713802 35.25232697 5.50000000
v 11.59642887 35.29636383 5.50000000
v 11.69316673 35.34469604 5.50000000
v 11.78693581 35.39712143 5.50000000
v 11.33667564 37.52681732 5.50000000
v 11.43912315 37.52612305 5.50000000
v 11.53969002 37.52017975 5.50000000
v 11.63794518 37.50901413 5.50000000
v 11.73346901 37.49266815 5.50000000
v 11.82585239 37.47121429 5.50000000
v 11.87733459 35.45341110 5.50000000
v 11.96397781 35.51332855 5.50000000
v 12.04649258 35.57661438 5.50000000
v 12.12452507 35.64299774 5.50000000
v 12.19774342 35.71219254 5.50000000
v 12.26583290 35.78390503 5.50000000
v 12.32850075 35.85783005 5.50000000
v 12.38548088 35.93364716 5.50000000
v 12.43652821 36.01103210 5.50000000
v 12.48142338 36.08965302 5.50000000
v 12.40794945 37.13112259 5.50000000
v 12.45640278 37.07029343 5.50000000
v 12.49862003 37.00616455 5.50000000
v 11.91469860 37.44474411 5.50000000
v 11.99962807 37.41337585 5.50000000
v 12.08027744 37.37723541 5.50000000
v 12.15630054 37.33648682 5.50000000
v 12.22737217 37.29129791 5.50000000
v 12.29318810 37.24186325 5.50000000
v 12.35346699 37.18839645 5.50000000
v 11.57499981 42.54000092 5.00000000
v 12.39999962 42.54999924 5.00000000
v 12.39999962 43.04999924 5.00000000
v 11.57499981 42.54000092 5.50000000
v 12.39999962 42.54999924 5.50000000
v 12.39999962 43.04999924 5.50000000
v 10.02499962 43.95973587 5.00000000
v 10.02499962 44.53480148 5.00000000
v 10.02499962 45.93573380 5.00000000
v 10.47500038 44.05538559 5.00000000
v 10.47500038 44.63045120 5.00000000
v 10.02499962 46.51080322 5.00000000
v 10.47500038 46.03138733 5.00000000
v 10.47500038 46.60645294 5.00000000
v 11.12500000 44.19354630 5.00000000
v 11.12500000 44.76861572 5.00000000
v 11.12500000 46.16954803 5.00000000
v 11.12500000 46.74461365 5.00000000
v 10.02499962 43.95973587 5.50000000
v 10.02499962 44.53480148 5.50000000
v 10.02499962 45.93573380 5.50000000
v 10.47500038 44.05538559 5.50000000
v 10.47500038 44.63045120 5.50000000
v 10.02499962 46.51080322 5.50000000
v 10.47500038 46.03138733 5.50000000
v 10.47500038 46.60645294 5.50000000
v 11.12500000 44.19354630 5.50000000
v 11.12500000 44.76861572 5.50000000
v 11.12500000 46.16954803 5.50000000
v 11.12500000 46.74461365 5.50000000
v 10.02499962 48.25999832 5.00000000
v 10.47500038 48.25999832 5.00000000
v 11.12500000 48.25999832 5.00000000
v 10.02499962 48.25999832 5.50000000
v 10.47500038 48.25999832 5.50000000
v 11.12500000 48.25999832 5.50000000
v 11.57499981 44.28919983 5.00000000
v 11.57499981 44.86426544 5.00000000
v 11.57499981 46.26519775 5.00000000
v 11.57499981 46.84026337 5.00000000
v 12.03225231 44.38639069 5.00000000
v 11.91530228 44.93659973 5.00000000
v 12.39999962 45.15000153 5.00000000
v 12.39999962 45.65000153 5.00000000
v 11.91530228 46.91259766 5.00000000
v 12.03225231 46.36238861 5.00000000
v 11.57499981 44.28919983 5.50000000
v 11.57499981 44.86426544 5.50000000
v 11.57499981 46.26519775 5.50000000
v 11.57499981 46.84026337 5.50000000
v 12.03225231 44.38639069 5.50000000
v 11.91530228 44.93659973 5.50000000
v 12.39999962 45.15000153 5.50000000
v 12.39999962 45.65000153 5.50000000
v 11.91530228 46.91259766 5.50000000
v 12.03225231 46.36238861 5.50000000
v 11.57499981 48.25999832 5.00000000
v 11.57499981 48.25999832 5.50000000
v 13.38705540 37.42499924 4.59999990
v 13.38705540 37.77500153 4.59999990
v 13.38705540 40.02500153 4.59999990
v 13.38705540 40.37500000 4.59999990
v 13.88705540 37.42499924 4.59999990
v 13.88705540 37.77500153 4.59999990
v 13.88705540 40.02500153 4.59999990
v 13.88705540 40.37500000 4.59999990
v 12.51997471 36.16917801 5.00000000
v 12.55201817 36.24925995 5.00000000
v 12.57741547 36.32956314 5.00000000
v 12.59605694 36.40973663 5.00000000
v 12.60786533 36.48944092 5.00000000
v 12.61278725 36.56833649 5.00000000
v 12.56364822 36.86912155 5.00000000
v 12.53441906 36.93901062 5.00000000
v 12.61080360 36.64608002 5.00000000
v 12.60192299 36.72233963 5.00000000
v 12.58618164 36.79679489 5.00000000
v 13.38705540 36.29999924 5.00000000
v 13.38705540 37.42499924 5.00000000
v 13.38705540 37.77500153 5.00000000
v 12.51997471 36.16917801 5.50000000
v 12.55201817 36.24925995 5.50000000
v 12.57741547 36.32956314 5.50000000
v 12.59605694 36.40973663 5.50000000
v 12.60786533 36.48944092 5.50000000
v 12.61278725 36.56833649 5.50000000
v 12.56364822 36.86912155 5.50000000
v 12.53441906 36.93901062 5.50000000
v 12.61080360 36.64608002 5.50000000
v 12.60192299 36.72233963 5.50000000
v 12.58618164 36.79679489 5.50000000
v 13.38705540 36.29999924 5.50000000
v 13.38705540 40.02500153 5.00000000
v 13.38705540 40.37500000 5.00000000
v 13.38705540 42.54999924 5.00000000
v 13.38705540 43.04999924 5.00000000
v 13.38705540 42.54999924 5.50000000
v 13.38705540 43.04999924 5.50000000
v 13.88705540 36.29999924 5.00000000
v 13.88705540 37.42499924 5.00000000
v 13.88705540 37.77500153 5.00000000
v 13.88705540 36.29999924 5.50000000
v 13.88705540 40.02500153 5.00000000
v 13.88705540 40.37500000 5.00000000
v 13.88705540 42.54999924 5.00000000
v 13.88705540 43.04999924 5.00000000
v 13.88705540 42.54999924 5.50000000
v 13.88705540 43.04999924 5.50000000
v 13.38705540 45.15000153 5.00000000
v 13.54122066 45.65000153 5.00000000
v 13.56347179 45.68896866 5.00000000
v 13.61451912 45.76635361 5.00000000
v 13.67149925 45.84217072 5.00000000
v 13.73416710 45.91609573 5.00000000
v 13.38705540 45.15000153 5.50000000
v 13.54122066 45.65000153 5.50000000
v 13.56347179 45.68896866 5.50000000
v 13.61451912 45.76635361 5.50000000
v 13.67149925 45.84217072 5.50000000
v 13.73416710 45.91609573 5.50000000
v 13.88705540 44.34027481 5.00000000
v 14.00037193 44.28662491 5.00000000
v 13.91972256 44.32276154 5.00000000
v 14.08530140 44.25525665 5.00000000
v 14.17414761 44.22878647 5.00000000
v 14.26653099 44.20733261 5.00000000
v 14.36205482 44.19098663 5.00000000
v 13.80225658 45.98780823 5.00000000
v 13.87547493 46.05700302 5.00000000
v 13.95350742 46.12338638 5.00000000
v 14.03602219 46.18667221 5.00000000
v 14.12266541 46.24658585 5.00000000
v 14.21306419 46.30287933 5.00000000
v 14.30683327 46.35530472 5.00000000
v 14.46030998 44.17981720 5.00000000
v 14.56087685 44.17387390 5.00000000
v 14.66332436 44.17318344 5.00000000
v 14.76721287 44.17774200 5.00000000
v 14.87209797 44.18753815 5.00000000
v 14.97753143 44.20252228 5.00000000
v 14.40357113 46.40363693 5.00000000
v 14.50286198 46.44767380 5.00000000
v 14.60428238 46.48722458 5.00000000
v 14.70739746 46.52211761 5.00000000
v 14.81176567 46.55220795 5.00000000
v 14.91693878 46.57736206 5.00000000
v 13.88705540 44.34027481 5.50000000
v 14.00037193 44.28662491 5.50000000
v 13.91972256 44.32276154 5.50000000
v 14.08530140 44.25525665 5.50000000
v 14.17414761 44.22878647 5.50000000
v 14.26653099 44.20733261 5.50000000
v 14.36205482 44.19098663 5.50000000
v 13.80225658 45.98780823 5.50000000
v 13.87547493 46.05700302 5.50000000
v 13.95350742 46.12338638 5.50000000
v 14.03602219 46.18667221 5.50000000
v 14.12266541 46.24658585 5.50000000
v 14.21306419 46.30287933 5.50000000
v 14.30683327 46.35530472 5.50000000
v 14.46030998 44.17981720 5.50000000
v 14.56087685 44.17387390 5.50000000
v 14.66332436 44.17318344 5.50000000
v 14.76721287 44.17774200 5.50000000
v 14.87209797 44.18753815 5.50000000
v 14.97753143 44.20252228 5.50000000
v 14.40357113 46.40363693 5.50000000
v 14.50286198 46.44767380 5.50000000
v 14.60428238 46.48722458 5.50000000
v 14.70739746 46.52211761 5.50000000
v 14.81176567 46.55220795 5.50000000
v 14.91693878 46.57736206 5.50000000
v 10.00762939 56.97003174 4.59999990
v 10.16673660 57.07831955 4.59999990
v 10.06060982 58.81975555 4.59999990
v 10.13555241 58.94308090 4.59999990
v 10.32130337 57.19698334 4.59999990
v 10.47091866 57.32571030 4.59999990
v 10.61518955 57.46415710 4.59999990
v 10.75373173 57.61195374 4.59999990
v 10.88617992 57.76871872 4.59999990
v 11.01218414 57.93403244 4.59999990
v 11.13140965 58.10745621 4.59999990
v 12.11414528 59.02328110 4.59999990
v 12.45093632 57.42499924 4.59999990
v 11.93140984 59.88298416 4.59999990
v 12.45093632 59.09487152 4.59999990
v 12.45093632 59.99341202 4.59999990
v 10.00762939 56.97003174 5.00000000
v 10.16673660 57.07831955 5.00000000
v 10.06060982 58.81975555 5.00000000
v 10.13555241 58.94308090 5.00000000
v 10.32130337 57.19698334 5.00000000
v 10.47091866 57.32571030 5.00000000
v 10.61518955 57.46415710 5.00000000
v 10.75373173 57.61195374 5.00000000
v 10.88617992 57.76871872 5.00000000
v 11.01218414 57.93403244 5.00000000
v 11.13140965 58.10745621 5.00000000
v 12.11414528 59.02328110 5.00000000
v 12.45093632 57.42499924 5.00000000
v 11.93140984 59.88298416 5.00000000
v 12.45093632 59.09487152 5.00000000
v 12.45093632 59.99341202 5.00000000
v 10.06060982 63.18024445 4.59999990
v 10.13555241 63.05691910 4.59999990
v 10.00762939 65.02996826 4.59999990
v 10.16673660 64.92167664 4.59999990
v 10.32130337 64.80301666 4.59999990
v 10.47091866 64.67429352 4.59999990
v 10.61518955 64.53584290 4.59999990
v 10.75373173 64.38804626 4.59999990
v 10.88617992 64.23127747 4.59999990
v 11.01218414 64.06597137 4.59999990
v 11.13140965 63.89254379 4.59999990
v 12.11414528 61.49328232 4.59999990
v 11.93140984 62.35298157 4.59999990
v 12.45093632 61.56486893 4.59999990
v 12.45093632 62.46340942 4.59999990
v 12.45093632 64.57499695 4.59999990
v 10.06060982 63.18024445 5.00000000
v 10.13555241 63.05691910 5.00000000
v 10.00762939 65.02996826 5.00000000
v 10.16673660 64.92167664 5.00000000
v 10.32130337 64.80301666 5.00000000
v 10.47091866 64.67429352 5.00000000
v 10.61518955 64.53584290 5.00000000
v 10.75373173 64.38804626 5.00000000
v 10.88617992 64.23127747 5.00000000
v 11.01218414 64.06597137 5.00000000
v 11.13140965 63.89254379 5.00000000
v 12.11414528 61.49328232 5.00000000
v 11.93140984 62.35298157 5.00000000
v 12.45093632 61.56486893 5.00000000
v 12.45093632 62.46340942 5.00000000
v 12.45093632 64.57499695 5.00000000
v 13.15406132 57.42499924 4.59999990
v 13.15406132 59.24432373 4.59999990
v 13.15406132 60.14286423 4.59999990
v 13.82593632 57.42499924 4.59999990
v 13.82593632 59.38713455 4.59999990
v 13.82593632 60.28567505 4.59999990
v 14.52906132 57.42499924 4.59999990
v 14.52906132 59.53659058 4.59999990
v 14.52906132 60.43513107 4.59999990
v 14.86585331 60.50671768 4.59999990
v 13.15406132 57.42499924 5.00000000
v 13.15406132 59.24432373 5.00000000
v 13.15406132 60.14286423 5.00000000
v 13.82593632 57.42499924 5.00000000
v 13.82593632 59.38713455 5.00000000
v 13.82593632 60.28567505 5.00000000
v 14.52906132 57.42499924 5.00000000
v 14.52906132 59.53659058 5.00000000
v 14.52906132 60.43513107 5.00000000
v 14.86585331 60.50671768 5.00000000
v 13.15406132 61.71432495 4.59999990
v 13.15406132 62.61286545 4.59999990
v 13.15406132 64.57499695 4.59999990
v 13.82593632 61.85713577 4.59999990
v 13.82593632 62.75567627 4.59999990
v 13.82593632 64.57499695 4.59999990
v 14.52906132 62.00658798 4.59999990
v 14.52906132 62.90512848 4.59999990
v 14.86585331 62.97671890 4.59999990
v 14.52906132 64.57499695 4.59999990
v 13.15406132 61.71432495 5.00000000
v 13.15406132 62.61286545 5.00000000
v 13.15406132 64.57499695 5.00000000
v 13.82593632 61.85713577 5.00000000
v 13.82593632 62.75567627 5.00000000
v 13.82593632 64.57499695 5.00000000
v 14.52906132 62.00658798 5.00000000
v 14.52906132 62.90512848 5.00000000
v 14.86585331 62.97671890 5.00000000
v 14.52906132 64.57499695 5.00000000
v 15.08306122 44.22263718 5.00000000
v 15.18823433 44.24779129 5.00000000
v 15.29260254 44.27788162 5.00000000
v 15.39571762 44.31277466 5.00000000
v 15.49713802 44.35232544 5.00000000
v 15.59642887 44.39636230 5.00000000
v 15.02246857 46.59747696 5.00000000
v 15.12790203 46.61246490 5.00000000
v 15.23278713 46.62225723 5.00000000
v 15.33667564 46.62681961 5.00000000
v 15.43912315 46.62612534 5.00000000
v 15.53969002 46.62018204 5.00000000
v 15.69316673 44.44469833 5.00000000
v 15.78693581 44.49711990 5.00000000
v 15.87733459 44.55341339 5.00000000
v 15.96397781 44.61333084 5.00000000
v 16.04649162 44.67661285 5.00000000
v 16.12452507 44.74299622 5.00000000
v 16.19774437 44.81219482 5.00000000
v 15.63794518 46.60901260 5.00000000
v 15.73346901 46.59266663 5.00000000
v 15.82585239 46.57121277 5.00000000
v 15.91469860 46.54474640 5.00000000
v 16.08027840 46.47723770 5.00000000
v 15.99962807 46.51337433 5.00000000
v 16.15630150 46.43648529 5.00000000
v 16.22737312 46.39129639 5.00000000
v 15.08306122 44.22263718 5.50000000
v 15.18823433 44.24779129 5.50000000
v 15.29260254 44.27788162 5.50000000
v 15.39571762 44.31277466 5.50000000
v 15.49713802 44.35232544 5.50000000
v 15.59642887 44.39636230 5.50000000
v 15.02246857 46.59747696 5.50000000
v 15.12790203 46.61246490 5.50000000
v 15.23278713 46.62225723 5.50000000
v 15.33667564 46.62681961 5.50000000
v 15.43912315 46.62612534 5.50000000
v 15.53969002 46.62018204 5.50000000
v 15.69316673 44.44469833 5.50000000
v 15.78693581 44.49711990 5.50000000
v 15.87733459 44.55341339 5.50000000
v 15.96397781 44.61333084 5.50000000
v 16.04649162 44.67661285 5.50000000
v 16.12452507 44.74299622 5.50000000
v 16.19774437 44.81219482 5.50000000
v 15.63794518 46.60901260 5.50000000
v 15.73346901 46.59266663 5.50000000
v 15.82585239 46.57121277 5.50000000
v 15.91469860 46.54474640 5.50000000
v 16.08027840 46.47723770 5.50000000
v 15.99962807 46.51337433 5.50000000
v 16.15630150 46.43648529 5.50000000
v 16.22737312 46.39129639 5.50000000
v 16.26583290 44.88390732 5.00000000
v 16.32850075 44.95782852 5.00000000
v 16.38548088 45.03364563 5.00000000
v 16.43652725 45.11103058 5.00000000
v 16.45878029 45.15000153 5.00000000
v 16.61164284 45.65000153 5.00000000
v 16.58618164 45.89679337 5.00000000
v 16.61278725 45.66833496 5.00000000
v 16.61080360 45.74607849 5.00000000
v 16.60192299 45.82234192 5.00000000
v 16.29318810 46.34186172 5.00000000
v 16.35346603 46.28839493 5.00000000
v 16.45640373 46.17029190 5.00000000
v 16.40794945 46.23112488 5.00000000
v 16.49861908 46.10616302 5.00000000
v 16.53442001 46.03900909 5.00000000
v 16.56364822 45.96912003 5.00000000
v 16.26583290 44.88390732 5.50000000
v 16.32850075 44.95782852 5.50000000
v 16.38548088 45.03364563 5.50000000
v 16.43652725 45.11103058 5.50000000
v 16.45878029 45.15000153 5.50000000
v 16.61164284 45.65000153 5.50000000
v 16.58618164 45.89679337 5.50000000
v 16.61278725 45.66833496 5.50000000
v 16.61080360 45.74607849 5.50000000
v 16.60192299 45.82234192 5.50000000
v 16.29318810 46.34186172 5.50000000
v 16.35346603 46.28839493 5.50000000
v 16.45640373 46.17029190 5.50000000
v 16.40794945 46.23112488 5.50000000
v 16.49861908 46.10616302 5.50000000
v 16.53442001 46.03900909 5.50000000
v 16.56364822 45.96912003 5.50000000
v 19.79999924 35.17499924 4.59999990
v 19.79999924 37.42499924 4.59999990
v 19.79999924 37.77500153 4.59999990
v 19.79999924 40.02500153 4.59999990
v 19.79999924 40.37500000 4.59999990
v 17.60000038 42.54999924 5.00000000
v 17.60000038 43.04999924 5.00000000
v 17.60000038 42.54999924 5.50000000
v 17.60000038 43.04999924 5.50000000
v 19.39999962 35.17499924 5.00000000
v 19.39999962 37.42499924 5.00000000
v 19.39999962 37.77500153 5.00000000
v 19.39999962 40.02500153 5.00000000
v 19.39999962 40.37500000 5.00000000
v 17.60000038 45.15000153 5.00000000
v 17.60000038 45.65000153 5.00000000
v 17.60000038 45.15000153 5.50000000
v 17.60000038 45.65000153 5.50000000
v 15.04858780 59.64701843 4.59999990
v 15.04858780 59.64701843 5.00000000
v 15.04858780 62.11701584 4.59999990
v 15.04858780 62.11701584 5.00000000
v 19.39999962 70.00000000 4.40000010
v 20.00000000 69.40000153 4.40000010
v 19.39999962 69.40000153 5.00000000
f 1 3 2
f 2 3 5
f 1 2 331
f 2 4 332
f 1 798 3
f 1 331 797
f 2 5 4
f 4 5 6
f 4 6 19
f 6 9 7
f 6 11 9
f 6 57 11
f 6 59 57
f 6 28 19
f 6 34 28
f 6 8 34
f 6 7 8
f 10 7 9
f 19 25 20
f 19 28 24
f 4 19 344
f 20 29 21
f 22 31 23
f 19 24 25
f 20 25 42
f 23 32 139
f 20 42 29
f 29 30 21
f 23 31 32
f 29 43 30
f 35 36 8
f 36 33 8
f 34 8 33
f 28 41 24
f 28 34 37
f 28 37 41
f 29 42 43
f 30 43 46
f 31 195 32
f 11 58 12
f 11 57 58
f 59 65 60
f 59 102 65
f 26 68 27
f 67 68 26
f 26 44 67
f 77 27 68
f 21 240 22
f 21 30 239
f 23 139 359
f 38 72 39
f 38 71 72
f 77 45 27
f 67 44 76
f 44 40 76
f 77 46 45
f 40 75 76
f 77 78 46
f 73 92 74
f 93 80 79
f 22 303 31
f 30 46 302
f 73 91 94
f 73 95 92
f 65 94 91
f 73 94 95
f 94 65 147
f 92 157 93
f 156 92 95
f 147 65 148
f 148 65 149
f 149 65 153
f 80 93 202
f 32 192 139
f 32 193 192
f 31 224 195
f 32 195 193
f 302 46 78
f 302 78 82
f 31 226 224
f 3 800 5
f 5 800 6
f 6 802 59
f 802 115 59
f 59 103 102
f 59 104 103
f 59 105 104
f 59 106 105
f 160 65 101
f 101 65 102
f 59 113 106
f 59 114 113
f 59 115 114
f 69 236 70
f 69 80 235
f 21 239 240
f 22 240 303
f 141 142 140
f 141 140 194
f 69 235 236
f 70 236 272
f 145 144 143
f 143 225 145
f 145 364 144
f 153 65 154
f 154 65 155
f 155 65 159
f 159 65 160
f 94 146 150
f 94 147 146
f 94 150 151
f 94 151 152
f 92 156 157
f 158 93 157
f 161 93 158
f 162 93 161
f 163 93 162
f 164 93 163
f 165 93 164
f 166 93 165
f 167 93 166
f 168 93 167
f 200 93 168
f 201 93 200
f 202 93 201
f 70 272 81
f 81 272 82
f 80 202 203
f 80 203 204
f 80 204 205
f 80 205 206
f 80 206 207
f 80 207 208
f 80 208 209
f 30 302 239
f 31 303 226
f 141 194 196
f 194 193 195
f 196 194 195
f 80 271 235
f 80 209 271
f 272 302 82
f 225 224 227
f 145 225 227
f 227 224 226
f 241 243 401
f 242 243 241
f 241 305 242
f 407 243 247
f 237 249 238
f 237 248 249
f 237 280 248
f 238 249 318
f 244 253 245
f 252 253 244
f 244 307 252
f 326 245 253
f 256 247 246
f 256 407 247
f 246 309 256
f 271 209 210
f 271 210 211
f 271 211 259
f 271 259 260
f 271 260 261
f 271 261 266
f 271 266 267
f 271 267 268
f 271 268 269
f 271 269 270
f 242 305 306
f 226 303 304
f 306 305 304
f 306 304 303
f 280 279 314
f 315 314 279
f 238 318 281
f 280 317 248
f 280 314 317
f 314 315 316
f 245 326 308
f 252 307 325
f 281 325 307
f 318 325 281
f 256 309 329
f 329 309 308
f 326 329 308
f 2 332 331
f 331 332 333
f 332 345 333
f 331 333 814
f 333 345 814
f 4 344 332
f 334 339 335
f 336 341 337
f 19 20 344
f 23 359 334
f 335 361 336
f 335 340 360
f 335 339 340
f 341 342 337
f 334 367 339
f 339 368 340
f 336 375 341
f 341 376 342
f 20 21 344
f 21 22 344
f 22 23 344
f 23 334 344
f 334 335 344
f 335 336 344
f 336 337 344
f 337 338 344
f 338 343 344
f 334 359 367
f 335 360 361
f 336 361 375
f 337 1007 338
f 337 342 1006
f 338 1007 343
f 339 367 368
f 340 370 369
f 340 368 371
f 340 371 370
f 340 373 360
f 340 369 374
f 340 374 373
f 341 375 376
f 342 376 387
f 342 387 391
f 343 525 517
f 343 526 525
f 343 524 526
f 343 527 524
f 343 528 527
f 343 531 528
f 343 532 531
f 343 533 532
f 343 534 533
f 343 529 553
f 343 552 534
f 343 553 552
f 332 344 345
f 343 346 344
f 343 519 346
f 344 346 345
f 347 473 349
f 347 349 348
f 349 355 350
f 347 351 477
f 347 348 352
f 348 349 353
f 349 350 354
f 343 520 519
f 343 522 521
f 343 515 522
f 343 518 520
f 343 521 518
f 343 516 515
f 343 517 516
f 351 523 477
f 347 352 351
f 348 353 352
f 349 354 353
f 350 357 354
f 349 561 355
f 355 561 356
f 350 355 357
f 355 356 358
f 356 561 603
f 346 519 523
f 346 523 351
f 346 351 352
f 346 352 353
f 346 353 354
f 346 354 357
f 346 357 358
f 346 358 603
f 346 603 604
f 346 604 605
f 346 605 606
f 346 606 607
f 346 607 608
f 346 608 609
f 346 609 610
f 346 610 611
f 346 611 612
f 355 358 357
f 356 603 358
f 346 612 613
f 346 613 614
f 346 614 615
f 346 615 616
f 346 616 630
f 346 630 631
f 346 631 632
f 346 632 633
f 346 633 638
f 346 638 639
f 346 639 643
f 362 366 363
f 362 365 366
f 363 366 390
f 372 370 371
f 342 391 417
f 389 385 384
f 363 390 386
f 386 391 387
f 388 389 384
f 390 391 386
f 343 461 462
f 343 462 463
f 343 952 461
f 342 417 1038
f 343 881 952
f 343 882 881
f 343 883 882
f 343 530 529
f 343 683 530
f 343 684 683
f 343 685 684
f 343 686 685
f 343 687 686
f 343 688 687
f 343 689 688
f 343 701 689
f 343 702 701
f 343 703 702
f 343 463 464
f 343 464 976
f 343 704 703
f 343 705 704
f 343 706 705
f 343 707 706
f 343 1134 707
f 343 1135 1134
f 343 1138 1135
f 343 1139 1138
f 343 1140 1139
f 343 1141 1140
f 343 1142 1141
f 402 403 404
f 402 404 416
f 407 401 243
f 431 401 407
f 406 829 405
f 406 420 829
f 257 816 408
f 845 408 816
f 829 830 405
f 405 830 831
f 405 831 832
f 337 1006 1007
f 402 416 415
f 416 419 415
f 431 409 401
f 431 410 409
f 431 414 410
f 413 432 411
f 412 411 432
f 412 436 421
f 414 432 413
f 420 421 443
f 343 1039 883
f 431 432 414
f 412 432 433
f 412 433 434
f 412 434 435
f 412 435 436
f 437 421 436
f 421 437 438
f 421 438 439
f 421 439 443
f 420 443 444
f 420 444 445
f 420 445 446
f 420 446 846
f 408 845 440
f 440 442 441
f 440 844 442
f 440 845 844
f 420 853 829
f 405 1025 418
f 420 846 847
f 420 847 848
f 420 848 849
f 420 849 850
f 420 850 851
f 1038 417 415
f 1038 415 419
f 420 851 852
f 420 852 854
f 420 854 853
f 418 1038 419
f 342 1038 1006
f 343 1007 1039
f 343 1145 1142
f 343 976 1198
f 343 1146 1145
f 343 1192 1146
f 954 463 462
f 953 954 462
f 957 976 464
f 343 1195 1192
f 343 1198 1195
f 469 470 476
f 470 479 476
f 470 471 479
f 469 476 522
f 469 515 470
f 471 517 479
f 470 516 471
f 472 476 473
f 472 473 474
f 349 473 476
f 472 475 476
f 347 477 473
f 349 476 482
f 473 477 523
f 473 519 474
f 472 474 520
f 475 521 476
f 472 518 475
f 478 482 479
f 476 479 482
f 478 479 480
f 478 481 482
f 478 524 481
f 479 525 480
f 478 480 526
f 481 527 482
f 482 528 485
f 349 497 496
f 349 496 498
f 349 491 497
f 349 492 491
f 349 494 492
f 349 499 500
f 349 500 501
f 349 498 499
f 349 501 502
f 349 502 575
f 349 493 495
f 349 495 494
f 349 504 493
f 349 503 504
f 349 505 503
f 349 490 489
f 349 508 490
f 349 489 505
f 483 484 507
f 483 507 553
f 483 529 484
f 484 530 645
f 482 485 486
f 482 486 488
f 486 487 488
f 482 488 484
f 349 482 663
f 485 531 486
f 486 532 487
f 487 533 488
f 488 534 506
f 489 535 505
f 489 490 536
f 349 509 508
f 349 510 509
f 492 494 540
f 491 492 538
f 493 539 495
f 493 504 550
f 494 495 541
f 496 497 543
f 496 542 498
f 498 544 499
f 491 537 497
f 499 545 500
f 500 546 501
f 501 547 502
f 503 549 504
f 503 505 551
f 488 506 507
f 484 488 507
f 349 663 510
f 482 484 663
f 506 552 507
f 490 508 554
f 508 509 555
f 510 511 557
f 509 510 556
f 511 512 558
f 512 513 559
f 513 514 560
f 469 522 515
f 470 515 516
f 479 517 525
f 471 516 517
f 472 520 518
f 474 519 520
f 473 523 519
f 475 518 521
f 476 521 522
f 480 525 526
f 478 526 524
f 481 524 527
f 482 527 528
f 528 531 485
f 483 553 529
f 484 529 530
f 530 683 645
f 486 531 532
f 487 532 533
f 488 533 534
f 506 534 552
f 505 535 551
f 489 536 535
f 490 554 536
f 491 538 537
f 492 540 538
f 495 539 541
f 493 550 539
f 494 541 540
f 497 537 543
f 496 543 542
f 498 542 544
f 499 544 545
f 500 545 546
f 501 546 547
f 502 547 548
f 504 549 550
f 503 551 549
f 507 552 553
f 508 555 554
f 509 556 555
f 510 557 556
f 511 558 557
f 512 559 558
f 513 560 559
f 514 691 560
f 349 565 561
f 561 563 562
f 561 565 563
f 563 565 564
f 565 567 566
f 349 573 565
f 565 569 567
f 567 569 568
f 561 562 604
f 562 563 605
f 563 564 606
f 564 565 607
f 565 566 608
f 566 567 609
f 567 568 610
f 565 573 569
f 568 569 611
f 569 570 612
f 349 575 576
f 349 576 577
f 349 577 578
f 349 578 579
f 349 579 580
f 349 580 581
f 349 581 582
f 349 582 583
f 349 583 584
f 349 584 585
f 349 585 586
f 349 586 587
f 349 587 592
f 569 571 570
f 569 573 571
f 571 573 572
f 573 588 574
f 570 571 613
f 571 572 614
f 572 573 615
f 573 574 616
f 574 588 630
f 349 592 593
f 349 593 738
f 502 548 575
f 575 617 576
f 576 618 577
f 577 619 578
f 578 620 579
f 579 621 580
f 580 622 581
f 581 623 582
f 582 624 583
f 583 625 584
f 584 626 585
f 585 627 586
f 586 628 587
f 587 629 592
f 573 590 588
f 349 738 573
f 588 590 589
f 573 601 590
f 590 596 591
f 588 589 631
f 589 590 632
f 590 591 633
f 591 596 638
f 592 634 593
f 593 635 594
f 590 601 596
f 596 601 597
f 573 738 601
f 601 724 602
f 594 636 595
f 596 597 639
f 597 601 643
f 595 637 598
f 598 640 599
f 599 641 600
f 600 642 721
f 601 602 644
f 602 724 762
f 345 346 1332
f 561 604 603
f 562 605 604
f 563 606 605
f 564 607 606
f 565 608 607
f 566 609 608
f 567 610 609
f 568 611 610
f 569 612 611
f 570 613 612
f 571 614 613
f 572 615 614
f 573 616 615
f 574 630 616
f 346 643 644
f 346 644 762
f 346 762 763
f 346 763 767
f 346 767 768
f 346 768 771
f 346 771 775
f 346 775 776
f 346 776 780
f 346 780 781
f 346 781 785
f 548 617 575
f 576 617 618
f 577 618 619
f 578 619 620
f 579 620 621
f 580 621 622
f 581 622 623
f 582 623 624
f 583 624 625
f 584 625 626
f 585 626 627
f 586 627 628
f 587 628 629
f 588 631 630
f 589 632 631
f 590 633 632
f 591 638 633
f 592 629 634
f 593 634 635
f 594 635 636
f 595 636 637
f 596 639 638
f 597 643 639
f 598 637 640
f 599 640 641
f 600 641 642
f 601 644 643
f 602 762 644
f 346 786 792
f 346 785 786
f 346 792 793
f 484 645 646
f 484 646 648
f 646 647 648
f 484 648 663
f 645 683 646
f 646 684 647
f 647 685 648
f 648 649 650
f 648 650 663
f 650 651 663
f 648 686 649
f 649 687 650
f 650 688 651
f 651 689 663
f 510 663 511
f 512 663 513
f 511 663 512
f 513 663 514
f 514 663 653
f 653 663 654
f 652 654 663
f 514 653 691
f 653 654 692
f 652 690 654
f 652 655 693
f 655 656 694
f 656 657 695
f 652 663 655
f 655 663 656
f 656 663 657
f 657 663 658
f 658 663 659
f 659 663 660
f 660 663 661
f 661 663 662
f 657 658 696
f 658 659 697
f 659 660 698
f 660 661 699
f 661 662 700
f 662 670 708
f 663 664 665
f 663 665 667
f 665 666 667
f 663 701 664
f 664 702 665
f 665 703 666
f 663 667 1119
f 667 668 669
f 666 704 667
f 667 705 668
f 668 706 669
f 662 663 670
f 663 671 670
f 663 672 671
f 663 673 672
f 663 674 673
f 663 675 674
f 663 676 675
f 663 677 676
f 663 678 677
f 670 671 709
f 671 672 710
f 672 673 711
f 673 674 712
f 674 675 713
f 663 679 678
f 663 680 679
f 663 681 680
f 663 682 681
f 663 1120 682
f 663 1121 1120
f 667 669 1119
f 663 1119 1121
f 675 676 714
f 676 677 715
f 677 678 716
f 669 707 1118
f 678 679 717
f 679 680 718
f 680 681 719
f 681 682 720
f 646 683 684
f 647 684 685
f 648 685 686
f 649 686 687
f 650 687 688
f 651 688 689
f 689 701 663
f 653 692 691
f 654 690 692
f 652 693 690
f 655 694 693
f 656 695 694
f 549 551 1136
f 535 1136 551
f 535 536 1136
f 536 554 1136
f 554 555 720
f 556 557 718
f 559 560 715
f 557 558 717
f 558 559 716
f 555 556 719
f 538 540 1137
f 542 543 1137
f 542 1137 544
f 544 1137 545
f 537 538 1137
f 537 1137 543
f 540 541 1137
f 539 1137 541
f 549 1136 550
f 539 550 1137
f 545 1137 546
f 546 1137 547
f 547 1137 548
f 548 1137 617
f 617 1137 618
f 618 1137 619
f 619 1137 620
f 620 1137 621
f 621 1137 622
f 622 1137 623
f 657 696 695
f 658 697 696
f 659 698 697
f 660 699 698
f 661 700 699
f 662 708 700
f 690 693 711
f 693 694 710
f 694 695 709
f 695 696 708
f 696 697 700
f 560 691 714
f 691 692 713
f 690 712 692
f 697 698 699
f 697 699 700
f 696 700 708
f 695 708 709
f 694 709 710
f 693 710 711
f 690 711 712
f 692 712 713
f 664 701 702
f 665 702 703
f 666 703 704
f 667 704 705
f 668 705 706
f 669 706 707
f 670 709 708
f 671 710 709
f 672 711 710
f 673 712 711
f 674 713 712
f 675 714 713
f 691 713 714
f 560 714 715
f 559 715 716
f 558 716 717
f 557 717 718
f 556 718 719
f 555 719 720
f 550 1136 1137
f 554 720 1136
f 676 715 714
f 677 716 715
f 678 717 716
f 707 1134 1118
f 679 718 717
f 680 719 718
f 681 720 719
f 593 594 738
f 594 595 738
f 595 598 738
f 598 599 738
f 601 729 724
f 724 729 725
f 599 600 738
f 600 721 738
f 721 722 738
f 722 723 738
f 601 738 729
f 723 726 738
f 729 733 730
f 721 759 722
f 722 760 723
f 724 725 763
f 723 761 726
f 726 764 727
f 727 765 728
f 725 729 767
f 729 730 768
f 726 727 738
f 727 728 738
f 729 738 733
f 728 731 738
f 731 732 738
f 732 734 738
f 734 735 738
f 733 738 737
f 735 736 738
f 728 766 731
f 731 769 732
f 732 770 734
f 730 733 771
f 733 737 775
f 734 772 735
f 735 773 736
f 736 774 739
f 737 738 776
f 738 742 780
f 738 743 742
f 738 748 743
f 743 748 747
f 738 1152 748
f 739 777 740
f 740 778 741
f 741 779 744
f 742 743 781
f 744 782 746
f 745 746 784
f 745 783 751
f 743 747 785
f 747 748 786
f 749 787 750
f 736 739 1160
f 736 1160 738
f 739 740 1160
f 740 741 1160
f 748 755 754
f 748 1152 755
f 744 746 1160
f 741 744 1160
f 745 1160 746
f 745 751 1160
f 755 1152 758
f 738 1160 1152
f 751 789 752
f 752 790 753
f 753 791 756
f 748 754 792
f 754 755 793
f 756 794 757
f 749 757 795
f 755 758 796
f 758 1152 1168
f 623 1137 624
f 624 1137 625
f 625 1137 626
f 626 1137 627
f 627 1137 628
f 628 1137 629
f 629 1137 634
f 634 1137 635
f 635 1137 636
f 642 759 721
f 722 759 760
f 723 760 761
f 724 763 762
f 725 767 763
f 726 761 764
f 727 764 765
f 728 765 766
f 729 768 767
f 636 1137 637
f 637 1137 640
f 640 1137 641
f 641 1137 642
f 642 1137 759
f 759 1137 760
f 760 1137 761
f 761 1137 764
f 764 1137 765
f 765 1137 766
f 731 766 769
f 732 769 770
f 734 770 772
f 730 771 768
f 733 775 771
f 735 772 773
f 736 773 774
f 774 777 739
f 737 776 775
f 738 780 776
f 766 1137 769
f 769 1137 770
f 770 1137 772
f 772 1137 773
f 773 1137 774
f 774 1137 777
f 777 1137 778
f 778 1137 779
f 740 777 778
f 741 778 779
f 742 781 780
f 743 785 781
f 744 779 782
f 746 782 784
f 745 784 783
f 747 786 785
f 750 787 788
f 782 1137 784
f 783 784 1137
f 783 1137 789
f 779 1137 782
f 789 1137 790
f 790 1137 791
f 791 1137 794
f 794 1137 795
f 787 795 1137
f 751 783 789
f 752 789 790
f 753 790 791
f 748 792 786
f 754 793 792
f 756 791 794
f 757 794 795
f 749 795 787
f 755 796 793
f 758 1168 796
f 346 793 1334
f 1 797 798
f 3 798 800
f 797 799 798
f 798 799 800
f 797 813 799
f 6 800 802
f 802 116 115
f 802 117 116
f 802 118 117
f 802 119 118
f 802 120 119
f 802 121 120
f 802 122 121
f 802 123 122
f 802 124 123
f 802 125 124
f 802 231 125
f 802 232 231
f 802 258 232
f 802 262 258
f 802 263 262
f 802 264 263
f 802 265 264
f 802 273 265
f 802 274 273
f 802 275 274
f 802 276 275
f 802 277 276
f 802 278 277
f 802 313 278
f 257 821 820
f 257 822 821
f 802 315 313
f 802 316 315
f 804 251 250
f 803 250 319
f 806 255 254
f 805 254 327
f 807 822 257
f 807 823 822
f 807 824 823
f 807 257 330
f 807 825 824
f 809 320 251
f 808 319 316
f 811 328 255
f 810 327 320
f 812 330 328
f 799 801 800
f 800 801 802
f 801 808 802
f 799 1333 801
f 802 808 316
f 803 804 250
f 804 809 251
f 805 806 254
f 806 811 255
f 809 810 320
f 811 812 328
f 803 319 808
f 805 327 810
f 807 330 812
f 801 803 808
f 801 1333 803
f 804 805 810
f 806 807 812
f 804 810 809
f 806 812 811
f 331 813 797
f 331 814 813
f 799 813 815
f 799 815 1333
f 813 814 815
f 814 1333 815
f 257 817 816
f 257 818 817
f 257 819 818
f 257 820 819
f 405 832 833
f 405 833 834
f 405 834 836
f 405 836 1005
f 405 1005 1025
f 1005 836 837
f 1005 837 838
f 1005 838 839
f 1005 839 840
f 1005 840 841
f 1005 841 842
f 1005 842 843
f 843 907 1004
f 882 960 955
f 882 883 960
f 418 1025 1038
f 907 908 1024
f 1024 908 909
f 946 986 982
f 1039 946 883
f 946 948 986
f 948 946 947
f 1039 947 946
f 956 962 958
f 956 961 962
f 959 978 977
f 959 963 978
f 983 991 984
f 985 990 1002
f 986 988 987
f 983 987 988
f 983 989 991
f 983 988 989
f 1198 976 977
f 1198 977 978
f 1198 978 1002
f 843 1004 1005
f 807 826 825
f 807 827 826
f 807 828 827
f 807 835 828
f 1024 905 906
f 1024 906 1019
f 1015 1023 1016
f 1016 1023 1017
f 1020 1023 1021
f 1017 1023 1020
f 1021 1023 1022
f 1024 1018 1022
f 1024 1019 1018
f 1024 1022 1023
f 1004 907 1024
f 1024 909 910
f 1024 910 911
f 1024 911 912
f 1024 912 913
f 1024 913 904
f 1024 904 905
f 1039 1040 947
f 1319 887 835
f 1319 888 887
f 1319 889 888
f 1319 890 889
f 1319 891 890
f 1319 892 891
f 1319 893 892
f 1319 894 893
f 1319 895 894
f 1319 896 895
f 1319 897 896
f 1319 898 897
f 1319 899 898
f 1319 900 899
f 1319 901 900
f 1319 902 901
f 1319 903 902
f 1319 1012 903
f 1319 1013 1012
f 1319 1014 1013
f 1319 1015 1014
f 1054 986 948
f 986 1054 988
f 1055 991 989
f 1041 1054 948
f 1055 1056 991
f 991 1079 990
f 1002 990 1079
f 1057 991 1056
f 1058 991 1057
f 1059 991 1058
f 1073 991 1059
f 1074 991 1073
f 1075 991 1074
f 1076 991 1075
f 1077 991 1076
f 1086 1002 1079
f 1078 991 1077
f 1079 991 1078
f 1087 1002 1086
f 1088 1002 1087
f 1089 1002 1088
f 1090 1002 1089
f 1198 1002 1228
f 1051 1068 1066
f 1051 1067 1068
f 1051 1069 1067
f 1051 1070 1069
f 1051 1071 1070
f 1051 1072 1071
f 1051 1080 1072
f 1051 1081 1080
f 1091 1002 1090
f 1228 1002 1091
f 1198 1228 1229
f 1198 1229 1230
f 345 1332 814
f 669 1118 1119
f 1119 1122 1123
f 1119 1123 1125
f 1119 1125 1121
f 1123 1124 1125
f 1118 1134 1119
f 1119 1135 1122
f 682 1120 1136
f 1120 1121 1137
f 1122 1138 1123
f 1123 1139 1124
f 1125 1126 1127
f 1121 1125 1127
f 1121 1127 1128
f 1124 1140 1125
f 1125 1141 1126
f 1126 1142 1127
f 1121 1128 1144
f 1127 1143 1128
f 1129 1145 1132
f 1130 1132 1148
f 1129 1133 1131
f 1129 1131 1145
f 1131 1133 1149
f 1133 1163 1179
f 1119 1134 1135
f 1122 1135 1138
f 682 1136 720
f 1120 1137 1136
f 1123 1138 1139
f 1124 1139 1140
f 1121 1144 1137
f 1137 1144 1167
f 1125 1140 1141
f 1126 1141 1142
f 1127 1142 1143
f 1128 1143 1144
f 1144 1145 1167
f 1142 1145 1143
f 1143 1145 1144
f 1145 1147 1167
f 1130 1148 1146
f 1145 1146 1148
f 1131 1147 1145
f 1131 1149 1147
f 1132 1145 1148
f 1133 1179 1149
f 1147 1149 1177
f 1149 1179 1177
f 1150 1151 1160
f 750 788 1150
f 1150 1166 1151
f 1151 1167 1160
f 751 752 1160
f 752 753 1160
f 756 757 1160
f 753 756 1160
f 749 1160 757
f 1152 1154 1153
f 749 750 1160
f 750 1150 1160
f 1152 1160 1156
f 1152 1156 1154
f 1154 1156 1155
f 1152 1153 1169
f 1153 1154 1170
f 1154 1155 1171
f 1155 1156 1172
f 1156 1158 1157
f 1156 1160 1158
f 1158 1160 1159
f 1156 1157 1173
f 1157 1158 1174
f 1159 1160 1176
f 1158 1159 1175
f 1161 1164 1162
f 1161 1163 1164
f 1161 1162 1178
f 1161 1177 1163
f 1162 1164 1180
f 1164 1165 1181
f 788 1166 1150
f 1151 1166 1167
f 1137 1167 1166
f 787 1137 788
f 788 1137 1166
f 1152 1169 1168
f 1153 1170 1169
f 1154 1171 1170
f 1155 1172 1171
f 1167 1178 1176
f 1156 1173 1172
f 1160 1167 1176
f 1157 1174 1173
f 1158 1175 1174
f 1159 1176 1175
f 1171 1172 1181
f 1147 1177 1167
f 1167 1177 1178
f 1176 1178 1180
f 1172 1173 1181
f 1173 1174 1181
f 1174 1175 1181
f 1175 1176 1181
f 1161 1178 1177
f 1162 1180 1178
f 1163 1177 1179
f 1164 1181 1180
f 1176 1180 1181
f 1130 1182 1132
f 1132 1182 1183
f 1130 1146 1182
f 1129 1184 1133
f 1129 1132 1187
f 1133 1184 1163
f 1129 1187 1184
f 1163 1184 1202
f 1182 1192 1183
f 1132 1183 1187
f 1183 1193 1186
f 1184 1194 1202
f 1184 1187 1197
f 1185 1188 1186
f 1186 1188 1189
f 1185 1195 1188
f 1185 1186 1196
f 1183 1186 1190
f 1183 1190 1187
f 1187 1190 1205
f 1186 1189 1190
f 1188 1198 1189
f 1189 1191 1190
f 1189 1328 1191
f 1190 1200 1208
f 1189 1199 1328
f 1191 1328 1329
f 1190 1191 1201
f 1146 1192 1182
f 1183 1192 1193
f 1192 1196 1193
f 1192 1195 1196
f 1194 1212 1202
f 1184 1197 1194
f 1193 1196 1186
f 1194 1215 1212
f 1194 1197 1215
f 1185 1196 1195
f 1188 1195 1198
f 1187 1215 1197
f 1189 1198 1199
f 1190 1201 1200
f 1199 1329 1328
f 1191 1329 1201
f 1200 1201 1218
f 1163 1203 1164
f 1164 1203 1165
f 1165 1203 1204
f 1165 1204 1214
f 1163 1202 1206
f 1163 1206 1203
f 1202 1205 1206
f 1202 1212 1205
f 1203 1213 1204
f 1203 1206 1216
f 346 1334 1332
f 1190 1206 1205
f 1206 1209 1207
f 1190 1208 1206
f 1206 1208 1209
f 1187 1205 1215
f 1207 1209 1211
f 1206 1207 1217
f 1207 1211 1221
f 1208 1210 1209
f 1208 1330 1210
f 1208 1218 1330
f 1209 1210 1220
f 1210 1330 1331
f 1209 1219 1211
f 1165 1214 1181
f 1203 1216 1213
f 1212 1215 1205
f 1213 1216 1217
f 1204 1213 1214
f 1213 1217 1214
f 793 796 1334
f 796 1168 1334
f 1168 1169 1334
f 1169 1170 1334
f 1170 1171 1334
f 1206 1217 1216
f 1207 1221 1217
f 1200 1218 1208
f 1209 1220 1219
f 1218 1331 1330
f 1210 1331 1220
f 1201 1331 1218
f 1211 1219 1221
f 1171 1181 1334
f 1312 1009 1008
f 1311 1008 1045
f 1314 1011 1010
f 1313 1010 1048
f 1310 1319 835
f 807 1310 835
f 1319 1023 1015
f 1319 1044 1023
f 1320 1045 1044
f 1321 1046 1009
f 1322 1048 1046
f 1049 1315 1050
f 1051 1316 1081
f 1323 1049 1011
f 1323 1315 1049
f 1081 1316 1082
f 1082 1316 1083
f 1083 1316 1084
f 1084 1316 1085
f 1085 1316 1222
f 1222 1316 1223
f 1223 1316 1224
f 1224 1316 1225
f 1225 1316 1226
f 1226 1316 1227
f 1198 1230 1231
f 1198 1231 1232
f 1198 1232 1233
f 1198 1233 1241
f 1198 1241 1242
f 1198 1242 1243
f 1198 1243 1244
f 1198 1244 1246
f 1198 1246 1245
f 1198 1245 1247
f 1198 1247 1248
f 1198 1248 1286
f 1198 1286 1287
f 1198 1287 1289
f 1198 1289 1288
f 1198 1288 1325
f 1198 1323 1199
f 1316 1234 1227
f 1316 1235 1234
f 1316 1236 1235
f 1236 1316 1237
f 1237 1316 1238
f 1238 1316 1239
f 1239 1316 1240
f 1240 1316 1276
f 1276 1316 1277
f 1277 1316 1278
f 1278 1324 1279
f 1279 1324 1280
f 1290 1325 1288
f 1281 1325 1283
f 1291 1325 1290
f 1292 1325 1291
f 1285 1325 1282
f 1283 1325 1284
f 1284 1325 1285
f 1282 1325 1292
f 1278 1316 1324
f 1198 1325 1323
f 1311 1312 1008
f 1312 1321 1009
f 1313 1314 1010
f 1314 1323 1011
f 1310 1311 1320
f 1312 1313 1322
f 803 1333 804
f 1319 1320 1044
f 1311 1045 1320
f 1321 1322 1046
f 1313 1048 1322
f 1323 1316 1315
f 1323 1324 1316
f 1323 1325 1324
f 1310 1320 1319
f 1312 1322 1321
f 804 1333 805
f 805 1333 806
f 806 1333 807
f 807 1333 1310
f 1310 1333 1311
f 1311 1333 1312
f 1312 1333 1313
f 1313 1333 1314
f 1314 1334 1323
f 814 1332 1333
f 1199 1323 1329
f 1201 1329 1323
f 1201 1323 1331
f 1181 1214 1334
f 1214 1217 1334
f 1217 1221 1334
f 1219 1334 1221
f 1219 1220 1334
f 1220 1331 1334
f 1314 1333 1334
f 1323 1334 1331
f 1332 1334 1333
f 13 8 7
f 13 14 8
f 13 7 16
f 13 49 14
f 15 10 9
f 16 7 10
f 17 9 11
f 18 11 12
f 15 9 17
f 15 17 16
f 15 16 10
f 13 52 49
f 17 11 18
f 16 17 18
f 13 16 83
f 13 83 52
f 24 42 25
f 44 26 27
f 24 41 42
f 44 27 45
f 14 35 8
f 47 34 33
f 48 37 34
f 14 49 35
f 47 48 34
f 47 33 50
f 48 51 37
f 47 51 48
f 49 36 35
f 50 33 36
f 53 38 39
f 49 50 36
f 49 52 50
f 47 50 51
f 50 54 51
f 52 38 53
f 52 53 50
f 50 53 54
f 51 41 37
f 55 42 41
f 55 43 42
f 55 46 43
f 56 40 44
f 56 44 45
f 56 45 46
f 51 55 41
f 51 54 55
f 54 40 56
f 54 56 55
f 55 56 46
f 62 12 58
f 18 12 62
f 16 18 83
f 18 62 83
f 61 58 57
f 63 57 59
f 64 59 60
f 61 57 63
f 61 63 62
f 61 62 58
f 62 63 64
f 62 64 85
f 63 59 64
f 64 60 66
f 66 60 65
f 67 77 68
f 80 69 70
f 67 76 77
f 80 70 81
f 52 71 38
f 84 39 72
f 53 39 84
f 53 84 54
f 52 83 71
f 54 84 86
f 54 86 87
f 54 75 40
f 54 87 75
f 83 72 71
f 85 91 73
f 86 73 74
f 62 86 83
f 62 85 86
f 83 84 72
f 83 86 84
f 87 86 89
f 85 73 86
f 64 96 85
f 86 74 97
f 87 76 75
f 88 77 76
f 88 78 77
f 88 82 78
f 89 79 80
f 89 93 79
f 90 80 81
f 90 81 82
f 87 88 76
f 87 89 88
f 88 90 82
f 88 89 90
f 89 80 90
f 86 98 89
f 96 65 91
f 97 74 92
f 85 96 91
f 66 65 96
f 64 66 96
f 97 92 98
f 86 97 98
f 98 92 93
f 89 98 93
f 99 95 94
f 100 156 95
f 99 100 95
f 99 94 175
f 99 179 100
f 107 160 101
f 108 101 102
f 109 102 103
f 110 103 104
f 111 104 105
f 112 105 106
f 126 106 113
f 107 183 160
f 107 101 108
f 108 102 109
f 107 108 109
f 107 109 111
f 109 103 110
f 110 104 111
f 111 105 112
f 112 106 126
f 109 110 111
f 107 111 128
f 111 112 126
f 127 113 114
f 128 114 115
f 129 115 116
f 130 116 117
f 131 117 118
f 132 118 119
f 126 113 127
f 127 114 128
f 128 115 129
f 111 126 128
f 126 127 128
f 128 129 130
f 129 116 130
f 130 117 131
f 131 118 132
f 128 130 132
f 130 131 132
f 133 119 120
f 134 120 121
f 135 121 122
f 136 122 123
f 137 123 124
f 138 124 125
f 132 119 133
f 133 120 134
f 134 121 135
f 128 132 136
f 132 133 134
f 132 134 136
f 135 122 136
f 136 123 137
f 137 124 138
f 134 135 136
f 128 136 288
f 136 137 138
f 136 138 234
f 140 142 194
f 143 144 225
f 145 227 364
f 175 94 152
f 171 147 148
f 170 146 147
f 172 148 149
f 173 151 150
f 174 152 151
f 169 150 146
f 176 149 153
f 177 153 154
f 178 154 155
f 179 157 156
f 180 158 157
f 99 175 179
f 100 179 156
f 170 169 146
f 171 170 147
f 172 171 148
f 174 151 173
f 174 175 152
f 169 173 150
f 176 153 177
f 172 149 176
f 177 154 178
f 178 155 182
f 170 173 169
f 172 170 171
f 174 173 175
f 170 175 173
f 170 179 175
f 172 176 177
f 172 177 170
f 177 107 170
f 177 178 182
f 170 187 179
f 179 180 157
f 180 181 158
f 179 184 180
f 180 184 181
f 182 155 159
f 183 159 160
f 181 161 158
f 184 162 161
f 185 163 162
f 186 164 163
f 187 165 164
f 188 166 165
f 189 167 166
f 190 168 167
f 191 200 168
f 182 159 183
f 177 182 107
f 107 182 183
f 170 107 128
f 181 184 161
f 184 185 162
f 185 186 163
f 186 187 164
f 187 188 165
f 179 187 184
f 184 186 185
f 184 187 186
f 188 189 166
f 189 190 167
f 190 191 168
f 170 215 187
f 187 189 188
f 187 191 189
f 189 191 190
f 187 215 191
f 199 142 141
f 377 139 192
f 199 194 142
f 199 141 196
f 197 192 193
f 199 193 194
f 199 196 195
f 377 192 197
f 197 193 199
f 377 197 199
f 198 195 228
f 198 199 195
f 198 228 199
f 212 201 200
f 213 202 201
f 214 203 202
f 215 204 203
f 216 205 204
f 217 206 205
f 191 212 200
f 212 213 201
f 213 214 202
f 191 213 212
f 191 215 213
f 213 215 214
f 170 128 288
f 170 288 215
f 214 215 203
f 215 216 204
f 216 217 205
f 215 217 216
f 215 219 217
f 218 207 206
f 219 208 207
f 220 209 208
f 221 210 209
f 222 211 210
f 223 259 211
f 217 218 206
f 218 219 207
f 219 220 208
f 217 219 218
f 215 223 219
f 219 221 220
f 220 221 209
f 221 222 210
f 222 223 211
f 219 223 221
f 221 223 222
f 215 294 223
f 229 225 144
f 228 195 224
f 229 224 225
f 228 224 229
f 228 229 199
f 230 227 226
f 310 226 304
f 230 396 227
f 230 226 310
f 230 310 396
f 310 422 396
f 233 125 231
f 234 231 232
f 138 125 233
f 233 231 234
f 138 233 234
f 235 272 236
f 280 237 238
f 239 303 240
f 241 401 305
f 307 244 245
f 246 247 309
f 248 318 249
f 319 250 251
f 326 253 252
f 327 254 255
f 330 257 408
f 235 271 272
f 280 238 281
f 282 232 258
f 283 260 259
f 284 261 260
f 285 266 261
f 286 258 262
f 287 262 263
f 288 263 264
f 289 264 265
f 290 267 266
f 291 268 267
f 292 269 268
f 293 270 269
f 234 232 282
f 136 234 288
f 234 282 286
f 223 283 259
f 283 284 260
f 284 285 261
f 285 290 266
f 215 288 294
f 223 284 283
f 223 290 284
f 284 290 285
f 223 294 290
f 282 258 286
f 286 262 287
f 287 263 288
f 288 264 289
f 234 286 288
f 286 287 288
f 288 289 295
f 290 291 267
f 291 292 268
f 292 293 269
f 293 294 270
f 290 292 291
f 290 294 292
f 292 294 293
f 294 271 270
f 294 272 271
f 294 302 272
f 295 265 273
f 296 273 274
f 297 274 275
f 298 275 276
f 299 276 277
f 300 277 278
f 301 279 280
f 289 265 295
f 295 273 296
f 296 274 297
f 297 275 298
f 298 276 299
f 288 295 297
f 295 296 297
f 288 297 300
f 288 300 294
f 297 298 299
f 297 299 300
f 300 301 294
f 299 277 300
f 301 280 281
f 294 301 311
f 302 303 239
f 311 243 242
f 311 242 306
f 307 245 308
f 311 247 243
f 312 309 247
f 294 303 302
f 294 311 303
f 422 304 305
f 311 306 303
f 310 304 422
f 312 281 307
f 301 281 312
f 301 312 311
f 312 307 308
f 311 312 247
f 312 308 309
f 248 317 318
f 319 251 320
f 301 315 279
f 321 278 313
f 300 278 321
f 300 323 301
f 300 321 323
f 301 323 315
f 323 313 315
f 322 317 314
f 322 314 316
f 324 316 319
f 321 313 323
f 322 316 324
f 322 318 317
f 322 325 318
f 324 319 320
f 252 325 326
f 327 255 328
f 256 329 431
f 322 326 325
f 322 329 326
f 455 320 327
f 322 324 447
f 324 320 455
f 455 327 328
f 455 328 330
f 322 447 329
f 447 324 448
f 448 324 449
f 449 324 455
f 367 359 139
f 360 375 361
f 363 386 362
f 390 366 365
f 377 367 139
f 360 373 375
f 377 368 367
f 378 369 379
f 377 371 368
f 379 369 370
f 381 370 372
f 381 372 371
f 377 380 371
f 377 199 380
f 379 370 381
f 378 379 382
f 379 381 382
f 380 381 371
f 199 392 380
f 380 392 381
f 378 374 369
f 382 373 374
f 382 375 373
f 382 376 375
f 383 387 376
f 378 382 374
f 381 394 382
f 382 394 383
f 382 383 376
f 394 365 362
f 394 362 386
f 396 144 364
f 396 364 227
f 399 390 365
f 393 384 385
f 229 144 396
f 392 388 384
f 392 384 393
f 199 229 397
f 199 397 392
f 392 393 381
f 381 393 399
f 393 385 398
f 395 386 387
f 394 386 395
f 381 399 394
f 383 395 387
f 394 395 383
f 398 385 389
f 397 389 388
f 392 397 388
f 229 396 423
f 229 423 397
f 397 398 389
f 396 422 423
f 397 423 398
f 423 399 398
f 423 424 399
f 394 399 365
f 399 391 390
f 400 417 391
f 393 398 399
f 399 400 391
f 399 427 400
f 399 424 427
f 400 428 417
f 427 428 400
f 404 403 416
f 406 405 420
f 256 431 407
f 305 401 409
f 427 403 402
f 427 402 415
f 427 416 403
f 430 405 418
f 430 420 405
f 422 305 409
f 422 409 410
f 423 413 411
f 423 411 412
f 426 410 414
f 425 414 413
f 422 410 426
f 423 425 413
f 422 425 423
f 423 412 424
f 426 414 425
f 422 426 425
f 427 419 416
f 428 415 417
f 430 412 421
f 429 418 419
f 430 421 420
f 427 415 428
f 424 412 430
f 427 429 419
f 424 429 427
f 430 418 429
f 424 430 429
f 330 408 440
f 447 431 329
f 447 432 431
f 447 433 432
f 448 434 433
f 449 435 434
f 450 436 435
f 451 437 436
f 452 438 437
f 453 439 438
f 455 330 440
f 455 440 441
f 456 441 442
f 855 442 844
f 454 443 439
f 457 444 443
f 458 445 444
f 459 446 445
f 460 846 446
f 447 448 433
f 448 449 434
f 449 450 435
f 450 451 436
f 451 452 437
f 452 453 438
f 453 454 439
f 449 451 450
f 449 453 451
f 451 453 452
f 449 459 453
f 453 457 454
f 455 441 456
f 456 442 855
f 455 456 855
f 454 457 443
f 457 458 444
f 458 459 445
f 459 460 446
f 453 459 457
f 457 459 458
f 449 868 459
f 459 859 460
f 465 462 461
f 466 953 462
f 964 461 952
f 966 463 954
f 466 462 465
f 465 461 964
f 466 965 953
f 466 465 964
f 466 964 965
f 467 463 966
f 467 464 463
f 468 957 464
f 468 464 467
f 468 969 957
f 468 467 969
f 467 966 969
f 845 816 817
f 843 842 907
f 857 817 818
f 858 818 819
f 861 819 820
f 862 820 821
f 863 821 822
f 856 845 817
f 869 822 823
f 870 823 824
f 871 824 825
f 872 825 826
f 873 826 827
f 874 827 828
f 874 828 835
f 876 830 829
f 876 831 830
f 877 832 831
f 878 833 832
f 879 834 833
f 876 829 853
f 856 844 845
f 856 817 857
f 857 818 858
f 858 819 861
f 859 847 846
f 860 848 847
f 861 820 862
f 862 821 863
f 863 822 869
f 855 844 856
f 455 855 857
f 855 856 857
f 455 857 863
f 857 858 861
f 449 455 915
f 460 859 846
f 859 860 847
f 860 864 848
f 459 864 859
f 859 864 860
f 459 868 864
f 857 861 863
f 861 862 863
f 455 863 915
f 864 849 848
f 865 850 849
f 866 851 850
f 867 852 851
f 864 865 849
f 864 866 865
f 865 866 850
f 866 867 851
f 867 868 852
f 864 868 866
f 866 868 867
f 869 823 870
f 870 824 871
f 871 825 872
f 872 826 873
f 873 827 874
f 863 869 870
f 863 870 872
f 870 871 872
f 449 942 868
f 863 872 915
f 872 873 874
f 872 874 915
f 449 915 942
f 868 854 852
f 875 853 854
f 876 877 831
f 877 878 832
f 878 879 833
f 879 880 834
f 868 875 854
f 875 876 853
f 868 876 875
f 868 878 876
f 876 878 877
f 868 921 878
f 878 880 879
f 878 921 880
f 884 952 881
f 885 881 882
f 967 882 955
f 884 881 885
f 884 964 952
f 884 885 964
f 885 882 967
f 885 967 964
f 886 960 883
f 886 972 960
f 874 835 887
f 880 836 834
f 920 837 836
f 921 838 837
f 922 839 838
f 923 840 839
f 924 841 840
f 925 842 841
f 939 907 842
f 914 887 888
f 915 888 889
f 916 889 890
f 917 890 891
f 918 891 892
f 919 892 893
f 926 893 894
f 874 887 914
f 914 888 915
f 915 889 916
f 916 890 917
f 874 914 915
f 915 916 917
f 917 891 918
f 918 892 919
f 919 893 926
f 915 917 919
f 917 918 919
f 915 919 929
f 880 920 836
f 920 921 837
f 921 922 838
f 922 923 839
f 923 924 840
f 924 925 841
f 868 942 921
f 880 921 920
f 921 923 922
f 921 925 923
f 923 925 924
f 921 942 925
f 927 894 895
f 928 895 896
f 929 896 897
f 930 897 898
f 931 898 899
f 932 899 900
f 933 900 901
f 934 901 902
f 935 902 903
f 945 904 913
f 936 905 904
f 937 906 905
f 926 894 927
f 927 895 928
f 928 896 929
f 929 897 930
f 919 926 927
f 919 927 929
f 915 929 1027
f 927 928 929
f 915 1027 942
f 930 898 931
f 931 899 932
f 932 900 933
f 933 901 934
f 934 902 935
f 929 930 931
f 929 931 933
f 931 932 933
f 929 933 1027
f 933 934 935
f 933 935 1027
f 935 903 1026
f 945 936 904
f 936 937 905
f 938 906 937
f 944 936 945
f 1032 936 942
f 1027 1032 942
f 938 937 936
f 938 936 1032
f 939 908 907
f 940 909 908
f 925 939 842
f 941 910 909
f 942 911 910
f 943 912 911
f 944 913 912
f 940 908 939
f 940 941 909
f 941 942 910
f 925 940 939
f 925 942 940
f 940 942 941
f 942 943 911
f 943 944 912
f 944 945 913
f 942 944 943
f 942 936 944
f 949 883 946
f 992 946 982
f 886 883 949
f 886 949 972
f 949 992 972
f 949 946 992
f 950 948 947
f 950 951 948
f 965 954 953
f 970 956 958
f 964 968 965
f 965 966 954
f 965 968 966
f 964 967 973
f 964 973 968
f 968 956 970
f 968 970 966
f 969 976 957
f 980 959 977
f 966 971 969
f 969 979 976
f 969 971 979
f 966 970 975
f 966 975 971
f 971 959 980
f 971 980 979
f 968 961 956
f 972 955 960
f 973 962 961
f 967 955 972
f 968 973 961
f 967 972 993
f 967 993 973
f 973 974 962
f 971 963 959
f 974 958 962
f 975 978 963
f 970 958 974
f 971 975 963
f 970 974 975
f 975 981 978
f 979 977 976
f 979 980 977
f 993 987 983
f 994 983 984
f 972 992 993
f 973 993 974
f 993 975 974
f 992 982 996
f 992 997 993
f 992 996 997
f 993 983 994
f 993 997 987
f 995 990 985
f 1003 985 1002
f 993 994 975
f 975 994 995
f 975 995 981
f 995 1003 981
f 994 984 1001
f 995 1000 990
f 994 1000 995
f 994 1001 1000
f 995 985 1003
f 996 982 986
f 997 986 987
f 998 989 988
f 996 986 997
f 998 999 989
f 1001 984 991
f 1000 991 990
f 1001 991 1000
f 981 1002 978
f 981 1003 1002
f 1004 1025 1005
f 1006 1039 1007
f 1045 1008 1009
f 1048 1010 1011
f 1004 1024 1025
f 1026 903 1012
f 1027 1012 1013
f 1028 1013 1014
f 1029 1014 1015
f 1030 1015 1016
f 1031 1016 1017
f 1034 1017 1020
f 1032 1022 1018
f 938 1019 906
f 1033 1018 1019
f 1036 1021 1022
f 1035 1020 1021
f 1026 1012 1027
f 1027 1013 1028
f 1028 1014 1029
f 1029 1015 1030
f 1030 1016 1031
f 1031 1017 1034
f 1033 1032 1018
f 938 1033 1019
f 1036 1035 1021
f 1034 1020 1035
f 1036 1022 1032
f 935 1026 1027
f 1027 1028 1029
f 1027 1031 1032
f 1027 1029 1031
f 1029 1030 1031
f 938 1032 1033
f 1032 1031 1035
f 1031 1034 1035
f 1036 1032 1035
f 1037 1024 1023
f 1037 1025 1024
f 1047 1023 1044
f 1037 1023 1047
f 1037 1038 1025
f 1037 1047 1042
f 1038 1039 1006
f 951 1041 948
f 1042 947 1040
f 950 947 1042
f 950 1042 951
f 951 1043 1041
f 951 1042 1043
f 1042 1039 1038
f 1037 1042 1038
f 1042 1047 1052
f 1042 1040 1039
f 1042 1052 1043
f 1043 1052 1053
f 1009 1046 1045
f 1047 1044 1045
f 1047 1045 1046
f 1047 1046 1048
f 1049 1048 1011
f 1052 1048 1049
f 1047 1048 1052
f 1052 1049 1050
f 1053 1051 1092
f 999 1055 989
f 1060 988 1054
f 998 988 1060
f 998 1061 999
f 998 1060 1061
f 1043 1054 1041
f 1061 1056 1055
f 1062 1057 1056
f 1063 1058 1057
f 1064 1059 1058
f 1043 1060 1054
f 999 1061 1055
f 1043 1061 1060
f 1043 1053 1061
f 1061 1062 1056
f 1062 1063 1057
f 1063 1064 1058
f 1064 1065 1059
f 1061 1064 1062
f 1062 1064 1063
f 1061 1101 1064
f 1064 1099 1065
f 1092 1051 1066
f 1095 1067 1069
f 1094 1066 1068
f 1093 1068 1067
f 1096 1069 1070
f 1097 1070 1071
f 1098 1071 1072
f 1094 1092 1066
f 1093 1067 1095
f 1094 1068 1093
f 1061 1053 1092
f 1092 1093 1096
f 1094 1093 1092
f 1061 1092 1115
f 1095 1069 1096
f 1096 1070 1097
f 1097 1071 1098
f 1093 1095 1096
f 1092 1096 1107
f 1096 1097 1098
f 1096 1098 1107
f 1065 1073 1059
f 1099 1074 1073
f 1100 1075 1074
f 1101 1076 1075
f 1102 1077 1076
f 1103 1078 1077
f 1104 1079 1078
f 1105 1086 1079
f 1065 1099 1073
f 1099 1100 1074
f 1100 1101 1075
f 1101 1102 1076
f 1064 1101 1099
f 1099 1101 1100
f 1101 1103 1102
f 1102 1103 1077
f 1103 1104 1078
f 1104 1105 1079
f 1105 1112 1086
f 1061 1115 1101
f 1101 1105 1103
f 1103 1105 1104
f 1101 1115 1105
f 1106 1072 1080
f 1107 1080 1081
f 1108 1081 1082
f 1109 1082 1083
f 1110 1083 1084
f 1111 1084 1085
f 1098 1072 1106
f 1106 1080 1107
f 1107 1081 1108
f 1098 1106 1107
f 1092 1107 1252
f 1107 1108 1109
f 1108 1082 1109
f 1109 1083 1110
f 1110 1084 1111
f 1107 1109 1111
f 1109 1110 1111
f 1107 1111 1252
f 1112 1087 1086
f 1113 1088 1087
f 1114 1089 1088
f 1115 1090 1089
f 1116 1091 1090
f 1117 1228 1091
f 1112 1113 1087
f 1113 1114 1088
f 1114 1115 1089
f 1105 1113 1112
f 1105 1115 1113
f 1113 1115 1114
f 1115 1116 1090
f 1116 1117 1091
f 1117 1255 1228
f 1115 1117 1116
f 1115 1256 1117
f 1053 1316 1051
f 1052 1050 1317
f 1052 1318 1053
f 1317 1050 1315
f 1053 1318 1316
f 1052 1317 1318
f 1249 1085 1222
f 1250 1222 1223
f 1251 1223 1224
f 1252 1224 1225
f 1253 1225 1226
f 1254 1226 1227
f 1111 1085 1249
f 1249 1222 1250
f 1250 1223 1251
f 1111 1249 1250
f 1111 1250 1252
f 1250 1251 1252
f 1092 1252 1297
f 1092 1297 1115
f 1251 1224 1252
f 1252 1225 1253
f 1253 1226 1254
f 1252 1253 1254
f 1252 1254 1262
f 1255 1229 1228
f 1256 1230 1229
f 1257 1231 1230
f 1258 1232 1231
f 1259 1233 1232
f 1260 1241 1233
f 1255 1256 1229
f 1256 1257 1230
f 1257 1258 1231
f 1117 1256 1255
f 1115 1260 1256
f 1256 1258 1257
f 1258 1259 1232
f 1259 1260 1233
f 1260 1268 1241
f 1256 1260 1258
f 1258 1260 1259
f 1115 1275 1260
f 1261 1227 1234
f 1262 1234 1235
f 1263 1235 1236
f 1264 1236 1237
f 1265 1237 1238
f 1266 1238 1239
f 1267 1239 1240
f 1293 1240 1276
f 1254 1227 1261
f 1261 1234 1262
f 1262 1235 1263
f 1263 1236 1264
f 1254 1261 1262
f 1252 1262 1266
f 1262 1263 1264
f 1264 1237 1265
f 1265 1238 1266
f 1266 1239 1267
f 1267 1240 1293
f 1262 1264 1266
f 1252 1266 1297
f 1264 1265 1266
f 1266 1267 1293
f 1268 1242 1241
f 1269 1243 1242
f 1270 1244 1243
f 1271 1246 1244
f 1273 1245 1246
f 1272 1247 1245
f 1274 1248 1247
f 1275 1286 1248
f 1268 1269 1242
f 1270 1243 1269
f 1270 1271 1244
f 1260 1269 1268
f 1260 1271 1269
f 1115 1297 1275
f 1270 1269 1271
f 1260 1275 1271
f 1271 1273 1246
f 1273 1272 1245
f 1272 1274 1247
f 1274 1275 1248
f 1271 1275 1272
f 1271 1272 1273
f 1272 1275 1274
f 1294 1276 1277
f 1295 1277 1278
f 1296 1278 1279
f 1297 1279 1280
f 1300 1281 1283
f 1299 1285 1282
f 1301 1283 1284
f 1302 1284 1285
f 1297 1280 1324
f 1293 1276 1294
f 1294 1277 1295
f 1295 1278 1296
f 1296 1279 1297
f 1266 1293 1295
f 1293 1294 1295
f 1266 1295 1297
f 1295 1296 1297
f 1297 1299 1275
f 1297 1298 1299
f 1298 1281 1300
f 1299 1282 1309
f 1299 1302 1285
f 1300 1283 1301
f 1301 1284 1302
f 1299 1301 1302
f 1298 1300 1301
f 1299 1298 1301
f 1303 1287 1286
f 1304 1289 1287
f 1306 1288 1289
f 1305 1290 1288
f 1307 1291 1290
f 1308 1292 1291
f 1309 1282 1292
f 1303 1286 1275
f 1303 1304 1287
f 1304 1306 1289
f 1305 1288 1306
f 1307 1308 1291
f 1305 1307 1290
f 1309 1292 1308
f 1303 1275 1304
f 1275 1305 1304
f 1305 1306 1304
f 1299 1305 1275
f 1305 1308 1307
f 1299 1308 1305
f 1299 1309 1308
f 1298 1325 1281
f 1297 1327 1298
f 1297 1324 1326
f 1298 1327 1325
f 1297 1326 1327
f 1318 1315 1316
f 1317 1315 1318
f 1327 1324 1325
f 1326 1324 1327

