# https://github.com/mikedh/trimesh
v 0.60000002 0.60000002 0.00000000
v 0.00000000 0.60000002 0.60000002
v 0.60000002 0.00000000 0.60000002
v 0.00000000 0.60000002 4.40000010
v 0.60000002 0.00000000 4.40000010
v 0.60000002 0.60000002 5.00000000
v 0.19999985 29.62500000 4.59999990
v 0.19999985 29.97500038 4.59999990
v 0.19999985 32.22499847 4.59999990
v 0.19999985 32.57500076 4.59999990
v 0.19999985 34.82500076 4.59999990
v 0.60000002 29.62500000 5.00000000
v 0.60000002 29.97500038 5.00000000
v 0.60000002 32.22499847 5.00000000
v 0.60000002 32.57500076 5.00000000
v 0.60000002 34.82500076 5.00000000
v 4.40000010 24.35000038 5.00000000
v 4.40000010 24.85000038 5.00000000
v 4.40000010 24.35000038 5.50000000
v 4.40000010 24.85000038 5.50000000
v 4.40000010 26.95000076 5.00000000
v 4.40000010 27.45000076 5.00000000
v 4.40000010 26.95000076 5.50000000
v 4.40000010 27.45000076 5.50000000
v 5.38919592 22.95392036 5.00000000
v 5.46558046 22.66098976 5.00000000
v 5.41381836 22.80320549 5.00000000
v 5.39807701 22.87765884 5.00000000
v 5.43635130 22.73087883 5.00000000
v 5.50137997 22.59383583 5.00000000
v 5.54359722 22.52970695 5.00000000
v 5.59205055 22.46887589 5.00000000
v 5.38721228 23.03166580 5.00000000
v 5.39213514 23.11055756 5.00000000
v 5.40394258 23.19026375 5.00000000
v 5.42258501 23.27043724 5.00000000
v 5.44798183 23.35073853 5.00000000
v 5.48002481 23.43082237 5.00000000
v 5.51857662 23.51034546 5.00000000
v 5.56347227 23.58896828 5.00000000
v 5.61451912 23.66635323 5.00000000
v 5.64653349 22.41160393 5.00000000
v 5.70681143 22.35813713 5.00000000
v 5.77262735 22.30870247 5.00000000
v 5.84369946 22.26351357 5.00000000
v 5.91972256 22.22276306 5.00000000
v 5.67149878 23.74217033 5.00000000
v 5.73416758 23.81609344 5.00000000
v 5.80225658 23.88780785 5.00000000
v 5.87547445 23.95700264 5.00000000
v 6.00037146 22.18662453 5.00000000
v 6.08530140 22.15525436 5.00000000
v 6.17414808 22.12878609 5.00000000
v 5.95350790 24.02338600 5.00000000
v 6.03602266 24.08667183 5.00000000
v 6.12266493 24.14658737 5.00000000
v 6.21306419 24.20287895 5.00000000
v 5.38919592 22.95392036 5.50000000
v 5.46558046 22.66098976 5.50000000
v 5.41381836 22.80320549 5.50000000
v 5.39807701 22.87765884 5.50000000
v 5.43635130 22.73087883 5.50000000
v 5.50137997 22.59383583 5.50000000
v 5.54359722 22.52970695 5.50000000
v 5.59205055 22.46887589 5.50000000
v 5.38721228 23.03166580 5.50000000
v 5.39213514 23.11055756 5.50000000
v 5.40394258 23.19026375 5.50000000
v 5.42258501 23.27043724 5.50000000
v 5.44798183 23.35073853 5.50000000
v 5.48002481 23.43082237 5.50000000
v 5.51857662 23.51034546 5.50000000
v 5.56347227 23.58896828 5.50000000
v 5.61451912 23.66635323 5.50000000
v 5.64653349 22.41160393 5.50000000
v 5.70681143 22.35813713 5.50000000
v 5.77262735 22.30870247 5.50000000
v 5.84369946 22.26351357 5.50000000
v 5.91972256 22.22276306 5.50000000
v 5.67149878 23.74217033 5.50000000
v 5.73416758 23.81609344 5.50000000
v 5.80225658 23.88780785 5.50000000
v 5.87547445 23.95700264 5.50000000
v 6.00037146 22.18662453 5.50000000
v 6.08530140 22.15525436 5.50000000
v 6.17414808 22.12878609 5.50000000
v 5.95350790 24.02338600 5.50000000
v 6.03602266 24.08667183 5.50000000
v 6.12266493 24.14658737 5.50000000
v 6.21306419 24.20287895 5.50000000
v 6.26653099 22.10733414 5.00000000
v 6.36205482 22.09098816 5.00000000
v 6.46031046 22.07981873 5.00000000
v 6.56087685 22.07387543 5.00000000
v 6.66332388 22.07318115 5.00000000
v 6.76721287 22.07774162 5.00000000
v 6.87209845 22.08753586 5.00000000
v 6.30683374 24.25530434 5.00000000
v 6.40357113 24.30363846 5.00000000
v 6.50286245 24.34767342 5.00000000
v 6.50882673 24.35000038 5.00000000
v 6.97753143 22.10252190 5.00000000
v 7.08306122 22.12263680 5.00000000
v 7.18823481 22.14779091 5.00000000
v 7.29260254 22.17788124 5.00000000
v 7.39571714 22.21277618 5.00000000
v 7.49713755 22.25232506 5.00000000
v 6.26653099 22.10733414 5.50000000
v 6.36205482 22.09098816 5.50000000
v 6.46031046 22.07981873 5.50000000
v 6.56087685 22.07387543 5.50000000
v 6.66332388 22.07318115 5.50000000
v 6.76721287 22.07774162 5.50000000
v 6.87209845 22.08753586 5.50000000
v 6.30683374 24.25530434 5.50000000
v 6.40357113 24.30363846 5.50000000
v 6.50286245 24.34767342 5.50000000
v 6.50882673 24.35000038 5.50000000
v 6.97753143 22.10252190 5.50000000
v 7.08306122 22.12263680 5.50000000
v 7.18823481 22.14779091 5.50000000
v 7.29260254 22.17788124 5.50000000
v 7.39571714 22.21277618 5.50000000
v 7.49713755 22.25232506 5.50000000
v 7.59642887 22.29636192 5.00000000
v 7.69316626 22.34469604 5.00000000
v 7.78693581 22.39712143 5.00000000
v 7.87733507 22.45341301 5.00000000
v 7.96397734 22.51332855 5.00000000
v 8.04649258 22.57661438 5.00000000
v 8.12452507 22.64299774 5.00000000
v 8.11294460 24.85000038 5.00000000
v 8.19774342 22.71219254 5.00000000
v 8.26583290 22.78390694 5.00000000
v 8.32850075 22.85783005 5.00000000
v 8.38548088 22.93364525 5.00000000
v 8.43652821 23.01103210 5.00000000
v 8.48142338 23.08965492 5.00000000
v 8.51997471 23.16917801 5.00000000
v 8.55201817 23.24926186 5.00000000
v 8.56806564 23.29999924 5.00000000
v 8.61294460 23.29999924 5.00000000
v 8.61294460 24.35000038 5.00000000
v 8.61294460 24.85000038 5.00000000
v 7.59642887 22.29636192 5.50000000
v 7.69316626 22.34469604 5.50000000
v 7.78693581 22.39712143 5.50000000
v 7.87733507 22.45341301 5.50000000
v 7.96397734 22.51332855 5.50000000
v 8.04649258 22.57661438 5.50000000
v 8.12452507 22.64299774 5.50000000
v 8.11294460 24.85000038 5.50000000
v 8.19774342 22.71219254 5.50000000
v 8.26583290 22.78390694 5.50000000
v 8.32850075 22.85783005 5.50000000
v 8.38548088 22.93364525 5.50000000
v 8.43652821 23.01103210 5.50000000
v 8.48142338 23.08965492 5.50000000
v 8.51997471 23.16917801 5.50000000
v 8.55201817 23.24926186 5.50000000
v 8.56806564 23.29999924 5.50000000
v 8.61294460 23.29999924 5.50000000
v 8.61294460 24.35000038 5.50000000
v 8.61294460 24.85000038 5.50000000
v 9.60000038 24.35000038 5.00000000
v 9.60000038 24.85000038 5.00000000
v 9.60000038 24.35000038 5.50000000
v 9.60000038 24.85000038 5.50000000
v 8.11294460 29.62500000 4.59999990
v 8.11294460 29.97500038 4.59999990
v 8.61294460 29.62500000 4.59999990
v 8.61294460 29.97500038 4.59999990
v 8.11294460 32.22499847 4.59999990
v 8.11294460 32.40000153 4.59999990
v 8.61294460 32.22499847 4.59999990
v 8.61294460 32.40000153 4.59999990
v 9.39427376 32.22499847 4.59999990
v 9.40394306 32.29026413 4.59999990
v 9.42258453 32.37043762 4.59999990
v 9.44798183 32.45073700 4.59999990
v 9.48002529 32.53082275 4.59999990
v 9.50144291 32.57500076 4.59999990
v 8.11294460 26.95000076 5.00000000
v 8.11294460 27.45000076 5.00000000
v 8.11294460 29.62500000 5.00000000
v 8.11294460 29.97500038 5.00000000
v 8.61294460 26.95000076 5.00000000
v 8.61294460 27.45000076 5.00000000
v 8.61294460 29.62500000 5.00000000
v 8.61294460 29.97500038 5.00000000
v 8.11294460 26.95000076 5.50000000
v 8.11294460 27.45000076 5.50000000
v 8.61294460 26.95000076 5.50000000
v 8.61294460 27.45000076 5.50000000
v 8.11294460 32.22499847 5.00000000
v 8.61294460 32.22499847 5.00000000
v 8.11294460 32.40000153 5.50000000
v 8.61294460 32.40000153 5.50000000
v 9.60000038 26.95000076 5.00000000
v 9.60000038 27.45000076 5.00000000
v 9.60000038 26.95000076 5.50000000
v 9.60000038 27.45000076 5.50000000
v 9.50137997 31.69383621 5.00000000
v 9.54359722 31.62970734 5.00000000
v 9.59205055 31.56887627 5.00000000
v 9.64653301 31.51160431 5.00000000
v 9.41381836 31.90320396 5.00000000
v 9.39807701 31.97765923 5.00000000
v 9.43635178 31.83087921 5.00000000
v 9.38919640 32.05392075 5.00000000
v 9.38721275 32.13166428 5.00000000
v 9.39427376 32.22499847 5.00000000
v 9.39213467 32.21055984 5.00000000
v 9.46558094 31.76098824 5.00000000
v 9.50144291 32.57500076 5.00000000
v 9.51857662 32.61034393 5.00000000
v 9.56347179 32.68896866 5.00000000
v 9.61451912 32.76635361 5.00000000
v 9.70681190 31.45813751 5.00000000
v 9.77262783 31.40870285 5.00000000
v 9.84369946 31.36351395 5.00000000
v 9.91972256 31.32276344 5.00000000
v 9.67149925 32.84217072 5.00000000
v 9.73416710 32.91609573 5.00000000
v 9.80225658 32.98780823 5.00000000
v 9.87547493 33.05700302 5.00000000
v 9.95350742 33.12338638 5.00000000
v 9.50137997 31.69383621 5.50000000
v 9.54359722 31.62970734 5.50000000
v 9.59205055 31.56887627 5.50000000
v 9.64653301 31.51160431 5.50000000
v 9.41381836 31.90320396 5.50000000
v 9.39807701 31.97765923 5.50000000
v 9.43635178 31.83087921 5.50000000
v 9.38919640 32.05392075 5.50000000
v 9.38721275 32.13166428 5.50000000
v 9.39213467 32.21055984 5.50000000
v 9.46558094 31.76098824 5.50000000
v 9.40394306 32.29026413 5.50000000
v 9.42258453 32.37043762 5.50000000
v 9.44798183 32.45073700 5.50000000
v 9.48002529 32.53082275 5.50000000
v 9.51857662 32.61034393 5.50000000
v 9.56347179 32.68896866 5.50000000
v 9.61451912 32.76635361 5.50000000
v 9.70681190 31.45813751 5.50000000
v 9.77262783 31.40870285 5.50000000
v 9.84369946 31.36351395 5.50000000
v 9.91972256 31.32276344 5.50000000
v 9.67149925 32.84217072 5.50000000
v 9.73416710 32.91609573 5.50000000
v 9.80225658 32.98780823 5.50000000
v 9.87547493 33.05700302 5.50000000
v 9.95350742 33.12338638 5.50000000
v 0.60000002 69.40000153 0.00000000
v 0.00000000 69.40000153 0.60000002
v 0.60000002 70.00000000 0.60000002
v 0.19999985 35.17499924 4.59999990
v 0.19999985 37.42499924 4.59999990
v 0.19999985 37.77500153 4.59999990
v 0.19999985 40.02500153 4.59999990
v 0.19999985 40.37500000 4.59999990
v 0.60000002 35.17499924 5.00000000
v 0.60000002 37.42499924 5.00000000
v 0.60000002 37.77500153 5.00000000
v 0.60000002 40.02500153 5.00000000
v 0.60000002 40.37500000 5.00000000
v 0.00000000 69.40000153 4.40000010
v 0.60000002 70.00000000 4.40000010
v 0.60000002 69.40000153 5.00000000
v 6.53317261 60.38190842 4.59999990
v 6.51195431 60.62839127 4.59999990
v 6.50132895 60.87600708 4.59999990
v 6.50132895 61.12399292 4.59999990
v 6.56491995 60.13730240 4.59999990
v 6.60709906 59.89531708 4.59999990
v 6.65958261 59.65668488 4.59999990
v 6.79479313 59.19237137 4.59999990
v 6.72221088 59.42213058 4.59999990
v 6.87711000 58.96810150 4.59999990
v 6.96891117 58.75000000 4.59999990
v 7.17982197 58.33494186 4.59999990
v 7.06991720 58.53873444 4.59999990
v 7.42496634 57.95223236 4.59999990
v 7.29829168 58.13924408 4.59999990
v 6.53317261 60.38190842 5.00000000
v 6.51195431 60.62839127 5.00000000
v 6.50132895 60.87600708 5.00000000
v 6.50132895 61.12399292 5.00000000
v 6.56491995 60.13730240 5.00000000
v 6.60709906 59.89531708 5.00000000
v 6.65958261 59.65668488 5.00000000
v 6.79479313 59.19237137 5.00000000
v 6.72221088 59.42213058 5.00000000
v 6.87711000 58.96810150 5.00000000
v 6.96891117 58.75000000 5.00000000
v 7.17982197 58.33494186 5.00000000
v 7.06991720 58.53873444 5.00000000
v 7.42496634 57.95223236 5.00000000
v 7.29829168 58.13924408 5.00000000
v 6.51195431 61.37160873 4.59999990
v 6.53317261 61.61809158 4.59999990
v 6.56491995 61.86269760 4.59999990
v 6.60709906 62.10468292 4.59999990
v 6.65958261 62.34331512 4.59999990
v 6.72221088 62.57786942 4.59999990
v 6.79479313 62.80762863 4.59999990
v 6.87711000 63.03189850 4.59999990
v 6.96891117 63.25000000 4.59999990
v 7.06991720 63.46126556 4.59999990
v 7.17982197 63.66505814 4.59999990
v 7.29829168 63.86075592 4.59999990
v 7.42496634 64.04776764 4.59999990
v 6.51195431 61.37160873 5.00000000
v 6.53317261 61.61809158 5.00000000
v 6.56491995 61.86269760 5.00000000
v 6.60709906 62.10468292 5.00000000
v 6.65958261 62.34331512 5.00000000
v 6.72221088 62.57786942 5.00000000
v 6.79479313 62.80762863 5.00000000
v 6.87711000 63.03189850 5.00000000
v 6.96891117 63.25000000 5.00000000
v 7.06991720 63.46126556 5.00000000
v 7.17982197 63.66505814 5.00000000
v 7.29829168 63.86075592 5.00000000
v 7.42496634 64.04776764 5.00000000
v 8.68291759 56.83077621 4.59999990
v 7.55946112 57.77447891 4.59999990
v 7.70136786 57.60652161 4.59999990
v 7.85025549 57.44886780 4.59999990
v 8.00567150 57.30199814 4.59999990
v 7.80751419 60.73574448 4.59999990
v 7.80083513 60.91182709 4.59999990
v 7.80083513 61.08817291 4.59999990
v 7.93967533 59.87796021 4.59999990
v 7.90030909 60.04475403 4.59999990
v 8.03704071 59.55509186 4.59999990
v 8.09474373 59.40000153 4.59999990
v 7.98529863 59.71457291 4.59999990
v 7.84080648 60.38652420 4.59999990
v 7.86731958 60.21444702 4.59999990
v 7.82085133 60.56046677 4.59999990
v 8.16714478 57.16636276 4.59999990
v 8.33418369 57.04236984 4.59999990
v 8.30178356 58.96568298 4.59999990
v 8.38140774 58.83269882 4.59999990
v 8.50628281 56.93039322 4.59999990
v 8.46594715 58.70629501 4.59999990
v 8.55514526 58.58686066 4.59999990
v 8.64873219 58.47475052 4.59999990
v 8.74642181 58.37031174 4.59999990
v 8.15823364 59.24976730 4.59999990
v 8.22731686 59.10484695 4.59999990
v 8.86355209 56.74382401 4.59999990
v 9.04763794 56.66979218 4.59999990
v 9.23461628 56.60891724 4.59999990
v 9.42391872 56.56137466 4.59999990
v 9.61497116 56.52731323 4.59999990
v 9.80719280 56.50683212 4.59999990
v 8.84791946 58.27385712 4.59999990
v 8.95291615 58.18568420 4.59999990
v 9.06109142 58.10605621 4.59999990
v 9.17211914 58.03521729 4.59999990
v 9.28566074 57.97338486 4.59999990
v 9.40137196 57.92074203 4.59999990
v 9.51890182 57.87745285 4.59999990
v 9.63789177 57.84364319 4.59999990
v 9.75798225 57.81942368 4.59999990
v 9.87880707 57.80485916 4.59999990
v 8.68291759 56.83077621 5.00000000
v 7.55946112 57.77447891 5.00000000
v 7.70136786 57.60652161 5.00000000
v 7.85025549 57.44886780 5.00000000
v 8.00567150 57.30199814 5.00000000
v 7.80751419 60.73574448 5.00000000
v 7.80083513 60.91182709 5.00000000
v 7.80083513 61.08817291 5.00000000
v 7.93967533 59.87796021 5.00000000
v 7.90030909 60.04475403 5.00000000
v 8.03704071 59.55509186 5.00000000
v 8.09474373 59.40000153 5.00000000
v 7.98529863 59.71457291 5.00000000
v 7.84080648 60.38652420 5.00000000
v 7.86731958 60.21444702 5.00000000
v 7.82085133 60.56046677 5.00000000
v 8.16714478 57.16636276 5.00000000
v 8.33418369 57.04236984 5.00000000
v 8.30178356 58.96568298 5.00000000
v 8.38140774 58.83269882 5.00000000
v 8.50628281 56.93039322 5.00000000
v 8.46594715 58.70629501 5.00000000
v 8.55514526 58.58686066 5.00000000
v 8.64873219 58.47475052 5.00000000
v 8.74642181 58.37031174 5.00000000
v 8.15823364 59.24976730 5.00000000
v 8.22731686 59.10484695 5.00000000
v 8.86355209 56.74382401 5.00000000
v 9.04763794 56.66979218 5.00000000
v 9.23461628 56.60891724 5.00000000
v 9.42391872 56.56137466 5.00000000
v 9.61497116 56.52731323 5.00000000
v 9.80719280 56.50683212 5.00000000
v 8.84791946 58.27385712 5.00000000
v 8.95291615 58.18568420 5.00000000
v 9.06109142 58.10605621 5.00000000
v 9.17211914 58.03521729 5.00000000
v 9.28566074 57.97338486 5.00000000
v 9.40137196 57.92074203 5.00000000
v 9.51890182 57.87745285 5.00000000
v 9.63789177 57.84364319 5.00000000
v 9.75798225 57.81942368 5.00000000
v 9.87880707 57.80485916 5.00000000
v 7.80751419 61.26425552 4.59999990
v 7.82085133 61.43953323 4.59999990
v 7.84080648 61.61347580 4.59999990
v 7.86731958 61.78555298 4.59999990
v 7.90030909 61.95524597 4.59999990
v 7.93967533 62.12203979 4.59999990
v 7.98529863 62.28542709 4.59999990
v 8.03704071 62.44490814 4.59999990
v 8.09474373 62.59999847 4.59999990
v 7.55946112 64.22552490 4.59999990
v 7.70136786 64.39347839 4.59999990
v 7.85025549 64.55113220 4.59999990
v 8.00567150 64.69799805 4.59999990
v 8.15823364 62.75023270 4.59999990
v 8.22731686 62.89515305 4.59999990
v 8.30178356 63.03431702 4.59999990
v 8.38140774 63.16730118 4.59999990
v 8.46594715 63.29370499 4.59999990
v 8.55514526 63.41313934 4.59999990
v 8.16714478 64.83364105 4.59999990
v 8.33418369 64.95763397 4.59999990
v 8.64873219 63.52524948 4.59999990
v 8.74642181 63.62968826 4.59999990
v 8.50628281 65.06961060 4.59999990
v 8.68291759 65.16921997 4.59999990
v 8.84791946 63.72614288 4.59999990
v 8.95291615 63.81431580 4.59999990
v 9.06109142 63.89394379 4.59999990
v 8.86355209 65.25617981 4.59999990
v 9.04763794 65.33020782 4.59999990
v 9.17211914 63.96478271 4.59999990
v 9.28566074 64.02661896 4.59999990
v 9.23461628 65.39108276 4.59999990
v 9.40137196 64.07925415 4.59999990
v 9.51890182 64.12255096 4.59999990
v 9.63789177 64.15635681 4.59999990
v 9.42391872 65.43862915 4.59999990
v 9.61497116 65.47268677 4.59999990
v 9.75798225 64.18058014 4.59999990
v 9.87880707 64.19514465 4.59999990
v 9.80719280 65.49316406 4.59999990
v 7.80751419 61.26425552 5.00000000
v 7.82085133 61.43953323 5.00000000
v 7.84080648 61.61347580 5.00000000
v 7.86731958 61.78555298 5.00000000
v 7.90030909 61.95524597 5.00000000
v 7.93967533 62.12203979 5.00000000
v 7.98529863 62.28542709 5.00000000
v 8.03704071 62.44490814 5.00000000
v 8.09474373 62.59999847 5.00000000
v 7.55946112 64.22552490 5.00000000
v 7.70136786 64.39347839 5.00000000
v 7.85025549 64.55113220 5.00000000
v 8.00567150 64.69799805 5.00000000
v 8.15823364 62.75023270 5.00000000
v 8.22731686 62.89515305 5.00000000
v 8.30178356 63.03431702 5.00000000
v 8.38140774 63.16730118 5.00000000
v 8.46594715 63.29370499 5.00000000
v 8.55514526 63.41313934 5.00000000
v 8.16714478 64.83364105 5.00000000
v 8.33418369 64.95763397 5.00000000
v 8.64873219 63.52524948 5.00000000
v 8.74642181 63.62968826 5.00000000
v 8.50628281 65.06961060 5.00000000
v 8.68291759 65.16921997 5.00000000
v 8.84791946 63.72614288 5.00000000
v 8.95291615 63.81431580 5.00000000
v 9.06109142 63.89394379 5.00000000
v 8.86355209 65.25617981 5.00000000
v 9.04763794 65.33020782 5.00000000
v 9.17211914 63.96478271 5.00000000
v 9.28566074 64.02661896 5.00000000
v 9.23461628 65.39108276 5.00000000
v 9.40137196 64.07925415 5.00000000
v 9.51890182 64.12255096 5.00000000
v 9.63789177 64.15635681 5.00000000
v 9.42391872 65.43862915 5.00000000
v 9.61497116 65.47268677 5.00000000
v 9.75798225 64.18058014 5.00000000
v 9.87880707 64.19514465 5.00000000
v 9.80719280 65.49316406 5.00000000
v 19.39999962 0.60000002 0.00000000
v 19.39999962 0.00000000 0.60000002
v 20.00000000 0.60000002 0.60000002
v 12.49855709 32.22499847 4.59999990
v 12.11294460 34.82500076 4.59999990
v 10.00037193 31.28662491 5.00000000
v 10.08530140 31.25525475 5.00000000
v 10.17414761 31.22878647 5.00000000
v 10.26653099 31.20733261 5.00000000
v 10.36205482 31.19098854 5.00000000
v 10.46030998 31.17981911 5.00000000
v 10.56087685 31.17387581 5.00000000
v 10.03602219 33.18667221 5.00000000
v 10.12266541 33.24658585 5.00000000
v 10.21306419 33.30287933 5.00000000
v 10.30683327 33.35530472 5.00000000
v 10.40357113 33.40363693 5.00000000
v 10.50286198 33.44767380 5.00000000
v 10.60428238 33.48722458 5.00000000
v 10.66332436 31.17318153 5.00000000
v 10.76721287 31.17774200 5.00000000
v 10.87209797 31.18753624 5.00000000
v 10.97753143 31.20252228 5.00000000
v 11.08306122 31.22263718 5.00000000
v 11.18823433 31.24779129 5.00000000
v 10.70739746 33.52211761 5.00000000
v 10.81176567 33.55220795 5.00000000
v 10.91693878 33.57736206 5.00000000
v 11.02246857 33.59747696 5.00000000
v 11.12790203 33.61246490 5.00000000
v 11.23278713 33.62225723 5.00000000
v 10.00037193 31.28662491 5.50000000
v 10.08530140 31.25525475 5.50000000
v 10.17414761 31.22878647 5.50000000
v 10.26653099 31.20733261 5.50000000
v 10.36205482 31.19098854 5.50000000
v 10.46030998 31.17981911 5.50000000
v 10.56087685 31.17387581 5.50000000
v 10.03602219 33.18667221 5.50000000
v 10.12266541 33.24658585 5.50000000
v 10.21306419 33.30287933 5.50000000
v 10.30683327 33.35530472 5.50000000
v 10.40357113 33.40363693 5.50000000
v 10.50286198 33.44767380 5.50000000
v 10.60428238 33.48722458 5.50000000
v 10.66332436 31.17318153 5.50000000
v 10.76721287 31.17774200 5.50000000
v 10.87209797 31.18753624 5.50000000
v 10.97753143 31.20252228 5.50000000
v 11.08306122 31.22263718 5.50000000
v 11.18823433 31.24779129 5.50000000
v 10.70739746 33.52211761 5.50000000
v 10.81176567 33.55220795 5.50000000
v 10.91693878 33.57736206 5.50000000
v 11.02246857 33.59747696 5.50000000
v 11.12790203 33.61246490 5.50000000
v 11.23278713 33.62225723 5.50000000
v 11.29260254 31.27788162 5.00000000
v 11.39571762 31.31277657 5.00000000
v 11.49713802 31.35232544 5.00000000
v 11.59642887 31.39636230 5.00000000
v 11.69316673 31.44469643 5.00000000
v 11.78693581 31.49712181 5.00000000
v 11.33667564 33.62681961 5.00000000
v 11.43912315 33.62612534 5.00000000
v 11.53969002 33.62018204 5.00000000
v 11.63794518 33.60901260 5.00000000
v 11.73346901 33.59266663 5.00000000
v 11.82585239 33.57121277 5.00000000
v 11.87733459 31.55341339 5.00000000
v 11.96397781 31.61332893 5.00000000
v 12.04649258 31.67661476 5.00000000
v 12.12452507 31.74299622 5.00000000
v 12.19774342 31.81219292 5.00000000
v 12.26583290 31.88390541 5.00000000
v 12.32850075 31.95782852 5.00000000
v 12.38548088 32.03364563 5.00000000
v 12.43652821 32.11103058 5.00000000
v 12.48142338 32.18965530 5.00000000
v 12.49855709 32.22499847 5.00000000
v 11.91469860 33.54474640 5.00000000
v 11.99962807 33.51337433 5.00000000
v 12.08027744 33.47723770 5.00000000
v 12.11294460 33.45972824 5.00000000
v 12.11294460 34.82500076 5.00000000
v 11.29260254 31.27788162 5.50000000
v 11.39571762 31.31277657 5.50000000
v 11.49713802 31.35232544 5.50000000
v 11.59642887 31.39636230 5.50000000
v 11.69316673 31.44469643 5.50000000
v 11.78693581 31.49712181 5.50000000
v 11.33667564 33.62681961 5.50000000
v 11.43912315 33.62612534 5.50000000
v 11.53969002 33.62018204 5.50000000
v 11.63794518 33.60901260 5.50000000
v 11.73346901 33.59266663 5.50000000
v 11.82585239 33.57121277 5.50000000
v 11.87733459 31.55341339 5.50000000
v 11.96397781 31.61332893 5.50000000
v 12.04649258 31.67661476 5.50000000
v 12.12452507 31.74299622 5.50000000
v 12.19774342 31.81219292 5.50000000
v 12.26583290 31.88390541 5.50000000
v 12.32850075 31.95782852 5.50000000
v 12.38548088 32.03364563 5.50000000
v 12.43652821 32.11103058 5.50000000
v 12.48142338 32.18965530 5.50000000
v 11.91469860 33.54474640 5.50000000
v 11.99962807 33.51337433 5.50000000
v 12.08027744 33.47723770 5.50000000
v 12.11294460 33.45972824 5.50000000
v 12.51997471 32.26917648 4.59999990
v 12.55201817 32.34926224 4.59999990
v 12.56806564 32.40000153 4.59999990
v 12.61294460 32.40000153 4.59999990
v 12.61294460 32.57500076 4.59999990
v 12.61294460 34.82500076 4.59999990
v 13.38705540 32.40000153 4.59999990
v 13.38705540 32.57500076 4.59999990
v 13.38705540 34.82500076 4.59999990
v 13.88705540 32.40000153 4.59999990
v 13.88705540 32.57500076 4.59999990
v 13.88705540 34.82500076 4.59999990
v 12.61294460 32.57500076 5.00000000
v 12.61294460 34.82500076 5.00000000
v 13.38705540 32.57500076 5.00000000
v 13.38705540 34.82500076 5.00000000
v 12.51997471 32.26917648 5.50000000
v 12.55201817 32.34926224 5.50000000
v 12.56806564 32.40000153 5.50000000
v 12.61294460 32.40000153 5.50000000
v 13.38705540 32.40000153 5.50000000
v 13.88705540 32.57500076 5.00000000
v 13.88705540 34.82500076 5.00000000
v 13.88705540 32.40000153 5.50000000
v 19.39999962 0.00000000 4.40000010
v 20.00000000 0.60000002 4.40000010
v 19.39999962 0.60000002 5.00000000
v 19.79999924 29.62500000 4.59999990
v 19.79999924 29.97500038 4.59999990
v 19.79999924 32.22499847 4.59999990
v 19.79999924 32.57500076 4.59999990
v 19.79999924 34.82500076 4.59999990
v 19.39999962 29.62500000 5.00000000
v 19.39999962 29.97500038 5.00000000
v 19.39999962 32.22499847 5.00000000
v 19.39999962 32.57500076 5.00000000
v 19.39999962 34.82500076 5.00000000
v 19.39999962 69.40000153 0.00000000
v 19.39999962 70.00000000 0.60000002
v 20.00000000 69.40000153 0.60000002
v 12.11294460 35.17499924 4.59999990
v 12.11294460 37.42499924 4.59999990
v 12.11294460 37.77500153 4.59999990
v 12.11294460 40.02500153 4.59999990
v 12.11294460 40.37500000 4.59999990
v 12.11294460 35.17499924 5.00000000
v 12.11294460 37.42499924 5.00000000
v 12.11294460 37.77500153 5.00000000
v 12.11294460 40.02500153 5.00000000
v 12.11294460 40.37500000 5.00000000
v 12.11294460 41.50000000 5.00000000
v 12.11294460 41.50000000 5.50000000
v 12.61294460 35.17499924 4.59999990
v 12.61294460 37.42499924 4.59999990
v 12.61294460 37.77500153 4.59999990
v 13.38705540 35.17499924 4.59999990
v 13.38705540 37.42499924 4.59999990
v 13.38705540 37.77500153 4.59999990
v 12.61294460 40.02500153 4.59999990
v 12.61294460 40.37500000 4.59999990
v 13.38705540 40.02500153 4.59999990
v 13.38705540 40.37500000 4.59999990
v 13.88705540 35.17499924 4.59999990
v 13.88705540 37.42499924 4.59999990
v 13.88705540 37.77500153 4.59999990
v 13.88705540 40.02500153 4.59999990
v 13.88705540 40.37500000 4.59999990
v 14.03184223 40.37500000 4.59999990
v 14.08530140 40.35525513 4.59999990
v 14.17414761 40.32878494 4.59999990
v 14.26653099 40.30733490 4.59999990
v 14.36205482 40.29098892 4.59999990
v 14.46030998 40.27981949 4.59999990
v 14.56087685 40.27387619 4.59999990
v 14.66332436 40.27318192 4.59999990
v 14.76721287 40.27774048 4.59999990
v 14.87209797 40.28753662 4.59999990
v 14.97753143 40.30252075 4.59999990
v 12.61294460 35.17499924 5.00000000
v 12.61294460 37.42499924 5.00000000
v 12.61294460 37.77500153 5.00000000
v 13.38705540 35.17499924 5.00000000
v 13.38705540 37.42499924 5.00000000
v 13.38705540 37.77500153 5.00000000
v 12.61294460 40.02500153 5.00000000
v 12.61294460 40.37500000 5.00000000
v 12.61294460 41.50000000 5.00000000
v 13.38705540 40.02500153 5.00000000
v 13.38705540 40.37500000 5.00000000
v 13.38705540 41.50000000 5.00000000
v 13.43193436 41.50000000 5.00000000
v 13.44798183 41.55073929 5.00000000
v 13.48002529 41.63082123 5.00000000
v 13.51857662 41.71034622 5.00000000
v 13.56347179 41.78896713 5.00000000
v 13.61451912 41.86635590 5.00000000
v 13.67149925 41.94216919 5.00000000
v 13.73416710 42.01609421 5.00000000
v 12.61294460 41.50000000 5.50000000
v 13.38705540 41.50000000 5.50000000
v 13.43193436 41.50000000 5.50000000
v 13.44798183 41.55073929 5.50000000
v 13.48002529 41.63082123 5.50000000
v 13.51857662 41.71034622 5.50000000
v 13.56347179 41.78896713 5.50000000
v 13.61451912 41.86635590 5.50000000
v 13.67149925 41.94216919 5.50000000
v 13.73416710 42.01609421 5.50000000
v 13.88705540 35.17499924 5.00000000
v 13.88705540 37.42499924 5.00000000
v 13.88705540 37.77500153 5.00000000
v 13.88705540 40.02500153 5.00000000
v 13.88705540 40.37500000 5.00000000
v 13.88705540 40.44027328 5.00000000
v 13.91972256 40.42276382 5.00000000
v 14.00037193 40.38662338 5.00000000
v 14.03184223 40.37500000 5.00000000
v 13.80225658 42.08780670 5.00000000
v 13.87547493 42.15700150 5.00000000
v 13.95350742 42.22338486 5.00000000
v 14.03602219 42.28667068 5.00000000
v 14.12266541 42.34658813 5.00000000
v 14.21306419 42.40287781 5.00000000
v 14.30683327 42.45530319 5.00000000
v 14.40357113 42.50363922 5.00000000
v 14.50286198 42.54767609 5.00000000
v 14.60428238 42.58722305 5.00000000
v 14.70739746 42.62211990 5.00000000
v 14.81176567 42.65220642 5.00000000
v 14.91693878 42.67736435 5.00000000
v 13.88705540 40.44027328 5.50000000
v 13.91972256 40.42276382 5.50000000
v 14.00037193 40.38662338 5.50000000
v 14.08530140 40.35525513 5.50000000
v 14.17414761 40.32878494 5.50000000
v 14.26653099 40.30733490 5.50000000
v 14.36205482 40.29098892 5.50000000
v 13.80225658 42.08780670 5.50000000
v 13.87547493 42.15700150 5.50000000
v 13.95350742 42.22338486 5.50000000
v 14.03602219 42.28667068 5.50000000
v 14.12266541 42.34658813 5.50000000
v 14.21306419 42.40287781 5.50000000
v 14.30683327 42.45530319 5.50000000
v 14.46030998 40.27981949 5.50000000
v 14.56087685 40.27387619 5.50000000
v 14.66332436 40.27318192 5.50000000
v 14.76721287 40.27774048 5.50000000
v 14.87209797 40.28753662 5.50000000
v 14.97753143 40.30252075 5.50000000
v 14.40357113 42.50363922 5.50000000
v 14.50286198 42.54767609 5.50000000
v 14.60428238 42.58722305 5.50000000
v 14.70739746 42.62211990 5.50000000
v 14.81176567 42.65220642 5.50000000
v 14.91693878 42.67736435 5.50000000
v 10.00000000 56.50000000 4.59999990
v 10.19280720 56.50683212 4.59999990
v 10.38502884 56.52731323 4.59999990
v 10.57608128 56.56137466 4.59999990
v 10.76538372 56.60891724 4.59999990
v 10.95236206 56.66979218 4.59999990
v 11.13644791 56.74382401 4.59999990
v 10.00000000 57.79999924 4.59999990
v 10.12119293 57.80485916 4.59999990
v 10.24201775 57.81942368 4.59999990
v 10.36210823 57.84364319 4.59999990
v 10.48109818 57.87745285 4.59999990
v 10.59862804 57.92074203 4.59999990
v 10.00000000 59.45000076 4.59999990
v 10.00000000 60.75000000 4.59999990
v 10.71433926 57.97338486 4.59999990
v 10.82788086 58.03521729 4.59999990
v 10.93890858 58.10605621 4.59999990
v 11.04708385 58.18568420 4.59999990
v 11.15208054 58.27385712 4.59999990
v 11.31708241 56.83077621 4.59999990
v 11.49371719 56.93039322 4.59999990
v 11.25357819 58.37031174 4.59999990
v 11.35126781 58.47475052 4.59999990
v 11.44485474 58.58686066 4.59999990
v 11.53405285 58.70629501 4.59999990
v 11.66581631 57.04236984 4.59999990
v 11.83285522 57.16636276 4.59999990
v 11.61859226 58.83269882 4.59999990
v 11.69821644 58.96568298 4.59999990
v 11.77268314 59.10484695 4.59999990
v 11.84176636 59.24976730 4.59999990
v 11.99432850 57.30199814 4.59999990
v 12.14974403 57.44886780 4.59999990
v 12.29863167 57.60652161 4.59999990
v 12.44053841 57.77447891 4.59999990
v 11.90525627 59.40000153 4.59999990
v 11.90525627 59.45000076 4.59999990
v 11.90525627 60.75000000 4.59999990
v 10.00000000 56.50000000 5.00000000
v 10.19280720 56.50683212 5.00000000
v 10.38502884 56.52731323 5.00000000
v 10.57608128 56.56137466 5.00000000
v 10.76538372 56.60891724 5.00000000
v 10.95236206 56.66979218 5.00000000
v 11.13644791 56.74382401 5.00000000
v 10.00000000 57.79999924 5.00000000
v 10.12119293 57.80485916 5.00000000
v 10.24201775 57.81942368 5.00000000
v 10.36210823 57.84364319 5.00000000
v 10.48109818 57.87745285 5.00000000
v 10.59862804 57.92074203 5.00000000
v 10.00000000 59.45000076 5.00000000
v 10.00000000 60.75000000 5.00000000
v 10.71433926 57.97338486 5.00000000
v 10.82788086 58.03521729 5.00000000
v 10.93890858 58.10605621 5.00000000
v 11.04708385 58.18568420 5.00000000
v 11.15208054 58.27385712 5.00000000
v 11.31708241 56.83077621 5.00000000
v 11.49371719 56.93039322 5.00000000
v 11.25357819 58.37031174 5.00000000
v 11.35126781 58.47475052 5.00000000
v 11.44485474 58.58686066 5.00000000
v 11.53405285 58.70629501 5.00000000
v 11.66581631 57.04236984 5.00000000
v 11.83285522 57.16636276 5.00000000
v 11.61859226 58.83269882 5.00000000
v 11.69821644 58.96568298 5.00000000
v 11.77268314 59.10484695 5.00000000
v 11.84176636 59.24976730 5.00000000
v 11.99432850 57.30199814 5.00000000
v 12.14974403 57.44886780 5.00000000
v 12.29863167 57.60652161 5.00000000
v 12.44053841 57.77447891 5.00000000
v 11.90525627 59.40000153 5.00000000
v 11.90525627 59.45000076 5.00000000
v 10.00000000 64.19999695 4.59999990
v 10.12119293 64.19514465 4.59999990
v 10.24201775 64.18058014 4.59999990
v 10.00000000 65.50000000 4.59999990
v 10.19280720 65.49316406 4.59999990
v 10.36210823 64.15635681 4.59999990
v 10.48109818 64.12255096 4.59999990
v 10.59862804 64.07925415 4.59999990
v 10.38502884 65.47268677 4.59999990
v 10.57608128 65.43862915 4.59999990
v 10.71433926 64.02661896 4.59999990
v 10.82788086 63.96478271 4.59999990
v 10.76538372 65.39108276 4.59999990
v 10.93890858 63.89394379 4.59999990
v 11.04708385 63.81431580 4.59999990
v 11.15208054 63.72614288 4.59999990
v 10.95236206 65.33020782 4.59999990
v 11.13644791 65.25617981 4.59999990
v 11.44485474 63.41313934 4.59999990
v 11.53405285 63.29370499 4.59999990
v 11.61859226 63.16730118 4.59999990
v 11.69821644 63.03431702 4.59999990
v 11.84176636 62.75023270 4.59999990
v 11.77268314 62.89515305 4.59999990
v 11.25357819 63.62968826 4.59999990
v 11.35126781 63.52524948 4.59999990
v 11.31708241 65.16921997 4.59999990
v 11.49371719 65.06961060 4.59999990
v 11.66581631 64.95763397 4.59999990
v 11.83285522 64.83364105 4.59999990
v 11.90525627 62.59999847 4.59999990
v 11.99432850 64.69799805 4.59999990
v 12.14974403 64.55113220 4.59999990
v 12.29863167 64.39347839 4.59999990
v 12.44053841 64.22552490 4.59999990
v 10.00000000 64.19999695 5.00000000
v 10.12119293 64.19514465 5.00000000
v 10.24201775 64.18058014 5.00000000
v 10.00000000 65.50000000 5.00000000
v 10.19280720 65.49316406 5.00000000
v 10.36210823 64.15635681 5.00000000
v 10.48109818 64.12255096 5.00000000
v 10.59862804 64.07925415 5.00000000
v 10.38502884 65.47268677 5.00000000
v 10.57608128 65.43862915 5.00000000
v 10.71433926 64.02661896 5.00000000
v 10.82788086 63.96478271 5.00000000
v 10.76538372 65.39108276 5.00000000
v 10.93890858 63.89394379 5.00000000
v 11.04708385 63.81431580 5.00000000
v 11.15208054 63.72614288 5.00000000
v 10.95236206 65.33020782 5.00000000
v 11.13644791 65.25617981 5.00000000
v 11.44485474 63.41313934 5.00000000
v 11.53405285 63.29370499 5.00000000
v 11.61859226 63.16730118 5.00000000
v 11.69821644 63.03431702 5.00000000
v 11.84176636 62.75023270 5.00000000
v 11.77268314 62.89515305 5.00000000
v 11.25357819 63.62968826 5.00000000
v 11.35126781 63.52524948 5.00000000
v 11.31708241 65.16921997 5.00000000
v 11.49371719 65.06961060 5.00000000
v 11.66581631 64.95763397 5.00000000
v 11.83285522 64.83364105 5.00000000
v 11.90525627 62.59999847 5.00000000
v 11.99432850 64.69799805 5.00000000
v 12.14974403 64.55113220 5.00000000
v 12.29863167 64.39347839 5.00000000
v 12.44053841 64.22552490 5.00000000
v 12.57503414 57.95223236 4.59999990
v 12.70170784 58.13924408 4.59999990
v 12.82017803 58.33494186 4.59999990
v 12.86874676 58.42499924 4.59999990
v 13.68108845 58.42499924 4.59999990
v 13.68108845 59.45000076 4.59999990
v 13.68108845 60.75000000 4.59999990
v 12.57503414 57.95223236 5.00000000
v 12.70170784 58.13924408 5.00000000
v 12.82017803 58.33494186 5.00000000
v 12.86874676 58.42499924 5.00000000
v 13.68108845 58.42499924 5.00000000
v 13.68108845 60.75000000 5.00000000
v 13.03108883 63.25000000 4.59999990
v 12.57503414 64.04776764 4.59999990
v 12.70170784 63.86075592 4.59999990
v 12.82017803 63.66505814 4.59999990
v 12.93008232 63.46126556 4.59999990
v 13.03108883 63.25000000 5.00000000
v 12.57503414 64.04776764 5.00000000
v 12.70170784 63.86075592 5.00000000
v 12.82017803 63.66505814 5.00000000
v 12.93008232 63.46126556 5.00000000
v 15.08306122 40.32263565 4.59999990
v 15.18823433 40.34779358 4.59999990
v 15.28261185 40.37500000 4.59999990
v 15.28261185 40.37500000 5.00000000
v 15.29260254 40.37788010 5.00000000
v 15.39571762 40.41277695 5.00000000
v 15.49713802 40.45232391 5.00000000
v 15.59642887 40.49636078 5.00000000
v 15.02246857 42.69747925 5.00000000
v 15.12790203 42.71246338 5.00000000
v 15.23278713 42.72225952 5.00000000
v 15.33667564 42.72681808 5.00000000
v 15.43912315 42.72612381 5.00000000
v 15.53969002 42.72018051 5.00000000
v 15.69316673 40.54469681 5.00000000
v 15.78693581 40.59712219 5.00000000
v 15.87733459 40.65341187 5.00000000
v 15.96397781 40.71332932 5.00000000
v 16.04649162 40.77661514 5.00000000
v 16.12452507 40.84299850 5.00000000
v 16.19774437 40.91219330 5.00000000
v 15.91469860 42.64474487 5.00000000
v 15.63794518 42.70901108 5.00000000
v 15.73346901 42.69266510 5.00000000
v 15.82585239 42.67121506 5.00000000
v 15.99962807 42.61337662 5.00000000
v 16.08027840 42.57723618 5.00000000
v 16.15630150 42.53648758 5.00000000
v 16.22737312 42.49129486 5.00000000
v 15.08306122 40.32263565 5.50000000
v 15.18823433 40.34779358 5.50000000
v 15.29260254 40.37788010 5.50000000
v 15.39571762 40.41277695 5.50000000
v 15.49713802 40.45232391 5.50000000
v 15.59642887 40.49636078 5.50000000
v 15.02246857 42.69747925 5.50000000
v 15.12790203 42.71246338 5.50000000
v 15.23278713 42.72225952 5.50000000
v 15.33667564 42.72681808 5.50000000
v 15.43912315 42.72612381 5.50000000
v 15.53969002 42.72018051 5.50000000
v 15.69316673 40.54469681 5.50000000
v 15.78693581 40.59712219 5.50000000
v 15.87733459 40.65341187 5.50000000
v 15.96397781 40.71332932 5.50000000
v 16.04649162 40.77661514 5.50000000
v 16.12452507 40.84299850 5.50000000
v 16.19774437 40.91219330 5.50000000
v 15.91469860 42.64474487 5.50000000
v 15.63794518 42.70901108 5.50000000
v 15.73346901 42.69266510 5.50000000
v 15.82585239 42.67121506 5.50000000
v 15.99962807 42.61337662 5.50000000
v 16.08027840 42.57723618 5.50000000
v 16.15630150 42.53648758 5.50000000
v 16.22737312 42.49129486 5.50000000
v 16.26583290 40.98390579 5.00000000
v 16.32850075 41.05783081 5.00000000
v 16.38548088 41.13364410 5.00000000
v 16.43652725 41.21103287 5.00000000
v 16.48142242 41.28965378 5.00000000
v 16.51997566 41.36917877 5.00000000
v 16.55201721 41.44926071 5.00000000
v 16.57741547 41.52956390 5.00000000
v 16.29318810 42.44186401 5.00000000
v 16.35346603 42.38839340 5.00000000
v 16.40794945 42.33112335 5.00000000
v 16.45640373 42.27029419 5.00000000
v 16.49861908 42.20616531 5.00000000
v 16.53442001 42.13901138 5.00000000
v 16.59605789 41.60973740 5.00000000
v 16.60786438 41.68944168 5.00000000
v 16.61278725 41.76833344 5.00000000
v 16.56364822 42.06912231 5.00000000
v 16.58618164 41.99679565 5.00000000
v 16.61080360 41.84608078 5.00000000
v 16.60192299 41.92234039 5.00000000
v 16.26583290 40.98390579 5.50000000
v 16.32850075 41.05783081 5.50000000
v 16.38548088 41.13364410 5.50000000
v 16.43652725 41.21103287 5.50000000
v 16.48142242 41.28965378 5.50000000
v 16.51997566 41.36917877 5.50000000
v 16.55201721 41.44926071 5.50000000
v 16.57741547 41.52956390 5.50000000
v 16.29318810 42.44186401 5.50000000
v 16.35346603 42.38839340 5.50000000
v 16.40794945 42.33112335 5.50000000
v 16.45640373 42.27029419 5.50000000
v 16.49861908 42.20616531 5.50000000
v 16.53442001 42.13901138 5.50000000
v 16.59605789 41.60973740 5.50000000
v 16.60786438 41.68944168 5.50000000
v 16.61278725 41.76833344 5.50000000
v 16.56364822 42.06912231 5.50000000
v 16.58618164 41.99679565 5.50000000
v 16.61080360 41.84608078 5.50000000
v 16.60192299 41.92234039 5.50000000
v 19.79999924 35.17499924 4.59999990
v 19.79999924 37.42499924 4.59999990
v 19.79999924 37.77500153 4.59999990
v 19.79999924 40.02500153 4.59999990
v 19.79999924 40.37500000 4.59999990
v 19.39999962 35.17499924 5.00000000
v 19.39999962 37.42499924 5.00000000
v 19.39999962 37.77500153 5.00000000
v 19.39999962 40.02500153 5.00000000
v 19.39999962 40.37500000 5.00000000
v 19.39999962 70.00000000 4.40000010
v 20.00000000 69.40000153 4.40000010
v 19.39999962 69.40000153 5.00000000
f 1 3 2
f 2 3 5
f 1 2 255
f 2 4 256
f 1 496 3
f 1 255 495
f 2 5 4
f 4 5 6
f 4 6 7
f 6 12 7
f 4 7 268
f 8 13 9
f 10 15 11
f 13 14 9
f 11 15 16
f 12 30 17
f 12 31 30
f 7 170 8
f 7 12 169
f 9 174 10
f 9 14 173
f 11 16 499
f 8 186 13
f 12 17 18
f 12 18 21
f 12 21 22
f 13 195 14
f 10 215 15
f 15 215 16
f 12 22 185
f 3 630 5
f 5 630 6
f 6 632 12
f 28 17 27
f 33 17 25
f 25 17 28
f 34 17 33
f 26 17 30
f 27 17 29
f 29 17 26
f 35 17 34
f 36 17 35
f 37 17 36
f 38 17 37
f 39 17 38
f 40 17 39
f 17 40 41
f 17 41 47
f 17 47 48
f 17 48 49
f 17 49 50
f 17 50 54
f 17 54 55
f 17 55 56
f 17 56 57
f 17 57 98
f 17 98 99
f 17 99 100
f 17 100 101
f 21 18 132
f 7 169 170
f 8 170 186
f 9 173 174
f 10 174 176
f 10 176 180
f 10 180 181
f 10 181 182
f 10 182 215
f 12 185 169
f 14 195 173
f 13 186 195
f 21 132 183
f 185 22 184
f 16 215 216
f 16 216 217
f 16 217 218
f 16 218 223
f 16 223 224
f 16 224 225
f 16 225 226
f 16 226 227
f 16 227 507
f 16 507 508
f 16 508 509
f 16 509 510
f 16 510 511
f 16 511 512
f 16 512 513
f 16 513 520
f 16 520 521
f 16 521 522
f 12 632 31
f 144 166 199
f 11 499 646
f 175 177 176
f 177 178 176
f 179 176 178
f 176 179 180
f 175 196 177
f 16 522 523
f 16 523 524
f 16 524 525
f 16 525 558
f 16 558 559
f 16 559 560
f 16 560 579
f 16 579 499
f 144 199 187
f 196 212 177
f 190 210 196
f 190 203 214
f 190 208 210
f 190 209 207
f 190 207 208
f 190 214 209
f 190 204 203
f 190 205 204
f 190 206 205
f 190 219 206
f 190 220 219
f 196 211 213
f 196 210 211
f 196 213 212
f 190 221 220
f 190 222 221
f 190 500 222
f 190 501 500
f 190 502 501
f 190 503 502
f 190 504 503
f 2 256 255
f 255 256 257
f 256 269 257
f 255 257 644
f 257 269 644
f 4 268 256
f 258 263 259
f 260 265 261
f 7 8 268
f 259 263 264
f 265 266 261
f 8 9 268
f 9 10 268
f 10 11 268
f 11 258 268
f 258 259 268
f 259 260 268
f 260 261 268
f 261 262 268
f 262 267 268
f 11 646 258
f 259 648 260
f 259 264 647
f 261 650 262
f 261 266 649
f 262 650 267
f 258 651 263
f 260 653 265
f 263 652 264
f 265 654 266
f 267 297 298
f 256 268 269
f 267 270 268
f 268 270 269
f 267 286 270
f 267 291 290
f 267 292 291
f 267 294 292
f 267 290 286
f 267 293 294
f 267 295 293
f 267 296 295
f 267 298 296
f 270 286 287
f 270 287 288
f 270 288 289
f 270 289 314
f 270 314 315
f 270 315 316
f 270 316 317
f 270 317 318
f 270 318 319
f 270 319 320
f 270 320 321
f 270 321 322
f 270 322 323
f 270 323 324
f 267 300 297
f 267 299 300
f 267 372 371
f 267 371 299
f 267 373 372
f 267 374 373
f 267 386 374
f 267 370 390
f 267 387 386
f 267 390 387
f 267 397 370
f 267 398 397
f 267 399 398
f 267 400 399
f 267 401 400
f 267 402 401
f 267 801 402
f 267 802 801
f 267 803 802
f 267 804 803
f 267 805 804
f 267 806 805
f 258 646 651
f 259 647 648
f 260 648 653
f 261 649 650
f 263 651 652
f 264 652 647
f 265 653 654
f 266 654 649
f 267 650 655
f 267 655 656
f 267 656 807
f 267 807 806
f 271 276 273
f 271 273 272
f 273 301 274
f 271 275 276
f 276 277 279
f 273 276 280
f 276 279 280
f 278 280 279
f 271 286 275
f 271 272 287
f 272 273 288
f 273 274 289
f 277 292 279
f 276 291 277
f 275 290 276
f 278 279 294
f 278 293 280
f 280 281 283
f 282 285 283
f 280 283 285
f 284 328 285
f 280 285 330
f 280 295 281
f 281 296 283
f 282 283 298
f 284 299 328
f 282 297 285
f 284 285 300
f 273 280 330
f 273 330 423
f 280 293 295
f 275 286 290
f 271 287 286
f 272 288 287
f 273 289 288
f 274 314 289
f 279 292 294
f 276 290 291
f 277 291 292
f 278 294 293
f 281 295 296
f 282 298 297
f 283 296 298
f 285 297 300
f 284 300 299
f 273 303 301
f 301 303 302
f 273 307 303
f 303 305 304
f 303 307 305
f 305 307 306
f 274 301 314
f 301 302 315
f 302 303 316
f 303 304 317
f 304 305 318
f 305 306 319
f 306 307 320
f 307 308 321
f 273 423 307
f 307 309 308
f 307 311 309
f 308 309 322
f 309 310 323
f 309 311 310
f 307 423 311
f 311 313 312
f 311 423 313
f 310 311 324
f 311 312 325
f 312 313 326
f 269 270 1040
f 270 324 325
f 270 325 326
f 270 326 463
f 270 463 464
f 270 464 465
f 270 465 466
f 270 466 473
f 270 473 474
f 270 474 477
f 270 477 478
f 270 478 482
f 270 482 483
f 301 315 314
f 302 316 315
f 303 317 316
f 304 318 317
f 305 319 318
f 306 320 319
f 307 321 320
f 308 322 321
f 309 323 322
f 310 324 323
f 311 325 324
f 312 326 325
f 313 463 326
f 270 483 486
f 270 486 490
f 270 490 491
f 270 491 494
f 270 494 877
f 270 877 878
f 270 878 882
f 270 882 883
f 270 886 890
f 270 883 886
f 327 354 347
f 327 370 354
f 285 328 330
f 328 329 330
f 330 331 343
f 330 339 335
f 330 337 339
f 330 352 338
f 330 338 337
f 330 353 352
f 328 371 329
f 329 372 330
f 330 373 331
f 331 374 343
f 330 333 423
f 330 336 341
f 330 340 342
f 330 342 332
f 330 341 340
f 330 335 336
f 330 332 333
f 332 375 333
f 333 376 334
f 334 377 413
f 336 379 341
f 335 378 336
f 337 380 339
f 337 338 381
f 335 339 382
f 340 341 384
f 340 383 342
f 332 342 385
f 330 343 347
f 343 344 347
f 330 345 353
f 330 346 345
f 330 348 346
f 330 350 349
f 330 349 348
f 330 351 350
f 330 347 356
f 330 362 361
f 330 363 362
f 330 360 351
f 330 361 360
f 343 386 344
f 344 387 347
f 345 388 353
f 345 346 389
f 327 347 390
f 346 348 391
f 348 349 392
f 349 350 393
f 350 351 394
f 338 352 395
f 352 353 396
f 347 354 356
f 354 355 356
f 354 397 355
f 355 398 356
f 356 399 357
f 356 357 358
f 356 358 762
f 358 359 762
f 357 400 358
f 358 401 359
f 359 402 762
f 330 364 363
f 330 365 364
f 330 366 365
f 330 367 366
f 330 368 367
f 330 369 368
f 330 356 766
f 330 769 369
f 330 770 769
f 351 360 403
f 360 361 404
f 361 362 405
f 364 365 408
f 362 363 406
f 363 364 407
f 330 771 770
f 365 366 409
f 366 367 410
f 367 368 411
f 368 369 412
f 369 769 808
f 327 390 370
f 299 371 328
f 329 371 372
f 330 372 373
f 331 373 374
f 343 374 386
f 332 385 375
f 333 375 376
f 334 376 377
f 377 454 413
f 335 382 378
f 336 378 379
f 337 381 380
f 338 395 381
f 339 380 382
f 340 384 383
f 341 379 384
f 342 383 385
f 344 386 387
f 353 388 396
f 345 389 388
f 346 391 389
f 347 387 390
f 348 392 391
f 349 393 392
f 350 394 393
f 352 396 395
f 378 382 815
f 380 815 382
f 380 381 815
f 379 815 384
f 383 815 385
f 375 385 815
f 383 384 815
f 375 815 376
f 376 815 377
f 377 815 454
f 454 815 455
f 378 815 379
f 370 397 354
f 355 397 398
f 356 398 399
f 357 399 400
f 358 400 401
f 359 401 402
f 402 801 762
f 351 403 394
f 360 404 403
f 361 405 404
f 364 408 407
f 362 406 405
f 363 407 406
f 389 391 814
f 391 392 814
f 393 394 814
f 392 393 814
f 394 403 814
f 403 404 814
f 404 405 814
f 388 389 814
f 388 815 396
f 381 395 815
f 395 396 815
f 365 409 408
f 366 410 409
f 367 411 410
f 368 412 411
f 369 808 412
f 406 407 814
f 405 406 814
f 407 408 814
f 408 409 814
f 409 410 814
f 410 411 814
f 411 412 814
f 412 808 814
f 388 814 815
f 333 334 423
f 334 413 423
f 413 414 423
f 414 415 423
f 415 416 423
f 416 417 423
f 417 418 423
f 418 419 423
f 419 420 423
f 420 421 423
f 421 426 423
f 423 426 427
f 413 454 414
f 414 455 415
f 415 456 416
f 416 457 417
f 417 458 418
f 418 459 419
f 419 460 420
f 420 461 421
f 421 462 426
f 313 423 422
f 423 427 428
f 423 425 424
f 423 433 425
f 313 422 463
f 422 423 464
f 423 424 465
f 424 425 466
f 425 432 473
f 426 467 427
f 427 468 428
f 428 469 429
f 429 470 430
f 430 471 431
f 423 428 429
f 423 429 430
f 423 430 431
f 423 431 434
f 423 434 435
f 425 433 432
f 423 442 433
f 433 437 436
f 433 442 437
f 432 433 474
f 431 472 434
f 434 475 435
f 433 436 477
f 436 437 478
f 423 435 848
f 437 442 441
f 423 848 442
f 442 449 445
f 435 476 438
f 438 479 439
f 439 480 440
f 437 441 482
f 441 442 483
f 440 481 443
f 443 484 444
f 444 485 446
f 442 445 486
f 445 449 490
f 435 438 848
f 438 439 848
f 439 440 848
f 440 443 848
f 443 444 848
f 442 453 449
f 449 453 450
f 444 446 848
f 446 447 848
f 442 848 453
f 447 448 848
f 448 451 848
f 446 487 447
f 447 488 448
f 448 489 451
f 449 450 491
f 451 492 452
f 452 493 839
f 450 453 494
f 453 842 877
f 414 454 455
f 415 455 456
f 416 456 457
f 417 457 458
f 418 458 459
f 419 459 460
f 420 460 461
f 421 461 462
f 422 464 463
f 423 465 464
f 424 466 465
f 425 473 466
f 426 462 467
f 427 467 468
f 428 468 469
f 429 469 470
f 430 470 471
f 431 471 472
f 455 815 456
f 456 815 457
f 457 815 458
f 458 815 459
f 459 815 460
f 460 815 461
f 461 815 462
f 432 474 473
f 433 477 474
f 434 472 475
f 435 475 476
f 436 478 477
f 437 482 478
f 462 815 467
f 467 815 468
f 468 815 469
f 469 815 470
f 470 815 471
f 471 815 472
f 472 815 475
f 475 815 476
f 476 815 479
f 479 815 480
f 480 815 481
f 476 479 438
f 439 479 480
f 440 480 481
f 441 483 482
f 443 481 484
f 444 484 485
f 446 485 487
f 442 486 483
f 445 490 486
f 481 815 484
f 484 815 485
f 485 815 487
f 487 815 488
f 488 815 489
f 489 815 492
f 492 815 493
f 493 815 874
f 447 487 488
f 448 488 489
f 449 491 490
f 450 494 491
f 451 489 492
f 452 492 493
f 493 874 839
f 453 877 494
f 1 495 496
f 3 496 630
f 495 497 496
f 496 497 630
f 495 643 497
f 632 32 31
f 632 42 32
f 632 43 42
f 632 44 43
f 632 46 45
f 632 45 44
f 632 51 46
f 632 52 51
f 632 53 52
f 632 91 53
f 632 92 91
f 632 93 92
f 632 94 93
f 632 95 94
f 632 96 95
f 632 97 96
f 632 102 97
f 632 103 102
f 632 104 103
f 632 105 104
f 632 106 105
f 632 107 106
f 632 125 107
f 632 126 125
f 632 127 126
f 632 128 127
f 632 129 128
f 632 130 129
f 632 131 130
f 632 133 131
f 632 134 133
f 632 135 134
f 632 136 135
f 632 137 136
f 632 138 137
f 632 139 138
f 632 140 139
f 632 141 140
f 632 142 141
f 632 143 142
f 6 630 632
f 632 165 143
f 632 166 165
f 634 172 171
f 633 171 189
f 639 190 172
f 638 189 188
f 579 560 561
f 579 561 562
f 579 562 563
f 579 563 575
f 579 575 576
f 579 576 577
f 579 577 578
f 610 609 612
f 611 619 614
f 610 612 613
f 610 613 620
f 611 614 661
f 635 606 498
f 635 607 606
f 635 608 607
f 635 609 608
f 635 498 574
f 638 188 200
f 638 199 166
f 638 200 199
f 639 504 190
f 610 620 618
f 619 618 621
f 639 505 504
f 639 506 505
f 639 514 506
f 639 515 514
f 639 516 515
f 639 517 516
f 619 621 614
f 618 620 621
f 639 518 517
f 639 519 518
f 639 552 519
f 639 553 552
f 639 554 553
f 639 555 554
f 639 556 555
f 639 557 556
f 639 564 557
f 639 565 564
f 639 566 565
f 639 567 566
f 639 568 567
f 639 569 568
f 639 570 569
f 639 571 570
f 639 572 571
f 639 573 572
f 639 574 573
f 497 631 630
f 630 631 632
f 631 638 632
f 497 1041 631
f 632 638 166
f 633 634 171
f 634 639 172
f 635 612 609
f 635 615 612
f 636 616 615
f 637 617 628
f 633 189 638
f 641 627 616
f 642 628 627
f 635 574 640
f 639 640 574
f 631 633 638
f 635 636 615
f 636 641 616
f 637 1030 617
f 631 1041 633
f 634 635 640
f 636 637 642
f 637 628 642
f 641 642 627
f 634 640 639
f 636 642 641
f 255 643 495
f 255 644 643
f 497 643 645
f 497 645 1041
f 643 644 645
f 644 1041 645
f 807 656 692
f 807 692 695
f 611 661 658
f 659 663 660
f 659 685 662
f 658 661 687
f 659 662 663
f 689 660 663
f 667 665 664
f 664 690 666
f 666 667 664
f 667 694 665
f 673 672 671
f 671 674 673
f 671 675 674
f 671 676 675
f 671 677 676
f 671 678 677
f 671 679 678
f 673 722 672
f 658 687 684
f 684 688 685
f 660 689 686
f 686 693 690
f 687 688 684
f 688 662 685
f 689 693 686
f 694 691 665
f 694 692 691
f 666 690 693
f 694 695 692
f 718 672 722
f 718 720 719
f 718 721 720
f 718 722 721
f 807 695 696
f 807 696 697
f 807 697 698
f 807 698 699
f 807 699 700
f 807 700 701
f 807 701 702
f 807 702 703
f 807 703 723
f 807 723 724
f 807 724 725
f 807 725 726
f 807 726 727
f 807 727 728
f 807 728 729
f 807 729 730
f 807 730 731
f 807 731 732
f 807 732 733
f 807 733 734
f 807 734 735
f 807 735 940
f 807 940 941
f 807 941 942
f 807 942 943
f 807 943 944
f 807 944 945
f 807 945 954
f 807 954 955
f 807 955 956
f 807 956 953
f 807 953 957
f 807 957 958
f 807 958 959
f 807 959 960
f 807 960 996
f 807 996 997
f 807 997 998
f 807 998 999
f 807 1000 1001
f 807 1001 1005
f 807 999 1000
f 807 1039 821
f 821 1039 822
f 822 1039 827
f 827 1039 828
f 828 1039 833
f 833 1039 834
f 834 1039 835
f 835 1039 836
f 836 1039 916
f 916 1039 917
f 917 1039 918
f 269 1040 644
f 356 762 766
f 762 763 764
f 762 764 766
f 764 765 766
f 762 801 763
f 763 802 764
f 764 803 765
f 766 767 768
f 766 768 783
f 765 804 766
f 766 805 767
f 767 806 768
f 768 807 782
f 330 795 771
f 330 766 795
f 769 770 809
f 770 771 810
f 771 772 811
f 772 773 812
f 773 774 813
f 775 776 815
f 771 795 772
f 772 795 773
f 773 795 774
f 774 795 777
f 777 795 778
f 774 777 816
f 777 778 817
f 778 779 818
f 779 780 819
f 780 781 820
f 781 784 823
f 775 800 776
f 775 814 799
f 776 800 815
f 768 782 783
f 782 821 783
f 778 795 779
f 779 795 780
f 766 783 795
f 780 795 781
f 781 795 784
f 783 788 789
f 783 789 795
f 784 795 785
f 785 795 786
f 786 795 787
f 787 795 790
f 790 795 791
f 791 795 792
f 783 822 788
f 784 785 824
f 785 786 825
f 786 787 826
f 788 827 789
f 787 790 829
f 790 791 830
f 791 792 831
f 775 799 800
f 792 793 832
f 815 800 915
f 789 794 795
f 792 795 793
f 793 795 798
f 795 799 798
f 795 796 797
f 795 797 911
f 795 911 800
f 789 828 794
f 794 833 795
f 795 834 796
f 796 835 797
f 797 836 909
f 795 800 799
f 793 798 837
f 798 799 838
f 763 801 802
f 764 802 803
f 765 803 804
f 766 804 805
f 767 805 806
f 768 806 807
f 769 809 808
f 770 810 809
f 771 811 810
f 772 812 811
f 773 813 812
f 808 809 814
f 809 810 814
f 810 811 814
f 811 812 814
f 812 813 814
f 813 816 814
f 814 816 817
f 814 817 818
f 775 815 814
f 774 816 813
f 777 817 816
f 778 818 817
f 779 819 818
f 780 820 819
f 781 823 820
f 814 818 819
f 814 819 820
f 814 820 823
f 814 823 824
f 814 824 825
f 814 825 826
f 814 826 829
f 814 829 830
f 814 830 831
f 814 831 832
f 814 832 837
f 807 821 782
f 821 822 783
f 784 824 823
f 785 825 824
f 786 826 825
f 787 829 826
f 788 822 827
f 789 827 828
f 790 830 829
f 791 831 830
f 814 838 799
f 792 832 831
f 793 837 832
f 814 837 838
f 794 828 833
f 795 833 834
f 796 834 835
f 797 835 836
f 798 838 837
f 815 915 921
f 451 452 848
f 452 839 848
f 453 843 842
f 839 840 848
f 453 848 843
f 840 841 848
f 841 844 848
f 843 848 847
f 844 845 848
f 839 874 840
f 840 875 841
f 841 876 844
f 842 843 878
f 844 879 845
f 845 880 846
f 843 847 882
f 847 848 883
f 848 855 851
f 848 865 855
f 855 865 856
f 846 881 849
f 849 884 850
f 850 885 852
f 848 851 886
f 851 855 890
f 852 887 853
f 853 888 854
f 854 889 863
f 855 856 891
f 857 892 858
f 858 893 859
f 859 894 860
f 861 862 897
f 861 896 869
f 860 895 862
f 845 846 922
f 845 922 848
f 846 849 922
f 849 850 922
f 848 870 865
f 865 867 866
f 850 852 922
f 852 853 922
f 853 854 922
f 854 863 922
f 848 922 870
f 865 870 867
f 867 870 868
f 863 898 864
f 857 864 899
f 856 865 900
f 865 866 901
f 866 867 902
f 867 868 903
f 857 922 864
f 857 858 922
f 858 859 922
f 859 860 922
f 860 862 922
f 861 869 922
f 861 922 862
f 869 904 922
f 863 864 922
f 870 872 871
f 870 923 872
f 872 923 873
f 868 870 905
f 870 871 906
f 871 872 907
f 872 873 908
f 815 875 874
f 815 876 875
f 815 879 876
f 815 880 879
f 815 881 880
f 815 884 881
f 815 887 885
f 815 885 884
f 840 874 875
f 841 875 876
f 842 878 877
f 843 882 878
f 844 876 879
f 845 879 880
f 846 880 881
f 847 883 882
f 815 888 887
f 815 889 888
f 815 898 889
f 815 892 899
f 815 899 898
f 815 895 894
f 815 897 895
f 815 904 896
f 815 896 897
f 815 893 892
f 815 894 893
f 849 881 884
f 852 885 887
f 850 884 885
f 848 886 883
f 851 890 886
f 853 887 888
f 854 888 889
f 889 898 863
f 855 891 890
f 856 900 891
f 270 890 1042
f 858 892 893
f 859 893 894
f 860 894 895
f 861 897 896
f 862 895 897
f 815 921 904
f 864 898 899
f 857 899 892
f 865 901 900
f 866 902 901
f 867 903 902
f 869 896 904
f 868 905 903
f 870 906 905
f 871 907 906
f 872 908 907
f 873 928 908
f 797 909 911
f 909 910 911
f 909 916 910
f 910 917 911
f 911 918 912
f 800 911 912
f 800 912 914
f 800 914 915
f 912 913 914
f 912 919 913
f 913 920 914
f 914 920 915
f 836 916 909
f 910 916 917
f 911 917 918
f 912 918 919
f 913 919 920
f 915 920 921
f 922 927 926
f 870 922 923
f 923 925 924
f 922 925 923
f 922 926 925
f 873 923 928
f 923 924 929
f 924 925 930
f 925 926 931
f 270 1042 1040
f 904 927 922
f 926 927 931
f 904 921 927
f 923 929 928
f 924 930 929
f 925 931 930
f 890 891 1042
f 891 900 1042
f 900 901 1042
f 901 902 1042
f 902 903 1042
f 903 905 1042
f 905 906 1042
f 906 907 1042
f 907 908 1042
f 908 928 1042
f 928 929 1042
f 929 930 1042
f 1030 668 617
f 1032 670 669
f 1031 669 715
f 1033 679 671
f 1033 671 717
f 1033 680 679
f 1033 681 680
f 1033 682 681
f 1033 683 682
f 1033 932 683
f 1033 933 932
f 1033 934 933
f 1035 714 668
f 1036 715 714
f 1037 716 670
f 1038 717 716
f 1039 935 934
f 1039 936 935
f 1039 937 936
f 1039 938 937
f 1039 939 938
f 1039 946 939
f 1039 947 946
f 1039 948 947
f 1039 949 948
f 1039 950 949
f 1039 951 950
f 1039 952 951
f 1039 988 952
f 1039 989 988
f 1039 990 989
f 1039 991 990
f 1039 992 991
f 1039 993 992
f 1039 994 993
f 807 1005 1039
f 918 1039 919
f 919 1039 920
f 1030 1035 668
f 1031 1032 669
f 1032 1037 670
f 1033 1034 934
f 1034 1039 934
f 1030 1031 1036
f 1032 1033 1038
f 633 1041 634
f 1035 1036 714
f 1031 715 1036
f 1037 1038 716
f 1033 717 1038
f 1039 995 994
f 1039 1002 995
f 1039 1003 1002
f 1039 1004 1003
f 1039 1008 1007
f 1039 1005 1006
f 1039 1006 1008
f 1039 1007 1004
f 1030 1036 1035
f 1032 1038 1037
f 634 1041 635
f 635 1041 636
f 636 1041 637
f 637 1041 1030
f 1030 1041 1031
f 1031 1041 1032
f 1032 1041 1033
f 1033 1041 1034
f 1034 1042 1039
f 644 1040 1041
f 920 1039 921
f 921 1039 1042
f 930 931 1042
f 927 1042 931
f 921 1042 927
f 1034 1041 1042
f 1040 1042 1041
f 19 18 17
f 19 20 18
f 23 22 21
f 23 24 22
f 59 29 26
f 60 28 27
f 62 27 29
f 61 25 28
f 63 26 30
f 64 30 31
f 65 31 32
f 58 33 25
f 66 34 33
f 67 35 34
f 68 36 35
f 69 37 36
f 70 38 37
f 71 39 38
f 72 40 39
f 73 41 40
f 62 60 27
f 61 28 60
f 61 58 25
f 59 62 29
f 59 26 63
f 64 63 30
f 64 31 65
f 65 32 75
f 59 63 62
f 61 60 62
f 61 62 66
f 61 66 58
f 64 65 63
f 63 65 62
f 62 65 66
f 58 66 33
f 66 67 34
f 67 68 35
f 68 69 36
f 69 70 37
f 70 71 38
f 71 72 39
f 72 73 40
f 73 74 41
f 66 68 67
f 66 70 68
f 68 70 69
f 66 65 74
f 66 74 70
f 70 72 71
f 70 74 72
f 72 74 73
f 19 17 118
f 76 42 43
f 77 43 44
f 75 32 42
f 78 44 45
f 79 45 46
f 74 47 41
f 80 48 47
f 81 49 48
f 82 50 49
f 83 54 50
f 84 46 51
f 85 51 52
f 86 52 53
f 108 53 91
f 87 55 54
f 76 75 42
f 76 43 77
f 77 44 78
f 79 78 45
f 76 65 75
f 76 78 65
f 76 77 78
f 65 78 86
f 79 84 78
f 74 80 47
f 80 81 48
f 81 82 49
f 82 83 50
f 83 87 54
f 74 81 80
f 74 83 81
f 81 83 82
f 74 90 83
f 79 46 84
f 84 51 85
f 85 52 86
f 86 53 108
f 78 84 86
f 84 85 86
f 65 86 119
f 83 88 87
f 20 132 18
f 118 17 101
f 88 56 55
f 89 57 56
f 90 98 57
f 19 152 20
f 87 88 55
f 88 89 56
f 89 90 57
f 83 90 88
f 88 90 89
f 109 91 92
f 110 92 93
f 111 93 94
f 112 94 95
f 113 95 96
f 114 96 97
f 108 91 109
f 109 92 110
f 110 93 111
f 86 108 109
f 86 109 111
f 109 110 111
f 65 152 74
f 111 94 112
f 112 95 113
f 113 96 114
f 86 111 119
f 111 112 113
f 111 113 119
f 113 114 119
f 115 99 98
f 116 100 99
f 117 101 100
f 90 115 98
f 115 116 99
f 116 117 100
f 117 118 101
f 90 116 115
f 90 118 116
f 19 118 152
f 116 118 117
f 74 152 90
f 119 97 102
f 120 102 103
f 121 103 104
f 122 104 105
f 123 105 106
f 124 106 107
f 114 97 119
f 119 102 120
f 120 103 121
f 65 119 156
f 119 120 121
f 119 121 123
f 121 104 122
f 122 105 123
f 123 106 124
f 121 122 123
f 119 123 147
f 123 124 145
f 65 156 152
f 20 152 132
f 90 152 118
f 24 184 22
f 23 21 191
f 23 192 24
f 191 21 183
f 23 191 192
f 24 192 184
f 145 107 125
f 146 125 126
f 147 126 127
f 148 127 128
f 149 128 129
f 150 129 130
f 151 130 131
f 124 107 145
f 145 125 146
f 146 126 147
f 123 145 147
f 145 146 147
f 119 147 156
f 147 127 148
f 148 128 149
f 149 129 150
f 150 130 151
f 147 148 149
f 147 149 151
f 149 150 151
f 147 151 156
f 152 183 132
f 153 131 133
f 154 133 134
f 155 134 135
f 156 135 136
f 157 136 137
f 158 137 138
f 159 138 139
f 160 139 140
f 161 140 141
f 162 141 142
f 163 142 143
f 151 131 153
f 153 133 154
f 154 134 155
f 155 135 156
f 156 136 157
f 151 153 154
f 151 154 156
f 154 155 156
f 156 157 158
f 157 137 158
f 158 138 159
f 159 139 160
f 160 140 161
f 161 141 162
f 162 142 163
f 156 158 161
f 158 159 160
f 158 160 161
f 156 161 164
f 161 162 163
f 156 191 152
f 156 164 192
f 156 192 191
f 161 163 164
f 164 144 193
f 164 166 144
f 167 143 165
f 163 143 167
f 163 168 164
f 164 168 166
f 163 167 168
f 168 165 166
f 167 165 168
f 170 169 186
f 189 171 172
f 175 176 196
f 215 182 181
f 169 185 186
f 172 190 189
f 192 185 184
f 152 191 183
f 192 186 185
f 192 195 186
f 193 144 187
f 164 193 192
f 193 194 192
f 198 188 189
f 192 194 197
f 194 188 198
f 197 174 173
f 197 173 195
f 197 176 174
f 198 196 176
f 192 197 195
f 198 189 190
f 198 190 196
f 197 198 176
f 194 198 197
f 194 200 188
f 201 187 199
f 193 187 201
f 193 202 194
f 193 201 202
f 194 202 200
f 202 199 200
f 201 199 202
f 239 178 177
f 239 179 178
f 240 180 179
f 241 181 180
f 239 177 212
f 242 215 181
f 228 214 203
f 229 203 204
f 230 204 205
f 231 205 206
f 246 206 219
f 232 208 207
f 234 207 209
f 235 211 210
f 233 210 208
f 236 213 211
f 237 212 213
f 238 209 214
f 242 216 215
f 239 240 179
f 240 241 180
f 241 242 181
f 243 217 216
f 244 218 217
f 245 223 218
f 247 219 220
f 248 220 221
f 249 221 222
f 526 222 500
f 228 203 229
f 229 204 230
f 230 205 231
f 231 206 246
f 228 230 234
f 228 229 230
f 230 248 234
f 230 231 246
f 232 233 208
f 234 209 238
f 234 232 207
f 233 235 210
f 235 236 211
f 236 237 213
f 237 239 212
f 228 238 214
f 242 243 216
f 243 244 217
f 244 245 218
f 234 236 233
f 234 233 232
f 233 236 235
f 236 239 237
f 234 241 236
f 228 234 238
f 236 241 239
f 239 241 240
f 241 243 242
f 241 245 243
f 234 248 241
f 243 245 244
f 241 253 245
f 246 219 247
f 247 220 248
f 248 221 249
f 249 222 526
f 230 246 248
f 246 247 248
f 248 249 526
f 250 224 223
f 251 225 224
f 252 226 225
f 253 227 226
f 254 507 227
f 245 250 223
f 245 251 250
f 250 251 224
f 251 252 225
f 252 253 226
f 253 254 227
f 245 253 251
f 251 253 252
f 241 539 253
f 253 533 254
f 527 500 501
f 528 501 502
f 529 502 503
f 530 503 504
f 531 504 505
f 532 505 506
f 526 500 527
f 527 501 528
f 528 502 529
f 529 503 530
f 248 526 528
f 526 527 528
f 248 528 532
f 248 581 241
f 528 529 530
f 530 504 531
f 531 505 532
f 532 506 540
f 528 530 532
f 530 531 532
f 248 532 581
f 533 508 507
f 534 509 508
f 535 510 509
f 536 511 510
f 537 512 511
f 538 513 512
f 254 533 507
f 533 534 508
f 534 535 509
f 535 536 510
f 253 535 533
f 533 535 534
f 253 539 535
f 535 537 536
f 536 537 511
f 537 538 512
f 538 539 513
f 535 539 537
f 537 539 538
f 540 506 514
f 541 514 515
f 542 515 516
f 543 516 517
f 544 517 518
f 545 518 519
f 540 514 541
f 541 515 542
f 542 516 543
f 532 540 541
f 532 541 543
f 541 542 543
f 543 517 544
f 544 518 545
f 545 519 580
f 532 543 581
f 543 544 545
f 543 545 581
f 241 581 605
f 539 520 513
f 546 521 520
f 547 522 521
f 548 523 522
f 549 524 523
f 550 525 524
f 539 546 520
f 546 547 521
f 547 548 522
f 241 605 539
f 539 547 546
f 539 549 547
f 547 549 548
f 548 549 523
f 549 550 524
f 550 551 525
f 539 587 549
f 549 551 550
f 549 587 551
f 499 579 651
f 580 519 552
f 581 552 553
f 582 553 554
f 583 554 555
f 584 555 556
f 585 556 557
f 592 557 564
f 580 552 581
f 581 553 582
f 582 554 583
f 545 580 581
f 581 582 583
f 583 555 584
f 584 556 585
f 585 557 592
f 581 583 585
f 583 584 585
f 581 585 595
f 551 558 525
f 586 559 558
f 587 560 559
f 588 561 560
f 589 562 561
f 590 563 562
f 591 575 563
f 551 586 558
f 586 587 559
f 587 588 560
f 551 587 586
f 539 605 587
f 587 589 588
f 588 589 561
f 589 590 562
f 590 591 563
f 587 591 589
f 589 591 590
f 587 605 591
f 593 564 565
f 594 565 566
f 595 566 567
f 596 567 568
f 597 568 569
f 598 569 570
f 599 570 571
f 600 571 572
f 601 572 573
f 622 573 574
f 592 564 593
f 593 565 594
f 594 566 595
f 585 592 593
f 585 593 595
f 593 594 595
f 595 567 596
f 581 595 605
f 596 568 597
f 597 569 598
f 598 570 599
f 599 571 600
f 600 572 601
f 601 573 622
f 595 596 597
f 595 597 599
f 597 598 599
f 599 600 622
f 600 601 622
f 602 576 575
f 603 577 576
f 604 578 577
f 605 579 578
f 605 651 579
f 591 602 575
f 602 603 576
f 603 604 577
f 604 605 578
f 591 603 602
f 591 605 603
f 603 605 604
f 498 606 574
f 619 611 658
f 620 613 612
f 628 617 668
f 623 606 607
f 624 607 608
f 625 608 609
f 625 609 610
f 622 574 606
f 625 610 618
f 629 612 615
f 626 620 612
f 614 621 687
f 622 606 623
f 623 607 624
f 624 608 625
f 622 623 624
f 625 618 619
f 625 619 684
f 626 612 629
f 626 621 620
f 626 687 621
f 629 615 616
f 629 616 627
f 629 627 628
f 629 628 714
f 499 651 646
f 648 647 653
f 649 655 650
f 647 652 653
f 605 652 651
f 595 704 605
f 595 599 704
f 657 653 652
f 605 657 652
f 605 704 657
f 649 654 655
f 657 654 653
f 657 655 654
f 657 656 655
f 657 692 656
f 657 704 692
f 659 660 685
f 614 687 661
f 662 689 663
f 690 664 665
f 666 694 667
f 715 669 670
f 717 671 672
f 673 674 722
f 658 684 619
f 660 686 685
f 688 689 662
f 625 684 685
f 625 685 686
f 599 622 704
f 622 624 704
f 624 625 704
f 625 686 704
f 626 688 687
f 626 705 688
f 626 629 736
f 705 689 688
f 626 706 705
f 626 707 706
f 626 736 707
f 691 690 665
f 666 693 694
f 704 686 690
f 704 690 691
f 704 691 692
f 705 693 689
f 705 694 693
f 705 695 694
f 705 696 695
f 706 697 696
f 705 706 696
f 706 707 697
f 707 698 697
f 708 699 698
f 709 700 699
f 710 701 700
f 711 702 701
f 712 703 702
f 707 708 698
f 708 709 699
f 709 710 700
f 710 711 701
f 711 712 702
f 712 713 703
f 707 709 708
f 707 711 709
f 709 711 710
f 707 744 711
f 711 713 712
f 711 744 713
f 668 714 628
f 670 716 715
f 629 714 715
f 629 715 736
f 736 715 716
f 718 717 672
f 740 674 675
f 741 675 676
f 742 676 677
f 739 722 674
f 750 677 678
f 751 678 679
f 752 679 680
f 753 680 681
f 754 681 682
f 755 682 683
f 736 716 717
f 736 717 718
f 736 718 719
f 737 719 720
f 738 720 721
f 739 721 722
f 739 674 740
f 740 675 741
f 741 676 742
f 736 719 737
f 737 720 738
f 738 721 739
f 736 737 738
f 736 738 740
f 707 736 751
f 707 751 744
f 738 739 740
f 736 740 751
f 740 741 742
f 740 742 751
f 713 723 703
f 743 724 723
f 744 725 724
f 745 726 725
f 746 727 726
f 747 728 727
f 748 729 728
f 749 730 729
f 713 743 723
f 743 744 724
f 744 745 725
f 745 746 726
f 713 744 743
f 744 746 745
f 744 748 746
f 746 747 727
f 747 748 728
f 748 749 729
f 749 756 730
f 746 748 747
f 744 758 748
f 748 756 749
f 742 677 750
f 750 678 751
f 751 679 752
f 752 680 753
f 753 681 754
f 754 682 755
f 742 750 751
f 751 752 753
f 751 753 755
f 753 754 755
f 751 755 964
f 756 731 730
f 757 732 731
f 758 733 732
f 759 734 733
f 760 735 734
f 761 940 735
f 756 757 731
f 757 758 732
f 758 759 733
f 748 758 756
f 756 758 757
f 744 971 758
f 759 760 734
f 758 760 759
f 758 967 760
f 760 761 735
f 761 967 940
f 760 967 761
f 935 933 934
f 961 683 932
f 962 932 933
f 962 933 935
f 755 683 961
f 961 932 962
f 963 935 936
f 964 936 937
f 965 937 938
f 966 938 939
f 962 935 963
f 755 961 962
f 755 962 964
f 962 963 964
f 744 751 1026
f 963 936 964
f 964 937 965
f 965 938 966
f 964 965 966
f 751 964 978
f 964 966 974
f 967 941 940
f 968 942 941
f 969 943 942
f 970 944 943
f 971 945 944
f 972 954 945
f 744 1026 971
f 967 968 941
f 968 969 942
f 969 970 943
f 758 971 967
f 967 969 968
f 967 971 969
f 970 971 944
f 971 972 945
f 972 981 954
f 969 971 970
f 971 981 972
f 973 939 946
f 974 946 947
f 975 947 948
f 976 948 949
f 977 949 950
f 978 950 951
f 979 951 952
f 1009 952 988
f 966 939 973
f 973 946 974
f 974 947 975
f 975 948 976
f 966 973 974
f 964 974 978
f 751 978 1026
f 974 975 976
f 976 949 977
f 977 950 978
f 978 951 979
f 979 952 1009
f 974 976 978
f 976 977 978
f 978 979 1009
f 981 955 954
f 982 956 955
f 983 953 956
f 980 957 953
f 984 958 957
f 985 959 958
f 986 960 959
f 987 996 960
f 983 980 953
f 971 986 983
f 983 984 980
f 981 982 955
f 982 983 956
f 971 983 981
f 981 983 982
f 980 984 957
f 984 985 958
f 985 986 959
f 986 987 960
f 983 986 984
f 971 1026 986
f 984 986 985
f 986 1017 987
f 1010 988 989
f 1011 989 990
f 1012 990 991
f 1013 991 992
f 1014 992 993
f 1015 993 994
f 1016 994 995
f 1009 988 1010
f 1010 989 1011
f 1011 990 1012
f 1012 991 1013
f 1013 992 1014
f 1014 993 1015
f 1015 994 1016
f 978 1009 1011
f 1009 1010 1011
f 978 1011 1015
f 1011 1012 1013
f 978 1015 1026
f 1011 1013 1015
f 1013 1014 1015
f 1016 995 1023
f 1015 1016 1023
f 1017 997 996
f 1018 998 997
f 1019 999 998
f 1020 1000 999
f 1021 1001 1000
f 1022 1005 1001
f 1023 995 1002
f 1024 1002 1003
f 1025 1003 1004
f 1028 1004 1007
f 1027 1008 1006
f 1026 1006 1005
f 1029 1007 1008
f 987 1017 996
f 1018 1019 998
f 1018 997 1017
f 1026 1005 1022
f 1019 1020 999
f 1021 1000 1020
f 1021 1022 1001
f 986 1019 1017
f 986 1026 1019
f 1018 1017 1019
f 1019 1021 1020
f 1026 1021 1019
f 1026 1022 1021
f 1023 1002 1024
f 1024 1003 1025
f 1025 1004 1028
f 1027 1029 1008
f 1026 1027 1006
f 1028 1007 1029
f 1015 1023 1025
f 1015 1025 1026
f 1023 1024 1025
f 1025 1029 1026
f 1026 1029 1027
f 1025 1028 1029

