# https://github.com/mikedh/trimesh
v 0.60000002 0.60000002 0.00000000
v 0.00000000 0.60000002 0.60000002
v 0.60000002 0.00000000 0.60000002
v 0.00000000 0.60000002 4.40000010
v 0.60000002 0.00000000 4.40000010
v 0.60000002 0.60000002 5.00000000
v 0.19999985 29.62500000 4.59999990
v 0.19999985 29.97500038 4.59999990
v 0.19999985 32.22499847 4.59999990
v 0.19999985 32.57500076 4.59999990
v 0.19999985 34.82500076 4.59999990
v 0.60000002 29.62500000 5.00000000
v 0.60000002 29.97500038 5.00000000
v 0.60000002 32.22499847 5.00000000
v 0.60000002 32.57500076 5.00000000
v 0.60000002 34.82500076 5.00000000
v 5.39427471 29.62500000 4.59999990
v 5.40394258 29.69026375 4.59999990
v 5.42258501 29.77043724 4.59999990
v 5.44798183 29.85073853 4.59999990
v 5.48002481 29.93082237 4.59999990
v 5.50144196 29.97500038 4.59999990
v 5.38919592 29.45392036 5.00000000
v 5.43635130 29.23087883 5.00000000
v 5.46558046 29.16098976 5.00000000
v 5.39807701 29.37765884 5.00000000
v 5.41381836 29.30320549 5.00000000
v 5.59205055 28.96887589 5.00000000
v 5.50137997 29.09383583 5.00000000
v 5.54359722 29.02970695 5.00000000
v 5.38721228 29.53166580 5.00000000
v 5.39427471 29.62500000 5.00000000
v 5.39213514 29.61055756 5.00000000
v 5.50144196 29.97500038 5.00000000
v 5.51857662 30.01034546 5.00000000
v 5.56347227 30.08896828 5.00000000
v 5.61451912 30.16635323 5.00000000
v 5.64653349 28.91160393 5.00000000
v 5.70681143 28.85813713 5.00000000
v 5.77262735 28.80870247 5.00000000
v 5.84369946 28.76351357 5.00000000
v 5.91972256 28.72276306 5.00000000
v 5.67149878 30.24217033 5.00000000
v 5.73416758 30.31609344 5.00000000
v 5.80225658 30.38780785 5.00000000
v 5.87547445 30.45700264 5.00000000
v 6.00037146 28.68662453 5.00000000
v 6.08530140 28.65525436 5.00000000
v 6.17414808 28.62878609 5.00000000
v 5.95350790 30.52338600 5.00000000
v 6.03602266 30.58667183 5.00000000
v 5.38919592 29.45392036 5.50000000
v 5.43635130 29.23087883 5.50000000
v 5.46558046 29.16098976 5.50000000
v 5.39807701 29.37765884 5.50000000
v 5.41381836 29.30320549 5.50000000
v 5.59205055 28.96887589 5.50000000
v 5.50137997 29.09383583 5.50000000
v 5.54359722 29.02970695 5.50000000
v 5.38721228 29.53166580 5.50000000
v 5.39213514 29.61055756 5.50000000
v 5.40394258 29.69026375 5.50000000
v 5.42258501 29.77043724 5.50000000
v 5.44798183 29.85073853 5.50000000
v 5.48002481 29.93082237 5.50000000
v 5.51857662 30.01034546 5.50000000
v 5.56347227 30.08896828 5.50000000
v 5.61451912 30.16635323 5.50000000
v 5.64653349 28.91160393 5.50000000
v 5.70681143 28.85813713 5.50000000
v 5.77262735 28.80870247 5.50000000
v 5.84369946 28.76351357 5.50000000
v 5.91972256 28.72276306 5.50000000
v 5.67149878 30.24217033 5.50000000
v 5.73416758 30.31609344 5.50000000
v 5.80225658 30.38780785 5.50000000
v 5.87547445 30.45700264 5.50000000
v 6.00037146 28.68662453 5.50000000
v 6.08530140 28.65525436 5.50000000
v 6.17414808 28.62878609 5.50000000
v 5.95350790 30.52338600 5.50000000
v 6.03602266 30.58667183 5.50000000
v 6.12266493 30.64658737 5.00000000
v 6.21306419 30.70287895 5.00000000
v 6.12266493 30.64658737 5.50000000
v 6.21306419 30.70287895 5.50000000
v 6.26653099 28.60733414 5.00000000
v 6.36205482 28.59098816 5.00000000
v 6.46031046 28.57981873 5.00000000
v 6.56087685 28.57387543 5.00000000
v 6.66332388 28.57318115 5.00000000
v 6.76721287 28.57774162 5.00000000
v 6.87209845 28.58753586 5.00000000
v 6.97753143 28.60252190 5.00000000
v 7.08306122 28.62263680 5.00000000
v 7.18823481 28.64779091 5.00000000
v 7.29260254 28.67788124 5.00000000
v 7.39571714 28.71277618 5.00000000
v 7.49713755 28.75232506 5.00000000
v 6.26653099 28.60733414 5.50000000
v 6.36205482 28.59098816 5.50000000
v 6.46031046 28.57981873 5.50000000
v 6.56087685 28.57387543 5.50000000
v 6.66332388 28.57318115 5.50000000
v 6.76721287 28.57774162 5.50000000
v 6.87209845 28.58753586 5.50000000
v 6.97753143 28.60252190 5.50000000
v 7.08306122 28.62263680 5.50000000
v 7.18823481 28.64779091 5.50000000
v 7.29260254 28.67788124 5.50000000
v 7.39571714 28.71277618 5.50000000
v 7.49713755 28.75232506 5.50000000
v 6.30683374 30.75530434 5.00000000
v 6.40357113 30.80363846 5.00000000
v 6.50286245 30.84767342 5.00000000
v 6.60428286 30.88722420 5.00000000
v 6.70739746 30.92211914 5.00000000
v 6.81176519 30.95220757 5.00000000
v 6.91693878 30.97736359 5.00000000
v 7.02246857 30.99747849 5.00000000
v 7.12790155 31.01246452 5.00000000
v 7.23278713 31.02225685 5.00000000
v 7.33667612 31.02681732 5.00000000
v 7.43912315 31.02612495 5.00000000
v 6.30683374 30.75530434 5.50000000
v 6.40357113 30.80363846 5.50000000
v 6.50286245 30.84767342 5.50000000
v 6.60428286 30.88722420 5.50000000
v 6.70739746 30.92211914 5.50000000
v 6.81176519 30.95220757 5.50000000
v 6.91693878 30.97736359 5.50000000
v 7.02246857 30.99747849 5.50000000
v 7.12790155 31.01246452 5.50000000
v 7.23278713 31.02225685 5.50000000
v 7.33667612 31.02681732 5.50000000
v 7.43912315 31.02612495 5.50000000
v 8.49855804 29.62500000 4.59999990
v 8.51997471 29.66917801 4.59999990
v 8.55201817 29.74926186 4.59999990
v 8.56806564 29.79999924 4.59999990
v 8.61294460 29.79999924 4.59999990
v 8.61294460 29.97500038 4.59999990
v 8.11294460 32.22499847 4.59999990
v 8.11294460 32.57500076 4.59999990
v 8.11294460 34.82500076 4.59999990
v 8.61294460 32.22499847 4.59999990
v 8.61294460 32.57500076 4.59999990
v 8.61294460 34.82500076 4.59999990
v 9.38705540 29.79999924 4.59999990
v 9.38705540 29.97500038 4.59999990
v 9.88705540 29.79999924 4.59999990
v 9.88705540 29.97500038 4.59999990
v 9.38705540 32.22499847 4.59999990
v 9.38705540 32.57500076 4.59999990
v 9.88705540 32.22499847 4.59999990
v 9.88705540 32.57500076 4.59999990
v 9.38705540 34.82500076 4.59999990
v 9.88705540 34.82500076 4.59999990
v 7.59642887 28.79636192 5.00000000
v 7.69316626 28.84469604 5.00000000
v 7.78693581 28.89712143 5.00000000
v 7.87733507 28.95341301 5.00000000
v 7.96397734 29.01332855 5.00000000
v 8.04649258 29.07661438 5.00000000
v 8.12452507 29.14299774 5.00000000
v 8.19774342 29.21219254 5.00000000
v 8.26583290 29.28390694 5.00000000
v 8.32850075 29.35783005 5.00000000
v 8.38548088 29.43364525 5.00000000
v 8.43652821 29.51103210 5.00000000
v 8.48142338 29.58965492 5.00000000
v 8.49855804 29.62500000 5.00000000
v 8.61294460 29.97500038 5.00000000
v 7.59642887 28.79636192 5.50000000
v 7.69316626 28.84469604 5.50000000
v 7.78693581 28.89712143 5.50000000
v 7.87733507 28.95341301 5.50000000
v 7.96397734 29.01332855 5.50000000
v 8.04649258 29.07661438 5.50000000
v 8.12452507 29.14299774 5.50000000
v 8.19774342 29.21219254 5.50000000
v 8.26583290 29.28390694 5.50000000
v 8.32850075 29.35783005 5.50000000
v 8.38548088 29.43364525 5.50000000
v 8.43652821 29.51103210 5.50000000
v 8.48142338 29.58965492 5.50000000
v 8.51997471 29.66917801 5.50000000
v 8.55201817 29.74926186 5.50000000
v 8.56806564 29.79999924 5.50000000
v 8.61294460 29.79999924 5.50000000
v 7.53968954 31.02018166 5.00000000
v 7.63794518 31.00901222 5.00000000
v 7.73346901 30.99266624 5.00000000
v 7.82585192 30.97121429 5.00000000
v 7.91469860 30.94474411 5.00000000
v 7.99962854 30.91337395 5.00000000
v 8.08027744 30.87723732 5.00000000
v 8.11294460 30.85972595 5.00000000
v 8.11294460 32.22499847 5.00000000
v 8.11294460 32.57500076 5.00000000
v 8.11294460 34.82500076 5.00000000
v 8.61294460 32.22499847 5.00000000
v 8.61294460 32.57500076 5.00000000
v 8.61294460 34.82500076 5.00000000
v 7.53968954 31.02018166 5.50000000
v 7.63794518 31.00901222 5.50000000
v 7.73346901 30.99266624 5.50000000
v 7.82585192 30.97121429 5.50000000
v 7.91469860 30.94474411 5.50000000
v 7.99962854 30.91337395 5.50000000
v 8.08027744 30.87723732 5.50000000
v 8.11294460 30.85972595 5.50000000
v 9.38705540 29.97500038 5.00000000
v 9.88705540 29.97500038 5.00000000
v 9.38705540 29.79999924 5.50000000
v 9.88705540 29.79999924 5.50000000
v 9.38705540 32.22499847 5.00000000
v 9.38705540 32.57500076 5.00000000
v 9.88705540 32.22499847 5.00000000
v 9.88705540 32.57500076 5.00000000
v 9.38705540 34.82500076 5.00000000
v 9.88705540 34.82500076 5.00000000
v 0.60000002 69.40000153 0.00000000
v 0.00000000 69.40000153 0.60000002
v 0.60000002 70.00000000 0.60000002
v 0.19999985 35.17499924 4.59999990
v 0.19999985 37.42499924 4.59999990
v 0.19999985 37.77500153 4.59999990
v 0.19999985 40.02500153 4.59999990
v 0.19999985 40.37500000 4.59999990
v 0.60000002 35.17499924 5.00000000
v 0.60000002 37.42499924 5.00000000
v 0.60000002 37.77500153 5.00000000
v 0.60000002 40.02500153 5.00000000
v 0.60000002 40.37500000 5.00000000
v 0.00000000 69.40000153 4.40000010
v 0.60000002 70.00000000 4.40000010
v 0.60000002 69.40000153 5.00000000
v 8.11294460 35.17499924 4.59999990
v 8.11294460 37.42499924 4.59999990
v 8.11294460 37.77500153 4.59999990
v 8.61294460 35.17499924 4.59999990
v 8.61294460 37.42499924 4.59999990
v 8.61294460 37.77500153 4.59999990
v 9.38705540 35.17499924 4.59999990
v 9.88705540 35.17499924 4.59999990
v 9.38705540 37.42499924 4.59999990
v 9.38705540 37.77500153 4.59999990
v 9.88705540 37.42499924 4.59999990
v 9.88705540 37.77500153 4.59999990
v 8.11294460 35.17499924 5.00000000
v 8.11294460 37.42499924 5.00000000
v 8.11294460 37.77500153 5.00000000
v 8.11294460 38.90000153 5.00000000
v 8.61294460 35.17499924 5.00000000
v 8.61294460 37.42499924 5.00000000
v 8.61294460 37.77500153 5.00000000
v 8.61294460 38.90000153 5.00000000
v 8.11294460 38.90000153 5.50000000
v 8.61294460 38.90000153 5.50000000
v 9.38705540 35.17499924 5.00000000
v 9.88705540 35.17499924 5.00000000
v 9.38705540 37.42499924 5.00000000
v 9.38705540 37.77500153 5.00000000
v 9.38705540 38.90000153 5.00000000
v 9.43193436 38.90000153 5.00000000
v 9.44798183 38.95073700 5.00000000
v 9.48002529 39.03082275 5.00000000
v 9.51857662 39.11034393 5.00000000
v 9.56347179 39.18896866 5.00000000
v 9.61451912 39.26635361 5.00000000
v 9.67149925 39.34217072 5.00000000
v 9.88705540 37.42499924 5.00000000
v 9.88705540 37.77500153 5.00000000
v 9.88705540 37.84027481 5.00000000
v 9.91972256 37.82276154 5.00000000
v 9.38705540 38.90000153 5.50000000
v 9.43193436 38.90000153 5.50000000
v 9.44798183 38.95073700 5.50000000
v 9.48002529 39.03082275 5.50000000
v 9.51857662 39.11034393 5.50000000
v 9.56347179 39.18896866 5.50000000
v 9.61451912 39.26635361 5.50000000
v 9.67149925 39.34217072 5.50000000
v 9.88705540 37.84027481 5.50000000
v 9.91972256 37.82276154 5.50000000
v 9.73416710 39.41609573 5.00000000
v 9.80225658 39.48780823 5.00000000
v 9.87547493 39.55700302 5.00000000
v 9.95350742 39.62338638 5.00000000
v 9.73416710 39.41609573 5.50000000
v 9.80225658 39.48780823 5.50000000
v 9.87547493 39.55700302 5.50000000
v 9.95350742 39.62338638 5.50000000
v 6.50000000 56.50000000 4.59999990
v 6.50000000 57.79999924 4.59999990
v 6.50000000 60.34999847 4.59999990
v 6.50000000 56.50000000 5.00000000
v 6.50000000 61.65000153 4.59999990
v 6.50000000 64.19999695 4.59999990
v 6.50000000 65.50000000 4.59999990
v 6.50000000 65.50000000 5.00000000
v 7.80000019 56.50000000 4.59999990
v 7.80000019 57.79999924 4.59999990
v 7.80000019 60.34999847 4.59999990
v 7.80000019 57.79999924 5.00000000
v 7.80000019 60.34999847 5.00000000
v 7.80000019 61.65000153 4.59999990
v 7.80000019 64.19999695 4.59999990
v 7.80000019 65.50000000 4.59999990
v 7.80000019 61.65000153 5.00000000
v 7.80000019 64.19999695 5.00000000
v 19.39999962 0.60000002 0.00000000
v 19.39999962 0.00000000 0.60000002
v 20.00000000 0.60000002 0.60000002
v 19.39999962 0.00000000 4.40000010
v 20.00000000 0.60000002 4.40000010
v 19.39999962 0.60000002 5.00000000
v 19.79999924 29.62500000 4.59999990
v 19.79999924 29.97500038 4.59999990
v 19.79999924 32.22499847 4.59999990
v 19.79999924 32.57500076 4.59999990
v 19.79999924 34.82500076 4.59999990
v 19.39999962 29.62500000 5.00000000
v 19.39999962 29.97500038 5.00000000
v 19.39999962 32.22499847 5.00000000
v 19.39999962 32.57500076 5.00000000
v 19.39999962 34.82500076 5.00000000
v 19.39999962 69.40000153 0.00000000
v 19.39999962 70.00000000 0.60000002
v 20.00000000 69.40000153 0.60000002
v 10.03184223 37.77500153 4.59999990
v 10.08530140 37.75525665 4.59999990
v 10.17414761 37.72878647 4.59999990
v 10.26653099 37.70733261 4.59999990
v 10.36205482 37.69098663 4.59999990
v 10.46030998 37.67981720 4.59999990
v 10.56087685 37.67387390 4.59999990
v 10.66332436 37.67318344 4.59999990
v 10.76721287 37.67774200 4.59999990
v 10.87209797 37.68753815 4.59999990
v 10.97753143 37.70252228 4.59999990
v 11.08306122 37.72263718 4.59999990
v 11.18823433 37.74779129 4.59999990
v 10.71740055 40.02500153 4.59999990
v 10.81176567 40.05220795 4.59999990
v 10.91693878 40.07736206 4.59999990
v 11.02246857 40.09747696 4.59999990
v 11.12790203 40.11246490 4.59999990
v 11.23278713 40.12225723 4.59999990
v 11.28261280 37.77500153 4.59999990
v 11.33667564 40.12681961 4.59999990
v 11.43912315 40.12612534 4.59999990
v 11.53969002 40.12018204 4.59999990
v 11.63794518 40.10901260 4.59999990
v 11.73346901 40.09266663 4.59999990
v 11.82585239 40.07121277 4.59999990
v 11.91469860 40.04474640 4.59999990
v 11.96815109 40.02500153 4.59999990
v 10.00037193 37.78662491 5.00000000
v 10.03184223 37.77500153 5.00000000
v 10.00037193 37.78662491 5.50000000
v 10.08530140 37.75525665 5.50000000
v 10.17414761 37.72878647 5.50000000
v 10.26653099 37.70733261 5.50000000
v 10.36205482 37.69098663 5.50000000
v 10.46030998 37.67981720 5.50000000
v 10.56087685 37.67387390 5.50000000
v 10.66332436 37.67318344 5.50000000
v 10.76721287 37.67774200 5.50000000
v 10.87209797 37.68753815 5.50000000
v 10.97753143 37.70252228 5.50000000
v 11.08306122 37.72263718 5.50000000
v 11.18823433 37.74779129 5.50000000
v 10.03602219 39.68667221 5.00000000
v 10.12266541 39.74658585 5.00000000
v 10.21306419 39.80287933 5.00000000
v 10.30683327 39.85530472 5.00000000
v 10.40357113 39.90363693 5.00000000
v 10.50286198 39.94767380 5.00000000
v 10.60428238 39.98722458 5.00000000
v 10.71740055 40.02500153 5.00000000
v 10.70739746 40.02211761 5.00000000
v 10.03602219 39.68667221 5.50000000
v 10.12266541 39.74658585 5.50000000
v 10.21306419 39.80287933 5.50000000
v 10.30683327 39.85530472 5.50000000
v 10.40357113 39.90363693 5.50000000
v 10.50286198 39.94767380 5.50000000
v 10.60428238 39.98722458 5.50000000
v 10.70739746 40.02211761 5.50000000
v 10.81176567 40.05220795 5.50000000
v 10.91693878 40.07736206 5.50000000
v 11.02246857 40.09747696 5.50000000
v 11.12790203 40.11246490 5.50000000
v 11.23278713 40.12225723 5.50000000
v 11.28261280 37.77500153 5.00000000
v 11.29260254 37.77788162 5.00000000
v 11.39571762 37.81277466 5.00000000
v 11.49713802 37.85232544 5.00000000
v 11.59642887 37.89636230 5.00000000
v 11.69316673 37.94469833 5.00000000
v 11.78693581 37.99711990 5.00000000
v 11.87733459 38.05341339 5.00000000
v 11.96397781 38.11333084 5.00000000
v 12.04649258 38.17661285 5.00000000
v 12.12452507 38.24299622 5.00000000
v 12.19774342 38.31219482 5.00000000
v 12.26583290 38.38390732 5.00000000
v 12.32850075 38.45782852 5.00000000
v 12.38548088 38.53364563 5.00000000
v 12.43652821 38.61103058 5.00000000
v 12.48142338 38.68965530 5.00000000
v 11.29260254 37.77788162 5.50000000
v 11.39571762 37.81277466 5.50000000
v 11.49713802 37.85232544 5.50000000
v 11.59642887 37.89636230 5.50000000
v 11.69316673 37.94469833 5.50000000
v 11.78693581 37.99711990 5.50000000
v 11.87733459 38.05341339 5.50000000
v 11.96397781 38.11333084 5.50000000
v 12.04649258 38.17661285 5.50000000
v 12.12452507 38.24299622 5.50000000
v 12.19774342 38.31219482 5.50000000
v 12.26583290 38.38390732 5.50000000
v 12.32850075 38.45782852 5.50000000
v 12.38548088 38.53364563 5.50000000
v 12.43652821 38.61103058 5.50000000
v 12.48142338 38.68965530 5.50000000
v 11.96815109 40.02500153 5.00000000
v 11.99962807 40.01337433 5.00000000
v 12.08027744 39.97723770 5.00000000
v 12.15630054 39.93648529 5.00000000
v 12.22737217 39.89129639 5.00000000
v 12.29318810 39.84186172 5.00000000
v 12.35346699 39.78839493 5.00000000
v 12.40794945 39.73112488 5.00000000
v 12.49862003 39.60616302 5.00000000
v 12.45640278 39.67029190 5.00000000
v 12.39999962 42.54999924 5.00000000
v 12.39999962 43.04999924 5.00000000
v 11.33667564 40.12681961 5.50000000
v 11.43912315 40.12612534 5.50000000
v 11.53969002 40.12018204 5.50000000
v 11.63794518 40.10901260 5.50000000
v 11.73346901 40.09266663 5.50000000
v 11.82585239 40.07121277 5.50000000
v 11.91469860 40.04474640 5.50000000
v 11.99962807 40.01337433 5.50000000
v 12.08027744 39.97723770 5.50000000
v 12.15630054 39.93648529 5.50000000
v 12.22737217 39.89129639 5.50000000
v 12.29318810 39.84186172 5.50000000
v 12.35346699 39.78839493 5.50000000
v 12.40794945 39.73112488 5.50000000
v 12.49862003 39.60616302 5.50000000
v 12.45640278 39.67029190 5.50000000
v 12.39999962 42.54999924 5.50000000
v 12.39999962 43.04999924 5.50000000
v 12.39999962 45.15000153 5.00000000
v 12.39999962 45.65000153 5.00000000
v 12.39999962 47.75000000 5.00000000
v 12.39999962 45.15000153 5.50000000
v 12.39999962 45.65000153 5.50000000
v 12.39999962 47.75000000 5.50000000
v 12.39999962 48.25000000 5.00000000
v 12.39999962 48.25000000 5.50000000
v 13.38705540 40.02500153 4.59999990
v 13.38705540 40.37500000 4.59999990
v 13.88705540 40.02500153 4.59999990
v 13.88705540 40.37500000 4.59999990
v 12.51997471 38.76917648 5.00000000
v 12.55201817 38.84926224 5.00000000
v 12.57741547 38.92956161 5.00000000
v 12.59605694 39.00973511 5.00000000
v 12.60786533 39.08944321 5.00000000
v 12.61278725 39.16833496 5.00000000
v 12.61080360 39.24607849 5.00000000
v 12.60192299 39.32234192 5.00000000
v 13.38705540 38.90000153 5.00000000
v 12.51997471 38.76917648 5.50000000
v 12.55201817 38.84926224 5.50000000
v 12.57741547 38.92956161 5.50000000
v 12.59605694 39.00973511 5.50000000
v 12.60786533 39.08944321 5.50000000
v 12.61278725 39.16833496 5.50000000
v 12.61080360 39.24607849 5.50000000
v 12.60192299 39.32234192 5.50000000
v 13.38705540 38.90000153 5.50000000
v 12.53441906 39.53900909 5.00000000
v 12.56364822 39.46912003 5.00000000
v 12.58618164 39.39679337 5.00000000
v 13.38705540 40.02500153 5.00000000
v 13.38705540 40.37500000 5.00000000
v 13.38705540 42.54999924 5.00000000
v 13.38705540 43.04999924 5.00000000
v 12.53441906 39.53900909 5.50000000
v 12.56364822 39.46912003 5.50000000
v 12.58618164 39.39679337 5.50000000
v 13.38705540 42.54999924 5.50000000
v 13.38705540 43.04999924 5.50000000
v 13.88705540 38.90000153 5.00000000
v 13.88705540 38.90000153 5.50000000
v 13.88705540 40.02500153 5.00000000
v 13.88705540 40.37500000 5.00000000
v 13.88705540 42.54999924 5.00000000
v 13.88705540 43.04999924 5.00000000
v 13.88705540 42.54999924 5.50000000
v 13.88705540 43.04999924 5.50000000
v 13.38705540 45.15000153 5.00000000
v 13.38705540 45.65000153 5.00000000
v 13.38705540 47.75000000 5.00000000
v 13.38705540 45.15000153 5.50000000
v 13.38705540 45.65000153 5.50000000
v 13.38705540 47.75000000 5.50000000
v 13.54122066 48.25000000 5.00000000
v 13.56347179 48.28896713 5.00000000
v 13.61451912 48.36635590 5.00000000
v 13.67149925 48.44216919 5.00000000
v 13.73416710 48.51609421 5.00000000
v 13.54122066 48.25000000 5.50000000
v 13.56347179 48.28896713 5.50000000
v 13.61451912 48.36635590 5.50000000
v 13.67149925 48.44216919 5.50000000
v 13.73416710 48.51609421 5.50000000
v 13.88705540 45.15000153 5.00000000
v 13.88705540 45.65000153 5.00000000
v 13.88705540 46.94027328 5.00000000
v 13.91972256 46.92276382 5.00000000
v 14.00037193 46.88662338 5.00000000
v 14.08530140 46.85525513 5.00000000
v 14.17414761 46.82878494 5.00000000
v 14.26653099 46.80733490 5.00000000
v 14.36205482 46.79098892 5.00000000
v 14.46030998 46.77981949 5.00000000
v 14.56087685 46.77387619 5.00000000
v 14.66332436 46.77318192 5.00000000
v 14.76721287 46.77774048 5.00000000
v 14.87209797 46.78753662 5.00000000
v 14.97753143 46.80252075 5.00000000
v 13.88705540 45.15000153 5.50000000
v 13.88705540 45.65000153 5.50000000
v 13.88705540 46.94027328 5.50000000
v 13.91972256 46.92276382 5.50000000
v 14.00037193 46.88662338 5.50000000
v 14.08530140 46.85525513 5.50000000
v 14.17414761 46.82878494 5.50000000
v 14.26653099 46.80733490 5.50000000
v 14.36205482 46.79098892 5.50000000
v 14.46030998 46.77981949 5.50000000
v 14.56087685 46.77387619 5.50000000
v 14.66332436 46.77318192 5.50000000
v 14.76721287 46.77774048 5.50000000
v 14.87209797 46.78753662 5.50000000
v 14.97753143 46.80252075 5.50000000
v 13.80225658 48.58780670 5.00000000
v 13.87547493 48.65700150 5.00000000
v 13.95350742 48.72338486 5.00000000
v 14.03602219 48.78667068 5.00000000
v 14.12266541 48.84658813 5.00000000
v 14.21306419 48.90287781 5.00000000
v 14.30683327 48.95530319 5.00000000
v 14.40357113 49.00363922 5.00000000
v 14.50286198 49.04767609 5.00000000
v 14.60428238 49.08722305 5.00000000
v 14.70739746 49.12211990 5.00000000
v 14.81176567 49.15220642 5.00000000
v 14.91693878 49.17736435 5.00000000
v 13.80225658 48.58780670 5.50000000
v 13.87547493 48.65700150 5.50000000
v 13.95350742 48.72338486 5.50000000
v 14.03602219 48.78667068 5.50000000
v 14.12266541 48.84658813 5.50000000
v 14.21306419 48.90287781 5.50000000
v 14.30683327 48.95530319 5.50000000
v 14.40357113 49.00363922 5.50000000
v 14.50286198 49.04767609 5.50000000
v 14.60428238 49.08722305 5.50000000
v 14.70739746 49.12211990 5.50000000
v 14.81176567 49.15220642 5.50000000
v 14.91693878 49.17736435 5.50000000
v 13.50000000 56.50000000 4.59999990
v 12.80000019 60.34999847 4.59999990
v 13.50000000 57.79999924 4.59999990
v 13.50000000 56.50000000 5.00000000
v 12.80000019 60.34999847 5.00000000
v 13.50000000 57.79999924 5.00000000
v 12.80000019 61.65000153 4.59999990
v 13.50000000 64.19999695 4.59999990
v 13.50000000 65.50000000 4.59999990
v 12.80000019 61.65000153 5.00000000
v 13.50000000 64.19999695 5.00000000
v 13.50000000 65.50000000 5.00000000
v 15.08306122 46.82263565 5.00000000
v 15.18823433 46.84779358 5.00000000
v 15.29260254 46.87788010 5.00000000
v 15.39571762 46.91277695 5.00000000
v 15.49713802 46.95232391 5.00000000
v 15.59642887 46.99636078 5.00000000
v 15.69316673 47.04469681 5.00000000
v 15.78693581 47.09712219 5.00000000
v 15.87733459 47.15341187 5.00000000
v 15.96397781 47.21332932 5.00000000
v 16.04649162 47.27661514 5.00000000
v 16.12452507 47.34299850 5.00000000
v 16.19774437 47.41219330 5.00000000
v 15.08306122 46.82263565 5.50000000
v 15.18823433 46.84779358 5.50000000
v 15.29260254 46.87788010 5.50000000
v 15.39571762 46.91277695 5.50000000
v 15.49713802 46.95232391 5.50000000
v 15.59642887 46.99636078 5.50000000
v 15.69316673 47.04469681 5.50000000
v 15.78693581 47.09712219 5.50000000
v 15.87733459 47.15341187 5.50000000
v 15.96397781 47.21332932 5.50000000
v 16.04649162 47.27661514 5.50000000
v 16.12452507 47.34299850 5.50000000
v 16.19774437 47.41219330 5.50000000
v 15.02246857 49.19747925 5.00000000
v 15.12790203 49.21246338 5.00000000
v 15.23278713 49.22225952 5.00000000
v 15.33667564 49.22681808 5.00000000
v 15.43912315 49.22612381 5.00000000
v 15.53969002 49.22018051 5.00000000
v 15.63794518 49.20901108 5.00000000
v 15.73346901 49.19266510 5.00000000
v 15.82585239 49.17121506 5.00000000
v 15.91469860 49.14474487 5.00000000
v 15.99962807 49.11337662 5.00000000
v 16.08027840 49.07723618 5.00000000
v 16.15630150 49.03648758 5.00000000
v 16.22737312 48.99129486 5.00000000
v 15.02246857 49.19747925 5.50000000
v 15.12790203 49.21246338 5.50000000
v 15.23278713 49.22225952 5.50000000
v 15.33667564 49.22681808 5.50000000
v 15.43912315 49.22612381 5.50000000
v 15.53969002 49.22018051 5.50000000
v 15.63794518 49.20901108 5.50000000
v 15.73346901 49.19266510 5.50000000
v 15.82585239 49.17121506 5.50000000
v 15.91469860 49.14474487 5.50000000
v 15.99962807 49.11337662 5.50000000
v 16.08027840 49.07723618 5.50000000
v 16.15630150 49.03648758 5.50000000
v 16.22737312 48.99129486 5.50000000
v 16.26583290 47.48390579 5.00000000
v 16.32850075 47.55783081 5.00000000
v 16.38548088 47.63364410 5.00000000
v 16.43652725 47.71103287 5.00000000
v 16.45878029 47.75000000 5.00000000
v 16.26583290 47.48390579 5.50000000
v 16.32850075 47.55783081 5.50000000
v 16.38548088 47.63364410 5.50000000
v 16.43652725 47.71103287 5.50000000
v 16.45878029 47.75000000 5.50000000
v 16.29318810 48.94186401 5.00000000
v 16.35346603 48.88839340 5.00000000
v 16.53442001 48.63901138 5.00000000
v 16.40794945 48.83112335 5.00000000
v 16.45640373 48.77029419 5.00000000
v 16.49861908 48.70616531 5.00000000
v 16.61164284 48.25000000 5.00000000
v 16.61278725 48.26833344 5.00000000
v 16.61080360 48.34608078 5.00000000
v 16.58618164 48.49679565 5.00000000
v 16.56364822 48.56912231 5.00000000
v 16.60192299 48.42234039 5.00000000
v 16.29318810 48.94186401 5.50000000
v 16.35346603 48.88839340 5.50000000
v 16.53442001 48.63901138 5.50000000
v 16.40794945 48.83112335 5.50000000
v 16.45640373 48.77029419 5.50000000
v 16.49861908 48.70616531 5.50000000
v 16.61164284 48.25000000 5.50000000
v 16.61278725 48.26833344 5.50000000
v 16.61080360 48.34608078 5.50000000
v 16.58618164 48.49679565 5.50000000
v 16.56364822 48.56912231 5.50000000
v 16.60192299 48.42234039 5.50000000
v 19.79999924 35.17499924 4.59999990
v 19.79999924 37.42499924 4.59999990
v 19.79999924 37.77500153 4.59999990
v 19.79999924 40.02500153 4.59999990
v 19.79999924 40.37500000 4.59999990
v 17.60000038 42.54999924 5.00000000
v 17.60000038 43.04999924 5.00000000
v 17.60000038 42.54999924 5.50000000
v 17.60000038 43.04999924 5.50000000
v 19.39999962 35.17499924 5.00000000
v 19.39999962 37.42499924 5.00000000
v 19.39999962 37.77500153 5.00000000
v 19.39999962 40.02500153 5.00000000
v 19.39999962 40.37500000 5.00000000
v 17.60000038 45.15000153 5.00000000
v 17.60000038 45.65000153 5.00000000
v 17.60000038 47.75000000 5.00000000
v 17.60000038 45.15000153 5.50000000
v 17.60000038 45.65000153 5.50000000
v 17.60000038 47.75000000 5.50000000
v 17.60000038 48.25000000 5.00000000
v 17.60000038 48.25000000 5.50000000
v 19.39999962 70.00000000 4.40000010
v 20.00000000 69.40000153 4.40000010
v 19.39999962 69.40000153 5.00000000
f 1 3 2
f 2 3 5
f 1 2 223
f 2 4 224
f 1 314 3
f 1 223 313
f 2 5 4
f 4 5 6
f 4 6 7
f 6 12 7
f 4 7 236
f 8 13 9
f 10 15 11
f 7 17 8
f 7 12 17
f 13 14 9
f 11 15 16
f 8 34 13
f 13 34 14
f 8 17 18
f 8 19 20
f 8 18 19
f 8 20 21
f 8 21 22
f 8 22 34
f 9 144 10
f 9 14 143
f 11 16 145
f 10 200 15
f 15 201 16
f 12 32 17
f 12 24 27
f 12 27 26
f 12 26 23
f 12 25 24
f 12 31 33
f 12 23 31
f 12 33 32
f 14 34 35
f 14 35 36
f 14 36 37
f 14 37 43
f 14 43 44
f 14 44 45
f 14 45 46
f 14 46 50
f 14 50 51
f 14 51 83
f 14 83 84
f 14 84 113
f 14 113 114
f 14 114 115
f 14 115 116
f 14 116 117
f 14 117 118
f 14 118 119
f 14 119 120
f 14 120 121
f 14 121 122
f 3 316 5
f 5 316 6
f 6 318 12
f 9 143 144
f 10 144 200
f 11 145 239
f 14 199 143
f 14 122 123
f 14 123 124
f 14 124 191
f 14 191 192
f 14 192 193
f 14 193 199
f 16 201 145
f 15 200 201
f 12 318 25
f 141 150 142
f 150 141 149
f 142 150 213
f 146 154 147
f 146 153 154
f 146 202 153
f 147 154 218
f 148 157 245
f 148 204 157
f 199 193 194
f 199 194 195
f 199 195 196
f 199 196 197
f 199 197 198
f 142 213 173
f 147 218 203
f 202 217 153
f 173 217 202
f 173 213 217
f 204 221 157
f 221 204 203
f 218 221 203
f 2 224 223
f 223 224 225
f 224 237 225
f 223 225 330
f 225 237 330
f 4 236 224
f 226 231 227
f 228 233 229
f 7 8 236
f 227 231 232
f 233 234 229
f 8 9 236
f 9 10 236
f 10 11 236
f 11 226 236
f 226 227 236
f 227 228 236
f 228 229 236
f 229 230 236
f 230 235 236
f 11 239 226
f 227 241 228
f 227 232 240
f 229 345 230
f 229 234 345
f 230 469 235
f 226 251 231
f 231 252 232
f 228 253 233
f 233 254 234
f 224 236 237
f 235 238 236
f 236 238 237
f 235 298 238
f 238 298 302
f 226 239 251
f 227 240 241
f 228 241 253
f 230 345 346
f 230 346 347
f 230 347 348
f 230 348 349
f 231 251 252
f 232 252 240
f 233 253 254
f 234 254 258
f 234 258 265
f 234 265 266
f 234 266 267
f 234 267 268
f 234 268 269
f 234 269 270
f 234 270 271
f 234 271 272
f 234 272 287
f 234 287 288
f 234 288 289
f 234 289 290
f 234 290 375
f 234 382 345
f 234 375 376
f 234 376 377
f 234 377 378
f 234 378 379
f 234 379 380
f 234 380 381
f 234 381 383
f 234 383 382
f 235 585 298
f 230 349 350
f 230 350 352
f 230 352 353
f 230 353 469
f 148 245 242
f 261 242 245
f 243 248 244
f 247 248 243
f 243 256 247
f 264 244 248
f 249 332 250
f 361 250 332
f 235 440 441
f 235 441 460
f 235 460 461
f 242 261 255
f 255 263 256
f 261 263 255
f 264 257 244
f 247 256 263
f 264 258 257
f 264 265 258
f 250 361 274
f 274 276 275
f 274 360 276
f 274 361 360
f 235 469 494
f 235 494 495
f 235 495 440
f 235 461 462
f 235 462 466
f 235 466 585
f 295 298 303
f 295 296 302
f 296 297 302
f 295 303 296
f 296 303 297
f 299 303 304
f 297 303 299
f 299 304 305
f 299 305 308
f 295 302 298
f 297 299 302
f 299 300 302
f 300 301 302
f 299 308 309
f 299 310 300
f 300 310 301
f 299 309 310
f 237 238 704
f 238 302 593
f 304 306 305
f 298 582 303
f 303 584 304
f 305 588 308
f 305 307 583
f 305 306 307
f 304 587 306
f 306 587 307
f 308 311 309
f 301 310 593
f 309 590 310
f 309 312 589
f 309 311 312
f 301 593 302
f 308 591 311
f 311 591 312
f 1 313 314
f 3 314 316
f 313 315 314
f 314 315 316
f 313 329 315
f 6 316 318
f 318 29 25
f 318 30 29
f 318 28 30
f 318 38 28
f 318 39 38
f 318 40 39
f 318 41 40
f 318 42 41
f 318 47 42
f 318 48 47
f 318 49 48
f 318 87 49
f 318 88 87
f 318 89 88
f 318 90 89
f 318 91 90
f 318 92 91
f 318 93 92
f 318 94 93
f 318 95 94
f 318 96 95
f 318 97 96
f 318 98 97
f 318 99 98
f 318 159 99
f 318 160 159
f 318 161 160
f 318 162 161
f 318 163 162
f 318 164 163
f 318 165 164
f 318 166 165
f 318 167 166
f 318 168 167
f 318 169 168
f 318 170 169
f 318 171 170
f 318 172 171
f 319 138 137
f 319 139 138
f 319 140 139
f 319 141 140
f 319 137 172
f 319 149 141
f 319 151 149
f 320 152 151
f 322 156 155
f 321 155 219
f 323 158 222
f 325 214 152
f 327 220 156
f 326 219 214
f 328 222 220
f 315 317 316
f 316 317 318
f 317 324 318
f 315 705 317
f 318 324 172
f 319 320 151
f 320 325 152
f 321 322 155
f 322 327 156
f 323 682 158
f 319 172 324
f 325 326 214
f 327 328 220
f 321 219 326
f 323 222 328
f 317 319 324
f 317 705 319
f 320 321 326
f 322 323 328
f 320 326 325
f 322 328 327
f 223 329 313
f 223 330 329
f 315 329 331
f 315 331 705
f 329 330 331
f 330 705 331
f 249 333 332
f 249 334 333
f 249 335 334
f 249 336 335
f 249 337 336
f 249 338 337
f 469 353 354
f 469 355 356
f 469 354 355
f 469 356 357
f 469 357 358
f 469 358 359
f 359 430 468
f 430 431 493
f 493 431 432
f 682 246 158
f 683 338 249
f 683 339 338
f 683 340 339
f 683 249 273
f 359 468 469
f 683 341 340
f 683 342 341
f 683 343 342
f 683 344 343
f 683 351 344
f 691 262 246
f 692 273 262
f 475 480 476
f 476 480 477
f 478 480 479
f 477 480 478
f 479 480 492
f 468 430 493
f 493 434 435
f 493 432 433
f 493 433 434
f 493 435 436
f 493 436 437
f 493 437 439
f 493 439 438
f 493 438 490
f 493 491 492
f 493 490 491
f 493 492 480
f 693 397 351
f 693 398 397
f 693 399 398
f 693 400 399
f 693 401 400
f 693 402 401
f 693 403 402
f 693 404 403
f 693 405 404
f 693 406 405
f 693 407 406
f 693 408 407
f 693 409 408
f 693 410 409
f 693 411 410
f 693 412 411
f 693 413 412
f 693 472 413
f 693 473 472
f 693 474 473
f 693 475 474
f 460 441 510
f 496 510 441
f 462 461 512
f 511 512 461
f 585 466 516
f 585 516 517
f 585 517 518
f 585 518 519
f 585 519 520
f 585 520 556
f 585 556 557
f 527 529 528
f 527 531 530
f 527 532 531
f 527 530 529
f 527 533 532
f 527 534 533
f 527 535 534
f 585 557 558
f 585 558 559
f 585 559 560
f 585 560 561
f 585 561 562
f 585 562 563
f 585 563 564
f 585 564 565
f 585 565 566
f 585 566 567
f 585 567 568
f 585 568 620
f 585 620 621
f 585 621 622
f 585 622 623
f 585 623 624
f 585 624 625
f 585 625 626
f 585 626 627
f 237 704 330
f 305 583 588
f 303 582 584
f 304 584 587
f 298 585 582
f 307 586 583
f 307 587 586
f 308 588 591
f 309 589 590
f 310 590 593
f 238 593 706
f 312 591 592
f 312 592 589
f 583 586 588
f 582 585 584
f 586 591 588
f 585 587 584
f 585 702 587
f 586 587 702
f 586 702 591
f 591 702 592
f 589 592 590
f 238 706 704
f 590 592 593
f 686 471 470
f 685 470 504
f 682 691 246
f 684 693 351
f 683 684 351
f 693 480 475
f 693 502 480
f 691 692 262
f 505 687 506
f 695 505 471
f 694 504 502
f 683 273 692
f 695 687 505
f 507 688 526
f 527 697 535
f 535 697 536
f 536 697 537
f 537 697 538
f 538 697 539
f 539 697 540
f 540 697 594
f 594 697 595
f 595 697 596
f 596 697 597
f 597 697 598
f 598 697 599
f 585 627 628
f 585 628 629
f 585 629 630
f 585 630 631
f 585 631 632
f 585 632 633
f 585 661 662
f 585 662 663
f 585 660 668
f 585 663 660
f 585 633 658
f 585 658 659
f 585 659 661
f 585 668 702
f 688 696 526
f 599 697 600
f 600 697 601
f 601 697 602
f 602 697 603
f 603 697 604
f 604 697 605
f 697 606 605
f 697 648 606
f 697 649 648
f 697 650 649
f 697 651 650
f 697 652 651
f 697 698 652
f 702 665 664
f 702 667 669
f 702 666 665
f 702 669 666
f 702 668 667
f 685 686 470
f 686 695 471
f 682 683 692
f 684 685 694
f 319 705 320
f 693 694 502
f 685 504 694
f 695 688 687
f 695 696 688
f 695 697 696
f 682 692 691
f 684 694 693
f 320 705 321
f 321 705 322
f 322 705 323
f 323 705 682
f 682 705 683
f 683 705 684
f 684 705 685
f 685 705 686
f 695 698 697
f 695 702 698
f 686 706 695
f 330 704 705
f 592 702 706
f 592 706 593
f 686 705 706
f 695 706 702
f 704 706 705
f 34 22 21
f 62 18 17
f 62 19 18
f 63 20 19
f 64 21 20
f 62 17 32
f 65 34 21
f 52 31 23
f 53 27 24
f 54 24 25
f 56 26 27
f 55 23 26
f 58 25 29
f 59 29 30
f 57 30 28
f 60 33 31
f 61 32 33
f 62 63 19
f 63 64 20
f 65 35 34
f 66 36 35
f 64 65 21
f 67 37 36
f 52 60 31
f 54 53 24
f 55 26 56
f 56 27 53
f 55 52 23
f 57 28 69
f 54 25 58
f 59 58 29
f 59 30 57
f 54 58 53
f 55 53 60
f 55 56 53
f 55 60 52
f 57 60 53
f 58 57 53
f 59 57 58
f 60 61 33
f 61 62 32
f 65 66 35
f 66 67 36
f 67 68 37
f 60 62 61
f 60 64 62
f 62 64 63
f 60 68 64
f 64 66 65
f 64 68 66
f 66 68 67
f 69 28 38
f 70 38 39
f 71 39 40
f 72 40 41
f 73 41 42
f 68 43 37
f 74 44 43
f 75 45 44
f 76 46 45
f 77 50 46
f 78 42 47
f 79 47 48
f 80 48 49
f 100 49 87
f 81 51 50
f 82 83 51
f 70 69 38
f 70 39 71
f 71 40 72
f 72 41 73
f 70 57 69
f 70 72 57
f 70 71 72
f 57 80 60
f 57 72 80
f 72 73 78
f 68 74 43
f 74 75 44
f 75 76 45
f 76 77 46
f 77 81 50
f 68 75 74
f 60 86 68
f 68 77 75
f 75 77 76
f 68 86 77
f 73 42 78
f 78 47 79
f 79 48 80
f 80 49 100
f 72 78 80
f 78 79 80
f 81 82 51
f 77 82 81
f 77 86 82
f 85 84 83
f 86 113 84
f 82 85 83
f 85 86 84
f 82 86 85
f 101 87 88
f 102 88 89
f 103 89 90
f 104 90 91
f 105 91 92
f 106 92 93
f 100 87 101
f 101 88 102
f 102 89 103
f 80 100 101
f 80 101 103
f 101 102 103
f 60 80 176
f 60 208 86
f 103 90 104
f 104 91 105
f 105 92 106
f 80 103 107
f 103 104 105
f 103 105 107
f 105 106 107
f 107 93 94
f 108 94 95
f 109 95 96
f 110 96 97
f 111 97 98
f 112 98 99
f 106 93 107
f 107 94 108
f 108 95 109
f 80 107 176
f 107 108 109
f 107 109 111
f 60 176 208
f 109 96 110
f 110 97 111
f 111 98 112
f 109 110 111
f 107 111 176
f 111 112 174
f 125 114 113
f 126 115 114
f 127 116 115
f 128 117 116
f 129 118 117
f 130 119 118
f 86 125 113
f 125 126 114
f 126 127 115
f 86 126 125
f 86 128 126
f 126 128 127
f 127 128 116
f 128 129 117
f 129 130 118
f 86 132 128
f 128 130 129
f 128 132 130
f 131 120 119
f 132 121 120
f 133 122 121
f 134 123 122
f 135 124 123
f 136 191 124
f 130 131 119
f 131 132 120
f 132 133 121
f 130 132 131
f 86 208 132
f 132 134 133
f 133 134 122
f 134 135 123
f 135 136 124
f 132 136 134
f 134 136 135
f 132 208 136
f 137 138 172
f 142 173 141
f 143 200 144
f 202 146 147
f 148 242 204
f 213 150 149
f 152 214 151
f 153 218 154
f 219 155 156
f 222 158 246
f 188 138 139
f 189 139 140
f 190 140 141
f 187 172 138
f 190 141 173
f 174 99 159
f 175 159 160
f 176 160 161
f 177 161 162
f 178 162 163
f 179 163 164
f 180 164 165
f 112 99 174
f 174 159 175
f 175 160 176
f 111 174 176
f 174 175 176
f 176 161 177
f 177 162 178
f 178 163 179
f 179 164 180
f 176 177 178
f 176 178 180
f 178 179 180
f 176 180 184
f 176 184 208
f 181 165 166
f 182 166 167
f 183 167 168
f 184 168 169
f 185 169 170
f 186 170 171
f 187 171 172
f 187 138 188
f 188 139 189
f 189 140 190
f 180 165 181
f 181 166 182
f 182 167 183
f 183 168 184
f 184 169 185
f 180 181 182
f 180 182 184
f 182 183 184
f 184 185 186
f 184 189 208
f 208 189 212
f 185 170 186
f 186 171 187
f 184 186 189
f 186 187 188
f 186 188 189
f 143 199 200
f 145 201 251
f 202 147 203
f 205 192 191
f 206 193 192
f 207 194 193
f 208 195 194
f 209 196 195
f 210 197 196
f 211 198 197
f 212 199 198
f 212 200 199
f 212 201 200
f 136 205 191
f 205 206 192
f 206 207 193
f 207 208 194
f 136 206 205
f 136 208 206
f 206 208 207
f 208 209 195
f 209 210 196
f 210 211 197
f 211 212 198
f 208 210 209
f 208 212 210
f 210 212 211
f 212 251 201
f 212 252 251
f 190 173 202
f 190 202 203
f 212 189 260
f 190 203 260
f 189 190 260
f 216 149 151
f 215 213 149
f 216 151 214
f 215 149 216
f 153 217 218
f 219 156 220
f 221 261 157
f 215 217 213
f 215 218 217
f 215 221 218
f 216 214 219
f 216 219 220
f 216 220 222
f 215 216 285
f 215 277 221
f 216 222 285
f 251 239 145
f 240 253 241
f 256 243 244
f 157 261 245
f 247 264 248
f 273 249 250
f 240 252 253
f 204 242 255
f 256 244 257
f 212 259 252
f 259 253 252
f 259 254 253
f 260 203 204
f 260 204 255
f 260 255 256
f 212 260 259
f 259 258 254
f 260 256 257
f 260 257 258
f 259 260 258
f 222 246 262
f 247 263 264
f 273 250 274
f 277 261 221
f 277 263 261
f 285 222 262
f 285 262 273
f 215 278 277
f 215 285 278
f 277 264 263
f 277 265 264
f 277 266 265
f 278 267 266
f 279 268 267
f 280 269 268
f 281 270 269
f 282 271 270
f 283 272 271
f 285 273 274
f 285 274 275
f 286 275 276
f 362 276 360
f 284 287 272
f 277 278 266
f 278 279 267
f 279 280 268
f 280 281 269
f 281 282 270
f 282 283 271
f 283 284 272
f 278 280 279
f 278 281 280
f 278 283 281
f 281 283 282
f 283 291 284
f 285 275 286
f 286 276 362
f 285 364 278
f 285 286 362
f 364 283 278
f 291 288 287
f 292 289 288
f 293 290 289
f 294 375 290
f 284 291 287
f 291 292 288
f 292 293 289
f 293 294 290
f 283 293 291
f 291 293 292
f 283 386 293
f 293 384 294
f 361 332 333
f 359 358 430
f 364 333 334
f 365 334 335
f 366 335 336
f 367 336 337
f 368 337 338
f 363 361 333
f 369 338 339
f 370 339 340
f 371 340 341
f 372 341 342
f 373 342 343
f 374 343 344
f 374 344 351
f 363 360 361
f 363 333 364
f 364 334 365
f 365 335 366
f 366 336 367
f 367 337 368
f 368 338 369
f 362 360 363
f 285 362 364
f 362 363 364
f 364 365 366
f 364 386 283
f 364 366 368
f 366 367 368
f 364 368 372
f 369 339 370
f 370 340 371
f 371 341 372
f 372 342 373
f 373 343 374
f 368 369 370
f 368 370 372
f 370 371 372
f 372 373 374
f 364 372 419
f 372 374 415
f 364 486 386
f 392 346 345
f 392 347 346
f 393 348 347
f 394 349 348
f 395 350 349
f 392 345 382
f 384 376 375
f 385 377 376
f 386 378 377
f 387 379 378
f 388 380 379
f 389 381 380
f 294 384 375
f 384 385 376
f 385 386 377
f 386 387 378
f 293 386 384
f 384 386 385
f 386 388 387
f 387 388 379
f 388 389 380
f 389 390 381
f 386 390 388
f 388 390 389
f 386 394 390
f 390 383 381
f 391 382 383
f 392 393 347
f 393 394 348
f 394 395 349
f 395 396 350
f 390 391 383
f 391 392 382
f 390 392 391
f 390 394 392
f 392 394 393
f 386 447 394
f 394 396 395
f 394 443 396
f 374 351 397
f 414 397 398
f 415 398 399
f 416 399 400
f 417 400 401
f 418 401 402
f 419 402 403
f 420 403 404
f 374 397 414
f 414 398 415
f 415 399 416
f 416 400 417
f 374 414 415
f 372 415 419
f 415 416 417
f 364 419 486
f 417 401 418
f 418 402 419
f 419 403 420
f 415 417 419
f 417 418 419
f 421 404 405
f 422 405 406
f 423 406 407
f 424 407 408
f 425 408 409
f 426 409 410
f 427 410 411
f 428 411 412
f 429 412 413
f 420 404 421
f 421 405 422
f 422 406 423
f 423 407 424
f 419 420 421
f 419 421 423
f 421 422 423
f 419 423 427
f 424 408 425
f 425 409 426
f 426 410 427
f 427 411 428
f 428 412 429
f 429 413 481
f 423 424 425
f 423 425 427
f 419 427 486
f 425 426 427
f 427 428 429
f 427 429 482
f 396 352 350
f 442 353 352
f 443 354 353
f 444 355 354
f 445 356 355
f 446 357 356
f 447 358 357
f 448 430 358
f 396 442 352
f 442 443 353
f 443 444 354
f 444 445 355
f 445 446 356
f 446 447 357
f 396 443 442
f 386 486 447
f 394 447 443
f 443 445 444
f 443 447 445
f 445 447 446
f 448 431 430
f 449 432 431
f 447 448 358
f 451 434 433
f 450 433 432
f 452 435 434
f 453 436 435
f 454 437 436
f 455 439 437
f 457 438 439
f 448 449 431
f 449 450 432
f 450 451 433
f 447 449 448
f 447 451 449
f 447 455 451
f 449 451 450
f 451 452 434
f 452 453 435
f 453 454 436
f 454 455 437
f 457 456 438
f 455 457 439
f 451 453 452
f 447 486 455
f 451 455 453
f 453 455 454
f 498 456 455
f 455 456 457
f 458 441 440
f 458 459 441
f 463 461 460
f 463 464 461
f 465 466 462
f 465 467 466
f 468 494 469
f 504 470 471
f 481 413 472
f 482 472 473
f 483 473 474
f 484 474 475
f 485 475 476
f 486 476 477
f 487 477 478
f 499 479 492
f 488 478 479
f 481 472 482
f 482 473 483
f 483 474 484
f 484 475 485
f 485 476 486
f 486 477 487
f 488 479 499
f 487 478 488
f 429 481 482
f 427 482 486
f 482 483 484
f 482 484 486
f 484 485 486
f 486 488 498
f 486 487 488
f 489 493 480
f 503 480 502
f 489 480 503
f 468 493 494
f 456 490 438
f 498 492 491
f 497 491 490
f 497 490 456
f 497 498 491
f 499 492 498
f 486 498 455
f 497 456 498
f 488 499 498
f 459 496 441
f 500 440 495
f 458 440 500
f 458 501 459
f 459 501 496
f 458 500 501
f 489 494 493
f 489 500 494
f 489 503 500
f 503 508 500
f 500 495 494
f 500 508 501
f 501 508 513
f 508 509 513
f 503 502 504
f 504 471 505
f 503 504 505
f 503 505 508
f 508 505 506
f 464 511 461
f 513 460 510
f 463 460 513
f 463 514 464
f 464 514 511
f 463 513 514
f 515 462 512
f 465 462 515
f 465 521 467
f 465 515 521
f 501 510 496
f 501 513 510
f 509 521 513
f 514 512 511
f 514 515 512
f 513 521 514
f 514 521 515
f 467 516 466
f 521 517 516
f 522 518 517
f 523 519 518
f 524 520 519
f 467 521 516
f 521 522 517
f 522 523 518
f 523 524 519
f 524 525 520
f 521 524 522
f 522 524 523
f 521 571 524
f 524 569 525
f 541 507 526
f 509 507 541
f 509 541 521
f 543 527 528
f 544 528 529
f 545 529 530
f 546 530 531
f 547 531 532
f 548 532 533
f 549 533 534
f 542 527 543
f 543 528 544
f 544 529 545
f 545 530 546
f 541 542 521
f 542 543 521
f 543 544 545
f 543 545 547
f 521 543 579
f 546 531 547
f 547 532 548
f 548 533 549
f 545 546 547
f 543 547 551
f 547 548 549
f 547 549 551
f 550 534 535
f 551 535 536
f 552 536 537
f 553 537 538
f 554 538 539
f 555 539 540
f 549 534 550
f 550 535 551
f 551 536 552
f 549 550 551
f 543 551 610
f 551 552 553
f 552 537 553
f 553 538 554
f 554 539 555
f 551 553 555
f 553 554 555
f 551 555 610
f 525 556 520
f 569 557 556
f 570 558 557
f 571 559 558
f 572 560 559
f 573 561 560
f 574 562 561
f 575 563 562
f 525 569 556
f 569 570 557
f 570 571 558
f 571 572 559
f 524 571 569
f 569 571 570
f 571 573 572
f 572 573 560
f 573 574 561
f 574 575 562
f 575 576 563
f 521 579 571
f 571 575 573
f 573 575 574
f 571 579 575
f 576 564 563
f 577 565 564
f 578 566 565
f 579 567 566
f 580 568 567
f 581 620 568
f 576 577 564
f 577 578 565
f 578 579 566
f 575 577 576
f 575 579 577
f 577 579 578
f 579 580 567
f 580 581 568
f 581 634 620
f 579 581 580
f 579 635 581
f 509 688 507
f 508 506 689
f 508 690 509
f 689 506 687
f 509 690 688
f 508 689 690
f 542 697 527
f 541 526 699
f 541 700 542
f 607 540 594
f 608 594 595
f 609 595 596
f 610 596 597
f 611 597 598
f 612 598 599
f 555 540 607
f 607 594 608
f 608 595 609
f 555 607 608
f 555 608 610
f 608 609 610
f 543 657 579
f 543 610 657
f 609 596 610
f 610 597 611
f 611 598 612
f 610 611 612
f 610 612 614
f 613 599 600
f 614 600 601
f 615 601 602
f 616 602 603
f 617 603 604
f 618 604 605
f 619 605 606
f 653 606 648
f 612 599 613
f 613 600 614
f 614 601 615
f 615 602 616
f 612 613 614
f 610 614 618
f 614 615 616
f 616 603 617
f 617 604 618
f 618 605 619
f 619 606 653
f 614 616 618
f 610 618 657
f 616 617 618
f 618 619 653
f 634 621 620
f 635 622 621
f 636 623 622
f 639 626 625
f 637 624 623
f 638 625 624
f 634 635 621
f 581 635 634
f 579 639 635
f 635 636 622
f 636 637 623
f 635 637 636
f 639 640 626
f 579 647 639
f 637 638 624
f 638 639 625
f 635 639 637
f 637 639 638
f 640 627 626
f 641 628 627
f 642 629 628
f 643 630 629
f 644 631 630
f 645 632 631
f 646 633 632
f 647 658 633
f 640 641 627
f 641 642 628
f 642 643 629
f 639 641 640
f 639 643 641
f 579 657 647
f 641 643 642
f 639 647 643
f 643 644 630
f 644 645 631
f 646 632 645
f 646 647 633
f 643 645 644
f 643 647 645
f 646 645 647
f 699 526 696
f 542 700 697
f 541 699 700
f 654 648 649
f 655 649 650
f 656 650 651
f 657 651 652
f 657 652 698
f 653 648 654
f 654 649 655
f 655 650 656
f 656 651 657
f 618 653 655
f 653 654 655
f 618 655 657
f 655 656 657
f 657 703 676
f 657 698 701
f 657 701 703
f 670 659 658
f 671 661 659
f 672 668 660
f 673 662 661
f 674 663 662
f 675 660 663
f 677 664 665
f 678 665 666
f 681 666 669
f 679 669 667
f 680 667 668
f 647 670 658
f 671 659 670
f 671 673 661
f 675 672 660
f 680 668 672
f 673 674 662
f 675 663 674
f 647 671 670
f 647 674 671
f 671 674 673
f 657 679 647
f 657 676 679
f 679 672 674
f 679 680 672
f 647 679 674
f 675 674 672
f 676 664 677
f 677 665 678
f 678 666 681
f 679 667 680
f 679 681 669
f 676 677 678
f 676 678 679
f 678 681 679
f 676 702 664
f 676 703 702
f 690 687 688
f 689 687 690
f 700 696 697
f 699 696 700
f 703 698 702
f 701 698 703

