# https://github.com/mikedh/trimesh
v 0.60000002 0.60000002 0.00000000
v 0.00000000 0.60000002 0.60000002
v 0.60000002 0.00000000 0.60000002
v 0.00000000 0.60000002 4.40000010
v 0.60000002 0.00000000 4.40000010
v 0.60000002 0.60000002 5.00000000
v 0.19999985 29.62500000 4.59999990
v 0.19999985 29.97500038 4.59999990
v 0.19999985 32.22499847 4.59999990
v 0.19999985 32.57500076 4.59999990
v 0.19999985 34.82500076 4.59999990
v 0.60000002 29.62500000 5.00000000
v 0.60000002 29.97500038 5.00000000
v 0.60000002 32.22499847 5.00000000
v 0.60000002 32.57500076 5.00000000
v 0.60000002 34.82500076 5.00000000
v 4.40000010 26.95000076 5.00000000
v 4.40000010 27.45000076 5.00000000
v 4.40000010 26.95000076 5.50000000
v 4.40000010 27.45000076 5.50000000
v 5.77262735 26.20870399 5.00000000
v 5.84369946 26.16351318 5.00000000
v 5.91972256 26.12276268 5.00000000
v 6.00037146 26.08662605 5.00000000
v 6.08530140 26.05525589 5.00000000
v 6.17414808 26.02878571 5.00000000
v 5.77262735 26.20870399 5.50000000
v 5.84369946 26.16351318 5.50000000
v 5.91972256 26.12276268 5.50000000
v 6.00037146 26.08662605 5.50000000
v 6.08530140 26.05525589 5.50000000
v 6.17414808 26.02878571 5.50000000
v 6.26653099 26.00733376 5.00000000
v 6.36205482 25.99098778 5.00000000
v 6.46031046 25.97981834 5.00000000
v 6.56087685 25.97387505 5.00000000
v 6.66332388 25.97318268 5.00000000
v 6.76721287 25.97774315 5.00000000
v 6.87209845 25.98753548 5.00000000
v 6.97753143 26.00252151 5.00000000
v 7.08306122 26.02263641 5.00000000
v 7.18823481 26.04779243 5.00000000
v 7.29260254 26.07788086 5.00000000
v 7.39571714 26.11277580 5.00000000
v 7.49713755 26.15232658 5.00000000
v 6.26653099 26.00733376 5.50000000
v 6.36205482 25.99098778 5.50000000
v 6.46031046 25.97981834 5.50000000
v 6.56087685 25.97387505 5.50000000
v 6.66332388 25.97318268 5.50000000
v 6.76721287 25.97774315 5.50000000
v 6.87209845 25.98753548 5.50000000
v 6.97753143 26.00252151 5.50000000
v 7.08306122 26.02263641 5.50000000
v 7.18823481 26.04779243 5.50000000
v 7.29260254 26.07788086 5.50000000
v 7.39571714 26.11277580 5.50000000
v 7.49713755 26.15232658 5.50000000
v 5.39807701 26.77765846 5.00000000
v 5.41381836 26.70320511 5.00000000
v 5.43635130 26.63087845 5.00000000
v 5.46558046 26.56098938 5.00000000
v 5.38919592 26.85392189 5.00000000
v 5.38721228 26.93166542 5.00000000
v 5.38835621 26.95000076 5.00000000
v 5.50137997 26.49383545 5.00000000
v 5.54359722 26.42970657 5.00000000
v 5.59205055 26.36887550 5.00000000
v 5.54122019 27.45000076 5.00000000
v 5.56347227 27.48896790 5.00000000
v 5.61451912 27.56635475 5.00000000
v 5.64653349 26.31160545 5.00000000
v 5.70681143 26.25813675 5.00000000
v 5.67149878 27.64216995 5.00000000
v 5.73416758 27.71609306 5.00000000
v 5.80225658 27.78780746 5.00000000
v 5.87547445 27.85700226 5.00000000
v 5.95350790 27.92338562 5.00000000
v 6.03602266 27.98667145 5.00000000
v 6.12266493 28.04658699 5.00000000
v 6.21306419 28.10287857 5.00000000
v 5.39807701 26.77765846 5.50000000
v 5.41381836 26.70320511 5.50000000
v 5.43635130 26.63087845 5.50000000
v 5.46558046 26.56098938 5.50000000
v 5.38919592 26.85392189 5.50000000
v 5.38721228 26.93166542 5.50000000
v 5.38835621 26.95000076 5.50000000
v 5.50137997 26.49383545 5.50000000
v 5.54359722 26.42970657 5.50000000
v 5.59205055 26.36887550 5.50000000
v 5.54122019 27.45000076 5.50000000
v 5.56347227 27.48896790 5.50000000
v 5.61451912 27.56635475 5.50000000
v 5.64653349 26.31160545 5.50000000
v 5.70681143 26.25813675 5.50000000
v 5.67149878 27.64216995 5.50000000
v 5.73416758 27.71609306 5.50000000
v 5.80225658 27.78780746 5.50000000
v 5.87547445 27.85700226 5.50000000
v 5.95350790 27.92338562 5.50000000
v 6.03602266 27.98667145 5.50000000
v 6.12266493 28.04658699 5.50000000
v 6.21306419 28.10287857 5.50000000
v 6.30683374 28.15530396 5.00000000
v 6.40357113 28.20363808 5.00000000
v 6.50286245 28.24767494 5.00000000
v 6.60428286 28.28722382 5.00000000
v 6.70739746 28.32211876 5.00000000
v 6.81176519 28.35220909 5.00000000
v 6.91693878 28.37736320 5.00000000
v 7.02246857 28.39747810 5.00000000
v 7.12790155 28.41246414 5.00000000
v 7.23278713 28.42225838 5.00000000
v 7.33667612 28.42681885 5.00000000
v 7.43912315 28.42612457 5.00000000
v 6.30683374 28.15530396 5.50000000
v 6.40357113 28.20363808 5.50000000
v 6.50286245 28.24767494 5.50000000
v 6.60428286 28.28722382 5.50000000
v 6.70739746 28.32211876 5.50000000
v 6.81176519 28.35220909 5.50000000
v 6.91693878 28.37736320 5.50000000
v 7.02246857 28.39747810 5.50000000
v 7.12790155 28.41246414 5.50000000
v 7.23278713 28.42225838 5.50000000
v 7.33667612 28.42681885 5.50000000
v 7.43912315 28.42612457 5.50000000
v 7.59642887 26.19636154 5.00000000
v 7.69316626 26.24469566 5.00000000
v 7.59642887 26.19636154 5.50000000
v 7.69316626 26.24469566 5.50000000
v 8.11294460 29.62500000 4.59999990
v 8.11294460 29.97500038 4.59999990
v 8.61294460 29.62500000 4.59999990
v 8.61294460 29.97500038 4.59999990
v 8.11294460 32.22499847 4.59999990
v 8.11294460 32.57500076 4.59999990
v 8.11294460 34.82500076 4.59999990
v 8.61294460 32.22499847 4.59999990
v 8.61294460 32.57500076 4.59999990
v 8.61294460 34.82500076 4.59999990
v 9.38705540 29.62500000 4.59999990
v 9.38705540 29.97500038 4.59999990
v 9.88705540 29.62500000 4.59999990
v 9.88705540 29.97500038 4.59999990
v 9.38705540 32.22499847 4.59999990
v 9.38705540 32.57500076 4.59999990
v 9.88705540 32.22499847 4.59999990
v 9.88705540 32.57500076 4.59999990
v 9.38705540 34.82500076 4.59999990
v 9.88705540 34.82500076 4.59999990
v 7.78693581 26.29712105 5.00000000
v 7.53968954 28.42018127 5.00000000
v 7.63794518 28.40901184 5.00000000
v 7.73346901 28.39266586 5.00000000
v 7.87733507 26.35341263 5.00000000
v 7.96397734 26.41332817 5.00000000
v 8.04649258 26.47661400 5.00000000
v 8.12452507 26.54299736 5.00000000
v 7.82585192 28.37121391 5.00000000
v 7.91469860 28.34474564 5.00000000
v 7.99962854 28.31337547 5.00000000
v 8.08027744 28.27723694 5.00000000
v 8.11294460 28.25972557 5.00000000
v 8.11294460 29.62500000 5.00000000
v 8.11294460 29.97500038 5.00000000
v 8.19774342 26.61219215 5.00000000
v 8.26583290 26.68390656 5.00000000
v 8.32850075 26.75782967 5.00000000
v 8.38548088 26.83364677 5.00000000
v 8.43652821 26.91103172 5.00000000
v 8.45877934 26.95000076 5.00000000
v 8.61294460 27.45000076 5.00000000
v 8.61294460 29.62500000 5.00000000
v 8.61294460 29.97500038 5.00000000
v 7.78693581 26.29712105 5.50000000
v 7.53968954 28.42018127 5.50000000
v 7.63794518 28.40901184 5.50000000
v 7.73346901 28.39266586 5.50000000
v 7.87733507 26.35341263 5.50000000
v 7.96397734 26.41332817 5.50000000
v 8.04649258 26.47661400 5.50000000
v 8.12452507 26.54299736 5.50000000
v 7.82585192 28.37121391 5.50000000
v 7.91469860 28.34474564 5.50000000
v 7.99962854 28.31337547 5.50000000
v 8.08027744 28.27723694 5.50000000
v 8.11294460 28.25972557 5.50000000
v 8.19774342 26.61219215 5.50000000
v 8.26583290 26.68390656 5.50000000
v 8.32850075 26.75782967 5.50000000
v 8.38548088 26.83364677 5.50000000
v 8.43652821 26.91103172 5.50000000
v 8.45877934 26.95000076 5.50000000
v 8.61294460 27.45000076 5.50000000
v 8.11294460 32.22499847 5.00000000
v 8.11294460 32.57500076 5.00000000
v 8.11294460 34.82500076 5.00000000
v 8.61294460 32.22499847 5.00000000
v 8.61294460 32.57500076 5.00000000
v 8.61294460 34.82500076 5.00000000
v 9.60000038 26.95000076 5.00000000
v 9.38705540 27.79999924 5.00000000
v 9.60000038 27.45000076 5.00000000
v 9.88705540 27.79999924 5.00000000
v 9.38705540 29.62500000 5.00000000
v 9.38705540 29.97500038 5.00000000
v 9.88705540 29.62500000 5.00000000
v 9.88705540 29.97500038 5.00000000
v 9.60000038 26.95000076 5.50000000
v 9.38705540 27.79999924 5.50000000
v 9.60000038 27.45000076 5.50000000
v 9.88705540 27.79999924 5.50000000
v 9.38705540 32.22499847 5.00000000
v 9.38705540 32.57500076 5.00000000
v 9.88705540 32.22499847 5.00000000
v 9.88705540 32.57500076 5.00000000
v 9.38705540 34.82500076 5.00000000
v 9.88705540 34.82500076 5.00000000
v 0.60000002 69.40000153 0.00000000
v 0.00000000 69.40000153 0.60000002
v 0.60000002 70.00000000 0.60000002
v 0.19999985 35.17499924 4.59999990
v 0.19999985 37.42499924 4.59999990
v 0.19999985 37.77500153 4.59999990
v 0.19999985 40.02500153 4.59999990
v 0.19999985 40.37500000 4.59999990
v 0.60000002 35.17499924 5.00000000
v 0.60000002 37.42499924 5.00000000
v 0.60000002 37.77500153 5.00000000
v 0.60000002 40.02500153 5.00000000
v 0.60000002 40.37500000 5.00000000
v 0.00000000 69.40000153 4.40000010
v 0.60000002 70.00000000 4.40000010
v 0.60000002 69.40000153 5.00000000
v 8.11294460 35.17499924 4.59999990
v 8.61294460 35.17499924 4.59999990
v 9.38705540 35.17499924 4.59999990
v 9.88705540 35.17499924 4.59999990
v 8.11294460 35.17499924 5.00000000
v 8.11294460 36.29999924 5.00000000
v 8.61294460 35.17499924 5.00000000
v 8.61294460 36.29999924 5.00000000
v 8.11294460 36.29999924 5.50000000
v 8.61294460 36.29999924 5.50000000
v 9.38705540 35.17499924 5.00000000
v 9.38705540 36.29999924 5.00000000
v 9.43193436 36.29999924 5.00000000
v 9.44798183 36.35073853 5.00000000
v 9.48002529 36.43082047 5.00000000
v 9.51857662 36.51034546 5.00000000
v 9.56347179 36.58897018 5.00000000
v 9.61451912 36.66635513 5.00000000
v 9.67149925 36.74217224 5.00000000
v 9.88705540 35.17499924 5.00000000
v 9.88705540 35.24027252 5.00000000
v 9.91972256 35.22276306 5.00000000
v 9.73416710 36.81609344 5.00000000
v 9.80225658 36.88780594 5.00000000
v 9.87547493 36.95700455 5.00000000
v 9.95350742 37.02338409 5.00000000
v 9.38705540 36.29999924 5.50000000
v 9.43193436 36.29999924 5.50000000
v 9.44798183 36.35073853 5.50000000
v 9.48002529 36.43082047 5.50000000
v 9.51857662 36.51034546 5.50000000
v 9.56347179 36.58897018 5.50000000
v 9.61451912 36.66635513 5.50000000
v 9.67149925 36.74217224 5.50000000
v 9.88705540 35.24027252 5.50000000
v 9.91972256 35.22276306 5.50000000
v 9.73416710 36.81609344 5.50000000
v 9.80225658 36.88780594 5.50000000
v 9.87547493 36.95700455 5.50000000
v 9.95350742 37.02338409 5.50000000
v 6.55657482 60.19416809 4.59999990
v 6.52890301 60.42287827 4.59999990
v 6.51041412 60.65311432 4.59999990
v 6.50115776 60.88426971 4.59999990
v 6.50115776 61.11573029 4.59999990
v 6.69383764 59.52322388 4.59999990
v 6.63915157 59.74374771 4.59999990
v 6.59335709 59.96759415 4.59999990
v 6.75727081 59.30660629 4.59999990
v 6.82928276 59.09447098 4.59999990
v 6.90968323 58.88737869 4.59999990
v 6.99826002 58.68587112 4.59999990
v 7.09477758 58.49048996 4.59999990
v 7.42932558 57.94615555 4.59999990
v 7.19898176 58.30174637 4.59999990
v 7.31059599 58.12014008 4.59999990
v 6.55657482 60.19416809 5.00000000
v 6.52890301 60.42287827 5.00000000
v 6.51041412 60.65311432 5.00000000
v 6.50115776 60.88426971 5.00000000
v 6.50115776 61.11573029 5.00000000
v 6.69383764 59.52322388 5.00000000
v 6.63915157 59.74374771 5.00000000
v 6.59335709 59.96759415 5.00000000
v 6.75727081 59.30660629 5.00000000
v 6.82928276 59.09447098 5.00000000
v 6.90968323 58.88737869 5.00000000
v 6.99826002 58.68587112 5.00000000
v 7.09477758 58.49048996 5.00000000
v 7.42932558 57.94615555 5.00000000
v 7.19898176 58.30174637 5.00000000
v 7.31059599 58.12014008 5.00000000
v 6.51041412 61.34688568 4.59999990
v 6.52890301 61.57712173 4.59999990
v 6.55657482 61.80583191 4.59999990
v 6.59335709 62.03240585 4.59999990
v 6.63915157 62.25625229 4.59999990
v 6.69383764 62.47677612 4.59999990
v 6.75727081 62.69339371 4.59999990
v 6.82928276 62.90552902 4.59999990
v 6.90968323 63.11262131 4.59999990
v 6.99826002 63.31412888 4.59999990
v 7.09477758 63.50951004 4.59999990
v 7.19898176 63.69825363 4.59999990
v 7.31059599 63.87985992 4.59999990
v 7.42932558 64.05384064 4.59999990
v 6.51041412 61.34688568 5.00000000
v 6.52890301 61.57712173 5.00000000
v 6.55657482 61.80583191 5.00000000
v 6.59335709 62.03240585 5.00000000
v 6.63915157 62.25625229 5.00000000
v 6.69383764 62.47677612 5.00000000
v 6.75727081 62.69339371 5.00000000
v 6.82928276 62.90552902 5.00000000
v 6.90968323 63.11262131 5.00000000
v 6.99826002 63.31412888 5.00000000
v 7.09477758 63.50951004 5.00000000
v 7.19898176 63.69825363 5.00000000
v 7.31059599 63.87985992 5.00000000
v 7.42932558 64.05384064 5.00000000
v 7.55485630 57.78025055 4.59999990
v 7.68685579 57.62285995 4.59999990
v 7.82497501 57.47440720 4.59999990
v 7.96884871 57.33528137 4.59999990
v 8.11809540 57.20584869 4.59999990
v 7.80654621 60.75332642 4.59999990
v 7.80072784 60.91770172 4.59999990
v 7.80072784 61.08229828 4.59999990
v 7.80654621 61.24667358 4.59999990
v 7.88746691 60.10666275 4.59999990
v 7.96171284 59.79581070 4.59999990
v 7.92184067 59.94984818 4.59999990
v 8.05751514 59.49769211 4.59999990
v 8.11319160 59.35439682 4.59999990
v 8.00697803 59.64495850 4.59999990
v 7.83556128 60.42696381 4.59999990
v 7.85868168 60.26584244 4.59999990
v 7.81816769 60.58960342 4.59999990
v 8.27232170 57.08645630 4.59999990
v 8.43111897 56.97741699 4.59999990
v 8.30951786 58.95209885 4.59999990
v 8.38414764 58.82837677 4.59999990
v 8.59406567 56.87902069 4.59999990
v 8.46305275 58.71039963 4.59999990
v 8.54602337 58.59848022 4.59999990
v 8.63284111 58.49291229 4.59999990
v 8.72327614 58.39397812 4.59999990
v 8.17386055 59.21545792 4.59999990
v 8.23935986 59.08124161 4.59999990
v 8.76073265 56.79152679 4.59999990
v 8.93067837 56.71516418 4.59999990
v 9.10345364 56.65013885 4.59999990
v 9.27859974 56.59662247 4.59999990
v 9.45565510 56.55475616 4.59999990
v 9.63415051 56.52465057 4.59999990
v 9.81361389 56.50638580 4.59999990
v 9.99356937 56.50000763 4.59999990
v 8.81708908 58.30193710 4.59999990
v 8.91403103 58.21703720 4.59999990
v 9.01384640 58.13949585 4.59999990
v 9.32785511 57.95300674 4.59999990
v 9.11627007 58.06952667 4.59999990
v 9.22103214 58.00730515 4.59999990
v 9.43645668 57.90676498 4.59999990
v 9.54654884 57.86870956 4.59999990
v 9.65784073 57.83893967 4.59999990
v 9.77003765 57.81753159 4.59999990
v 9.88284302 57.80454254 4.59999990
v 9.99595833 57.80000687 4.59999990
v 7.55485630 57.78025055 5.00000000
v 7.68685579 57.62285995 5.00000000
v 7.82497501 57.47440720 5.00000000
v 7.96884871 57.33528137 5.00000000
v 8.11809540 57.20584869 5.00000000
v 7.80654621 60.75332642 5.00000000
v 7.80072784 60.91770172 5.00000000
v 7.80072784 61.08229828 5.00000000
v 7.80654621 61.24667358 5.00000000
v 7.88746691 60.10666275 5.00000000
v 7.96171284 59.79581070 5.00000000
v 7.92184067 59.94984818 5.00000000
v 8.05751514 59.49769211 5.00000000
v 8.11319160 59.35439682 5.00000000
v 8.00697803 59.64495850 5.00000000
v 7.83556128 60.42696381 5.00000000
v 7.85868168 60.26584244 5.00000000
v 7.81816769 60.58960342 5.00000000
v 8.27232170 57.08645630 5.00000000
v 8.43111897 56.97741699 5.00000000
v 8.30951786 58.95209885 5.00000000
v 8.38414764 58.82837677 5.00000000
v 8.59406567 56.87902069 5.00000000
v 8.46305275 58.71039963 5.00000000
v 8.54602337 58.59848022 5.00000000
v 8.63284111 58.49291229 5.00000000
v 8.72327614 58.39397812 5.00000000
v 8.17386055 59.21545792 5.00000000
v 8.23935986 59.08124161 5.00000000
v 8.76073265 56.79152679 5.00000000
v 8.93067837 56.71516418 5.00000000
v 9.10345364 56.65013885 5.00000000
v 9.27859974 56.59662247 5.00000000
v 9.45565510 56.55475616 5.00000000
v 9.63415051 56.52465057 5.00000000
v 9.81361389 56.50638580 5.00000000
v 9.99356937 56.50000763 5.00000000
v 8.81708908 58.30193710 5.00000000
v 8.91403103 58.21703720 5.00000000
v 9.01384640 58.13949585 5.00000000
v 9.32785511 57.95300674 5.00000000
v 9.11627007 58.06952667 5.00000000
v 9.22103214 58.00730515 5.00000000
v 9.43645668 57.90676498 5.00000000
v 9.54654884 57.86870956 5.00000000
v 9.65784073 57.83893967 5.00000000
v 9.77003765 57.81753159 5.00000000
v 9.88284302 57.80454254 5.00000000
v 9.99595833 57.80000687 5.00000000
v 7.81816769 61.41039658 4.59999990
v 7.83556128 61.57303619 4.59999990
v 7.85868168 61.73415756 4.59999990
v 7.88746691 61.89333725 4.59999990
v 7.92184067 62.05015182 4.59999990
v 7.96171284 62.20418930 4.59999990
v 8.00697803 62.35504150 4.59999990
v 8.05751514 62.50230789 4.59999990
v 8.11319160 62.64560318 4.59999990
v 7.55485630 64.21974945 4.59999990
v 7.68685579 64.37713623 4.59999990
v 7.82497501 64.52559662 4.59999990
v 7.96884871 64.66471863 4.59999990
v 8.11809540 64.79415131 4.59999990
v 8.17386055 62.78454208 4.59999990
v 8.23935986 62.91875839 4.59999990
v 8.30951786 63.04790115 4.59999990
v 8.38414764 63.17162323 4.59999990
v 8.46305275 63.28960037 4.59999990
v 8.54602337 63.40151978 4.59999990
v 8.27232170 64.91354370 4.59999990
v 8.43111897 65.02258301 4.59999990
v 8.63284111 63.50708771 4.59999990
v 8.72327614 63.60602188 4.59999990
v 8.59406567 65.12097931 4.59999990
v 8.81708908 63.69806290 4.59999990
v 8.91403103 63.78296280 4.59999990
v 9.01384640 63.86050415 4.59999990
v 8.76073265 65.20847321 4.59999990
v 8.93067837 65.28483582 4.59999990
v 9.11627007 63.93047333 4.59999990
v 9.22103214 63.99269485 4.59999990
v 9.32785511 64.04699707 4.59999990
v 9.10345364 65.34986115 4.59999990
v 9.27859974 65.40337372 4.59999990
v 9.43645668 64.09323120 4.59999990
v 9.54654884 64.13128662 4.59999990
v 9.65784073 64.16106415 4.59999990
v 9.45565510 65.44524384 4.59999990
v 9.63415051 65.47534943 4.59999990
v 9.77003765 64.18247223 4.59999990
v 9.88284302 64.19545746 4.59999990
v 9.99595833 64.19999695 4.59999990
v 9.81361389 65.49361420 4.59999990
v 9.99356937 65.49999237 4.59999990
v 7.81816769 61.41039658 5.00000000
v 7.83556128 61.57303619 5.00000000
v 7.85868168 61.73415756 5.00000000
v 7.88746691 61.89333725 5.00000000
v 7.92184067 62.05015182 5.00000000
v 7.96171284 62.20418930 5.00000000
v 8.00697803 62.35504150 5.00000000
v 8.05751514 62.50230789 5.00000000
v 8.11319160 62.64560318 5.00000000
v 7.55485630 64.21974945 5.00000000
v 7.68685579 64.37713623 5.00000000
v 7.82497501 64.52559662 5.00000000
v 7.96884871 64.66471863 5.00000000
v 8.11809540 64.79415131 5.00000000
v 8.17386055 62.78454208 5.00000000
v 8.23935986 62.91875839 5.00000000
v 8.30951786 63.04790115 5.00000000
v 8.38414764 63.17162323 5.00000000
v 8.46305275 63.28960037 5.00000000
v 8.54602337 63.40151978 5.00000000
v 8.27232170 64.91354370 5.00000000
v 8.43111897 65.02258301 5.00000000
v 8.63284111 63.50708771 5.00000000
v 8.72327614 63.60602188 5.00000000
v 8.59406567 65.12097931 5.00000000
v 8.81708908 63.69806290 5.00000000
v 8.91403103 63.78296280 5.00000000
v 9.01384640 63.86050415 5.00000000
v 8.76073265 65.20847321 5.00000000
v 8.93067837 65.28483582 5.00000000
v 9.11627007 63.93047333 5.00000000
v 9.22103214 63.99269485 5.00000000
v 9.32785511 64.04699707 5.00000000
v 9.10345364 65.34986115 5.00000000
v 9.27859974 65.40337372 5.00000000
v 9.43645668 64.09323120 5.00000000
v 9.54654884 64.13128662 5.00000000
v 9.65784073 64.16106415 5.00000000
v 9.45565510 65.44524384 5.00000000
v 9.63415051 65.47534943 5.00000000
v 9.77003765 64.18247223 5.00000000
v 9.88284302 64.19545746 5.00000000
v 9.99595833 64.19999695 5.00000000
v 9.81361389 65.49361420 5.00000000
v 9.99356937 65.49999237 5.00000000
v 19.39999962 0.60000002 0.00000000
v 19.39999962 0.00000000 0.60000002
v 20.00000000 0.60000002 0.60000002
v 19.39999962 0.00000000 4.40000010
v 20.00000000 0.60000002 4.40000010
v 19.39999962 0.60000002 5.00000000
v 19.79999924 29.62500000 4.59999990
v 19.79999924 29.97500038 4.59999990
v 19.79999924 32.22499847 4.59999990
v 19.79999924 32.57500076 4.59999990
v 19.79999924 34.82500076 4.59999990
v 19.39999962 29.62500000 5.00000000
v 19.39999962 29.97500038 5.00000000
v 19.39999962 32.22499847 5.00000000
v 19.39999962 32.57500076 5.00000000
v 19.39999962 34.82500076 5.00000000
v 19.39999962 69.40000153 0.00000000
v 19.39999962 70.00000000 0.60000002
v 20.00000000 69.40000153 0.60000002
v 10.03184891 35.17499924 4.59999990
v 10.08530140 35.15525436 4.59999990
v 10.17414761 35.12878799 4.59999990
v 10.26653099 35.10733414 4.59999990
v 10.36205482 35.09098816 4.59999990
v 10.46030998 35.07981873 4.59999990
v 10.56087685 35.07387543 4.59999990
v 10.66332436 35.07318115 4.59999990
v 10.76721287 35.07774353 4.59999990
v 10.87209797 35.08753586 4.59999990
v 10.97753143 35.10252380 4.59999990
v 11.08306122 35.12263489 4.59999990
v 11.18823433 35.14779282 4.59999990
v 10.71738720 37.42499924 4.59999990
v 10.81176567 37.45220947 4.59999990
v 10.91693878 37.47736359 4.59999990
v 11.02246857 37.49747849 4.59999990
v 11.12790203 37.51246262 4.59999990
v 11.23278713 37.52225876 4.59999990
v 11.28261185 35.17499924 4.59999990
v 11.33667564 37.52681732 4.59999990
v 11.43912315 37.52612305 4.59999990
v 11.53969002 37.52017975 4.59999990
v 11.63794518 37.50901413 4.59999990
v 11.73346901 37.49266815 4.59999990
v 11.82585239 37.47121429 4.59999990
v 11.91469860 37.44474411 4.59999990
v 11.96815777 37.42499924 4.59999990
v 10.00037193 35.18662643 5.00000000
v 10.03184891 35.17499924 5.00000000
v 10.03602219 37.08666992 5.00000000
v 10.12266541 37.14658737 5.00000000
v 10.21306419 37.20287704 5.00000000
v 10.30683327 37.25530243 5.00000000
v 10.40357113 37.30363846 5.00000000
v 10.50286198 37.34767532 5.00000000
v 10.60428238 37.38722610 5.00000000
v 10.71738720 37.42499924 5.00000000
v 10.70739746 37.42211914 5.00000000
v 10.00037193 35.18662643 5.50000000
v 10.08530140 35.15525436 5.50000000
v 10.17414761 35.12878799 5.50000000
v 10.26653099 35.10733414 5.50000000
v 10.03602219 37.08666992 5.50000000
v 10.12266541 37.14658737 5.50000000
v 10.36205482 35.09098816 5.50000000
v 10.46030998 35.07981873 5.50000000
v 10.56087685 35.07387543 5.50000000
v 10.21306419 37.20287704 5.50000000
v 10.30683327 37.25530243 5.50000000
v 10.40357113 37.30363846 5.50000000
v 10.50286198 37.34767532 5.50000000
v 10.60428238 37.38722610 5.50000000
v 10.66332436 35.07318115 5.50000000
v 10.76721287 35.07774353 5.50000000
v 10.87209797 35.08753586 5.50000000
v 10.97753143 35.10252380 5.50000000
v 11.08306122 35.12263489 5.50000000
v 11.18823433 35.14779282 5.50000000
v 10.70739746 37.42211914 5.50000000
v 10.81176567 37.45220947 5.50000000
v 10.91693878 37.47736359 5.50000000
v 11.02246857 37.49747849 5.50000000
v 11.12790203 37.51246262 5.50000000
v 11.23278713 37.52225876 5.50000000
v 11.28261185 35.17499924 5.00000000
v 11.29260254 35.17787933 5.00000000
v 11.39571762 35.21277618 5.00000000
v 11.49713802 35.25232697 5.00000000
v 11.59642887 35.29636383 5.00000000
v 11.69316673 35.34469604 5.00000000
v 11.78693581 35.39712143 5.00000000
v 11.87733459 35.45341110 5.00000000
v 11.96397781 35.51332855 5.00000000
v 12.04649258 35.57661438 5.00000000
v 12.12452507 35.64299774 5.00000000
v 12.19774342 35.71219254 5.00000000
v 12.26583290 35.78390503 5.00000000
v 12.32850075 35.85783005 5.00000000
v 12.38548088 35.93364716 5.00000000
v 12.43652821 36.01103210 5.00000000
v 12.48142338 36.08965302 5.00000000
v 12.40794945 37.13112259 5.00000000
v 12.45640278 37.07029343 5.00000000
v 12.49862003 37.00616455 5.00000000
v 11.96815777 37.42499924 5.00000000
v 11.99962807 37.41337585 5.00000000
v 12.08027744 37.37723541 5.00000000
v 12.15630054 37.33648682 5.00000000
v 12.22737217 37.29129791 5.00000000
v 12.29318810 37.24186325 5.00000000
v 12.35346699 37.18839645 5.00000000
v 11.29260254 35.17787933 5.50000000
v 11.39571762 35.21277618 5.50000000
v 11.49713802 35.25232697 5.50000000
v 11.59642887 35.29636383 5.50000000
v 11.69316673 35.34469604 5.50000000
v 11.78693581 35.39712143 5.50000000
v 11.33667564 37.52681732 5.50000000
v 11.43912315 37.52612305 5.50000000
v 11.53969002 37.52017975 5.50000000
v 11.63794518 37.50901413 5.50000000
v 11.73346901 37.49266815 5.50000000
v 11.82585239 37.47121429 5.50000000
v 11.87733459 35.45341110 5.50000000
v 11.96397781 35.51332855 5.50000000
v 12.04649258 35.57661438 5.50000000
v 12.12452507 35.64299774 5.50000000
v 12.19774342 35.71219254 5.50000000
v 12.26583290 35.78390503 5.50000000
v 12.32850075 35.85783005 5.50000000
v 12.38548088 35.93364716 5.50000000
v 12.43652821 36.01103210 5.50000000
v 12.48142338 36.08965302 5.50000000
v 12.40794945 37.13112259 5.50000000
v 12.45640278 37.07029343 5.50000000
v 12.49862003 37.00616455 5.50000000
v 11.91469860 37.44474411 5.50000000
v 11.99962807 37.41337585 5.50000000
v 12.08027744 37.37723541 5.50000000
v 12.15630054 37.33648682 5.50000000
v 12.22737217 37.29129791 5.50000000
v 12.29318810 37.24186325 5.50000000
v 12.35346699 37.18839645 5.50000000
v 12.39999962 42.54999924 5.00000000
v 12.39999962 43.04999924 5.00000000
v 12.39999962 42.54999924 5.50000000
v 12.39999962 43.04999924 5.50000000
v 12.39999962 45.15000153 5.00000000
v 12.39999962 45.65000153 5.00000000
v 12.39999962 45.15000153 5.50000000
v 12.39999962 45.65000153 5.50000000
v 13.38705540 37.42499924 4.59999990
v 13.38705540 37.77500153 4.59999990
v 13.38705540 40.02500153 4.59999990
v 13.38705540 40.37500000 4.59999990
v 13.88705540 37.42499924 4.59999990
v 13.88705540 37.77500153 4.59999990
v 13.88705540 40.02500153 4.59999990
v 13.88705540 40.37500000 4.59999990
v 12.51997471 36.16917801 5.00000000
v 12.55201817 36.24925995 5.00000000
v 12.57741547 36.32956314 5.00000000
v 12.59605694 36.40973663 5.00000000
v 12.60786533 36.48944092 5.00000000
v 12.61278725 36.56833649 5.00000000
v 12.56364822 36.86912155 5.00000000
v 12.53441906 36.93901062 5.00000000
v 12.61080360 36.64608002 5.00000000
v 12.60192299 36.72233963 5.00000000
v 12.58618164 36.79679489 5.00000000
v 13.38705540 36.29999924 5.00000000
v 13.38705540 37.42499924 5.00000000
v 13.38705540 37.77500153 5.00000000
v 12.51997471 36.16917801 5.50000000
v 12.55201817 36.24925995 5.50000000
v 12.57741547 36.32956314 5.50000000
v 12.59605694 36.40973663 5.50000000
v 12.60786533 36.48944092 5.50000000
v 12.61278725 36.56833649 5.50000000
v 12.56364822 36.86912155 5.50000000
v 12.53441906 36.93901062 5.50000000
v 12.61080360 36.64608002 5.50000000
v 12.60192299 36.72233963 5.50000000
v 12.58618164 36.79679489 5.50000000
v 13.38705540 36.29999924 5.50000000
v 13.38705540 40.02500153 5.00000000
v 13.38705540 40.37500000 5.00000000
v 13.38705540 42.54999924 5.00000000
v 13.38705540 43.04999924 5.00000000
v 13.38705540 42.54999924 5.50000000
v 13.38705540 43.04999924 5.50000000
v 13.88705540 36.29999924 5.00000000
v 13.88705540 37.42499924 5.00000000
v 13.88705540 37.77500153 5.00000000
v 13.88705540 36.29999924 5.50000000
v 13.88705540 40.02500153 5.00000000
v 13.88705540 40.37500000 5.00000000
v 13.88705540 42.54999924 5.00000000
v 13.88705540 43.04999924 5.00000000
v 13.88705540 42.54999924 5.50000000
v 13.88705540 43.04999924 5.50000000
v 13.38705540 45.15000153 5.00000000
v 13.54122066 45.65000153 5.00000000
v 13.56347179 45.68896866 5.00000000
v 13.61451912 45.76635361 5.00000000
v 13.67149925 45.84217072 5.00000000
v 13.73416710 45.91609573 5.00000000
v 13.38705540 45.15000153 5.50000000
v 13.54122066 45.65000153 5.50000000
v 13.56347179 45.68896866 5.50000000
v 13.61451912 45.76635361 5.50000000
v 13.67149925 45.84217072 5.50000000
v 13.73416710 45.91609573 5.50000000
v 13.88705540 44.34027481 5.00000000
v 14.00037193 44.28662491 5.00000000
v 13.91972256 44.32276154 5.00000000
v 14.08530140 44.25525665 5.00000000
v 14.17414761 44.22878647 5.00000000
v 14.26653099 44.20733261 5.00000000
v 14.36205482 44.19098663 5.00000000
v 13.80225658 45.98780823 5.00000000
v 13.87547493 46.05700302 5.00000000
v 13.95350742 46.12338638 5.00000000
v 14.03602219 46.18667221 5.00000000
v 14.12266541 46.24658585 5.00000000
v 14.21306419 46.30287933 5.00000000
v 14.30683327 46.35530472 5.00000000
v 14.46030998 44.17981720 5.00000000
v 14.56087685 44.17387390 5.00000000
v 14.66332436 44.17318344 5.00000000
v 14.76721287 44.17774200 5.00000000
v 14.87209797 44.18753815 5.00000000
v 14.97753143 44.20252228 5.00000000
v 14.40357113 46.40363693 5.00000000
v 14.50286198 46.44767380 5.00000000
v 14.60428238 46.48722458 5.00000000
v 14.70739746 46.52211761 5.00000000
v 14.81176567 46.55220795 5.00000000
v 14.91693878 46.57736206 5.00000000
v 13.88705540 44.34027481 5.50000000
v 14.00037193 44.28662491 5.50000000
v 13.91972256 44.32276154 5.50000000
v 14.08530140 44.25525665 5.50000000
v 14.17414761 44.22878647 5.50000000
v 14.26653099 44.20733261 5.50000000
v 14.36205482 44.19098663 5.50000000
v 13.80225658 45.98780823 5.50000000
v 13.87547493 46.05700302 5.50000000
v 13.95350742 46.12338638 5.50000000
v 14.03602219 46.18667221 5.50000000
v 14.12266541 46.24658585 5.50000000
v 14.21306419 46.30287933 5.50000000
v 14.30683327 46.35530472 5.50000000
v 14.46030998 44.17981720 5.50000000
v 14.56087685 44.17387390 5.50000000
v 14.66332436 44.17318344 5.50000000
v 14.76721287 44.17774200 5.50000000
v 14.87209797 44.18753815 5.50000000
v 14.97753143 44.20252228 5.50000000
v 14.40357113 46.40363693 5.50000000
v 14.50286198 46.44767380 5.50000000
v 14.60428238 46.48722458 5.50000000
v 14.70739746 46.52211761 5.50000000
v 14.81176567 46.55220795 5.50000000
v 14.91693878 46.57736206 5.50000000
v 10.17354298 56.50553513 4.59999990
v 10.35305691 56.52295303 4.59999990
v 10.53163719 56.55221558 4.59999990
v 10.70881081 56.59324646 4.59999990
v 10.88410950 56.64593506 4.59999990
v 11.05706882 56.71014404 4.59999990
v 11.22723103 56.78569794 4.59999990
v 10.10908413 57.80393600 4.59999990
v 10.22192192 57.81632233 4.59999990
v 10.33417225 57.83713150 4.59999990
v 10.44553852 57.86631012 4.59999990
v 10.55572605 57.90377426 4.59999990
v 10.66444302 57.94943619 4.59999990
v 10.77140236 58.00316238 4.59999990
v 10.87632084 58.06482315 4.59999990
v 10.97892094 58.13424683 4.59999990
v 11.07893181 58.21125031 4.59999990
v 11.17608738 58.29563522 4.59999990
v 11.39414692 56.87240601 4.59999990
v 11.55737495 56.97003174 4.59999990
v 11.27013206 58.38717270 4.59999990
v 11.36081600 58.48562241 4.59999990
v 11.44789982 58.59072495 4.59999990
v 11.53115368 58.70220184 4.59999990
v 11.71648216 57.07831955 4.59999990
v 11.87104797 57.19698334 4.59999990
v 11.61035538 58.81975555 4.59999990
v 11.68529797 58.94308090 4.59999990
v 12.02066422 57.32571030 4.59999990
v 12.16493511 57.46415710 4.59999990
v 12.30347729 57.61195374 4.59999990
v 12.43592548 57.76871872 4.59999990
v 10.17354298 56.50553513 5.00000000
v 10.35305691 56.52295303 5.00000000
v 10.53163719 56.55221558 5.00000000
v 10.70881081 56.59324646 5.00000000
v 10.88410950 56.64593506 5.00000000
v 11.05706882 56.71014404 5.00000000
v 11.22723103 56.78569794 5.00000000
v 10.10908413 57.80393600 5.00000000
v 10.22192192 57.81632233 5.00000000
v 10.33417225 57.83713150 5.00000000
v 10.44553852 57.86631012 5.00000000
v 10.55572605 57.90377426 5.00000000
v 10.66444302 57.94943619 5.00000000
v 10.77140236 58.00316238 5.00000000
v 10.87632084 58.06482315 5.00000000
v 10.97892094 58.13424683 5.00000000
v 11.07893181 58.21125031 5.00000000
v 11.17608738 58.29563522 5.00000000
v 11.39414692 56.87240601 5.00000000
v 11.55737495 56.97003174 5.00000000
v 11.27013206 58.38717270 5.00000000
v 11.36081600 58.48562241 5.00000000
v 11.44789982 58.59072495 5.00000000
v 11.53115368 58.70220184 5.00000000
v 11.71648216 57.07831955 5.00000000
v 11.87104797 57.19698334 5.00000000
v 11.61035538 58.81975555 5.00000000
v 11.68529797 58.94308090 5.00000000
v 12.02066422 57.32571030 5.00000000
v 12.16493511 57.46415710 5.00000000
v 12.30347729 57.61195374 5.00000000
v 12.43592548 57.76871872 5.00000000
v 10.10908413 64.19606018 4.59999990
v 10.22192192 64.18367767 4.59999990
v 10.17354298 65.49446106 4.59999990
v 10.33417225 64.16287231 4.59999990
v 10.44553852 64.13368988 4.59999990
v 10.55572605 64.09622192 4.59999990
v 10.35305691 65.47704315 4.59999990
v 10.53163719 65.44778442 4.59999990
v 10.66444302 64.05056763 4.59999990
v 10.77140236 63.99683762 4.59999990
v 10.87632084 63.93517685 4.59999990
v 10.70881081 65.40675354 4.59999990
v 10.88410950 65.35406494 4.59999990
v 10.97892094 63.86575317 4.59999990
v 11.07893181 63.78874969 4.59999990
v 11.17608738 63.70436478 4.59999990
v 11.05706882 65.28985596 4.59999990
v 11.22723103 65.21430206 4.59999990
v 11.44789982 63.40927505 4.59999990
v 11.53115368 63.29779816 4.59999990
v 11.61035538 63.18024445 4.59999990
v 11.68529797 63.05691910 4.59999990
v 11.27013206 63.61282730 4.59999990
v 11.36081600 63.51437759 4.59999990
v 11.39414692 65.12759399 4.59999990
v 11.55737495 65.02996826 4.59999990
v 11.71648216 64.92167664 4.59999990
v 11.87104797 64.80301666 4.59999990
v 12.02066422 64.67429352 4.59999990
v 12.16493511 64.53584290 4.59999990
v 12.30347729 64.38804626 4.59999990
v 12.43592548 64.23127747 4.59999990
v 10.10908413 64.19606018 5.00000000
v 10.22192192 64.18367767 5.00000000
v 10.17354298 65.49446106 5.00000000
v 10.33417225 64.16287231 5.00000000
v 10.44553852 64.13368988 5.00000000
v 10.55572605 64.09622192 5.00000000
v 10.35305691 65.47704315 5.00000000
v 10.53163719 65.44778442 5.00000000
v 10.66444302 64.05056763 5.00000000
v 10.77140236 63.99683762 5.00000000
v 10.87632084 63.93517685 5.00000000
v 10.70881081 65.40675354 5.00000000
v 10.88410950 65.35406494 5.00000000
v 10.97892094 63.86575317 5.00000000
v 11.07893181 63.78874969 5.00000000
v 11.17608738 63.70436478 5.00000000
v 11.05706882 65.28985596 5.00000000
v 11.22723103 65.21430206 5.00000000
v 11.44789982 63.40927505 5.00000000
v 11.53115368 63.29779816 5.00000000
v 11.61035538 63.18024445 5.00000000
v 11.68529797 63.05691910 5.00000000
v 11.27013206 63.61282730 5.00000000
v 11.36081600 63.51437759 5.00000000
v 11.39414692 65.12759399 5.00000000
v 11.55737495 65.02996826 5.00000000
v 11.71648216 64.92167664 5.00000000
v 11.87104797 64.80301666 5.00000000
v 12.02066422 64.67429352 5.00000000
v 12.16493511 64.53584290 5.00000000
v 12.30347729 64.38804626 5.00000000
v 12.43592548 64.23127747 5.00000000
v 12.56192970 57.93403244 4.59999990
v 12.68115520 58.10745621 4.59999990
v 12.56192970 57.93403244 5.00000000
v 12.68115520 58.10745621 5.00000000
v 12.56192970 64.06597137 4.59999990
v 12.68115520 63.89254379 4.59999990
v 12.56192970 64.06597137 5.00000000
v 12.68115520 63.89254379 5.00000000
v 15.08306122 44.22263718 5.00000000
v 15.18823433 44.24779129 5.00000000
v 15.29260254 44.27788162 5.00000000
v 15.39571762 44.31277466 5.00000000
v 15.49713802 44.35232544 5.00000000
v 15.59642887 44.39636230 5.00000000
v 15.02246857 46.59747696 5.00000000
v 15.12790203 46.61246490 5.00000000
v 15.23278713 46.62225723 5.00000000
v 15.33667564 46.62681961 5.00000000
v 15.43912315 46.62612534 5.00000000
v 15.53969002 46.62018204 5.00000000
v 15.69316673 44.44469833 5.00000000
v 15.78693581 44.49711990 5.00000000
v 15.87733459 44.55341339 5.00000000
v 15.96397781 44.61333084 5.00000000
v 16.04649162 44.67661285 5.00000000
v 16.12452507 44.74299622 5.00000000
v 16.19774437 44.81219482 5.00000000
v 15.63794518 46.60901260 5.00000000
v 15.73346901 46.59266663 5.00000000
v 15.82585239 46.57121277 5.00000000
v 15.91469860 46.54474640 5.00000000
v 16.08027840 46.47723770 5.00000000
v 15.99962807 46.51337433 5.00000000
v 16.15630150 46.43648529 5.00000000
v 16.22737312 46.39129639 5.00000000
v 15.08306122 44.22263718 5.50000000
v 15.18823433 44.24779129 5.50000000
v 15.29260254 44.27788162 5.50000000
v 15.39571762 44.31277466 5.50000000
v 15.49713802 44.35232544 5.50000000
v 15.59642887 44.39636230 5.50000000
v 15.02246857 46.59747696 5.50000000
v 15.12790203 46.61246490 5.50000000
v 15.23278713 46.62225723 5.50000000
v 15.33667564 46.62681961 5.50000000
v 15.43912315 46.62612534 5.50000000
v 15.53969002 46.62018204 5.50000000
v 15.69316673 44.44469833 5.50000000
v 15.78693581 44.49711990 5.50000000
v 15.87733459 44.55341339 5.50000000
v 15.96397781 44.61333084 5.50000000
v 16.04649162 44.67661285 5.50000000
v 16.12452507 44.74299622 5.50000000
v 16.19774437 44.81219482 5.50000000
v 15.63794518 46.60901260 5.50000000
v 15.73346901 46.59266663 5.50000000
v 15.82585239 46.57121277 5.50000000
v 15.91469860 46.54474640 5.50000000
v 16.08027840 46.47723770 5.50000000
v 15.99962807 46.51337433 5.50000000
v 16.15630150 46.43648529 5.50000000
v 16.22737312 46.39129639 5.50000000
v 16.26583290 44.88390732 5.00000000
v 16.32850075 44.95782852 5.00000000
v 16.38548088 45.03364563 5.00000000
v 16.43652725 45.11103058 5.00000000
v 16.45878029 45.15000153 5.00000000
v 16.61164284 45.65000153 5.00000000
v 16.58618164 45.89679337 5.00000000
v 16.61278725 45.66833496 5.00000000
v 16.61080360 45.74607849 5.00000000
v 16.60192299 45.82234192 5.00000000
v 16.29318810 46.34186172 5.00000000
v 16.35346603 46.28839493 5.00000000
v 16.45640373 46.17029190 5.00000000
v 16.40794945 46.23112488 5.00000000
v 16.49861908 46.10616302 5.00000000
v 16.53442001 46.03900909 5.00000000
v 16.56364822 45.96912003 5.00000000
v 16.26583290 44.88390732 5.50000000
v 16.32850075 44.95782852 5.50000000
v 16.38548088 45.03364563 5.50000000
v 16.43652725 45.11103058 5.50000000
v 16.45878029 45.15000153 5.50000000
v 16.61164284 45.65000153 5.50000000
v 16.58618164 45.89679337 5.50000000
v 16.61278725 45.66833496 5.50000000
v 16.61080360 45.74607849 5.50000000
v 16.60192299 45.82234192 5.50000000
v 16.29318810 46.34186172 5.50000000
v 16.35346603 46.28839493 5.50000000
v 16.45640373 46.17029190 5.50000000
v 16.40794945 46.23112488 5.50000000
v 16.49861908 46.10616302 5.50000000
v 16.53442001 46.03900909 5.50000000
v 16.56364822 45.96912003 5.50000000
v 19.79999924 35.17499924 4.59999990
v 19.79999924 37.42499924 4.59999990
v 19.79999924 37.77500153 4.59999990
v 19.79999924 40.02500153 4.59999990
v 19.79999924 40.37500000 4.59999990
v 17.60000038 42.54999924 5.00000000
v 17.60000038 43.04999924 5.00000000
v 17.60000038 42.54999924 5.50000000
v 17.60000038 43.04999924 5.50000000
v 19.39999962 35.17499924 5.00000000
v 19.39999962 37.42499924 5.00000000
v 19.39999962 37.77500153 5.00000000
v 19.39999962 40.02500153 5.00000000
v 19.39999962 40.37500000 5.00000000
v 17.60000038 45.15000153 5.00000000
v 17.60000038 45.65000153 5.00000000
v 17.60000038 45.15000153 5.50000000
v 17.60000038 45.65000153 5.50000000
v 19.39999962 70.00000000 4.40000010
v 20.00000000 69.40000153 4.40000010
v 19.39999962 69.40000153 5.00000000
f 1 3 2
f 2 3 5
f 1 2 221
f 2 4 222
f 1 526 3
f 1 221 525
f 2 5 4
f 4 5 6
f 4 6 7
f 6 12 7
f 4 7 234
f 8 13 9
f 10 15 11
f 13 14 9
f 11 15 16
f 7 134 8
f 7 12 133
f 9 138 10
f 9 14 137
f 11 16 139
f 8 167 13
f 12 17 18
f 12 18 71
f 10 198 15
f 13 197 14
f 15 199 16
f 12 71 74
f 12 74 75
f 12 75 76
f 12 76 77
f 12 77 78
f 12 78 79
f 12 79 80
f 12 80 81
f 12 81 105
f 12 105 106
f 12 106 107
f 12 107 108
f 12 108 109
f 12 109 110
f 12 110 111
f 12 111 112
f 3 528 5
f 5 528 6
f 6 530 12
f 7 133 134
f 8 134 167
f 9 137 138
f 10 138 198
f 11 139 237
f 17 61 60
f 17 62 61
f 17 66 62
f 17 59 63
f 17 60 59
f 17 63 64
f 17 64 65
f 18 69 70
f 18 70 71
f 12 166 133
f 12 112 166
f 14 197 137
f 13 167 197
f 16 199 139
f 15 198 199
f 166 112 113
f 166 113 114
f 12 530 17
f 530 66 17
f 135 144 136
f 135 143 144
f 135 175 143
f 136 144 208
f 140 148 141
f 140 147 148
f 140 200 147
f 216 141 148
f 151 239 142
f 142 202 151
f 166 114 115
f 166 115 116
f 166 116 154
f 166 154 155
f 166 155 156
f 166 156 161
f 166 161 162
f 166 162 163
f 166 163 164
f 166 164 165
f 175 174 204
f 205 204 174
f 136 208 176
f 175 207 143
f 175 204 207
f 206 204 205
f 141 216 201
f 147 200 215
f 176 215 200
f 208 215 176
f 151 202 219
f 219 202 201
f 216 219 201
f 2 222 221
f 221 222 223
f 222 235 223
f 221 223 542
f 223 235 542
f 4 234 222
f 224 229 225
f 226 231 227
f 7 8 234
f 225 229 230
f 231 232 227
f 8 9 234
f 9 10 234
f 10 11 234
f 11 224 234
f 224 225 234
f 225 226 234
f 226 227 234
f 227 228 234
f 228 233 234
f 11 237 224
f 225 557 226
f 225 230 557
f 227 679 228
f 227 232 678
f 228 679 233
f 224 241 229
f 229 242 230
f 226 697 231
f 231 710 232
f 233 307 305
f 222 234 235
f 233 236 234
f 234 236 235
f 233 294 236
f 233 300 293
f 233 298 299
f 233 301 298
f 233 299 300
f 233 293 294
f 233 302 301
f 233 304 303
f 233 303 302
f 233 305 304
f 236 294 295
f 236 295 296
f 236 296 297
f 236 297 323
f 236 323 324
f 236 324 325
f 236 325 326
f 236 326 327
f 236 327 328
f 236 328 329
f 236 329 330
f 236 330 331
f 236 331 332
f 236 332 333
f 236 333 334
f 224 237 241
f 226 557 558
f 226 558 559
f 226 559 560
f 226 560 561
f 229 241 242
f 230 242 244
f 230 244 248
f 230 248 249
f 230 249 250
f 230 250 251
f 230 251 252
f 230 252 253
f 230 253 254
f 230 254 255
f 230 255 259
f 230 259 260
f 230 260 261
f 230 261 262
f 230 262 574
f 230 581 557
f 230 574 575
f 230 575 576
f 230 576 577
f 230 577 578
f 230 578 579
f 230 579 580
f 230 580 582
f 230 582 581
f 233 308 307
f 233 306 308
f 233 387 386
f 233 386 306
f 233 388 387
f 233 389 388
f 233 390 389
f 233 404 390
f 233 405 404
f 233 408 405
f 233 415 408
f 233 416 415
f 233 417 416
f 233 418 417
f 233 419 418
f 233 420 419
f 233 421 420
f 233 422 421
f 226 561 562
f 226 562 564
f 226 564 565
f 226 565 677
f 142 239 238
f 247 238 239
f 226 677 697
f 152 544 240
f 573 240 544
f 227 678 679
f 233 668 669
f 233 669 672
f 247 243 238
f 247 244 243
f 247 248 244
f 231 697 710
f 240 573 256
f 256 258 257
f 256 572 258
f 256 573 572
f 232 710 678
f 233 679 711
f 233 711 712
f 233 712 668
f 233 672 422
f 286 302 287
f 277 284 278
f 278 284 280
f 278 280 279
f 280 309 281
f 282 286 284
f 282 284 283
f 280 284 286
f 282 285 286
f 277 278 294
f 278 279 295
f 279 280 296
f 280 281 297
f 282 298 285
f 277 293 284
f 283 284 300
f 282 283 299
f 285 301 286
f 286 287 288
f 286 288 291
f 288 289 291
f 290 338 291
f 286 291 338
f 290 291 292
f 287 303 288
f 288 304 289
f 289 305 291
f 290 306 337
f 291 307 292
f 290 292 308
f 280 286 338
f 280 351 347
f 280 346 353
f 280 353 352
f 280 352 354
f 280 348 346
f 280 347 348
f 280 354 342
f 280 342 343
f 280 343 344
f 280 344 345
f 280 345 435
f 277 294 293
f 278 295 294
f 279 296 295
f 280 297 296
f 281 323 297
f 282 299 298
f 283 300 299
f 284 293 300
f 285 298 301
f 286 301 302
f 287 302 303
f 288 303 304
f 291 305 307
f 289 304 305
f 292 307 308
f 290 308 306
f 280 311 309
f 309 311 310
f 280 315 311
f 311 313 312
f 311 315 313
f 313 315 314
f 315 317 316
f 281 309 323
f 309 310 324
f 310 311 325
f 311 312 326
f 312 313 327
f 313 314 328
f 314 315 329
f 315 316 330
f 280 444 315
f 315 319 317
f 317 319 318
f 280 435 436
f 280 436 437
f 280 437 438
f 280 438 439
f 280 439 440
f 280 440 441
f 316 317 331
f 317 318 332
f 315 444 319
f 319 321 320
f 319 444 321
f 321 444 322
f 318 319 333
f 319 320 334
f 320 321 335
f 321 322 336
f 235 236 1032
f 236 334 335
f 236 335 336
f 236 336 489
f 236 489 490
f 236 490 491
f 236 491 492
f 236 492 493
f 236 493 500
f 236 500 501
f 236 501 504
f 236 504 508
f 236 508 509
f 236 509 513
f 309 324 323
f 310 325 324
f 311 326 325
f 312 327 326
f 313 328 327
f 314 329 328
f 315 330 329
f 316 331 330
f 317 332 331
f 318 333 332
f 319 334 333
f 320 335 334
f 321 336 335
f 322 489 336
f 236 513 514
f 236 514 518
f 236 518 519
f 236 519 523
f 236 523 524
f 236 524 888
f 236 888 892
f 236 892 893
f 236 893 897
f 236 897 898
f 359 408 366
f 290 337 338
f 338 339 340
f 338 340 355
f 340 341 355
f 337 386 338
f 338 387 339
f 339 388 340
f 340 389 341
f 280 349 351
f 280 350 349
f 280 364 350
f 280 365 364
f 280 358 357
f 280 360 358
f 280 357 365
f 280 361 360
f 280 362 361
f 342 391 343
f 343 392 344
f 344 393 345
f 347 396 348
f 346 348 397
f 349 398 351
f 349 350 399
f 347 351 400
f 352 353 402
f 346 395 353
f 352 401 354
f 342 354 403
f 338 355 367
f 355 356 359
f 280 338 791
f 355 359 367
f 280 791 362
f 341 390 355
f 355 404 356
f 357 406 365
f 357 358 407
f 358 360 409
f 356 405 359
f 360 361 410
f 362 363 412
f 361 362 411
f 350 364 413
f 364 365 414
f 359 366 367
f 367 368 369
f 367 369 371
f 366 415 367
f 367 416 368
f 368 417 369
f 369 418 370
f 369 370 371
f 367 371 791
f 371 372 373
f 371 373 791
f 370 419 371
f 371 420 372
f 372 421 373
f 338 367 791
f 362 791 363
f 374 791 375
f 363 791 374
f 363 374 423
f 374 375 424
f 375 376 425
f 376 378 427
f 378 379 428
f 377 426 379
f 375 791 376
f 376 791 378
f 378 791 379
f 377 379 791
f 377 791 380
f 380 791 381
f 381 791 382
f 382 791 383
f 377 380 429
f 380 381 430
f 381 382 431
f 382 383 432
f 383 384 433
f 384 385 434
f 408 415 366
f 306 386 337
f 338 386 387
f 339 387 388
f 340 388 389
f 341 389 390
f 342 403 391
f 343 391 392
f 344 392 393
f 345 393 394
f 346 397 395
f 348 396 397
f 351 398 400
f 349 399 398
f 347 400 396
f 352 402 401
f 353 395 402
f 354 401 403
f 355 390 404
f 356 404 405
f 365 406 414
f 357 407 406
f 358 409 407
f 359 405 408
f 360 410 409
f 361 411 410
f 362 412 411
f 350 413 399
f 364 414 413
f 367 415 416
f 368 416 417
f 369 417 418
f 370 418 419
f 371 419 420
f 372 420 421
f 373 421 422
f 363 423 412
f 374 424 423
f 375 425 424
f 376 427 425
f 377 429 426
f 378 428 427
f 379 426 428
f 413 414 848
f 396 400 849
f 396 849 397
f 401 402 849
f 401 849 403
f 391 403 849
f 395 397 849
f 395 849 402
f 398 399 849
f 398 849 400
f 399 413 848
f 391 849 392
f 392 849 393
f 393 849 394
f 394 849 480
f 480 849 481
f 481 849 482
f 482 849 483
f 483 849 484
f 484 849 485
f 485 849 486
f 380 430 429
f 381 431 430
f 382 432 431
f 383 433 432
f 384 434 433
f 406 848 414
f 406 407 848
f 407 409 848
f 409 410 845
f 412 423 842
f 411 412 843
f 424 425 838
f 423 424 839
f 410 411 844
f 426 429 834
f 429 430 833
f 431 432 831
f 430 431 832
f 432 433 830
f 433 434 829
f 425 427 837
f 427 428 836
f 426 835 428
f 280 441 442
f 280 442 443
f 280 443 449
f 280 449 450
f 280 450 451
f 280 451 452
f 280 452 453
f 280 453 454
f 345 394 435
f 435 480 436
f 436 481 437
f 437 482 438
f 438 483 439
f 439 484 440
f 440 485 441
f 441 486 442
f 442 487 443
f 444 446 445
f 444 448 446
f 280 856 444
f 446 448 447
f 322 444 489
f 444 445 490
f 445 446 491
f 446 447 492
f 447 448 493
f 280 454 856
f 443 488 449
f 449 494 450
f 450 495 451
f 451 496 452
f 452 497 453
f 453 498 454
f 454 499 457
f 444 463 448
f 448 456 455
f 448 463 456
f 456 463 459
f 448 455 500
f 455 456 501
f 457 502 458
f 456 459 504
f 459 463 508
f 444 856 463
f 463 468 464
f 454 457 856
f 457 458 856
f 458 460 856
f 460 461 856
f 461 462 856
f 463 473 468
f 468 473 469
f 458 503 460
f 460 505 461
f 461 506 462
f 462 507 465
f 463 464 509
f 464 468 513
f 465 510 466
f 466 511 467
f 467 512 470
f 468 469 514
f 462 465 856
f 465 466 856
f 466 467 856
f 463 856 473
f 467 470 856
f 473 478 474
f 470 471 856
f 471 472 856
f 473 856 478
f 472 475 856
f 475 476 856
f 478 856 479
f 470 515 471
f 471 516 472
f 469 473 518
f 473 474 519
f 472 517 475
f 475 520 476
f 476 521 477
f 474 478 523
f 478 479 524
f 394 480 435
f 436 480 481
f 437 481 482
f 438 482 483
f 439 483 484
f 440 484 485
f 441 485 486
f 442 486 487
f 443 487 488
f 444 490 489
f 445 491 490
f 446 492 491
f 447 493 492
f 449 488 494
f 450 494 495
f 451 495 496
f 452 496 497
f 453 497 498
f 454 498 499
f 448 500 493
f 455 501 500
f 457 499 502
f 458 502 503
f 456 504 501
f 459 508 504
f 236 898 902
f 486 849 487
f 487 849 488
f 488 849 494
f 494 849 495
f 503 505 460
f 461 505 506
f 462 506 507
f 463 509 508
f 464 513 509
f 465 507 510
f 466 510 511
f 467 511 512
f 468 514 513
f 469 518 514
f 495 849 496
f 496 849 497
f 497 849 498
f 498 849 499
f 499 849 502
f 502 849 503
f 503 849 505
f 505 849 506
f 506 849 507
f 507 849 510
f 470 512 515
f 471 515 516
f 472 516 517
f 473 519 518
f 475 517 520
f 476 520 521
f 477 521 522
f 474 523 519
f 478 524 523
f 1 525 526
f 3 526 528
f 525 527 526
f 526 527 528
f 525 541 527
f 6 528 530
f 530 67 66
f 530 72 68
f 530 68 67
f 530 73 72
f 530 21 73
f 530 22 21
f 530 23 22
f 530 24 23
f 530 25 24
f 530 26 25
f 530 33 26
f 530 34 33
f 530 35 34
f 530 36 35
f 530 37 36
f 530 38 37
f 530 39 38
f 530 40 39
f 530 41 40
f 530 42 41
f 530 43 42
f 530 44 43
f 530 45 44
f 530 129 45
f 530 130 129
f 530 153 130
f 530 157 153
f 530 158 157
f 530 159 158
f 530 160 159
f 530 168 160
f 530 169 168
f 530 170 169
f 530 171 170
f 530 172 171
f 530 173 172
f 530 203 173
f 152 549 548
f 152 550 549
f 530 205 203
f 530 206 205
f 532 146 145
f 531 145 209
f 534 150 149
f 533 149 217
f 535 550 152
f 535 551 550
f 535 552 551
f 535 152 220
f 535 553 552
f 537 210 146
f 536 209 206
f 539 218 150
f 538 217 210
f 540 220 218
f 527 529 528
f 528 529 530
f 529 536 530
f 527 1033 529
f 530 536 206
f 531 532 145
f 532 537 146
f 533 534 149
f 534 539 150
f 537 538 210
f 539 540 218
f 531 209 536
f 533 217 538
f 535 220 540
f 529 531 536
f 529 1033 531
f 532 533 538
f 534 535 540
f 532 538 537
f 534 540 539
f 221 541 525
f 221 542 541
f 527 541 543
f 527 543 1033
f 541 542 543
f 542 1033 543
f 152 545 544
f 152 546 545
f 152 547 546
f 152 548 547
f 677 565 566
f 677 566 567
f 677 567 568
f 677 568 569
f 677 569 570
f 677 570 571
f 571 629 676
f 629 630 696
f 696 630 631
f 422 672 673
f 422 673 727
f 422 727 728
f 422 728 729
f 422 729 730
f 422 730 731
f 571 676 677
f 535 554 553
f 535 555 554
f 535 556 555
f 535 563 556
f 696 627 628
f 696 628 691
f 687 695 688
f 688 695 689
f 692 695 693
f 689 695 692
f 693 695 694
f 696 690 694
f 696 691 690
f 696 694 695
f 676 629 696
f 696 631 632
f 696 632 633
f 696 633 634
f 696 634 635
f 696 635 626
f 696 626 627
f 1023 609 563
f 1023 610 609
f 1023 611 610
f 1023 612 611
f 1023 613 612
f 1023 614 613
f 1023 615 614
f 1023 616 615
f 1023 617 616
f 1023 618 617
f 1023 619 618
f 1023 620 619
f 1023 621 620
f 1023 622 621
f 1023 623 622
f 1023 624 623
f 1023 625 624
f 1023 684 625
f 1023 685 684
f 1023 686 685
f 1023 687 686
f 672 669 726
f 713 726 669
f 422 731 745
f 422 745 746
f 422 746 747
f 422 747 748
f 422 748 749
f 422 749 750
f 422 750 751
f 422 751 758
f 422 758 759
f 422 759 760
f 422 760 761
f 422 761 762
f 422 762 763
f 422 763 932
f 422 932 933
f 422 933 934
f 422 934 935
f 422 935 936
f 422 936 937
f 422 937 945
f 723 740 738
f 723 739 740
f 723 741 739
f 723 742 741
f 723 743 742
f 723 744 743
f 723 752 744
f 723 753 752
f 422 945 946
f 422 946 947
f 822 947 948
f 823 948 950
f 824 950 949
f 825 949 951
f 826 951 952
f 826 952 990
f 827 991 993
f 827 993 992
f 827 990 991
f 828 992 994
f 828 994 995
f 235 1032 542
f 373 790 791
f 791 792 793
f 373 422 790
f 790 822 791
f 791 823 792
f 792 824 793
f 791 793 795
f 793 794 795
f 791 795 814
f 795 796 808
f 793 825 794
f 794 826 795
f 795 827 796
f 383 791 384
f 384 791 385
f 385 791 797
f 791 798 797
f 791 799 798
f 791 800 799
f 791 801 800
f 791 802 801
f 791 803 802
f 385 797 829
f 797 798 830
f 798 799 831
f 799 800 832
f 800 801 833
f 791 804 803
f 791 805 804
f 791 806 805
f 791 807 806
f 791 810 807
f 791 811 810
f 791 812 811
f 791 813 812
f 791 816 813
f 791 817 816
f 801 802 834
f 802 803 835
f 803 804 836
f 804 805 837
f 805 806 838
f 806 807 839
f 807 810 842
f 796 828 808
f 795 808 814
f 791 814 817
f 808 809 814
f 814 815 818
f 808 840 809
f 810 811 843
f 811 812 844
f 812 813 845
f 809 841 814
f 814 846 815
f 813 816 848
f 816 817 849
f 814 818 820
f 814 820 817
f 818 819 820
f 817 820 918
f 820 821 918
f 817 918 919
f 815 847 818
f 818 850 819
f 819 851 820
f 820 852 821
f 821 853 918
f 817 919 921
f 422 822 790
f 791 822 823
f 792 823 824
f 793 824 825
f 794 825 826
f 795 826 827
f 796 827 828
f 385 829 434
f 797 830 829
f 798 831 830
f 799 832 831
f 800 833 832
f 801 834 833
f 433 829 830
f 432 830 831
f 431 831 832
f 430 832 833
f 429 833 834
f 426 834 835
f 428 835 836
f 427 836 837
f 425 837 838
f 424 838 839
f 423 839 842
f 412 842 843
f 411 843 844
f 410 844 845
f 409 845 848
f 399 848 849
f 802 835 834
f 803 836 835
f 804 837 836
f 805 838 837
f 806 839 838
f 807 842 839
f 828 840 808
f 422 947 822
f 822 948 823
f 823 950 824
f 824 949 825
f 840 841 809
f 810 843 842
f 811 844 843
f 812 845 844
f 813 848 845
f 814 841 846
f 815 846 847
f 816 849 848
f 818 847 850
f 819 850 851
f 817 921 849
f 820 851 852
f 821 852 853
f 849 921 907
f 476 477 856
f 477 854 856
f 854 855 856
f 856 861 860
f 856 866 861
f 477 522 854
f 854 886 855
f 855 887 857
f 479 856 888
f 856 860 892
f 857 889 858
f 858 890 859
f 859 891 862
f 860 861 893
f 861 866 865
f 856 879 866
f 855 857 923
f 855 923 856
f 857 858 923
f 858 859 923
f 866 871 870
f 866 879 871
f 862 894 863
f 863 895 864
f 864 896 867
f 861 865 897
f 865 866 898
f 867 899 868
f 868 900 869
f 869 901 876
f 866 870 902
f 870 871 903
f 872 904 873
f 873 905 874
f 874 906 875
f 862 863 923
f 859 862 923
f 863 864 923
f 864 867 923
f 871 879 878
f 856 923 879
f 867 868 923
f 868 869 923
f 869 876 923
f 876 877 923
f 872 923 877
f 879 881 880
f 879 883 881
f 876 908 877
f 872 877 909
f 871 878 910
f 878 879 911
f 879 880 912
f 880 881 913
f 874 875 923
f 875 907 923
f 872 873 923
f 873 874 923
f 879 923 883
f 881 883 882
f 883 885 884
f 883 923 885
f 881 882 914
f 882 883 915
f 883 884 916
f 884 885 917
f 510 849 511
f 511 849 512
f 512 849 515
f 515 849 516
f 516 849 517
f 517 849 520
f 520 849 521
f 521 849 522
f 522 849 886
f 522 886 854
f 855 886 887
f 857 887 889
f 479 888 524
f 856 892 888
f 858 889 890
f 859 890 891
f 860 893 892
f 861 897 893
f 849 887 886
f 849 889 887
f 849 890 889
f 849 891 890
f 849 895 894
f 849 896 895
f 849 899 896
f 849 900 899
f 849 894 891
f 862 891 894
f 863 894 895
f 864 895 896
f 865 898 897
f 867 896 899
f 868 899 900
f 869 900 901
f 901 908 876
f 866 902 898
f 870 903 902
f 236 902 1034
f 873 904 905
f 874 905 906
f 875 906 907
f 849 901 900
f 849 908 901
f 849 909 908
f 849 904 909
f 849 905 904
f 849 907 906
f 849 906 905
f 877 908 909
f 872 909 904
f 871 910 903
f 878 911 910
f 879 912 911
f 880 913 912
f 881 914 913
f 882 915 914
f 883 916 915
f 907 925 923
f 884 917 916
f 885 924 917
f 918 920 919
f 825 951 826
f 826 990 827
f 827 992 828
f 828 1029 840
f 840 1029 841
f 841 1029 846
f 846 1029 847
f 853 920 918
f 919 920 921
f 847 1029 850
f 850 1029 851
f 851 1029 852
f 852 1029 853
f 853 1029 920
f 920 1029 921
f 907 921 1029
f 907 1027 925
f 885 923 922
f 922 923 925
f 885 922 924
f 236 1034 1032
f 922 925 924
f 902 903 1034
f 903 910 1034
f 910 911 1034
f 911 912 1034
f 912 913 1034
f 913 914 1034
f 914 915 1034
f 915 916 1034
f 916 917 1034
f 917 924 1034
f 924 925 1034
f 1016 681 680
f 1015 680 717
f 1018 683 682
f 1017 682 720
f 1014 1023 563
f 535 1014 563
f 1023 695 687
f 1023 716 695
f 1024 717 716
f 1025 718 681
f 1026 720 718
f 721 1019 722
f 723 1020 753
f 1027 721 683
f 1027 1019 721
f 753 1020 754
f 754 1020 755
f 755 1020 756
f 756 1020 757
f 757 1020 926
f 926 1020 927
f 927 1020 928
f 928 1020 929
f 929 1020 930
f 930 1020 931
f 828 995 1029
f 907 1029 1027
f 931 1020 938
f 938 1020 939
f 939 1020 940
f 940 1020 941
f 941 1020 942
f 942 1020 943
f 943 1020 944
f 944 1020 980
f 980 1020 981
f 981 1020 982
f 982 1020 983
f 984 983 1020
f 1029 987 985
f 1029 995 996
f 989 1029 986
f 987 1029 988
f 1029 989 988
f 1029 996 986
f 1015 1016 680
f 1016 1025 681
f 1017 1018 682
f 1018 1027 683
f 1014 1015 1024
f 1016 1017 1026
f 531 1033 532
f 1023 1024 716
f 1015 717 1024
f 1025 1026 718
f 1017 720 1026
f 1027 984 1020
f 1027 1028 984
f 1027 1020 1019
f 1027 1029 1028
f 1014 1024 1023
f 1016 1026 1025
f 532 1033 533
f 533 1033 534
f 534 1033 535
f 535 1033 1014
f 1014 1033 1015
f 1015 1033 1016
f 1016 1033 1017
f 1017 1033 1018
f 1018 1034 1027
f 542 1032 1033
f 925 1027 1034
f 1018 1033 1034
f 1032 1034 1033
f 19 18 17
f 19 20 18
f 19 17 88
f 19 92 20
f 20 92 18
f 27 73 21
f 28 21 22
f 29 22 23
f 30 23 24
f 31 24 25
f 32 25 26
f 46 26 33
f 96 73 27
f 27 21 28
f 28 22 29
f 27 28 29
f 27 29 31
f 29 23 30
f 30 24 31
f 31 25 32
f 32 26 46
f 29 30 31
f 27 31 48
f 31 32 46
f 47 33 34
f 48 34 35
f 49 35 36
f 50 36 37
f 51 37 38
f 52 38 39
f 46 33 47
f 47 34 48
f 48 35 49
f 31 46 48
f 46 47 48
f 48 49 50
f 49 36 50
f 50 37 51
f 51 38 52
f 48 50 52
f 50 51 52
f 53 39 40
f 54 40 41
f 55 41 42
f 56 42 43
f 57 43 44
f 58 44 45
f 52 39 53
f 53 40 54
f 54 41 55
f 48 52 56
f 52 53 54
f 52 54 56
f 55 42 56
f 56 43 57
f 57 44 58
f 54 55 56
f 48 56 183
f 56 57 58
f 56 58 132
f 88 17 65
f 92 69 18
f 84 60 61
f 83 59 60
f 85 61 62
f 86 64 63
f 87 65 64
f 82 63 59
f 89 62 66
f 90 66 67
f 91 67 68
f 92 70 69
f 93 71 70
f 19 88 92
f 82 59 83
f 83 60 84
f 85 84 61
f 86 87 64
f 87 88 65
f 82 86 63
f 89 66 90
f 85 62 89
f 90 67 91
f 91 68 95
f 82 83 86
f 85 83 84
f 86 88 87
f 83 88 86
f 83 92 88
f 85 89 90
f 85 90 83
f 90 27 83
f 90 91 95
f 83 100 92
f 92 93 70
f 93 94 71
f 92 94 93
f 95 68 72
f 96 72 73
f 94 74 71
f 97 75 74
f 98 76 75
f 99 77 76
f 100 78 77
f 101 79 78
f 102 80 79
f 103 81 80
f 104 105 81
f 96 95 72
f 90 95 27
f 96 27 95
f 83 27 48
f 94 97 74
f 97 98 75
f 98 99 76
f 99 100 77
f 100 101 78
f 92 98 94
f 94 98 97
f 92 100 98
f 98 100 99
f 101 102 79
f 102 103 80
f 103 104 81
f 83 120 100
f 100 102 101
f 100 104 102
f 102 104 103
f 100 120 104
f 117 106 105
f 118 107 106
f 119 108 107
f 120 109 108
f 121 110 109
f 122 111 110
f 104 117 105
f 117 118 106
f 118 119 107
f 104 118 117
f 104 120 118
f 118 120 119
f 83 48 183
f 83 183 120
f 119 120 108
f 120 121 109
f 121 122 110
f 120 122 121
f 120 124 122
f 123 112 111
f 124 113 112
f 125 114 113
f 126 115 114
f 127 116 115
f 128 154 116
f 122 123 111
f 123 124 112
f 124 125 113
f 122 124 123
f 120 128 124
f 124 126 125
f 125 126 114
f 126 127 115
f 127 128 116
f 124 128 126
f 126 128 127
f 120 189 128
f 131 45 129
f 132 129 130
f 58 45 131
f 131 129 132
f 58 131 132
f 133 167 134
f 175 135 136
f 198 138 137
f 140 141 200
f 202 142 238
f 143 208 144
f 209 145 146
f 216 148 147
f 217 149 150
f 220 152 240
f 133 166 167
f 175 136 176
f 177 130 153
f 178 155 154
f 179 156 155
f 180 161 156
f 181 153 157
f 182 157 158
f 183 158 159
f 184 159 160
f 185 162 161
f 186 163 162
f 187 164 163
f 188 165 164
f 132 130 177
f 56 132 183
f 132 177 181
f 128 178 154
f 178 179 155
f 179 180 156
f 180 185 161
f 120 183 189
f 128 179 178
f 128 185 179
f 179 185 180
f 128 189 185
f 177 153 181
f 181 157 182
f 182 158 183
f 183 159 184
f 132 181 183
f 181 182 183
f 183 184 190
f 185 186 162
f 186 187 163
f 187 188 164
f 188 189 165
f 185 187 186
f 185 189 187
f 187 189 188
f 189 166 165
f 189 167 166
f 189 197 167
f 190 160 168
f 191 168 169
f 192 169 170
f 193 170 171
f 194 171 172
f 195 172 173
f 196 174 175
f 184 160 190
f 190 168 191
f 191 169 192
f 192 170 193
f 193 171 194
f 183 190 192
f 190 191 192
f 183 192 195
f 183 195 189
f 192 193 194
f 192 194 195
f 195 196 189
f 194 172 195
f 196 175 176
f 137 197 198
f 139 199 241
f 200 141 201
f 189 198 197
f 189 199 198
f 189 245 199
f 189 196 245
f 196 176 246
f 246 176 200
f 246 200 201
f 246 201 202
f 196 246 245
f 143 207 208
f 209 146 210
f 196 205 174
f 211 173 203
f 195 173 211
f 195 213 196
f 195 211 213
f 196 213 205
f 213 203 205
f 212 207 204
f 212 204 206
f 214 206 209
f 211 203 213
f 212 206 214
f 212 208 207
f 212 215 208
f 214 209 210
f 212 214 271
f 147 215 216
f 217 150 218
f 151 219 247
f 212 216 215
f 212 219 216
f 271 210 217
f 214 210 271
f 271 217 218
f 271 218 220
f 212 263 219
f 212 264 263
f 212 265 264
f 212 271 265
f 139 241 237
f 151 247 239
f 202 238 243
f 245 241 199
f 245 242 241
f 245 244 242
f 246 202 243
f 246 243 244
f 245 246 244
f 220 240 256
f 263 247 219
f 263 248 247
f 263 249 248
f 264 250 249
f 265 251 250
f 266 252 251
f 267 253 252
f 268 254 253
f 269 255 254
f 271 220 256
f 271 256 257
f 272 257 258
f 583 258 572
f 270 259 255
f 273 260 259
f 274 261 260
f 275 262 261
f 276 574 262
f 263 264 249
f 264 265 250
f 265 266 251
f 266 267 252
f 267 268 253
f 268 269 254
f 269 270 255
f 265 267 266
f 265 269 267
f 267 269 268
f 265 275 269
f 269 273 270
f 271 257 272
f 272 258 583
f 271 272 583
f 270 273 259
f 273 274 260
f 274 275 261
f 275 276 262
f 269 275 273
f 273 275 274
f 265 596 275
f 275 587 276
f 573 544 545
f 571 570 629
f 585 545 546
f 586 546 547
f 589 547 548
f 590 548 549
f 591 549 550
f 584 573 545
f 597 550 551
f 598 551 552
f 599 552 553
f 600 553 554
f 601 554 555
f 602 555 556
f 602 556 563
f 604 558 557
f 604 559 558
f 605 560 559
f 606 561 560
f 607 562 561
f 604 557 581
f 584 572 573
f 584 545 585
f 585 546 586
f 586 547 589
f 587 575 574
f 588 576 575
f 589 548 590
f 590 549 591
f 591 550 597
f 583 572 584
f 271 583 585
f 583 584 585
f 271 585 591
f 585 586 589
f 271 637 265
f 276 587 574
f 587 588 575
f 588 592 576
f 275 592 587
f 587 592 588
f 275 596 592
f 585 589 591
f 589 590 591
f 271 591 637
f 592 577 576
f 593 578 577
f 594 579 578
f 595 580 579
f 592 593 577
f 592 594 593
f 593 594 578
f 594 595 579
f 595 596 580
f 592 596 594
f 594 596 595
f 597 551 598
f 598 552 599
f 599 553 600
f 600 554 601
f 601 555 602
f 591 597 598
f 591 598 600
f 598 599 600
f 265 664 596
f 591 600 637
f 600 601 602
f 600 602 637
f 265 637 664
f 596 582 580
f 603 581 582
f 604 605 559
f 605 606 560
f 606 607 561
f 607 608 562
f 596 603 582
f 603 604 581
f 596 604 603
f 596 606 604
f 604 606 605
f 596 643 606
f 606 608 607
f 606 643 608
f 602 563 609
f 608 564 562
f 642 565 564
f 643 566 565
f 644 567 566
f 645 568 567
f 646 569 568
f 647 570 569
f 661 629 570
f 636 609 610
f 637 610 611
f 638 611 612
f 639 612 613
f 640 613 614
f 641 614 615
f 648 615 616
f 602 609 636
f 636 610 637
f 637 611 638
f 638 612 639
f 602 636 637
f 637 638 639
f 639 613 640
f 640 614 641
f 641 615 648
f 637 639 641
f 639 640 641
f 637 641 651
f 608 642 564
f 642 643 565
f 643 644 566
f 644 645 567
f 645 646 568
f 646 647 569
f 596 664 643
f 608 643 642
f 643 645 644
f 643 647 645
f 645 647 646
f 643 664 647
f 649 616 617
f 650 617 618
f 651 618 619
f 652 619 620
f 653 620 621
f 654 621 622
f 655 622 623
f 656 623 624
f 657 624 625
f 667 626 635
f 658 627 626
f 659 628 627
f 648 616 649
f 649 617 650
f 650 618 651
f 651 619 652
f 641 648 649
f 641 649 651
f 637 651 699
f 649 650 651
f 637 699 664
f 652 620 653
f 653 621 654
f 654 622 655
f 655 623 656
f 656 624 657
f 651 652 653
f 651 653 655
f 653 654 655
f 651 655 699
f 655 656 657
f 655 657 699
f 657 625 698
f 667 658 626
f 658 659 627
f 659 660 628
f 666 658 667
f 664 704 658
f 699 704 664
f 658 660 659
f 704 660 658
f 661 630 629
f 662 631 630
f 647 661 570
f 663 632 631
f 664 633 632
f 665 634 633
f 666 635 634
f 661 662 630
f 662 663 631
f 663 664 632
f 647 662 661
f 647 664 662
f 662 664 663
f 664 665 633
f 665 666 634
f 666 667 635
f 664 666 665
f 664 658 666
f 670 669 668
f 670 671 669
f 674 673 672
f 674 675 673
f 676 697 677
f 678 711 679
f 717 680 681
f 720 682 683
f 676 696 697
f 698 625 684
f 699 684 685
f 700 685 686
f 701 686 687
f 702 687 688
f 703 688 689
f 706 689 692
f 704 694 690
f 660 691 628
f 705 690 691
f 708 693 694
f 707 692 693
f 698 684 699
f 699 685 700
f 700 686 701
f 701 687 702
f 702 688 703
f 703 689 706
f 705 704 690
f 705 691 660
f 707 693 708
f 706 692 707
f 708 694 704
f 657 698 699
f 699 700 701
f 699 703 704
f 699 701 703
f 701 702 703
f 705 660 704
f 703 707 704
f 703 706 707
f 707 708 704
f 709 696 695
f 709 697 696
f 719 695 716
f 709 695 719
f 709 710 697
f 709 719 714
f 710 711 678
f 671 713 669
f 714 668 712
f 670 668 714
f 670 715 671
f 671 715 713
f 670 714 715
f 714 711 710
f 709 714 710
f 719 724 714
f 714 712 711
f 714 724 715
f 681 718 717
f 719 716 717
f 719 717 718
f 719 718 720
f 721 720 683
f 724 720 721
f 719 720 724
f 724 721 722
f 725 723 764
f 675 727 673
f 732 672 726
f 674 672 732
f 674 733 675
f 674 732 733
f 715 726 713
f 733 728 727
f 734 729 728
f 735 730 729
f 736 731 730
f 715 732 726
f 675 733 727
f 715 733 732
f 715 724 733
f 733 734 728
f 734 735 729
f 735 736 730
f 736 737 731
f 733 736 734
f 734 736 735
f 733 773 736
f 736 771 737
f 764 723 738
f 767 739 741
f 766 738 740
f 765 740 739
f 768 741 742
f 769 742 743
f 770 743 744
f 764 738 766
f 765 739 767
f 766 740 765
f 724 725 733
f 725 764 733
f 764 765 768
f 764 766 765
f 764 787 733
f 767 741 768
f 768 742 769
f 769 743 770
f 765 767 768
f 764 768 779
f 768 769 770
f 768 770 779
f 737 745 731
f 771 746 745
f 772 747 746
f 773 748 747
f 774 749 748
f 775 750 749
f 776 751 750
f 777 758 751
f 737 771 745
f 771 772 746
f 772 773 747
f 773 774 748
f 736 773 771
f 771 773 772
f 773 775 774
f 774 775 749
f 775 776 750
f 776 777 751
f 777 784 758
f 733 787 773
f 773 777 775
f 775 777 776
f 773 787 777
f 778 744 752
f 779 752 753
f 780 753 754
f 781 754 755
f 782 755 756
f 783 756 757
f 770 744 778
f 778 752 779
f 779 753 780
f 770 778 779
f 764 779 956
f 779 780 781
f 780 754 781
f 781 755 782
f 782 756 783
f 779 781 783
f 781 782 783
f 779 783 956
f 784 759 758
f 785 760 759
f 786 761 760
f 787 762 761
f 788 763 762
f 789 932 763
f 784 785 759
f 785 786 760
f 786 787 761
f 777 785 784
f 777 787 785
f 785 787 786
f 787 788 762
f 788 789 763
f 789 959 932
f 787 789 788
f 787 960 789
f 725 1020 723
f 724 722 1021
f 724 1021 725
f 1021 722 1019
f 725 1022 1020
f 725 1021 1022
f 953 757 926
f 954 926 927
f 955 927 928
f 956 928 929
f 957 929 930
f 958 930 931
f 783 757 953
f 953 926 954
f 954 927 955
f 783 953 954
f 783 954 956
f 954 955 956
f 764 956 1001
f 764 1001 787
f 955 928 956
f 956 929 957
f 957 930 958
f 956 957 958
f 956 958 966
f 959 933 932
f 960 934 933
f 961 935 934
f 962 936 935
f 963 937 936
f 964 945 937
f 959 960 933
f 960 961 934
f 961 962 935
f 789 960 959
f 787 964 960
f 960 962 961
f 962 963 936
f 963 964 937
f 964 972 945
f 960 964 962
f 962 964 963
f 787 979 964
f 965 931 938
f 966 938 939
f 967 939 940
f 968 940 941
f 969 941 942
f 970 942 943
f 971 943 944
f 997 944 980
f 958 931 965
f 965 938 966
f 966 939 967
f 967 940 968
f 958 965 966
f 956 966 970
f 966 967 968
f 968 941 969
f 969 942 970
f 970 943 971
f 971 944 997
f 966 968 970
f 956 970 1001
f 968 969 970
f 970 971 997
f 972 946 945
f 973 947 946
f 974 948 947
f 975 950 948
f 977 949 950
f 976 951 949
f 978 952 951
f 979 990 952
f 972 973 946
f 973 974 947
f 974 975 948
f 964 973 972
f 964 975 973
f 787 1001 979
f 973 975 974
f 964 979 975
f 975 977 950
f 977 976 949
f 976 978 951
f 978 979 952
f 975 979 976
f 975 976 977
f 976 979 978
f 998 980 981
f 999 981 982
f 1000 982 983
f 1001 983 984
f 1004 985 987
f 1003 989 986
f 1005 987 988
f 1006 988 989
f 997 980 998
f 998 981 999
f 999 982 1000
f 1000 983 1001
f 970 997 999
f 997 998 999
f 970 999 1001
f 999 1000 1001
f 1001 1003 979
f 1001 1002 1003
f 1002 985 1004
f 1013 1003 986
f 1003 1006 989
f 1004 987 1005
f 1005 988 1006
f 1001 984 1030
f 1005 1006 1003
f 1002 1004 1005
f 1002 1005 1003
f 1007 991 990
f 1008 993 991
f 1010 992 993
f 1009 994 992
f 1011 995 994
f 1012 996 995
f 1013 986 996
f 979 1007 990
f 1008 991 1007
f 1008 1010 993
f 1010 1009 992
f 1011 1012 995
f 1009 1011 994
f 1013 996 1012
f 1008 1007 979
f 1008 979 1009
f 1008 1009 1010
f 979 1003 1009
f 1009 1012 1011
f 1003 1012 1009
f 1013 1012 1003
f 1002 1029 985
f 1030 984 1028
f 1001 1031 1002
f 1002 1031 1029
f 1001 1030 1031
f 1022 1019 1020
f 1021 1019 1022
f 1031 1028 1029
f 1030 1028 1031

