# https://github.com/mikedh/trimesh
v 0.60000002 0.60000002 0.00000000
v 0.00000000 0.60000002 0.60000002
v 0.60000002 0.00000000 0.60000002
v 0.00000000 0.60000002 4.40000010
v 0.60000002 0.00000000 4.40000010
v 0.60000002 0.60000002 5.00000000
v 0.19999985 29.62500000 4.59999990
v 0.19999985 29.97500038 4.59999990
v 0.19999985 32.22499847 4.59999990
v 0.19999985 32.57500076 4.59999990
v 0.19999985 34.82500076 4.59999990
v 0.60000002 29.62500000 5.00000000
v 0.60000002 29.97500038 5.00000000
v 0.60000002 32.22499847 5.00000000
v 0.60000002 32.57500076 5.00000000
v 0.60000002 34.82500076 5.00000000
v 6.71739340 29.62500000 4.59999990
v 6.81176519 29.65220833 4.59999990
v 6.91693878 29.67736435 4.59999990
v 7.02246857 29.69747734 4.59999990
v 7.12790155 29.71246338 4.59999990
v 7.23278713 29.72225761 4.59999990
v 7.33667612 29.72681808 4.59999990
v 7.43912315 29.72612381 4.59999990
v 5.46558046 27.86098862 5.00000000
v 5.38919592 28.15392113 5.00000000
v 5.38721228 28.23166466 5.00000000
v 5.41381836 28.00320435 5.00000000
v 5.39807701 28.07765770 5.00000000
v 5.43635130 27.93087769 5.00000000
v 5.39213514 28.31055832 5.00000000
v 5.40394258 28.39026260 5.00000000
v 5.50137997 27.79383659 5.00000000
v 5.54359722 27.72970772 5.00000000
v 5.59205055 27.66887665 5.00000000
v 5.42258501 28.47043800 5.00000000
v 5.44798183 28.55073929 5.00000000
v 5.48002481 28.63082314 5.00000000
v 5.51857662 28.71034622 5.00000000
v 5.56347227 28.78896904 5.00000000
v 5.61451912 28.86635399 5.00000000
v 5.64653349 27.61160469 5.00000000
v 5.70681143 27.55813789 5.00000000
v 5.77262735 27.50870323 5.00000000
v 5.84369946 27.46351433 5.00000000
v 5.91972256 27.42276382 5.00000000
v 6.17414808 27.32878685 5.00000000
v 6.00037146 27.38662529 5.00000000
v 6.08530140 27.35525513 5.00000000
v 5.67149878 28.94217110 5.00000000
v 5.73416758 29.01609421 5.00000000
v 5.80225658 29.08780670 5.00000000
v 5.87547445 29.15700340 5.00000000
v 5.95350790 29.22338676 5.00000000
v 6.03602266 29.28667068 5.00000000
v 6.12266493 29.34658813 5.00000000
v 6.21306419 29.40287781 5.00000000
v 5.46558046 27.86098862 5.50000000
v 5.38919592 28.15392113 5.50000000
v 5.38721228 28.23166466 5.50000000
v 5.41381836 28.00320435 5.50000000
v 5.39807701 28.07765770 5.50000000
v 5.43635130 27.93087769 5.50000000
v 5.39213514 28.31055832 5.50000000
v 5.40394258 28.39026260 5.50000000
v 5.50137997 27.79383659 5.50000000
v 5.54359722 27.72970772 5.50000000
v 5.59205055 27.66887665 5.50000000
v 5.42258501 28.47043800 5.50000000
v 5.44798183 28.55073929 5.50000000
v 5.48002481 28.63082314 5.50000000
v 5.51857662 28.71034622 5.50000000
v 5.56347227 28.78896904 5.50000000
v 5.61451912 28.86635399 5.50000000
v 5.64653349 27.61160469 5.50000000
v 5.70681143 27.55813789 5.50000000
v 5.77262735 27.50870323 5.50000000
v 5.84369946 27.46351433 5.50000000
v 5.91972256 27.42276382 5.50000000
v 6.17414808 27.32878685 5.50000000
v 6.00037146 27.38662529 5.50000000
v 6.08530140 27.35525513 5.50000000
v 5.67149878 28.94217110 5.50000000
v 5.73416758 29.01609421 5.50000000
v 5.80225658 29.08780670 5.50000000
v 5.87547445 29.15700340 5.50000000
v 5.95350790 29.22338676 5.50000000
v 6.03602266 29.28667068 5.50000000
v 6.12266493 29.34658813 5.50000000
v 6.21306419 29.40287781 5.50000000
v 6.26653099 27.30733299 5.00000000
v 6.36205482 27.29098701 5.00000000
v 6.46031046 27.27981949 5.00000000
v 6.56087685 27.27387619 5.00000000
v 6.66332388 27.27318192 5.00000000
v 6.76721287 27.27774239 5.00000000
v 6.87209845 27.28753662 5.00000000
v 6.30683374 29.45530319 5.00000000
v 6.40357113 29.50363731 5.00000000
v 6.50286245 29.54767418 5.00000000
v 6.60428286 29.58722496 5.00000000
v 6.71739340 29.62500000 5.00000000
v 6.70739746 29.62211800 5.00000000
v 6.97753143 27.30252266 5.00000000
v 7.08306122 27.32263565 5.00000000
v 7.18823481 27.34779167 5.00000000
v 7.29260254 27.37788200 5.00000000
v 7.39571714 27.41277504 5.00000000
v 7.49713755 27.45232582 5.00000000
v 6.26653099 27.30733299 5.50000000
v 6.36205482 27.29098701 5.50000000
v 6.46031046 27.27981949 5.50000000
v 6.56087685 27.27387619 5.50000000
v 6.66332388 27.27318192 5.50000000
v 6.76721287 27.27774239 5.50000000
v 6.87209845 27.28753662 5.50000000
v 6.30683374 29.45530319 5.50000000
v 6.40357113 29.50363731 5.50000000
v 6.50286245 29.54767418 5.50000000
v 6.60428286 29.58722496 5.50000000
v 6.70739746 29.62211800 5.50000000
v 6.81176519 29.65220833 5.50000000
v 6.97753143 27.30252266 5.50000000
v 7.08306122 27.32263565 5.50000000
v 7.18823481 27.34779167 5.50000000
v 7.29260254 27.37788200 5.50000000
v 7.39571714 27.41277504 5.50000000
v 7.49713755 27.45232582 5.50000000
v 6.91693878 29.67736435 5.50000000
v 7.02246857 29.69747734 5.50000000
v 7.12790155 29.71246338 5.50000000
v 7.23278713 29.72225761 5.50000000
v 7.33667612 29.72681808 5.50000000
v 7.43912315 29.72612381 5.50000000
v 7.53968954 29.72018051 4.59999990
v 7.63794518 29.70901299 4.59999990
v 7.73346901 29.69266701 4.59999990
v 7.82585192 29.67121315 4.59999990
v 7.91469860 29.64474487 4.59999990
v 7.96815491 29.62500000 4.59999990
v 8.11294460 29.62500000 4.59999990
v 8.11294460 29.97500038 4.59999990
v 8.61294460 29.62500000 4.59999990
v 8.61294460 29.97500038 4.59999990
v 8.11294460 32.22499847 4.59999990
v 8.11294460 32.57500076 4.59999990
v 8.11294460 34.82500076 4.59999990
v 8.61294460 32.22499847 4.59999990
v 8.61294460 32.57500076 4.59999990
v 8.61294460 34.82500076 4.59999990
v 9.38705540 29.62500000 4.59999990
v 9.38705540 29.97500038 4.59999990
v 9.88705540 29.62500000 4.59999990
v 9.88705540 29.97500038 4.59999990
v 9.38705540 32.22499847 4.59999990
v 9.38705540 32.57500076 4.59999990
v 9.88705540 32.22499847 4.59999990
v 9.88705540 32.57500076 4.59999990
v 9.38705540 34.82500076 4.59999990
v 9.88705540 34.82500076 4.59999990
v 7.59642887 27.49636269 5.00000000
v 7.69316626 27.54469681 5.00000000
v 7.78693581 27.59712219 5.00000000
v 7.87733507 27.65341187 5.00000000
v 7.96397734 27.71332932 5.00000000
v 8.04649258 27.77661324 5.00000000
v 8.12452507 27.84299660 5.00000000
v 7.96815491 29.62500000 5.00000000
v 7.99962854 29.61337471 5.00000000
v 8.08027744 29.57723618 5.00000000
v 8.11294460 29.55972672 5.00000000
v 8.11294460 29.62500000 5.00000000
v 8.11294460 29.97500038 5.00000000
v 8.19774342 27.91219330 5.00000000
v 8.26583290 27.98390579 5.00000000
v 8.32850075 28.05782890 5.00000000
v 8.38548088 28.13364601 5.00000000
v 8.43652821 28.21103096 5.00000000
v 8.48142338 28.28965378 5.00000000
v 8.51997471 28.36917686 5.00000000
v 8.55201817 28.44926071 5.00000000
v 8.56806564 28.50000000 5.00000000
v 8.61294460 28.50000000 5.00000000
v 8.61294460 29.62500000 5.00000000
v 8.61294460 29.97500038 5.00000000
v 7.59642887 27.49636269 5.50000000
v 7.69316626 27.54469681 5.50000000
v 7.78693581 27.59712219 5.50000000
v 7.87733507 27.65341187 5.50000000
v 7.96397734 27.71332932 5.50000000
v 8.04649258 27.77661324 5.50000000
v 8.12452507 27.84299660 5.50000000
v 7.53968954 29.72018051 5.50000000
v 7.63794518 29.70901299 5.50000000
v 7.73346901 29.69266701 5.50000000
v 7.82585192 29.67121315 5.50000000
v 7.91469860 29.64474487 5.50000000
v 7.99962854 29.61337471 5.50000000
v 8.08027744 29.57723618 5.50000000
v 8.11294460 29.55972672 5.50000000
v 8.19774342 27.91219330 5.50000000
v 8.26583290 27.98390579 5.50000000
v 8.32850075 28.05782890 5.50000000
v 8.38548088 28.13364601 5.50000000
v 8.43652821 28.21103096 5.50000000
v 8.48142338 28.28965378 5.50000000
v 8.51997471 28.36917686 5.50000000
v 8.55201817 28.44926071 5.50000000
v 8.56806564 28.50000000 5.50000000
v 8.61294460 28.50000000 5.50000000
v 8.11294460 32.22499847 5.00000000
v 8.11294460 32.57500076 5.00000000
v 8.11294460 34.82500076 5.00000000
v 8.61294460 32.22499847 5.00000000
v 8.61294460 32.57500076 5.00000000
v 8.61294460 34.82500076 5.00000000
v 9.38705540 28.50000000 5.00000000
v 9.38705540 29.62500000 5.00000000
v 9.38705540 29.97500038 5.00000000
v 9.88705540 28.50000000 5.00000000
v 9.88705540 29.62500000 5.00000000
v 9.88705540 29.97500038 5.00000000
v 9.38705540 28.50000000 5.50000000
v 9.88705540 28.50000000 5.50000000
v 9.38705540 32.22499847 5.00000000
v 9.38705540 32.57500076 5.00000000
v 9.88705540 32.22499847 5.00000000
v 9.88705540 32.57500076 5.00000000
v 9.38705540 34.82500076 5.00000000
v 9.88705540 34.82500076 5.00000000
v 0.60000002 69.40000153 0.00000000
v 0.00000000 69.40000153 0.60000002
v 0.60000002 70.00000000 0.60000002
v 0.19999985 35.17499924 4.59999990
v 0.19999985 37.42499924 4.59999990
v 0.19999985 37.77500153 4.59999990
v 0.19999985 40.02500153 4.59999990
v 0.19999985 40.37500000 4.59999990
v 0.60000002 35.17499924 5.00000000
v 0.60000002 37.42499924 5.00000000
v 0.60000002 37.77500153 5.00000000
v 0.60000002 40.02500153 5.00000000
v 0.60000002 40.37500000 5.00000000
v 0.00000000 69.40000153 4.40000010
v 0.60000002 70.00000000 4.40000010
v 0.60000002 69.40000153 5.00000000
v 8.11294460 35.17499924 4.59999990
v 8.11294460 37.42499924 4.59999990
v 8.11294460 37.59999847 4.59999990
v 8.61294460 35.17499924 4.59999990
v 8.61294460 37.42499924 4.59999990
v 8.61294460 37.59999847 4.59999990
v 9.38705540 35.17499924 4.59999990
v 9.88705540 35.17499924 4.59999990
v 9.38705540 37.42499924 4.59999990
v 9.38705540 37.59999847 4.59999990
v 9.43193436 37.59999847 4.59999990
v 9.44798183 37.65073776 4.59999990
v 9.48002529 37.73082352 4.59999990
v 9.50144291 37.77500153 4.59999990
v 8.11294460 35.17499924 5.00000000
v 8.11294460 37.42499924 5.00000000
v 8.61294460 35.17499924 5.00000000
v 8.61294460 37.42499924 5.00000000
v 8.11294460 37.59999847 5.50000000
v 8.61294460 37.59999847 5.50000000
v 8.53125000 40.37500000 5.00000000
v 9.38705540 35.17499924 5.00000000
v 9.88705540 35.17499924 5.00000000
v 9.88705540 36.54027176 5.00000000
v 9.91972256 36.52276230 5.00000000
v 9.38705540 37.42499924 5.00000000
v 9.50144291 37.77500153 5.00000000
v 9.51857662 37.81034470 5.00000000
v 9.56347179 37.88896942 5.00000000
v 9.61451912 37.96635437 5.00000000
v 9.67149925 38.04217148 5.00000000
v 9.73416710 38.11609268 5.00000000
v 9.80225658 38.18780518 5.00000000
v 9.87547493 38.25700378 5.00000000
v 9.95350742 38.32338715 5.00000000
v 9.88705540 36.54027176 5.50000000
v 9.91972256 36.52276230 5.50000000
v 9.38705540 37.59999847 5.50000000
v 9.43193436 37.59999847 5.50000000
v 9.44798183 37.65073776 5.50000000
v 9.48002529 37.73082352 5.50000000
v 9.51857662 37.81034470 5.50000000
v 9.56347179 37.88896942 5.50000000
v 9.61451912 37.96635437 5.50000000
v 9.67149925 38.04217148 5.50000000
v 9.73416710 38.11609268 5.50000000
v 9.80225658 38.18780518 5.50000000
v 9.87547493 38.25700378 5.50000000
v 9.95350742 38.32338715 5.50000000
v 6.50000000 56.50000000 4.59999990
v 7.15000010 56.50000000 4.59999990
v 6.50000000 56.50000000 5.00000000
v 6.50000000 65.50000000 4.59999990
v 7.15000010 65.50000000 4.59999990
v 6.50000000 65.50000000 5.00000000
v 7.80000019 56.52386093 4.59999990
v 7.80000019 56.50000000 4.59999990
v 7.98751545 56.53931046 4.59999990
v 8.19517612 56.56137466 4.59999990
v 8.40169334 56.58829117 4.59999990
v 8.60684204 56.62002945 4.59999990
v 7.80000019 57.82677078 4.59999990
v 7.81605530 57.82795334 4.59999990
v 7.98120260 57.84364319 4.59999990
v 8.14544106 57.86278534 4.59999990
v 8.30859089 57.88535309 4.59999990
v 8.47047329 57.91133118 4.59999990
v 8.63091278 57.94068527 4.59999990
v 8.81039810 56.65655899 4.59999990
v 9.01213741 56.69783783 4.59999990
v 9.21184158 56.74382401 4.59999990
v 9.40929127 56.79446030 4.59999990
v 9.60426998 56.84969711 4.59999990
v 8.78973198 57.97338486 4.59999990
v 8.94675922 58.00939560 4.59999990
v 9.10182095 58.04867172 4.59999990
v 9.25474834 58.09117889 4.59999990
v 9.40537453 58.13686752 4.59999990
v 9.55353451 58.18568420 4.59999990
v 9.79656506 56.90946960 4.59999990
v 9.98596573 56.97371674 4.59999990
v 9.69906616 58.23757935 4.59999990
v 9.84181023 58.29249573 4.59999990
v 9.98161125 58.35037231 4.59999990
v 7.80000019 56.50000000 5.00000000
v 7.80000019 56.52386093 5.00000000
v 7.98751545 56.53931046 5.00000000
v 8.19517612 56.56137466 5.00000000
v 8.40169334 56.58829117 5.00000000
v 8.60684204 56.62002945 5.00000000
v 7.80000019 57.82677078 5.00000000
v 7.81605530 57.82795334 5.00000000
v 7.98120260 57.84364319 5.00000000
v 8.14544106 57.86278534 5.00000000
v 8.30859089 57.88535309 5.00000000
v 8.47047329 57.91133118 5.00000000
v 8.63091278 57.94068527 5.00000000
v 8.81039810 56.65655899 5.00000000
v 9.01213741 56.69783783 5.00000000
v 9.21184158 56.74382401 5.00000000
v 9.40929127 56.79446030 5.00000000
v 9.60426998 56.84969711 5.00000000
v 8.78973198 57.97338486 5.00000000
v 8.94675922 58.00939560 5.00000000
v 9.10182095 58.04867172 5.00000000
v 9.25474834 58.09117889 5.00000000
v 9.40537453 58.13686752 5.00000000
v 9.55353451 58.18568420 5.00000000
v 9.79656506 56.90946960 5.00000000
v 9.98596573 56.97371674 5.00000000
v 9.69906616 58.23757935 5.00000000
v 9.84181023 58.29249573 5.00000000
v 9.98161125 58.35037231 5.00000000
v 7.80000019 64.17322540 4.59999990
v 7.80000019 65.47613525 4.59999990
v 7.80000019 65.50000000 4.59999990
v 7.81605530 64.17204285 4.59999990
v 7.98120260 64.15635681 4.59999990
v 7.98751545 65.46068573 4.59999990
v 8.14544106 64.13721466 4.59999990
v 8.30859089 64.11464691 4.59999990
v 8.19517612 65.43862915 4.59999990
v 8.40169334 65.41171265 4.59999990
v 8.47047329 64.08866882 4.59999990
v 8.63091278 64.05931091 4.59999990
v 8.60684204 65.37996674 4.59999990
v 8.78973198 64.02661896 4.59999990
v 8.94675922 63.99060440 4.59999990
v 8.81039810 65.34343719 4.59999990
v 9.01213741 65.30216217 4.59999990
v 9.10182095 63.95132828 4.59999990
v 9.25474834 63.90882111 4.59999990
v 9.21184158 65.25617981 4.59999990
v 9.40537453 63.86313248 4.59999990
v 9.55353451 63.81431580 4.59999990
v 9.40929127 65.20554352 4.59999990
v 9.60426998 65.15030670 4.59999990
v 9.69906616 63.76242065 4.59999990
v 9.84181023 63.70750427 4.59999990
v 9.98161125 63.64962769 4.59999990
v 9.79656506 65.09053040 4.59999990
v 9.98596573 65.02628326 4.59999990
v 7.80000019 64.17322540 5.00000000
v 7.80000019 65.47613525 5.00000000
v 7.80000019 65.50000000 5.00000000
v 7.81605530 64.17204285 5.00000000
v 7.98120260 64.15635681 5.00000000
v 7.98751545 65.46068573 5.00000000
v 8.14544106 64.13721466 5.00000000
v 8.30859089 64.11464691 5.00000000
v 8.19517612 65.43862915 5.00000000
v 8.40169334 65.41171265 5.00000000
v 8.47047329 64.08866882 5.00000000
v 8.63091278 64.05931091 5.00000000
v 8.60684204 65.37996674 5.00000000
v 8.78973198 64.02661896 5.00000000
v 8.94675922 63.99060440 5.00000000
v 8.81039810 65.34343719 5.00000000
v 9.01213741 65.30216217 5.00000000
v 9.10182095 63.95132828 5.00000000
v 9.25474834 63.90882111 5.00000000
v 9.21184158 65.25617981 5.00000000
v 9.40537453 63.86313248 5.00000000
v 9.55353451 63.81431580 5.00000000
v 9.40929127 65.20554352 5.00000000
v 9.60426998 65.15030670 5.00000000
v 9.69906616 63.76242065 5.00000000
v 9.84181023 63.70750427 5.00000000
v 9.98161125 63.64962769 5.00000000
v 9.79656506 65.09053040 5.00000000
v 9.98596573 65.02628326 5.00000000
v 19.39999962 0.60000002 0.00000000
v 19.39999962 0.00000000 0.60000002
v 20.00000000 0.60000002 0.60000002
v 19.39999962 0.00000000 4.40000010
v 20.00000000 0.60000002 4.40000010
v 19.39999962 0.60000002 5.00000000
v 19.79999924 29.62500000 4.59999990
v 19.79999924 29.97500038 4.59999990
v 19.79999924 32.22499847 4.59999990
v 19.79999924 32.57500076 4.59999990
v 19.79999924 34.82500076 4.59999990
v 19.39999962 29.62500000 5.00000000
v 19.39999962 29.97500038 5.00000000
v 19.39999962 32.22499847 5.00000000
v 19.39999962 32.57500076 5.00000000
v 19.39999962 34.82500076 5.00000000
v 19.39999962 69.40000153 0.00000000
v 19.39999962 70.00000000 0.60000002
v 20.00000000 69.40000153 0.60000002
v 12.49855709 37.42499924 4.59999990
v 10.00037193 36.48662567 5.00000000
v 10.08530140 36.45525360 5.00000000
v 10.17414761 36.42878723 5.00000000
v 10.26653099 36.40733337 5.00000000
v 10.36205482 36.39098740 5.00000000
v 10.46030998 36.37981796 5.00000000
v 10.56087685 36.37387466 5.00000000
v 10.03602219 38.38666916 5.00000000
v 10.12266541 38.44658661 5.00000000
v 10.21306419 38.50288010 5.00000000
v 10.30683327 38.55530167 5.00000000
v 10.40357113 38.60363770 5.00000000
v 10.50286198 38.64767456 5.00000000
v 10.60428238 38.68722534 5.00000000
v 10.66332436 36.37318039 5.00000000
v 10.76721287 36.37774277 5.00000000
v 10.87209797 36.38753510 5.00000000
v 10.97753143 36.40252304 5.00000000
v 11.08306122 36.42263794 5.00000000
v 11.18823433 36.44779205 5.00000000
v 10.70739746 38.72211838 5.00000000
v 10.81176567 38.75220871 5.00000000
v 10.91693878 38.77736282 5.00000000
v 11.02246857 38.79747772 5.00000000
v 11.12790203 38.81246185 5.00000000
v 11.23278713 38.82225800 5.00000000
v 10.00037193 36.48662567 5.50000000
v 10.08530140 36.45525360 5.50000000
v 10.17414761 36.42878723 5.50000000
v 10.26653099 36.40733337 5.50000000
v 10.36205482 36.39098740 5.50000000
v 10.46030998 36.37981796 5.50000000
v 10.56087685 36.37387466 5.50000000
v 10.03602219 38.38666916 5.50000000
v 10.12266541 38.44658661 5.50000000
v 10.21306419 38.50288010 5.50000000
v 10.30683327 38.55530167 5.50000000
v 10.40357113 38.60363770 5.50000000
v 10.50286198 38.64767456 5.50000000
v 10.60428238 38.68722534 5.50000000
v 10.66332436 36.37318039 5.50000000
v 10.76721287 36.37774277 5.50000000
v 10.87209797 36.38753510 5.50000000
v 10.97753143 36.40252304 5.50000000
v 11.08306122 36.42263794 5.50000000
v 11.18823433 36.44779205 5.50000000
v 10.70739746 38.72211838 5.50000000
v 10.81176567 38.75220871 5.50000000
v 10.91693878 38.77736282 5.50000000
v 11.02246857 38.79747772 5.50000000
v 11.12790203 38.81246185 5.50000000
v 11.23278713 38.82225800 5.50000000
v 11.29260254 36.47788239 5.00000000
v 11.39571762 36.51277542 5.00000000
v 11.49713802 36.55232620 5.00000000
v 11.59642887 36.59636307 5.00000000
v 11.69316673 36.64469528 5.00000000
v 11.78693581 36.69712067 5.00000000
v 11.33667564 38.82681656 5.00000000
v 11.43912315 38.82612610 5.00000000
v 11.53969002 38.82018280 5.00000000
v 11.63794518 38.80901337 5.00000000
v 11.73346901 38.79266739 5.00000000
v 11.82585239 38.77121353 5.00000000
v 11.87733459 36.75341415 5.00000000
v 11.96397781 36.81332779 5.00000000
v 12.04649258 36.87661362 5.00000000
v 12.12452507 36.94299698 5.00000000
v 12.19774342 37.01219177 5.00000000
v 12.26583290 37.08390427 5.00000000
v 12.32850075 37.15782928 5.00000000
v 11.91469860 38.74474335 5.00000000
v 11.99962807 38.71337509 5.00000000
v 12.08027744 38.67723846 5.00000000
v 12.15630054 38.63648605 5.00000000
v 12.38548088 37.23364639 5.00000000
v 12.43652821 37.31103134 5.00000000
v 12.48142338 37.38965607 5.00000000
v 12.49855709 37.42499924 5.00000000
v 12.22737217 38.59129715 5.00000000
v 12.29318810 38.54186249 5.00000000
v 12.35346699 38.48839569 5.00000000
v 12.40794945 38.43112183 5.00000000
v 12.45640278 38.37029266 5.00000000
v 12.49862003 38.30616379 5.00000000
v 11.29260254 36.47788239 5.50000000
v 11.39571762 36.51277542 5.50000000
v 11.49713802 36.55232620 5.50000000
v 11.59642887 36.59636307 5.50000000
v 11.69316673 36.64469528 5.50000000
v 11.78693581 36.69712067 5.50000000
v 11.33667564 38.82681656 5.50000000
v 11.43912315 38.82612610 5.50000000
v 11.53969002 38.82018280 5.50000000
v 11.63794518 38.80901337 5.50000000
v 11.73346901 38.79266739 5.50000000
v 11.82585239 38.77121353 5.50000000
v 11.87733459 36.75341415 5.50000000
v 11.96397781 36.81332779 5.50000000
v 12.04649258 36.87661362 5.50000000
v 12.12452507 36.94299698 5.50000000
v 12.19774342 37.01219177 5.50000000
v 12.26583290 37.08390427 5.50000000
v 12.32850075 37.15782928 5.50000000
v 11.91469860 38.74474335 5.50000000
v 11.99962807 38.71337509 5.50000000
v 12.08027744 38.67723846 5.50000000
v 12.15630054 38.63648605 5.50000000
v 12.38548088 37.23364639 5.50000000
v 12.43652821 37.31103134 5.50000000
v 12.48142338 37.38965607 5.50000000
v 12.22737217 38.59129715 5.50000000
v 12.29318810 38.54186249 5.50000000
v 12.35346699 38.48839569 5.50000000
v 12.40794945 38.43112183 5.50000000
v 12.45640278 38.37029266 5.50000000
v 12.49862003 38.30616379 5.50000000
v 12.39999962 42.54999924 5.00000000
v 12.39999962 43.04999924 5.00000000
v 12.39999962 42.54999924 5.50000000
v 12.39999962 43.04999924 5.50000000
v 12.39999962 45.15000153 5.00000000
v 12.39999962 45.65000153 5.00000000
v 12.39999962 45.15000153 5.50000000
v 12.39999962 45.65000153 5.50000000
v 12.51997471 37.46917725 4.59999990
v 12.55201817 37.54926300 4.59999990
v 12.57741547 37.62956238 4.59999990
v 12.59605694 37.70973587 4.59999990
v 12.60572624 37.77500153 4.59999990
v 13.38705540 37.59999847 4.59999990
v 13.38705540 37.77500153 4.59999990
v 13.38705540 40.02500153 4.59999990
v 13.38705540 40.37500000 4.59999990
v 13.88705540 37.59999847 4.59999990
v 13.88705540 37.77500153 4.59999990
v 13.88705540 40.02500153 4.59999990
v 13.88705540 40.37500000 4.59999990
v 12.53441906 38.23900986 5.00000000
v 12.56364822 38.16912079 5.00000000
v 12.60572624 37.77500153 5.00000000
v 12.60786533 37.78944016 5.00000000
v 12.61278725 37.86833572 5.00000000
v 12.61080360 37.94607925 5.00000000
v 12.58618164 38.09679413 5.00000000
v 12.60192299 38.02234268 5.00000000
v 13.38705540 37.77500153 5.00000000
v 12.51997471 37.46917725 5.50000000
v 12.55201817 37.54926300 5.50000000
v 12.57741547 37.62956238 5.50000000
v 12.59605694 37.70973587 5.50000000
v 12.53441906 38.23900986 5.50000000
v 12.56364822 38.16912079 5.50000000
v 12.60786533 37.78944016 5.50000000
v 12.61278725 37.86833572 5.50000000
v 12.61080360 37.94607925 5.50000000
v 12.58618164 38.09679413 5.50000000
v 12.60192299 38.02234268 5.50000000
v 13.38705540 37.59999847 5.50000000
v 13.38705540 40.02500153 5.00000000
v 13.38705540 40.37500000 5.00000000
v 13.38705540 42.54999924 5.00000000
v 13.38705540 43.04999924 5.00000000
v 13.38705540 42.54999924 5.50000000
v 13.38705540 43.04999924 5.50000000
v 13.88705540 37.77500153 5.00000000
v 13.88705540 37.59999847 5.50000000
v 13.88705540 40.02500153 5.00000000
v 13.88705540 40.37500000 5.00000000
v 13.88705540 42.54999924 5.00000000
v 13.88705540 43.04999924 5.00000000
v 13.88705540 42.54999924 5.50000000
v 13.88705540 43.04999924 5.50000000
v 13.38705540 45.15000153 5.00000000
v 13.38705540 45.65000153 5.00000000
v 13.38705540 46.70000076 5.00000000
v 13.43193436 46.70000076 5.00000000
v 13.44798183 46.75074005 5.00000000
v 13.48002529 46.83082199 5.00000000
v 13.51857662 46.91034698 5.00000000
v 13.56347179 46.98896790 5.00000000
v 13.61451912 47.06635284 5.00000000
v 13.67149925 47.14216995 5.00000000
v 13.73416710 47.21609497 5.00000000
v 13.38705540 45.15000153 5.50000000
v 13.38705540 45.65000153 5.50000000
v 13.38705540 46.70000076 5.50000000
v 13.43193436 46.70000076 5.50000000
v 13.44798183 46.75074005 5.50000000
v 13.48002529 46.83082199 5.50000000
v 13.51857662 46.91034698 5.50000000
v 13.56347179 46.98896790 5.50000000
v 13.61451912 47.06635284 5.50000000
v 13.67149925 47.14216995 5.50000000
v 13.73416710 47.21609497 5.50000000
v 13.88705540 45.15000153 5.00000000
v 13.80225658 47.28780746 5.00000000
v 13.87547493 47.35700226 5.00000000
v 13.95350742 47.42338562 5.00000000
v 14.03602219 47.48667145 5.00000000
v 14.12266541 47.54658890 5.00000000
v 14.21306419 47.60287857 5.00000000
v 14.30683327 47.65530396 5.00000000
v 14.40357113 47.70363617 5.00000000
v 14.50286198 47.74767303 5.00000000
v 14.60428238 47.78722382 5.00000000
v 14.70739746 47.82212067 5.00000000
v 14.81176567 47.85220718 5.00000000
v 14.91693878 47.87736511 5.00000000
v 13.88705540 45.15000153 5.50000000
v 13.80225658 47.28780746 5.50000000
v 13.87547493 47.35700226 5.50000000
v 13.95350742 47.42338562 5.50000000
v 14.03602219 47.48667145 5.50000000
v 14.12266541 47.54658890 5.50000000
v 14.21306419 47.60287857 5.50000000
v 14.30683327 47.65530396 5.50000000
v 14.40357113 47.70363617 5.50000000
v 14.50286198 47.74767303 5.50000000
v 14.60428238 47.78722382 5.50000000
v 14.70739746 47.82212067 5.50000000
v 14.81176567 47.85220718 5.50000000
v 14.91693878 47.87736511 5.50000000
v 10.17226601 57.04236984 4.59999990
v 10.11831570 58.41114426 4.59999990
v 10.25177383 58.47475052 4.59999990
v 10.35526085 57.11534500 4.59999990
v 10.53475189 57.19256973 4.59999990
v 10.38184071 58.54111481 4.59999990
v 10.50837421 58.61017227 4.59999990
v 10.71054077 57.27396011 4.59999990
v 10.88243675 57.35942459 4.59999990
v 10.63123512 58.68183899 4.59999990
v 10.75028896 58.75604248 4.59999990
v 10.86540604 58.83269882 4.59999990
v 11.05025101 57.44886780 4.59999990
v 11.21380043 57.54219437 4.59999990
v 10.97646046 58.91172409 4.59999990
v 11.08333015 58.99303436 4.59999990
v 11.18589973 59.07654190 4.59999990
v 11.37290573 57.63930511 4.59999990
v 11.52739429 57.74008560 4.59999990
v 11.67709541 57.84443283 4.59999990
v 11.82184696 57.95223236 4.59999990
v 11.28405571 59.16214752 4.59999990
v 11.37769032 59.24976730 4.59999990
v 11.46670341 59.33929825 4.59999990
v 11.55099583 59.43064499 4.59999990
v 11.63047504 59.52370834 4.59999990
v 11.70505524 59.61838531 4.59999990
v 11.77465534 59.71457291 4.59999990
v 11.83919811 59.81216812 4.59999990
v 11.96148968 58.06336594 4.59999990
v 12.09587097 58.17770767 4.59999990
v 12.22484398 58.29513550 4.59999990
v 12.34826756 58.41551971 4.59999990
v 12.46600723 58.53873444 4.59999990
v 11.89861298 59.91106033 4.59999990
v 11.95283508 60.01114655 4.59999990
v 12.00180626 60.11231232 4.59999990
v 12.04547119 60.21444702 4.59999990
v 12.08378315 60.31744003 4.59999990
v 12.11670017 60.42118073 4.59999990
v 12.14418697 60.52555466 4.59999990
v 12.16621208 60.63044739 4.59999990
v 12.18275166 60.73574448 4.59999990
v 12.19378853 60.84133148 4.59999990
v 12.19930935 60.94709015 4.59999990
v 12.19930935 61.05290985 4.59999990
v 12.19378853 61.15866852 4.59999990
v 10.17226601 57.04236984 5.00000000
v 10.11831570 58.41114426 5.00000000
v 10.25177383 58.47475052 5.00000000
v 10.35526085 57.11534500 5.00000000
v 10.53475189 57.19256973 5.00000000
v 10.38184071 58.54111481 5.00000000
v 10.50837421 58.61017227 5.00000000
v 10.71054077 57.27396011 5.00000000
v 10.88243675 57.35942459 5.00000000
v 10.63123512 58.68183899 5.00000000
v 10.75028896 58.75604248 5.00000000
v 10.86540604 58.83269882 5.00000000
v 11.05025101 57.44886780 5.00000000
v 11.21380043 57.54219437 5.00000000
v 10.97646046 58.91172409 5.00000000
v 11.08333015 58.99303436 5.00000000
v 11.18589973 59.07654190 5.00000000
v 11.37290573 57.63930511 5.00000000
v 11.52739429 57.74008560 5.00000000
v 11.67709541 57.84443283 5.00000000
v 11.82184696 57.95223236 5.00000000
v 11.28405571 59.16214752 5.00000000
v 11.37769032 59.24976730 5.00000000
v 11.46670341 59.33929825 5.00000000
v 11.55099583 59.43064499 5.00000000
v 11.63047504 59.52370834 5.00000000
v 11.70505524 59.61838531 5.00000000
v 11.77465534 59.71457291 5.00000000
v 11.83919811 59.81216812 5.00000000
v 11.96148968 58.06336594 5.00000000
v 12.09587097 58.17770767 5.00000000
v 12.22484398 58.29513550 5.00000000
v 12.34826756 58.41551971 5.00000000
v 12.46600723 58.53873444 5.00000000
v 11.89861298 59.91106033 5.00000000
v 11.95283508 60.01114655 5.00000000
v 12.00180626 60.11231232 5.00000000
v 12.04547119 60.21444702 5.00000000
v 12.08378315 60.31744003 5.00000000
v 12.11670017 60.42118073 5.00000000
v 12.14418697 60.52555466 5.00000000
v 12.16621208 60.63044739 5.00000000
v 12.18275166 60.73574448 5.00000000
v 12.19378853 60.84133148 5.00000000
v 12.19930935 60.94709015 5.00000000
v 12.19930935 61.05290985 5.00000000
v 12.19378853 61.15866852 5.00000000
v 10.50837421 63.38982773 4.59999990
v 10.11831570 63.58885574 4.59999990
v 10.25177383 63.52524948 4.59999990
v 10.17226601 64.95763397 4.59999990
v 10.38184071 63.45888519 4.59999990
v 10.35526085 64.88465118 4.59999990
v 10.53475189 64.80742645 4.59999990
v 10.63123512 63.31816101 4.59999990
v 10.75028896 63.24395752 4.59999990
v 10.86540604 63.16730118 4.59999990
v 10.97646046 63.08827591 4.59999990
v 11.08333015 63.00696564 4.59999990
v 11.18589973 62.92345810 4.59999990
v 10.71054077 64.72603607 4.59999990
v 10.88243675 64.64057922 4.59999990
v 11.21380043 64.45780182 4.59999990
v 11.05025101 64.55113220 4.59999990
v 11.28405571 62.83785248 4.59999990
v 11.37769032 62.75023270 4.59999990
v 11.46670341 62.66070175 4.59999990
v 11.55099583 62.56935501 4.59999990
v 11.77465534 62.28542709 4.59999990
v 11.83919811 62.18783188 4.59999990
v 11.63047504 62.47629166 4.59999990
v 11.70505524 62.38161469 4.59999990
v 11.37290573 64.36069489 4.59999990
v 11.52739429 64.25991058 4.59999990
v 11.67709541 64.15556335 4.59999990
v 11.82184696 64.04776764 4.59999990
v 11.95283508 61.98885345 4.59999990
v 11.89861298 62.08893967 4.59999990
v 12.00180626 61.88768768 4.59999990
v 12.04547119 61.78555298 4.59999990
v 12.08378315 61.68255997 4.59999990
v 12.14418697 61.47444534 4.59999990
v 12.16621208 61.36955261 4.59999990
v 12.18275166 61.26425552 4.59999990
v 12.11670017 61.57881927 4.59999990
v 11.96148968 63.93663406 4.59999990
v 12.09587097 63.82229233 4.59999990
v 12.22484398 63.70486450 4.59999990
v 12.34826756 63.58448029 4.59999990
v 12.46600723 63.46126556 4.59999990
v 10.50837421 63.38982773 5.00000000
v 10.11831570 63.58885574 5.00000000
v 10.25177383 63.52524948 5.00000000
v 10.17226601 64.95763397 5.00000000
v 10.38184071 63.45888519 5.00000000
v 10.35526085 64.88465118 5.00000000
v 10.53475189 64.80742645 5.00000000
v 10.63123512 63.31816101 5.00000000
v 10.75028896 63.24395752 5.00000000
v 10.86540604 63.16730118 5.00000000
v 10.97646046 63.08827591 5.00000000
v 11.08333015 63.00696564 5.00000000
v 11.18589973 62.92345810 5.00000000
v 10.71054077 64.72603607 5.00000000
v 10.88243675 64.64057922 5.00000000
v 11.21380043 64.45780182 5.00000000
v 11.05025101 64.55113220 5.00000000
v 11.28405571 62.83785248 5.00000000
v 11.37769032 62.75023270 5.00000000
v 11.46670341 62.66070175 5.00000000
v 11.55099583 62.56935501 5.00000000
v 11.77465534 62.28542709 5.00000000
v 11.83919811 62.18783188 5.00000000
v 11.63047504 62.47629166 5.00000000
v 11.70505524 62.38161469 5.00000000
v 11.37290573 64.36069489 5.00000000
v 11.52739429 64.25991058 5.00000000
v 11.67709541 64.15556335 5.00000000
v 11.82184696 64.04776764 5.00000000
v 11.95283508 61.98885345 5.00000000
v 11.89861298 62.08893967 5.00000000
v 12.00180626 61.88768768 5.00000000
v 12.04547119 61.78555298 5.00000000
v 12.08378315 61.68255997 5.00000000
v 12.14418697 61.47444534 5.00000000
v 12.16621208 61.36955261 5.00000000
v 12.18275166 61.26425552 5.00000000
v 12.11670017 61.57881927 5.00000000
v 11.96148968 63.93663406 5.00000000
v 12.09587097 63.82229233 5.00000000
v 12.22484398 63.70486450 5.00000000
v 12.34826756 63.58448029 5.00000000
v 12.46600723 63.46126556 5.00000000
v 12.57793331 58.66463852 4.59999990
v 12.68392467 58.79309464 4.59999990
v 12.78386497 58.92396545 4.59999990
v 12.87764454 59.05710602 4.59999990
v 12.96516037 59.19237137 4.59999990
v 13.04631805 59.32961273 4.59999990
v 13.12102795 59.46868134 4.59999990
v 13.18920898 59.60942459 4.59999990
v 13.25078583 59.75168610 4.59999990
v 13.30569172 59.89531708 4.59999990
v 13.35386658 60.04015350 4.59999990
v 13.39525700 60.18603897 4.59999990
v 13.42981911 60.33281326 4.59999990
v 13.45751381 60.48031998 4.59999990
v 13.47831154 60.62839127 4.59999990
v 13.49218941 60.77687454 4.59999990
v 13.49913216 60.92559814 4.59999990
v 13.49913216 61.07440186 4.59999990
v 13.49218941 61.22312546 4.59999990
v 12.57793331 58.66463852 5.00000000
v 12.68392467 58.79309464 5.00000000
v 12.78386497 58.92396545 5.00000000
v 12.87764454 59.05710602 5.00000000
v 12.96516037 59.19237137 5.00000000
v 13.04631805 59.32961273 5.00000000
v 13.12102795 59.46868134 5.00000000
v 13.18920898 59.60942459 5.00000000
v 13.25078583 59.75168610 5.00000000
v 13.30569172 59.89531708 5.00000000
v 13.35386658 60.04015350 5.00000000
v 13.39525700 60.18603897 5.00000000
v 13.42981911 60.33281326 5.00000000
v 13.45751381 60.48031998 5.00000000
v 13.47831154 60.62839127 5.00000000
v 13.49218941 60.77687454 5.00000000
v 13.49913216 60.92559814 5.00000000
v 13.49913216 61.07440186 5.00000000
v 13.49218941 61.22312546 5.00000000
v 12.57793331 63.33536148 4.59999990
v 12.68392467 63.20690536 4.59999990
v 12.78386497 63.07603455 4.59999990
v 12.96516037 62.80762863 4.59999990
v 12.87764454 62.94289398 4.59999990
v 13.04631805 62.67038727 4.59999990
v 13.12102795 62.53131866 4.59999990
v 13.25078583 62.24831390 4.59999990
v 13.42981911 61.66718674 4.59999990
v 13.35386658 61.95984650 4.59999990
v 13.30569172 62.10468292 4.59999990
v 13.39525700 61.81396103 4.59999990
v 13.18920898 62.39057541 4.59999990
v 13.45751381 61.51968002 4.59999990
v 13.47831154 61.37160873 4.59999990
v 12.57793331 63.33536148 5.00000000
v 12.68392467 63.20690536 5.00000000
v 12.78386497 63.07603455 5.00000000
v 12.96516037 62.80762863 5.00000000
v 12.87764454 62.94289398 5.00000000
v 13.04631805 62.67038727 5.00000000
v 13.12102795 62.53131866 5.00000000
v 13.25078583 62.24831390 5.00000000
v 13.42981911 61.66718674 5.00000000
v 13.35386658 61.95984650 5.00000000
v 13.30569172 62.10468292 5.00000000
v 13.39525700 61.81396103 5.00000000
v 13.18920898 62.39057541 5.00000000
v 13.45751381 61.51968002 5.00000000
v 13.47831154 61.37160873 5.00000000
v 15.49713802 45.65232468 5.00000000
v 15.49117374 45.65000153 5.00000000
v 15.59642887 45.69636154 5.00000000
v 15.02246857 47.89747620 5.00000000
v 15.12790203 47.91246414 5.00000000
v 15.23278713 47.92225647 5.00000000
v 15.33667564 47.92681885 5.00000000
v 15.43912315 47.92612457 5.00000000
v 15.53969002 47.92018127 5.00000000
v 15.69316673 45.74469757 5.00000000
v 15.78693581 45.79712296 5.00000000
v 15.87733459 45.85341263 5.00000000
v 15.96397781 45.91333008 5.00000000
v 15.63794518 47.90901184 5.00000000
v 15.73346901 47.89266586 5.00000000
v 15.82585239 47.87121201 5.00000000
v 15.91469860 47.84474564 5.00000000
v 16.04649162 45.97661591 5.00000000
v 16.12452507 46.04299545 5.00000000
v 16.19774437 46.11219406 5.00000000
v 15.99962807 47.81337357 5.00000000
v 16.08027840 47.77723694 5.00000000
v 16.15630150 47.73648453 5.00000000
v 16.22737312 47.69129562 5.00000000
v 15.49713802 45.65232468 5.50000000
v 15.49117374 45.65000153 5.50000000
v 15.59642887 45.69636154 5.50000000
v 15.02246857 47.89747620 5.50000000
v 15.12790203 47.91246414 5.50000000
v 15.23278713 47.92225647 5.50000000
v 15.33667564 47.92681885 5.50000000
v 15.43912315 47.92612457 5.50000000
v 15.53969002 47.92018127 5.50000000
v 15.69316673 45.74469757 5.50000000
v 15.78693581 45.79712296 5.50000000
v 15.87733459 45.85341263 5.50000000
v 15.96397781 45.91333008 5.50000000
v 15.63794518 47.90901184 5.50000000
v 15.73346901 47.89266586 5.50000000
v 15.82585239 47.87121201 5.50000000
v 15.91469860 47.84474564 5.50000000
v 16.04649162 45.97661591 5.50000000
v 16.12452507 46.04299545 5.50000000
v 16.19774437 46.11219406 5.50000000
v 15.99962807 47.81337357 5.50000000
v 16.08027840 47.77723694 5.50000000
v 16.15630150 47.73648453 5.50000000
v 16.22737312 47.69129562 5.50000000
v 16.26583290 46.18390656 5.00000000
v 16.32850075 46.25782776 5.00000000
v 16.38548088 46.33364487 5.00000000
v 16.43652725 46.41102982 5.00000000
v 16.48142242 46.48965454 5.00000000
v 16.51997566 46.56917953 5.00000000
v 16.55201721 46.64926147 5.00000000
v 16.29318810 47.64186096 5.00000000
v 16.35346603 47.58839417 5.00000000
v 16.40794945 47.53112411 5.00000000
v 16.45640373 47.47029114 5.00000000
v 16.49861908 47.40616226 5.00000000
v 16.53442001 47.33901215 5.00000000
v 16.57741547 46.72956085 5.00000000
v 16.59605789 46.80973816 5.00000000
v 16.60786438 46.88944244 5.00000000
v 16.61278725 46.96833420 5.00000000
v 16.56364822 47.26912308 5.00000000
v 16.58618164 47.19679642 5.00000000
v 16.61080360 47.04607773 5.00000000
v 16.60192299 47.12234116 5.00000000
v 16.26583290 46.18390656 5.50000000
v 16.32850075 46.25782776 5.50000000
v 16.38548088 46.33364487 5.50000000
v 16.43652725 46.41102982 5.50000000
v 16.48142242 46.48965454 5.50000000
v 16.51997566 46.56917953 5.50000000
v 16.55201721 46.64926147 5.50000000
v 16.29318810 47.64186096 5.50000000
v 16.35346603 47.58839417 5.50000000
v 16.40794945 47.53112411 5.50000000
v 16.45640373 47.47029114 5.50000000
v 16.49861908 47.40616226 5.50000000
v 16.53442001 47.33901215 5.50000000
v 16.57741547 46.72956085 5.50000000
v 16.59605789 46.80973816 5.50000000
v 16.60786438 46.88944244 5.50000000
v 16.61278725 46.96833420 5.50000000
v 16.56364822 47.26912308 5.50000000
v 16.58618164 47.19679642 5.50000000
v 16.61080360 47.04607773 5.50000000
v 16.60192299 47.12234116 5.50000000
v 19.79999924 35.17499924 4.59999990
v 19.79999924 37.42499924 4.59999990
v 19.79999924 37.77500153 4.59999990
v 19.79999924 40.02500153 4.59999990
v 19.79999924 40.37500000 4.59999990
v 17.60000038 42.54999924 5.00000000
v 17.60000038 43.04999924 5.00000000
v 17.60000038 42.54999924 5.50000000
v 17.60000038 43.04999924 5.50000000
v 19.39999962 35.17499924 5.00000000
v 19.39999962 37.42499924 5.00000000
v 19.39999962 37.77500153 5.00000000
v 19.39999962 40.02500153 5.00000000
v 19.39999962 40.37500000 5.00000000
v 17.60000038 45.15000153 5.00000000
v 17.60000038 45.65000153 5.00000000
v 17.60000038 45.15000153 5.50000000
v 17.60000038 45.65000153 5.50000000
v 19.39999962 70.00000000 4.40000010
v 20.00000000 69.40000153 4.40000010
v 19.39999962 69.40000153 5.00000000
f 1 3 2
f 2 3 5
f 1 2 231
f 2 4 232
f 1 419 3
f 1 231 418
f 2 5 4
f 4 5 6
f 4 6 7
f 6 12 7
f 4 7 244
f 8 13 9
f 10 15 11
f 7 17 8
f 13 14 9
f 11 15 16
f 7 12 17
f 9 146 10
f 9 14 145
f 11 16 147
f 8 17 18
f 8 18 19
f 8 19 20
f 8 20 21
f 8 21 22
f 8 22 23
f 8 23 24
f 8 173 13
f 10 212 15
f 13 211 14
f 15 213 16
f 12 28 29
f 12 30 28
f 12 29 26
f 12 26 27
f 12 31 32
f 12 27 31
f 12 32 36
f 12 36 37
f 12 25 30
f 12 37 38
f 12 38 39
f 12 39 40
f 12 40 41
f 12 41 50
f 12 50 51
f 12 51 52
f 12 52 53
f 12 53 54
f 12 54 55
f 12 55 56
f 12 56 57
f 12 57 98
f 12 102 17
f 12 98 99
f 12 99 100
f 12 100 101
f 12 101 103
f 12 103 102
f 3 421 5
f 5 421 6
f 6 423 12
f 8 24 142
f 8 142 173
f 9 145 146
f 10 146 212
f 11 147 247
f 14 211 145
f 13 173 211
f 16 213 147
f 15 212 213
f 12 423 25
f 142 24 135
f 142 135 136
f 142 136 137
f 142 137 138
f 142 138 139
f 142 139 140
f 140 141 142
f 140 168 141
f 143 152 144
f 143 151 152
f 143 184 151
f 144 152 219
f 148 156 149
f 148 155 156
f 148 214 155
f 149 156 226
f 159 253 150
f 150 216 159
f 141 168 172
f 168 169 172
f 172 169 170
f 172 170 171
f 144 219 185
f 184 218 151
f 184 183 217
f 184 217 218
f 226 215 149
f 155 214 225
f 225 214 185
f 185 219 225
f 159 216 229
f 216 215 229
f 226 229 215
f 2 232 231
f 231 232 233
f 232 245 233
f 231 233 435
f 233 245 435
f 4 244 232
f 234 239 235
f 236 241 237
f 7 8 244
f 235 239 240
f 241 242 237
f 8 9 244
f 9 10 244
f 10 11 244
f 11 234 244
f 234 235 244
f 235 236 244
f 236 237 244
f 237 238 244
f 238 243 244
f 11 247 234
f 235 249 236
f 235 240 248
f 237 571 238
f 237 242 570
f 234 261 239
f 239 262 240
f 236 273 241
f 241 273 242
f 238 267 243
f 243 267 246
f 232 244 245
f 243 246 244
f 244 246 245
f 246 298 301
f 234 247 261
f 235 248 249
f 236 249 252
f 236 252 256
f 236 256 257
f 236 257 258
f 236 258 259
f 236 259 260
f 236 260 273
f 238 571 267
f 239 261 262
f 240 262 248
f 242 273 274
f 242 274 275
f 242 275 276
f 242 276 277
f 242 277 278
f 242 278 279
f 242 279 280
f 242 280 281
f 242 281 445
f 242 445 446
f 242 446 447
f 242 447 448
f 242 448 449
f 242 449 450
f 242 450 451
f 242 451 458
f 242 458 459
f 242 459 460
f 150 253 250
f 268 250 253
f 255 252 251
f 255 256 252
f 251 264 255
f 237 570 571
f 242 460 461
f 242 461 597
f 268 263 250
f 263 272 264
f 268 272 263
f 255 264 272
f 269 271 270
f 269 438 271
f 269 439 438
f 242 597 570
f 267 331 298
f 267 332 331
f 267 333 332
f 267 334 333
f 267 335 334
f 267 336 335
f 267 344 336
f 267 345 344
f 267 346 345
f 267 347 346
f 267 348 347
f 267 355 348
f 267 356 355
f 267 708 356
f 296 298 297
f 296 297 302
f 297 298 303
f 296 309 308
f 296 310 309
f 296 308 360
f 246 267 298
f 298 331 303
f 296 301 298
f 296 300 299
f 296 299 301
f 296 360 300
f 299 300 391
f 245 246 1017
f 299 391 301
f 297 303 302
f 296 302 307
f 302 304 305
f 302 303 331
f 302 332 304
f 304 333 305
f 302 305 307
f 305 306 307
f 296 307 661
f 305 334 306
f 306 335 307
f 307 336 315
f 296 311 310
f 296 312 311
f 296 313 312
f 296 314 313
f 296 320 314
f 296 321 320
f 308 309 338
f 309 310 339
f 310 311 340
f 308 337 360
f 296 322 321
f 296 323 322
f 296 324 323
f 296 325 324
f 296 328 325
f 296 329 328
f 311 312 341
f 312 313 342
f 313 314 343
f 314 320 349
f 307 315 316
f 307 316 318
f 316 317 318
f 315 344 316
f 316 345 317
f 317 346 318
f 307 318 661
f 318 319 326
f 318 347 319
f 319 348 326
f 296 330 329
f 296 662 330
f 296 663 662
f 296 666 663
f 320 321 350
f 321 322 351
f 322 323 352
f 323 324 353
f 296 661 841
f 318 326 661
f 296 841 666
f 326 327 661
f 324 325 354
f 325 328 357
f 326 355 327
f 328 329 358
f 329 330 359
f 302 331 332
f 304 332 333
f 305 333 334
f 306 334 335
f 307 335 336
f 336 344 315
f 308 338 337
f 309 339 338
f 310 340 339
f 337 338 339
f 337 339 340
f 337 340 341
f 311 341 340
f 312 342 341
f 313 343 342
f 314 349 343
f 337 341 342
f 337 342 343
f 337 343 349
f 337 349 350
f 337 350 351
f 337 351 352
f 316 344 345
f 317 345 346
f 318 346 347
f 319 347 348
f 320 350 349
f 321 351 350
f 322 352 351
f 323 353 352
f 337 352 353
f 337 353 354
f 337 354 357
f 337 357 358
f 337 358 359
f 337 359 709
f 324 354 353
f 325 357 354
f 348 355 326
f 327 355 356
f 328 358 357
f 329 359 358
f 337 709 710
f 337 710 713
f 337 713 714
f 337 714 717
f 337 717 718
f 337 718 719
f 337 719 722
f 337 722 723
f 300 360 363
f 300 363 364
f 300 361 362
f 300 365 361
f 300 364 366
f 300 366 367
f 300 367 370
f 300 370 371
f 300 375 365
f 360 389 363
f 300 362 391
f 361 390 362
f 363 392 364
f 364 393 366
f 361 365 394
f 300 371 373
f 365 369 368
f 365 375 369
f 369 375 372
f 366 395 367
f 367 396 370
f 365 368 397
f 368 369 398
f 370 399 371
f 371 400 373
f 369 372 401
f 372 375 404
f 300 760 375
f 375 379 376
f 375 383 379
f 373 402 374
f 374 403 377
f 375 376 405
f 377 406 378
f 378 407 380
f 376 379 408
f 379 382 411
f 300 373 880
f 379 383 382
f 375 760 383
f 383 388 387
f 383 760 388
f 380 409 381
f 381 410 384
f 382 383 412
f 384 413 385
f 385 414 386
f 383 387 416
f 387 388 417
f 337 389 360
f 337 392 389
f 337 393 392
f 337 395 393
f 337 396 395
f 363 389 392
f 362 390 391
f 364 392 393
f 366 393 395
f 361 394 390
f 365 397 394
f 390 394 391
f 337 399 396
f 337 400 399
f 337 402 400
f 337 403 402
f 337 406 403
f 337 407 406
f 367 395 396
f 370 396 399
f 368 398 397
f 371 399 400
f 400 402 373
f 369 401 398
f 372 404 401
f 337 409 407
f 337 410 409
f 337 413 410
f 337 414 413
f 337 415 414
f 337 799 415
f 374 402 403
f 377 403 406
f 375 405 404
f 378 406 407
f 380 407 409
f 376 408 405
f 379 411 408
f 337 800 799
f 337 802 800
f 337 798 802
f 337 805 798
f 337 806 805
f 337 807 806
f 337 808 807
f 337 809 808
f 381 409 410
f 384 410 413
f 382 412 411
f 383 416 412
f 385 413 414
f 386 414 415
f 387 417 416
f 246 301 1019
f 1 418 419
f 3 419 421
f 418 420 419
f 419 420 421
f 418 434 420
f 6 421 423
f 423 43 42
f 423 44 43
f 423 34 33
f 423 33 25
f 423 35 34
f 423 42 35
f 423 45 44
f 423 46 45
f 423 48 46
f 423 49 48
f 423 47 49
f 423 91 47
f 423 92 91
f 423 93 92
f 423 94 93
f 423 95 94
f 423 96 95
f 423 97 96
f 423 104 97
f 423 105 104
f 423 106 105
f 423 107 106
f 423 108 107
f 423 109 108
f 423 161 109
f 423 162 161
f 423 163 162
f 423 164 163
f 423 165 164
f 423 166 165
f 423 167 166
f 423 174 167
f 423 175 174
f 423 176 175
f 423 177 176
f 423 178 177
f 423 179 178
f 423 180 179
f 423 181 180
f 423 182 181
f 423 183 182
f 423 217 183
f 423 220 217
f 425 154 153
f 424 153 221
f 427 158 157
f 426 157 227
f 428 160 230
f 430 222 154
f 429 221 220
f 432 228 158
f 431 227 222
f 433 230 228
f 420 422 421
f 421 422 423
f 422 429 423
f 420 1018 422
f 423 429 220
f 424 425 153
f 425 430 154
f 426 427 157
f 427 432 158
f 428 999 160
f 430 431 222
f 432 433 228
f 424 221 429
f 426 227 431
f 428 230 433
f 422 424 429
f 422 1018 424
f 425 426 431
f 427 428 433
f 425 431 430
f 427 433 432
f 231 434 418
f 231 435 434
f 420 434 436
f 420 436 1018
f 434 435 436
f 435 1018 436
f 269 440 439
f 269 441 440
f 269 442 441
f 267 555 556
f 267 556 559
f 597 461 462
f 597 462 463
f 597 463 496
f 597 496 497
f 597 497 498
f 597 498 499
f 597 499 500
f 597 500 501
f 597 501 509
f 597 509 510
f 597 510 511
f 267 571 598
f 267 598 599
f 267 599 555
f 267 559 708
f 708 559 560
f 708 560 613
f 708 613 614
f 708 614 615
f 708 615 616
f 708 616 617
f 708 617 618
f 708 618 619
f 708 619 620
f 564 568 565
f 565 568 566
f 567 566 568
f 999 254 160
f 567 568 569
f 567 569 584
f 1000 563 437
f 1000 564 563
f 1000 437 516
f 1008 269 254
f 567 584 578
f 597 511 512
f 597 512 517
f 597 517 518
f 597 518 519
f 597 519 520
f 597 520 521
f 597 521 522
f 597 522 576
f 578 584 579
f 584 580 579
f 584 581 580
f 597 576 577
f 597 577 582
f 597 583 581
f 597 582 583
f 1008 442 269
f 1008 443 442
f 1008 444 443
f 1008 452 444
f 1008 453 452
f 1008 454 453
f 1008 455 454
f 584 597 581
f 1008 456 455
f 1008 457 456
f 1008 490 457
f 1008 491 490
f 1008 492 491
f 1008 493 492
f 1008 494 493
f 1008 495 494
f 1008 502 495
f 1008 503 502
f 1008 504 503
f 1008 505 504
f 1008 506 505
f 1008 507 506
f 1008 508 507
f 1008 513 508
f 1008 514 513
f 1008 515 514
f 1008 516 515
f 559 556 611
f 600 611 556
f 612 613 560
f 708 620 621
f 708 621 634
f 708 634 635
f 708 635 636
f 708 636 637
f 708 637 638
f 708 638 639
f 708 639 640
f 708 640 641
f 708 641 642
f 708 642 643
f 708 643 644
f 708 644 645
f 708 645 646
f 708 646 912
f 708 912 913
f 708 913 914
f 711 914 915
f 712 915 916
f 715 916 917
f 716 917 922
f 720 922 923
f 721 923 924
f 725 924 925
f 725 925 929
f 726 929 930
f 727 930 931
f 728 931 932
f 728 932 964
f 737 964 965
f 737 965 966
f 738 966 967
f 245 1017 435
f 661 664 665
f 661 665 669
f 327 356 661
f 661 708 664
f 330 662 709
f 662 663 710
f 664 711 665
f 665 712 668
f 663 666 713
f 666 667 714
f 667 670 717
f 665 668 669
f 661 669 679
f 669 673 674
f 669 674 679
f 666 841 667
f 667 841 670
f 668 715 669
f 670 671 718
f 671 672 719
f 669 716 673
f 673 720 674
f 672 675 722
f 675 676 723
f 676 677 724
f 674 678 679
f 661 679 841
f 670 841 671
f 671 841 672
f 672 841 675
f 675 841 676
f 679 680 681
f 679 681 691
f 676 841 677
f 677 841 682
f 682 841 683
f 674 721 678
f 678 725 679
f 679 726 680
f 680 727 681
f 681 728 690
f 683 841 684
f 684 841 685
f 677 682 729
f 682 683 730
f 683 684 731
f 684 685 732
f 685 686 733
f 686 687 734
f 687 688 735
f 688 689 736
f 681 690 691
f 679 691 841
f 691 692 693
f 691 693 841
f 693 694 841
f 690 737 691
f 691 738 692
f 692 739 693
f 693 740 694
f 685 841 686
f 686 841 687
f 687 841 688
f 688 841 689
f 689 841 695
f 695 841 696
f 696 841 697
f 697 841 698
f 698 841 699
f 699 841 700
f 700 841 701
f 701 841 702
f 702 841 703
f 703 841 704
f 704 841 705
f 706 841 707
f 705 841 706
f 707 841 791
f 791 841 880
f 689 695 742
f 695 696 743
f 696 697 744
f 697 698 745
f 698 699 746
f 699 700 747
f 700 701 748
f 701 702 749
f 702 703 750
f 707 791 834
f 703 704 751
f 704 705 752
f 705 706 753
f 706 707 754
f 356 708 661
f 664 708 711
f 330 709 359
f 662 710 709
f 663 713 710
f 665 711 712
f 666 714 713
f 667 717 714
f 337 723 724
f 337 724 729
f 337 729 730
f 337 730 731
f 337 731 732
f 337 732 733
f 337 733 734
f 337 734 735
f 337 815 810
f 337 816 815
f 337 817 816
f 337 818 817
f 337 735 736
f 337 736 742
f 337 742 743
f 337 743 744
f 337 744 745
f 337 821 818
f 337 822 821
f 337 819 822
f 337 828 820
f 337 827 828
f 337 829 827
f 337 830 829
f 337 820 819
f 668 712 715
f 669 715 716
f 670 718 717
f 671 719 718
f 672 722 719
f 673 716 720
f 674 720 721
f 675 723 722
f 676 724 723
f 677 729 724
f 337 745 746
f 337 746 747
f 337 747 748
f 337 748 749
f 337 749 750
f 337 750 751
f 337 751 752
f 337 752 753
f 337 753 754
f 337 834 833
f 337 754 834
f 337 835 831
f 337 832 835
f 337 831 830
f 337 833 832
f 708 914 711
f 711 915 712
f 712 916 715
f 715 917 716
f 721 725 678
f 679 725 726
f 680 726 727
f 681 727 728
f 682 730 729
f 683 731 730
f 684 732 731
f 685 733 732
f 686 734 733
f 687 735 734
f 688 736 735
f 689 742 736
f 690 728 737
f 691 737 738
f 692 738 739
f 693 739 740
f 694 740 741
f 695 743 742
f 696 744 743
f 697 745 744
f 698 746 745
f 699 747 746
f 700 748 747
f 701 749 748
f 702 750 749
f 703 751 750
f 704 752 751
f 705 753 752
f 706 754 753
f 707 834 754
f 755 759 802
f 755 798 762
f 373 374 880
f 300 880 760
f 374 377 880
f 388 760 758
f 377 378 880
f 378 380 880
f 380 381 880
f 760 768 761
f 386 415 756
f 756 799 757
f 757 800 759
f 388 758 801
f 758 760 803
f 760 761 804
f 757 759 880
f 755 880 759
f 762 805 763
f 763 806 764
f 764 807 765
f 765 808 766
f 766 809 767
f 767 810 772
f 381 384 880
f 384 385 880
f 385 386 880
f 386 756 880
f 760 771 768
f 768 771 769
f 756 757 880
f 760 782 771
f 770 771 780
f 761 768 811
f 768 769 812
f 770 813 771
f 769 771 814
f 755 762 880
f 762 763 880
f 763 764 880
f 764 765 880
f 765 766 880
f 766 767 880
f 767 772 880
f 773 774 880
f 772 773 880
f 772 815 773
f 773 816 774
f 774 817 775
f 776 819 777
f 777 820 785
f 775 818 778
f 778 821 779
f 776 779 822
f 771 782 780
f 780 782 781
f 760 880 782
f 782 793 783
f 770 780 823
f 780 781 824
f 781 782 825
f 782 783 826
f 774 775 880
f 775 778 880
f 778 779 880
f 776 777 880
f 776 880 779
f 777 785 880
f 784 880 785
f 786 787 880
f 789 790 880
f 788 792 880
f 787 788 880
f 789 880 792
f 790 791 880
f 784 786 880
f 784 785 828
f 784 827 786
f 786 829 787
f 787 830 788
f 788 831 792
f 790 833 791
f 789 832 790
f 789 792 835
f 782 795 793
f 793 795 794
f 782 880 795
f 795 797 796
f 795 880 797
f 783 793 836
f 793 794 837
f 794 795 838
f 795 796 839
f 796 797 840
f 755 802 798
f 762 798 805
f 337 810 809
f 415 799 756
f 757 799 800
f 388 801 417
f 758 803 801
f 759 800 802
f 760 804 803
f 761 811 804
f 763 805 806
f 764 806 807
f 765 807 808
f 766 808 809
f 767 809 810
f 768 812 811
f 771 813 814
f 769 814 812
f 301 391 1019
f 810 815 772
f 773 815 816
f 774 816 817
f 775 817 818
f 776 822 819
f 777 819 820
f 778 818 821
f 779 821 822
f 770 823 813
f 780 824 823
f 781 825 824
f 782 826 825
f 783 836 826
f 784 828 827
f 785 820 828
f 786 827 829
f 787 829 830
f 792 831 835
f 788 830 831
f 789 835 832
f 791 833 834
f 790 832 833
f 793 837 836
f 794 838 837
f 795 839 838
f 796 840 839
f 391 394 1019
f 394 397 1019
f 397 398 1019
f 398 401 1019
f 401 404 1019
f 404 405 1019
f 841 842 843
f 841 843 845
f 843 844 845
f 694 741 841
f 841 860 842
f 842 861 843
f 843 862 844
f 841 845 849
f 845 846 847
f 845 847 849
f 841 849 857
f 841 857 880
f 844 863 845
f 845 864 846
f 846 865 847
f 847 848 849
f 849 850 851
f 849 851 853
f 851 852 853
f 849 853 857
f 853 854 855
f 853 855 857
f 855 856 857
f 857 858 859
f 857 859 892
f 847 866 848
f 848 867 849
f 849 868 850
f 850 869 851
f 851 870 852
f 852 871 853
f 853 872 854
f 854 873 855
f 855 874 856
f 856 875 857
f 857 876 858
f 858 877 859
f 716 922 720
f 720 923 721
f 721 924 725
f 725 929 726
f 726 930 727
f 727 931 728
f 728 964 737
f 737 966 738
f 741 860 841
f 842 860 861
f 843 861 862
f 844 862 863
f 845 863 864
f 846 864 865
f 847 865 866
f 848 866 867
f 849 867 868
f 850 868 869
f 851 869 870
f 852 870 871
f 853 871 872
f 854 872 873
f 855 873 874
f 856 874 875
f 857 875 876
f 858 876 877
f 859 877 878
f 738 1014 739
f 739 1014 740
f 740 1014 741
f 741 1014 860
f 860 1014 861
f 861 1014 862
f 862 1014 863
f 863 1014 864
f 864 1014 865
f 797 880 879
f 880 883 881
f 882 883 884
f 880 884 883
f 880 889 884
f 884 891 885
f 797 879 894
f 879 880 895
f 880 881 896
f 882 897 883
f 881 883 898
f 882 884 899
f 884 885 900
f 857 889 880
f 886 891 889
f 857 892 889
f 887 890 892
f 888 889 890
f 889 892 890
f 884 889 891
f 859 893 892
f 886 901 891
f 887 902 890
f 888 903 889
f 886 889 904
f 888 890 905
f 885 891 906
f 892 893 908
f 859 878 893
f 887 892 907
f 246 1019 1017
f 797 894 840
f 879 895 894
f 880 896 895
f 881 898 896
f 883 897 898
f 882 899 897
f 884 900 899
f 891 901 906
f 886 904 901
f 890 902 905
f 889 903 904
f 888 905 903
f 885 906 900
f 892 908 907
f 878 908 893
f 887 907 902
f 405 408 1019
f 408 411 1019
f 411 412 1019
f 412 416 1019
f 416 417 1019
f 417 801 1019
f 801 803 1019
f 803 804 1019
f 804 811 1019
f 811 812 1019
f 838 839 1019
f 839 840 1019
f 840 894 1019
f 894 895 1019
f 895 896 1019
f 813 1019 814
f 812 814 1019
f 813 823 1019
f 823 824 1019
f 824 825 1019
f 825 826 1019
f 826 836 1019
f 836 837 1019
f 837 838 1019
f 1000 568 564
f 1000 572 568
f 1001 573 572
f 1003 575 574
f 1002 574 605
f 999 1008 254
f 1010 603 573
f 1011 605 603
f 606 1004 607
f 1012 606 575
f 1008 1009 516
f 1000 516 1009
f 1012 1004 606
f 608 1005 633
f 1014 909 910
f 1014 911 909
f 738 967 968
f 738 968 969
f 738 969 974
f 738 974 1014
f 1013 633 1005
f 1014 918 911
f 1014 919 918
f 1014 920 919
f 1014 921 920
f 1014 926 921
f 1014 927 926
f 1014 928 927
f 1014 957 928
f 1014 958 957
f 1014 959 958
f 1014 960 959
f 1014 961 960
f 1014 962 961
f 1014 963 962
f 1014 970 963
f 1014 971 970
f 971 1014 972
f 1014 973 972
f 973 1014 976
f 1014 977 976
f 1014 975 977
f 1014 974 975
f 865 1014 1012
f 1000 1001 572
f 1001 1010 573
f 1002 1003 574
f 1003 1012 575
f 999 1000 1009
f 1001 1002 1011
f 424 1018 425
f 1010 1011 603
f 1002 605 1011
f 1012 1005 1004
f 1012 1013 1005
f 1012 1014 1013
f 999 1009 1008
f 1001 1011 1010
f 425 1018 426
f 426 1018 427
f 427 1018 428
f 428 1018 999
f 999 1018 1000
f 1000 1018 1001
f 1001 1018 1002
f 1002 1018 1003
f 1003 1019 1012
f 435 1017 1018
f 865 1012 866
f 866 1012 867
f 867 1012 868
f 868 1012 869
f 869 1012 870
f 870 1012 871
f 871 1012 872
f 872 1012 873
f 873 1012 874
f 874 1012 875
f 875 1012 876
f 876 1012 877
f 877 1012 1019
f 897 1019 898
f 897 899 1019
f 896 898 1019
f 899 900 1019
f 900 906 1019
f 901 1019 906
f 877 1019 878
f 903 905 1019
f 903 1019 904
f 902 907 1019
f 907 908 1019
f 878 1019 908
f 902 1019 905
f 901 904 1019
f 1003 1018 1019
f 1017 1019 1018
f 58 30 25
f 59 27 26
f 60 31 27
f 63 28 30
f 61 29 28
f 62 26 29
f 64 32 31
f 65 36 32
f 66 25 33
f 67 33 34
f 68 34 35
f 59 60 27
f 60 64 31
f 61 28 63
f 62 29 61
f 62 59 26
f 58 63 30
f 64 65 32
f 58 25 66
f 67 66 33
f 67 34 68
f 68 35 75
f 58 66 63
f 62 61 63
f 62 63 60
f 62 60 59
f 63 70 60
f 60 65 64
f 60 70 65
f 67 68 66
f 66 68 63
f 68 78 63
f 63 78 70
f 69 37 36
f 70 38 37
f 71 39 38
f 72 40 39
f 73 41 40
f 65 69 36
f 69 70 37
f 70 71 38
f 71 72 39
f 72 73 40
f 73 74 41
f 65 70 69
f 70 72 71
f 70 74 72
f 72 74 73
f 76 42 43
f 75 35 42
f 77 43 44
f 78 44 45
f 79 45 46
f 80 49 47
f 110 47 91
f 81 46 48
f 82 48 49
f 76 75 42
f 76 43 77
f 77 44 78
f 78 45 79
f 76 68 75
f 76 78 68
f 76 77 78
f 78 79 81
f 80 47 110
f 79 46 81
f 81 48 82
f 82 49 80
f 78 81 80
f 81 82 80
f 78 80 113
f 70 78 127
f 74 50 41
f 83 51 50
f 84 52 51
f 85 53 52
f 86 54 53
f 87 55 54
f 88 56 55
f 89 57 56
f 90 98 57
f 74 83 50
f 83 84 51
f 84 85 52
f 85 86 53
f 86 87 54
f 70 86 74
f 74 84 83
f 74 86 84
f 84 86 85
f 87 88 55
f 88 89 56
f 89 90 57
f 70 120 86
f 86 88 87
f 86 90 88
f 88 90 89
f 86 120 90
f 122 18 17
f 122 19 18
f 122 17 102
f 129 20 19
f 130 21 20
f 131 22 21
f 132 23 22
f 133 24 23
f 134 135 24
f 111 91 92
f 112 92 93
f 113 93 94
f 114 94 95
f 115 95 96
f 116 96 97
f 110 91 111
f 111 92 112
f 112 93 113
f 80 110 111
f 80 111 113
f 111 112 113
f 113 94 114
f 114 95 115
f 115 96 116
f 113 114 115
f 113 115 123
f 115 116 123
f 78 113 127
f 117 99 98
f 118 100 99
f 119 101 100
f 120 103 101
f 121 102 103
f 90 117 98
f 117 118 99
f 90 118 117
f 90 120 118
f 118 119 100
f 118 120 119
f 70 200 120
f 119 120 101
f 120 121 103
f 121 122 102
f 120 122 121
f 120 130 122
f 123 97 104
f 124 104 105
f 125 105 106
f 126 106 107
f 127 107 108
f 128 108 109
f 116 97 123
f 123 104 124
f 124 105 125
f 113 123 127
f 123 124 125
f 123 125 127
f 125 106 126
f 126 107 127
f 127 108 128
f 125 126 127
f 127 128 186
f 122 129 19
f 129 130 20
f 130 131 21
f 131 132 22
f 132 133 23
f 133 134 24
f 70 127 200
f 122 130 129
f 120 134 130
f 130 132 131
f 130 134 132
f 132 134 133
f 120 200 134
f 140 139 168
f 141 173 142
f 184 143 144
f 145 212 146
f 214 148 149
f 216 150 250
f 151 219 152
f 221 153 154
f 156 155 226
f 157 158 227
f 230 160 254
f 193 136 135
f 194 137 136
f 195 138 137
f 141 172 173
f 196 139 138
f 197 168 139
f 184 144 185
f 186 109 161
f 187 161 162
f 188 162 163
f 189 163 164
f 190 164 165
f 191 165 166
f 192 166 167
f 128 109 186
f 186 161 187
f 187 162 188
f 127 186 188
f 186 187 188
f 127 188 192
f 188 163 189
f 189 164 190
f 190 165 191
f 191 166 192
f 188 189 190
f 188 190 192
f 127 192 200
f 190 191 192
f 134 193 135
f 193 194 136
f 194 195 137
f 195 196 138
f 197 169 168
f 196 197 139
f 198 170 169
f 199 171 170
f 200 172 171
f 200 173 172
f 200 211 173
f 134 194 193
f 134 196 194
f 194 196 195
f 134 200 196
f 197 198 169
f 198 199 170
f 199 200 171
f 196 198 197
f 196 200 198
f 198 200 199
f 201 167 174
f 202 174 175
f 203 175 176
f 204 176 177
f 205 177 178
f 206 178 179
f 207 179 180
f 208 180 181
f 192 167 201
f 201 174 202
f 202 175 203
f 203 176 204
f 204 177 205
f 192 201 202
f 192 202 204
f 202 203 204
f 205 178 206
f 206 179 207
f 207 180 208
f 204 205 207
f 205 206 207
f 209 181 182
f 210 182 183
f 210 183 184
f 210 184 185
f 210 185 214
f 208 181 209
f 209 182 210
f 207 208 209
f 145 211 212
f 147 213 261
f 215 214 149
f 200 212 211
f 200 265 212
f 210 214 215
f 192 266 200
f 192 204 266
f 204 207 266
f 207 209 266
f 209 210 266
f 200 266 265
f 210 215 266
f 151 218 219
f 221 154 222
f 223 218 217
f 223 219 218
f 223 225 219
f 224 217 220
f 224 220 221
f 224 221 222
f 224 222 227
f 223 217 224
f 155 225 226
f 158 228 227
f 159 229 268
f 223 226 225
f 223 229 226
f 223 224 282
f 224 227 282
f 282 227 228
f 282 228 230
f 223 284 229
f 223 285 284
f 223 286 285
f 223 282 286
f 147 261 247
f 251 252 264
f 159 268 253
f 273 260 259
f 265 249 248
f 265 248 262
f 216 250 263
f 265 252 249
f 266 264 252
f 265 213 212
f 265 261 213
f 265 262 261
f 266 215 216
f 266 216 263
f 266 263 264
f 265 266 252
f 230 254 269
f 284 256 255
f 284 257 256
f 285 258 257
f 286 259 258
f 284 255 272
f 287 273 259
f 284 268 229
f 284 272 268
f 282 230 269
f 282 269 270
f 283 270 271
f 464 271 438
f 282 270 283
f 283 271 464
f 282 283 464
f 282 470 286
f 284 285 257
f 285 286 258
f 286 287 259
f 287 274 273
f 288 275 274
f 289 276 275
f 290 277 276
f 291 278 277
f 292 279 278
f 293 280 279
f 294 281 280
f 295 445 281
f 287 288 274
f 288 289 275
f 289 290 276
f 290 291 277
f 286 288 287
f 286 290 288
f 288 290 289
f 286 294 290
f 290 292 291
f 291 292 278
f 292 293 279
f 293 294 280
f 290 294 292
f 292 294 293
f 470 294 286
f 294 295 281
f 294 471 295
f 465 438 439
f 466 439 440
f 467 440 441
f 468 441 442
f 469 442 443
f 470 443 444
f 464 438 465
f 465 439 466
f 466 440 467
f 467 441 468
f 282 464 466
f 464 465 466
f 282 466 470
f 466 467 468
f 468 442 469
f 469 443 470
f 470 444 478
f 466 468 470
f 468 469 470
f 471 446 445
f 472 447 446
f 473 448 447
f 474 449 448
f 475 450 449
f 476 451 450
f 295 471 445
f 471 472 446
f 472 473 447
f 473 474 448
f 294 473 471
f 471 473 472
f 294 477 473
f 473 475 474
f 474 475 449
f 475 476 450
f 476 477 451
f 473 477 475
f 475 477 476
f 478 444 452
f 479 452 453
f 480 453 454
f 481 454 455
f 482 455 456
f 483 456 457
f 478 452 479
f 479 453 480
f 480 454 481
f 470 478 479
f 470 479 481
f 479 480 481
f 481 455 482
f 482 456 483
f 483 457 523
f 470 481 524
f 481 482 483
f 481 483 524
f 477 458 451
f 484 459 458
f 485 460 459
f 486 461 460
f 487 462 461
f 488 463 462
f 477 484 458
f 484 485 459
f 485 486 460
f 294 530 477
f 477 485 484
f 477 487 485
f 485 487 486
f 470 590 294
f 486 487 461
f 487 488 462
f 488 489 463
f 477 530 487
f 487 489 488
f 487 530 489
f 523 457 490
f 524 490 491
f 525 491 492
f 526 492 493
f 527 493 494
f 528 494 495
f 535 495 502
f 523 490 524
f 524 491 525
f 525 492 526
f 483 523 524
f 470 524 538
f 524 525 526
f 526 493 527
f 527 494 528
f 528 495 535
f 524 526 528
f 526 527 528
f 524 528 538
f 470 538 590
f 489 496 463
f 529 497 496
f 530 498 497
f 531 499 498
f 532 500 499
f 533 501 500
f 534 509 501
f 489 529 496
f 529 530 497
f 530 531 498
f 294 590 530
f 489 530 529
f 530 532 531
f 531 532 499
f 532 533 500
f 533 534 501
f 530 534 532
f 532 534 533
f 530 545 534
f 536 502 503
f 537 503 504
f 538 504 505
f 539 505 506
f 540 506 507
f 541 507 508
f 535 502 536
f 536 503 537
f 537 504 538
f 538 505 539
f 528 535 536
f 528 536 538
f 536 537 538
f 539 506 540
f 540 507 541
f 541 508 546
f 538 539 540
f 538 540 546
f 540 541 546
f 542 510 509
f 543 511 510
f 544 512 511
f 545 517 512
f 546 508 513
f 547 513 514
f 548 514 515
f 585 515 516
f 549 518 517
f 550 519 518
f 551 520 519
f 552 521 520
f 553 522 521
f 534 542 509
f 542 543 510
f 543 544 511
f 544 545 512
f 534 543 542
f 534 545 543
f 530 590 545
f 543 545 544
f 546 513 547
f 547 514 548
f 548 515 585
f 538 546 586
f 538 586 590
f 546 547 548
f 546 548 586
f 545 549 517
f 550 551 519
f 549 550 518
f 551 552 520
f 552 553 521
f 553 554 522
f 545 550 549
f 545 552 550
f 545 590 552
f 550 552 551
f 552 554 553
f 590 554 552
f 557 556 555
f 557 558 556
f 561 560 559
f 561 562 560
f 437 563 516
f 584 569 568
f 570 598 571
f 605 574 575
f 586 563 564
f 587 564 565
f 588 565 566
f 588 566 567
f 585 516 563
f 588 567 578
f 604 568 572
f 596 584 568
f 585 563 586
f 586 564 587
f 587 565 588
f 589 577 576
f 590 582 577
f 591 578 579
f 592 579 580
f 593 580 581
f 595 581 583
f 594 583 582
f 554 576 522
f 589 576 554
f 589 590 577
f 588 578 591
f 591 579 592
f 592 580 593
f 593 581 595
f 595 583 594
f 594 582 590
f 548 585 586
f 586 587 588
f 586 588 592
f 586 592 590
f 589 554 590
f 588 591 592
f 592 593 595
f 592 595 590
f 595 594 590
f 596 597 584
f 596 598 597
f 596 568 604
f 596 604 601
f 597 598 570
f 558 600 556
f 601 555 599
f 557 555 601
f 557 602 558
f 558 602 600
f 557 601 602
f 596 599 598
f 596 601 599
f 604 609 601
f 601 610 602
f 601 609 610
f 604 572 573
f 604 573 603
f 604 603 609
f 605 575 606
f 609 603 605
f 609 605 606
f 609 606 607
f 562 612 560
f 622 559 611
f 561 559 622
f 561 623 562
f 562 623 612
f 561 622 623
f 602 611 600
f 602 622 611
f 602 610 622
f 622 610 630
f 623 613 612
f 624 614 613
f 625 615 614
f 626 616 615
f 627 617 616
f 628 618 617
f 629 619 618
f 630 620 619
f 631 621 620
f 623 624 613
f 624 625 614
f 623 625 624
f 623 626 625
f 625 626 615
f 626 627 616
f 627 628 617
f 628 629 618
f 622 630 623
f 623 630 626
f 626 628 627
f 626 630 628
f 628 630 629
f 629 630 619
f 630 631 620
f 631 632 621
f 630 632 631
f 630 649 632
f 647 608 633
f 610 608 647
f 610 647 630
f 632 634 621
f 648 635 634
f 649 636 635
f 650 637 636
f 651 638 637
f 652 639 638
f 653 640 639
f 654 641 640
f 632 648 634
f 648 649 635
f 649 650 636
f 650 651 637
f 632 649 648
f 630 653 649
f 649 651 650
f 649 653 651
f 651 652 638
f 652 653 639
f 653 654 640
f 654 655 641
f 651 653 652
f 630 936 653
f 653 655 654
f 655 642 641
f 656 643 642
f 657 644 643
f 658 645 644
f 659 646 645
f 660 912 646
f 647 987 630
f 655 656 642
f 656 657 643
f 657 658 644
f 653 657 655
f 655 657 656
f 653 936 657
f 658 659 645
f 659 660 646
f 660 936 912
f 657 659 658
f 657 936 659
f 659 936 660
f 610 1005 608
f 609 607 1006
f 609 1007 610
f 1006 607 1004
f 610 1007 1005
f 609 1006 1007
f 933 910 909
f 935 909 911
f 647 633 1015
f 647 934 943
f 933 934 910
f 933 909 935
f 647 943 980
f 933 935 934
f 934 935 943
f 936 913 912
f 937 914 913
f 938 915 914
f 939 916 915
f 940 917 916
f 941 922 917
f 936 937 913
f 937 938 914
f 938 939 915
f 630 987 936
f 936 938 937
f 936 940 938
f 647 980 987
f 939 940 916
f 940 941 917
f 941 946 922
f 938 940 939
f 936 948 940
f 940 946 941
f 942 911 918
f 943 918 919
f 944 919 920
f 945 920 921
f 934 1014 910
f 935 911 942
f 942 918 943
f 943 919 944
f 944 920 945
f 647 1016 934
f 935 942 943
f 943 944 945
f 945 921 950
f 943 945 951
f 946 923 922
f 947 924 923
f 948 925 924
f 950 921 926
f 951 926 927
f 952 927 928
f 978 928 957
f 949 929 925
f 953 930 929
f 954 931 930
f 955 932 931
f 956 964 932
f 946 947 923
f 947 948 924
f 948 949 925
f 940 948 946
f 936 987 948
f 946 948 947
f 948 953 949
f 950 926 951
f 951 927 952
f 952 928 978
f 945 950 951
f 943 951 980
f 951 952 978
f 949 953 929
f 953 954 930
f 955 931 954
f 955 956 932
f 948 955 953
f 953 955 954
f 948 987 955
f 955 985 956
f 1015 633 1013
f 647 1015 1016
f 979 957 958
f 980 958 959
f 981 959 960
f 982 960 961
f 983 961 962
f 984 962 963
f 986 966 965
f 985 965 964
f 987 967 966
f 988 968 967
f 989 969 968
f 990 974 969
f 991 963 970
f 992 970 971
f 993 971 972
f 994 972 973
f 997 973 976
f 995 975 974
f 996 977 975
f 998 976 977
f 978 957 979
f 979 958 980
f 980 959 981
f 981 960 982
f 982 961 983
f 983 962 984
f 984 963 991
f 951 978 980
f 978 979 980
f 980 981 982
f 980 982 984
f 980 994 987
f 982 983 984
f 980 984 994
f 986 987 966
f 956 985 964
f 986 965 985
f 987 988 967
f 995 974 990
f 989 968 988
f 989 990 969
f 955 987 985
f 986 985 987
f 987 989 988
f 987 994 995
f 987 995 989
f 995 990 989
f 991 970 992
f 992 971 993
f 993 972 994
f 994 973 997
f 984 991 992
f 984 992 994
f 992 993 994
f 996 998 977
f 996 975 995
f 997 976 998
f 994 998 995
f 996 995 998
f 994 997 998
f 934 1016 1014
f 1007 1004 1005
f 1006 1004 1007
f 1016 1013 1014
f 1015 1013 1016

