# https://github.com/mikedh/trimesh
v 0.60000002 0.60000002 0.00000000
v 0.00000000 0.60000002 0.60000002
v 0.60000002 0.00000000 0.60000002
v 0.00000000 0.60000002 4.40000010
v 0.60000002 0.00000000 4.40000010
v 0.60000002 0.60000002 5.00000000
v 0.19999985 29.62500000 4.59999990
v 0.19999985 29.97500038 4.59999990
v 0.19999985 32.22499847 4.59999990
v 0.19999985 32.57500076 4.59999990
v 0.19999985 34.82500076 4.59999990
v 2.02500010 29.62500000 4.59999990
v 2.02500010 29.97500038 4.59999990
v 2.47499990 29.62500000 4.59999990
v 2.47499990 29.97500038 4.59999990
v 2.02500010 32.22499847 4.59999990
v 2.02500010 32.57500076 4.59999990
v 2.47499990 32.22499847 4.59999990
v 2.47499990 32.57500076 4.59999990
v 0.60000002 29.62500000 5.00000000
v 0.60000002 29.97500038 5.00000000
v 0.60000002 32.22499847 5.00000000
v 0.60000002 32.57500076 5.00000000
v 0.60000002 34.82500076 5.00000000
v 1.68469799 28.28740120 5.00000000
v 1.56774771 28.83761024 5.00000000
v 1.68469799 30.26340103 5.00000000
v 2.02500010 26.94000053 5.00000000
v 2.02500010 28.35973549 5.00000000
v 2.47499990 26.94000053 5.00000000
v 2.02500010 28.93480110 5.00000000
v 2.02500010 29.62500000 5.00000000
v 2.02500010 29.97500038 5.00000000
v 2.02500010 30.33573532 5.00000000
v 2.47499990 28.45538521 5.00000000
v 2.47499990 29.03045273 5.00000000
v 2.47499990 29.62500000 5.00000000
v 2.47499990 29.97500038 5.00000000
v 2.47499990 30.43138504 5.00000000
v 1.68469799 28.28740120 5.50000000
v 1.56774771 28.83761024 5.50000000
v 1.68469799 30.26340103 5.50000000
v 2.02500010 26.94000053 5.50000000
v 2.02500010 28.35973549 5.50000000
v 2.47499990 26.94000053 5.50000000
v 2.02500010 28.93480110 5.50000000
v 2.02500010 30.33573532 5.50000000
v 2.47499990 28.45538521 5.50000000
v 2.47499990 29.03045273 5.50000000
v 2.47499990 30.43138504 5.50000000
v 1.56774771 30.81361008 5.00000000
v 2.02500010 30.91080284 5.00000000
v 2.02500010 32.22499847 5.00000000
v 2.02500010 32.57500076 5.00000000
v 2.02500010 32.65999985 5.00000000
v 2.47499990 31.00645256 5.00000000
v 2.47499990 32.22499847 5.00000000
v 2.47499990 32.57500076 5.00000000
v 2.47499990 32.65999985 5.00000000
v 1.56774771 30.81361008 5.50000000
v 2.02500010 30.91080284 5.50000000
v 2.02500010 32.65999985 5.50000000
v 2.47499990 31.00645256 5.50000000
v 2.47499990 32.65999985 5.50000000
v 3.12500000 29.62500000 4.59999990
v 3.12500000 29.97500038 4.59999990
v 3.57500005 29.62500000 4.59999990
v 3.57500005 29.97500038 4.59999990
v 3.12500000 32.22499847 4.59999990
v 3.12500000 32.57500076 4.59999990
v 3.57500005 32.22499847 4.59999990
v 3.57500005 32.57500076 4.59999990
v 3.12500000 26.94000053 5.00000000
v 3.57500005 26.94000053 5.00000000
v 3.12500000 28.59354782 5.00000000
v 3.12500000 29.16861343 5.00000000
v 3.12500000 29.62500000 5.00000000
v 3.12500000 29.97500038 5.00000000
v 3.12500000 30.56954765 5.00000000
v 3.57500005 28.68919754 5.00000000
v 3.57500005 29.26426506 5.00000000
v 3.57500005 29.62500000 5.00000000
v 3.57500005 29.97500038 5.00000000
v 3.12500000 26.94000053 5.50000000
v 3.57500005 26.94000053 5.50000000
v 3.12500000 28.59354782 5.50000000
v 3.12500000 29.16861343 5.50000000
v 3.12500000 30.56954765 5.50000000
v 3.57500005 28.68919754 5.50000000
v 3.57500005 29.26426506 5.50000000
v 3.12500000 31.14461327 5.00000000
v 3.12500000 32.22499847 5.00000000
v 3.12500000 32.57500076 5.00000000
v 3.12500000 32.65999985 5.00000000
v 3.57500005 30.66519737 5.00000000
v 3.57500005 31.24026489 5.00000000
v 3.57500005 32.22499847 5.00000000
v 3.57500005 32.57500076 5.00000000
v 3.57500005 32.65999985 5.00000000
v 3.12500000 31.14461327 5.50000000
v 3.12500000 32.65999985 5.50000000
v 3.57500005 30.66519737 5.50000000
v 3.57500005 31.24026489 5.50000000
v 3.57500005 32.65999985 5.50000000
v 4.03225231 28.78639030 5.00000000
v 3.91530204 29.33659744 5.00000000
v 4.03225231 28.78639030 5.50000000
v 3.91530204 29.33659744 5.50000000
v 4.03225231 30.76239014 5.00000000
v 3.91530204 31.31259727 5.00000000
v 4.03225231 30.76239014 5.50000000
v 3.91530204 31.31259727 5.50000000
v 5.39427471 29.62500000 4.59999990
v 5.40394258 29.69026375 4.59999990
v 5.42258501 29.77043724 4.59999990
v 5.44798183 29.85073853 4.59999990
v 5.48002481 29.93082237 4.59999990
v 5.50144196 29.97500038 4.59999990
v 5.38919592 29.45392036 5.00000000
v 5.43635130 29.23087883 5.00000000
v 5.46558046 29.16098976 5.00000000
v 5.39807701 29.37765884 5.00000000
v 5.41381836 29.30320549 5.00000000
v 5.59205055 28.96887589 5.00000000
v 5.50137997 29.09383583 5.00000000
v 5.54359722 29.02970695 5.00000000
v 5.38721228 29.53166580 5.00000000
v 5.39427471 29.62500000 5.00000000
v 5.39213514 29.61055756 5.00000000
v 5.50144196 29.97500038 5.00000000
v 5.51857662 30.01034546 5.00000000
v 5.56347227 30.08896828 5.00000000
v 5.61451912 30.16635323 5.00000000
v 5.64653349 28.91160393 5.00000000
v 5.70681143 28.85813713 5.00000000
v 5.77262735 28.80870247 5.00000000
v 5.84369946 28.76351357 5.00000000
v 5.91972256 28.72276306 5.00000000
v 5.67149878 30.24217033 5.00000000
v 5.73416758 30.31609344 5.00000000
v 5.80225658 30.38780785 5.00000000
v 5.87547445 30.45700264 5.00000000
v 6.00037146 28.68662453 5.00000000
v 6.08530140 28.65525436 5.00000000
v 6.17414808 28.62878609 5.00000000
v 5.95350790 30.52338600 5.00000000
v 6.03602266 30.58667183 5.00000000
v 5.38919592 29.45392036 5.50000000
v 5.43635130 29.23087883 5.50000000
v 5.46558046 29.16098976 5.50000000
v 5.39807701 29.37765884 5.50000000
v 5.41381836 29.30320549 5.50000000
v 5.59205055 28.96887589 5.50000000
v 5.50137997 29.09383583 5.50000000
v 5.54359722 29.02970695 5.50000000
v 5.38721228 29.53166580 5.50000000
v 5.39213514 29.61055756 5.50000000
v 5.40394258 29.69026375 5.50000000
v 5.42258501 29.77043724 5.50000000
v 5.44798183 29.85073853 5.50000000
v 5.48002481 29.93082237 5.50000000
v 5.51857662 30.01034546 5.50000000
v 5.56347227 30.08896828 5.50000000
v 5.61451912 30.16635323 5.50000000
v 5.64653349 28.91160393 5.50000000
v 5.70681143 28.85813713 5.50000000
v 5.77262735 28.80870247 5.50000000
v 5.84369946 28.76351357 5.50000000
v 5.91972256 28.72276306 5.50000000
v 5.67149878 30.24217033 5.50000000
v 5.73416758 30.31609344 5.50000000
v 5.80225658 30.38780785 5.50000000
v 5.87547445 30.45700264 5.50000000
v 6.00037146 28.68662453 5.50000000
v 6.08530140 28.65525436 5.50000000
v 6.17414808 28.62878609 5.50000000
v 5.95350790 30.52338600 5.50000000
v 6.03602266 30.58667183 5.50000000
v 6.12266493 30.64658737 5.00000000
v 6.21306419 30.70287895 5.00000000
v 6.12266493 30.64658737 5.50000000
v 6.21306419 30.70287895 5.50000000
v 6.26653099 28.60733414 5.00000000
v 6.36205482 28.59098816 5.00000000
v 6.46031046 28.57981873 5.00000000
v 6.56087685 28.57387543 5.00000000
v 6.66332388 28.57318115 5.00000000
v 6.76721287 28.57774162 5.00000000
v 6.87209845 28.58753586 5.00000000
v 6.97753143 28.60252190 5.00000000
v 7.08306122 28.62263680 5.00000000
v 7.18823481 28.64779091 5.00000000
v 7.29260254 28.67788124 5.00000000
v 7.39571714 28.71277618 5.00000000
v 7.49713755 28.75232506 5.00000000
v 6.26653099 28.60733414 5.50000000
v 6.36205482 28.59098816 5.50000000
v 6.46031046 28.57981873 5.50000000
v 6.56087685 28.57387543 5.50000000
v 6.66332388 28.57318115 5.50000000
v 6.76721287 28.57774162 5.50000000
v 6.87209845 28.58753586 5.50000000
v 6.97753143 28.60252190 5.50000000
v 7.08306122 28.62263680 5.50000000
v 7.18823481 28.64779091 5.50000000
v 7.29260254 28.67788124 5.50000000
v 7.39571714 28.71277618 5.50000000
v 7.49713755 28.75232506 5.50000000
v 6.30683374 30.75530434 5.00000000
v 6.40357113 30.80363846 5.00000000
v 6.50286245 30.84767342 5.00000000
v 6.60428286 30.88722420 5.00000000
v 6.70739746 30.92211914 5.00000000
v 6.81176519 30.95220757 5.00000000
v 6.91693878 30.97736359 5.00000000
v 7.02246857 30.99747849 5.00000000
v 7.12790155 31.01246452 5.00000000
v 7.23278713 31.02225685 5.00000000
v 7.33667612 31.02681732 5.00000000
v 7.43912315 31.02612495 5.00000000
v 6.30683374 30.75530434 5.50000000
v 6.40357113 30.80363846 5.50000000
v 6.50286245 30.84767342 5.50000000
v 6.60428286 30.88722420 5.50000000
v 6.70739746 30.92211914 5.50000000
v 6.81176519 30.95220757 5.50000000
v 6.91693878 30.97736359 5.50000000
v 7.02246857 30.99747849 5.50000000
v 7.12790155 31.01246452 5.50000000
v 7.23278713 31.02225685 5.50000000
v 7.33667612 31.02681732 5.50000000
v 7.43912315 31.02612495 5.50000000
v 8.49855804 29.62500000 4.59999990
v 8.51997471 29.66917801 4.59999990
v 8.55201817 29.74926186 4.59999990
v 8.56806564 29.79999924 4.59999990
v 8.61294460 29.79999924 4.59999990
v 8.61294460 29.97500038 4.59999990
v 8.11294460 32.22499847 4.59999990
v 8.11294460 32.57500076 4.59999990
v 8.11294460 34.82500076 4.59999990
v 8.61294460 32.22499847 4.59999990
v 8.61294460 32.57500076 4.59999990
v 8.61294460 34.82500076 4.59999990
v 9.38705540 29.79999924 4.59999990
v 9.38705540 29.97500038 4.59999990
v 9.88705540 29.79999924 4.59999990
v 9.88705540 29.97500038 4.59999990
v 9.38705540 32.22499847 4.59999990
v 9.38705540 32.57500076 4.59999990
v 9.88705540 32.22499847 4.59999990
v 9.88705540 32.57500076 4.59999990
v 9.38705540 34.82500076 4.59999990
v 9.88705540 34.82500076 4.59999990
v 7.59642887 28.79636192 5.00000000
v 7.69316626 28.84469604 5.00000000
v 7.78693581 28.89712143 5.00000000
v 7.87733507 28.95341301 5.00000000
v 7.96397734 29.01332855 5.00000000
v 8.04649258 29.07661438 5.00000000
v 8.12452507 29.14299774 5.00000000
v 8.19774342 29.21219254 5.00000000
v 8.26583290 29.28390694 5.00000000
v 8.32850075 29.35783005 5.00000000
v 8.38548088 29.43364525 5.00000000
v 8.43652821 29.51103210 5.00000000
v 8.48142338 29.58965492 5.00000000
v 8.49855804 29.62500000 5.00000000
v 8.61294460 29.97500038 5.00000000
v 7.59642887 28.79636192 5.50000000
v 7.69316626 28.84469604 5.50000000
v 7.78693581 28.89712143 5.50000000
v 7.87733507 28.95341301 5.50000000
v 7.96397734 29.01332855 5.50000000
v 8.04649258 29.07661438 5.50000000
v 8.12452507 29.14299774 5.50000000
v 8.19774342 29.21219254 5.50000000
v 8.26583290 29.28390694 5.50000000
v 8.32850075 29.35783005 5.50000000
v 8.38548088 29.43364525 5.50000000
v 8.43652821 29.51103210 5.50000000
v 8.48142338 29.58965492 5.50000000
v 8.51997471 29.66917801 5.50000000
v 8.55201817 29.74926186 5.50000000
v 8.56806564 29.79999924 5.50000000
v 8.61294460 29.79999924 5.50000000
v 7.53968954 31.02018166 5.00000000
v 7.63794518 31.00901222 5.00000000
v 7.73346901 30.99266624 5.00000000
v 7.82585192 30.97121429 5.00000000
v 7.91469860 30.94474411 5.00000000
v 7.99962854 30.91337395 5.00000000
v 8.08027744 30.87723732 5.00000000
v 8.11294460 30.85972595 5.00000000
v 8.11294460 32.22499847 5.00000000
v 8.11294460 32.57500076 5.00000000
v 8.11294460 34.82500076 5.00000000
v 8.61294460 32.22499847 5.00000000
v 8.61294460 32.57500076 5.00000000
v 8.61294460 34.82500076 5.00000000
v 7.53968954 31.02018166 5.50000000
v 7.63794518 31.00901222 5.50000000
v 7.73346901 30.99266624 5.50000000
v 7.82585192 30.97121429 5.50000000
v 7.91469860 30.94474411 5.50000000
v 7.99962854 30.91337395 5.50000000
v 8.08027744 30.87723732 5.50000000
v 8.11294460 30.85972595 5.50000000
v 9.38705540 29.97500038 5.00000000
v 9.88705540 29.97500038 5.00000000
v 9.38705540 29.79999924 5.50000000
v 9.88705540 29.79999924 5.50000000
v 9.38705540 32.22499847 5.00000000
v 9.38705540 32.57500076 5.00000000
v 9.88705540 32.22499847 5.00000000
v 9.88705540 32.57500076 5.00000000
v 9.38705540 34.82500076 5.00000000
v 9.88705540 34.82500076 5.00000000
v 0.60000002 69.40000153 0.00000000
v 0.00000000 69.40000153 0.60000002
v 0.60000002 70.00000000 0.60000002
v 0.19999985 35.17499924 4.59999990
v 0.19999985 37.42499924 4.59999990
v 0.19999985 37.77500153 4.59999990
v 0.19999985 40.02500153 4.59999990
v 0.19999985 40.37500000 4.59999990
v 0.60000002 35.17499924 5.00000000
v 0.60000002 37.42499924 5.00000000
v 0.60000002 37.77500153 5.00000000
v 0.60000002 40.02500153 5.00000000
v 0.60000002 40.37500000 5.00000000
v 0.00000000 69.40000153 4.40000010
v 0.60000002 70.00000000 4.40000010
v 0.60000002 69.40000153 5.00000000
v 4.54141092 56.50000000 4.59999990
v 4.54141092 57.79999924 4.59999990
v 4.54141092 60.34999847 4.59999990
v 4.54141092 56.50000000 5.00000000
v 4.54141092 61.65000153 4.59999990
v 4.54141092 64.19999695 4.59999990
v 4.54141092 65.50000000 4.59999990
v 4.54141092 65.50000000 5.00000000
v 5.60231113 37.77500153 4.59999990
v 5.67670631 37.42499924 4.59999990
v 5.86157894 37.42499924 4.59999990
v 6.02500010 37.42499924 4.59999990
v 6.02500010 37.45973587 4.59999990
v 6.02500010 40.02500153 4.59999990
v 6.02500010 40.37500000 4.59999990
v 6.47499990 37.42499924 4.59999990
v 6.47499990 37.55538559 4.59999990
v 7.12500000 37.42499924 4.59999990
v 7.12500000 37.69354630 4.59999990
v 6.47499990 40.10645294 4.59999990
v 6.47499990 40.37500000 4.59999990
v 7.12500000 40.24461365 4.59999990
v 7.12500000 40.37500000 4.59999990
v 5.56774759 37.93761063 5.00000000
v 5.60231113 37.77500153 5.00000000
v 6.02500010 36.04000092 5.00000000
v 5.67670631 37.42499924 5.00000000
v 5.68469810 37.38740158 5.00000000
v 5.86157894 37.42499924 5.00000000
v 5.68469810 39.36340332 5.00000000
v 6.02500010 37.42499924 5.00000000
v 6.02500010 38.03480148 5.00000000
v 5.56774759 37.93761063 5.50000000
v 6.02500010 36.04000092 5.50000000
v 5.68469810 37.38740158 5.50000000
v 5.68469810 39.36340332 5.50000000
v 6.02500010 37.45973587 5.50000000
v 6.02500010 38.03480148 5.50000000
v 5.56774759 39.91360855 5.00000000
v 6.02500010 39.43573380 5.00000000
v 6.02500010 40.02500153 5.00000000
v 6.02500010 40.01080322 5.00000000
v 6.02500010 40.37500000 5.00000000
v 6.02500010 41.75999832 5.00000000
v 5.56774759 39.91360855 5.50000000
v 6.02500010 39.43573380 5.50000000
v 6.02500010 40.01080322 5.50000000
v 6.02500010 41.75999832 5.50000000
v 6.47499990 36.04000092 5.00000000
v 6.47499990 37.42499924 5.00000000
v 6.47499990 38.13045120 5.00000000
v 7.12500000 36.04000092 5.00000000
v 7.12500000 37.42499924 5.00000000
v 7.12500000 38.26861572 5.00000000
v 6.47499990 36.04000092 5.50000000
v 6.47499990 37.55538559 5.50000000
v 6.47499990 38.13045120 5.50000000
v 7.12500000 36.04000092 5.50000000
v 7.12500000 37.69354630 5.50000000
v 7.12500000 38.26861572 5.50000000
v 6.47499990 39.53138733 5.00000000
v 6.47499990 40.37500000 5.00000000
v 6.47499990 41.75999832 5.00000000
v 7.12500000 39.66954803 5.00000000
v 7.12500000 40.37500000 5.00000000
v 7.12500000 41.75999832 5.00000000
v 6.47499990 39.53138733 5.50000000
v 6.47499990 40.10645294 5.50000000
v 6.47499990 41.75999832 5.50000000
v 7.12500000 39.66954803 5.50000000
v 7.12500000 40.24461365 5.50000000
v 7.12500000 41.75999832 5.50000000
v 8.11294460 35.17499924 4.59999990
v 7.57499981 37.42499924 4.59999990
v 7.57499981 37.77500153 4.59999990
v 8.11294460 37.42499924 4.59999990
v 8.11294460 37.50000000 4.59999990
v 8.61294460 35.17499924 4.59999990
v 8.61294460 37.42499924 4.59999990
v 8.61294460 37.50000000 4.59999990
v 7.57499981 40.37500000 4.59999990
v 7.57499981 40.34026337 4.59999990
v 7.73842096 40.37500000 4.59999990
v 7.92329359 40.37500000 4.59999990
v 7.99768782 40.02500153 4.59999990
v 9.38705540 35.17499924 4.59999990
v 9.88705540 35.17499924 4.59999990
v 9.38705540 37.42499924 4.59999990
v 9.38705540 37.77500153 4.59999990
v 9.88705540 37.42499924 4.59999990
v 9.88705540 37.77500153 4.59999990
v 7.57499981 36.04000092 5.00000000
v 8.11294460 35.17499924 5.00000000
v 7.57499981 37.42499924 5.00000000
v 7.57499981 37.77500153 5.00000000
v 7.57499981 37.78919983 5.00000000
v 7.57499981 38.36426544 5.00000000
v 8.11294460 37.42499924 5.00000000
v 8.03225231 37.88639069 5.00000000
v 7.91530180 38.43659973 5.00000000
v 8.61294460 35.17499924 5.00000000
v 8.61294460 37.42499924 5.00000000
v 7.57499981 36.04000092 5.50000000
v 7.57499981 37.78919983 5.50000000
v 7.57499981 38.36426544 5.50000000
v 8.11294460 37.50000000 5.50000000
v 8.03225231 37.88639069 5.50000000
v 7.91530180 38.43659973 5.50000000
v 8.61294460 37.50000000 5.50000000
v 7.57499981 39.76519775 5.00000000
v 7.57499981 40.37500000 5.00000000
v 7.73842096 40.37500000 5.00000000
v 7.92329359 40.37500000 5.00000000
v 7.91530180 40.41259766 5.00000000
v 8.03225231 39.86238861 5.00000000
v 7.99768782 40.02500153 5.00000000
v 7.57499981 41.75999832 5.00000000
v 7.57499981 39.76519775 5.50000000
v 7.57499981 40.34026337 5.50000000
v 7.91530180 40.41259766 5.50000000
v 8.03225231 39.86238861 5.50000000
v 7.57499981 41.75999832 5.50000000
v 9.38705540 35.17499924 5.00000000
v 9.88705540 35.17499924 5.00000000
v 9.38705540 37.42499924 5.00000000
v 9.38705540 37.77500153 5.00000000
v 9.38705540 38.90000153 5.00000000
v 9.43193436 38.90000153 5.00000000
v 9.44798183 38.95073700 5.00000000
v 9.48002529 39.03082275 5.00000000
v 9.51857662 39.11034393 5.00000000
v 9.56347179 39.18896866 5.00000000
v 9.61451912 39.26635361 5.00000000
v 9.67149925 39.34217072 5.00000000
v 9.88705540 37.42499924 5.00000000
v 9.88705540 37.77500153 5.00000000
v 9.88705540 37.84027481 5.00000000
v 9.91972256 37.82276154 5.00000000
v 9.38705540 38.90000153 5.50000000
v 9.43193436 38.90000153 5.50000000
v 9.44798183 38.95073700 5.50000000
v 9.48002529 39.03082275 5.50000000
v 9.51857662 39.11034393 5.50000000
v 9.56347179 39.18896866 5.50000000
v 9.61451912 39.26635361 5.50000000
v 9.67149925 39.34217072 5.50000000
v 9.88705540 37.84027481 5.50000000
v 9.91972256 37.82276154 5.50000000
v 9.73416710 39.41609573 5.00000000
v 9.80225658 39.48780823 5.00000000
v 9.87547493 39.55700302 5.00000000
v 9.95350742 39.62338638 5.00000000
v 9.73416710 39.41609573 5.50000000
v 9.80225658 39.48780823 5.50000000
v 9.87547493 39.55700302 5.50000000
v 9.95350742 39.62338638 5.50000000
v 9.68469810 46.48740005 5.00000000
v 9.56774807 47.03760910 5.00000000
v 9.68469810 46.48740005 5.50000000
v 9.56774807 47.03760910 5.50000000
v 9.68469810 48.46340179 5.00000000
v 9.56774807 49.01361084 5.00000000
v 9.68469810 48.46340179 5.50000000
v 9.56774807 49.01361084 5.50000000
v 5.84141111 56.50000000 4.59999990
v 5.84141111 57.79999924 4.59999990
v 5.84141111 60.34999847 4.59999990
v 5.84141111 57.79999924 5.00000000
v 5.84141111 60.34999847 5.00000000
v 5.84141111 61.65000153 4.59999990
v 5.84141111 64.19999695 4.59999990
v 5.84141111 65.50000000 4.59999990
v 5.84141111 61.65000153 5.00000000
v 5.84141111 64.19999695 5.00000000
v 19.39999962 0.60000002 0.00000000
v 19.39999962 0.00000000 0.60000002
v 20.00000000 0.60000002 0.60000002
v 19.39999962 0.00000000 4.40000010
v 20.00000000 0.60000002 4.40000010
v 19.39999962 0.60000002 5.00000000
v 19.79999924 29.62500000 4.59999990
v 19.79999924 29.97500038 4.59999990
v 19.79999924 32.22499847 4.59999990
v 19.79999924 32.57500076 4.59999990
v 19.79999924 34.82500076 4.59999990
v 19.39999962 29.62500000 5.00000000
v 19.39999962 29.97500038 5.00000000
v 19.39999962 32.22499847 5.00000000
v 19.39999962 32.57500076 5.00000000
v 19.39999962 34.82500076 5.00000000
v 19.39999962 69.40000153 0.00000000
v 19.39999962 70.00000000 0.60000002
v 20.00000000 69.40000153 0.60000002
v 10.03184223 37.77500153 4.59999990
v 10.08530140 37.75525665 4.59999990
v 10.17414761 37.72878647 4.59999990
v 10.26653099 37.70733261 4.59999990
v 10.36205482 37.69098663 4.59999990
v 10.46030998 37.67981720 4.59999990
v 10.56087685 37.67387390 4.59999990
v 10.66332436 37.67318344 4.59999990
v 10.76721287 37.67774200 4.59999990
v 10.87209797 37.68753815 4.59999990
v 10.97753143 37.70252228 4.59999990
v 11.08306122 37.72263718 4.59999990
v 11.18823433 37.74779129 4.59999990
v 10.71740055 40.02500153 4.59999990
v 10.81176567 40.05220795 4.59999990
v 10.91693878 40.07736206 4.59999990
v 11.02246857 40.09747696 4.59999990
v 11.12790203 40.11246490 4.59999990
v 11.23278713 40.12225723 4.59999990
v 11.28261280 37.77500153 4.59999990
v 11.33667564 40.12681961 4.59999990
v 11.43912315 40.12612534 4.59999990
v 11.53969002 40.12018204 4.59999990
v 11.63794518 40.10901260 4.59999990
v 11.73346901 40.09266663 4.59999990
v 11.82585239 40.07121277 4.59999990
v 11.91469860 40.04474640 4.59999990
v 11.96815109 40.02500153 4.59999990
v 10.00037193 37.78662491 5.00000000
v 10.03184223 37.77500153 5.00000000
v 10.00037193 37.78662491 5.50000000
v 10.08530140 37.75525665 5.50000000
v 10.17414761 37.72878647 5.50000000
v 10.26653099 37.70733261 5.50000000
v 10.36205482 37.69098663 5.50000000
v 10.46030998 37.67981720 5.50000000
v 10.56087685 37.67387390 5.50000000
v 10.66332436 37.67318344 5.50000000
v 10.76721287 37.67774200 5.50000000
v 10.87209797 37.68753815 5.50000000
v 10.97753143 37.70252228 5.50000000
v 11.08306122 37.72263718 5.50000000
v 11.18823433 37.74779129 5.50000000
v 10.03602219 39.68667221 5.00000000
v 10.12266541 39.74658585 5.00000000
v 10.21306419 39.80287933 5.00000000
v 10.30683327 39.85530472 5.00000000
v 10.40357113 39.90363693 5.00000000
v 10.50286198 39.94767380 5.00000000
v 10.60428238 39.98722458 5.00000000
v 10.71740055 40.02500153 5.00000000
v 10.70739746 40.02211761 5.00000000
v 10.03602219 39.68667221 5.50000000
v 10.12266541 39.74658585 5.50000000
v 10.21306419 39.80287933 5.50000000
v 10.30683327 39.85530472 5.50000000
v 10.40357113 39.90363693 5.50000000
v 10.50286198 39.94767380 5.50000000
v 10.60428238 39.98722458 5.50000000
v 10.70739746 40.02211761 5.50000000
v 10.81176567 40.05220795 5.50000000
v 10.91693878 40.07736206 5.50000000
v 11.02246857 40.09747696 5.50000000
v 11.12790203 40.11246490 5.50000000
v 11.23278713 40.12225723 5.50000000
v 11.28261280 37.77500153 5.00000000
v 11.29260254 37.77788162 5.00000000
v 11.39571762 37.81277466 5.00000000
v 11.49713802 37.85232544 5.00000000
v 11.59642887 37.89636230 5.00000000
v 11.69316673 37.94469833 5.00000000
v 11.78693581 37.99711990 5.00000000
v 11.87733459 38.05341339 5.00000000
v 11.96397781 38.11333084 5.00000000
v 12.04649258 38.17661285 5.00000000
v 12.12452507 38.24299622 5.00000000
v 12.19774342 38.31219482 5.00000000
v 12.26583290 38.38390732 5.00000000
v 12.32850075 38.45782852 5.00000000
v 12.38548088 38.53364563 5.00000000
v 12.43652821 38.61103058 5.00000000
v 12.48142338 38.68965530 5.00000000
v 11.29260254 37.77788162 5.50000000
v 11.39571762 37.81277466 5.50000000
v 11.49713802 37.85232544 5.50000000
v 11.59642887 37.89636230 5.50000000
v 11.69316673 37.94469833 5.50000000
v 11.78693581 37.99711990 5.50000000
v 11.87733459 38.05341339 5.50000000
v 11.96397781 38.11333084 5.50000000
v 12.04649258 38.17661285 5.50000000
v 12.12452507 38.24299622 5.50000000
v 12.19774342 38.31219482 5.50000000
v 12.26583290 38.38390732 5.50000000
v 12.32850075 38.45782852 5.50000000
v 12.38548088 38.53364563 5.50000000
v 12.43652821 38.61103058 5.50000000
v 12.48142338 38.68965530 5.50000000
v 11.96815109 40.02500153 5.00000000
v 11.99962807 40.01337433 5.00000000
v 12.08027744 39.97723770 5.00000000
v 12.15630054 39.93648529 5.00000000
v 12.22737217 39.89129639 5.00000000
v 12.29318810 39.84186172 5.00000000
v 12.35346699 39.78839493 5.00000000
v 12.40794945 39.73112488 5.00000000
v 12.49862003 39.60616302 5.00000000
v 12.45640278 39.67029190 5.00000000
v 12.39999962 42.54999924 5.00000000
v 12.39999962 43.04999924 5.00000000
v 11.33667564 40.12681961 5.50000000
v 11.43912315 40.12612534 5.50000000
v 11.53969002 40.12018204 5.50000000
v 11.63794518 40.10901260 5.50000000
v 11.73346901 40.09266663 5.50000000
v 11.82585239 40.07121277 5.50000000
v 11.91469860 40.04474640 5.50000000
v 11.99962807 40.01337433 5.50000000
v 12.08027744 39.97723770 5.50000000
v 12.15630054 39.93648529 5.50000000
v 12.22737217 39.89129639 5.50000000
v 12.29318810 39.84186172 5.50000000
v 12.35346699 39.78839493 5.50000000
v 12.40794945 39.73112488 5.50000000
v 12.49862003 39.60616302 5.50000000
v 12.45640278 39.67029190 5.50000000
v 12.39999962 42.54999924 5.50000000
v 12.39999962 43.04999924 5.50000000
v 10.02499962 45.13999939 5.00000000
v 10.47500038 45.13999939 5.00000000
v 10.02499962 46.55973434 5.00000000
v 10.02499962 47.13480377 5.00000000
v 10.47500038 46.65538406 5.00000000
v 10.47500038 47.23045349 5.00000000
v 11.12500000 45.13999939 5.00000000
v 11.12500000 46.79354858 5.00000000
v 11.12500000 47.36861420 5.00000000
v 10.02499962 45.13999939 5.50000000
v 10.47500038 45.13999939 5.50000000
v 10.02499962 46.55973434 5.50000000
v 10.02499962 47.13480377 5.50000000
v 10.47500038 46.65538406 5.50000000
v 10.47500038 47.23045349 5.50000000
v 11.12500000 45.13999939 5.50000000
v 11.12500000 46.79354858 5.50000000
v 11.12500000 47.36861420 5.50000000
v 10.02499962 48.53573608 5.00000000
v 10.02499962 49.11080170 5.00000000
v 10.47500038 48.63138580 5.00000000
v 10.47500038 49.20645142 5.00000000
v 10.02499962 50.86000061 5.00000000
v 10.47500038 50.86000061 5.00000000
v 11.12500000 48.76954651 5.00000000
v 11.12500000 49.34461594 5.00000000
v 11.12500000 50.86000061 5.00000000
v 10.02499962 48.53573608 5.50000000
v 10.02499962 49.11080170 5.50000000
v 10.47500038 48.63138580 5.50000000
v 10.47500038 49.20645142 5.50000000
v 10.02499962 50.86000061 5.50000000
v 10.47500038 50.86000061 5.50000000
v 11.12500000 48.76954651 5.50000000
v 11.12500000 49.34461594 5.50000000
v 11.12500000 50.86000061 5.50000000
v 11.57499981 45.13999939 5.00000000
v 11.57499981 46.88919830 5.00000000
v 11.57499981 47.46426392 5.00000000
v 12.39999962 45.15000153 5.00000000
v 12.39999962 45.65000153 5.00000000
v 12.03225231 46.98638916 5.00000000
v 11.91530228 47.53659821 5.00000000
v 12.39999962 47.75000000 5.00000000
v 11.57499981 45.13999939 5.50000000
v 11.57499981 46.88919830 5.50000000
v 11.57499981 47.46426392 5.50000000
v 12.39999962 45.15000153 5.50000000
v 12.39999962 45.65000153 5.50000000
v 12.03225231 46.98638916 5.50000000
v 11.91530228 47.53659821 5.50000000
v 12.39999962 47.75000000 5.50000000
v 11.57499981 48.86519623 5.00000000
v 11.57499981 49.44026566 5.00000000
v 11.57499981 50.86000061 5.00000000
v 12.03225231 48.96239090 5.00000000
v 11.91530228 49.51259995 5.00000000
v 12.39999962 48.25000000 5.00000000
v 11.57499981 48.86519623 5.50000000
v 11.57499981 49.44026566 5.50000000
v 11.57499981 50.86000061 5.50000000
v 12.03225231 48.96239090 5.50000000
v 11.91530228 49.51259995 5.50000000
v 12.39999962 48.25000000 5.50000000
v 13.38705540 40.02500153 4.59999990
v 13.38705540 40.37500000 4.59999990
v 13.88705540 40.02500153 4.59999990
v 13.88705540 40.37500000 4.59999990
v 12.51997471 38.76917648 5.00000000
v 12.55201817 38.84926224 5.00000000
v 12.57741547 38.92956161 5.00000000
v 12.59605694 39.00973511 5.00000000
v 12.60786533 39.08944321 5.00000000
v 12.61278725 39.16833496 5.00000000
v 12.61080360 39.24607849 5.00000000
v 12.60192299 39.32234192 5.00000000
v 13.38705540 38.90000153 5.00000000
v 12.51997471 38.76917648 5.50000000
v 12.55201817 38.84926224 5.50000000
v 12.57741547 38.92956161 5.50000000
v 12.59605694 39.00973511 5.50000000
v 12.60786533 39.08944321 5.50000000
v 12.61278725 39.16833496 5.50000000
v 12.61080360 39.24607849 5.50000000
v 12.60192299 39.32234192 5.50000000
v 13.38705540 38.90000153 5.50000000
v 12.53441906 39.53900909 5.00000000
v 12.56364822 39.46912003 5.00000000
v 12.58618164 39.39679337 5.00000000
v 13.38705540 40.02500153 5.00000000
v 13.38705540 40.37500000 5.00000000
v 13.38705540 42.54999924 5.00000000
v 13.38705540 43.04999924 5.00000000
v 12.53441906 39.53900909 5.50000000
v 12.56364822 39.46912003 5.50000000
v 12.58618164 39.39679337 5.50000000
v 13.38705540 42.54999924 5.50000000
v 13.38705540 43.04999924 5.50000000
v 13.88705540 38.90000153 5.00000000
v 13.88705540 38.90000153 5.50000000
v 13.88705540 40.02500153 5.00000000
v 13.88705540 40.37500000 5.00000000
v 13.88705540 42.54999924 5.00000000
v 13.88705540 43.04999924 5.00000000
v 13.88705540 42.54999924 5.50000000
v 13.88705540 43.04999924 5.50000000
v 13.38705540 45.15000153 5.00000000
v 13.38705540 45.65000153 5.00000000
v 13.38705540 47.75000000 5.00000000
v 13.38705540 45.15000153 5.50000000
v 13.38705540 45.65000153 5.50000000
v 13.38705540 47.75000000 5.50000000
v 13.54122066 48.25000000 5.00000000
v 13.56347179 48.28896713 5.00000000
v 13.61451912 48.36635590 5.00000000
v 13.67149925 48.44216919 5.00000000
v 13.73416710 48.51609421 5.00000000
v 13.54122066 48.25000000 5.50000000
v 13.56347179 48.28896713 5.50000000
v 13.61451912 48.36635590 5.50000000
v 13.67149925 48.44216919 5.50000000
v 13.73416710 48.51609421 5.50000000
v 13.88705540 45.15000153 5.00000000
v 13.88705540 45.65000153 5.00000000
v 13.88705540 46.94027328 5.00000000
v 13.91972256 46.92276382 5.00000000
v 14.00037193 46.88662338 5.00000000
v 14.08530140 46.85525513 5.00000000
v 14.17414761 46.82878494 5.00000000
v 14.26653099 46.80733490 5.00000000
v 14.36205482 46.79098892 5.00000000
v 14.46030998 46.77981949 5.00000000
v 14.56087685 46.77387619 5.00000000
v 14.66332436 46.77318192 5.00000000
v 14.76721287 46.77774048 5.00000000
v 14.87209797 46.78753662 5.00000000
v 14.97753143 46.80252075 5.00000000
v 13.88705540 45.15000153 5.50000000
v 13.88705540 45.65000153 5.50000000
v 13.88705540 46.94027328 5.50000000
v 13.91972256 46.92276382 5.50000000
v 14.00037193 46.88662338 5.50000000
v 14.08530140 46.85525513 5.50000000
v 14.17414761 46.82878494 5.50000000
v 14.26653099 46.80733490 5.50000000
v 14.36205482 46.79098892 5.50000000
v 14.46030998 46.77981949 5.50000000
v 14.56087685 46.77387619 5.50000000
v 14.66332436 46.77318192 5.50000000
v 14.76721287 46.77774048 5.50000000
v 14.87209797 46.78753662 5.50000000
v 14.97753143 46.80252075 5.50000000
v 13.80225658 48.58780670 5.00000000
v 13.87547493 48.65700150 5.00000000
v 13.95350742 48.72338486 5.00000000
v 14.03602219 48.78667068 5.00000000
v 14.12266541 48.84658813 5.00000000
v 14.21306419 48.90287781 5.00000000
v 14.30683327 48.95530319 5.00000000
v 14.40357113 49.00363922 5.00000000
v 14.50286198 49.04767609 5.00000000
v 14.60428238 49.08722305 5.00000000
v 14.70739746 49.12211990 5.00000000
v 14.81176567 49.15220642 5.00000000
v 14.91693878 49.17736435 5.00000000
v 13.80225658 48.58780670 5.50000000
v 13.87547493 48.65700150 5.50000000
v 13.95350742 48.72338486 5.50000000
v 14.03602219 48.78667068 5.50000000
v 14.12266541 48.84658813 5.50000000
v 14.21306419 48.90287781 5.50000000
v 14.30683327 48.95530319 5.50000000
v 14.40357113 49.00363922 5.50000000
v 14.50286198 49.04767609 5.50000000
v 14.60428238 49.08722305 5.50000000
v 14.70739746 49.12211990 5.50000000
v 14.81176567 49.15220642 5.50000000
v 14.91693878 49.17736435 5.50000000
v 10.84141159 60.34999847 4.59999990
v 11.54141140 56.50000000 4.59999990
v 11.54141140 57.79999924 4.59999990
v 12.34141159 59.88298416 4.59999990
v 10.84141159 60.34999847 5.00000000
v 11.54141140 56.50000000 5.00000000
v 11.54141140 57.79999924 5.00000000
v 12.34141159 59.88298416 5.00000000
v 10.84141159 61.65000153 4.59999990
v 11.54141140 64.19999695 4.59999990
v 11.54141140 65.50000000 4.59999990
v 12.34141159 62.35298157 4.59999990
v 10.84141159 61.65000153 5.00000000
v 11.54141140 64.19999695 5.00000000
v 11.54141140 65.50000000 5.00000000
v 12.34141159 62.35298157 5.00000000
v 12.52414608 59.02328110 4.59999990
v 12.86093712 57.42499924 4.59999990
v 12.86093712 59.09487152 4.59999990
v 12.86093712 59.99341202 4.59999990
v 13.56406212 57.42499924 4.59999990
v 13.56406212 59.24432373 4.59999990
v 13.56406212 60.14286423 4.59999990
v 14.23593712 57.42499924 4.59999990
v 14.23593712 59.38713455 4.59999990
v 14.23593712 60.28567505 4.59999990
v 14.93906212 57.42499924 4.59999990
v 14.93906212 59.53659058 4.59999990
v 14.93906212 60.43513107 4.59999990
v 12.52414608 59.02328110 5.00000000
v 12.86093712 57.42499924 5.00000000
v 12.86093712 59.09487152 5.00000000
v 12.86093712 59.99341202 5.00000000
v 13.56406212 57.42499924 5.00000000
v 13.56406212 59.24432373 5.00000000
v 13.56406212 60.14286423 5.00000000
v 14.23593712 57.42499924 5.00000000
v 14.23593712 59.38713455 5.00000000
v 14.23593712 60.28567505 5.00000000
v 14.93906212 57.42499924 5.00000000
v 14.93906212 59.53659058 5.00000000
v 14.93906212 60.43513107 5.00000000
v 12.52414608 61.49328232 4.59999990
v 12.86093712 61.56486893 4.59999990
v 12.86093712 62.46340942 4.59999990
v 12.86093712 64.57499695 4.59999990
v 13.56406212 61.71432495 4.59999990
v 13.56406212 62.61286545 4.59999990
v 13.56406212 64.57499695 4.59999990
v 14.23593712 61.85713577 4.59999990
v 14.23593712 62.75567627 4.59999990
v 14.23593712 64.57499695 4.59999990
v 14.93906212 62.00658798 4.59999990
v 14.93906212 62.90512848 4.59999990
v 14.93906212 64.57499695 4.59999990
v 12.52414608 61.49328232 5.00000000
v 12.86093712 61.56486893 5.00000000
v 12.86093712 62.46340942 5.00000000
v 12.86093712 64.57499695 5.00000000
v 13.56406212 61.71432495 5.00000000
v 13.56406212 62.61286545 5.00000000
v 13.56406212 64.57499695 5.00000000
v 14.23593712 61.85713577 5.00000000
v 14.23593712 62.75567627 5.00000000
v 14.23593712 64.57499695 5.00000000
v 14.93906212 62.00658798 5.00000000
v 14.93906212 62.90512848 5.00000000
v 14.93906212 64.57499695 5.00000000
v 15.08306122 46.82263565 5.00000000
v 15.18823433 46.84779358 5.00000000
v 15.29260254 46.87788010 5.00000000
v 15.39571762 46.91277695 5.00000000
v 15.49713802 46.95232391 5.00000000
v 15.59642887 46.99636078 5.00000000
v 15.69316673 47.04469681 5.00000000
v 15.78693581 47.09712219 5.00000000
v 15.87733459 47.15341187 5.00000000
v 15.96397781 47.21332932 5.00000000
v 16.04649162 47.27661514 5.00000000
v 16.12452507 47.34299850 5.00000000
v 16.19774437 47.41219330 5.00000000
v 15.08306122 46.82263565 5.50000000
v 15.18823433 46.84779358 5.50000000
v 15.29260254 46.87788010 5.50000000
v 15.39571762 46.91277695 5.50000000
v 15.49713802 46.95232391 5.50000000
v 15.59642887 46.99636078 5.50000000
v 15.69316673 47.04469681 5.50000000
v 15.78693581 47.09712219 5.50000000
v 15.87733459 47.15341187 5.50000000
v 15.96397781 47.21332932 5.50000000
v 16.04649162 47.27661514 5.50000000
v 16.12452507 47.34299850 5.50000000
v 16.19774437 47.41219330 5.50000000
v 15.02246857 49.19747925 5.00000000
v 15.12790203 49.21246338 5.00000000
v 15.23278713 49.22225952 5.00000000
v 15.33667564 49.22681808 5.00000000
v 15.43912315 49.22612381 5.00000000
v 15.53969002 49.22018051 5.00000000
v 15.63794518 49.20901108 5.00000000
v 15.73346901 49.19266510 5.00000000
v 15.82585239 49.17121506 5.00000000
v 15.91469860 49.14474487 5.00000000
v 15.99962807 49.11337662 5.00000000
v 16.08027840 49.07723618 5.00000000
v 16.15630150 49.03648758 5.00000000
v 16.22737312 48.99129486 5.00000000
v 15.02246857 49.19747925 5.50000000
v 15.12790203 49.21246338 5.50000000
v 15.23278713 49.22225952 5.50000000
v 15.33667564 49.22681808 5.50000000
v 15.43912315 49.22612381 5.50000000
v 15.53969002 49.22018051 5.50000000
v 15.63794518 49.20901108 5.50000000
v 15.73346901 49.19266510 5.50000000
v 15.82585239 49.17121506 5.50000000
v 15.91469860 49.14474487 5.50000000
v 15.99962807 49.11337662 5.50000000
v 16.08027840 49.07723618 5.50000000
v 16.15630150 49.03648758 5.50000000
v 16.22737312 48.99129486 5.50000000
v 16.26583290 47.48390579 5.00000000
v 16.32850075 47.55783081 5.00000000
v 16.38548088 47.63364410 5.00000000
v 16.43652725 47.71103287 5.00000000
v 16.45878029 47.75000000 5.00000000
v 16.26583290 47.48390579 5.50000000
v 16.32850075 47.55783081 5.50000000
v 16.38548088 47.63364410 5.50000000
v 16.43652725 47.71103287 5.50000000
v 16.45878029 47.75000000 5.50000000
v 16.29318810 48.94186401 5.00000000
v 16.35346603 48.88839340 5.00000000
v 16.53442001 48.63901138 5.00000000
v 16.40794945 48.83112335 5.00000000
v 16.45640373 48.77029419 5.00000000
v 16.49861908 48.70616531 5.00000000
v 16.61164284 48.25000000 5.00000000
v 16.61278725 48.26833344 5.00000000
v 16.61080360 48.34608078 5.00000000
v 16.58618164 48.49679565 5.00000000
v 16.56364822 48.56912231 5.00000000
v 16.60192299 48.42234039 5.00000000
v 16.29318810 48.94186401 5.50000000
v 16.35346603 48.88839340 5.50000000
v 16.53442001 48.63901138 5.50000000
v 16.40794945 48.83112335 5.50000000
v 16.45640373 48.77029419 5.50000000
v 16.49861908 48.70616531 5.50000000
v 16.61164284 48.25000000 5.50000000
v 16.61278725 48.26833344 5.50000000
v 16.61080360 48.34608078 5.50000000
v 16.58618164 48.49679565 5.50000000
v 16.56364822 48.56912231 5.50000000
v 16.60192299 48.42234039 5.50000000
v 19.79999924 35.17499924 4.59999990
v 19.79999924 37.42499924 4.59999990
v 19.79999924 37.77500153 4.59999990
v 19.79999924 40.02500153 4.59999990
v 19.79999924 40.37500000 4.59999990
v 17.60000038 42.54999924 5.00000000
v 17.60000038 43.04999924 5.00000000
v 17.60000038 42.54999924 5.50000000
v 17.60000038 43.04999924 5.50000000
v 19.39999962 35.17499924 5.00000000
v 19.39999962 37.42499924 5.00000000
v 19.39999962 37.77500153 5.00000000
v 19.39999962 40.02500153 5.00000000
v 19.39999962 40.37500000 5.00000000
v 17.60000038 45.15000153 5.00000000
v 17.60000038 45.65000153 5.00000000
v 17.60000038 47.75000000 5.00000000
v 17.60000038 45.15000153 5.50000000
v 17.60000038 45.65000153 5.50000000
v 17.60000038 47.75000000 5.50000000
v 17.60000038 48.25000000 5.00000000
v 17.60000038 48.25000000 5.50000000
v 15.27585411 60.50671768 4.59999990
v 15.45858860 59.64701843 4.59999990
v 15.27585411 60.50671768 5.00000000
v 15.45858860 59.64701843 5.00000000
v 15.27585411 62.97671890 4.59999990
v 15.45858860 62.11701584 4.59999990
v 15.27585411 62.97671890 5.00000000
v 15.45858860 62.11701584 5.00000000
v 19.39999962 70.00000000 4.40000010
v 20.00000000 69.40000153 4.40000010
v 19.39999962 69.40000153 5.00000000
f 1 3 2
f 2 3 5
f 1 2 319
f 2 4 320
f 1 510 3
f 1 319 509
f 2 5 4
f 4 5 6
f 4 6 7
f 6 20 7
f 6 28 20
f 7 13 8
f 7 20 12
f 4 7 332
f 8 21 9
f 10 23 11
f 9 17 10
f 9 22 16
f 7 12 13
f 8 13 33
f 9 16 17
f 10 17 54
f 8 33 21
f 21 22 9
f 11 23 24
f 10 54 23
f 21 51 22
f 23 55 24
f 20 28 25
f 20 32 12
f 20 25 26
f 20 26 32
f 21 27 51
f 21 33 27
f 32 26 31
f 28 29 25
f 33 34 27
f 22 53 16
f 22 51 52
f 22 52 53
f 23 54 55
f 24 55 59
f 14 66 15
f 14 65 66
f 14 37 65
f 78 15 66
f 18 70 19
f 69 70 18
f 18 57 69
f 93 19 70
f 11 24 241
f 67 117 68
f 67 82 113
f 113 114 67
f 67 114 115
f 67 115 116
f 67 116 117
f 68 117 118
f 68 118 130
f 30 75 35
f 30 73 75
f 15 78 38
f 65 37 77
f 77 37 36
f 38 79 39
f 77 36 76
f 78 79 38
f 74 105 80
f 82 81 106
f 83 109 95
f 93 58 19
f 69 57 92
f 56 92 57
f 93 59 58
f 92 56 91
f 93 94 59
f 97 96 110
f 24 59 297
f 83 68 130
f 82 106 128
f 83 130 109
f 74 126 105
f 74 124 126
f 74 134 124
f 134 74 135
f 82 128 113
f 105 119 106
f 127 106 119
f 128 106 129
f 129 106 127
f 123 105 120
f 105 122 119
f 105 123 122
f 120 105 121
f 121 105 125
f 109 141 110
f 97 110 209
f 297 59 94
f 297 94 99
f 3 512 5
f 5 512 6
f 6 514 28
f 71 240 72
f 71 97 239
f 11 241 407
f 71 239 240
f 72 240 296
f 135 74 136
f 136 74 137
f 137 74 138
f 138 74 143
f 143 74 144
f 144 74 145
f 145 74 183
f 183 74 184
f 184 74 185
f 185 74 186
f 125 105 126
f 130 131 109
f 132 109 131
f 133 109 132
f 139 109 133
f 140 109 139
f 109 140 141
f 72 296 98
f 142 110 141
f 146 110 142
f 147 110 146
f 98 296 99
f 179 110 147
f 180 110 179
f 97 209 210
f 209 110 180
f 97 210 211
f 97 211 212
f 24 297 241
f 97 212 213
f 97 213 214
f 97 214 215
f 97 215 216
f 97 216 217
f 97 217 218
f 97 218 219
f 97 219 220
f 97 220 287
f 97 295 239
f 97 287 288
f 97 288 295
f 296 297 99
f 514 30 28
f 514 73 30
f 514 74 73
f 514 186 74
f 237 246 238
f 246 237 245
f 238 246 309
f 242 250 243
f 242 249 250
f 242 298 249
f 243 250 314
f 253 420 244
f 244 300 253
f 295 288 289
f 295 289 290
f 295 290 291
f 295 291 292
f 295 292 293
f 295 293 294
f 238 309 269
f 243 314 299
f 298 313 249
f 269 313 298
f 269 309 313
f 300 317 253
f 317 300 299
f 314 317 299
f 2 320 319
f 319 320 321
f 320 333 321
f 319 321 526
f 321 333 526
f 4 332 320
f 322 327 323
f 324 329 325
f 7 8 332
f 323 343 324
f 323 328 344
f 325 349 326
f 325 330 348
f 326 349 331
f 323 327 328
f 329 330 325
f 327 360 328
f 324 359 329
f 329 358 330
f 8 9 332
f 9 10 332
f 10 11 332
f 11 322 332
f 322 323 332
f 323 324 332
f 324 325 332
f 325 326 332
f 326 331 332
f 11 407 322
f 323 344 343
f 324 343 359
f 325 348 349
f 322 427 327
f 327 383 360
f 328 360 362
f 328 361 344
f 328 362 361
f 329 359 358
f 330 358 366
f 330 366 364
f 327 386 383
f 330 375 348
f 331 349 377
f 330 364 373
f 330 373 376
f 330 376 375
f 331 377 378
f 320 332 333
f 331 334 332
f 331 338 334
f 332 334 333
f 335 338 499
f 335 499 336
f 336 499 337
f 337 499 339
f 339 499 340
f 335 336 342
f 336 337 342
f 335 342 338
f 337 339 342
f 340 506 341
f 339 340 342
f 340 341 342
f 334 338 342
f 322 407 427
f 346 347 345
f 346 345 363
f 352 351 350
f 350 384 352
f 352 353 351
f 355 354 357
f 354 356 357
f 355 357 399
f 327 427 386
f 363 362 360
f 365 363 360
f 346 363 365
f 374 364 366
f 331 378 492
f 383 387 384
f 398 395 385
f 387 383 386
f 352 384 387
f 388 398 385
f 396 355 399
f 396 400 397
f 399 400 396
f 397 491 378
f 331 839 338
f 331 492 495
f 331 495 496
f 331 496 678
f 331 678 839
f 408 411 409
f 410 411 408
f 408 428 410
f 423 409 411
f 423 411 414
f 415 416 417
f 415 417 446
f 244 420 412
f 457 412 420
f 422 414 413
f 422 423 414
f 413 436 422
f 460 409 423
f 424 528 425
f 557 425 528
f 419 541 418
f 419 450 541
f 541 542 418
f 418 542 543
f 418 543 544
f 386 427 426
f 432 428 426
f 432 426 427
f 410 428 432
f 460 429 409
f 460 430 429
f 460 433 430
f 444 431 461
f 434 461 431
f 433 461 434
f 445 415 446
f 446 448 445
f 397 400 656
f 444 465 449
f 450 449 483
f 451 656 400
f 412 457 435
f 435 459 436
f 457 459 435
f 422 436 459
f 460 461 433
f 444 461 462
f 444 462 463
f 444 463 464
f 444 464 465
f 425 557 470
f 470 472 471
f 470 556 472
f 470 557 556
f 466 449 465
f 449 466 467
f 449 467 468
f 449 468 483
f 450 483 484
f 450 484 485
f 450 485 486
f 450 486 571
f 445 636 451
f 445 448 636
f 447 418 746
f 450 578 541
f 450 571 572
f 450 572 573
f 450 573 574
f 450 574 575
f 450 575 576
f 450 576 577
f 447 746 448
f 450 577 579
f 450 579 578
f 378 491 492
f 397 658 491
f 397 656 658
f 451 657 656
f 451 662 657
f 674 495 492
f 659 674 492
f 675 678 496
f 340 499 500
f 340 500 501
f 500 502 501
f 338 835 499
f 501 502 503
f 340 501 504
f 340 504 505
f 504 507 505
f 340 505 844
f 340 844 506
f 341 506 848
f 333 334 1020
f 505 507 508
f 334 342 848
f 341 848 342
f 499 836 500
f 501 842 504
f 501 503 834
f 501 834 842
f 499 835 836
f 500 836 840
f 500 840 502
f 502 840 503
f 338 839 835
f 503 838 834
f 503 840 838
f 505 508 843
f 504 842 846
f 505 843 844
f 506 844 848
f 504 846 507
f 507 846 508
f 508 846 847
f 508 847 843
f 1 509 510
f 3 510 512
f 509 511 510
f 510 511 512
f 509 525 511
f 6 512 514
f 514 187 186
f 514 188 187
f 514 189 188
f 514 190 189
f 514 191 190
f 514 192 191
f 514 193 192
f 514 194 193
f 514 195 194
f 514 255 195
f 514 256 255
f 514 257 256
f 514 258 257
f 514 259 258
f 514 260 259
f 514 261 260
f 514 262 261
f 514 263 262
f 514 264 263
f 514 265 264
f 514 266 265
f 514 267 266
f 514 268 267
f 515 234 233
f 515 235 234
f 515 236 235
f 515 237 236
f 515 233 268
f 515 245 237
f 515 247 245
f 516 248 247
f 518 252 251
f 517 251 315
f 519 254 318
f 521 310 248
f 523 316 252
f 522 315 310
f 524 318 316
f 511 513 512
f 512 513 514
f 513 520 514
f 511 1021 513
f 514 520 268
f 515 516 247
f 516 521 248
f 517 518 251
f 518 523 252
f 519 990 254
f 515 268 520
f 521 522 310
f 523 524 316
f 517 315 522
f 519 318 524
f 513 515 520
f 513 1021 515
f 516 517 522
f 518 519 524
f 516 522 521
f 518 524 523
f 319 525 509
f 319 526 525
f 511 525 527
f 511 527 1021
f 525 526 527
f 526 1021 527
f 424 529 528
f 424 530 529
f 424 531 530
f 424 532 531
f 424 533 532
f 424 534 533
f 418 544 545
f 418 545 546
f 418 546 548
f 418 548 721
f 418 721 746
f 721 548 549
f 721 549 550
f 721 551 552
f 721 550 551
f 721 552 553
f 721 553 554
f 721 554 555
f 555 626 720
f 451 637 662
f 451 636 637
f 448 747 636
f 746 747 448
f 626 627 745
f 745 627 628
f 657 662 663
f 657 663 660
f 661 664 680
f 661 680 676
f 677 682 679
f 677 681 682
f 662 637 692
f 692 697 693
f 637 695 692
f 692 696 697
f 696 692 695
f 694 698 699
f 697 699 698
f 694 699 713
f 694 711 708
f 709 712 710
f 839 710 712
f 694 713 711
f 990 421 254
f 991 534 424
f 991 535 534
f 991 536 535
f 991 424 469
f 555 720 721
f 991 537 536
f 991 538 537
f 991 539 538
f 991 540 539
f 991 547 540
f 999 458 421
f 1000 469 458
f 727 732 728
f 728 732 729
f 730 732 731
f 729 732 730
f 731 732 744
f 720 626 745
f 745 630 631
f 745 628 629
f 745 629 630
f 745 631 632
f 745 632 633
f 745 633 635
f 745 635 634
f 745 634 742
f 745 743 744
f 745 742 743
f 745 744 732
f 1001 593 547
f 1001 594 593
f 1001 595 594
f 1001 596 595
f 1001 597 596
f 1001 598 597
f 1001 599 598
f 1001 600 599
f 1001 601 600
f 1001 602 601
f 1001 603 602
f 1001 604 603
f 1001 605 604
f 1001 606 605
f 1001 607 606
f 1001 608 607
f 1001 609 608
f 1001 724 609
f 1001 725 724
f 1001 726 725
f 1001 727 726
f 762 695 637
f 748 762 637
f 764 697 696
f 697 764 699
f 763 764 696
f 768 711 713
f 711 814 712
f 768 769 711
f 770 711 769
f 771 711 770
f 839 712 814
f 772 711 771
f 808 711 772
f 809 711 808
f 810 711 809
f 811 711 810
f 812 711 811
f 813 711 812
f 814 711 813
f 839 814 815
f 839 815 816
f 839 816 817
f 839 817 818
f 839 818 819
f 779 781 780
f 779 783 782
f 779 784 783
f 779 782 781
f 779 785 784
f 779 786 785
f 779 787 786
f 839 819 820
f 839 820 928
f 839 928 929
f 870 929 930
f 870 930 931
f 333 1020 526
f 834 838 842
f 835 839 836
f 837 841 850
f 839 678 679
f 839 679 682
f 838 846 842
f 839 682 710
f 839 840 836
f 838 840 841
f 839 864 840
f 840 863 841
f 840 865 863
f 840 864 865
f 841 863 850
f 838 841 889
f 843 847 844
f 845 849 876
f 334 848 1022
f 838 849 846
f 846 849 847
f 844 847 848
f 849 889 876
f 838 889 849
f 847 892 848
f 847 849 892
f 851 854 852
f 850 863 852
f 851 864 854
f 851 852 865
f 837 850 853
f 850 856 853
f 853 856 877
f 837 853 866
f 853 877 890
f 852 854 855
f 854 867 855
f 850 852 859
f 856 880 877
f 852 855 859
f 850 859 856
f 856 869 880
f 857 858 871
f 855 858 862
f 855 862 859
f 855 868 858
f 856 859 872
f 857 860 858
f 858 860 861
f 857 870 860
f 860 873 861
f 859 862 883
f 858 861 862
f 862 875 886
f 839 929 870
f 851 865 864
f 839 867 864
f 839 870 867
f 837 866 841
f 852 863 865
f 853 890 866
f 841 866 889
f 866 890 889
f 854 864 867
f 855 867 868
f 869 893 880
f 857 871 870
f 867 871 868
f 867 870 871
f 868 871 858
f 856 872 869
f 859 896 872
f 869 896 893
f 869 872 896
f 860 870 873
f 861 873 874
f 845 876 878
f 876 877 878
f 877 881 878
f 878 881 879
f 876 889 877
f 845 878 891
f 878 879 892
f 877 880 884
f 877 884 881
f 881 894 882
f 879 881 882
f 879 882 895
f 334 1022 1020
f 880 883 884
f 880 893 883
f 881 884 897
f 859 883 896
f 884 885 898
f 862 884 883
f 884 887 885
f 862 886 884
f 884 886 887
f 885 887 888
f 887 900 888
f 885 888 901
f 877 889 890
f 845 891 849
f 878 892 891
f 849 891 892
f 879 895 892
f 848 892 895
f 848 895 898
f 882 894 895
f 848 898 901
f 893 896 883
f 881 897 894
f 884 898 897
f 894 897 898
f 894 898 895
f 875 899 886
f 885 901 898
f 888 900 901
f 994 723 722
f 993 722 756
f 990 999 421
f 992 1001 547
f 991 992 547
f 1001 732 727
f 1001 754 732
f 999 1000 458
f 757 995 758
f 1003 757 723
f 1002 756 754
f 991 469 1000
f 1003 995 757
f 759 996 778
f 779 1005 787
f 787 1005 788
f 788 1005 789
f 789 1005 790
f 790 1005 791
f 791 1005 792
f 792 1005 902
f 902 1005 903
f 903 1005 904
f 904 1005 905
f 905 1005 906
f 906 1005 907
f 870 933 934
f 870 931 932
f 870 932 933
f 870 934 935
f 870 935 936
f 870 936 937
f 870 937 938
f 870 938 939
f 870 939 940
f 870 940 941
f 870 941 966
f 870 969 970
f 870 966 967
f 870 967 969
f 870 970 971
f 870 971 968
f 870 968 976
f 870 976 975
f 870 975 1010
f 1004 778 996
f 1005 908 907
f 1005 909 908
f 1005 910 909
f 1005 911 910
f 1005 912 911
f 1005 913 912
f 913 1005 914
f 914 1005 956
f 956 1005 957
f 957 1005 958
f 958 1005 959
f 959 1005 960
f 1006 960 1005
f 1010 973 972
f 1010 975 977
f 1010 974 973
f 1010 977 974
f 1003 1015 1010
f 993 994 722
f 994 1003 723
f 990 991 1000
f 992 993 1002
f 515 1021 516
f 1001 1002 754
f 993 756 1002
f 1003 996 995
f 1003 1004 996
f 1003 1005 1004
f 990 1000 999
f 992 1002 1001
f 516 1021 517
f 517 1021 518
f 518 1021 519
f 519 1021 990
f 990 1021 991
f 991 1021 992
f 992 1021 993
f 993 1021 994
f 1003 1006 1005
f 1003 1010 1006
f 994 1022 1003
f 526 1020 1021
f 861 1013 1012
f 861 1012 862
f 861 874 1013
f 862 1012 1014
f 1012 1013 1015
f 870 1010 873
f 873 1010 1015
f 873 1015 874
f 874 1015 1013
f 862 1014 875
f 1012 1015 1014
f 875 1014 899
f 1014 1015 1019
f 1003 1019 1015
f 886 1016 887
f 886 1017 1016
f 886 899 1017
f 887 1016 1018
f 1016 1017 1019
f 899 1019 1017
f 887 1018 900
f 1016 1019 1018
f 899 1014 1019
f 848 901 1022
f 900 1018 1022
f 1018 1019 1022
f 900 1022 901
f 994 1021 1022
f 1003 1022 1019
f 1020 1022 1021
f 33 13 12
f 15 37 14
f 16 54 17
f 57 18 19
f 15 38 37
f 47 12 32
f 47 33 12
f 40 25 44
f 40 26 25
f 41 31 26
f 42 51 27
f 40 41 26
f 41 46 31
f 40 46 41
f 42 27 47
f 44 29 28
f 44 25 29
f 45 28 30
f 48 30 35
f 43 28 45
f 43 44 28
f 43 45 44
f 45 30 48
f 44 45 48
f 46 32 31
f 47 27 34
f 47 34 33
f 49 36 37
f 50 37 38
f 50 38 39
f 40 49 46
f 46 49 47
f 46 47 32
f 42 47 61
f 40 44 87
f 40 87 49
f 49 37 50
f 49 50 47
f 47 50 63
f 16 53 54
f 57 19 58
f 60 52 51
f 42 60 51
f 60 61 52
f 42 61 60
f 61 53 52
f 62 54 53
f 62 55 54
f 62 59 55
f 64 56 57
f 64 57 58
f 64 58 59
f 47 63 61
f 61 63 62
f 61 62 53
f 63 56 64
f 62 64 59
f 63 64 62
f 65 78 66
f 82 67 68
f 69 93 70
f 97 71 72
f 65 77 78
f 90 82 68
f 90 68 83
f 49 76 36
f 86 35 75
f 88 39 79
f 48 35 86
f 44 48 87
f 50 39 88
f 49 87 76
f 48 86 87
f 85 73 74
f 84 75 73
f 89 74 80
f 84 73 85
f 84 86 75
f 84 85 86
f 86 85 89
f 85 74 89
f 87 77 76
f 87 78 77
f 88 79 78
f 90 81 82
f 90 106 81
f 102 83 95
f 86 102 87
f 86 89 90
f 86 90 102
f 87 88 78
f 87 102 88
f 89 80 107
f 89 108 90
f 90 83 102
f 69 92 93
f 97 72 98
f 63 91 56
f 50 88 63
f 63 100 91
f 63 88 102
f 63 102 100
f 100 92 91
f 101 93 92
f 101 94 93
f 101 99 94
f 103 96 97
f 103 110 96
f 104 97 98
f 104 98 99
f 100 103 101
f 100 102 103
f 100 101 92
f 101 104 99
f 101 103 104
f 102 95 111
f 102 112 103
f 103 97 104
f 107 80 105
f 108 105 106
f 90 108 106
f 107 105 108
f 89 107 108
f 111 95 109
f 112 109 110
f 103 112 110
f 111 109 112
f 102 111 112
f 130 118 117
f 158 114 113
f 158 115 114
f 159 116 115
f 160 117 116
f 158 113 128
f 161 130 117
f 148 127 119
f 149 123 120
f 150 120 121
f 152 122 123
f 151 119 122
f 154 121 125
f 155 125 126
f 153 126 124
f 156 129 127
f 157 128 129
f 158 159 115
f 159 160 116
f 161 131 130
f 162 132 131
f 160 161 117
f 163 133 132
f 156 127 148
f 150 149 120
f 152 151 122
f 149 152 123
f 151 148 119
f 153 124 165
f 150 121 154
f 154 125 155
f 155 126 153
f 150 154 149
f 149 156 151
f 149 151 152
f 156 148 151
f 154 153 149
f 154 155 153
f 149 153 168
f 149 168 160
f 156 157 129
f 157 158 128
f 161 162 131
f 162 163 132
f 163 164 133
f 156 158 157
f 149 160 156
f 156 160 158
f 158 160 159
f 160 162 161
f 160 164 162
f 162 164 163
f 165 124 134
f 166 134 135
f 167 135 136
f 168 136 137
f 169 137 138
f 164 139 133
f 170 140 139
f 171 141 140
f 172 142 141
f 173 146 142
f 174 138 143
f 175 143 144
f 176 144 145
f 196 145 183
f 177 147 146
f 178 179 147
f 165 134 166
f 167 166 135
f 167 136 168
f 168 137 169
f 153 165 166
f 153 166 168
f 167 168 166
f 168 169 174
f 164 170 139
f 170 171 140
f 171 172 141
f 172 173 142
f 173 177 146
f 160 173 164
f 164 171 170
f 164 173 171
f 171 173 172
f 169 138 174
f 174 143 175
f 175 144 176
f 176 145 196
f 168 174 176
f 174 175 176
f 168 176 199
f 160 168 207
f 177 178 147
f 160 224 173
f 173 178 177
f 173 182 178
f 181 180 179
f 182 209 180
f 178 181 179
f 181 182 180
f 178 182 181
f 173 224 182
f 197 183 184
f 198 184 185
f 199 185 186
f 200 186 187
f 201 187 188
f 202 188 189
f 196 183 197
f 197 184 198
f 198 185 199
f 176 196 197
f 176 197 199
f 197 198 199
f 199 186 200
f 200 187 201
f 201 188 202
f 168 199 207
f 199 200 201
f 199 201 203
f 201 202 203
f 160 308 224
f 203 189 190
f 204 190 191
f 205 191 192
f 206 192 193
f 207 193 194
f 208 194 195
f 202 189 203
f 203 190 204
f 204 191 205
f 199 203 207
f 203 204 205
f 203 205 207
f 160 207 308
f 205 192 206
f 206 193 207
f 207 194 208
f 205 206 207
f 207 208 270
f 221 210 209
f 222 211 210
f 223 212 211
f 224 213 212
f 225 214 213
f 226 215 214
f 182 221 209
f 221 222 210
f 222 223 211
f 182 222 221
f 182 224 222
f 222 224 223
f 223 224 212
f 224 225 213
f 225 226 214
f 224 226 225
f 224 228 226
f 227 216 215
f 228 217 216
f 229 218 217
f 230 219 218
f 231 220 219
f 232 287 220
f 226 227 215
f 227 228 216
f 228 229 217
f 226 228 227
f 224 232 228
f 228 230 229
f 229 230 218
f 230 231 219
f 231 232 220
f 228 232 230
f 230 232 231
f 224 308 232
f 233 234 268
f 238 269 237
f 239 296 240
f 298 242 243
f 300 244 412
f 309 246 245
f 248 310 247
f 249 314 250
f 315 251 252
f 318 254 421
f 284 234 235
f 285 235 236
f 286 236 237
f 283 268 234
f 286 237 269
f 270 195 255
f 271 255 256
f 272 256 257
f 273 257 258
f 274 258 259
f 275 259 260
f 276 260 261
f 208 195 270
f 270 255 271
f 271 256 272
f 207 270 272
f 270 271 272
f 207 272 276
f 272 257 273
f 273 258 274
f 274 259 275
f 275 260 276
f 272 273 274
f 272 274 276
f 274 275 276
f 207 276 308
f 277 261 262
f 278 262 263
f 279 263 264
f 280 264 265
f 281 265 266
f 282 266 267
f 283 267 268
f 283 234 284
f 284 235 285
f 285 236 286
f 276 261 277
f 277 262 278
f 278 263 279
f 279 264 280
f 280 265 281
f 276 277 278
f 276 278 280
f 278 279 280
f 281 266 282
f 282 267 283
f 280 281 283
f 281 282 283
f 283 284 285
f 239 295 296
f 297 427 241
f 298 243 299
f 301 288 287
f 302 289 288
f 303 290 289
f 304 291 290
f 305 292 291
f 306 293 292
f 307 294 293
f 308 295 294
f 308 296 295
f 308 297 296
f 232 301 287
f 301 302 288
f 302 303 289
f 303 304 290
f 232 302 301
f 232 304 302
f 302 304 303
f 232 308 304
f 304 305 291
f 305 306 292
f 306 307 293
f 307 308 294
f 304 306 305
f 304 308 306
f 306 308 307
f 308 427 297
f 308 440 427
f 286 269 298
f 286 298 299
f 286 299 300
f 276 280 443
f 276 443 308
f 280 283 443
f 283 285 443
f 285 286 443
f 286 300 443
f 312 245 247
f 311 309 245
f 312 247 310
f 311 245 312
f 249 313 314
f 315 252 316
f 317 457 253
f 311 313 309
f 311 314 313
f 311 317 314
f 312 310 315
f 312 315 316
f 312 316 318
f 311 312 481
f 311 473 317
f 312 318 481
f 359 343 344
f 345 347 363
f 348 377 349
f 350 351 384
f 352 387 353
f 357 356 399
f 367 359 344
f 371 347 346
f 367 344 361
f 371 363 347
f 371 346 365
f 367 358 359
f 371 365 360
f 368 360 389
f 368 371 360
f 368 389 371
f 369 361 362
f 367 366 358
f 371 362 363
f 380 374 366
f 367 361 369
f 369 362 371
f 367 372 366
f 367 369 371
f 367 371 372
f 371 391 372
f 372 380 366
f 372 391 380
f 348 375 377
f 379 373 370
f 370 373 364
f 379 376 373
f 380 364 374
f 381 375 376
f 381 377 375
f 381 378 377
f 370 364 380
f 379 381 376
f 379 370 381
f 370 380 381
f 380 402 381
f 381 382 378
f 381 402 382
f 382 397 378
f 390 384 351
f 393 351 353
f 393 353 387
f 389 360 383
f 390 383 384
f 389 383 390
f 389 390 371
f 401 385 395
f 390 351 393
f 391 388 385
f 371 390 394
f 371 394 391
f 391 385 401
f 391 401 380
f 392 387 386
f 437 386 426
f 392 393 387
f 392 386 437
f 392 437 393
f 437 438 393
f 394 398 388
f 391 394 388
f 390 393 439
f 390 439 394
f 394 404 398
f 393 438 439
f 394 439 404
f 402 354 355
f 402 356 354
f 402 355 396
f 405 399 356
f 403 396 397
f 380 401 405
f 380 405 402
f 402 396 403
f 402 403 382
f 401 395 404
f 382 403 397
f 404 395 398
f 402 405 356
f 405 400 399
f 401 404 405
f 405 406 400
f 439 405 404
f 439 452 405
f 405 452 453
f 405 453 406
f 453 456 406
f 406 451 400
f 406 456 451
f 241 427 407
f 408 409 428
f 413 414 436
f 446 417 416
f 419 418 450
f 253 457 420
f 422 460 423
f 469 424 425
f 428 409 429
f 440 411 410
f 440 410 432
f 300 412 435
f 440 414 411
f 443 436 414
f 438 426 428
f 440 432 427
f 437 426 438
f 438 428 429
f 438 429 430
f 439 431 444
f 439 434 431
f 441 430 433
f 442 433 434
f 438 430 441
f 438 442 439
f 439 444 452
f 439 442 434
f 441 433 442
f 438 441 442
f 443 300 435
f 443 435 436
f 308 443 440
f 440 443 414
f 453 416 415
f 453 415 445
f 453 446 416
f 455 418 447
f 455 450 418
f 453 448 446
f 456 445 451
f 455 444 449
f 454 447 448
f 455 449 450
f 452 444 455
f 453 454 448
f 452 454 453
f 453 445 456
f 455 447 454
f 452 455 454
f 318 421 458
f 422 459 460
f 469 425 470
f 473 457 317
f 473 459 457
f 481 318 458
f 481 458 469
f 311 474 473
f 311 475 474
f 311 481 475
f 473 460 459
f 473 461 460
f 473 462 461
f 474 463 462
f 475 464 463
f 476 465 464
f 477 466 465
f 478 467 466
f 479 468 467
f 481 469 470
f 481 470 471
f 482 471 472
f 558 472 556
f 480 483 468
f 473 474 462
f 474 475 463
f 475 476 464
f 476 477 465
f 477 478 466
f 478 479 467
f 479 480 468
f 475 477 476
f 475 479 477
f 477 479 478
f 475 489 479
f 479 487 480
f 481 471 482
f 482 472 558
f 481 482 558
f 487 484 483
f 488 485 484
f 489 486 485
f 490 571 486
f 480 487 483
f 487 488 484
f 488 489 485
f 489 490 486
f 479 489 487
f 487 489 488
f 489 580 490
f 475 586 489
f 493 492 491
f 667 491 658
f 494 659 492
f 494 492 493
f 493 491 667
f 494 493 667
f 494 667 668
f 494 668 659
f 497 496 495
f 498 675 496
f 683 495 674
f 498 496 497
f 497 495 683
f 498 684 675
f 498 497 684
f 497 683 684
f 557 528 529
f 555 554 626
f 560 529 530
f 561 530 531
f 562 531 532
f 563 532 533
f 564 533 534
f 559 557 529
f 565 534 535
f 566 535 536
f 567 536 537
f 568 537 538
f 569 538 539
f 570 539 540
f 570 540 547
f 559 556 557
f 559 529 560
f 560 530 561
f 561 531 562
f 562 532 563
f 563 533 564
f 564 534 565
f 558 556 559
f 481 558 560
f 558 559 560
f 560 561 562
f 481 560 564
f 475 481 611
f 560 562 564
f 562 563 564
f 481 564 611
f 565 535 566
f 566 536 567
f 567 537 568
f 568 538 569
f 569 539 570
f 564 565 566
f 564 566 568
f 566 567 568
f 564 568 611
f 568 569 570
f 568 570 611
f 475 611 647
f 588 542 541
f 588 543 542
f 589 544 543
f 590 545 544
f 591 546 545
f 588 541 578
f 580 572 571
f 581 573 572
f 582 574 573
f 583 575 574
f 584 576 575
f 585 577 576
f 490 580 571
f 580 581 572
f 581 582 573
f 582 583 574
f 489 582 580
f 580 582 581
f 489 586 582
f 582 584 583
f 583 584 575
f 584 585 576
f 585 586 577
f 582 586 584
f 584 586 585
f 586 579 577
f 587 578 579
f 588 589 543
f 589 590 544
f 590 591 545
f 591 592 546
f 586 587 579
f 587 588 578
f 475 647 586
f 586 588 587
f 586 590 588
f 588 590 589
f 586 639 590
f 590 592 591
f 590 639 592
f 570 547 593
f 610 593 594
f 611 594 595
f 612 595 596
f 613 596 597
f 614 597 598
f 615 598 599
f 616 599 600
f 570 593 610
f 610 594 611
f 611 595 612
f 612 596 613
f 570 610 611
f 611 612 613
f 613 597 614
f 614 598 615
f 615 599 616
f 611 613 615
f 613 614 615
f 611 615 619
f 617 600 601
f 618 601 602
f 619 602 603
f 620 603 604
f 621 604 605
f 622 605 606
f 623 606 607
f 624 607 608
f 625 608 609
f 616 600 617
f 617 601 618
f 618 602 619
f 619 603 620
f 615 616 617
f 615 617 619
f 617 618 619
f 611 619 734
f 611 734 647
f 620 604 621
f 621 605 622
f 622 606 623
f 623 607 624
f 624 608 625
f 625 609 733
f 619 620 621
f 619 621 623
f 621 622 623
f 619 623 734
f 623 624 625
f 623 625 734
f 592 548 546
f 638 549 548
f 639 550 549
f 640 551 550
f 641 552 551
f 642 553 552
f 643 554 553
f 644 626 554
f 592 638 548
f 638 639 549
f 639 640 550
f 640 641 551
f 641 642 552
f 642 643 553
f 592 639 638
f 586 647 639
f 639 641 640
f 639 643 641
f 641 643 642
f 639 647 643
f 644 627 626
f 645 628 627
f 643 644 554
f 647 630 629
f 646 629 628
f 648 631 630
f 649 632 631
f 650 633 632
f 651 635 633
f 653 634 635
f 645 627 644
f 645 646 628
f 646 647 629
f 643 645 644
f 643 647 645
f 645 647 646
f 647 648 630
f 648 649 631
f 649 650 632
f 650 651 633
f 652 634 653
f 651 653 635
f 647 649 648
f 647 651 649
f 750 651 647
f 649 651 650
f 734 750 647
f 652 651 750
f 652 653 651
f 654 637 636
f 654 655 637
f 665 658 656
f 666 656 657
f 665 656 666
f 665 666 667
f 666 657 669
f 668 674 659
f 669 657 660
f 665 667 658
f 667 670 668
f 668 683 674
f 668 670 683
f 666 669 667
f 667 669 673
f 670 661 685
f 667 673 670
f 671 663 662
f 672 660 663
f 670 664 661
f 673 680 664
f 669 660 672
f 670 673 664
f 671 672 663
f 669 672 702
f 669 702 673
f 684 678 675
f 685 661 676
f 688 677 679
f 683 686 684
f 684 687 678
f 684 686 687
f 670 685 683
f 683 685 690
f 683 690 686
f 686 677 688
f 686 688 687
f 687 679 678
f 687 688 679
f 689 676 680
f 686 681 677
f 690 682 681
f 685 676 689
f 685 689 690
f 686 690 681
f 673 689 680
f 690 691 682
f 700 662 692
f 671 662 700
f 671 700 672
f 700 692 701
f 701 692 693
f 702 698 694
f 700 701 672
f 673 702 689
f 672 701 702
f 701 693 705
f 702 694 714
f 702 706 698
f 701 706 702
f 701 705 706
f 703 696 695
f 703 704 696
f 705 693 697
f 706 697 698
f 707 713 699
f 705 697 706
f 707 719 713
f 714 694 708
f 715 712 709
f 702 690 689
f 702 714 690
f 690 714 715
f 690 715 691
f 714 708 717
f 714 717 718
f 715 709 716
f 715 718 712
f 714 718 715
f 691 710 682
f 716 709 710
f 691 716 710
f 715 716 691
f 717 708 711
f 718 711 712
f 717 711 718
f 720 746 721
f 756 722 723
f 733 609 724
f 734 724 725
f 735 725 726
f 736 726 727
f 737 727 728
f 738 728 729
f 739 729 730
f 751 731 744
f 740 730 731
f 733 724 734
f 734 725 735
f 735 726 736
f 736 727 737
f 737 728 738
f 738 729 739
f 751 740 731
f 739 730 740
f 625 733 734
f 734 735 736
f 734 738 750
f 734 736 738
f 736 737 738
f 750 738 740
f 738 739 740
f 741 745 732
f 755 732 754
f 741 732 755
f 720 745 746
f 652 742 634
f 750 744 743
f 749 743 742
f 652 749 742
f 749 750 743
f 751 744 750
f 652 750 749
f 751 750 740
f 655 748 637
f 752 636 747
f 654 636 752
f 654 753 655
f 655 753 748
f 654 752 753
f 741 746 745
f 741 752 746
f 741 755 752
f 752 755 760
f 752 747 746
f 752 760 753
f 753 760 765
f 765 760 761
f 755 754 756
f 756 723 757
f 755 756 757
f 755 757 760
f 760 757 758
f 704 763 696
f 765 695 762
f 703 695 765
f 703 766 704
f 704 766 763
f 703 765 766
f 767 699 764
f 707 699 767
f 707 773 719
f 707 767 773
f 753 762 748
f 753 765 762
f 765 761 773
f 766 764 763
f 766 767 764
f 765 773 766
f 766 773 767
f 719 768 713
f 773 769 768
f 774 770 769
f 775 771 770
f 776 772 771
f 719 773 768
f 773 774 769
f 774 775 770
f 775 776 771
f 776 777 772
f 773 776 774
f 774 776 775
f 773 823 776
f 776 821 777
f 793 759 778
f 761 759 793
f 773 761 793
f 795 779 780
f 796 780 781
f 797 781 782
f 798 782 783
f 799 783 784
f 800 784 785
f 801 785 786
f 794 779 795
f 796 795 780
f 796 781 797
f 797 782 798
f 773 793 794
f 773 794 795
f 796 797 795
f 795 797 799
f 773 795 831
f 798 783 799
f 799 784 800
f 800 785 801
f 797 798 799
f 795 799 803
f 799 800 801
f 799 801 803
f 802 786 787
f 803 787 788
f 804 788 789
f 805 789 790
f 806 790 791
f 807 791 792
f 801 786 802
f 802 787 803
f 803 788 804
f 801 802 803
f 795 803 918
f 803 804 805
f 804 789 805
f 805 790 806
f 806 791 807
f 803 805 807
f 805 806 807
f 803 807 918
f 777 808 772
f 821 809 808
f 822 810 809
f 823 811 810
f 824 812 811
f 825 813 812
f 826 814 813
f 827 815 814
f 777 821 808
f 821 822 809
f 822 823 810
f 823 824 811
f 776 823 821
f 821 823 822
f 823 825 824
f 824 825 812
f 825 826 813
f 826 827 814
f 827 828 815
f 773 831 823
f 823 827 825
f 825 827 826
f 823 831 827
f 828 816 815
f 829 817 816
f 830 818 817
f 831 819 818
f 832 820 819
f 833 928 820
f 828 829 816
f 829 830 817
f 830 831 818
f 827 829 828
f 827 831 829
f 829 831 830
f 831 832 819
f 832 833 820
f 833 942 928
f 831 833 832
f 831 943 833
f 761 996 759
f 760 758 997
f 760 998 761
f 997 758 995
f 761 998 996
f 760 997 998
f 794 1005 779
f 793 778 1007
f 793 1008 794
f 915 792 902
f 916 902 903
f 917 903 904
f 918 904 905
f 919 905 906
f 920 906 907
f 807 792 915
f 915 902 916
f 916 903 917
f 807 915 916
f 807 916 918
f 916 917 918
f 795 965 831
f 795 918 965
f 917 904 918
f 918 905 919
f 919 906 920
f 918 919 920
f 918 920 922
f 921 907 908
f 922 908 909
f 923 909 910
f 924 910 911
f 925 911 912
f 926 912 913
f 927 913 914
f 961 914 956
f 920 907 921
f 921 908 922
f 922 909 923
f 923 910 924
f 920 921 922
f 918 922 926
f 922 923 924
f 924 911 925
f 925 912 926
f 926 913 927
f 927 914 961
f 922 924 926
f 918 926 965
f 924 925 926
f 926 927 961
f 942 929 928
f 943 930 929
f 944 931 930
f 947 934 933
f 945 932 931
f 946 933 932
f 942 943 929
f 833 943 942
f 831 947 943
f 943 944 930
f 944 945 931
f 943 945 944
f 947 948 934
f 831 955 947
f 945 946 932
f 946 947 933
f 943 947 945
f 945 947 946
f 948 935 934
f 949 936 935
f 950 937 936
f 951 938 937
f 952 939 938
f 953 940 939
f 954 941 940
f 955 966 941
f 948 949 935
f 950 936 949
f 950 951 937
f 947 949 948
f 947 951 949
f 831 965 955
f 950 949 951
f 947 955 951
f 951 952 938
f 952 953 939
f 953 954 940
f 954 955 941
f 951 953 952
f 951 955 953
f 953 955 954
f 1007 778 1004
f 794 1008 1005
f 793 1007 1008
f 962 956 957
f 963 957 958
f 964 958 959
f 965 959 960
f 965 960 1006
f 961 956 962
f 962 957 963
f 963 958 964
f 964 959 965
f 926 961 963
f 961 962 963
f 926 963 965
f 963 964 965
f 965 1011 984
f 965 1006 1009
f 965 1009 1011
f 978 967 966
f 979 969 967
f 980 976 968
f 981 970 969
f 982 971 970
f 983 968 971
f 985 972 973
f 986 973 974
f 989 974 977
f 987 977 975
f 988 975 976
f 978 966 955
f 978 979 967
f 979 981 969
f 983 980 968
f 988 976 980
f 982 970 981
f 982 983 971
f 978 955 979
f 955 982 979
f 982 981 979
f 965 987 955
f 965 984 987
f 987 980 982
f 987 988 980
f 987 982 955
f 982 980 983
f 984 972 985
f 985 973 986
f 986 974 989
f 987 975 988
f 987 989 977
f 984 985 986
f 987 984 986
f 987 986 989
f 984 1010 972
f 984 1011 1010
f 998 995 996
f 997 995 998
f 1008 1004 1005
f 1007 1004 1008
f 1011 1006 1010
f 1009 1006 1011

