# https://github.com/mikedh/trimesh
v 0.60000002 0.60000002 0.00000000
v 0.00000000 0.60000002 0.60000002
v 0.60000002 0.00000000 0.60000002
v 0.00000000 0.60000002 4.40000010
v 0.60000002 0.00000000 4.40000010
v 0.60000002 0.60000002 5.00000000
v 1.68469799 21.78740120 5.00000000
v 2.02500010 20.44000053 5.00000000
v 2.02500010 21.85973549 5.00000000
v 2.47499990 20.44000053 5.00000000
v 1.68469799 21.78740120 5.50000000
v 2.02500010 20.44000053 5.50000000
v 2.02500010 21.85973549 5.50000000
v 2.47499990 20.44000053 5.50000000
v 1.56774771 22.33761024 5.00000000
v 1.68469799 23.76340103 5.00000000
v 1.56774771 24.31361008 5.00000000
v 2.02500010 22.43480110 5.00000000
v 2.02500010 23.83573532 5.00000000
v 2.47499990 21.95538521 5.00000000
v 2.47499990 22.53045273 5.00000000
v 2.47499990 23.93138504 5.00000000
v 2.02500010 24.41080284 5.00000000
v 2.02500010 26.15999985 5.00000000
v 2.47499990 24.50645256 5.00000000
v 2.47499990 26.15999985 5.00000000
v 1.56774771 22.33761024 5.50000000
v 1.68469799 23.76340103 5.50000000
v 1.56774771 24.31361008 5.50000000
v 2.02500010 22.43480110 5.50000000
v 2.02500010 23.83573532 5.50000000
v 2.47499990 21.95538521 5.50000000
v 2.47499990 22.53045273 5.50000000
v 2.47499990 23.93138504 5.50000000
v 2.02500010 24.41080284 5.50000000
v 2.02500010 26.15999985 5.50000000
v 2.47499990 24.50645256 5.50000000
v 2.47499990 26.15999985 5.50000000
v 0.19999985 29.62500000 4.59999990
v 0.19999985 29.97500038 4.59999990
v 0.19999985 32.22499847 4.59999990
v 0.19999985 32.57500076 4.59999990
v 0.19999985 34.82500076 4.59999990
v 0.60000002 29.62500000 5.00000000
v 0.60000002 29.97500038 5.00000000
v 0.60000002 32.22499847 5.00000000
v 0.60000002 32.57500076 5.00000000
v 0.60000002 34.82500076 5.00000000
v 3.12500000 20.44000053 5.00000000
v 3.57500005 20.44000053 5.00000000
v 3.12500000 20.44000053 5.50000000
v 3.57500005 20.44000053 5.50000000
v 3.12500000 22.09354782 5.00000000
v 3.12500000 22.66861343 5.00000000
v 3.57500005 22.18919754 5.00000000
v 3.57500005 22.76426506 5.00000000
v 3.12500000 24.06954765 5.00000000
v 3.12500000 24.64461327 5.00000000
v 3.12500000 26.15999985 5.00000000
v 3.57500005 24.16519737 5.00000000
v 3.57500005 24.74026489 5.00000000
v 3.57500005 26.15999985 5.00000000
v 3.12500000 22.09354782 5.50000000
v 3.12500000 22.66861343 5.50000000
v 3.57500005 22.18919754 5.50000000
v 3.57500005 22.76426506 5.50000000
v 3.12500000 24.06954765 5.50000000
v 3.12500000 24.64461327 5.50000000
v 3.12500000 26.15999985 5.50000000
v 3.57500005 24.16519737 5.50000000
v 3.57500005 24.74026489 5.50000000
v 3.57500005 26.15999985 5.50000000
v 4.03225231 22.28639030 5.00000000
v 3.91530204 22.83659744 5.00000000
v 4.03225231 24.26239014 5.00000000
v 3.91530204 24.81259727 5.00000000
v 4.40000010 24.35000038 5.00000000
v 4.40000010 24.85000038 5.00000000
v 4.03225231 22.28639030 5.50000000
v 3.91530204 22.83659744 5.50000000
v 4.03225231 24.26239014 5.50000000
v 3.91530204 24.81259727 5.50000000
v 4.40000010 24.35000038 5.50000000
v 4.40000010 24.85000038 5.50000000
v 4.40000010 26.95000076 5.00000000
v 4.40000010 27.45000076 5.00000000
v 4.40000010 26.95000076 5.50000000
v 4.40000010 27.45000076 5.50000000
v 5.38919592 22.95392036 5.00000000
v 5.46558046 22.66098976 5.00000000
v 5.41381836 22.80320549 5.00000000
v 5.39807701 22.87765884 5.00000000
v 5.43635130 22.73087883 5.00000000
v 5.50137997 22.59383583 5.00000000
v 5.54359722 22.52970695 5.00000000
v 5.59205055 22.46887589 5.00000000
v 5.38721228 23.03166580 5.00000000
v 5.39213514 23.11055756 5.00000000
v 5.40394258 23.19026375 5.00000000
v 5.42258501 23.27043724 5.00000000
v 5.44798183 23.35073853 5.00000000
v 5.48002481 23.43082237 5.00000000
v 5.51857662 23.51034546 5.00000000
v 5.56347227 23.58896828 5.00000000
v 5.61451912 23.66635323 5.00000000
v 5.64653349 22.41160393 5.00000000
v 5.70681143 22.35813713 5.00000000
v 5.77262735 22.30870247 5.00000000
v 5.84369946 22.26351357 5.00000000
v 5.91972256 22.22276306 5.00000000
v 5.67149878 23.74217033 5.00000000
v 5.73416758 23.81609344 5.00000000
v 5.80225658 23.88780785 5.00000000
v 5.87547445 23.95700264 5.00000000
v 6.00037146 22.18662453 5.00000000
v 6.08530140 22.15525436 5.00000000
v 6.17414808 22.12878609 5.00000000
v 5.95350790 24.02338600 5.00000000
v 6.03602266 24.08667183 5.00000000
v 6.12266493 24.14658737 5.00000000
v 6.21306419 24.20287895 5.00000000
v 5.38919592 22.95392036 5.50000000
v 5.46558046 22.66098976 5.50000000
v 5.41381836 22.80320549 5.50000000
v 5.39807701 22.87765884 5.50000000
v 5.43635130 22.73087883 5.50000000
v 5.50137997 22.59383583 5.50000000
v 5.54359722 22.52970695 5.50000000
v 5.59205055 22.46887589 5.50000000
v 5.38721228 23.03166580 5.50000000
v 5.39213514 23.11055756 5.50000000
v 5.40394258 23.19026375 5.50000000
v 5.42258501 23.27043724 5.50000000
v 5.44798183 23.35073853 5.50000000
v 5.48002481 23.43082237 5.50000000
v 5.51857662 23.51034546 5.50000000
v 5.56347227 23.58896828 5.50000000
v 5.61451912 23.66635323 5.50000000
v 5.64653349 22.41160393 5.50000000
v 5.70681143 22.35813713 5.50000000
v 5.77262735 22.30870247 5.50000000
v 5.84369946 22.26351357 5.50000000
v 5.91972256 22.22276306 5.50000000
v 5.67149878 23.74217033 5.50000000
v 5.73416758 23.81609344 5.50000000
v 5.80225658 23.88780785 5.50000000
v 5.87547445 23.95700264 5.50000000
v 6.00037146 22.18662453 5.50000000
v 6.08530140 22.15525436 5.50000000
v 6.17414808 22.12878609 5.50000000
v 5.95350790 24.02338600 5.50000000
v 6.03602266 24.08667183 5.50000000
v 6.12266493 24.14658737 5.50000000
v 6.21306419 24.20287895 5.50000000
v 6.26653099 22.10733414 5.00000000
v 6.36205482 22.09098816 5.00000000
v 6.46031046 22.07981873 5.00000000
v 6.56087685 22.07387543 5.00000000
v 6.66332388 22.07318115 5.00000000
v 6.76721287 22.07774162 5.00000000
v 6.87209845 22.08753586 5.00000000
v 6.30683374 24.25530434 5.00000000
v 6.40357113 24.30363846 5.00000000
v 6.50286245 24.34767342 5.00000000
v 6.50882673 24.35000038 5.00000000
v 6.97753143 22.10252190 5.00000000
v 7.08306122 22.12263680 5.00000000
v 7.18823481 22.14779091 5.00000000
v 7.29260254 22.17788124 5.00000000
v 7.39571714 22.21277618 5.00000000
v 7.49713755 22.25232506 5.00000000
v 6.26653099 22.10733414 5.50000000
v 6.36205482 22.09098816 5.50000000
v 6.46031046 22.07981873 5.50000000
v 6.56087685 22.07387543 5.50000000
v 6.66332388 22.07318115 5.50000000
v 6.76721287 22.07774162 5.50000000
v 6.87209845 22.08753586 5.50000000
v 6.30683374 24.25530434 5.50000000
v 6.40357113 24.30363846 5.50000000
v 6.50286245 24.34767342 5.50000000
v 6.50882673 24.35000038 5.50000000
v 6.97753143 22.10252190 5.50000000
v 7.08306122 22.12263680 5.50000000
v 7.18823481 22.14779091 5.50000000
v 7.29260254 22.17788124 5.50000000
v 7.39571714 22.21277618 5.50000000
v 7.49713755 22.25232506 5.50000000
v 6.02500010 29.62500000 4.59999990
v 6.02500010 29.97500038 4.59999990
v 6.02500010 32.22499847 4.59999990
v 6.02500010 32.57500076 4.59999990
v 6.02500010 34.82500076 4.59999990
v 6.47499990 29.62500000 4.59999990
v 6.47499990 29.97500038 4.59999990
v 7.12500000 29.62500000 4.59999990
v 7.12500000 29.97500038 4.59999990
v 6.47499990 32.22499847 4.59999990
v 6.47499990 32.57500076 4.59999990
v 6.47499990 34.82500076 4.59999990
v 7.12500000 32.22499847 4.59999990
v 7.12500000 32.57500076 4.59999990
v 7.12500000 34.82500076 4.59999990
v 6.02500010 29.54000092 5.00000000
v 6.02500010 29.62500000 5.00000000
v 6.02500010 29.97500038 5.00000000
v 6.02500010 29.54000092 5.50000000
v 5.56774759 31.43761063 5.00000000
v 5.56774759 33.41360855 5.00000000
v 5.68469810 30.88740158 5.00000000
v 6.02500010 30.95973587 5.00000000
v 6.02500010 31.53480148 5.00000000
v 6.02500010 32.22499847 5.00000000
v 6.02500010 32.57500076 5.00000000
v 5.68469810 32.86340332 5.00000000
v 6.02500010 32.93573380 5.00000000
v 6.02500010 33.51080322 5.00000000
v 6.02500010 34.82500076 5.00000000
v 5.56774759 31.43761063 5.50000000
v 5.56774759 33.41360855 5.50000000
v 5.68469810 30.88740158 5.50000000
v 6.02500010 30.95973587 5.50000000
v 6.02500010 31.53480148 5.50000000
v 5.68469810 32.86340332 5.50000000
v 6.02500010 32.93573380 5.50000000
v 6.02500010 33.51080322 5.50000000
v 6.47499990 29.54000092 5.00000000
v 6.47499990 29.62500000 5.00000000
v 6.47499990 29.97500038 5.00000000
v 7.12500000 29.54000092 5.00000000
v 7.12500000 29.62500000 5.00000000
v 7.12500000 29.97500038 5.00000000
v 6.47499990 29.54000092 5.50000000
v 7.12500000 29.54000092 5.50000000
v 6.47499990 31.05538559 5.00000000
v 6.47499990 31.63045311 5.00000000
v 6.47499990 32.22499847 5.00000000
v 6.47499990 32.57500076 5.00000000
v 6.47499990 33.03138733 5.00000000
v 6.47499990 33.60645294 5.00000000
v 6.47499990 34.82500076 5.00000000
v 7.12500000 31.19354820 5.00000000
v 7.12500000 31.76861382 5.00000000
v 7.12500000 32.22499847 5.00000000
v 7.12500000 32.57500076 5.00000000
v 7.12500000 33.16954803 5.00000000
v 7.12500000 33.74461365 5.00000000
v 7.12500000 34.82500076 5.00000000
v 6.47499990 31.05538559 5.50000000
v 6.47499990 31.63045311 5.50000000
v 6.47499990 33.03138733 5.50000000
v 6.47499990 33.60645294 5.50000000
v 7.12500000 31.19354820 5.50000000
v 7.12500000 31.76861382 5.50000000
v 7.12500000 33.16954803 5.50000000
v 7.12500000 33.74461365 5.50000000
v 7.59642887 22.29636192 5.00000000
v 7.69316626 22.34469604 5.00000000
v 7.78693581 22.39712143 5.00000000
v 7.87733507 22.45341301 5.00000000
v 7.96397734 22.51332855 5.00000000
v 8.04649258 22.57661438 5.00000000
v 8.12452507 22.64299774 5.00000000
v 8.11294460 24.85000038 5.00000000
v 8.19774342 22.71219254 5.00000000
v 8.26583290 22.78390694 5.00000000
v 8.32850075 22.85783005 5.00000000
v 8.38548088 22.93364525 5.00000000
v 8.43652821 23.01103210 5.00000000
v 8.48142338 23.08965492 5.00000000
v 8.51997471 23.16917801 5.00000000
v 8.55201817 23.24926186 5.00000000
v 8.56806564 23.29999924 5.00000000
v 8.61294460 23.29999924 5.00000000
v 8.61294460 24.35000038 5.00000000
v 8.61294460 24.85000038 5.00000000
v 7.59642887 22.29636192 5.50000000
v 7.69316626 22.34469604 5.50000000
v 7.78693581 22.39712143 5.50000000
v 7.87733507 22.45341301 5.50000000
v 7.96397734 22.51332855 5.50000000
v 8.04649258 22.57661438 5.50000000
v 8.12452507 22.64299774 5.50000000
v 8.11294460 24.85000038 5.50000000
v 8.19774342 22.71219254 5.50000000
v 8.26583290 22.78390694 5.50000000
v 8.32850075 22.85783005 5.50000000
v 8.38548088 22.93364525 5.50000000
v 8.43652821 23.01103210 5.50000000
v 8.48142338 23.08965492 5.50000000
v 8.51997471 23.16917801 5.50000000
v 8.55201817 23.24926186 5.50000000
v 8.56806564 23.29999924 5.50000000
v 8.61294460 23.29999924 5.50000000
v 8.61294460 24.35000038 5.50000000
v 8.61294460 24.85000038 5.50000000
v 9.60000038 24.35000038 5.00000000
v 9.60000038 24.85000038 5.00000000
v 9.60000038 24.35000038 5.50000000
v 9.60000038 24.85000038 5.50000000
v 7.57499981 29.62500000 4.59999990
v 7.57499981 29.97500038 4.59999990
v 8.11294460 29.62500000 4.59999990
v 8.11294460 29.97500038 4.59999990
v 8.61294460 29.62500000 4.59999990
v 8.61294460 29.97500038 4.59999990
v 7.57499981 32.22499847 4.59999990
v 7.57499981 32.57500076 4.59999990
v 7.57499981 34.82500076 4.59999990
v 9.39427376 32.22499847 4.59999990
v 9.40394306 32.29026413 4.59999990
v 9.42258453 32.37043762 4.59999990
v 9.44798183 32.45073700 4.59999990
v 9.48002529 32.53082275 4.59999990
v 9.50144291 32.57500076 4.59999990
v 8.11294460 26.95000076 5.00000000
v 8.11294460 27.45000076 5.00000000
v 7.57499981 29.54000092 5.00000000
v 7.57499981 29.62500000 5.00000000
v 7.57499981 29.97500038 5.00000000
v 8.11294460 29.62500000 5.00000000
v 8.11294460 29.97500038 5.00000000
v 8.61294460 26.95000076 5.00000000
v 8.61294460 27.45000076 5.00000000
v 8.61294460 29.62500000 5.00000000
v 8.61294460 29.97500038 5.00000000
v 8.11294460 26.95000076 5.50000000
v 8.11294460 27.45000076 5.50000000
v 7.57499981 29.54000092 5.50000000
v 8.61294460 26.95000076 5.50000000
v 8.61294460 27.45000076 5.50000000
v 7.57499981 31.28919792 5.00000000
v 7.57499981 31.86426544 5.00000000
v 7.57499981 32.22499847 5.00000000
v 7.57499981 32.57500076 5.00000000
v 8.11294460 31.00000000 5.00000000
v 8.03225231 31.38639069 5.00000000
v 7.91530180 31.93659782 5.00000000
v 7.57499981 33.26519775 5.00000000
v 7.57499981 33.84026337 5.00000000
v 7.57499981 34.82500076 5.00000000
v 8.03225231 33.36238861 5.00000000
v 7.91530180 33.91259766 5.00000000
v 8.61294460 31.00000000 5.00000000
v 7.57499981 31.28919792 5.50000000
v 7.57499981 31.86426544 5.50000000
v 8.11294460 31.00000000 5.50000000
v 8.03225231 31.38639069 5.50000000
v 7.91530180 31.93659782 5.50000000
v 7.57499981 33.26519775 5.50000000
v 7.57499981 33.84026337 5.50000000
v 8.03225231 33.36238861 5.50000000
v 7.91530180 33.91259766 5.50000000
v 8.61294460 31.00000000 5.50000000
v 9.60000038 26.95000076 5.00000000
v 9.60000038 27.45000076 5.00000000
v 9.60000038 26.95000076 5.50000000
v 9.60000038 27.45000076 5.50000000
v 9.50137997 31.69383621 5.00000000
v 9.54359722 31.62970734 5.00000000
v 9.59205055 31.56887627 5.00000000
v 9.64653301 31.51160431 5.00000000
v 9.41381836 31.90320396 5.00000000
v 9.39807701 31.97765923 5.00000000
v 9.43635178 31.83087921 5.00000000
v 9.38919640 32.05392075 5.00000000
v 9.38721275 32.13166428 5.00000000
v 9.39427376 32.22499847 5.00000000
v 9.39213467 32.21055984 5.00000000
v 9.46558094 31.76098824 5.00000000
v 9.50144291 32.57500076 5.00000000
v 9.51857662 32.61034393 5.00000000
v 9.56347179 32.68896866 5.00000000
v 9.61451912 32.76635361 5.00000000
v 9.70681190 31.45813751 5.00000000
v 9.77262783 31.40870285 5.00000000
v 9.84369946 31.36351395 5.00000000
v 9.91972256 31.32276344 5.00000000
v 9.67149925 32.84217072 5.00000000
v 9.73416710 32.91609573 5.00000000
v 9.80225658 32.98780823 5.00000000
v 9.87547493 33.05700302 5.00000000
v 9.95350742 33.12338638 5.00000000
v 9.50137997 31.69383621 5.50000000
v 9.54359722 31.62970734 5.50000000
v 9.59205055 31.56887627 5.50000000
v 9.64653301 31.51160431 5.50000000
v 9.41381836 31.90320396 5.50000000
v 9.39807701 31.97765923 5.50000000
v 9.43635178 31.83087921 5.50000000
v 9.38919640 32.05392075 5.50000000
v 9.38721275 32.13166428 5.50000000
v 9.39213467 32.21055984 5.50000000
v 9.46558094 31.76098824 5.50000000
v 9.40394306 32.29026413 5.50000000
v 9.42258453 32.37043762 5.50000000
v 9.44798183 32.45073700 5.50000000
v 9.48002529 32.53082275 5.50000000
v 9.51857662 32.61034393 5.50000000
v 9.56347179 32.68896866 5.50000000
v 9.61451912 32.76635361 5.50000000
v 9.70681190 31.45813751 5.50000000
v 9.77262783 31.40870285 5.50000000
v 9.84369946 31.36351395 5.50000000
v 9.91972256 31.32276344 5.50000000
v 9.67149925 32.84217072 5.50000000
v 9.73416710 32.91609573 5.50000000
v 9.80225658 32.98780823 5.50000000
v 9.87547493 33.05700302 5.50000000
v 9.95350742 33.12338638 5.50000000
v 0.60000002 69.40000153 0.00000000
v 0.00000000 69.40000153 0.60000002
v 0.60000002 70.00000000 0.60000002
v 0.19999985 35.17499924 4.59999990
v 0.19999985 37.42499924 4.59999990
v 0.19999985 37.77500153 4.59999990
v 0.19999985 40.02500153 4.59999990
v 0.19999985 40.37500000 4.59999990
v 0.60000002 35.17499924 5.00000000
v 0.60000002 37.42499924 5.00000000
v 0.60000002 37.77500153 5.00000000
v 0.60000002 40.02500153 5.00000000
v 0.60000002 40.37500000 5.00000000
v 0.00000000 69.40000153 4.40000010
v 0.60000002 70.00000000 4.40000010
v 0.60000002 69.40000153 5.00000000
v 4.82731247 58.96810150 4.59999990
v 4.91911316 58.75000000 4.59999990
v 4.51512194 60.13730240 4.59999990
v 4.67241287 59.42213058 4.59999990
v 4.55730152 59.89531708 4.59999990
v 4.60978460 59.65668488 4.59999990
v 4.48337507 60.38190842 4.59999990
v 4.46215630 60.62839127 4.59999990
v 4.45153093 60.87600708 4.59999990
v 4.45153093 61.12399292 4.59999990
v 4.74499559 59.19237137 4.59999990
v 4.82731247 58.96810150 5.00000000
v 4.91911316 58.75000000 5.00000000
v 4.51512194 60.13730240 5.00000000
v 4.67241287 59.42213058 5.00000000
v 4.55730152 59.89531708 5.00000000
v 4.60978460 59.65668488 5.00000000
v 4.48337507 60.38190842 5.00000000
v 4.46215630 60.62839127 5.00000000
v 4.45153093 60.87600708 5.00000000
v 4.45153093 61.12399292 5.00000000
v 4.74499559 59.19237137 5.00000000
v 4.46215630 61.37160873 4.59999990
v 4.48337507 61.61809158 4.59999990
v 4.51512194 61.86269760 4.59999990
v 4.55730152 62.10468292 4.59999990
v 4.60978460 62.34331512 4.59999990
v 4.67241287 62.57786942 4.59999990
v 4.74499559 62.80762863 4.59999990
v 4.82731247 63.03189850 4.59999990
v 4.91911316 63.25000000 4.59999990
v 4.46215630 61.37160873 5.00000000
v 4.48337507 61.61809158 5.00000000
v 4.51512194 61.86269760 5.00000000
v 4.55730152 62.10468292 5.00000000
v 4.60978460 62.34331512 5.00000000
v 4.67241287 62.57786942 5.00000000
v 4.74499559 62.80762863 5.00000000
v 4.82731247 63.03189850 5.00000000
v 4.91911316 63.25000000 5.00000000
v 6.02500010 35.17499924 4.59999990
v 6.47499990 35.17499924 4.59999990
v 7.12500000 35.17499924 4.59999990
v 6.02500010 35.17499924 5.00000000
v 6.02500010 35.25999832 5.00000000
v 6.02500010 35.25999832 5.50000000
v 6.47499990 35.17499924 5.00000000
v 6.47499990 35.25999832 5.00000000
v 7.12500000 35.17499924 5.00000000
v 7.12500000 35.25999832 5.00000000
v 6.47499990 35.25999832 5.50000000
v 7.12500000 35.25999832 5.50000000
v 7.57499981 35.17499924 4.59999990
v 9.60231113 40.37500000 4.59999990
v 9.67670536 40.02500153 4.59999990
v 9.86159706 40.02500153 4.59999990
v 7.57499981 35.17499924 5.00000000
v 7.57499981 35.25999832 5.00000000
v 7.57499981 35.25999832 5.50000000
v 9.60231113 40.37500000 5.00000000
v 9.68469810 39.98740005 5.00000000
v 9.67670536 40.02500153 5.00000000
v 9.56774807 40.53760910 5.00000000
v 9.86159706 40.02500153 5.00000000
v 9.68469810 41.96340179 5.00000000
v 9.56774807 42.51361084 5.00000000
v 9.68469810 39.98740005 5.50000000
v 9.56774807 40.53760910 5.50000000
v 9.68469810 41.96340179 5.50000000
v 9.56774807 42.51361084 5.50000000
v 5.13002443 58.33494186 4.59999990
v 5.02011967 58.53873444 4.59999990
v 5.24849415 58.13924408 4.59999990
v 5.37516832 57.95223236 4.59999990
v 5.50966358 57.77447891 4.59999990
v 5.65157032 57.60652161 4.59999990
v 5.80045795 57.44886780 4.59999990
v 5.95587397 57.30199814 4.59999990
v 6.11734724 57.16636276 4.59999990
v 5.85051107 60.04475403 4.59999990
v 5.88987732 59.87796021 4.59999990
v 5.93550110 59.71457291 4.59999990
v 5.77105379 60.56046677 4.59999990
v 5.75771618 60.73574448 4.59999990
v 5.75103760 60.91182709 4.59999990
v 5.75103760 61.08817291 4.59999990
v 5.81752157 60.21444702 4.59999990
v 5.79100895 60.38652420 4.59999990
v 5.98724270 59.55509186 4.59999990
v 6.04494619 59.40000153 4.59999990
v 6.10843611 59.24976730 4.59999990
v 6.17751884 59.10484695 4.59999990
v 6.63311958 56.83077621 4.59999990
v 6.81375408 56.74382401 4.59999990
v 6.99783993 56.66979218 4.59999990
v 7.18481827 56.60891724 4.59999990
v 7.37412119 56.56137466 4.59999990
v 6.28438616 57.04236984 4.59999990
v 6.45648479 56.93039322 4.59999990
v 6.25198555 58.96568298 4.59999990
v 6.33160973 58.83269882 4.59999990
v 6.41614914 58.70629501 4.59999990
v 6.50534773 58.58686066 4.59999990
v 6.59893417 58.47475052 4.59999990
v 6.69662428 58.37031174 4.59999990
v 6.79812193 58.27385712 4.59999990
v 6.90311813 58.18568420 4.59999990
v 7.01129389 58.10605621 4.59999990
v 7.12232161 58.03521729 4.59999990
v 7.35157442 57.92074203 4.59999990
v 7.46910381 57.87745285 4.59999990
v 7.23586321 57.97338486 4.59999990
v 5.13002443 58.33494186 5.00000000
v 5.02011967 58.53873444 5.00000000
v 5.24849415 58.13924408 5.00000000
v 5.37516832 57.95223236 5.00000000
v 5.50966358 57.77447891 5.00000000
v 5.65157032 57.60652161 5.00000000
v 5.80045795 57.44886780 5.00000000
v 5.95587397 57.30199814 5.00000000
v 6.11734724 57.16636276 5.00000000
v 5.85051107 60.04475403 5.00000000
v 5.88987732 59.87796021 5.00000000
v 5.93550110 59.71457291 5.00000000
v 5.77105379 60.56046677 5.00000000
v 5.75771618 60.73574448 5.00000000
v 5.75103760 60.91182709 5.00000000
v 5.75103760 61.08817291 5.00000000
v 5.81752157 60.21444702 5.00000000
v 5.79100895 60.38652420 5.00000000
v 5.98724270 59.55509186 5.00000000
v 6.04494619 59.40000153 5.00000000
v 6.10843611 59.24976730 5.00000000
v 6.17751884 59.10484695 5.00000000
v 6.63311958 56.83077621 5.00000000
v 6.81375408 56.74382401 5.00000000
v 6.99783993 56.66979218 5.00000000
v 7.18481827 56.60891724 5.00000000
v 7.37412119 56.56137466 5.00000000
v 6.28438616 57.04236984 5.00000000
v 6.45648479 56.93039322 5.00000000
v 6.25198555 58.96568298 5.00000000
v 6.33160973 58.83269882 5.00000000
v 6.41614914 58.70629501 5.00000000
v 6.50534773 58.58686066 5.00000000
v 6.59893417 58.47475052 5.00000000
v 6.69662428 58.37031174 5.00000000
v 6.79812193 58.27385712 5.00000000
v 6.90311813 58.18568420 5.00000000
v 7.01129389 58.10605621 5.00000000
v 7.12232161 58.03521729 5.00000000
v 7.35157442 57.92074203 5.00000000
v 7.46910381 57.87745285 5.00000000
v 7.23586321 57.97338486 5.00000000
v 5.02011967 63.46126556 4.59999990
v 5.13002443 63.66505814 4.59999990
v 5.24849415 63.86075592 4.59999990
v 5.37516832 64.04776764 4.59999990
v 5.50966358 64.22552490 4.59999990
v 5.75771618 61.26425552 4.59999990
v 5.77105379 61.43953323 4.59999990
v 5.79100895 61.61347580 4.59999990
v 5.81752157 61.78555298 4.59999990
v 5.85051107 61.95524597 4.59999990
v 5.88987732 62.12203979 4.59999990
v 5.93550110 62.28542709 4.59999990
v 5.98724270 62.44490814 4.59999990
v 6.04494619 62.59999847 4.59999990
v 6.10843611 62.75023270 4.59999990
v 6.17751884 62.89515305 4.59999990
v 5.65157032 64.39347839 4.59999990
v 5.80045795 64.55113220 4.59999990
v 5.95587397 64.69799805 4.59999990
v 6.11734724 64.83364105 4.59999990
v 6.25198555 63.03431702 4.59999990
v 6.33160973 63.16730118 4.59999990
v 6.41614914 63.29370499 4.59999990
v 6.50534773 63.41313934 4.59999990
v 6.28438616 64.95763397 4.59999990
v 6.45648479 65.06961060 4.59999990
v 6.59893417 63.52524948 4.59999990
v 6.69662428 63.62968826 4.59999990
v 6.79812193 63.72614288 4.59999990
v 6.63311958 65.16921997 4.59999990
v 6.81375408 65.25617981 4.59999990
v 6.90311813 63.81431580 4.59999990
v 7.01129389 63.89394379 4.59999990
v 7.12232161 63.96478271 4.59999990
v 6.99783993 65.33020782 4.59999990
v 7.18481827 65.39108276 4.59999990
v 7.23586321 64.02661896 4.59999990
v 7.35157442 64.07925415 4.59999990
v 7.46910381 64.12255096 4.59999990
v 7.37412119 65.43862915 4.59999990
v 5.02011967 63.46126556 5.00000000
v 5.13002443 63.66505814 5.00000000
v 5.24849415 63.86075592 5.00000000
v 5.37516832 64.04776764 5.00000000
v 5.50966358 64.22552490 5.00000000
v 5.75771618 61.26425552 5.00000000
v 5.77105379 61.43953323 5.00000000
v 5.79100895 61.61347580 5.00000000
v 5.81752157 61.78555298 5.00000000
v 5.85051107 61.95524597 5.00000000
v 5.88987732 62.12203979 5.00000000
v 5.93550110 62.28542709 5.00000000
v 5.98724270 62.44490814 5.00000000
v 6.04494619 62.59999847 5.00000000
v 6.10843611 62.75023270 5.00000000
v 6.17751884 62.89515305 5.00000000
v 5.65157032 64.39347839 5.00000000
v 5.80045795 64.55113220 5.00000000
v 5.95587397 64.69799805 5.00000000
v 6.11734724 64.83364105 5.00000000
v 6.25198555 63.03431702 5.00000000
v 6.33160973 63.16730118 5.00000000
v 6.41614914 63.29370499 5.00000000
v 6.50534773 63.41313934 5.00000000
v 6.28438616 64.95763397 5.00000000
v 6.45648479 65.06961060 5.00000000
v 6.59893417 63.52524948 5.00000000
v 6.69662428 63.62968826 5.00000000
v 6.79812193 63.72614288 5.00000000
v 6.63311958 65.16921997 5.00000000
v 6.81375408 65.25617981 5.00000000
v 6.90311813 63.81431580 5.00000000
v 7.01129389 63.89394379 5.00000000
v 7.12232161 63.96478271 5.00000000
v 6.99783993 65.33020782 5.00000000
v 7.18481827 65.39108276 5.00000000
v 7.23586321 64.02661896 5.00000000
v 7.35157442 64.07925415 5.00000000
v 7.46910381 64.12255096 5.00000000
v 7.37412119 65.43862915 5.00000000
v 7.56517363 56.52731323 4.59999990
v 7.75739527 56.50683212 4.59999990
v 7.95020247 56.50000000 4.59999990
v 8.14300919 56.50683212 4.59999990
v 8.33523083 56.52731323 4.59999990
v 8.52628326 56.56137466 4.59999990
v 8.71558571 56.60891724 4.59999990
v 7.58809423 57.84364319 4.59999990
v 7.70818424 57.81942368 4.59999990
v 7.82900906 57.80485916 4.59999990
v 7.95020247 57.79999924 4.59999990
v 8.07139492 57.80485916 4.59999990
v 7.95020247 59.45000076 4.59999990
v 7.95020247 60.75000000 4.59999990
v 8.19222069 57.81942368 4.59999990
v 8.31231022 57.84364319 4.59999990
v 8.43130016 57.87745285 4.59999990
v 8.54883003 57.92074203 4.59999990
v 8.66454124 57.97338486 4.59999990
v 8.90256405 56.66979218 4.59999990
v 9.08665085 56.74382401 4.59999990
v 9.26728535 56.83077621 4.59999990
v 8.77808285 58.03521729 4.59999990
v 8.88911057 58.10605621 4.59999990
v 8.99728680 58.18568420 4.59999990
v 9.10228252 58.27385712 4.59999990
v 9.20378017 58.37031174 4.59999990
v 9.30146980 58.47475052 4.59999990
v 9.44392014 56.93039322 4.59999990
v 9.61601830 57.04236984 4.59999990
v 9.39505672 58.58686066 4.59999990
v 9.48425484 58.70629501 4.59999990
v 9.56879520 58.83269882 4.59999990
v 9.64841843 58.96568298 4.59999990
v 9.78305721 57.16636276 4.59999990
v 9.94453049 57.30199814 4.59999990
v 9.72288513 59.10484695 4.59999990
v 9.79196835 59.24976730 4.59999990
v 9.85545826 59.40000153 4.59999990
v 9.85545826 59.45000076 4.59999990
v 9.85545826 60.75000000 4.59999990
v 7.56517363 56.52731323 5.00000000
v 7.75739527 56.50683212 5.00000000
v 7.95020247 56.50000000 5.00000000
v 8.14300919 56.50683212 5.00000000
v 8.33523083 56.52731323 5.00000000
v 8.52628326 56.56137466 5.00000000
v 8.71558571 56.60891724 5.00000000
v 7.58809423 57.84364319 5.00000000
v 7.70818424 57.81942368 5.00000000
v 7.82900906 57.80485916 5.00000000
v 7.95020247 57.79999924 5.00000000
v 8.07139492 57.80485916 5.00000000
v 7.95020247 59.45000076 5.00000000
v 7.95020247 60.75000000 5.00000000
v 8.19222069 57.81942368 5.00000000
v 8.31231022 57.84364319 5.00000000
v 8.43130016 57.87745285 5.00000000
v 8.54883003 57.92074203 5.00000000
v 8.66454124 57.97338486 5.00000000
v 8.90256405 56.66979218 5.00000000
v 9.08665085 56.74382401 5.00000000
v 9.26728535 56.83077621 5.00000000
v 8.77808285 58.03521729 5.00000000
v 8.88911057 58.10605621 5.00000000
v 8.99728680 58.18568420 5.00000000
v 9.10228252 58.27385712 5.00000000
v 9.20378017 58.37031174 5.00000000
v 9.30146980 58.47475052 5.00000000
v 9.44392014 56.93039322 5.00000000
v 9.61601830 57.04236984 5.00000000
v 9.39505672 58.58686066 5.00000000
v 9.48425484 58.70629501 5.00000000
v 9.56879520 58.83269882 5.00000000
v 9.64841843 58.96568298 5.00000000
v 9.78305721 57.16636276 5.00000000
v 9.94453049 57.30199814 5.00000000
v 9.72288513 59.10484695 5.00000000
v 9.79196835 59.24976730 5.00000000
v 9.85545826 59.40000153 5.00000000
v 9.85545826 59.45000076 5.00000000
v 7.58809423 64.15635681 4.59999990
v 7.70818424 64.18058014 4.59999990
v 7.56517363 65.47268677 4.59999990
v 7.75739527 65.49316406 4.59999990
v 7.82900906 64.19514465 4.59999990
v 7.95020247 64.19999695 4.59999990
v 8.07139492 64.19514465 4.59999990
v 7.95020247 65.50000000 4.59999990
v 8.19222069 64.18058014 4.59999990
v 8.31231022 64.15635681 4.59999990
v 8.43130016 64.12255096 4.59999990
v 8.14300919 65.49316406 4.59999990
v 8.33523083 65.47268677 4.59999990
v 8.54883003 64.07925415 4.59999990
v 8.66454124 64.02661896 4.59999990
v 8.52628326 65.43862915 4.59999990
v 8.71558571 65.39108276 4.59999990
v 8.77808285 63.96478271 4.59999990
v 8.88911057 63.89394379 4.59999990
v 8.99728680 63.81431580 4.59999990
v 8.90256405 65.33020782 4.59999990
v 9.10228252 63.72614288 4.59999990
v 9.20378017 63.62968826 4.59999990
v 9.30146980 63.52524948 4.59999990
v 9.08665085 65.25617981 4.59999990
v 9.26728535 65.16921997 4.59999990
v 9.39505672 63.41313934 4.59999990
v 9.48425484 63.29370499 4.59999990
v 9.56879520 63.16730118 4.59999990
v 9.64841843 63.03431702 4.59999990
v 9.79196835 62.75023270 4.59999990
v 9.72288513 62.89515305 4.59999990
v 9.85545826 62.59999847 4.59999990
v 9.44392014 65.06961060 4.59999990
v 9.61601830 64.95763397 4.59999990
v 9.78305721 64.83364105 4.59999990
v 9.94453049 64.69799805 4.59999990
v 7.58809423 64.15635681 5.00000000
v 7.70818424 64.18058014 5.00000000
v 7.56517363 65.47268677 5.00000000
v 7.75739527 65.49316406 5.00000000
v 7.82900906 64.19514465 5.00000000
v 7.95020247 64.19999695 5.00000000
v 8.07139492 64.19514465 5.00000000
v 7.95020247 65.50000000 5.00000000
v 8.19222069 64.18058014 5.00000000
v 8.31231022 64.15635681 5.00000000
v 8.43130016 64.12255096 5.00000000
v 8.14300919 65.49316406 5.00000000
v 8.33523083 65.47268677 5.00000000
v 8.54883003 64.07925415 5.00000000
v 8.66454124 64.02661896 5.00000000
v 8.52628326 65.43862915 5.00000000
v 8.71558571 65.39108276 5.00000000
v 8.77808285 63.96478271 5.00000000
v 8.88911057 63.89394379 5.00000000
v 8.99728680 63.81431580 5.00000000
v 8.90256405 65.33020782 5.00000000
v 9.10228252 63.72614288 5.00000000
v 9.20378017 63.62968826 5.00000000
v 9.30146980 63.52524948 5.00000000
v 9.08665085 65.25617981 5.00000000
v 9.26728535 65.16921997 5.00000000
v 9.39505672 63.41313934 5.00000000
v 9.48425484 63.29370499 5.00000000
v 9.56879520 63.16730118 5.00000000
v 9.64841843 63.03431702 5.00000000
v 9.79196835 62.75023270 5.00000000
v 9.72288513 62.89515305 5.00000000
v 9.85545826 62.59999847 5.00000000
v 9.44392014 65.06961060 5.00000000
v 9.61601830 64.95763397 5.00000000
v 9.78305721 64.83364105 5.00000000
v 9.94453049 64.69799805 5.00000000
v 19.39999962 0.60000002 0.00000000
v 19.39999962 0.00000000 0.60000002
v 20.00000000 0.60000002 0.60000002
v 12.49855709 32.22499847 4.59999990
v 12.11294460 34.82500076 4.59999990
v 10.00037193 31.28662491 5.00000000
v 10.08530140 31.25525475 5.00000000
v 10.17414761 31.22878647 5.00000000
v 10.26653099 31.20733261 5.00000000
v 10.36205482 31.19098854 5.00000000
v 10.46030998 31.17981911 5.00000000
v 10.56087685 31.17387581 5.00000000
v 10.03602219 33.18667221 5.00000000
v 10.12266541 33.24658585 5.00000000
v 10.21306419 33.30287933 5.00000000
v 10.30683327 33.35530472 5.00000000
v 10.40357113 33.40363693 5.00000000
v 10.50286198 33.44767380 5.00000000
v 10.60428238 33.48722458 5.00000000
v 10.66332436 31.17318153 5.00000000
v 10.76721287 31.17774200 5.00000000
v 10.87209797 31.18753624 5.00000000
v 10.97753143 31.20252228 5.00000000
v 11.08306122 31.22263718 5.00000000
v 11.18823433 31.24779129 5.00000000
v 10.70739746 33.52211761 5.00000000
v 10.81176567 33.55220795 5.00000000
v 10.91693878 33.57736206 5.00000000
v 11.02246857 33.59747696 5.00000000
v 11.12790203 33.61246490 5.00000000
v 11.23278713 33.62225723 5.00000000
v 10.00037193 31.28662491 5.50000000
v 10.08530140 31.25525475 5.50000000
v 10.17414761 31.22878647 5.50000000
v 10.26653099 31.20733261 5.50000000
v 10.36205482 31.19098854 5.50000000
v 10.46030998 31.17981911 5.50000000
v 10.56087685 31.17387581 5.50000000
v 10.03602219 33.18667221 5.50000000
v 10.12266541 33.24658585 5.50000000
v 10.21306419 33.30287933 5.50000000
v 10.30683327 33.35530472 5.50000000
v 10.40357113 33.40363693 5.50000000
v 10.50286198 33.44767380 5.50000000
v 10.60428238 33.48722458 5.50000000
v 10.66332436 31.17318153 5.50000000
v 10.76721287 31.17774200 5.50000000
v 10.87209797 31.18753624 5.50000000
v 10.97753143 31.20252228 5.50000000
v 11.08306122 31.22263718 5.50000000
v 11.18823433 31.24779129 5.50000000
v 10.70739746 33.52211761 5.50000000
v 10.81176567 33.55220795 5.50000000
v 10.91693878 33.57736206 5.50000000
v 11.02246857 33.59747696 5.50000000
v 11.12790203 33.61246490 5.50000000
v 11.23278713 33.62225723 5.50000000
v 11.29260254 31.27788162 5.00000000
v 11.39571762 31.31277657 5.00000000
v 11.49713802 31.35232544 5.00000000
v 11.59642887 31.39636230 5.00000000
v 11.69316673 31.44469643 5.00000000
v 11.78693581 31.49712181 5.00000000
v 11.33667564 33.62681961 5.00000000
v 11.43912315 33.62612534 5.00000000
v 11.53969002 33.62018204 5.00000000
v 11.63794518 33.60901260 5.00000000
v 11.73346901 33.59266663 5.00000000
v 11.82585239 33.57121277 5.00000000
v 11.87733459 31.55341339 5.00000000
v 11.96397781 31.61332893 5.00000000
v 12.04649258 31.67661476 5.00000000
v 12.12452507 31.74299622 5.00000000
v 12.19774342 31.81219292 5.00000000
v 12.26583290 31.88390541 5.00000000
v 12.32850075 31.95782852 5.00000000
v 12.38548088 32.03364563 5.00000000
v 12.43652821 32.11103058 5.00000000
v 12.48142338 32.18965530 5.00000000
v 12.49855709 32.22499847 5.00000000
v 11.91469860 33.54474640 5.00000000
v 11.99962807 33.51337433 5.00000000
v 12.08027744 33.47723770 5.00000000
v 12.11294460 33.45972824 5.00000000
v 12.11294460 34.82500076 5.00000000
v 11.29260254 31.27788162 5.50000000
v 11.39571762 31.31277657 5.50000000
v 11.49713802 31.35232544 5.50000000
v 11.59642887 31.39636230 5.50000000
v 11.69316673 31.44469643 5.50000000
v 11.78693581 31.49712181 5.50000000
v 11.33667564 33.62681961 5.50000000
v 11.43912315 33.62612534 5.50000000
v 11.53969002 33.62018204 5.50000000
v 11.63794518 33.60901260 5.50000000
v 11.73346901 33.59266663 5.50000000
v 11.82585239 33.57121277 5.50000000
v 11.87733459 31.55341339 5.50000000
v 11.96397781 31.61332893 5.50000000
v 12.04649258 31.67661476 5.50000000
v 12.12452507 31.74299622 5.50000000
v 12.19774342 31.81219292 5.50000000
v 12.26583290 31.88390541 5.50000000
v 12.32850075 31.95782852 5.50000000
v 12.38548088 32.03364563 5.50000000
v 12.43652821 32.11103058 5.50000000
v 12.48142338 32.18965530 5.50000000
v 11.91469860 33.54474640 5.50000000
v 11.99962807 33.51337433 5.50000000
v 12.08027744 33.47723770 5.50000000
v 12.11294460 33.45972824 5.50000000
v 12.51997471 32.26917648 4.59999990
v 12.55201817 32.34926224 4.59999990
v 12.56806564 32.40000153 4.59999990
v 12.61294460 32.40000153 4.59999990
v 12.61294460 32.57500076 4.59999990
v 12.61294460 34.82500076 4.59999990
v 13.38705540 32.40000153 4.59999990
v 13.38705540 32.57500076 4.59999990
v 13.38705540 34.82500076 4.59999990
v 13.88705540 32.40000153 4.59999990
v 13.88705540 32.57500076 4.59999990
v 13.88705540 34.82500076 4.59999990
v 12.61294460 32.57500076 5.00000000
v 12.61294460 34.82500076 5.00000000
v 13.38705540 32.57500076 5.00000000
v 13.38705540 34.82500076 5.00000000
v 12.51997471 32.26917648 5.50000000
v 12.55201817 32.34926224 5.50000000
v 12.56806564 32.40000153 5.50000000
v 12.61294460 32.40000153 5.50000000
v 13.38705540 32.40000153 5.50000000
v 13.88705540 32.57500076 5.00000000
v 13.88705540 34.82500076 5.00000000
v 13.88705540 32.40000153 5.50000000
v 19.39999962 0.00000000 4.40000010
v 20.00000000 0.60000002 4.40000010
v 19.39999962 0.60000002 5.00000000
v 19.79999924 29.62500000 4.59999990
v 19.79999924 29.97500038 4.59999990
v 19.79999924 32.22499847 4.59999990
v 19.79999924 32.57500076 4.59999990
v 19.79999924 34.82500076 4.59999990
v 19.39999962 29.62500000 5.00000000
v 19.39999962 29.97500038 5.00000000
v 19.39999962 32.22499847 5.00000000
v 19.39999962 32.57500076 5.00000000
v 19.39999962 34.82500076 5.00000000
v 19.39999962 69.40000153 0.00000000
v 19.39999962 70.00000000 0.60000002
v 20.00000000 69.40000153 0.60000002
v 10.02499962 40.02500153 4.59999990
v 10.02499962 40.05973434 4.59999990
v 10.47500038 40.02500153 4.59999990
v 10.47500038 40.15538406 4.59999990
v 11.12500000 40.02500153 4.59999990
v 11.12500000 40.29354858 4.59999990
v 12.11294460 35.17499924 4.59999990
v 12.11294460 37.42499924 4.59999990
v 12.11294460 37.77500153 4.59999990
v 11.57499981 40.02500153 4.59999990
v 11.57499981 40.37500000 4.59999990
v 12.11294460 40.02500153 4.59999990
v 12.11294460 40.09999847 4.59999990
v 10.02499962 38.63999939 5.00000000
v 10.47500038 38.63999939 5.00000000
v 11.12500000 38.63999939 5.00000000
v 10.02499962 38.63999939 5.50000000
v 10.47500038 38.63999939 5.50000000
v 11.12500000 38.63999939 5.50000000
v 10.02499962 40.02500153 5.00000000
v 10.02499962 40.63480377 5.00000000
v 10.47500038 40.02500153 5.00000000
v 10.47500038 40.73045349 5.00000000
v 10.02499962 42.03573608 5.00000000
v 10.02499962 42.61080170 5.00000000
v 10.47500038 42.13138580 5.00000000
v 10.47500038 42.70645142 5.00000000
v 11.12500000 40.02500153 5.00000000
v 11.12500000 40.86861420 5.00000000
v 11.12500000 42.26954651 5.00000000
v 11.12500000 42.84461594 5.00000000
v 10.02499962 40.05973434 5.50000000
v 10.02499962 40.63480377 5.50000000
v 10.47500038 40.15538406 5.50000000
v 10.47500038 40.73045349 5.50000000
v 10.02499962 42.03573608 5.50000000
v 10.02499962 42.61080170 5.50000000
v 10.47500038 42.13138580 5.50000000
v 10.47500038 42.70645142 5.50000000
v 11.12500000 40.29354858 5.50000000
v 11.12500000 40.86861420 5.50000000
v 11.12500000 42.26954651 5.50000000
v 11.12500000 42.84461594 5.50000000
v 11.57499981 38.63999939 5.00000000
v 12.11294460 35.17499924 5.00000000
v 12.11294460 37.42499924 5.00000000
v 12.11294460 37.77500153 5.00000000
v 11.57499981 38.63999939 5.50000000
v 11.57499981 40.02500153 5.00000000
v 11.57499981 40.37500000 5.00000000
v 11.57499981 40.38919830 5.00000000
v 11.57499981 40.96426392 5.00000000
v 11.57499981 42.36519623 5.00000000
v 11.57499981 42.94026566 5.00000000
v 12.11294460 40.02500153 5.00000000
v 11.91530228 41.03659821 5.00000000
v 12.03225231 40.48638916 5.00000000
v 12.03225231 42.46239090 5.00000000
v 11.91530228 43.01259995 5.00000000
v 11.57499981 40.38919830 5.50000000
v 11.57499981 40.96426392 5.50000000
v 11.57499981 42.36519623 5.50000000
v 11.57499981 42.94026566 5.50000000
v 12.11294460 40.09999847 5.50000000
v 11.91530228 41.03659821 5.50000000
v 12.03225231 40.48638916 5.50000000
v 12.03225231 42.46239090 5.50000000
v 11.91530228 43.01259995 5.50000000
v 10.02499962 44.36000061 5.00000000
v 10.47500038 44.36000061 5.00000000
v 11.12500000 44.36000061 5.00000000
v 10.02499962 44.36000061 5.50000000
v 10.47500038 44.36000061 5.50000000
v 11.12500000 44.36000061 5.50000000
v 11.57499981 44.36000061 5.00000000
v 11.57499981 44.36000061 5.50000000
v 12.61294460 35.17499924 4.59999990
v 12.61294460 37.42499924 4.59999990
v 12.61294460 37.77500153 4.59999990
v 13.38705540 35.17499924 4.59999990
v 13.38705540 37.42499924 4.59999990
v 13.38705540 37.77500153 4.59999990
v 12.61294460 40.02500153 4.59999990
v 12.61294460 40.09999847 4.59999990
v 13.38705540 40.02500153 4.59999990
v 13.38705540 40.37500000 4.59999990
v 13.88705540 35.17499924 4.59999990
v 13.88705540 37.42499924 4.59999990
v 13.88705540 37.77500153 4.59999990
v 13.88705540 40.02500153 4.59999990
v 13.88705540 40.37500000 4.59999990
v 14.03184223 40.37500000 4.59999990
v 14.08530140 40.35525513 4.59999990
v 14.17414761 40.32878494 4.59999990
v 14.26653099 40.30733490 4.59999990
v 14.36205482 40.29098892 4.59999990
v 14.46030998 40.27981949 4.59999990
v 14.56087685 40.27387619 4.59999990
v 14.66332436 40.27318192 4.59999990
v 14.76721287 40.27774048 4.59999990
v 14.87209797 40.28753662 4.59999990
v 14.97753143 40.30252075 4.59999990
v 12.61294460 35.17499924 5.00000000
v 12.61294460 37.42499924 5.00000000
v 12.61294460 37.77500153 5.00000000
v 13.38705540 35.17499924 5.00000000
v 13.38705540 37.42499924 5.00000000
v 13.38705540 37.77500153 5.00000000
v 12.61294460 40.02500153 5.00000000
v 13.38705540 40.02500153 5.00000000
v 13.38705540 40.37500000 5.00000000
v 13.38705540 41.50000000 5.00000000
v 13.43193436 41.50000000 5.00000000
v 13.44798183 41.55073929 5.00000000
v 13.48002529 41.63082123 5.00000000
v 13.51857662 41.71034622 5.00000000
v 13.56347179 41.78896713 5.00000000
v 13.61451912 41.86635590 5.00000000
v 13.67149925 41.94216919 5.00000000
v 13.73416710 42.01609421 5.00000000
v 12.61294460 40.09999847 5.50000000
v 13.38705540 41.50000000 5.50000000
v 13.43193436 41.50000000 5.50000000
v 13.44798183 41.55073929 5.50000000
v 13.48002529 41.63082123 5.50000000
v 13.51857662 41.71034622 5.50000000
v 13.56347179 41.78896713 5.50000000
v 13.61451912 41.86635590 5.50000000
v 13.67149925 41.94216919 5.50000000
v 13.73416710 42.01609421 5.50000000
v 13.88705540 35.17499924 5.00000000
v 13.88705540 37.42499924 5.00000000
v 13.88705540 37.77500153 5.00000000
v 13.88705540 40.02500153 5.00000000
v 13.88705540 40.37500000 5.00000000
v 13.88705540 40.44027328 5.00000000
v 13.91972256 40.42276382 5.00000000
v 14.00037193 40.38662338 5.00000000
v 14.03184223 40.37500000 5.00000000
v 13.80225658 42.08780670 5.00000000
v 13.87547493 42.15700150 5.00000000
v 13.95350742 42.22338486 5.00000000
v 14.03602219 42.28667068 5.00000000
v 14.12266541 42.34658813 5.00000000
v 14.21306419 42.40287781 5.00000000
v 14.30683327 42.45530319 5.00000000
v 14.40357113 42.50363922 5.00000000
v 14.50286198 42.54767609 5.00000000
v 14.60428238 42.58722305 5.00000000
v 14.70739746 42.62211990 5.00000000
v 14.81176567 42.65220642 5.00000000
v 14.91693878 42.67736435 5.00000000
v 13.88705540 40.44027328 5.50000000
v 13.91972256 40.42276382 5.50000000
v 14.00037193 40.38662338 5.50000000
v 14.08530140 40.35525513 5.50000000
v 14.17414761 40.32878494 5.50000000
v 14.26653099 40.30733490 5.50000000
v 14.36205482 40.29098892 5.50000000
v 13.80225658 42.08780670 5.50000000
v 13.87547493 42.15700150 5.50000000
v 13.95350742 42.22338486 5.50000000
v 14.03602219 42.28667068 5.50000000
v 14.12266541 42.34658813 5.50000000
v 14.21306419 42.40287781 5.50000000
v 14.30683327 42.45530319 5.50000000
v 14.46030998 40.27981949 5.50000000
v 14.56087685 40.27387619 5.50000000
v 14.66332436 40.27318192 5.50000000
v 14.76721287 40.27774048 5.50000000
v 14.87209797 40.28753662 5.50000000
v 14.97753143 40.30252075 5.50000000
v 14.40357113 42.50363922 5.50000000
v 14.50286198 42.54767609 5.50000000
v 14.60428238 42.58722305 5.50000000
v 14.70739746 42.62211990 5.50000000
v 14.81176567 42.65220642 5.50000000
v 14.91693878 42.67736435 5.50000000
v 10.09994698 57.44886780 4.59999990
v 10.24883461 57.60652161 4.59999990
v 10.39074135 57.77447891 4.59999990
v 10.52523613 57.95223236 4.59999990
v 10.65191078 58.13924408 4.59999990
v 10.77038002 58.33494186 4.59999990
v 10.81894875 58.42499924 4.59999990
v 11.63129139 58.42499924 4.59999990
v 11.63129139 59.45000076 4.59999990
v 11.63129139 60.75000000 4.59999990
v 12.43129158 59.88298416 4.59999990
v 10.09994698 57.44886780 5.00000000
v 10.24883461 57.60652161 5.00000000
v 10.39074135 57.77447891 5.00000000
v 10.52523613 57.95223236 5.00000000
v 10.65191078 58.13924408 5.00000000
v 10.77038002 58.33494186 5.00000000
v 10.81894875 58.42499924 5.00000000
v 11.63129139 58.42499924 5.00000000
v 11.63129139 60.75000000 5.00000000
v 12.43129158 59.88298416 5.00000000
v 10.24883461 64.39347839 4.59999990
v 10.09994698 64.55113220 4.59999990
v 10.39074135 64.22552490 4.59999990
v 10.52523613 64.04776764 4.59999990
v 10.98129082 63.25000000 4.59999990
v 10.65191078 63.86075592 4.59999990
v 10.77038002 63.66505814 4.59999990
v 10.88028526 63.46126556 4.59999990
v 12.43129158 62.35298157 4.59999990
v 10.24883461 64.39347839 5.00000000
v 10.09994698 64.55113220 5.00000000
v 10.39074135 64.22552490 5.00000000
v 10.52523613 64.04776764 5.00000000
v 10.98129082 63.25000000 5.00000000
v 10.65191078 63.86075592 5.00000000
v 10.77038002 63.66505814 5.00000000
v 10.88028526 63.46126556 5.00000000
v 12.43129158 62.35298157 5.00000000
v 12.61402607 59.02328110 4.59999990
v 12.95081711 57.42499924 4.59999990
v 12.95081711 59.09487152 4.59999990
v 12.95081711 59.99341202 4.59999990
v 13.65394211 57.42499924 4.59999990
v 13.65394211 59.24432373 4.59999990
v 13.65394211 60.14286423 4.59999990
v 14.32581711 57.42499924 4.59999990
v 14.32581711 59.38713455 4.59999990
v 14.32581711 60.28567505 4.59999990
v 12.61402607 59.02328110 5.00000000
v 12.95081711 57.42499924 5.00000000
v 12.95081711 59.09487152 5.00000000
v 12.95081711 59.99341202 5.00000000
v 13.65394211 57.42499924 5.00000000
v 13.65394211 59.24432373 5.00000000
v 13.65394211 60.14286423 5.00000000
v 14.32581711 57.42499924 5.00000000
v 14.32581711 59.38713455 5.00000000
v 14.32581711 60.28567505 5.00000000
v 12.61402607 61.49328232 4.59999990
v 12.95081711 61.56486893 4.59999990
v 12.95081711 62.46340942 4.59999990
v 12.95081711 64.57499695 4.59999990
v 13.65394211 61.71432495 4.59999990
v 13.65394211 62.61286545 4.59999990
v 13.65394211 64.57499695 4.59999990
v 14.32581711 61.85713577 4.59999990
v 14.32581711 62.75567627 4.59999990
v 14.32581711 64.57499695 4.59999990
v 12.61402607 61.49328232 5.00000000
v 12.95081711 61.56486893 5.00000000
v 12.95081711 62.46340942 5.00000000
v 12.95081711 64.57499695 5.00000000
v 13.65394211 61.71432495 5.00000000
v 13.65394211 62.61286545 5.00000000
v 13.65394211 64.57499695 5.00000000
v 14.32581711 61.85713577 5.00000000
v 14.32581711 62.75567627 5.00000000
v 14.32581711 64.57499695 5.00000000
v 15.08306122 40.32263565 4.59999990
v 15.18823433 40.34779358 4.59999990
v 15.28261185 40.37500000 4.59999990
v 15.28261185 40.37500000 5.00000000
v 15.29260254 40.37788010 5.00000000
v 15.39571762 40.41277695 5.00000000
v 15.49713802 40.45232391 5.00000000
v 15.59642887 40.49636078 5.00000000
v 15.02246857 42.69747925 5.00000000
v 15.12790203 42.71246338 5.00000000
v 15.23278713 42.72225952 5.00000000
v 15.33667564 42.72681808 5.00000000
v 15.43912315 42.72612381 5.00000000
v 15.53969002 42.72018051 5.00000000
v 15.69316673 40.54469681 5.00000000
v 15.78693581 40.59712219 5.00000000
v 15.87733459 40.65341187 5.00000000
v 15.96397781 40.71332932 5.00000000
v 16.04649162 40.77661514 5.00000000
v 16.12452507 40.84299850 5.00000000
v 16.19774437 40.91219330 5.00000000
v 15.91469860 42.64474487 5.00000000
v 15.63794518 42.70901108 5.00000000
v 15.73346901 42.69266510 5.00000000
v 15.82585239 42.67121506 5.00000000
v 15.99962807 42.61337662 5.00000000
v 16.08027840 42.57723618 5.00000000
v 16.15630150 42.53648758 5.00000000
v 16.22737312 42.49129486 5.00000000
v 15.08306122 40.32263565 5.50000000
v 15.18823433 40.34779358 5.50000000
v 15.29260254 40.37788010 5.50000000
v 15.39571762 40.41277695 5.50000000
v 15.49713802 40.45232391 5.50000000
v 15.59642887 40.49636078 5.50000000
v 15.02246857 42.69747925 5.50000000
v 15.12790203 42.71246338 5.50000000
v 15.23278713 42.72225952 5.50000000
v 15.33667564 42.72681808 5.50000000
v 15.43912315 42.72612381 5.50000000
v 15.53969002 42.72018051 5.50000000
v 15.69316673 40.54469681 5.50000000
v 15.78693581 40.59712219 5.50000000
v 15.87733459 40.65341187 5.50000000
v 15.96397781 40.71332932 5.50000000
v 16.04649162 40.77661514 5.50000000
v 16.12452507 40.84299850 5.50000000
v 16.19774437 40.91219330 5.50000000
v 15.91469860 42.64474487 5.50000000
v 15.63794518 42.70901108 5.50000000
v 15.73346901 42.69266510 5.50000000
v 15.82585239 42.67121506 5.50000000
v 15.99962807 42.61337662 5.50000000
v 16.08027840 42.57723618 5.50000000
v 16.15630150 42.53648758 5.50000000
v 16.22737312 42.49129486 5.50000000
v 16.26583290 40.98390579 5.00000000
v 16.32850075 41.05783081 5.00000000
v 16.38548088 41.13364410 5.00000000
v 16.43652725 41.21103287 5.00000000
v 16.48142242 41.28965378 5.00000000
v 16.51997566 41.36917877 5.00000000
v 16.55201721 41.44926071 5.00000000
v 16.57741547 41.52956390 5.00000000
v 16.29318810 42.44186401 5.00000000
v 16.35346603 42.38839340 5.00000000
v 16.40794945 42.33112335 5.00000000
v 16.45640373 42.27029419 5.00000000
v 16.49861908 42.20616531 5.00000000
v 16.53442001 42.13901138 5.00000000
v 16.59605789 41.60973740 5.00000000
v 16.60786438 41.68944168 5.00000000
v 16.61278725 41.76833344 5.00000000
v 16.56364822 42.06912231 5.00000000
v 16.58618164 41.99679565 5.00000000
v 16.61080360 41.84608078 5.00000000
v 16.60192299 41.92234039 5.00000000
v 16.26583290 40.98390579 5.50000000
v 16.32850075 41.05783081 5.50000000
v 16.38548088 41.13364410 5.50000000
v 16.43652725 41.21103287 5.50000000
v 16.48142242 41.28965378 5.50000000
v 16.51997566 41.36917877 5.50000000
v 16.55201721 41.44926071 5.50000000
v 16.57741547 41.52956390 5.50000000
v 16.29318810 42.44186401 5.50000000
v 16.35346603 42.38839340 5.50000000
v 16.40794945 42.33112335 5.50000000
v 16.45640373 42.27029419 5.50000000
v 16.49861908 42.20616531 5.50000000
v 16.53442001 42.13901138 5.50000000
v 16.59605789 41.60973740 5.50000000
v 16.60786438 41.68944168 5.50000000
v 16.61278725 41.76833344 5.50000000
v 16.56364822 42.06912231 5.50000000
v 16.58618164 41.99679565 5.50000000
v 16.61080360 41.84608078 5.50000000
v 16.60192299 41.92234039 5.50000000
v 19.79999924 35.17499924 4.59999990
v 19.79999924 37.42499924 4.59999990
v 19.79999924 37.77500153 4.59999990
v 19.79999924 40.02500153 4.59999990
v 19.79999924 40.37500000 4.59999990
v 19.39999962 35.17499924 5.00000000
v 19.39999962 37.42499924 5.00000000
v 19.39999962 37.77500153 5.00000000
v 19.39999962 40.02500153 5.00000000
v 19.39999962 40.37500000 5.00000000
v 15.02894211 57.42499924 4.59999990
v 15.02894211 59.53659058 4.59999990
v 15.02894211 60.43513107 4.59999990
v 15.54846859 59.64701843 4.59999990
v 15.36573410 60.50671768 4.59999990
v 15.02894211 57.42499924 5.00000000
v 15.02894211 59.53659058 5.00000000
v 15.02894211 60.43513107 5.00000000
v 15.54846859 59.64701843 5.00000000
v 15.36573410 60.50671768 5.00000000
v 15.02894211 62.00658798 4.59999990
v 15.02894211 62.90512848 4.59999990
v 15.54846859 62.11701584 4.59999990
v 15.36573410 62.97671890 4.59999990
v 15.02894211 64.57499695 4.59999990
v 15.02894211 62.00658798 5.00000000
v 15.02894211 62.90512848 5.00000000
v 15.54846859 62.11701584 5.00000000
v 15.36573410 62.97671890 5.00000000
v 15.02894211 64.57499695 5.00000000
v 19.39999962 70.00000000 4.40000010
v 20.00000000 69.40000153 4.40000010
v 19.39999962 69.40000153 5.00000000
f 1 3 2
f 2 3 5
f 1 2 411
f 2 4 412
f 1 817 3
f 1 411 816
f 2 5 4
f 4 5 6
f 4 6 39
f 6 15 17
f 6 7 15
f 6 8 7
f 6 10 8
f 6 49 10
f 6 50 49
f 6 44 39
f 6 17 44
f 9 7 8
f 18 19 15
f 17 15 16
f 19 16 15
f 23 24 17
f 4 39 424
f 40 45 41
f 42 47 43
f 39 190 40
f 39 44 189
f 41 192 42
f 41 46 191
f 43 48 193
f 45 46 41
f 43 47 48
f 44 17 24
f 44 24 26
f 44 26 59
f 40 206 45
f 42 214 47
f 45 208 46
f 47 209 48
f 10 53 20
f 10 49 53
f 50 73 55
f 21 57 22
f 21 54 57
f 25 59 26
f 25 58 59
f 56 75 60
f 61 76 62
f 56 74 75
f 62 76 78
f 75 78 76
f 75 77 78
f 62 78 85
f 75 99 77
f 75 90 93
f 75 94 90
f 75 92 89
f 75 93 91
f 75 91 92
f 75 89 97
f 75 97 98
f 75 98 99
f 39 189 190
f 40 190 206
f 41 191 192
f 42 192 214
f 43 193 467
f 44 59 86
f 62 86 59
f 44 86 204
f 62 85 86
f 44 205 189
f 44 204 205
f 45 206 210
f 46 213 191
f 45 210 208
f 46 208 212
f 46 212 213
f 47 214 215
f 48 218 193
f 47 215 209
f 48 209 217
f 48 217 218
f 3 951 5
f 5 951 6
f 6 953 50
f 953 73 50
f 953 74 73
f 953 75 74
f 953 94 75
f 100 77 99
f 101 77 100
f 102 77 101
f 103 77 102
f 104 77 103
f 77 104 105
f 77 105 111
f 77 111 112
f 77 112 113
f 77 113 114
f 77 114 118
f 77 118 119
f 77 119 120
f 77 120 121
f 77 121 162
f 77 162 163
f 77 163 164
f 77 164 165
f 264 85 78
f 194 197 195
f 194 228 196
f 194 196 197
f 195 197 232
f 202 199 198
f 198 237 201
f 200 241 203
f 198 201 202
f 245 199 202
f 203 469 200
f 317 204 86
f 206 211 210
f 214 216 215
f 195 232 229
f 317 227 204
f 228 227 230
f 264 316 85
f 228 231 196
f 228 230 231
f 232 242 229
f 317 230 227
f 199 245 238
f 229 242 235
f 244 237 236
f 238 246 239
f 241 240 248
f 201 237 244
f 244 236 243
f 245 246 238
f 203 241 248
f 240 247 248
f 276 298 355
f 301 304 302
f 301 303 304
f 301 319 303
f 302 304 322
f 307 313 308
f 307 334 310
f 310 311 307
f 307 311 312
f 307 312 313
f 308 313 314
f 308 314 315
f 371 308 315
f 309 341 820
f 302 322 320
f 319 321 303
f 317 318 230
f 319 318 321
f 321 318 317
f 322 336 320
f 320 336 332
f 334 333 338
f 332 336 344
f 335 342 339
f 341 340 343
f 308 371 335
f 334 338 368
f 337 366 338
f 335 371 342
f 342 381 343
f 341 343 832
f 276 355 323
f 334 368 310
f 337 365 363
f 337 370 365
f 337 359 370
f 337 360 359
f 337 361 360
f 338 366 367
f 368 338 369
f 338 367 369
f 337 364 366
f 337 363 364
f 337 362 361
f 337 375 362
f 337 376 375
f 337 377 376
f 337 378 377
f 337 821 378
f 337 822 821
f 371 372 342
f 342 372 373
f 342 373 374
f 342 374 379
f 342 379 380
f 342 380 381
f 343 381 382
f 343 382 383
f 343 383 828
f 343 828 829
f 337 823 822
f 337 824 823
f 337 825 824
f 343 829 830
f 343 830 831
f 341 832 833
f 343 831 832
f 341 833 834
f 341 834 841
f 341 841 842
f 341 842 843
f 341 843 844
f 341 844 845
f 341 845 846
f 2 412 411
f 411 412 413
f 412 425 413
f 411 413 965
f 413 425 965
f 4 424 412
f 414 419 415
f 416 421 417
f 39 40 424
f 43 467 414
f 415 419 420
f 421 422 417
f 414 470 419
f 419 471 420
f 40 41 424
f 41 42 424
f 42 43 424
f 43 414 424
f 414 415 424
f 415 416 424
f 416 417 424
f 417 418 424
f 418 423 424
f 417 481 418
f 417 422 481
f 418 480 423
f 414 467 470
f 415 975 416
f 415 420 974
f 421 980 422
f 419 470 471
f 420 471 474
f 416 1013 421
f 420 474 476
f 423 539 540
f 423 541 539
f 423 542 541
f 423 543 542
f 423 544 543
f 423 545 544
f 423 546 545
f 423 547 546
f 423 566 547
f 423 561 567
f 423 562 561
f 423 567 566
f 423 563 562
f 423 564 563
f 412 424 425
f 423 426 424
f 423 442 426
f 424 426 425
f 427 428 498
f 427 438 428
f 428 439 498
f 429 431 433
f 427 431 430
f 430 431 432
f 427 435 431
f 431 435 433
f 433 435 434
f 435 449 436
f 427 430 437
f 429 440 431
f 430 432 443
f 431 442 432
f 429 433 444
f 433 434 445
f 435 436 447
f 434 435 446
f 430 441 437
f 427 437 448
f 423 443 442
f 423 448 441
f 423 438 448
f 423 441 443
f 423 439 438
f 423 540 439
f 427 448 438
f 428 438 439
f 439 540 498
f 430 443 441
f 432 442 443
f 431 440 442
f 429 444 440
f 433 445 444
f 435 447 446
f 434 446 445
f 436 458 447
f 437 441 448
f 435 451 449
f 449 451 450
f 435 455 451
f 451 453 452
f 451 455 453
f 453 455 454
f 455 457 456
f 435 597 455
f 455 582 457
f 436 449 458
f 449 450 459
f 450 451 460
f 451 452 461
f 452 453 462
f 453 454 463
f 454 455 464
f 455 456 465
f 456 457 466
f 457 581 621
f 426 440 444
f 426 442 440
f 426 444 445
f 426 445 446
f 426 446 447
f 426 447 458
f 426 458 459
f 426 459 460
f 426 460 461
f 426 461 462
f 426 462 463
f 426 463 464
f 426 464 465
f 426 465 466
f 426 466 621
f 426 621 622
f 426 622 623
f 426 623 624
f 449 459 458
f 450 460 459
f 451 461 460
f 452 462 461
f 453 463 462
f 454 464 463
f 455 465 464
f 456 466 465
f 457 621 466
f 426 624 625
f 426 625 637
f 426 637 638
f 426 638 639
f 426 639 640
f 426 640 645
f 426 645 646
f 426 646 650
f 426 650 651
f 426 651 655
f 426 655 656
f 200 469 468
f 475 468 469
f 418 481 480
f 420 476 484
f 475 473 468
f 475 474 473
f 420 484 1012
f 475 476 474
f 421 981 980
f 421 982 981
f 423 480 486
f 422 488 481
f 423 486 489
f 422 487 488
f 422 980 487
f 423 489 987
f 423 987 491
f 423 491 492
f 423 492 1035
f 423 565 564
f 423 702 565
f 423 703 702
f 423 704 703
f 423 705 704
f 423 706 705
f 423 707 706
f 423 708 707
f 423 721 708
f 423 722 721
f 415 974 975
f 416 975 1013
f 309 973 479
f 967 968 482
f 967 482 490
f 421 1010 982
f 421 1013 1010
f 420 1012 974
f 479 1011 483
f 483 1011 484
f 967 490 986
f 490 487 980
f 986 490 980
f 987 990 491
f 991 1035 492
f 423 1035 1337
f 423 1195 722
f 423 1198 1195
f 423 1201 1198
f 423 1337 1201
f 497 499 498
f 427 498 499
f 427 499 503
f 499 500 501
f 499 501 503
f 497 498 540
f 497 539 499
f 499 541 500
f 500 542 501
f 501 543 502
f 427 503 435
f 435 503 597
f 501 502 503
f 503 508 507
f 503 515 508
f 503 504 505
f 503 505 525
f 503 526 518
f 503 517 516
f 503 516 515
f 503 518 517
f 503 527 526
f 503 528 527
f 503 529 528
f 502 544 503
f 503 545 504
f 504 546 505
f 505 547 524
f 518 526 568
f 503 509 510
f 503 510 511
f 503 507 506
f 503 506 513
f 503 514 509
f 503 513 514
f 503 511 597
f 506 548 513
f 507 508 550
f 506 507 549
f 509 551 510
f 510 552 511
f 511 553 512
f 512 554 586
f 513 555 514
f 509 514 556
f 508 515 557
f 516 517 559
f 515 516 558
f 517 518 560
f 519 520 525
f 520 522 525
f 519 561 520
f 520 521 522
f 522 523 661
f 520 562 521
f 521 563 522
f 522 564 523
f 523 565 661
f 505 524 525
f 503 525 522
f 503 530 529
f 503 531 530
f 503 532 531
f 503 533 532
f 503 534 533
f 503 535 534
f 503 538 535
f 503 536 538
f 503 537 536
f 524 566 525
f 519 525 567
f 526 527 569
f 527 528 570
f 528 529 571
f 529 530 572
f 530 531 573
f 531 532 574
f 532 533 575
f 503 668 537
f 503 669 668
f 503 670 669
f 503 522 667
f 503 671 670
f 503 672 671
f 503 675 672
f 533 534 576
f 534 535 577
f 536 578 538
f 536 537 579
f 535 538 580
f 497 540 539
f 499 539 541
f 501 542 543
f 502 543 544
f 500 541 542
f 503 544 545
f 504 545 546
f 505 546 547
f 547 566 524
f 518 568 560
f 507 550 549
f 506 549 548
f 509 556 551
f 510 551 552
f 511 552 553
f 512 553 554
f 554 626 586
f 514 555 556
f 513 548 555
f 515 558 557
f 516 559 558
f 508 557 550
f 517 560 559
f 519 567 561
f 520 561 562
f 521 562 563
f 522 563 564
f 523 564 565
f 525 566 567
f 526 569 568
f 527 570 569
f 528 571 570
f 529 572 571
f 530 573 572
f 531 574 573
f 532 575 574
f 548 715 555
f 555 715 556
f 551 556 715
f 551 715 552
f 553 715 554
f 552 715 553
f 554 715 626
f 626 715 627
f 549 550 715
f 550 557 715
f 558 559 715
f 557 558 715
f 560 568 715
f 568 569 714
f 559 560 715
f 548 549 715
f 533 576 575
f 534 577 576
f 535 580 577
f 538 578 580
f 536 579 578
f 569 570 714
f 570 571 714
f 571 572 714
f 572 573 714
f 573 574 714
f 574 575 714
f 575 576 714
f 577 580 714
f 576 577 714
f 568 714 715
f 457 582 581
f 455 597 582
f 582 584 583
f 582 597 584
f 584 597 585
f 581 582 622
f 582 583 623
f 583 584 624
f 584 585 625
f 585 597 637
f 511 512 597
f 512 586 597
f 586 587 597
f 587 588 597
f 588 589 597
f 589 590 597
f 590 591 597
f 591 592 597
f 592 593 597
f 593 594 597
f 594 595 597
f 595 596 597
f 586 626 587
f 587 627 588
f 588 628 589
f 589 629 590
f 590 630 591
f 591 631 592
f 592 632 593
f 593 633 594
f 594 634 595
f 595 635 596
f 596 636 601
f 597 599 598
f 596 601 597
f 597 601 602
f 597 602 603
f 597 603 604
f 597 605 599
f 599 605 600
f 597 598 638
f 598 599 639
f 599 600 640
f 600 605 645
f 601 641 602
f 602 642 603
f 603 643 604
f 597 604 607
f 597 607 608
f 597 615 605
f 605 610 606
f 605 615 610
f 610 615 611
f 604 644 607
f 605 606 646
f 607 647 608
f 608 648 609
f 609 649 612
f 606 610 650
f 610 611 651
f 597 608 757
f 597 757 615
f 615 620 616
f 608 609 757
f 609 612 757
f 612 613 757
f 615 745 620
f 612 652 613
f 613 653 614
f 614 654 617
f 611 615 655
f 615 616 656
f 617 657 618
f 618 658 619
f 616 620 660
f 425 426 1352
f 581 622 621
f 582 623 622
f 583 624 623
f 584 625 624
f 585 637 625
f 587 626 627
f 588 627 628
f 589 628 629
f 590 629 630
f 591 630 631
f 592 631 632
f 593 632 633
f 594 633 634
f 595 634 635
f 596 635 636
f 636 641 601
f 597 638 637
f 598 639 638
f 599 640 639
f 600 645 640
f 426 656 660
f 426 660 781
f 426 781 782
f 426 782 786
f 426 786 790
f 426 790 791
f 426 791 794
f 426 795 799
f 426 799 803
f 426 794 795
f 602 641 642
f 603 642 643
f 604 643 644
f 627 715 628
f 628 715 629
f 629 715 630
f 630 715 631
f 631 715 632
f 632 715 633
f 633 715 634
f 634 715 635
f 635 715 636
f 636 715 641
f 641 715 642
f 605 646 645
f 606 650 646
f 607 644 647
f 608 647 648
f 609 648 649
f 612 649 652
f 610 651 650
f 642 715 643
f 643 715 644
f 644 715 647
f 647 715 648
f 648 715 649
f 649 715 652
f 652 715 653
f 653 715 654
f 654 715 657
f 613 652 653
f 614 653 654
f 611 655 651
f 615 656 655
f 617 654 657
f 618 657 658
f 619 658 659
f 616 660 656
f 620 781 660
f 426 803 804
f 522 661 663
f 661 662 663
f 522 663 667
f 661 702 662
f 662 703 663
f 663 704 664
f 663 664 665
f 663 665 667
f 665 666 667
f 664 705 665
f 665 706 666
f 666 707 667
f 503 1145 675
f 537 668 709
f 668 669 710
f 669 670 711
f 670 671 712
f 671 672 713
f 673 674 715
f 503 667 1145
f 672 675 716
f 675 676 717
f 676 677 718
f 677 678 719
f 678 679 720
f 679 683 724
f 673 701 674
f 673 714 700
f 674 701 715
f 667 680 681
f 667 681 689
f 681 682 689
f 667 708 680
f 680 721 681
f 681 722 682
f 682 723 689
f 675 1145 676
f 676 1145 677
f 677 1145 678
f 678 1145 679
f 679 1145 683
f 683 1145 684
f 684 1145 685
f 683 684 725
f 684 685 726
f 685 686 727
f 686 687 728
f 687 688 729
f 688 691 732
f 673 700 701
f 667 689 1145
f 689 690 695
f 685 1145 686
f 686 1145 687
f 687 1145 688
f 688 1145 691
f 691 1145 692
f 689 695 1145
f 695 696 1145
f 692 1145 693
f 693 1145 694
f 694 1145 697
f 697 1145 698
f 698 1145 699
f 699 1145 700
f 689 730 690
f 690 731 695
f 691 692 733
f 692 693 734
f 693 694 735
f 695 736 696
f 696 737 1145
f 694 697 738
f 697 698 739
f 698 699 740
f 699 700 741
f 715 701 1154
f 565 702 661
f 662 702 703
f 663 703 704
f 664 704 705
f 665 705 706
f 666 706 707
f 667 707 708
f 537 709 579
f 668 710 709
f 669 711 710
f 670 712 711
f 671 713 712
f 672 716 713
f 578 714 580
f 578 579 714
f 579 709 714
f 709 710 714
f 710 711 714
f 711 712 714
f 712 713 714
f 713 716 714
f 673 715 714
f 675 717 716
f 676 718 717
f 677 719 718
f 678 720 719
f 679 724 720
f 714 716 717
f 714 717 718
f 714 718 719
f 714 719 720
f 714 720 724
f 714 724 725
f 714 725 726
f 714 726 727
f 708 721 680
f 681 721 722
f 682 722 723
f 683 725 724
f 684 726 725
f 685 727 726
f 686 728 727
f 687 729 728
f 688 732 729
f 714 727 728
f 714 728 729
f 714 729 732
f 714 732 733
f 714 733 734
f 714 741 700
f 714 734 735
f 714 735 738
f 714 738 739
f 714 739 740
f 714 740 741
f 723 730 689
f 690 730 731
f 691 733 732
f 692 734 733
f 693 735 734
f 694 738 735
f 695 731 736
f 696 736 737
f 697 739 738
f 698 740 739
f 699 741 740
f 613 614 757
f 614 617 757
f 617 618 757
f 620 745 744
f 618 619 757
f 615 757 745
f 619 742 757
f 742 743 757
f 745 753 749
f 743 746 757
f 746 747 757
f 619 659 742
f 742 779 743
f 743 780 746
f 620 744 781
f 744 745 782
f 746 783 747
f 747 784 748
f 748 785 750
f 745 749 786
f 749 753 790
f 747 748 757
f 748 750 757
f 745 757 753
f 750 751 757
f 751 752 757
f 753 757 754
f 757 762 758
f 750 787 751
f 751 788 752
f 753 754 791
f 752 789 755
f 755 792 756
f 756 793 759
f 754 757 794
f 757 758 795
f 757 767 762
f 752 755 1170
f 752 1170 757
f 762 767 766
f 757 778 767
f 759 796 760
f 760 797 761
f 761 798 763
f 758 762 799
f 762 766 803
f 763 800 764
f 764 801 765
f 765 802 768
f 766 767 804
f 765 768 1170
f 768 769 1170
f 768 805 769
f 769 806 770
f 770 807 771
f 771 808 773
f 772 773 810
f 772 809 774
f 755 756 1170
f 756 759 1170
f 759 760 1170
f 760 761 1170
f 767 776 775
f 767 778 776
f 761 763 1170
f 763 764 1170
f 764 765 1170
f 757 1170 778
f 776 778 777
f 767 775 812
f 775 776 813
f 776 777 814
f 777 778 815
f 657 715 658
f 658 715 659
f 659 715 779
f 715 780 779
f 715 783 780
f 715 784 783
f 715 785 784
f 715 787 785
f 659 779 742
f 743 779 780
f 746 780 783
f 744 782 781
f 747 783 784
f 748 784 785
f 745 786 782
f 749 790 786
f 715 788 787
f 715 789 788
f 715 792 789
f 715 793 792
f 715 797 796
f 715 796 793
f 715 798 797
f 715 800 798
f 750 785 787
f 751 787 788
f 752 788 789
f 753 791 790
f 754 794 791
f 755 789 792
f 756 792 793
f 793 796 759
f 757 795 794
f 715 808 807
f 715 801 800
f 715 802 801
f 715 805 802
f 715 806 805
f 715 807 806
f 715 810 808
f 715 811 809
f 715 809 810
f 760 796 797
f 761 797 798
f 758 799 795
f 762 803 799
f 763 798 800
f 764 800 801
f 765 801 802
f 768 802 805
f 766 804 803
f 767 812 804
f 769 805 806
f 770 806 807
f 771 807 808
f 772 810 809
f 774 809 811
f 773 808 810
f 715 1164 811
f 775 813 812
f 776 814 813
f 777 815 814
f 778 1176 815
f 426 804 1354
f 1 816 817
f 3 817 951
f 816 818 817
f 817 818 951
f 816 964 818
f 953 95 94
f 953 96 95
f 953 106 96
f 953 107 106
f 953 108 107
f 953 110 109
f 953 109 108
f 953 115 110
f 953 116 115
f 953 117 116
f 953 155 117
f 953 156 155
f 953 157 156
f 953 158 157
f 953 159 158
f 953 160 159
f 953 161 160
f 953 166 161
f 953 167 166
f 953 168 167
f 953 169 168
f 953 170 169
f 953 171 170
f 953 257 171
f 953 258 257
f 953 259 258
f 953 260 259
f 953 261 260
f 953 262 261
f 953 263 262
f 953 265 263
f 953 266 265
f 953 267 266
f 953 268 267
f 953 269 268
f 953 270 269
f 953 271 270
f 953 272 271
f 953 273 272
f 953 274 273
f 953 275 274
f 6 951 953
f 953 297 275
f 953 298 297
f 309 820 973
f 955 306 305
f 954 305 325
f 341 900 820
f 341 846 879
f 341 879 880
f 341 880 900
f 960 326 306
f 959 325 324
f 960 344 326
f 960 337 332
f 960 332 344
f 900 880 881
f 900 881 882
f 900 882 883
f 900 883 884
f 900 884 896
f 900 896 897
f 900 897 898
f 900 898 899
f 931 930 933
f 932 940 935
f 931 933 934
f 931 934 941
f 932 935 1046
f 956 927 819
f 956 928 927
f 956 929 928
f 956 930 929
f 956 819 895
f 959 324 356
f 959 355 298
f 959 356 355
f 931 941 939
f 960 825 337
f 940 939 942
f 960 826 825
f 960 827 826
f 960 835 827
f 960 836 835
f 960 837 836
f 960 838 837
f 940 942 935
f 939 941 942
f 960 839 838
f 960 840 839
f 960 873 840
f 960 874 873
f 960 875 874
f 960 876 875
f 960 877 876
f 960 878 877
f 960 885 878
f 960 886 885
f 960 887 886
f 960 888 887
f 960 889 888
f 960 890 889
f 960 891 890
f 960 892 891
f 960 893 892
f 960 894 893
f 960 895 894
f 818 952 951
f 951 952 953
f 952 959 953
f 818 1353 952
f 953 959 298
f 954 955 305
f 955 960 306
f 956 933 930
f 956 936 933
f 957 937 936
f 958 938 949
f 954 325 959
f 962 948 937
f 963 949 948
f 956 895 961
f 960 961 895
f 952 954 959
f 956 957 936
f 957 962 937
f 958 1322 938
f 952 1353 954
f 955 956 961
f 957 958 963
f 958 949 963
f 962 963 948
f 955 961 960
f 957 963 962
f 411 964 816
f 411 965 964
f 818 964 966
f 818 966 1353
f 964 965 966
f 965 1353 966
f 479 973 1011
f 971 970 969
f 971 972 970
f 969 988 971
f 976 979 977
f 976 1015 978
f 978 979 976
f 1052 977 979
f 1011 1012 484
f 994 981 982
f 971 988 994
f 988 981 994
f 989 995 996
f 989 996 992
f 997 1037 993
f 1013 1021 1010
f 1021 1015 1010
f 1018 1022 1024
f 1018 1024 1019
f 978 1015 1021
f 1077 1016 977
f 1077 1017 1016
f 1077 1023 1017
f 1023 1078 1022
f 1022 1078 1024
f 993 1037 1036
f 1337 1035 1036
f 1337 1036 1037
f 932 1046 1043
f 1044 1048 1045
f 1044 1070 1047
f 1043 1046 1072
f 1047 1048 1044
f 1074 1045 1048
f 1052 979 1050
f 1051 1050 1049
f 1052 1077 977
f 1049 1075 1051
f 1051 1052 1050
f 1058 1057 1056
f 1056 1059 1058
f 1056 1060 1059
f 1056 1061 1060
f 1056 1062 1061
f 1056 1063 1062
f 1056 1064 1063
f 1058 1105 1057
f 1043 1072 1069
f 1069 1073 1070
f 1045 1074 1071
f 1071 1076 1075
f 1069 1072 1073
f 1070 1073 1047
f 1071 1074 1076
f 1077 1078 1023
f 1024 1106 1025
f 1080 1024 1078
f 1081 1024 1080
f 1082 1024 1081
f 1083 1024 1082
f 1084 1024 1083
f 1085 1024 1084
f 1051 1075 1076
f 1079 1080 1078
f 1086 1024 1085
f 1024 1086 1106
f 1107 1025 1106
f 1108 1025 1107
f 1109 1025 1108
f 1110 1025 1109
f 1101 1057 1105
f 1101 1103 1102
f 1101 1104 1103
f 1101 1105 1104
f 1337 1020 1025
f 1337 1025 1110
f 1337 1037 1041
f 1337 1041 1020
f 1337 1110 1111
f 1337 1111 1112
f 1337 1112 1113
f 1337 1113 1114
f 1337 1114 1115
f 1337 1115 1116
f 1337 1116 1117
f 1337 1117 1118
f 1337 1118 1232
f 425 1352 965
f 1145 1146 1147
f 700 1145 1151
f 1145 1147 1151
f 1147 1148 1149
f 1147 1149 1151
f 1145 1156 1146
f 1146 1157 1147
f 1147 1158 1148
f 1148 1159 1149
f 700 1151 701
f 1149 1150 1151
f 1149 1160 1150
f 1150 1161 1151
f 701 1151 1153
f 701 1153 1154
f 1151 1152 1153
f 1151 1163 1152
f 1152 1163 1153
f 1153 1164 1154
f 1155 1165 1184
f 737 1156 1145
f 1146 1156 1157
f 1147 1157 1158
f 1148 1158 1159
f 1149 1159 1160
f 722 1195 723
f 723 1195 730
f 715 1154 1164
f 1150 1160 1161
f 1151 1161 1162
f 1151 1162 1163
f 730 1195 731
f 731 1195 736
f 736 1195 737
f 737 1195 1156
f 1156 1195 1157
f 1157 1195 1158
f 1160 1163 1161
f 1161 1163 1162
f 1158 1195 1159
f 1159 1195 1160
f 1160 1195 1163
f 1153 1163 1164
f 1163 1196 1194
f 1163 1165 1164
f 1163 1194 1165
f 1164 1165 1197
f 770 771 1170
f 769 770 1170
f 771 773 1170
f 772 774 1170
f 772 1170 773
f 774 811 1170
f 778 1169 1166
f 778 1166 1167
f 1166 1169 1168
f 778 1170 1169
f 1166 1175 1167
f 778 1167 1176
f 1166 1168 1177
f 1169 1171 1180
f 1168 1169 1178
f 1170 1179 1173
f 1169 1172 1171
f 1169 1170 1172
f 1170 1173 1172
f 1171 1172 1181
f 1172 1173 1182
f 1174 1183 1204
f 811 1179 1170
f 1167 1175 1176
f 1166 1177 1175
f 1168 1178 1177
f 1169 1180 1178
f 1173 1179 1182
f 811 1164 1179
f 1171 1181 1180
f 1172 1182 1181
f 1175 1217 1176
f 1175 1177 1217
f 815 1176 1217
f 1164 1183 1179
f 1177 1178 1217
f 1178 1180 1217
f 1181 1182 1217
f 1180 1181 1217
f 1179 1217 1182
f 1179 1183 1217
f 1164 1214 1183
f 1164 1215 1214
f 1184 1194 1186
f 1185 1186 1196
f 1155 1184 1187
f 1184 1190 1187
f 1155 1187 1197
f 1187 1205 1215
f 1185 1188 1186
f 1186 1188 1189
f 1185 1195 1188
f 1188 1198 1189
f 1184 1186 1193
f 1187 1190 1205
f 1190 1208 1205
f 1184 1193 1190
f 1186 1189 1193
f 1190 1200 1208
f 1191 1192 1202
f 1189 1192 1334
f 1189 1334 1193
f 1189 1199 1192
f 1190 1193 1203
f 1191 1332 1192
f 1192 1332 1333
f 1191 1201 1332
f 1193 1334 1211
f 1192 1333 1334
f 1185 1196 1195
f 1163 1195 1196
f 1165 1194 1184
f 1155 1197 1165
f 1186 1194 1196
f 1187 1215 1197
f 1164 1197 1215
f 1188 1195 1198
f 1189 1198 1199
f 1200 1218 1208
f 1191 1202 1201
f 1198 1202 1199
f 1198 1201 1202
f 1190 1203 1200
f 1199 1202 1192
f 1193 1221 1203
f 1200 1221 1218
f 1200 1203 1221
f 1201 1337 1332
f 1174 1204 1206
f 1204 1205 1206
f 1204 1214 1205
f 1174 1206 1216
f 1206 1207 1217
f 1205 1209 1206
f 1206 1209 1207
f 1205 1208 1212
f 1205 1212 1209
f 1209 1219 1210
f 1207 1209 1210
f 1207 1210 1220
f 426 1354 1352
f 1208 1211 1212
f 1208 1218 1211
f 1193 1211 1221
f 1209 1212 1222
f 1212 1213 1223
f 1211 1334 1212
f 1212 1343 1213
f 1212 1334 1342
f 1212 1342 1343
f 1213 1343 1346
f 1213 1346 1351
f 1183 1214 1204
f 1174 1216 1183
f 1205 1214 1215
f 1206 1217 1216
f 1183 1216 1217
f 1207 1220 1217
f 1210 1219 1220
f 804 812 1354
f 812 813 1354
f 813 814 1354
f 814 815 1354
f 1209 1222 1219
f 1218 1221 1211
f 1212 1223 1222
f 1219 1222 1223
f 1219 1223 1220
f 1213 1351 1223
f 815 1217 1354
f 1322 1053 938
f 1324 1055 1054
f 1323 1054 1098
f 1325 1064 1056
f 1325 1056 1100
f 1325 1065 1064
f 1325 1066 1065
f 1325 1067 1066
f 1325 1068 1067
f 1325 1224 1068
f 1325 1225 1224
f 1325 1226 1225
f 1327 1097 1053
f 1328 1098 1097
f 1329 1099 1055
f 1330 1100 1099
f 1331 1227 1226
f 1331 1228 1227
f 1331 1229 1228
f 1331 1230 1229
f 1331 1231 1230
f 1331 1238 1231
f 1331 1239 1238
f 1331 1240 1239
f 1331 1241 1240
f 1331 1242 1241
f 1331 1243 1242
f 1331 1244 1243
f 1331 1280 1244
f 1331 1281 1280
f 1331 1282 1281
f 1331 1283 1282
f 1331 1284 1283
f 1331 1285 1284
f 1331 1286 1285
f 1337 1232 1233
f 1337 1233 1234
f 1337 1234 1235
f 1337 1235 1236
f 1337 1236 1237
f 1337 1237 1246
f 1337 1246 1247
f 1337 1247 1248
f 1337 1248 1245
f 1337 1245 1249
f 1337 1249 1250
f 1337 1250 1251
f 1337 1251 1252
f 1337 1252 1288
f 1337 1288 1289
f 1337 1289 1290
f 1337 1291 1292
f 1337 1290 1291
f 1337 1292 1293
f 1337 1293 1297
f 1337 1298 1300
f 1337 1297 1298
f 1337 1300 1299
f 1331 1337 1299
f 1331 1340 1337
f 1322 1327 1053
f 1323 1324 1054
f 1324 1329 1055
f 1325 1326 1226
f 1326 1331 1226
f 1322 1323 1328
f 1324 1325 1330
f 954 1353 955
f 1327 1328 1097
f 1323 1098 1328
f 1329 1330 1099
f 1325 1100 1330
f 1331 1287 1286
f 1331 1294 1287
f 1331 1295 1294
f 1331 1296 1295
f 1331 1299 1296
f 1322 1328 1327
f 1324 1330 1329
f 955 1353 956
f 956 1353 957
f 957 1353 958
f 958 1353 1322
f 1322 1353 1323
f 1323 1353 1324
f 1324 1353 1325
f 1325 1353 1326
f 1326 1354 1331
f 965 1352 1353
f 1332 1337 1333
f 1333 1336 1334
f 1333 1335 1336
f 1333 1338 1335
f 1334 1339 1342
f 1334 1336 1341
f 1335 1340 1336
f 1333 1337 1338
f 1337 1340 1338
f 1334 1341 1339
f 1335 1338 1340
f 1336 1340 1341
f 1339 1341 1347
f 1340 1349 1341
f 1331 1349 1340
f 1342 1345 1343
f 1342 1344 1345
f 1342 1347 1344
f 1343 1345 1350
f 1344 1349 1345
f 1343 1348 1346
f 1339 1347 1342
f 1343 1350 1348
f 1344 1347 1349
f 1345 1349 1350
f 1341 1349 1347
f 1346 1348 1351
f 1217 1220 1354
f 1220 1223 1354
f 1348 1350 1354
f 1349 1354 1350
f 1223 1351 1354
f 1348 1354 1351
f 1326 1353 1354
f 1331 1354 1349
f 1352 1354 1353
f 11 7 13
f 12 9 8
f 13 7 9
f 14 8 10
f 32 10 20
f 12 8 14
f 12 13 9
f 12 14 13
f 14 10 32
f 13 14 32
f 11 15 7
f 27 18 15
f 28 17 16
f 11 27 15
f 27 30 18
f 11 30 27
f 28 16 31
f 29 23 17
f 28 29 17
f 29 35 23
f 28 35 29
f 30 19 18
f 31 16 19
f 34 21 22
f 11 33 30
f 30 33 31
f 30 31 19
f 28 31 35
f 11 13 64
f 11 64 33
f 33 21 34
f 33 34 31
f 35 24 23
f 36 26 24
f 38 25 26
f 31 37 35
f 35 37 36
f 35 36 24
f 37 25 38
f 31 34 37
f 36 38 26
f 37 38 36
f 52 49 50
f 51 53 49
f 65 50 55
f 51 49 52
f 51 63 53
f 51 52 63
f 63 52 65
f 52 50 65
f 33 54 21
f 63 20 53
f 67 22 57
f 32 20 63
f 13 32 64
f 34 22 67
f 33 64 54
f 32 63 64
f 37 58 25
f 34 67 37
f 37 68 58
f 37 67 70
f 37 70 68
f 64 57 54
f 66 74 56
f 70 56 60
f 63 65 66
f 64 67 57
f 63 70 64
f 64 70 67
f 63 66 70
f 65 55 79
f 65 80 66
f 66 56 70
f 68 59 58
f 69 62 59
f 71 76 61
f 71 61 62
f 68 70 71
f 68 69 59
f 69 72 62
f 68 71 69
f 69 71 72
f 70 60 81
f 70 82 71
f 71 62 72
f 79 55 73
f 80 73 74
f 66 80 74
f 80 79 73
f 65 79 80
f 81 60 75
f 82 75 76
f 71 82 76
f 82 81 75
f 70 81 82
f 83 78 77
f 83 84 78
f 87 86 85
f 87 88 86
f 123 93 90
f 124 92 91
f 126 91 93
f 125 89 92
f 127 90 94
f 128 94 95
f 129 95 96
f 122 97 89
f 130 98 97
f 131 99 98
f 132 100 99
f 133 101 100
f 134 102 101
f 135 103 102
f 136 104 103
f 137 105 104
f 126 124 91
f 124 125 92
f 125 122 89
f 123 126 93
f 123 90 127
f 127 94 128
f 128 95 129
f 129 96 139
f 123 127 126
f 126 125 124
f 126 130 125
f 130 122 125
f 127 128 129
f 127 129 126
f 129 130 126
f 130 97 122
f 130 131 98
f 131 132 99
f 132 133 100
f 133 134 101
f 134 135 102
f 135 136 103
f 136 137 104
f 137 138 105
f 130 132 131
f 130 134 132
f 132 134 133
f 129 138 130
f 130 138 134
f 134 136 135
f 134 138 136
f 136 138 137
f 83 77 182
f 140 106 107
f 141 107 108
f 139 96 106
f 142 108 109
f 143 109 110
f 138 111 105
f 144 112 111
f 145 113 112
f 146 114 113
f 147 118 114
f 148 110 115
f 149 115 116
f 150 116 117
f 172 117 155
f 151 119 118
f 139 106 140
f 141 140 107
f 141 108 142
f 142 109 143
f 129 139 140
f 129 140 142
f 141 142 140
f 129 142 150
f 142 143 148
f 138 144 111
f 144 145 112
f 145 146 113
f 146 147 114
f 147 151 118
f 138 145 144
f 138 147 145
f 145 147 146
f 138 154 147
f 143 110 148
f 148 115 149
f 149 116 150
f 172 150 117
f 142 148 150
f 148 149 150
f 129 150 183
f 147 152 151
f 84 264 78
f 182 77 165
f 152 120 119
f 153 121 120
f 154 162 121
f 83 284 84
f 151 152 119
f 152 153 120
f 153 154 121
f 147 154 152
f 152 154 153
f 173 155 156
f 174 156 157
f 175 157 158
f 176 158 159
f 177 159 160
f 178 160 161
f 172 155 173
f 173 156 174
f 174 157 175
f 172 173 150
f 150 173 175
f 173 174 175
f 129 284 138
f 175 158 176
f 176 159 177
f 177 160 178
f 150 175 183
f 175 176 177
f 175 177 183
f 177 178 183
f 179 163 162
f 180 164 163
f 181 165 164
f 154 179 162
f 179 180 163
f 180 181 164
f 181 182 165
f 154 180 179
f 154 182 180
f 83 182 284
f 180 182 181
f 138 284 154
f 183 161 166
f 184 166 167
f 185 167 168
f 186 168 169
f 187 169 170
f 188 170 171
f 178 161 183
f 183 166 184
f 184 167 185
f 129 183 288
f 183 184 185
f 183 185 187
f 185 168 186
f 186 169 187
f 187 170 188
f 185 186 187
f 183 187 279
f 187 188 277
f 129 288 284
f 84 284 264
f 154 284 182
f 189 206 190
f 214 192 191
f 228 194 195
f 196 232 197
f 199 237 198
f 241 200 468
f 201 245 202
f 189 205 206
f 88 317 86
f 87 85 327
f 87 328 88
f 207 205 204
f 207 206 205
f 207 222 206
f 207 204 233
f 207 233 222
f 225 191 213
f 225 214 191
f 193 218 470
f 221 219 208
f 224 220 209
f 221 208 210
f 219 212 208
f 222 210 211
f 222 211 206
f 223 213 212
f 221 210 222
f 219 223 212
f 221 223 219
f 221 250 223
f 223 225 213
f 223 250 225
f 224 209 215
f 220 217 209
f 225 215 216
f 225 216 214
f 226 218 217
f 224 215 225
f 220 226 217
f 224 226 220
f 224 225 226
f 225 252 226
f 226 472 218
f 226 252 472
f 228 195 229
f 196 231 232
f 233 204 227
f 233 227 228
f 233 228 229
f 233 229 249
f 222 233 249
f 327 85 316
f 87 327 328
f 88 328 317
f 234 231 230
f 234 232 231
f 234 242 232
f 329 230 318
f 234 230 329
f 234 329 253
f 199 238 237
f 201 244 245
f 203 248 475
f 249 229 235
f 250 236 237
f 251 237 238
f 250 243 236
f 221 222 254
f 221 254 250
f 222 249 254
f 250 237 251
f 250 251 225
f 249 235 253
f 251 238 239
f 477 240 241
f 252 247 240
f 225 251 252
f 252 240 477
f 472 252 477
f 251 239 255
f 251 255 252
f 253 235 242
f 254 244 243
f 254 245 244
f 234 253 242
f 249 253 254
f 250 254 243
f 254 255 245
f 253 329 345
f 253 345 346
f 253 350 254
f 254 350 255
f 253 346 350
f 255 239 246
f 255 246 245
f 256 248 247
f 252 256 247
f 252 255 350
f 252 350 256
f 256 478 248
f 256 350 351
f 256 351 478
f 478 351 485
f 277 171 257
f 278 257 258
f 279 258 259
f 280 259 260
f 281 260 261
f 282 261 262
f 283 262 263
f 188 171 277
f 277 257 278
f 278 258 279
f 187 277 279
f 277 278 279
f 183 279 288
f 279 259 280
f 280 260 281
f 281 261 282
f 282 262 283
f 279 280 281
f 279 281 283
f 281 282 283
f 279 283 288
f 284 316 264
f 285 263 265
f 286 265 266
f 287 266 267
f 288 267 268
f 289 268 269
f 290 269 270
f 291 270 271
f 292 271 272
f 293 272 273
f 294 273 274
f 295 274 275
f 283 263 285
f 285 265 286
f 286 266 287
f 287 267 288
f 288 268 289
f 283 285 286
f 283 286 288
f 286 287 288
f 288 289 290
f 289 269 290
f 290 270 291
f 291 271 292
f 292 272 293
f 293 273 294
f 294 274 295
f 288 290 293
f 290 291 292
f 290 292 293
f 288 293 296
f 293 294 295
f 288 327 284
f 288 296 328
f 288 328 327
f 293 295 296
f 296 276 330
f 296 298 276
f 299 275 297
f 295 275 299
f 295 300 296
f 296 300 298
f 295 299 300
f 300 297 298
f 299 297 300
f 319 301 302
f 303 322 304
f 325 305 306
f 334 307 308
f 341 309 479
f 371 315 314
f 319 302 320
f 303 321 322
f 325 306 326
f 328 321 317
f 284 327 316
f 329 318 319
f 329 319 320
f 347 322 321
f 329 320 345
f 328 347 321
f 330 276 323
f 331 324 325
f 296 330 328
f 328 330 331
f 354 325 326
f 328 331 347
f 331 325 354
f 331 354 347
f 346 334 308
f 346 308 335
f 345 320 332
f 346 333 334
f 346 338 333
f 348 332 337
f 347 336 322
f 349 337 338
f 345 332 348
f 345 349 346
f 346 335 350
f 346 349 338
f 348 337 349
f 345 348 349
f 350 335 339
f 351 343 340
f 351 340 341
f 352 339 342
f 353 342 343
f 350 339 352
f 351 353 343
f 350 353 351
f 351 341 485
f 352 342 353
f 350 352 353
f 347 344 336
f 354 326 344
f 347 354 344
f 331 356 324
f 357 323 355
f 330 323 357
f 330 358 331
f 330 357 358
f 331 358 356
f 358 355 356
f 357 355 358
f 395 311 310
f 395 312 311
f 396 313 312
f 397 314 313
f 395 310 368
f 398 371 314
f 384 370 359
f 385 359 360
f 386 360 361
f 387 361 362
f 402 362 375
f 388 364 363
f 390 363 365
f 391 367 366
f 389 366 364
f 392 369 367
f 393 368 369
f 394 365 370
f 398 372 371
f 395 396 312
f 396 397 313
f 397 398 314
f 399 373 372
f 400 374 373
f 401 379 374
f 403 375 376
f 404 376 377
f 405 377 378
f 847 378 821
f 385 384 359
f 385 360 386
f 386 361 387
f 387 362 402
f 390 384 386
f 385 386 384
f 390 386 404
f 386 387 402
f 388 389 364
f 390 365 394
f 390 388 363
f 389 391 366
f 391 392 367
f 392 393 369
f 393 395 368
f 384 394 370
f 398 399 372
f 399 400 373
f 400 401 374
f 390 392 389
f 390 389 388
f 389 392 391
f 392 395 393
f 390 397 392
f 390 394 384
f 392 397 395
f 395 397 396
f 397 399 398
f 397 401 399
f 390 404 397
f 399 401 400
f 397 409 401
f 402 375 403
f 403 376 404
f 404 377 405
f 405 378 847
f 386 402 404
f 402 403 404
f 404 405 847
f 406 380 379
f 407 381 380
f 408 382 381
f 409 383 382
f 410 828 383
f 401 406 379
f 401 407 406
f 406 407 380
f 407 408 381
f 408 409 382
f 409 410 383
f 401 409 407
f 407 409 408
f 397 860 409
f 409 854 410
f 193 470 467
f 203 475 469
f 472 470 218
f 472 471 470
f 472 474 471
f 241 468 473
f 477 241 473
f 477 473 474
f 472 477 474
f 478 475 248
f 478 476 475
f 478 484 476
f 478 485 484
f 480 481 486
f 482 968 490
f 341 479 483
f 485 341 483
f 485 483 484
f 494 486 481
f 494 481 488
f 998 490 968
f 493 488 487
f 494 489 486
f 998 487 490
f 494 987 489
f 493 494 488
f 493 487 998
f 493 998 494
f 494 998 999
f 494 999 987
f 495 492 491
f 496 991 492
f 1002 491 990
f 495 496 492
f 495 491 1002
f 496 1003 991
f 495 1003 496
f 495 1002 1003
f 848 821 822
f 849 822 823
f 850 823 824
f 851 824 825
f 852 825 826
f 853 826 827
f 847 821 848
f 848 822 849
f 849 823 850
f 850 824 851
f 404 847 849
f 847 848 849
f 404 849 853
f 404 902 397
f 849 850 851
f 851 825 852
f 852 826 853
f 853 827 861
f 849 851 853
f 851 852 853
f 404 853 902
f 854 829 828
f 855 830 829
f 856 831 830
f 857 832 831
f 858 833 832
f 859 834 833
f 410 854 828
f 854 855 829
f 855 856 830
f 856 857 831
f 409 856 854
f 854 856 855
f 409 860 856
f 856 858 857
f 857 858 832
f 858 859 833
f 859 860 834
f 856 860 858
f 858 860 859
f 861 827 835
f 862 835 836
f 863 836 837
f 864 837 838
f 865 838 839
f 866 839 840
f 861 835 862
f 862 836 863
f 863 837 864
f 853 861 862
f 853 862 864
f 862 863 864
f 864 838 865
f 865 839 866
f 866 840 901
f 853 864 902
f 864 865 866
f 864 866 902
f 902 926 397
f 860 841 834
f 867 842 841
f 868 843 842
f 869 844 843
f 870 845 844
f 871 846 845
f 860 867 841
f 867 868 842
f 868 869 843
f 397 926 860
f 860 868 867
f 860 870 868
f 868 870 869
f 869 870 844
f 870 871 845
f 871 872 846
f 860 908 870
f 870 872 871
f 870 908 872
f 820 900 1011
f 901 840 873
f 902 873 874
f 903 874 875
f 904 875 876
f 905 876 877
f 906 877 878
f 913 878 885
f 901 873 902
f 902 874 903
f 903 875 904
f 866 901 902
f 902 903 904
f 904 876 905
f 905 877 906
f 906 878 913
f 902 904 906
f 904 905 906
f 902 906 916
f 872 879 846
f 907 880 879
f 908 881 880
f 909 882 881
f 910 883 882
f 911 884 883
f 912 896 884
f 872 907 879
f 907 908 880
f 908 909 881
f 872 908 907
f 860 926 908
f 908 910 909
f 909 910 882
f 910 911 883
f 911 912 884
f 908 912 910
f 910 912 911
f 908 926 912
f 914 885 886
f 915 886 887
f 916 887 888
f 917 888 889
f 918 889 890
f 919 890 891
f 920 891 892
f 921 892 893
f 922 893 894
f 943 894 895
f 913 885 914
f 914 886 915
f 915 887 916
f 906 913 914
f 906 914 916
f 914 915 916
f 916 888 917
f 902 916 926
f 917 889 918
f 918 890 919
f 919 891 920
f 920 892 921
f 921 893 922
f 922 894 943
f 916 917 918
f 916 918 920
f 918 919 920
f 920 921 922
f 920 922 944
f 923 897 896
f 924 898 897
f 925 899 898
f 926 900 899
f 926 1011 900
f 912 923 896
f 924 897 923
f 924 925 898
f 925 926 899
f 912 924 923
f 912 926 924
f 924 926 925
f 916 920 1087
f 819 927 895
f 940 932 1043
f 941 934 933
f 949 938 1053
f 944 927 928
f 945 928 929
f 946 929 930
f 946 930 931
f 943 895 927
f 946 931 939
f 950 933 936
f 947 941 933
f 935 942 1072
f 943 927 944
f 944 928 945
f 945 929 946
f 922 943 944
f 946 939 940
f 946 940 1069
f 920 944 1087
f 944 945 1087
f 945 946 1087
f 947 933 950
f 947 942 941
f 947 1072 942
f 950 936 937
f 950 937 948
f 950 948 949
f 950 949 1097
f 969 970 988
f 971 994 972
f 820 1011 973
f 974 1013 975
f 976 977 1015
f 984 980 981
f 983 998 980
f 983 980 984
f 983 984 998
f 984 981 1000
f 985 994 982
f 998 968 967
f 998 967 986
f 1000 988 970
f 1006 970 972
f 1006 972 994
f 998 986 980
f 1000 981 988
f 999 1002 987
f 998 1001 999
f 999 1001 1002
f 998 984 1000
f 998 1000 1007
f 1001 989 1004
f 998 1007 1001
f 1002 990 987
f 1003 1035 991
f 1004 989 992
f 1002 1005 1003
f 1003 1005 1038
f 1001 1004 1002
f 1002 1004 1009
f 1002 1009 1005
f 1005 993 1039
f 1000 970 1006
f 1001 995 989
f 1007 996 995
f 1001 1007 995
f 985 1006 994
f 1000 1006 1027
f 1000 1027 1007
f 1008 992 996
f 1005 997 993
f 1009 1037 997
f 1004 992 1008
f 1004 1008 1009
f 1005 1009 997
f 1007 1008 996
f 1012 1013 974
f 1014 982 1010
f 985 982 1014
f 985 1014 1006
f 1014 1010 1026
f 926 1012 1011
f 926 1013 1012
f 926 1030 1013
f 916 1087 926
f 1030 1021 1013
f 926 1087 1030
f 1016 1015 977
f 1030 979 978
f 1030 1050 979
f 1030 978 1021
f 1026 1010 1015
f 1026 1015 1016
f 1026 1016 1017
f 1027 1022 1018
f 1014 1026 1006
f 1007 1027 1008
f 1006 1026 1027
f 1026 1017 1032
f 1027 1018 1028
f 1027 1031 1022
f 1026 1031 1027
f 1026 1032 1031
f 1028 1018 1019
f 1029 1025 1020
f 1027 1009 1008
f 1027 1028 1009
f 1009 1029 1040
f 1009 1028 1029
f 1028 1019 1033
f 1028 1033 1034
f 1029 1020 1042
f 1029 1034 1025
f 1028 1034 1029
f 1032 1017 1023
f 1031 1023 1022
f 1030 1087 1050
f 1032 1023 1031
f 1033 1019 1024
f 1034 1024 1025
f 1033 1024 1034
f 1038 1036 1035
f 1039 993 1036
f 1003 1038 1035
f 1038 1039 1036
f 1038 1005 1039
f 1009 1040 1037
f 1040 1041 1037
f 1042 1020 1041
f 1040 1042 1041
f 1040 1029 1042
f 1070 1044 1045
f 935 1072 1046
f 1047 1074 1048
f 1049 1050 1075
f 1051 1077 1052
f 1098 1054 1055
f 1100 1056 1057
f 1058 1059 1105
f 1043 1069 940
f 1045 1071 1070
f 1073 1074 1047
f 946 1069 1070
f 946 1070 1087
f 1087 1070 1071
f 1087 1071 1075
f 947 1073 1072
f 947 1088 1073
f 947 950 1119
f 1088 1074 1073
f 947 1089 1088
f 947 1090 1089
f 947 1119 1090
f 1087 1075 1050
f 1051 1076 1077
f 1088 1076 1074
f 1088 1077 1076
f 1088 1078 1077
f 1088 1079 1078
f 1089 1080 1079
f 1088 1089 1079
f 1089 1090 1080
f 1090 1081 1080
f 1091 1082 1081
f 1092 1083 1082
f 1093 1084 1083
f 1094 1085 1084
f 1095 1086 1085
f 1090 1091 1081
f 1091 1092 1082
f 1092 1093 1083
f 1093 1094 1084
f 1094 1095 1085
f 1095 1096 1086
f 1090 1092 1091
f 1090 1094 1092
f 1092 1094 1093
f 1090 1127 1094
f 1094 1096 1095
f 1094 1127 1096
f 1053 1097 949
f 1055 1099 1098
f 950 1097 1098
f 950 1098 1119
f 1119 1098 1099
f 1101 1100 1057
f 1123 1059 1060
f 1124 1060 1061
f 1125 1061 1062
f 1122 1105 1059
f 1133 1062 1063
f 1134 1063 1064
f 1135 1064 1065
f 1136 1065 1066
f 1137 1066 1067
f 1138 1067 1068
f 1119 1099 1100
f 1119 1100 1101
f 1119 1101 1102
f 1120 1102 1103
f 1121 1103 1104
f 1122 1104 1105
f 1122 1059 1123
f 1123 1060 1124
f 1124 1061 1125
f 1119 1102 1120
f 1120 1103 1121
f 1121 1104 1122
f 1119 1120 1121
f 1119 1121 1123
f 1119 1134 1090
f 1134 1127 1090
f 1121 1122 1123
f 1119 1123 1134
f 1123 1124 1125
f 1123 1125 1134
f 1096 1106 1086
f 1126 1107 1106
f 1127 1108 1107
f 1128 1109 1108
f 1129 1110 1109
f 1130 1111 1110
f 1131 1112 1111
f 1132 1113 1112
f 1096 1126 1106
f 1126 1127 1107
f 1127 1128 1108
f 1128 1129 1109
f 1096 1127 1126
f 1127 1129 1128
f 1127 1131 1129
f 1129 1130 1110
f 1130 1131 1111
f 1131 1132 1112
f 1132 1139 1113
f 1129 1131 1130
f 1127 1141 1131
f 1131 1139 1132
f 1125 1062 1133
f 1133 1063 1134
f 1134 1064 1135
f 1135 1065 1136
f 1136 1066 1137
f 1137 1067 1138
f 1125 1133 1134
f 1134 1135 1136
f 1134 1136 1138
f 1136 1137 1138
f 1134 1138 1256
f 1139 1114 1113
f 1140 1115 1114
f 1141 1116 1115
f 1142 1117 1116
f 1143 1118 1117
f 1144 1232 1118
f 1139 1140 1114
f 1140 1141 1115
f 1141 1142 1116
f 1131 1141 1139
f 1139 1141 1140
f 1127 1263 1141
f 1142 1143 1117
f 1141 1143 1142
f 1141 1259 1143
f 1143 1144 1118
f 1144 1259 1232
f 1143 1259 1144
f 1227 1225 1226
f 1253 1068 1224
f 1254 1224 1225
f 1254 1225 1227
f 1138 1068 1253
f 1253 1224 1254
f 1255 1227 1228
f 1256 1228 1229
f 1257 1229 1230
f 1258 1230 1231
f 1254 1227 1255
f 1138 1253 1254
f 1138 1254 1256
f 1254 1255 1256
f 1134 1318 1127
f 1255 1228 1256
f 1256 1229 1257
f 1257 1230 1258
f 1256 1257 1258
f 1134 1256 1270
f 1256 1258 1266
f 1259 1233 1232
f 1260 1234 1233
f 1261 1235 1234
f 1262 1236 1235
f 1263 1237 1236
f 1264 1246 1237
f 1127 1318 1263
f 1259 1260 1233
f 1260 1261 1234
f 1261 1262 1235
f 1141 1263 1259
f 1259 1261 1260
f 1259 1263 1261
f 1262 1263 1236
f 1263 1264 1237
f 1264 1273 1246
f 1261 1263 1262
f 1263 1273 1264
f 1265 1231 1238
f 1266 1238 1239
f 1267 1239 1240
f 1268 1240 1241
f 1269 1241 1242
f 1270 1242 1243
f 1271 1243 1244
f 1301 1244 1280
f 1258 1231 1265
f 1265 1238 1266
f 1266 1239 1267
f 1267 1240 1268
f 1258 1265 1266
f 1256 1266 1270
f 1134 1270 1318
f 1266 1267 1268
f 1268 1241 1269
f 1269 1242 1270
f 1270 1243 1271
f 1271 1244 1301
f 1266 1268 1270
f 1268 1269 1270
f 1270 1271 1301
f 1273 1247 1246
f 1274 1248 1247
f 1275 1245 1248
f 1272 1249 1245
f 1276 1250 1249
f 1277 1251 1250
f 1278 1252 1251
f 1279 1288 1252
f 1275 1272 1245
f 1263 1278 1275
f 1275 1276 1272
f 1273 1274 1247
f 1274 1275 1248
f 1263 1275 1273
f 1273 1275 1274
f 1272 1276 1249
f 1276 1277 1250
f 1277 1278 1251
f 1278 1279 1252
f 1275 1278 1276
f 1263 1318 1278
f 1276 1278 1277
f 1309 1279 1278
f 1302 1280 1281
f 1303 1281 1282
f 1304 1282 1283
f 1305 1283 1284
f 1306 1284 1285
f 1307 1285 1286
f 1308 1286 1287
f 1301 1280 1302
f 1302 1281 1303
f 1303 1282 1304
f 1304 1283 1305
f 1305 1284 1306
f 1306 1285 1307
f 1307 1286 1308
f 1270 1301 1303
f 1301 1302 1303
f 1270 1303 1307
f 1303 1304 1305
f 1270 1307 1318
f 1303 1305 1307
f 1305 1306 1307
f 1308 1287 1315
f 1307 1308 1315
f 1309 1289 1288
f 1310 1290 1289
f 1311 1291 1290
f 1312 1292 1291
f 1313 1293 1292
f 1314 1297 1293
f 1315 1287 1294
f 1316 1294 1295
f 1317 1295 1296
f 1320 1296 1299
f 1319 1300 1298
f 1318 1298 1297
f 1321 1299 1300
f 1309 1288 1279
f 1310 1311 1290
f 1309 1310 1289
f 1318 1297 1314
f 1312 1291 1311
f 1312 1313 1292
f 1313 1314 1293
f 1309 1278 1311
f 1318 1311 1278
f 1309 1311 1310
f 1312 1311 1313
f 1318 1313 1311
f 1318 1314 1313
f 1315 1294 1316
f 1316 1295 1317
f 1317 1296 1320
f 1321 1300 1319
f 1319 1298 1318
f 1320 1299 1321
f 1307 1315 1317
f 1307 1317 1318
f 1315 1316 1317
f 1317 1321 1318
f 1321 1319 1318
f 1317 1320 1321

