# https://github.com/mikedh/trimesh
v 0.60000002 0.60000002 0.00000000
v 0.00000000 0.60000002 0.60000002
v 0.60000002 0.00000000 0.60000002
v 0.00000000 0.60000002 4.40000010
v 0.60000002 0.00000000 4.40000010
v 0.60000002 0.60000002 5.00000000
v 2.02500010 25.63999939 5.00000000
v 2.47499990 25.63999939 5.00000000
v 2.02500010 25.63999939 5.50000000
v 2.47499990 25.63999939 5.50000000
v 0.19999985 29.62500000 4.59999990
v 0.19999985 29.97500038 4.59999990
v 0.19999985 32.22499847 4.59999990
v 0.19999985 32.57500076 4.59999990
v 0.19999985 34.82500076 4.59999990
v 2.02500010 29.62500000 4.59999990
v 2.02500010 29.97500038 4.59999990
v 2.47499990 29.70645332 4.59999990
v 2.47499990 29.97500038 4.59999990
v 0.60000002 29.62500000 5.00000000
v 0.60000002 29.97500038 5.00000000
v 0.60000002 32.22499847 5.00000000
v 0.60000002 32.57500076 5.00000000
v 0.60000002 34.82500076 5.00000000
v 1.68469799 26.98740196 5.00000000
v 1.56774771 27.53760910 5.00000000
v 1.68469799 28.96340179 5.00000000
v 1.56774771 29.51361084 5.00000000
v 2.02500010 27.05973625 5.00000000
v 2.02500010 27.63480186 5.00000000
v 2.47499990 27.15538597 5.00000000
v 2.47499990 27.73045158 5.00000000
v 2.02500010 29.03573608 5.00000000
v 2.02500010 29.62500000 5.00000000
v 2.02500010 29.61080170 5.00000000
v 2.02500010 29.97500038 5.00000000
v 2.47499990 29.13138580 5.00000000
v 2.47499990 29.97500038 5.00000000
v 1.68469799 26.98740196 5.50000000
v 1.56774771 27.53760910 5.50000000
v 1.68469799 28.96340179 5.50000000
v 1.56774771 29.51361084 5.50000000
v 2.02500010 27.05973625 5.50000000
v 2.02500010 27.63480186 5.50000000
v 2.47499990 27.15538597 5.50000000
v 2.47499990 27.73045158 5.50000000
v 2.02500010 29.03573608 5.50000000
v 2.02500010 29.61080170 5.50000000
v 2.47499990 29.13138580 5.50000000
v 2.47499990 29.70645332 5.50000000
v 2.02500010 31.36000061 5.00000000
v 2.47499990 31.36000061 5.00000000
v 2.02500010 31.36000061 5.50000000
v 2.47499990 31.36000061 5.50000000
v 3.12500000 25.63999939 5.00000000
v 3.57500005 25.63999939 5.00000000
v 3.12500000 25.63999939 5.50000000
v 3.57500005 25.63999939 5.50000000
v 3.12500000 29.84461403 4.59999990
v 3.12500000 29.97500038 4.59999990
v 3.57500005 29.94026375 4.59999990
v 3.57500005 29.97500038 4.59999990
v 3.73842120 29.97500038 4.59999990
v 3.92329359 29.97500038 4.59999990
v 3.99768853 29.62500000 4.59999990
v 3.12500000 27.29354668 5.00000000
v 3.12500000 27.86861420 5.00000000
v 3.57500005 27.38919830 5.00000000
v 3.57500005 27.96426392 5.00000000
v 3.12500000 29.26954842 5.00000000
v 3.12500000 29.97500038 5.00000000
v 3.57500005 29.36519814 5.00000000
v 3.57500005 29.97500038 5.00000000
v 3.73842120 29.97500038 5.00000000
v 3.12500000 27.29354668 5.50000000
v 3.12500000 27.86861420 5.50000000
v 3.57500005 27.38919830 5.50000000
v 3.57500005 27.96426392 5.50000000
v 3.12500000 29.26954842 5.50000000
v 3.12500000 29.84461403 5.50000000
v 3.57500005 29.36519814 5.50000000
v 3.57500005 29.94026375 5.50000000
v 3.12500000 31.36000061 5.00000000
v 3.57500005 31.36000061 5.00000000
v 3.12500000 31.36000061 5.50000000
v 3.57500005 31.36000061 5.50000000
v 4.03225231 27.48638916 5.00000000
v 3.91530204 28.03659821 5.00000000
v 4.03225231 29.46239090 5.00000000
v 3.92329359 29.97500038 5.00000000
v 3.91530204 30.01259804 5.00000000
v 3.99768853 29.62500000 5.00000000
v 4.03225231 27.48638916 5.50000000
v 3.91530204 28.03659821 5.50000000
v 4.03225231 29.46239090 5.50000000
v 3.91530204 30.01259804 5.50000000
v 6.02500010 34.82500076 4.59999990
v 6.71739340 29.62500000 4.59999990
v 6.81176519 29.65220833 4.59999990
v 6.91693878 29.67736435 4.59999990
v 7.02246857 29.69747734 4.59999990
v 7.12790155 29.71246338 4.59999990
v 7.23278713 29.72225761 4.59999990
v 7.33667612 29.72681808 4.59999990
v 7.43912315 29.72612381 4.59999990
v 6.47499990 34.82500076 4.59999990
v 7.12500000 34.82500076 4.59999990
v 5.46558046 27.86098862 5.00000000
v 5.38919592 28.15392113 5.00000000
v 5.38721228 28.23166466 5.00000000
v 5.41381836 28.00320435 5.00000000
v 5.39807701 28.07765770 5.00000000
v 5.43635130 27.93087769 5.00000000
v 5.39213514 28.31055832 5.00000000
v 5.40394258 28.39026260 5.00000000
v 5.50137997 27.79383659 5.00000000
v 5.54359722 27.72970772 5.00000000
v 5.59205055 27.66887665 5.00000000
v 5.42258501 28.47043800 5.00000000
v 5.44798183 28.55073929 5.00000000
v 5.48002481 28.63082314 5.00000000
v 5.51857662 28.71034622 5.00000000
v 5.56347227 28.78896904 5.00000000
v 5.61451912 28.86635399 5.00000000
v 5.64653349 27.61160469 5.00000000
v 5.70681143 27.55813789 5.00000000
v 5.77262735 27.50870323 5.00000000
v 5.84369946 27.46351433 5.00000000
v 5.91972256 27.42276382 5.00000000
v 6.17414808 27.32878685 5.00000000
v 6.00037146 27.38662529 5.00000000
v 6.08530140 27.35525513 5.00000000
v 5.67149878 28.94217110 5.00000000
v 5.73416758 29.01609421 5.00000000
v 5.80225658 29.08780670 5.00000000
v 5.87547445 29.15700340 5.00000000
v 5.95350790 29.22338676 5.00000000
v 6.03602266 29.28667068 5.00000000
v 6.12266493 29.34658813 5.00000000
v 6.21306419 29.40287781 5.00000000
v 5.46558046 27.86098862 5.50000000
v 5.38919592 28.15392113 5.50000000
v 5.38721228 28.23166466 5.50000000
v 5.41381836 28.00320435 5.50000000
v 5.39807701 28.07765770 5.50000000
v 5.43635130 27.93087769 5.50000000
v 5.39213514 28.31055832 5.50000000
v 5.40394258 28.39026260 5.50000000
v 5.50137997 27.79383659 5.50000000
v 5.54359722 27.72970772 5.50000000
v 5.59205055 27.66887665 5.50000000
v 5.42258501 28.47043800 5.50000000
v 5.44798183 28.55073929 5.50000000
v 5.48002481 28.63082314 5.50000000
v 5.51857662 28.71034622 5.50000000
v 5.56347227 28.78896904 5.50000000
v 5.61451912 28.86635399 5.50000000
v 5.64653349 27.61160469 5.50000000
v 5.70681143 27.55813789 5.50000000
v 5.77262735 27.50870323 5.50000000
v 5.84369946 27.46351433 5.50000000
v 5.91972256 27.42276382 5.50000000
v 6.17414808 27.32878685 5.50000000
v 6.00037146 27.38662529 5.50000000
v 6.08530140 27.35525513 5.50000000
v 5.67149878 28.94217110 5.50000000
v 5.73416758 29.01609421 5.50000000
v 5.80225658 29.08780670 5.50000000
v 5.87547445 29.15700340 5.50000000
v 5.95350790 29.22338676 5.50000000
v 6.03602266 29.28667068 5.50000000
v 6.12266493 29.34658813 5.50000000
v 6.21306419 29.40287781 5.50000000
v 6.02500010 34.74000168 5.00000000
v 6.02500010 34.82500076 5.00000000
v 6.02500010 34.74000168 5.50000000
v 6.26653099 27.30733299 5.00000000
v 6.36205482 27.29098701 5.00000000
v 6.46031046 27.27981949 5.00000000
v 6.56087685 27.27387619 5.00000000
v 6.66332388 27.27318192 5.00000000
v 6.76721287 27.27774239 5.00000000
v 6.87209845 27.28753662 5.00000000
v 6.30683374 29.45530319 5.00000000
v 6.40357113 29.50363731 5.00000000
v 6.50286245 29.54767418 5.00000000
v 6.60428286 29.58722496 5.00000000
v 6.71739340 29.62500000 5.00000000
v 6.70739746 29.62211800 5.00000000
v 6.97753143 27.30252266 5.00000000
v 7.08306122 27.32263565 5.00000000
v 7.18823481 27.34779167 5.00000000
v 7.29260254 27.37788200 5.00000000
v 7.39571714 27.41277504 5.00000000
v 7.49713755 27.45232582 5.00000000
v 6.26653099 27.30733299 5.50000000
v 6.36205482 27.29098701 5.50000000
v 6.46031046 27.27981949 5.50000000
v 6.56087685 27.27387619 5.50000000
v 6.66332388 27.27318192 5.50000000
v 6.76721287 27.27774239 5.50000000
v 6.87209845 27.28753662 5.50000000
v 6.30683374 29.45530319 5.50000000
v 6.40357113 29.50363731 5.50000000
v 6.50286245 29.54767418 5.50000000
v 6.60428286 29.58722496 5.50000000
v 6.70739746 29.62211800 5.50000000
v 6.81176519 29.65220833 5.50000000
v 6.97753143 27.30252266 5.50000000
v 7.08306122 27.32263565 5.50000000
v 7.18823481 27.34779167 5.50000000
v 7.29260254 27.37788200 5.50000000
v 7.39571714 27.41277504 5.50000000
v 7.49713755 27.45232582 5.50000000
v 6.91693878 29.67736435 5.50000000
v 7.02246857 29.69747734 5.50000000
v 7.12790155 29.71246338 5.50000000
v 7.23278713 29.72225761 5.50000000
v 7.33667612 29.72681808 5.50000000
v 7.43912315 29.72612381 5.50000000
v 6.47499990 34.74000168 5.00000000
v 6.47499990 34.82500076 5.00000000
v 7.12500000 34.74000168 5.00000000
v 7.12500000 34.82500076 5.00000000
v 6.47499990 34.74000168 5.50000000
v 7.12500000 34.74000168 5.50000000
v 7.53968954 29.72018051 4.59999990
v 7.63794518 29.70901299 4.59999990
v 7.73346901 29.69266701 4.59999990
v 7.82585192 29.67121315 4.59999990
v 7.91469860 29.64474487 4.59999990
v 7.96815491 29.62500000 4.59999990
v 8.11294460 29.62500000 4.59999990
v 8.11294460 29.97500038 4.59999990
v 8.61294460 29.62500000 4.59999990
v 8.61294460 29.97500038 4.59999990
v 8.11294460 32.22499847 4.59999990
v 8.11294460 32.57500076 4.59999990
v 7.57499981 34.82500076 4.59999990
v 8.11294460 34.82500076 4.59999990
v 8.61294460 32.22499847 4.59999990
v 8.61294460 32.57500076 4.59999990
v 8.61294460 34.82500076 4.59999990
v 9.38705540 29.62500000 4.59999990
v 9.38705540 29.97500038 4.59999990
v 9.88705540 29.62500000 4.59999990
v 9.88705540 29.97500038 4.59999990
v 9.38705540 32.22499847 4.59999990
v 9.38705540 32.57500076 4.59999990
v 9.88705540 32.22499847 4.59999990
v 9.88705540 32.57500076 4.59999990
v 9.38705540 34.82500076 4.59999990
v 9.88705540 34.82500076 4.59999990
v 7.59642887 27.49636269 5.00000000
v 7.69316626 27.54469681 5.00000000
v 7.78693581 27.59712219 5.00000000
v 7.87733507 27.65341187 5.00000000
v 7.96397734 27.71332932 5.00000000
v 8.04649258 27.77661324 5.00000000
v 8.12452507 27.84299660 5.00000000
v 7.96815491 29.62500000 5.00000000
v 7.99962854 29.61337471 5.00000000
v 8.08027744 29.57723618 5.00000000
v 8.11294460 29.55972672 5.00000000
v 8.11294460 29.62500000 5.00000000
v 8.11294460 29.97500038 5.00000000
v 8.19774342 27.91219330 5.00000000
v 8.26583290 27.98390579 5.00000000
v 8.32850075 28.05782890 5.00000000
v 8.38548088 28.13364601 5.00000000
v 8.43652821 28.21103096 5.00000000
v 8.48142338 28.28965378 5.00000000
v 8.51997471 28.36917686 5.00000000
v 8.55201817 28.44926071 5.00000000
v 8.56806564 28.50000000 5.00000000
v 8.61294460 28.50000000 5.00000000
v 8.61294460 29.62500000 5.00000000
v 8.61294460 29.97500038 5.00000000
v 7.59642887 27.49636269 5.50000000
v 7.69316626 27.54469681 5.50000000
v 7.78693581 27.59712219 5.50000000
v 7.87733507 27.65341187 5.50000000
v 7.96397734 27.71332932 5.50000000
v 8.04649258 27.77661324 5.50000000
v 8.12452507 27.84299660 5.50000000
v 7.53968954 29.72018051 5.50000000
v 7.63794518 29.70901299 5.50000000
v 7.73346901 29.69266701 5.50000000
v 7.82585192 29.67121315 5.50000000
v 7.91469860 29.64474487 5.50000000
v 7.99962854 29.61337471 5.50000000
v 8.08027744 29.57723618 5.50000000
v 8.11294460 29.55972672 5.50000000
v 8.19774342 27.91219330 5.50000000
v 8.26583290 27.98390579 5.50000000
v 8.32850075 28.05782890 5.50000000
v 8.38548088 28.13364601 5.50000000
v 8.43652821 28.21103096 5.50000000
v 8.48142338 28.28965378 5.50000000
v 8.51997471 28.36917686 5.50000000
v 8.55201817 28.44926071 5.50000000
v 8.56806564 28.50000000 5.50000000
v 8.61294460 28.50000000 5.50000000
v 8.11294460 32.22499847 5.00000000
v 8.11294460 32.57500076 5.00000000
v 7.57499981 34.74000168 5.00000000
v 7.57499981 34.82500076 5.00000000
v 8.11294460 34.82500076 5.00000000
v 8.61294460 32.22499847 5.00000000
v 8.61294460 32.57500076 5.00000000
v 8.61294460 34.82500076 5.00000000
v 7.57499981 34.74000168 5.50000000
v 9.38705540 28.50000000 5.00000000
v 9.38705540 29.62500000 5.00000000
v 9.38705540 29.97500038 5.00000000
v 9.88705540 28.50000000 5.00000000
v 9.88705540 29.62500000 5.00000000
v 9.88705540 29.97500038 5.00000000
v 9.38705540 28.50000000 5.50000000
v 9.88705540 28.50000000 5.50000000
v 9.38705540 32.22499847 5.00000000
v 9.38705540 32.57500076 5.00000000
v 9.88705540 32.22499847 5.00000000
v 9.88705540 32.57500076 5.00000000
v 9.38705540 34.82500076 5.00000000
v 9.88705540 34.82500076 5.00000000
v 0.60000002 69.40000153 0.00000000
v 0.00000000 69.40000153 0.60000002
v 0.60000002 70.00000000 0.60000002
v 0.19999985 35.17499924 4.59999990
v 0.19999985 37.42499924 4.59999990
v 0.19999985 37.77500153 4.59999990
v 0.19999985 40.02500153 4.59999990
v 0.19999985 40.37500000 4.59999990
v 0.60000002 35.17499924 5.00000000
v 0.60000002 37.42499924 5.00000000
v 0.60000002 37.77500153 5.00000000
v 0.60000002 40.02500153 5.00000000
v 0.60000002 40.37500000 5.00000000
v 0.00000000 69.40000153 4.40000010
v 0.60000002 70.00000000 4.40000010
v 0.60000002 69.40000153 5.00000000
v 4.54184532 56.50000000 4.59999990
v 4.54184532 56.50000000 5.00000000
v 4.54184532 65.50000000 4.59999990
v 4.54184532 65.50000000 5.00000000
v 6.02500010 35.17499924 4.59999990
v 6.02500010 37.42499924 4.59999990
v 6.02500010 37.77500153 4.59999990
v 6.02500010 40.02500153 4.59999990
v 6.02500010 40.37500000 4.59999990
v 6.47499990 35.17499924 4.59999990
v 6.47499990 37.42499924 4.59999990
v 6.47499990 37.77500153 4.59999990
v 7.12500000 35.17499924 4.59999990
v 7.12500000 37.42499924 4.59999990
v 7.12500000 37.77500153 4.59999990
v 6.47499990 40.02500153 4.59999990
v 6.47499990 40.37500000 4.59999990
v 7.12500000 40.02500153 4.59999990
v 7.12500000 40.37500000 4.59999990
v 5.56774759 36.63761139 5.00000000
v 5.56774759 38.61360931 5.00000000
v 5.68469810 36.08740234 5.00000000
v 6.02500010 35.17499924 5.00000000
v 6.02500010 36.15973663 5.00000000
v 6.02500010 36.73480225 5.00000000
v 5.68469810 38.06340027 5.00000000
v 6.02500010 37.42499924 5.00000000
v 6.02500010 37.77500153 5.00000000
v 6.02500010 38.13573456 5.00000000
v 6.02500010 38.71080017 5.00000000
v 5.56774759 36.63761139 5.50000000
v 5.56774759 38.61360931 5.50000000
v 5.68469810 36.08740234 5.50000000
v 6.02500010 36.15973663 5.50000000
v 6.02500010 36.73480225 5.50000000
v 5.68469810 38.06340027 5.50000000
v 6.02500010 38.13573456 5.50000000
v 6.02500010 38.71080017 5.50000000
v 6.02500010 40.02500153 5.00000000
v 6.02500010 40.37500000 5.00000000
v 6.02500010 40.45999908 5.00000000
v 6.02500010 40.45999908 5.50000000
v 6.47499990 35.17499924 5.00000000
v 6.47499990 36.25538635 5.00000000
v 6.47499990 36.83045197 5.00000000
v 6.47499990 37.42499924 5.00000000
v 6.47499990 37.77500153 5.00000000
v 6.47499990 38.23138428 5.00000000
v 6.47499990 38.80645370 5.00000000
v 7.12500000 35.17499924 5.00000000
v 7.12500000 36.39354706 5.00000000
v 7.12500000 36.96861267 5.00000000
v 7.12500000 37.42499924 5.00000000
v 7.12500000 37.77500153 5.00000000
v 7.12500000 38.36954880 5.00000000
v 7.12500000 38.94461441 5.00000000
v 6.47499990 36.25538635 5.50000000
v 6.47499990 36.83045197 5.50000000
v 6.47499990 38.23138428 5.50000000
v 6.47499990 38.80645370 5.50000000
v 7.12500000 36.39354706 5.50000000
v 7.12500000 36.96861267 5.50000000
v 7.12500000 38.36954880 5.50000000
v 7.12500000 38.94461441 5.50000000
v 6.47499990 40.02500153 5.00000000
v 6.47499990 40.37500000 5.00000000
v 6.47499990 40.45999908 5.00000000
v 7.12500000 40.02500153 5.00000000
v 7.12500000 40.37500000 5.00000000
v 7.12500000 40.45999908 5.00000000
v 6.47499990 40.45999908 5.50000000
v 7.12500000 40.45999908 5.50000000
v 7.57499981 35.17499924 4.59999990
v 8.11294460 35.17499924 4.59999990
v 7.57499981 37.42499924 4.59999990
v 7.57499981 37.77500153 4.59999990
v 8.61294460 35.17499924 4.59999990
v 7.57499981 40.02500153 4.59999990
v 7.57499981 40.37500000 4.59999990
v 9.38705540 35.17499924 4.59999990
v 9.88705540 35.17499924 4.59999990
v 9.38705540 37.42499924 4.59999990
v 9.38705540 37.59999847 4.59999990
v 9.43193436 37.59999847 4.59999990
v 9.44798183 37.65073776 4.59999990
v 9.48002529 37.73082352 4.59999990
v 9.50144291 37.77500153 4.59999990
v 7.57499981 35.17499924 5.00000000
v 7.57499981 36.48919678 5.00000000
v 7.57499981 37.06426620 5.00000000
v 8.11294460 35.17499924 5.00000000
v 7.91530180 37.13659668 5.00000000
v 8.03225231 36.58639145 5.00000000
v 8.11294460 36.20000076 5.00000000
v 7.57499981 37.42499924 5.00000000
v 7.57499981 37.77500153 5.00000000
v 7.57499981 38.46519852 5.00000000
v 7.57499981 39.04026413 5.00000000
v 7.91530180 39.11259842 5.00000000
v 8.03225231 38.56238937 5.00000000
v 8.61294460 35.17499924 5.00000000
v 8.61294460 36.20000076 5.00000000
v 7.57499981 36.48919678 5.50000000
v 7.57499981 37.06426620 5.50000000
v 7.91530180 37.13659668 5.50000000
v 8.03225231 36.58639145 5.50000000
v 8.11294460 36.20000076 5.50000000
v 7.57499981 38.46519852 5.50000000
v 7.57499981 39.04026413 5.50000000
v 7.91530180 39.11259842 5.50000000
v 8.03225231 38.56238937 5.50000000
v 8.61294460 36.20000076 5.50000000
v 7.57499981 40.02500153 5.00000000
v 7.57499981 40.37500000 5.00000000
v 7.57499981 40.45999908 5.00000000
v 8.53125000 40.37500000 5.00000000
v 7.57499981 40.45999908 5.50000000
v 9.38705540 35.17499924 5.00000000
v 9.38705540 36.37335587 5.00000000
v 9.88705540 35.17499924 5.00000000
v 9.88705540 36.54027176 5.00000000
v 9.91972256 36.52276230 5.00000000
v 9.38705540 37.42499924 5.00000000
v 9.50144291 37.77500153 5.00000000
v 9.51857662 37.81034470 5.00000000
v 9.56347179 37.88896942 5.00000000
v 9.61451912 37.96635437 5.00000000
v 9.67149925 38.04217148 5.00000000
v 9.73416710 38.11609268 5.00000000
v 9.80225658 38.18780518 5.00000000
v 9.87547493 38.25700378 5.00000000
v 9.95350742 38.32338715 5.00000000
v 9.88705540 36.54027176 5.50000000
v 9.91972256 36.52276230 5.50000000
v 9.38705540 37.59999847 5.50000000
v 9.43193436 37.59999847 5.50000000
v 9.44798183 37.65073776 5.50000000
v 9.48002529 37.73082352 5.50000000
v 9.51857662 37.81034470 5.50000000
v 9.56347179 37.88896942 5.50000000
v 9.61451912 37.96635437 5.50000000
v 9.67149925 38.04217148 5.50000000
v 9.73416710 38.11609268 5.50000000
v 9.80225658 38.18780518 5.50000000
v 9.87547493 38.25700378 5.50000000
v 9.95350742 38.32338715 5.50000000
v 9.68469810 45.18740082 5.00000000
v 9.56774807 45.73760986 5.00000000
v 9.68469810 47.16340256 5.00000000
v 9.56774807 47.71361160 5.00000000
v 9.68469810 45.18740082 5.50000000
v 9.56774807 45.73760986 5.50000000
v 9.68469810 47.16340256 5.50000000
v 9.56774807 47.71361160 5.50000000
v 5.19184494 56.50000000 4.59999990
v 5.84184504 56.52386093 4.59999990
v 5.84184504 56.50000000 4.59999990
v 6.02936029 56.53931046 4.59999990
v 6.23702097 56.56137466 4.59999990
v 5.84184504 57.82677078 4.59999990
v 5.85790062 57.82795334 4.59999990
v 6.02304792 57.84364319 4.59999990
v 6.18728638 57.86278534 4.59999990
v 6.44353819 56.58829117 4.59999990
v 6.64868689 56.62002945 4.59999990
v 6.85224295 56.65655899 4.59999990
v 7.05398273 56.69783783 4.59999990
v 7.25368690 56.74382401 4.59999990
v 7.45113611 56.79446030 4.59999990
v 6.35043573 57.88535309 4.59999990
v 6.51231909 57.91133118 4.59999990
v 6.67275763 57.94068527 4.59999990
v 6.83157730 57.97338486 4.59999990
v 6.98860407 58.00939560 4.59999990
v 7.14366579 58.04867172 4.59999990
v 7.29659367 58.09117889 4.59999990
v 7.44721985 58.13686752 4.59999990
v 5.84184504 56.50000000 5.00000000
v 5.84184504 56.52386093 5.00000000
v 6.02936029 56.53931046 5.00000000
v 6.23702097 56.56137466 5.00000000
v 5.84184504 57.82677078 5.00000000
v 5.85790062 57.82795334 5.00000000
v 6.02304792 57.84364319 5.00000000
v 6.18728638 57.86278534 5.00000000
v 6.44353819 56.58829117 5.00000000
v 6.64868689 56.62002945 5.00000000
v 6.85224295 56.65655899 5.00000000
v 7.05398273 56.69783783 5.00000000
v 7.25368690 56.74382401 5.00000000
v 7.45113611 56.79446030 5.00000000
v 6.35043573 57.88535309 5.00000000
v 6.51231909 57.91133118 5.00000000
v 6.67275763 57.94068527 5.00000000
v 6.83157730 57.97338486 5.00000000
v 6.98860407 58.00939560 5.00000000
v 7.14366579 58.04867172 5.00000000
v 7.29659367 58.09117889 5.00000000
v 7.44721985 58.13686752 5.00000000
v 5.19184494 65.50000000 4.59999990
v 5.84184504 64.17322540 4.59999990
v 5.85790062 64.17204285 4.59999990
v 5.84184504 65.47613525 4.59999990
v 5.84184504 65.50000000 4.59999990
v 6.02304792 64.15635681 4.59999990
v 6.18728638 64.13721466 4.59999990
v 6.02936029 65.46068573 4.59999990
v 6.23702097 65.43862915 4.59999990
v 6.35043573 64.11464691 4.59999990
v 6.51231909 64.08866882 4.59999990
v 6.44353819 65.41171265 4.59999990
v 6.67275763 64.05931091 4.59999990
v 6.83157730 64.02661896 4.59999990
v 6.64868689 65.37996674 4.59999990
v 6.85224295 65.34343719 4.59999990
v 6.98860407 63.99060440 4.59999990
v 7.14366579 63.95132828 4.59999990
v 7.05398273 65.30216217 4.59999990
v 7.29659367 63.90882111 4.59999990
v 7.44721985 63.86313248 4.59999990
v 7.25368690 65.25617981 4.59999990
v 7.45113611 65.20554352 4.59999990
v 5.84184504 64.17322540 5.00000000
v 5.85790062 64.17204285 5.00000000
v 5.84184504 65.47613525 5.00000000
v 5.84184504 65.50000000 5.00000000
v 6.02304792 64.15635681 5.00000000
v 6.18728638 64.13721466 5.00000000
v 6.02936029 65.46068573 5.00000000
v 6.23702097 65.43862915 5.00000000
v 6.35043573 64.11464691 5.00000000
v 6.51231909 64.08866882 5.00000000
v 6.44353819 65.41171265 5.00000000
v 6.67275763 64.05931091 5.00000000
v 6.83157730 64.02661896 5.00000000
v 6.64868689 65.37996674 5.00000000
v 6.85224295 65.34343719 5.00000000
v 6.98860407 63.99060440 5.00000000
v 7.14366579 63.95132828 5.00000000
v 7.05398273 65.30216217 5.00000000
v 7.29659367 63.90882111 5.00000000
v 7.44721985 63.86313248 5.00000000
v 7.25368690 65.25617981 5.00000000
v 7.45113611 65.20554352 5.00000000
v 7.64611483 56.84969711 4.59999990
v 7.59537935 58.18568420 4.59999990
v 7.74091101 58.23757935 4.59999990
v 7.83840990 56.90946960 4.59999990
v 8.02781105 56.97371674 4.59999990
v 7.88365555 58.29249573 4.59999990
v 8.02345657 58.35037231 4.59999990
v 8.21411133 57.04236984 4.59999990
v 8.39710617 57.11534500 4.59999990
v 8.16016102 58.41114426 4.59999990
v 8.29361916 58.47475052 4.59999990
v 8.42368603 58.54111481 4.59999990
v 8.57659626 57.19256973 4.59999990
v 8.55021954 58.61017227 4.59999990
v 8.67307949 58.68183899 4.59999990
v 8.75238609 57.27396011 4.59999990
v 8.92428112 57.35942459 4.59999990
v 8.79213428 58.75604248 4.59999990
v 8.90725136 58.83269882 4.59999990
v 9.01830482 58.91172409 4.59999990
v 9.09209633 57.44886780 4.59999990
v 9.25564575 57.54219437 4.59999990
v 9.12517548 58.99303436 4.59999990
v 9.22774410 59.07654190 4.59999990
v 9.32590008 59.16214752 4.59999990
v 9.41475105 57.63930511 4.59999990
v 9.56923962 57.74008560 4.59999990
v 9.71894073 57.84443283 4.59999990
v 9.86369228 57.95223236 4.59999990
v 9.41953564 59.24976730 4.59999990
v 9.50854874 59.33929825 4.59999990
v 9.59284019 59.43064499 4.59999990
v 9.67232037 59.52370834 4.59999990
v 9.74690056 59.61838531 4.59999990
v 9.81650066 59.71457291 4.59999990
v 9.88104343 59.81216812 4.59999990
v 9.94045830 59.91106033 4.59999990
v 9.99468040 60.01114655 4.59999990
v 7.64611483 56.84969711 5.00000000
v 7.59537935 58.18568420 5.00000000
v 7.74091101 58.23757935 5.00000000
v 7.83840990 56.90946960 5.00000000
v 8.02781105 56.97371674 5.00000000
v 7.88365555 58.29249573 5.00000000
v 8.02345657 58.35037231 5.00000000
v 8.21411133 57.04236984 5.00000000
v 8.39710617 57.11534500 5.00000000
v 8.16016102 58.41114426 5.00000000
v 8.29361916 58.47475052 5.00000000
v 8.42368603 58.54111481 5.00000000
v 8.57659626 57.19256973 5.00000000
v 8.55021954 58.61017227 5.00000000
v 8.67307949 58.68183899 5.00000000
v 8.75238609 57.27396011 5.00000000
v 8.92428112 57.35942459 5.00000000
v 8.79213428 58.75604248 5.00000000
v 8.90725136 58.83269882 5.00000000
v 9.01830482 58.91172409 5.00000000
v 9.09209633 57.44886780 5.00000000
v 9.25564575 57.54219437 5.00000000
v 9.12517548 58.99303436 5.00000000
v 9.22774410 59.07654190 5.00000000
v 9.32590008 59.16214752 5.00000000
v 9.41475105 57.63930511 5.00000000
v 9.56923962 57.74008560 5.00000000
v 9.71894073 57.84443283 5.00000000
v 9.86369228 57.95223236 5.00000000
v 9.41953564 59.24976730 5.00000000
v 9.50854874 59.33929825 5.00000000
v 9.59284019 59.43064499 5.00000000
v 9.67232037 59.52370834 5.00000000
v 9.74690056 59.61838531 5.00000000
v 9.81650066 59.71457291 5.00000000
v 9.88104343 59.81216812 5.00000000
v 9.94045830 59.91106033 5.00000000
v 9.99468040 60.01114655 5.00000000
v 7.59537935 63.81431580 4.59999990
v 7.74091101 63.76242065 4.59999990
v 7.64611483 65.15030670 4.59999990
v 7.88365555 63.70750427 4.59999990
v 8.02345657 63.64962769 4.59999990
v 7.83840990 65.09053040 4.59999990
v 8.02781105 65.02628326 4.59999990
v 8.55021954 63.38982773 4.59999990
v 8.67307949 63.31816101 4.59999990
v 8.16016102 63.58885574 4.59999990
v 8.29361916 63.52524948 4.59999990
v 8.42368603 63.45888519 4.59999990
v 8.21411133 64.95763397 4.59999990
v 8.39710617 64.88465118 4.59999990
v 8.57659626 64.80742645 4.59999990
v 8.79213428 63.24395752 4.59999990
v 8.90725136 63.16730118 4.59999990
v 9.01830482 63.08827591 4.59999990
v 9.12517548 63.00696564 4.59999990
v 9.32590008 62.83785248 4.59999990
v 9.22774410 62.92345810 4.59999990
v 8.75238609 64.72603607 4.59999990
v 8.92428112 64.64057922 4.59999990
v 9.25564575 64.45780182 4.59999990
v 9.09209633 64.55113220 4.59999990
v 9.41953564 62.75023270 4.59999990
v 9.50854874 62.66070175 4.59999990
v 9.59284019 62.56935501 4.59999990
v 9.67232037 62.47629166 4.59999990
v 9.81650066 62.28542709 4.59999990
v 9.88104343 62.18783188 4.59999990
v 9.99468040 61.98885345 4.59999990
v 9.94045830 62.08893967 4.59999990
v 9.74690056 62.38161469 4.59999990
v 9.41475105 64.36069489 4.59999990
v 9.56923962 64.25991058 4.59999990
v 9.71894073 64.15556335 4.59999990
v 9.86369228 64.04776764 4.59999990
v 7.59537935 63.81431580 5.00000000
v 7.74091101 63.76242065 5.00000000
v 7.64611483 65.15030670 5.00000000
v 7.88365555 63.70750427 5.00000000
v 8.02345657 63.64962769 5.00000000
v 7.83840990 65.09053040 5.00000000
v 8.02781105 65.02628326 5.00000000
v 8.55021954 63.38982773 5.00000000
v 8.67307949 63.31816101 5.00000000
v 8.16016102 63.58885574 5.00000000
v 8.29361916 63.52524948 5.00000000
v 8.42368603 63.45888519 5.00000000
v 8.21411133 64.95763397 5.00000000
v 8.39710617 64.88465118 5.00000000
v 8.57659626 64.80742645 5.00000000
v 8.79213428 63.24395752 5.00000000
v 8.90725136 63.16730118 5.00000000
v 9.01830482 63.08827591 5.00000000
v 9.12517548 63.00696564 5.00000000
v 9.32590008 62.83785248 5.00000000
v 9.22774410 62.92345810 5.00000000
v 8.75238609 64.72603607 5.00000000
v 8.92428112 64.64057922 5.00000000
v 9.25564575 64.45780182 5.00000000
v 9.09209633 64.55113220 5.00000000
v 9.41953564 62.75023270 5.00000000
v 9.50854874 62.66070175 5.00000000
v 9.59284019 62.56935501 5.00000000
v 9.67232037 62.47629166 5.00000000
v 9.81650066 62.28542709 5.00000000
v 9.88104343 62.18783188 5.00000000
v 9.99468040 61.98885345 5.00000000
v 9.94045830 62.08893967 5.00000000
v 9.74690056 62.38161469 5.00000000
v 9.41475105 64.36069489 5.00000000
v 9.56923962 64.25991058 5.00000000
v 9.71894073 64.15556335 5.00000000
v 9.86369228 64.04776764 5.00000000
v 19.39999962 0.60000002 0.00000000
v 19.39999962 0.00000000 0.60000002
v 20.00000000 0.60000002 0.60000002
v 19.39999962 0.00000000 4.40000010
v 20.00000000 0.60000002 4.40000010
v 19.39999962 0.60000002 5.00000000
v 19.79999924 29.62500000 4.59999990
v 19.79999924 29.97500038 4.59999990
v 19.79999924 32.22499847 4.59999990
v 19.79999924 32.57500076 4.59999990
v 19.79999924 34.82500076 4.59999990
v 19.39999962 29.62500000 5.00000000
v 19.39999962 29.97500038 5.00000000
v 19.39999962 32.22499847 5.00000000
v 19.39999962 32.57500076 5.00000000
v 19.39999962 34.82500076 5.00000000
v 19.39999962 69.40000153 0.00000000
v 19.39999962 70.00000000 0.60000002
v 20.00000000 69.40000153 0.60000002
v 12.49855709 37.42499924 4.59999990
v 10.00037193 36.48662567 5.00000000
v 10.08530140 36.45525360 5.00000000
v 10.17414761 36.42878723 5.00000000
v 10.26653099 36.40733337 5.00000000
v 10.36205482 36.39098740 5.00000000
v 10.46030998 36.37981796 5.00000000
v 10.56087685 36.37387466 5.00000000
v 10.03602219 38.38666916 5.00000000
v 10.12266541 38.44658661 5.00000000
v 10.21306419 38.50288010 5.00000000
v 10.30683327 38.55530167 5.00000000
v 10.40357113 38.60363770 5.00000000
v 10.50286198 38.64767456 5.00000000
v 10.60428238 38.68722534 5.00000000
v 10.66332436 36.37318039 5.00000000
v 10.76721287 36.37774277 5.00000000
v 10.87209797 36.38753510 5.00000000
v 10.97753143 36.40252304 5.00000000
v 11.08306122 36.42263794 5.00000000
v 11.18823433 36.44779205 5.00000000
v 10.70739746 38.72211838 5.00000000
v 10.81176567 38.75220871 5.00000000
v 10.91693878 38.77736282 5.00000000
v 11.02246857 38.79747772 5.00000000
v 11.12790203 38.81246185 5.00000000
v 11.23278713 38.82225800 5.00000000
v 10.00037193 36.48662567 5.50000000
v 10.08530140 36.45525360 5.50000000
v 10.17414761 36.42878723 5.50000000
v 10.26653099 36.40733337 5.50000000
v 10.36205482 36.39098740 5.50000000
v 10.46030998 36.37981796 5.50000000
v 10.56087685 36.37387466 5.50000000
v 10.03602219 38.38666916 5.50000000
v 10.12266541 38.44658661 5.50000000
v 10.21306419 38.50288010 5.50000000
v 10.30683327 38.55530167 5.50000000
v 10.40357113 38.60363770 5.50000000
v 10.50286198 38.64767456 5.50000000
v 10.60428238 38.68722534 5.50000000
v 10.66332436 36.37318039 5.50000000
v 10.76721287 36.37774277 5.50000000
v 10.87209797 36.38753510 5.50000000
v 10.97753143 36.40252304 5.50000000
v 11.08306122 36.42263794 5.50000000
v 11.18823433 36.44779205 5.50000000
v 10.70739746 38.72211838 5.50000000
v 10.81176567 38.75220871 5.50000000
v 10.91693878 38.77736282 5.50000000
v 11.02246857 38.79747772 5.50000000
v 11.12790203 38.81246185 5.50000000
v 11.23278713 38.82225800 5.50000000
v 11.29260254 36.47788239 5.00000000
v 11.39571762 36.51277542 5.00000000
v 11.49713802 36.55232620 5.00000000
v 11.59642887 36.59636307 5.00000000
v 11.69316673 36.64469528 5.00000000
v 11.78693581 36.69712067 5.00000000
v 11.33667564 38.82681656 5.00000000
v 11.43912315 38.82612610 5.00000000
v 11.53969002 38.82018280 5.00000000
v 11.63794518 38.80901337 5.00000000
v 11.73346901 38.79266739 5.00000000
v 11.82585239 38.77121353 5.00000000
v 11.87733459 36.75341415 5.00000000
v 11.96397781 36.81332779 5.00000000
v 12.04649258 36.87661362 5.00000000
v 12.12452507 36.94299698 5.00000000
v 12.19774342 37.01219177 5.00000000
v 12.26583290 37.08390427 5.00000000
v 12.32850075 37.15782928 5.00000000
v 11.91469860 38.74474335 5.00000000
v 11.99962807 38.71337509 5.00000000
v 12.08027744 38.67723846 5.00000000
v 12.15630054 38.63648605 5.00000000
v 12.38548088 37.23364639 5.00000000
v 12.43652821 37.31103134 5.00000000
v 12.48142338 37.38965607 5.00000000
v 12.49855709 37.42499924 5.00000000
v 12.22737217 38.59129715 5.00000000
v 12.29318810 38.54186249 5.00000000
v 12.35346699 38.48839569 5.00000000
v 12.40794945 38.43112183 5.00000000
v 12.45640278 38.37029266 5.00000000
v 12.49862003 38.30616379 5.00000000
v 11.29260254 36.47788239 5.50000000
v 11.39571762 36.51277542 5.50000000
v 11.49713802 36.55232620 5.50000000
v 11.59642887 36.59636307 5.50000000
v 11.69316673 36.64469528 5.50000000
v 11.78693581 36.69712067 5.50000000
v 11.33667564 38.82681656 5.50000000
v 11.43912315 38.82612610 5.50000000
v 11.53969002 38.82018280 5.50000000
v 11.63794518 38.80901337 5.50000000
v 11.73346901 38.79266739 5.50000000
v 11.82585239 38.77121353 5.50000000
v 11.87733459 36.75341415 5.50000000
v 11.96397781 36.81332779 5.50000000
v 12.04649258 36.87661362 5.50000000
v 12.12452507 36.94299698 5.50000000
v 12.19774342 37.01219177 5.50000000
v 12.26583290 37.08390427 5.50000000
v 12.32850075 37.15782928 5.50000000
v 11.91469860 38.74474335 5.50000000
v 11.99962807 38.71337509 5.50000000
v 12.08027744 38.67723846 5.50000000
v 12.15630054 38.63648605 5.50000000
v 12.38548088 37.23364639 5.50000000
v 12.43652821 37.31103134 5.50000000
v 12.48142338 37.38965607 5.50000000
v 12.22737217 38.59129715 5.50000000
v 12.29318810 38.54186249 5.50000000
v 12.35346699 38.48839569 5.50000000
v 12.40794945 38.43112183 5.50000000
v 12.45640278 38.37029266 5.50000000
v 12.49862003 38.30616379 5.50000000
v 12.39999962 42.54999924 5.00000000
v 12.39999962 43.04999924 5.00000000
v 12.39999962 42.54999924 5.50000000
v 12.39999962 43.04999924 5.50000000
v 10.02499962 43.84000015 5.00000000
v 10.02499962 45.25973511 5.00000000
v 10.02499962 45.83480072 5.00000000
v 10.47500038 43.84000015 5.00000000
v 10.47500038 45.35538483 5.00000000
v 10.47500038 45.93045425 5.00000000
v 10.02499962 47.23573685 5.00000000
v 10.02499962 47.81080246 5.00000000
v 10.47500038 47.33138657 5.00000000
v 10.47500038 47.90645218 5.00000000
v 11.12500000 43.84000015 5.00000000
v 11.12500000 45.49354935 5.00000000
v 11.12500000 46.06861496 5.00000000
v 11.12500000 47.46954727 5.00000000
v 11.12500000 48.04461288 5.00000000
v 10.02499962 43.84000015 5.50000000
v 10.02499962 45.25973511 5.50000000
v 10.02499962 45.83480072 5.50000000
v 10.47500038 43.84000015 5.50000000
v 10.47500038 45.35538483 5.50000000
v 10.47500038 45.93045425 5.50000000
v 10.02499962 47.23573685 5.50000000
v 10.02499962 47.81080246 5.50000000
v 10.47500038 47.33138657 5.50000000
v 10.47500038 47.90645218 5.50000000
v 11.12500000 43.84000015 5.50000000
v 11.12500000 45.49354935 5.50000000
v 11.12500000 46.06861496 5.50000000
v 11.12500000 47.46954727 5.50000000
v 11.12500000 48.04461288 5.50000000
v 10.02499962 49.56000137 5.00000000
v 10.47500038 49.56000137 5.00000000
v 11.12500000 49.56000137 5.00000000
v 10.02499962 49.56000137 5.50000000
v 10.47500038 49.56000137 5.50000000
v 11.12500000 49.56000137 5.50000000
v 11.57499981 43.84000015 5.00000000
v 11.57499981 45.58919907 5.00000000
v 11.57499981 46.16426468 5.00000000
v 11.57499981 47.56519699 5.00000000
v 12.03225231 45.68638992 5.00000000
v 12.39999962 45.15000153 5.00000000
v 12.39999962 45.65000153 5.00000000
v 11.91530228 46.23659897 5.00000000
v 12.03225231 47.66239166 5.00000000
v 11.57499981 43.84000015 5.50000000
v 11.57499981 45.58919907 5.50000000
v 11.57499981 46.16426468 5.50000000
v 11.57499981 47.56519699 5.50000000
v 12.03225231 45.68638992 5.50000000
v 12.39999962 45.15000153 5.50000000
v 12.39999962 45.65000153 5.50000000
v 11.91530228 46.23659897 5.50000000
v 12.03225231 47.66239166 5.50000000
v 11.57499981 48.14026642 5.00000000
v 11.57499981 49.56000137 5.00000000
v 11.91530228 48.21259689 5.00000000
v 11.57499981 48.14026642 5.50000000
v 11.57499981 49.56000137 5.50000000
v 11.91530228 48.21259689 5.50000000
v 12.51997471 37.46917725 4.59999990
v 12.55201817 37.54926300 4.59999990
v 12.57741547 37.62956238 4.59999990
v 12.59605694 37.70973587 4.59999990
v 12.60572624 37.77500153 4.59999990
v 13.38705540 37.59999847 4.59999990
v 13.38705540 37.77500153 4.59999990
v 13.38705540 40.02500153 4.59999990
v 13.38705540 40.37500000 4.59999990
v 13.88705540 37.59999847 4.59999990
v 13.88705540 37.77500153 4.59999990
v 13.88705540 40.02500153 4.59999990
v 13.88705540 40.37500000 4.59999990
v 12.53441906 38.23900986 5.00000000
v 12.56364822 38.16912079 5.00000000
v 12.60572624 37.77500153 5.00000000
v 12.60786533 37.78944016 5.00000000
v 12.61278725 37.86833572 5.00000000
v 12.61080360 37.94607925 5.00000000
v 12.58618164 38.09679413 5.00000000
v 12.60192299 38.02234268 5.00000000
v 13.38705540 37.77500153 5.00000000
v 12.51997471 37.46917725 5.50000000
v 12.55201817 37.54926300 5.50000000
v 12.57741547 37.62956238 5.50000000
v 12.59605694 37.70973587 5.50000000
v 12.53441906 38.23900986 5.50000000
v 12.56364822 38.16912079 5.50000000
v 12.60786533 37.78944016 5.50000000
v 12.61278725 37.86833572 5.50000000
v 12.61080360 37.94607925 5.50000000
v 12.58618164 38.09679413 5.50000000
v 12.60192299 38.02234268 5.50000000
v 13.38705540 37.59999847 5.50000000
v 13.38705540 40.02500153 5.00000000
v 13.38705540 40.37500000 5.00000000
v 13.38705540 42.54999924 5.00000000
v 13.38705540 43.04999924 5.00000000
v 13.38705540 42.54999924 5.50000000
v 13.38705540 43.04999924 5.50000000
v 13.88705540 37.77500153 5.00000000
v 13.88705540 37.59999847 5.50000000
v 13.88705540 40.02500153 5.00000000
v 13.88705540 40.37500000 5.00000000
v 13.88705540 42.54999924 5.00000000
v 13.88705540 43.04999924 5.00000000
v 13.88705540 42.54999924 5.50000000
v 13.88705540 43.04999924 5.50000000
v 13.38705540 45.15000153 5.00000000
v 13.38705540 45.65000153 5.00000000
v 13.38705540 46.70000076 5.00000000
v 13.43193436 46.70000076 5.00000000
v 13.44798183 46.75074005 5.00000000
v 13.48002529 46.83082199 5.00000000
v 13.51857662 46.91034698 5.00000000
v 13.56347179 46.98896790 5.00000000
v 13.61451912 47.06635284 5.00000000
v 13.67149925 47.14216995 5.00000000
v 13.73416710 47.21609497 5.00000000
v 13.38705540 45.15000153 5.50000000
v 13.38705540 45.65000153 5.50000000
v 13.38705540 46.70000076 5.50000000
v 13.43193436 46.70000076 5.50000000
v 13.44798183 46.75074005 5.50000000
v 13.48002529 46.83082199 5.50000000
v 13.51857662 46.91034698 5.50000000
v 13.56347179 46.98896790 5.50000000
v 13.61451912 47.06635284 5.50000000
v 13.67149925 47.14216995 5.50000000
v 13.73416710 47.21609497 5.50000000
v 13.88705540 45.15000153 5.00000000
v 13.80225658 47.28780746 5.00000000
v 13.87547493 47.35700226 5.00000000
v 13.95350742 47.42338562 5.00000000
v 14.03602219 47.48667145 5.00000000
v 14.12266541 47.54658890 5.00000000
v 14.21306419 47.60287857 5.00000000
v 14.30683327 47.65530396 5.00000000
v 14.40357113 47.70363617 5.00000000
v 14.50286198 47.74767303 5.00000000
v 14.60428238 47.78722382 5.00000000
v 14.70739746 47.82212067 5.00000000
v 14.81176567 47.85220718 5.00000000
v 14.91693878 47.87736511 5.00000000
v 13.88705540 45.15000153 5.50000000
v 13.80225658 47.28780746 5.50000000
v 13.87547493 47.35700226 5.50000000
v 13.95350742 47.42338562 5.50000000
v 14.03602219 47.48667145 5.50000000
v 14.12266541 47.54658890 5.50000000
v 14.21306419 47.60287857 5.50000000
v 14.30683327 47.65530396 5.50000000
v 14.40357113 47.70363617 5.50000000
v 14.50286198 47.74767303 5.50000000
v 14.60428238 47.78722382 5.50000000
v 14.70739746 47.82212067 5.50000000
v 14.81176567 47.85220718 5.50000000
v 14.91693878 47.87736511 5.50000000
v 10.00333500 58.06336594 4.59999990
v 10.13771629 58.17770767 4.59999990
v 10.26668930 58.29513550 4.59999990
v 10.39011288 58.41551971 4.59999990
v 10.50785255 58.53873444 4.59999990
v 10.61977863 58.66463852 4.59999990
v 10.04365158 60.11231232 4.59999990
v 10.08731651 60.21444702 4.59999990
v 10.12562847 60.31744003 4.59999990
v 10.15854549 60.42118073 4.59999990
v 10.18603230 60.52555466 4.59999990
v 10.20805740 60.63044739 4.59999990
v 10.22459698 60.73574448 4.59999990
v 10.23563385 60.84133148 4.59999990
v 10.24115467 60.94709015 4.59999990
v 10.24115467 61.05290985 4.59999990
v 10.23563385 61.15866852 4.59999990
v 10.72577000 58.79309464 4.59999990
v 10.82571030 58.92396545 4.59999990
v 10.91948986 59.05710602 4.59999990
v 11.00700569 59.19237137 4.59999990
v 11.08816338 59.32961273 4.59999990
v 11.16287327 59.46868134 4.59999990
v 11.23105431 59.60942459 4.59999990
v 11.29263115 59.75168610 4.59999990
v 11.34753704 59.89531708 4.59999990
v 11.39571190 60.04015350 4.59999990
v 11.43710232 60.18603897 4.59999990
v 11.47166443 60.33281326 4.59999990
v 11.49935913 60.48031998 4.59999990
v 11.52015686 60.62839127 4.59999990
v 11.53403473 60.77687454 4.59999990
v 11.54097748 60.92559814 4.59999990
v 11.54097748 61.07440186 4.59999990
v 11.53403473 61.22312546 4.59999990
v 12.34097672 59.88298416 4.59999990
v 10.00333500 58.06336594 5.00000000
v 10.13771629 58.17770767 5.00000000
v 10.26668930 58.29513550 5.00000000
v 10.39011288 58.41551971 5.00000000
v 10.50785255 58.53873444 5.00000000
v 10.61977863 58.66463852 5.00000000
v 10.04365158 60.11231232 5.00000000
v 10.08731651 60.21444702 5.00000000
v 10.12562847 60.31744003 5.00000000
v 10.15854549 60.42118073 5.00000000
v 10.18603230 60.52555466 5.00000000
v 10.20805740 60.63044739 5.00000000
v 10.22459698 60.73574448 5.00000000
v 10.23563385 60.84133148 5.00000000
v 10.24115467 60.94709015 5.00000000
v 10.24115467 61.05290985 5.00000000
v 10.23563385 61.15866852 5.00000000
v 10.72577000 58.79309464 5.00000000
v 10.82571030 58.92396545 5.00000000
v 10.91948986 59.05710602 5.00000000
v 11.00700569 59.19237137 5.00000000
v 11.08816338 59.32961273 5.00000000
v 11.16287327 59.46868134 5.00000000
v 11.23105431 59.60942459 5.00000000
v 11.29263115 59.75168610 5.00000000
v 11.34753704 59.89531708 5.00000000
v 11.39571190 60.04015350 5.00000000
v 11.43710232 60.18603897 5.00000000
v 11.47166443 60.33281326 5.00000000
v 11.49935913 60.48031998 5.00000000
v 11.52015686 60.62839127 5.00000000
v 11.53403473 60.77687454 5.00000000
v 11.54097748 60.92559814 5.00000000
v 11.54097748 61.07440186 5.00000000
v 11.53403473 61.22312546 5.00000000
v 12.34097672 59.88298416 5.00000000
v 10.08731651 61.78555298 4.59999990
v 10.12562847 61.68255997 4.59999990
v 10.04365158 61.88768768 4.59999990
v 10.18603230 61.47444534 4.59999990
v 10.20805740 61.36955261 4.59999990
v 10.22459698 61.26425552 4.59999990
v 10.15854549 61.57881927 4.59999990
v 10.61977863 63.33536148 4.59999990
v 10.00333500 63.93663406 4.59999990
v 10.13771629 63.82229233 4.59999990
v 10.26668930 63.70486450 4.59999990
v 10.39011288 63.58448029 4.59999990
v 10.50785255 63.46126556 4.59999990
v 10.72577000 63.20690536 4.59999990
v 10.82571030 63.07603455 4.59999990
v 10.91948986 62.94289398 4.59999990
v 11.00700569 62.80762863 4.59999990
v 11.08816338 62.67038727 4.59999990
v 11.16287327 62.53131866 4.59999990
v 11.23105431 62.39057541 4.59999990
v 11.29263115 62.24831390 4.59999990
v 11.39571190 61.95984650 4.59999990
v 11.34753704 62.10468292 4.59999990
v 11.47166443 61.66718674 4.59999990
v 11.52015686 61.37160873 4.59999990
v 11.49935913 61.51968002 4.59999990
v 11.43710232 61.81396103 4.59999990
v 12.34097672 62.35298157 4.59999990
v 10.08731651 61.78555298 5.00000000
v 10.12562847 61.68255997 5.00000000
v 10.04365158 61.88768768 5.00000000
v 10.18603230 61.47444534 5.00000000
v 10.20805740 61.36955261 5.00000000
v 10.22459698 61.26425552 5.00000000
v 10.15854549 61.57881927 5.00000000
v 10.61977863 63.33536148 5.00000000
v 10.00333500 63.93663406 5.00000000
v 10.13771629 63.82229233 5.00000000
v 10.26668930 63.70486450 5.00000000
v 10.39011288 63.58448029 5.00000000
v 10.50785255 63.46126556 5.00000000
v 10.72577000 63.20690536 5.00000000
v 10.82571030 63.07603455 5.00000000
v 10.91948986 62.94289398 5.00000000
v 11.00700569 62.80762863 5.00000000
v 11.08816338 62.67038727 5.00000000
v 11.16287327 62.53131866 5.00000000
v 11.23105431 62.39057541 5.00000000
v 11.29263115 62.24831390 5.00000000
v 11.39571190 61.95984650 5.00000000
v 11.34753704 62.10468292 5.00000000
v 11.47166443 61.66718674 5.00000000
v 11.52015686 61.37160873 5.00000000
v 11.49935913 61.51968002 5.00000000
v 11.43710232 61.81396103 5.00000000
v 12.34097672 62.35298157 5.00000000
v 12.52371216 59.02328110 4.59999990
v 12.86050320 57.42499924 4.59999990
v 12.86050320 59.09487152 4.59999990
v 12.86050320 59.99341202 4.59999990
v 13.56362820 57.42499924 4.59999990
v 13.56362820 59.24432373 4.59999990
v 13.56362820 60.14286423 4.59999990
v 14.23550320 57.42499924 4.59999990
v 14.23550320 59.38713455 4.59999990
v 14.23550320 60.28567505 4.59999990
v 14.93862820 57.42499924 4.59999990
v 14.93862820 59.53659058 4.59999990
v 14.93862820 60.43513107 4.59999990
v 12.52371216 59.02328110 5.00000000
v 12.86050320 57.42499924 5.00000000
v 12.86050320 59.09487152 5.00000000
v 12.86050320 59.99341202 5.00000000
v 13.56362820 57.42499924 5.00000000
v 13.56362820 59.24432373 5.00000000
v 13.56362820 60.14286423 5.00000000
v 14.23550320 57.42499924 5.00000000
v 14.23550320 59.38713455 5.00000000
v 14.23550320 60.28567505 5.00000000
v 14.93862820 57.42499924 5.00000000
v 14.93862820 59.53659058 5.00000000
v 14.93862820 60.43513107 5.00000000
v 12.52371216 61.49328232 4.59999990
v 12.86050320 61.56486893 4.59999990
v 12.86050320 62.46340942 4.59999990
v 12.86050320 64.57499695 4.59999990
v 13.56362820 61.71432495 4.59999990
v 13.56362820 62.61286545 4.59999990
v 13.56362820 64.57499695 4.59999990
v 14.23550320 61.85713577 4.59999990
v 14.23550320 62.75567627 4.59999990
v 14.23550320 64.57499695 4.59999990
v 14.93862820 62.00658798 4.59999990
v 14.93862820 62.90512848 4.59999990
v 14.93862820 64.57499695 4.59999990
v 12.52371216 61.49328232 5.00000000
v 12.86050320 61.56486893 5.00000000
v 12.86050320 62.46340942 5.00000000
v 12.86050320 64.57499695 5.00000000
v 13.56362820 61.71432495 5.00000000
v 13.56362820 62.61286545 5.00000000
v 13.56362820 64.57499695 5.00000000
v 14.23550320 61.85713577 5.00000000
v 14.23550320 62.75567627 5.00000000
v 14.23550320 64.57499695 5.00000000
v 14.93862820 62.00658798 5.00000000
v 14.93862820 62.90512848 5.00000000
v 14.93862820 64.57499695 5.00000000
v 15.49713802 45.65232468 5.00000000
v 15.49117374 45.65000153 5.00000000
v 15.59642887 45.69636154 5.00000000
v 15.02246857 47.89747620 5.00000000
v 15.12790203 47.91246414 5.00000000
v 15.23278713 47.92225647 5.00000000
v 15.33667564 47.92681885 5.00000000
v 15.43912315 47.92612457 5.00000000
v 15.53969002 47.92018127 5.00000000
v 15.69316673 45.74469757 5.00000000
v 15.78693581 45.79712296 5.00000000
v 15.87733459 45.85341263 5.00000000
v 15.96397781 45.91333008 5.00000000
v 15.63794518 47.90901184 5.00000000
v 15.73346901 47.89266586 5.00000000
v 15.82585239 47.87121201 5.00000000
v 15.91469860 47.84474564 5.00000000
v 16.04649162 45.97661591 5.00000000
v 16.12452507 46.04299545 5.00000000
v 16.19774437 46.11219406 5.00000000
v 15.99962807 47.81337357 5.00000000
v 16.08027840 47.77723694 5.00000000
v 16.15630150 47.73648453 5.00000000
v 16.22737312 47.69129562 5.00000000
v 15.49713802 45.65232468 5.50000000
v 15.49117374 45.65000153 5.50000000
v 15.59642887 45.69636154 5.50000000
v 15.02246857 47.89747620 5.50000000
v 15.12790203 47.91246414 5.50000000
v 15.23278713 47.92225647 5.50000000
v 15.33667564 47.92681885 5.50000000
v 15.43912315 47.92612457 5.50000000
v 15.53969002 47.92018127 5.50000000
v 15.69316673 45.74469757 5.50000000
v 15.78693581 45.79712296 5.50000000
v 15.87733459 45.85341263 5.50000000
v 15.96397781 45.91333008 5.50000000
v 15.63794518 47.90901184 5.50000000
v 15.73346901 47.89266586 5.50000000
v 15.82585239 47.87121201 5.50000000
v 15.91469860 47.84474564 5.50000000
v 16.04649162 45.97661591 5.50000000
v 16.12452507 46.04299545 5.50000000
v 16.19774437 46.11219406 5.50000000
v 15.99962807 47.81337357 5.50000000
v 16.08027840 47.77723694 5.50000000
v 16.15630150 47.73648453 5.50000000
v 16.22737312 47.69129562 5.50000000
v 16.26583290 46.18390656 5.00000000
v 16.32850075 46.25782776 5.00000000
v 16.38548088 46.33364487 5.00000000
v 16.43652725 46.41102982 5.00000000
v 16.48142242 46.48965454 5.00000000
v 16.51997566 46.56917953 5.00000000
v 16.55201721 46.64926147 5.00000000
v 16.29318810 47.64186096 5.00000000
v 16.35346603 47.58839417 5.00000000
v 16.40794945 47.53112411 5.00000000
v 16.45640373 47.47029114 5.00000000
v 16.49861908 47.40616226 5.00000000
v 16.53442001 47.33901215 5.00000000
v 16.57741547 46.72956085 5.00000000
v 16.59605789 46.80973816 5.00000000
v 16.60786438 46.88944244 5.00000000
v 16.61278725 46.96833420 5.00000000
v 16.56364822 47.26912308 5.00000000
v 16.58618164 47.19679642 5.00000000
v 16.61080360 47.04607773 5.00000000
v 16.60192299 47.12234116 5.00000000
v 16.26583290 46.18390656 5.50000000
v 16.32850075 46.25782776 5.50000000
v 16.38548088 46.33364487 5.50000000
v 16.43652725 46.41102982 5.50000000
v 16.48142242 46.48965454 5.50000000
v 16.51997566 46.56917953 5.50000000
v 16.55201721 46.64926147 5.50000000
v 16.29318810 47.64186096 5.50000000
v 16.35346603 47.58839417 5.50000000
v 16.40794945 47.53112411 5.50000000
v 16.45640373 47.47029114 5.50000000
v 16.49861908 47.40616226 5.50000000
v 16.53442001 47.33901215 5.50000000
v 16.57741547 46.72956085 5.50000000
v 16.59605789 46.80973816 5.50000000
v 16.60786438 46.88944244 5.50000000
v 16.61278725 46.96833420 5.50000000
v 16.56364822 47.26912308 5.50000000
v 16.58618164 47.19679642 5.50000000
v 16.61080360 47.04607773 5.50000000
v 16.60192299 47.12234116 5.50000000
v 19.79999924 35.17499924 4.59999990
v 19.79999924 37.42499924 4.59999990
v 19.79999924 37.77500153 4.59999990
v 19.79999924 40.02500153 4.59999990
v 19.79999924 40.37500000 4.59999990
v 17.60000038 42.54999924 5.00000000
v 17.60000038 43.04999924 5.00000000
v 17.60000038 42.54999924 5.50000000
v 17.60000038 43.04999924 5.50000000
v 19.39999962 35.17499924 5.00000000
v 19.39999962 37.42499924 5.00000000
v 19.39999962 37.77500153 5.00000000
v 19.39999962 40.02500153 5.00000000
v 19.39999962 40.37500000 5.00000000
v 17.60000038 45.15000153 5.00000000
v 17.60000038 45.65000153 5.00000000
v 17.60000038 45.15000153 5.50000000
v 17.60000038 45.65000153 5.50000000
v 15.27542019 60.50671768 4.59999990
v 15.45815468 59.64701843 4.59999990
v 15.27542019 60.50671768 5.00000000
v 15.45815468 59.64701843 5.00000000
v 15.27542019 62.97671890 4.59999990
v 15.45815468 62.11701584 4.59999990
v 15.27542019 62.97671890 5.00000000
v 15.45815468 62.11701584 5.00000000
v 19.39999962 70.00000000 4.40000010
v 20.00000000 69.40000153 4.40000010
v 19.39999962 69.40000153 5.00000000
f 1 3 2
f 2 3 5
f 1 2 327
f 2 4 328
f 1 740 3
f 1 327 739
f 2 5 4
f 4 5 6
f 4 6 11
f 6 8 7
f 6 55 8
f 6 20 11
f 6 26 20
f 6 25 26
f 6 7 29
f 6 29 25
f 11 17 12
f 11 20 16
f 4 11 340
f 12 21 13
f 14 23 15
f 11 16 17
f 12 17 36
f 15 24 97
f 12 36 21
f 21 22 13
f 15 23 24
f 21 51 22
f 20 26 30
f 20 34 16
f 20 27 28
f 20 30 27
f 20 28 35
f 20 35 34
f 21 36 51
f 30 33 27
f 22 51 52
f 22 52 83
f 22 83 84
f 66 8 55
f 18 60 19
f 18 59 60
f 19 60 71
f 62 61 63
f 74 62 63
f 13 238 14
f 13 22 237
f 65 98 64
f 65 92 98
f 15 97 347
f 8 66 31
f 32 67 70
f 19 71 38
f 32 70 37
f 71 83 38
f 56 87 68
f 62 74 73
f 69 89 72
f 74 91 73
f 14 305 23
f 38 83 52
f 23 305 24
f 56 112 87
f 69 88 89
f 87 109 88
f 112 56 111
f 111 56 113
f 113 56 108
f 116 56 117
f 117 56 118
f 108 56 116
f 118 56 125
f 125 56 126
f 110 88 109
f 114 88 110
f 119 88 115
f 115 88 114
f 87 112 109
f 120 88 119
f 88 120 89
f 92 89 134
f 121 89 120
f 22 84 304
f 24 175 97
f 24 174 175
f 24 305 174
f 3 742 5
f 5 742 6
f 6 744 55
f 744 56 55
f 98 99 64
f 64 99 100
f 64 100 101
f 64 101 102
f 64 102 103
f 64 103 104
f 64 104 105
f 13 237 238
f 14 238 305
f 64 105 234
f 64 234 266
f 106 222 107
f 106 107 355
f 126 56 127
f 127 56 128
f 128 56 129
f 131 56 132
f 132 56 130
f 129 56 131
f 130 56 177
f 177 56 178
f 178 56 179
f 179 56 180
f 64 266 90
f 122 89 121
f 123 89 122
f 124 89 123
f 133 89 124
f 134 89 133
f 92 134 135
f 92 135 136
f 92 136 137
f 92 137 138
f 92 138 139
f 92 139 140
f 92 140 184
f 92 184 185
f 92 188 98
f 92 185 186
f 92 186 187
f 92 187 189
f 92 189 188
f 22 304 237
f 304 84 73
f 304 73 91
f 90 304 91
f 90 266 304
f 222 221 223
f 305 221 174
f 222 224 107
f 222 223 224
f 305 223 221
f 744 180 56
f 234 105 227
f 234 227 228
f 234 228 229
f 234 229 230
f 234 230 231
f 234 231 232
f 232 233 234
f 232 261 233
f 239 240 416
f 239 307 240
f 235 245 236
f 235 244 245
f 235 277 244
f 236 245 315
f 241 249 242
f 241 248 249
f 241 309 248
f 242 249 322
f 252 422 243
f 243 311 252
f 233 261 265
f 261 262 265
f 265 262 263
f 265 263 264
f 307 308 240
f 223 305 306
f 307 306 308
f 308 306 305
f 236 315 278
f 277 314 244
f 277 276 313
f 277 313 314
f 322 310 242
f 248 309 321
f 278 321 309
f 315 321 278
f 252 311 325
f 311 310 325
f 322 325 310
f 2 328 327
f 327 328 329
f 328 341 329
f 327 329 756
f 329 341 756
f 4 340 328
f 330 335 331
f 332 337 333
f 11 12 340
f 15 347 330
f 331 349 332
f 331 336 348
f 333 351 334
f 333 338 350
f 331 335 336
f 337 338 333
f 330 365 335
f 335 362 336
f 332 370 337
f 337 363 338
f 334 382 339
f 12 13 340
f 13 14 340
f 14 15 340
f 15 330 340
f 330 331 340
f 331 332 340
f 332 333 340
f 333 334 340
f 334 339 340
f 339 383 342
f 330 347 365
f 331 348 349
f 332 349 370
f 333 350 351
f 334 351 382
f 335 364 362
f 335 365 364
f 336 362 367
f 336 369 348
f 337 368 363
f 336 367 369
f 337 370 368
f 338 363 372
f 338 381 350
f 338 372 381
f 339 382 383
f 342 383 409
f 342 409 412
f 328 340 341
f 339 342 340
f 340 342 341
f 343 344 497
f 342 458 344
f 343 346 344
f 343 542 345
f 343 345 346
f 342 344 346
f 342 346 568
f 345 568 346
f 342 568 571
f 342 571 572
f 342 572 575
f 342 575 578
f 342 578 579
f 342 579 582
f 342 582 585
f 106 355 352
f 357 354 353
f 353 388 356
f 352 355 392
f 353 356 357
f 396 354 357
f 361 359 358
f 358 407 360
f 360 361 358
f 411 359 361
f 365 366 364
f 370 371 368
f 352 392 385
f 385 393 386
f 354 396 389
f 395 388 387
f 389 397 390
f 392 393 385
f 395 387 394
f 356 388 395
f 396 397 389
f 391 398 410
f 411 408 359
f 407 391 410
f 411 409 408
f 360 407 410
f 411 412 409
f 342 412 457
f 342 457 458
f 344 458 520
f 458 521 520
f 458 522 521
f 458 523 522
f 458 528 523
f 458 529 528
f 458 530 529
f 458 531 530
f 239 416 415
f 415 416 433
f 417 425 418
f 417 437 424
f 243 422 419
f 460 419 422
f 417 424 425
f 418 425 426
f 418 426 427
f 418 427 428
f 418 428 429
f 466 418 429
f 421 420 948
f 420 455 947
f 458 421 948
f 415 433 430
f 430 436 431
f 433 436 430
f 431 436 444
f 437 432 434
f 438 442 439
f 461 435 431
f 461 431 444
f 465 434 435
f 418 466 438
f 437 434 465
f 438 466 442
f 442 472 441
f 455 441 770
f 458 456 421
f 455 440 441
f 458 457 456
f 460 443 419
f 460 444 443
f 461 465 435
f 460 461 444
f 437 465 424
f 466 467 442
f 468 442 467
f 442 468 469
f 442 469 470
f 442 470 471
f 442 471 472
f 441 472 473
f 441 473 474
f 441 474 766
f 441 766 767
f 462 464 463
f 462 759 464
f 462 760 759
f 441 767 768
f 441 768 769
f 455 770 771
f 441 769 770
f 455 771 772
f 455 772 779
f 455 779 780
f 455 780 781
f 455 781 782
f 455 782 783
f 455 783 784
f 458 880 489
f 458 883 880
f 458 490 625
f 458 532 531
f 458 533 532
f 458 625 533
f 458 489 490
f 881 489 880
f 490 491 492
f 886 491 490
f 882 886 490
f 625 490 492
f 625 492 910
f 887 910 492
f 625 910 911
f 625 911 912
f 343 497 498
f 344 499 497
f 497 499 498
f 343 498 507
f 498 500 501
f 498 501 507
f 498 499 520
f 498 521 500
f 500 522 501
f 343 503 502
f 343 504 503
f 343 505 504
f 343 502 543
f 343 512 505
f 343 513 512
f 343 514 513
f 343 515 514
f 343 516 515
f 343 517 516
f 502 503 525
f 503 504 526
f 504 505 527
f 502 524 543
f 501 506 507
f 343 507 594
f 507 508 509
f 501 523 506
f 506 528 507
f 507 529 508
f 507 509 511
f 509 510 511
f 507 511 594
f 508 530 509
f 509 531 510
f 510 532 511
f 343 518 517
f 343 519 518
f 343 588 519
f 343 589 588
f 343 592 589
f 343 593 592
f 505 512 534
f 512 513 535
f 513 514 536
f 514 515 537
f 343 596 593
f 343 597 596
f 343 598 597
f 515 516 538
f 516 517 539
f 517 518 540
f 518 519 541
f 344 520 499
f 498 520 521
f 500 521 522
f 501 522 523
f 502 525 524
f 503 526 525
f 504 527 526
f 505 534 527
f 524 525 526
f 524 526 527
f 524 527 534
f 524 534 535
f 523 528 506
f 507 528 529
f 508 529 530
f 509 530 531
f 510 531 532
f 511 532 533
f 512 535 534
f 513 536 535
f 514 537 536
f 524 535 536
f 524 536 537
f 524 537 538
f 524 538 539
f 524 539 540
f 524 540 541
f 515 538 537
f 516 539 538
f 517 540 539
f 518 541 540
f 519 626 541
f 524 541 626
f 524 626 627
f 524 627 630
f 524 630 631
f 524 631 634
f 524 634 635
f 343 543 542
f 345 542 568
f 542 543 544
f 542 544 547
f 542 545 546
f 542 549 545
f 542 547 548
f 542 548 551
f 542 554 555
f 542 551 552
f 542 557 549
f 542 552 554
f 549 553 550
f 543 565 544
f 544 566 547
f 542 546 568
f 545 567 546
f 547 569 548
f 548 570 551
f 545 549 571
f 549 550 572
f 549 557 553
f 553 557 556
f 542 676 557
f 551 573 552
f 550 553 575
f 552 574 554
f 554 576 555
f 553 556 578
f 556 557 579
f 557 563 560
f 557 665 563
f 563 665 564
f 555 577 558
f 558 580 559
f 557 560 582
f 560 563 585
f 559 581 561
f 561 583 562
f 562 584 663
f 563 564 586
f 341 342 1334
f 524 565 543
f 524 566 565
f 524 569 566
f 524 570 569
f 524 573 570
f 524 574 573
f 544 565 566
f 546 567 568
f 545 571 567
f 547 566 569
f 548 569 570
f 549 572 571
f 567 571 568
f 342 585 586
f 342 586 703
f 524 576 574
f 524 577 576
f 524 580 577
f 524 581 580
f 524 583 581
f 524 584 583
f 570 573 551
f 552 573 574
f 550 575 572
f 553 578 575
f 554 574 576
f 555 576 577
f 556 579 578
f 524 701 584
f 524 704 702
f 524 702 701
f 524 705 704
f 524 710 705
f 524 711 710
f 558 577 580
f 559 580 581
f 557 582 579
f 560 585 582
f 561 581 583
f 562 583 584
f 563 586 585
f 511 587 590
f 511 533 587
f 587 625 590
f 343 594 1043
f 511 590 594
f 343 1043 598
f 590 591 594
f 519 588 626
f 588 589 627
f 590 628 591
f 591 629 594
f 589 592 630
f 592 593 631
f 593 596 634
f 594 595 599
f 594 599 603
f 594 632 595
f 596 597 635
f 597 598 636
f 595 633 599
f 599 637 602
f 598 600 638
f 600 601 639
f 599 602 603
f 594 603 613
f 603 607 608
f 603 608 613
f 598 1043 600
f 600 1043 601
f 601 1043 604
f 602 640 603
f 603 641 607
f 601 604 642
f 604 605 643
f 605 606 644
f 607 645 608
f 608 646 612
f 606 609 647
f 609 610 648
f 610 611 649
f 608 612 613
f 594 613 1043
f 604 1043 605
f 605 1043 606
f 606 1043 609
f 609 1043 610
f 613 614 615
f 613 615 1039
f 610 1043 611
f 611 1043 616
f 612 650 613
f 613 651 614
f 614 652 615
f 615 653 1038
f 616 1043 617
f 617 1043 618
f 618 1043 619
f 611 616 654
f 616 617 655
f 617 618 656
f 618 619 657
f 619 620 658
f 620 621 659
f 621 622 660
f 622 623 661
f 623 624 662
f 533 625 587
f 625 628 590
f 588 627 626
f 589 630 627
f 591 628 629
f 592 631 630
f 593 634 631
f 524 635 636
f 524 636 638
f 524 638 639
f 524 639 642
f 524 642 643
f 524 643 644
f 524 644 647
f 524 647 648
f 594 629 632
f 595 632 633
f 596 635 634
f 597 636 635
f 599 633 637
f 637 640 602
f 598 638 636
f 600 639 638
f 601 642 639
f 524 648 649
f 524 649 654
f 524 654 655
f 524 655 656
f 524 656 657
f 524 657 658
f 524 658 659
f 524 720 721
f 524 726 720
f 524 727 726
f 524 728 727
f 524 729 728
f 524 734 729
f 524 659 660
f 524 660 661
f 524 661 662
f 524 662 1080
f 524 1080 1081
f 524 1081 1082
f 524 1082 1083
f 524 1083 1084
f 524 1084 1085
f 524 733 731
f 524 732 733
f 524 730 734
f 524 731 730
f 524 1140 732
f 524 1138 1140
f 524 1144 1139
f 524 1142 1141
f 524 1141 1144
f 524 1139 1138
f 625 1017 628
f 603 640 641
f 607 641 645
f 604 643 642
f 605 644 643
f 606 647 644
f 608 645 646
f 612 646 650
f 609 648 647
f 610 649 648
f 611 654 649
f 524 1085 1086
f 524 1086 1087
f 524 1087 1088
f 524 1088 1089
f 524 1089 1090
f 524 1090 1143
f 524 1143 1142
f 613 650 651
f 614 651 652
f 615 652 653
f 653 1074 1038
f 616 655 654
f 617 656 655
f 618 657 656
f 619 658 657
f 620 659 658
f 621 660 659
f 622 661 660
f 623 662 661
f 542 555 1123
f 557 676 665
f 542 1123 676
f 665 669 668
f 665 676 669
f 663 701 664
f 664 702 666
f 564 665 703
f 665 668 706
f 666 704 667
f 667 705 672
f 668 669 707
f 670 674 712
f 670 708 671
f 671 709 678
f 555 558 1123
f 558 559 1123
f 559 561 1123
f 669 676 675
f 561 562 1123
f 562 663 1123
f 663 664 1123
f 676 684 677
f 676 687 684
f 672 710 673
f 673 711 674
f 669 675 713
f 675 676 714
f 676 677 715
f 677 684 722
f 673 674 1123
f 670 1123 674
f 670 671 1123
f 678 716 679
f 679 717 680
f 680 718 681
f 681 719 683
f 682 720 688
f 682 683 721
f 664 666 1123
f 666 667 1123
f 667 672 1123
f 672 673 1123
f 684 687 685
f 676 699 687
f 686 687 697
f 684 685 723
f 685 687 725
f 686 724 687
f 686 697 735
f 671 678 1123
f 678 679 1123
f 679 680 1123
f 680 681 1123
f 681 683 1123
f 682 1123 683
f 682 688 1123
f 688 689 1123
f 689 690 1123
f 690 691 1123
f 688 726 689
f 689 727 690
f 690 728 691
f 692 730 693
f 693 731 695
f 694 695 733
f 691 729 696
f 692 696 734
f 687 699 697
f 697 699 698
f 676 1123 699
f 699 1120 1118
f 699 1118 700
f 697 698 736
f 698 699 737
f 699 700 738
f 700 1118 1146
f 524 712 711
f 524 708 712
f 524 709 708
f 524 716 709
f 524 717 716
f 524 718 717
f 524 719 718
f 524 721 719
f 584 701 663
f 664 701 702
f 564 703 586
f 665 706 703
f 666 702 704
f 667 704 705
f 672 705 710
f 668 707 706
f 669 713 707
f 670 712 708
f 671 708 709
f 673 710 711
f 674 711 712
f 675 714 713
f 676 715 714
f 677 722 715
f 709 716 678
f 679 716 717
f 680 717 718
f 681 718 719
f 683 719 721
f 682 721 720
f 684 723 722
f 685 725 723
f 687 724 725
f 686 735 724
f 688 720 726
f 689 726 727
f 690 727 728
f 691 728 729
f 692 734 730
f 693 730 731
f 695 731 733
f 694 733 732
f 696 729 734
f 697 736 735
f 698 737 736
f 699 738 737
f 700 1146 738
f 342 703 1336
f 1 739 740
f 3 740 742
f 739 741 740
f 740 741 742
f 739 755 741
f 6 742 744
f 744 181 180
f 744 182 181
f 744 183 182
f 744 190 183
f 744 191 190
f 744 192 191
f 744 193 192
f 744 194 193
f 744 195 194
f 744 254 195
f 744 255 254
f 744 256 255
f 744 257 256
f 744 258 257
f 744 259 258
f 744 260 259
f 744 267 260
f 744 268 267
f 744 269 268
f 744 270 269
f 744 271 270
f 744 272 271
f 744 273 272
f 744 274 273
f 744 275 274
f 744 276 275
f 744 313 276
f 744 316 313
f 746 247 246
f 745 246 317
f 748 251 250
f 747 250 323
f 749 253 326
f 751 318 247
f 750 317 316
f 753 324 251
f 752 323 318
f 754 326 324
f 741 743 742
f 742 743 744
f 743 750 744
f 741 1335 743
f 744 750 316
f 745 746 246
f 746 751 247
f 747 748 250
f 748 753 251
f 749 1308 253
f 751 752 318
f 753 754 324
f 745 317 750
f 747 323 752
f 749 326 754
f 743 745 750
f 743 1335 745
f 746 747 752
f 748 749 754
f 746 752 751
f 748 754 753
f 327 755 739
f 327 756 755
f 741 755 757
f 741 757 1335
f 755 756 757
f 756 1335 757
f 420 947 948
f 462 761 760
f 462 762 761
f 462 763 762
f 455 784 817
f 455 817 818
f 455 818 819
f 455 819 820
f 455 820 821
f 455 821 822
f 458 890 883
f 458 916 890
f 455 822 974
f 458 877 916
f 458 876 877
f 974 822 830
f 974 830 831
f 974 831 832
f 455 974 947
f 458 948 975
f 458 975 976
f 458 976 876
f 883 890 891
f 883 891 884
f 885 893 888
f 885 892 893
f 625 912 935
f 889 912 911
f 889 894 912
f 625 935 1017
f 916 920 917
f 918 923 924
f 918 924 919
f 877 921 916
f 916 921 920
f 922 920 921
f 920 992 923
f 923 992 924
f 934 936 935
f 628 1017 1018
f 632 1018 1019
f 941 945 942
f 942 945 943
f 944 943 945
f 1308 423 253
f 944 945 946
f 944 946 961
f 1309 940 758
f 1309 941 940
f 1309 758 837
f 1317 462 423
f 944 961 955
f 974 832 833
f 974 833 838
f 974 838 839
f 974 839 840
f 974 840 841
f 974 841 842
f 974 842 843
f 974 843 953
f 955 961 956
f 961 957 956
f 961 958 957
f 974 953 954
f 974 954 959
f 974 960 958
f 974 959 960
f 1317 763 462
f 1317 764 763
f 1317 765 764
f 1317 773 765
f 1317 774 773
f 1317 775 774
f 1317 776 775
f 961 974 958
f 1317 777 776
f 1317 778 777
f 1317 811 778
f 1317 812 811
f 1317 813 812
f 1317 814 813
f 1317 815 814
f 1317 816 815
f 1317 823 816
f 1317 824 823
f 1317 825 824
f 1317 826 825
f 1317 827 826
f 1317 828 827
f 1317 829 828
f 1317 834 829
f 1317 835 834
f 1317 836 835
f 1317 837 836
f 988 921 877
f 977 988 877
f 920 922 990
f 1017 936 924
f 920 990 992
f 989 990 922
f 993 924 992
f 994 924 993
f 995 924 994
f 996 924 995
f 997 924 996
f 991 992 990
f 998 924 997
f 1011 924 998
f 1012 924 1011
f 1013 924 1012
f 1014 924 1013
f 1015 924 1014
f 1016 924 1015
f 1017 924 1016
f 1017 935 936
f 633 1019 1020
f 637 1020 1021
f 1180 1021 1022
f 1180 1022 1023
f 1180 1023 1221
f 1180 1221 1222
f 1180 1222 1223
f 1180 1223 1224
f 1180 1224 1225
f 1180 1225 1226
f 1180 1226 1231
f 1180 1231 1232
f 1180 1232 1233
f 1180 1233 1234
f 1180 1234 1238
f 1180 1238 1239
f 341 1334 756
f 615 1038 1039
f 613 1039 1043
f 1039 1040 1041
f 1039 1041 1043
f 1041 1042 1043
f 1038 1074 1039
f 1039 1075 1040
f 1040 1076 1041
f 1041 1077 1042
f 1042 1078 1043
f 619 1043 620
f 620 1043 621
f 621 1043 622
f 622 1043 623
f 623 1043 624
f 624 1043 1044
f 1043 1045 1044
f 1043 1046 1045
f 1043 1047 1046
f 1043 1048 1047
f 1043 1049 1048
f 1043 1050 1049
f 1043 1051 1050
f 1043 1052 1051
f 1043 1053 1052
f 1043 1054 1053
f 1043 1115 1054
f 1043 1123 1115
f 624 1044 1080
f 1044 1045 1081
f 1045 1046 1082
f 1046 1047 1083
f 1047 1048 1084
f 1048 1049 1085
f 1049 1050 1086
f 1050 1051 1087
f 1054 1115 1143
f 1051 1052 1088
f 1052 1053 1089
f 1053 1054 1090
f 1043 1055 1056
f 1043 1056 1058
f 1056 1057 1058
f 1043 1079 1055
f 1055 1091 1056
f 1056 1092 1057
f 1043 1058 1062
f 1058 1059 1060
f 1058 1060 1062
f 1043 1062 1070
f 1060 1061 1062
f 1043 1070 1123
f 1057 1093 1058
f 1058 1094 1059
f 1059 1095 1060
f 1060 1096 1061
f 1062 1063 1064
f 1062 1064 1066
f 1064 1065 1066
f 1062 1066 1070
f 1066 1067 1068
f 1066 1068 1070
f 1068 1069 1070
f 1070 1071 1072
f 1070 1072 1135
f 1061 1097 1062
f 1062 1098 1063
f 1063 1099 1064
f 1064 1100 1065
f 1065 1101 1066
f 1066 1102 1067
f 1067 1103 1068
f 1068 1104 1069
f 1069 1105 1070
f 1070 1106 1071
f 1071 1107 1072
f 1073 1109 1166
f 628 1018 629
f 629 1018 632
f 632 1019 633
f 633 1020 637
f 1039 1074 1075
f 1040 1075 1076
f 1041 1076 1077
f 1042 1077 1078
f 1043 1078 1079
f 637 1180 640
f 640 1180 641
f 641 1180 645
f 645 1180 646
f 646 1180 650
f 650 1180 651
f 624 1080 662
f 1044 1081 1080
f 1045 1082 1081
f 1046 1083 1082
f 1047 1084 1083
f 1048 1085 1084
f 1049 1086 1085
f 1050 1087 1086
f 1054 1143 1090
f 1051 1088 1087
f 1052 1089 1088
f 1053 1090 1089
f 1055 1079 1091
f 1056 1091 1092
f 1057 1092 1093
f 651 1180 652
f 652 1180 653
f 653 1180 1074
f 1074 1180 1075
f 1075 1180 1076
f 1076 1180 1077
f 1058 1093 1094
f 1059 1094 1095
f 1060 1095 1096
f 1061 1096 1097
f 637 1021 1180
f 1077 1180 1078
f 1078 1180 1079
f 1079 1180 1091
f 1091 1180 1092
f 1092 1180 1093
f 1093 1180 1094
f 1097 1098 1062
f 1063 1098 1099
f 1064 1099 1100
f 1065 1100 1101
f 1066 1101 1102
f 1067 1102 1103
f 1068 1103 1104
f 1069 1104 1105
f 1070 1105 1106
f 1071 1106 1107
f 1072 1107 1108
f 1094 1179 1095
f 1095 1109 1096
f 1096 1109 1097
f 1097 1109 1098
f 1098 1109 1099
f 1099 1109 1100
f 1100 1109 1101
f 1101 1109 1102
f 1094 1180 1179
f 1109 1179 1166
f 1095 1179 1109
f 1102 1206 1103
f 1103 1206 1104
f 1104 1206 1105
f 1105 1206 1106
f 1106 1206 1107
f 1102 1109 1182
f 1102 1182 1206
f 1110 1123 1112
f 691 696 1123
f 692 693 1123
f 692 1123 696
f 693 695 1123
f 694 1123 695
f 694 1112 1123
f 1114 1115 1123
f 1113 1114 1123
f 1111 1116 1123
f 1110 1111 1123
f 1113 1123 1116
f 1117 1122 1123
f 1110 1138 1111
f 1111 1139 1116
f 694 732 1112
f 1110 1112 1140
f 1113 1141 1114
f 1114 1142 1115
f 1113 1116 1144
f 1117 1145 1122
f 1118 1120 1119
f 699 1123 1120
f 1120 1122 1121
f 1120 1123 1122
f 1118 1119 1147
f 1119 1120 1148
f 1120 1121 1149
f 1121 1122 1150
f 1123 1125 1124
f 1123 1127 1125
f 1070 1132 1123
f 1125 1127 1126
f 1123 1132 1127
f 1127 1129 1128
f 1127 1132 1129
f 1117 1123 1151
f 1123 1124 1152
f 1124 1125 1153
f 1125 1126 1154
f 1126 1127 1155
f 1127 1128 1156
f 1128 1129 1157
f 1129 1132 1130
f 1131 1132 1136
f 1070 1135 1132
f 1133 1136 1135
f 1072 1134 1135
f 1132 1135 1136
f 1129 1130 1158
f 1131 1159 1132
f 1130 1132 1160
f 1133 1161 1136
f 1134 1162 1135
f 1072 1108 1134
f 1133 1135 1163
f 1131 1136 1164
f 1137 1165 1192
f 1111 1138 1139
f 1116 1139 1144
f 732 1140 1112
f 1110 1140 1138
f 1113 1144 1141
f 1115 1142 1143
f 1114 1141 1142
f 1122 1145 1150
f 1118 1147 1146
f 1119 1148 1147
f 1120 1149 1148
f 1121 1150 1149
f 735 736 1208
f 1117 1151 1145
f 1123 1152 1151
f 1124 1153 1152
f 1126 1155 1154
f 1125 1154 1153
f 1127 1156 1155
f 1128 1157 1156
f 736 737 1208
f 737 738 1208
f 738 1146 1208
f 1146 1147 1208
f 1147 1148 1208
f 1148 1149 1208
f 1129 1158 1157
f 1130 1160 1158
f 1132 1159 1160
f 1133 1163 1161
f 1136 1161 1164
f 1135 1162 1163
f 1108 1162 1134
f 1131 1164 1159
f 1157 1158 1165
f 1158 1160 1165
f 1159 1165 1160
f 1162 1165 1163
f 1107 1205 1108
f 1108 1205 1162
f 1159 1164 1165
f 1161 1165 1164
f 1161 1163 1165
f 1156 1157 1165
f 1154 1155 1208
f 1155 1156 1208
f 1149 1150 1208
f 1145 1151 1208
f 1145 1208 1150
f 1151 1152 1208
f 1152 1153 1208
f 1153 1154 1208
f 1165 1205 1192
f 1162 1205 1165
f 1156 1165 1208
f 1107 1206 1205
f 703 706 1336
f 706 707 1336
f 707 713 1336
f 713 714 1336
f 714 715 1336
f 715 722 1336
f 722 723 1336
f 723 725 1336
f 1167 1170 1168
f 1166 1179 1168
f 1167 1180 1170
f 1167 1168 1180
f 1073 1166 1169
f 1166 1172 1169
f 1169 1172 1193
f 1073 1169 1182
f 1169 1193 1206
f 1168 1170 1171
f 1170 1183 1171
f 1166 1168 1175
f 1172 1196 1193
f 1168 1171 1175
f 1166 1175 1172
f 1172 1185 1196
f 1173 1174 1187
f 1171 1174 1178
f 1171 1178 1175
f 1171 1184 1174
f 1172 1175 1188
f 1173 1176 1174
f 1174 1176 1177
f 1173 1186 1176
f 1176 1189 1177
f 1175 1178 1199
f 1174 1177 1178
f 1178 1191 1202
f 1168 1181 1180
f 1179 1180 1181
f 1073 1182 1109
f 1168 1179 1181
f 1169 1206 1182
f 1170 1180 1183
f 1171 1183 1184
f 1185 1209 1196
f 1180 1323 1183
f 1173 1187 1186
f 1183 1187 1184
f 1183 1186 1187
f 1184 1187 1174
f 1172 1188 1185
f 1175 1212 1188
f 1185 1212 1209
f 1185 1188 1212
f 1176 1186 1189
f 1177 1189 1190
f 1137 1192 1194
f 1192 1193 1194
f 1193 1197 1194
f 1194 1197 1195
f 1192 1205 1193
f 1137 1194 1207
f 1194 1195 1208
f 1193 1196 1200
f 1193 1200 1197
f 1197 1210 1198
f 1195 1197 1198
f 1195 1198 1211
f 342 1336 1334
f 1196 1199 1200
f 1196 1209 1199
f 1197 1200 1213
f 1175 1199 1212
f 1200 1201 1214
f 1178 1200 1199
f 1200 1203 1201
f 1178 1202 1200
f 1200 1202 1203
f 1201 1203 1204
f 1203 1216 1204
f 1201 1204 1217
f 1193 1205 1206
f 1137 1207 1165
f 1194 1208 1207
f 1165 1207 1208
f 1195 1211 1208
f 1198 1210 1211
f 724 1336 725
f 724 735 1336
f 1209 1212 1199
f 1197 1213 1210
f 1200 1214 1213
f 1210 1213 1214
f 1210 1214 1211
f 1191 1215 1202
f 1201 1217 1214
f 1204 1216 1217
f 735 1208 1336
f 1309 945 941
f 1309 949 945
f 1310 950 949
f 1312 952 951
f 1311 951 982
f 1308 1317 423
f 1319 980 950
f 1320 982 980
f 983 1313 984
f 1321 983 952
f 1317 1318 837
f 1309 837 1318
f 1321 1313 983
f 1314 1010 985
f 1323 1218 1219
f 1323 1220 1218
f 1180 1239 1240
f 1180 1240 1241
f 1180 1241 1273
f 1180 1274 1275
f 1180 1275 1276
f 1180 1276 1277
f 1180 1277 1278
f 1180 1273 1274
f 1180 1278 1283
f 1180 1283 1323
f 1186 1321 1189
f 1314 1322 1010
f 1220 1323 1227
f 1227 1323 1228
f 1228 1323 1229
f 1323 1230 1229
f 1230 1323 1235
f 1235 1323 1236
f 1236 1323 1237
f 1237 1323 1266
f 1266 1323 1267
f 1267 1323 1268
f 1268 1323 1269
f 1323 1270 1269
f 1323 1271 1270
f 1323 1272 1271
f 1323 1279 1272
f 1323 1280 1279
f 1323 1281 1280
f 1323 1282 1281
f 1323 1285 1282
f 1323 1286 1285
f 1323 1284 1286
f 1323 1283 1284
f 1186 1323 1321
f 1189 1321 1329
f 1309 1310 949
f 1310 1319 950
f 1311 1312 951
f 1312 1321 952
f 1308 1309 1318
f 1310 1311 1320
f 745 1335 746
f 1319 1320 980
f 1311 982 1320
f 1321 1314 1313
f 1321 1322 1314
f 1321 1323 1322
f 1308 1318 1317
f 1310 1320 1319
f 746 1335 747
f 747 1335 748
f 748 1335 749
f 749 1335 1308
f 1308 1335 1309
f 1309 1335 1310
f 1310 1335 1311
f 1311 1335 1312
f 1312 1336 1321
f 756 1334 1335
f 1177 1327 1326
f 1177 1326 1178
f 1177 1190 1327
f 1178 1326 1328
f 1326 1327 1329
f 1183 1323 1186
f 1189 1329 1190
f 1190 1329 1327
f 1178 1328 1191
f 1326 1329 1328
f 1191 1328 1215
f 1328 1329 1333
f 1321 1333 1329
f 1202 1330 1203
f 1202 1331 1330
f 1202 1215 1331
f 1203 1330 1332
f 1330 1331 1333
f 1215 1333 1331
f 1203 1332 1216
f 1330 1333 1332
f 1215 1328 1333
f 1208 1211 1336
f 1211 1214 1336
f 1214 1217 1336
f 1216 1332 1336
f 1332 1333 1336
f 1216 1336 1217
f 1312 1335 1336
f 1321 1336 1333
f 1334 1336 1335
f 9 29 7
f 10 7 8
f 9 7 10
f 9 10 43
f 10 8 45
f 16 36 17
f 19 38 18
f 16 34 36
f 50 18 38
f 39 26 25
f 40 30 26
f 39 25 43
f 39 40 26
f 40 44 30
f 39 44 40
f 41 28 27
f 42 35 28
f 41 42 28
f 41 27 47
f 41 48 42
f 42 48 35
f 43 25 29
f 44 33 30
f 45 8 31
f 9 43 29
f 39 46 44
f 44 46 47
f 43 10 45
f 39 43 76
f 46 32 49
f 39 76 46
f 47 27 33
f 48 34 35
f 48 36 34
f 48 51 36
f 49 32 37
f 44 47 33
f 41 47 48
f 47 50 48
f 48 50 53
f 46 49 47
f 47 49 50
f 50 38 54
f 53 52 51
f 54 38 52
f 48 53 51
f 53 54 52
f 50 54 53
f 57 66 55
f 58 55 56
f 57 55 58
f 57 58 75
f 58 56 77
f 71 60 59
f 62 73 61
f 74 63 61
f 65 64 92
f 50 59 18
f 80 71 59
f 82 61 73
f 82 74 61
f 46 67 32
f 75 31 66
f 45 31 75
f 43 45 76
f 46 76 67
f 45 75 76
f 79 37 70
f 50 80 59
f 49 37 79
f 49 79 50
f 50 79 81
f 50 81 80
f 76 70 67
f 77 56 68
f 78 88 69
f 57 75 66
f 75 58 77
f 75 81 76
f 75 77 78
f 75 78 81
f 78 69 81
f 77 68 93
f 77 94 78
f 80 83 71
f 81 69 72
f 82 91 74
f 76 79 70
f 76 81 79
f 80 82 85
f 80 81 82
f 81 72 95
f 82 73 86
f 81 96 82
f 85 84 83
f 86 73 84
f 80 85 83
f 85 86 84
f 85 82 86
f 95 64 90
f 95 92 64
f 93 68 87
f 94 87 88
f 78 94 88
f 93 87 94
f 77 93 94
f 95 72 89
f 95 89 92
f 96 90 91
f 82 96 91
f 95 90 96
f 81 95 96
f 222 106 352
f 141 113 108
f 142 110 109
f 143 114 110
f 146 111 113
f 144 112 111
f 145 109 112
f 147 115 114
f 148 119 115
f 149 108 116
f 150 116 117
f 151 117 118
f 143 110 142
f 143 147 114
f 146 144 111
f 144 145 112
f 145 142 109
f 141 146 113
f 147 148 115
f 141 108 149
f 149 116 150
f 150 117 151
f 151 118 158
f 141 149 146
f 146 145 144
f 146 143 145
f 143 142 145
f 143 148 147
f 143 153 148
f 149 150 151
f 149 151 146
f 146 151 143
f 152 120 119
f 153 121 120
f 154 122 121
f 155 123 122
f 156 124 123
f 148 152 119
f 152 153 120
f 153 154 121
f 154 155 122
f 155 156 123
f 156 157 124
f 148 153 152
f 143 157 153
f 153 155 154
f 153 157 155
f 155 157 156
f 159 125 126
f 158 118 125
f 160 126 127
f 161 127 128
f 162 128 129
f 163 132 130
f 196 130 177
f 164 129 131
f 165 131 132
f 158 125 159
f 160 159 126
f 160 127 161
f 161 128 162
f 151 158 159
f 151 159 161
f 160 161 159
f 143 151 163
f 151 161 163
f 161 162 164
f 163 130 196
f 162 129 164
f 164 131 165
f 165 132 163
f 161 164 163
f 164 165 163
f 157 133 124
f 166 134 133
f 167 135 134
f 168 136 135
f 169 137 136
f 170 138 137
f 171 139 138
f 172 140 139
f 173 184 140
f 157 166 133
f 166 167 134
f 167 168 135
f 168 169 136
f 169 170 137
f 157 167 166
f 143 173 157
f 157 169 167
f 167 169 168
f 157 173 169
f 170 171 138
f 171 172 139
f 172 173 140
f 169 171 170
f 169 173 171
f 171 173 172
f 97 175 365
f 176 175 174
f 176 365 175
f 176 174 225
f 208 99 98
f 208 100 99
f 208 98 188
f 215 101 100
f 216 102 101
f 217 103 102
f 218 104 103
f 219 105 104
f 220 227 105
f 197 177 178
f 198 178 179
f 199 179 180
f 200 180 181
f 201 181 182
f 202 182 183
f 196 177 197
f 197 178 198
f 198 179 199
f 163 196 197
f 163 197 199
f 197 198 199
f 143 163 281
f 199 180 200
f 200 181 201
f 201 182 202
f 163 199 209
f 199 200 201
f 199 201 209
f 201 202 209
f 203 185 184
f 204 186 185
f 205 187 186
f 206 189 187
f 207 188 189
f 173 203 184
f 203 204 185
f 173 204 203
f 143 289 173
f 173 206 204
f 204 205 186
f 204 206 205
f 205 206 187
f 206 207 189
f 207 208 188
f 173 216 206
f 206 208 207
f 206 216 208
f 209 183 190
f 210 190 191
f 211 191 192
f 212 192 193
f 213 193 194
f 214 194 195
f 202 183 209
f 209 190 210
f 210 191 211
f 209 210 211
f 163 209 281
f 209 211 213
f 211 192 212
f 212 193 213
f 213 194 214
f 211 212 213
f 209 213 281
f 213 214 279
f 208 215 100
f 215 216 101
f 216 217 102
f 217 218 103
f 218 219 104
f 219 220 105
f 143 281 289
f 208 216 215
f 173 289 216
f 216 218 217
f 216 220 218
f 218 220 219
f 216 289 220
f 107 224 392
f 225 174 221
f 225 221 222
f 225 222 385
f 226 224 223
f 226 392 224
f 312 223 306
f 226 223 312
f 232 231 261
f 233 266 234
f 277 235 236
f 238 237 305
f 307 239 415
f 241 242 309
f 311 243 419
f 244 315 245
f 317 246 247
f 249 248 322
f 250 251 323
f 326 253 423
f 286 228 227
f 287 229 228
f 288 230 229
f 233 265 266
f 289 231 230
f 290 261 231
f 277 236 278
f 279 195 254
f 280 254 255
f 281 255 256
f 282 256 257
f 283 257 258
f 284 258 259
f 285 259 260
f 214 195 279
f 279 254 280
f 280 255 281
f 213 279 281
f 279 280 281
f 281 256 282
f 282 257 283
f 283 258 284
f 284 259 285
f 281 282 283
f 281 283 285
f 283 284 285
f 281 285 297
f 220 286 227
f 286 287 228
f 287 288 229
f 288 289 230
f 290 262 261
f 289 290 231
f 291 263 262
f 292 264 263
f 293 265 264
f 293 266 265
f 293 304 266
f 220 287 286
f 220 289 287
f 287 289 288
f 281 297 289
f 290 291 262
f 291 292 263
f 292 293 264
f 289 291 290
f 289 293 291
f 291 293 292
f 294 260 267
f 295 267 268
f 296 268 269
f 297 269 270
f 298 270 271
f 299 271 272
f 300 272 273
f 301 273 274
f 285 260 294
f 294 267 295
f 295 268 296
f 296 269 297
f 297 270 298
f 285 294 295
f 285 295 297
f 295 296 297
f 297 298 299
f 298 271 299
f 299 272 300
f 300 273 301
f 297 299 302
f 299 300 301
f 299 301 302
f 302 274 275
f 303 275 276
f 303 276 277
f 303 277 278
f 303 278 309
f 297 302 289
f 302 293 289
f 301 274 302
f 302 275 303
f 237 304 305
f 240 308 433
f 309 242 310
f 293 305 304
f 293 449 305
f 312 306 307
f 312 307 430
f 449 308 305
f 303 309 310
f 302 454 293
f 302 303 454
f 303 310 454
f 454 310 311
f 293 454 449
f 244 314 315
f 317 247 318
f 319 314 313
f 319 315 314
f 319 321 315
f 320 313 316
f 320 316 317
f 320 317 318
f 320 318 323
f 319 313 320
f 248 321 322
f 251 324 323
f 252 325 460
f 319 322 321
f 319 325 322
f 319 320 477
f 320 323 475
f 475 323 324
f 475 324 326
f 319 477 325
f 477 320 478
f 478 320 479
f 479 320 475
f 97 365 347
f 370 349 348
f 382 351 350
f 354 388 353
f 107 392 355
f 356 396 357
f 359 407 358
f 411 361 360
f 379 348 369
f 379 370 348
f 373 362 375
f 374 363 378
f 375 362 364
f 373 367 362
f 376 364 366
f 376 366 365
f 377 369 367
f 375 364 376
f 373 377 367
f 373 375 376
f 373 376 377
f 176 376 365
f 176 225 376
f 376 400 377
f 378 363 368
f 379 368 371
f 374 372 363
f 379 371 370
f 380 381 372
f 378 368 379
f 374 380 372
f 374 378 380
f 378 379 380
f 377 379 369
f 377 400 379
f 379 402 380
f 380 402 384
f 382 350 381
f 384 382 381
f 384 383 382
f 384 409 383
f 380 384 381
f 222 352 385
f 354 389 388
f 356 395 396
f 399 385 386
f 400 387 388
f 400 394 387
f 225 385 399
f 225 399 376
f 376 399 404
f 376 404 400
f 399 386 403
f 401 388 389
f 401 389 390
f 402 398 391
f 400 388 401
f 400 401 379
f 402 391 413
f 379 401 406
f 379 406 402
f 401 390 405
f 226 393 392
f 403 386 393
f 404 395 394
f 226 403 393
f 400 404 394
f 399 403 446
f 399 446 404
f 226 312 403
f 312 445 403
f 403 445 446
f 404 396 395
f 405 397 396
f 405 390 397
f 406 410 398
f 404 405 396
f 402 406 398
f 401 405 406
f 404 446 405
f 446 406 405
f 446 450 406
f 406 450 451
f 359 408 407
f 411 360 410
f 413 391 407
f 413 407 408
f 413 408 409
f 384 413 409
f 402 413 384
f 414 411 410
f 414 412 411
f 414 457 412
f 406 414 410
f 414 459 457
f 406 451 414
f 451 459 414
f 240 433 416
f 417 418 437
f 421 455 420
f 252 460 422
f 466 429 428
f 307 415 430
f 446 437 418
f 446 418 438
f 311 419 443
f 445 430 431
f 446 432 437
f 446 434 432
f 449 433 308
f 449 436 433
f 448 431 435
f 447 435 434
f 312 430 445
f 445 431 448
f 446 447 434
f 445 447 446
f 448 435 447
f 445 448 447
f 450 438 439
f 451 440 455
f 451 441 440
f 453 439 442
f 452 442 441
f 446 438 450
f 450 439 453
f 451 452 441
f 450 452 451
f 453 442 452
f 450 453 452
f 449 444 436
f 454 311 443
f 454 443 444
f 449 454 444
f 421 456 455
f 459 455 456
f 459 456 457
f 451 455 459
f 326 423 462
f 477 425 424
f 477 426 425
f 478 427 426
f 479 428 427
f 477 424 465
f 480 466 428
f 477 460 325
f 477 461 460
f 477 465 461
f 475 326 462
f 475 462 463
f 476 463 464
f 785 464 759
f 475 463 476
f 476 464 785
f 475 476 785
f 477 478 426
f 478 479 427
f 479 480 428
f 480 467 466
f 481 468 467
f 482 469 468
f 483 470 469
f 484 471 470
f 485 472 471
f 486 473 472
f 487 474 473
f 488 766 474
f 480 481 467
f 481 482 468
f 482 483 469
f 483 484 470
f 479 481 480
f 479 483 481
f 481 483 482
f 479 487 483
f 483 485 484
f 484 485 471
f 485 486 472
f 486 487 473
f 483 487 485
f 485 487 486
f 479 798 487
f 487 488 474
f 487 792 488
f 493 490 489
f 494 882 490
f 896 489 881
f 494 490 493
f 493 489 896
f 494 897 882
f 494 493 896
f 494 896 897
f 495 492 491
f 496 887 492
f 901 491 886
f 496 492 495
f 495 491 901
f 496 902 887
f 496 495 902
f 495 901 902
f 786 759 760
f 787 760 761
f 788 761 762
f 789 762 763
f 790 763 764
f 791 764 765
f 785 759 786
f 786 760 787
f 787 761 788
f 788 762 789
f 475 785 787
f 785 786 787
f 475 787 791
f 787 788 789
f 479 475 845
f 789 763 790
f 790 764 791
f 791 765 799
f 787 789 791
f 789 790 791
f 475 791 845
f 792 767 766
f 793 768 767
f 794 769 768
f 795 770 769
f 796 771 770
f 797 772 771
f 488 792 766
f 792 793 767
f 793 794 768
f 794 795 769
f 487 794 792
f 792 794 793
f 487 798 794
f 794 796 795
f 795 796 770
f 796 797 771
f 797 798 772
f 794 798 796
f 796 798 797
f 799 765 773
f 800 773 774
f 801 774 775
f 802 775 776
f 803 776 777
f 804 777 778
f 799 773 800
f 800 774 801
f 801 775 802
f 791 799 800
f 791 800 802
f 800 801 802
f 802 776 803
f 803 777 804
f 804 778 844
f 791 802 845
f 802 803 804
f 802 804 845
f 798 779 772
f 805 780 779
f 806 781 780
f 807 782 781
f 808 783 782
f 809 784 783
f 798 805 779
f 805 806 780
f 806 807 781
f 479 866 798
f 798 806 805
f 798 808 806
f 806 808 807
f 479 845 866
f 807 808 782
f 808 809 783
f 809 810 784
f 798 851 808
f 808 810 809
f 808 851 810
f 844 778 811
f 845 811 812
f 846 812 813
f 847 813 814
f 848 814 815
f 849 815 816
f 856 816 823
f 844 811 845
f 845 812 846
f 846 813 847
f 804 844 845
f 845 846 847
f 847 814 848
f 848 815 849
f 849 816 856
f 845 847 849
f 847 848 849
f 845 849 859
f 810 817 784
f 850 818 817
f 851 819 818
f 852 820 819
f 853 821 820
f 854 822 821
f 855 830 822
f 810 850 817
f 850 851 818
f 851 852 819
f 810 851 850
f 798 866 851
f 851 853 852
f 852 853 820
f 853 854 821
f 854 855 822
f 851 855 853
f 853 855 854
f 851 866 855
f 857 823 824
f 858 824 825
f 859 825 826
f 860 826 827
f 861 827 828
f 862 828 829
f 856 823 857
f 857 824 858
f 858 825 859
f 859 826 860
f 849 856 857
f 849 857 859
f 845 859 963
f 857 858 859
f 860 827 861
f 861 828 862
f 862 829 867
f 859 860 861
f 859 861 867
f 861 862 867
f 863 831 830
f 864 832 831
f 865 833 832
f 866 838 833
f 867 829 834
f 868 834 835
f 869 835 836
f 962 836 837
f 870 839 838
f 871 840 839
f 872 841 840
f 873 842 841
f 874 843 842
f 845 963 866
f 855 863 830
f 864 831 863
f 864 865 832
f 865 866 833
f 855 864 863
f 855 866 864
f 864 866 865
f 867 834 868
f 868 835 869
f 869 836 962
f 859 867 963
f 867 868 869
f 867 869 963
f 963 967 866
f 866 870 838
f 871 872 840
f 870 871 839
f 872 873 841
f 873 874 842
f 875 843 874
f 866 871 870
f 866 873 871
f 967 873 866
f 871 873 872
f 875 874 873
f 875 873 967
f 878 877 876
f 878 879 877
f 895 881 880
f 898 880 883
f 899 883 884
f 895 896 881
f 895 880 898
f 895 898 896
f 896 900 897
f 898 883 899
f 898 899 896
f 896 899 907
f 896 907 900
f 897 886 882
f 903 885 888
f 897 901 886
f 897 900 901
f 901 904 902
f 900 885 903
f 900 903 901
f 901 903 909
f 901 909 904
f 906 884 891
f 905 891 890
f 899 884 906
f 905 906 891
f 899 906 927
f 899 927 907
f 900 892 885
f 904 894 889
f 908 888 893
f 907 893 892
f 900 907 892
f 903 888 908
f 904 909 894
f 903 908 909
f 907 908 893
f 902 910 887
f 913 911 910
f 914 889 911
f 902 913 910
f 902 904 913
f 904 889 914
f 904 914 913
f 913 914 911
f 909 912 894
f 909 915 912
f 925 890 916
f 926 916 917
f 905 890 925
f 905 925 906
f 925 926 906
f 906 926 927
f 925 916 926
f 926 917 929
f 926 929 932
f 927 923 918
f 928 918 919
f 907 927 908
f 927 909 908
f 927 928 909
f 909 928 937
f 927 918 928
f 927 932 923
f 926 932 927
f 928 919 933
f 928 939 937
f 928 933 939
f 929 917 920
f 930 922 921
f 929 920 932
f 930 931 922
f 932 920 923
f 933 919 924
f 939 924 936
f 933 924 939
f 915 935 912
f 937 936 934
f 938 934 935
f 909 937 915
f 937 938 915
f 915 938 935
f 937 934 938
f 937 939 936
f 758 940 837
f 961 946 945
f 947 975 948
f 982 951 952
f 963 940 941
f 964 941 942
f 965 942 943
f 965 943 944
f 962 837 940
f 965 944 955
f 981 945 949
f 973 961 945
f 962 940 963
f 963 941 964
f 964 942 965
f 966 954 953
f 967 959 954
f 968 955 956
f 969 956 957
f 970 957 958
f 972 958 960
f 971 960 959
f 875 953 843
f 875 966 953
f 966 967 954
f 965 955 968
f 968 956 969
f 969 957 970
f 970 958 972
f 971 972 960
f 971 959 967
f 869 962 963
f 963 964 965
f 963 965 969
f 963 969 967
f 875 967 966
f 965 968 969
f 969 970 972
f 967 969 972
f 971 967 972
f 973 974 961
f 973 975 974
f 973 945 981
f 973 981 978
f 974 975 947
f 879 977 877
f 978 876 976
f 878 876 978
f 878 979 879
f 879 979 977
f 878 978 979
f 973 976 975
f 973 978 976
f 981 986 978
f 978 986 979
f 979 986 999
f 981 949 950
f 981 950 980
f 981 980 986
f 983 982 952
f 986 980 982
f 986 982 983
f 986 983 984
f 931 989 922
f 999 921 988
f 930 921 999
f 930 1000 931
f 931 1000 989
f 930 999 1000
f 979 988 977
f 979 999 988
f 999 986 1007
f 1000 990 989
f 1001 991 990
f 1002 992 991
f 1003 993 992
f 1004 994 993
f 1005 995 994
f 1006 996 995
f 1007 997 996
f 1008 998 997
f 1000 1001 990
f 1001 1002 991
f 1000 1002 1001
f 1000 1003 1002
f 1002 1003 992
f 1003 1004 993
f 1004 1005 994
f 1005 1006 995
f 999 1007 1000
f 1000 1007 1003
f 1003 1005 1004
f 1003 1007 1005
f 1005 1007 1006
f 1006 1007 996
f 1007 1008 997
f 1008 1009 998
f 1007 1009 1008
f 1007 1026 1009
f 1024 985 1010
f 987 985 1024
f 986 987 1007
f 987 1024 1007
f 1009 1011 998
f 1025 1012 1011
f 1026 1013 1012
f 1027 1014 1013
f 1028 1015 1014
f 1029 1016 1015
f 1030 1017 1016
f 1031 1018 1017
f 1009 1025 1011
f 1025 1026 1012
f 1026 1027 1013
f 1027 1028 1014
f 1009 1026 1025
f 1007 1030 1026
f 1026 1028 1027
f 1026 1030 1028
f 1028 1029 1015
f 1029 1030 1016
f 1030 1031 1017
f 1031 1032 1018
f 1028 1030 1029
f 1007 1245 1030
f 1030 1032 1031
f 1032 1019 1018
f 1033 1020 1019
f 1034 1021 1020
f 1035 1022 1021
f 1036 1023 1022
f 1037 1221 1023
f 1024 1296 1007
f 1032 1033 1019
f 1033 1034 1020
f 1034 1035 1021
f 1030 1034 1032
f 1032 1034 1033
f 1030 1245 1034
f 1035 1036 1022
f 1036 1037 1023
f 1037 1245 1221
f 1034 1036 1035
f 1034 1245 1036
f 1036 1245 1037
f 987 1314 985
f 986 984 1315
f 986 1315 987
f 1315 984 1313
f 987 1316 1314
f 987 1315 1316
f 1242 1219 1218
f 1244 1218 1220
f 1024 1010 1324
f 1024 1243 1252
f 1242 1243 1219
f 1242 1218 1244
f 1024 1252 1289
f 1242 1244 1243
f 1243 1244 1252
f 1245 1222 1221
f 1246 1223 1222
f 1247 1224 1223
f 1248 1225 1224
f 1249 1226 1225
f 1250 1231 1226
f 1245 1246 1222
f 1246 1247 1223
f 1247 1248 1224
f 1007 1296 1245
f 1245 1247 1246
f 1245 1249 1247
f 1024 1289 1296
f 1248 1249 1225
f 1249 1250 1226
f 1250 1255 1231
f 1247 1249 1248
f 1245 1257 1249
f 1249 1255 1250
f 1251 1220 1227
f 1252 1227 1228
f 1253 1228 1229
f 1254 1229 1230
f 1243 1323 1219
f 1244 1220 1251
f 1251 1227 1252
f 1252 1228 1253
f 1253 1229 1254
f 1024 1325 1243
f 1244 1251 1252
f 1252 1253 1254
f 1254 1230 1259
f 1252 1254 1260
f 1255 1232 1231
f 1256 1233 1232
f 1257 1234 1233
f 1259 1230 1235
f 1260 1235 1236
f 1261 1236 1237
f 1287 1237 1266
f 1258 1238 1234
f 1262 1239 1238
f 1263 1240 1239
f 1264 1241 1240
f 1265 1273 1241
f 1255 1256 1232
f 1257 1233 1256
f 1257 1258 1234
f 1249 1257 1255
f 1245 1296 1257
f 1255 1257 1256
f 1257 1262 1258
f 1259 1235 1260
f 1260 1236 1261
f 1261 1237 1287
f 1254 1259 1260
f 1252 1260 1289
f 1260 1261 1287
f 1258 1262 1238
f 1262 1263 1239
f 1263 1264 1240
f 1264 1265 1241
f 1257 1264 1262
f 1262 1264 1263
f 1257 1296 1264
f 1294 1265 1264
f 1324 1010 1322
f 1024 1324 1325
f 1288 1266 1267
f 1289 1267 1268
f 1290 1268 1269
f 1291 1269 1270
f 1292 1270 1271
f 1293 1271 1272
f 1295 1275 1274
f 1294 1274 1273
f 1296 1276 1275
f 1297 1277 1276
f 1298 1278 1277
f 1299 1283 1278
f 1300 1272 1279
f 1301 1279 1280
f 1302 1280 1281
f 1303 1281 1282
f 1306 1282 1285
f 1304 1284 1283
f 1305 1286 1284
f 1307 1285 1286
f 1287 1266 1288
f 1288 1267 1289
f 1289 1268 1290
f 1290 1269 1291
f 1291 1270 1292
f 1292 1271 1293
f 1293 1272 1300
f 1260 1287 1289
f 1287 1288 1289
f 1289 1290 1291
f 1289 1291 1293
f 1289 1303 1296
f 1291 1292 1293
f 1289 1293 1303
f 1295 1296 1275
f 1294 1273 1265
f 1294 1295 1274
f 1297 1276 1296
f 1304 1283 1299
f 1297 1298 1277
f 1298 1299 1278
f 1294 1264 1296
f 1294 1296 1295
f 1297 1296 1298
f 1304 1296 1303
f 1304 1298 1296
f 1304 1299 1298
f 1300 1279 1301
f 1301 1280 1302
f 1302 1281 1303
f 1303 1282 1306
f 1293 1300 1301
f 1293 1301 1303
f 1301 1302 1303
f 1305 1307 1286
f 1305 1284 1304
f 1306 1285 1307
f 1304 1303 1307
f 1305 1304 1307
f 1303 1306 1307
f 1243 1325 1323
f 1316 1313 1314
f 1315 1313 1316
f 1325 1322 1323
f 1324 1322 1325

