# https://github.com/mikedh/trimesh
v 0.60000002 0.60000002 0.00000000
v 0.00000000 0.60000002 0.60000002
v 0.60000002 0.00000000 0.60000002
v 0.00000000 0.60000002 4.40000010
v 0.60000002 0.00000000 4.40000010
v 0.60000002 0.60000002 5.00000000
v 0.19999985 29.62500000 4.59999990
v 0.19999985 29.97500038 4.59999990
v 0.19999985 32.22499847 4.59999990
v 0.19999985 32.57500076 4.59999990
v 0.19999985 34.82500076 4.59999990
v 0.60000002 29.62500000 5.00000000
v 0.60000002 29.97500038 5.00000000
v 0.60000002 32.22499847 5.00000000
v 0.60000002 32.57500076 5.00000000
v 0.60000002 34.82500076 5.00000000
v 1.73156166 30.47703934 5.00000000
v 2.17703891 30.03156090 5.00000000
v 1.73156166 30.47703934 5.50000000
v 2.17703891 30.03156090 5.50000000
v 1.73156166 31.72296143 5.00000000
v 2.17703891 32.16843796 5.00000000
v 2.35452271 31.10000038 5.00000000
v 1.73156166 31.72296143 5.50000000
v 2.17703891 32.16843796 5.50000000
v 2.35452271 31.10000038 5.50000000
v 3.42296100 30.03156090 5.00000000
v 3.42296100 30.03156090 5.50000000
v 2.79999995 30.65452194 5.00000000
v 2.79999995 31.54547691 5.00000000
v 3.24547720 31.10000038 5.00000000
v 3.42296100 32.16843796 5.00000000
v 2.79999995 30.65452194 5.50000000
v 2.79999995 31.54547691 5.50000000
v 3.24547720 31.10000038 5.50000000
v 3.42296100 32.16843796 5.50000000
v 3.86843824 30.47703934 5.00000000
v 3.86843824 30.47703934 5.50000000
v 3.86843824 31.72296143 5.00000000
v 3.86843824 31.72296143 5.50000000
v 6.03184509 29.97500038 4.59999990
v 6.08530140 29.95525551 4.59999990
v 6.17414808 29.92878723 4.59999990
v 6.26653099 29.90733337 4.59999990
v 6.36205482 29.89098740 4.59999990
v 6.46031046 29.87981987 4.59999990
v 6.56087685 29.87387466 4.59999990
v 6.66332388 29.87318230 4.59999990
v 6.76721287 29.87774277 4.59999990
v 6.87209845 29.88753700 4.59999990
v 6.97753143 29.90252304 4.59999990
v 7.08306122 29.92263603 4.59999990
v 7.18823481 29.94779205 4.59999990
v 7.28261232 29.97500038 4.59999990
v 6.71738720 32.22499847 4.59999990
v 6.81176519 32.25220871 4.59999990
v 6.91693878 32.27736282 4.59999990
v 7.02246857 32.29747772 4.59999990
v 7.12790155 32.31246185 4.59999990
v 7.23278713 32.32225800 4.59999990
v 7.33667612 32.32681656 4.59999990
v 7.43912315 32.32612610 4.59999990
v 5.41381836 30.60320473 5.00000000
v 5.46558046 30.46098900 5.00000000
v 5.43635130 30.53087807 5.00000000
v 5.54359722 30.32970619 5.00000000
v 5.50137997 30.39383698 5.00000000
v 5.59205055 30.26887703 5.00000000
v 5.64653349 30.21160507 5.00000000
v 5.70681143 30.15813828 5.00000000
v 5.77262735 30.10870361 5.00000000
v 5.84369946 30.06351471 5.00000000
v 5.91972256 30.02276421 5.00000000
v 6.00037146 29.98662567 5.00000000
v 6.03184509 29.97500038 5.00000000
v 5.41381836 30.60320473 5.50000000
v 5.46558046 30.46098900 5.50000000
v 5.43635130 30.53087807 5.50000000
v 5.54359722 30.32970619 5.50000000
v 5.50137997 30.39383698 5.50000000
v 5.59205055 30.26887703 5.50000000
v 5.64653349 30.21160507 5.50000000
v 5.70681143 30.15813828 5.50000000
v 5.77262735 30.10870361 5.50000000
v 5.84369946 30.06351471 5.50000000
v 5.91972256 30.02276421 5.50000000
v 6.00037146 29.98662567 5.50000000
v 6.08530140 29.95525551 5.50000000
v 6.17414808 29.92878723 5.50000000
v 5.38919592 30.75392151 5.00000000
v 5.38721228 30.83166504 5.00000000
v 5.39807701 30.67765808 5.00000000
v 5.39213514 30.91055870 5.00000000
v 5.40394258 30.99026299 5.00000000
v 5.42258501 31.07043839 5.00000000
v 5.44798183 31.15073776 5.00000000
v 5.48002481 31.23082161 5.00000000
v 5.51857662 31.31034660 5.00000000
v 5.56347227 31.38896942 5.00000000
v 5.61451912 31.46635437 5.00000000
v 5.67149878 31.54217148 5.00000000
v 5.73416758 31.61609459 5.00000000
v 5.80225658 31.68780708 5.00000000
v 5.87547445 31.75700378 5.00000000
v 5.95350790 31.82338524 5.00000000
v 6.03602266 31.88667107 5.00000000
v 6.12266493 31.94658661 5.00000000
v 6.21306419 32.00288010 5.00000000
v 5.38919592 30.75392151 5.50000000
v 5.38721228 30.83166504 5.50000000
v 5.39807701 30.67765808 5.50000000
v 5.39213514 30.91055870 5.50000000
v 5.40394258 30.99026299 5.50000000
v 5.42258501 31.07043839 5.50000000
v 5.44798183 31.15073776 5.50000000
v 5.48002481 31.23082161 5.50000000
v 5.51857662 31.31034660 5.50000000
v 5.56347227 31.38896942 5.50000000
v 5.61451912 31.46635437 5.50000000
v 5.67149878 31.54217148 5.50000000
v 5.73416758 31.61609459 5.50000000
v 5.80225658 31.68780708 5.50000000
v 5.87547445 31.75700378 5.50000000
v 5.95350790 31.82338524 5.50000000
v 6.03602266 31.88667107 5.50000000
v 6.12266493 31.94658661 5.50000000
v 6.21306419 32.00288010 5.50000000
v 7.28261232 29.97500038 5.00000000
v 7.29260254 29.97788048 5.00000000
v 7.39571714 30.01277542 5.00000000
v 7.49713755 30.05232620 5.00000000
v 6.26653099 29.90733337 5.50000000
v 6.36205482 29.89098740 5.50000000
v 6.46031046 29.87981987 5.50000000
v 6.56087685 29.87387466 5.50000000
v 6.66332388 29.87318230 5.50000000
v 6.76721287 29.87774277 5.50000000
v 6.87209845 29.88753700 5.50000000
v 6.97753143 29.90252304 5.50000000
v 7.08306122 29.92263603 5.50000000
v 7.18823481 29.94779205 5.50000000
v 7.29260254 29.97788048 5.50000000
v 7.39571714 30.01277542 5.50000000
v 7.49713755 30.05232620 5.50000000
v 6.30683374 32.05530167 5.00000000
v 6.40357113 32.10363770 5.00000000
v 6.50286245 32.14767456 5.00000000
v 6.60428286 32.18722534 5.00000000
v 6.71738720 32.22499847 5.00000000
v 6.70739746 32.22211838 5.00000000
v 6.30683374 32.05530167 5.50000000
v 6.40357113 32.10363770 5.50000000
v 6.50286245 32.14767456 5.50000000
v 6.60428286 32.18722534 5.50000000
v 6.70739746 32.22211838 5.50000000
v 6.81176519 32.25220871 5.50000000
v 6.91693878 32.27736282 5.50000000
v 7.02246857 32.29747772 5.50000000
v 7.12790155 32.31246185 5.50000000
v 7.23278713 32.32225800 5.50000000
v 7.33667612 32.32681656 5.50000000
v 7.43912315 32.32612610 5.50000000
v 7.53968954 32.32018280 4.59999990
v 7.63794518 32.30901337 4.59999990
v 7.73346901 32.29266739 4.59999990
v 7.91469860 32.24474335 4.59999990
v 7.96815825 32.22499847 4.59999990
v 7.82585192 32.27121353 4.59999990
v 8.11294460 32.22499847 4.59999990
v 8.11294460 32.57500076 4.59999990
v 8.11294460 34.82500076 4.59999990
v 8.61294460 32.22499847 4.59999990
v 8.61294460 32.57500076 4.59999990
v 8.61294460 34.82500076 4.59999990
v 9.38705540 32.22499847 4.59999990
v 9.38705540 32.57500076 4.59999990
v 9.88705540 32.22499847 4.59999990
v 9.88705540 32.57500076 4.59999990
v 9.38705540 34.82500076 4.59999990
v 9.88705540 34.82500076 4.59999990
v 7.59642887 30.09636307 5.00000000
v 7.69316626 30.14469719 5.00000000
v 7.78693581 30.19712067 5.00000000
v 7.87733507 30.25341225 5.00000000
v 7.96397734 30.31332970 5.00000000
v 8.04649258 30.37661362 5.00000000
v 8.12452507 30.44299698 5.00000000
v 8.19774342 30.51219368 5.00000000
v 8.26583290 30.58390617 5.00000000
v 7.59642887 30.09636307 5.50000000
v 7.69316626 30.14469719 5.50000000
v 7.78693581 30.19712067 5.50000000
v 7.87733507 30.25341225 5.50000000
v 7.96397734 30.31332970 5.50000000
v 8.04649258 30.37661362 5.50000000
v 8.12452507 30.44299698 5.50000000
v 8.19774342 30.51219368 5.50000000
v 8.26583290 30.58390617 5.50000000
v 7.96815825 32.22499847 5.00000000
v 7.99962854 32.21337509 5.00000000
v 8.08027744 32.17723846 5.00000000
v 8.11294460 32.15972519 5.00000000
v 8.11294460 32.22499847 5.00000000
v 8.11294460 32.57500076 5.00000000
v 8.11294460 34.82500076 5.00000000
v 8.32850075 30.65782928 5.00000000
v 8.38548088 30.73364639 5.00000000
v 8.43652821 30.81103134 5.00000000
v 8.48142338 30.88965416 5.00000000
v 8.51997471 30.96917725 5.00000000
v 8.55201817 31.04926109 5.00000000
v 8.56806564 31.10000038 5.00000000
v 8.61294460 31.10000038 5.00000000
v 8.61294460 32.22499847 5.00000000
v 8.61294460 32.57500076 5.00000000
v 8.61294460 34.82500076 5.00000000
v 7.53968954 32.32018280 5.50000000
v 7.63794518 32.30901337 5.50000000
v 7.73346901 32.29266739 5.50000000
v 7.91469860 32.24474335 5.50000000
v 7.82585192 32.27121353 5.50000000
v 7.99962854 32.21337509 5.50000000
v 8.08027744 32.17723846 5.50000000
v 8.11294460 32.15972519 5.50000000
v 8.32850075 30.65782928 5.50000000
v 8.38548088 30.73364639 5.50000000
v 8.43652821 30.81103134 5.50000000
v 8.48142338 30.88965416 5.50000000
v 8.51997471 30.96917725 5.50000000
v 8.55201817 31.04926109 5.50000000
v 8.56806564 31.10000038 5.50000000
v 8.61294460 31.10000038 5.50000000
v 9.38705540 31.10000038 5.00000000
v 9.38705540 32.22499847 5.00000000
v 9.38705540 32.57500076 5.00000000
v 9.88705540 31.10000038 5.00000000
v 9.88705540 32.22499847 5.00000000
v 9.88705540 32.57500076 5.00000000
v 9.38705540 34.82500076 5.00000000
v 9.88705540 34.82500076 5.00000000
v 9.38705540 31.10000038 5.50000000
v 9.88705540 31.10000038 5.50000000
v 0.60000002 69.40000153 0.00000000
v 0.00000000 69.40000153 0.60000002
v 0.60000002 70.00000000 0.60000002
v 0.19999985 35.17499924 4.59999990
v 0.19999985 37.42499924 4.59999990
v 0.19999985 37.77500153 4.59999990
v 0.19999985 40.02500153 4.59999990
v 0.19999985 40.37500000 4.59999990
v 0.60000002 35.17499924 5.00000000
v 0.60000002 37.42499924 5.00000000
v 0.60000002 37.77500153 5.00000000
v 0.60000002 40.02500153 5.00000000
v 0.60000002 40.37500000 5.00000000
v 0.00000000 69.40000153 4.40000010
v 0.60000002 70.00000000 4.40000010
v 0.60000002 69.40000153 5.00000000
v 4.69484615 56.50000000 4.59999990
v 4.69484615 60.34999847 4.59999990
v 4.69484615 56.50000000 5.00000000
v 4.69484615 61.65000153 4.59999990
v 4.69484615 64.19999695 4.59999990
v 4.69484615 65.50000000 4.59999990
v 4.69484615 65.50000000 5.00000000
v 6.17952394 40.02500153 4.59999990
v 6.17952299 40.37500000 4.59999990
v 6.35452271 40.20000076 4.59999990
v 7.24547720 40.20000076 4.59999990
v 7.42047596 40.02500153 4.59999990
v 7.42047691 40.37500000 4.59999990
v 6.17703915 39.13156128 5.00000000
v 6.17703915 39.13156128 5.50000000
v 5.73156166 39.57703781 5.00000000
v 5.73156166 40.82295990 5.00000000
v 6.17952394 40.02500153 5.00000000
v 6.17952299 40.37500000 5.00000000
v 6.17703915 41.26844025 5.00000000
v 5.73156166 39.57703781 5.50000000
v 5.73156166 40.82295990 5.50000000
v 6.17703915 41.26844025 5.50000000
v 7.42296124 39.13156128 5.00000000
v 7.42296124 39.13156128 5.50000000
v 6.80000019 39.75452423 5.00000000
v 6.80000019 40.64547729 5.00000000
v 7.42047596 40.02500153 5.00000000
v 7.42047691 40.37500000 5.00000000
v 7.42296124 41.26844025 5.00000000
v 6.35452271 40.20000076 5.50000000
v 6.80000019 39.75452423 5.50000000
v 6.80000019 40.64547729 5.50000000
v 7.24547720 40.20000076 5.50000000
v 7.42296124 41.26844025 5.50000000
v 8.11294460 35.17499924 4.59999990
v 8.11294460 37.42499924 4.59999990
v 8.11294460 37.77500153 4.59999990
v 8.61294460 35.17499924 4.59999990
v 8.61294460 37.42499924 4.59999990
v 8.61294460 37.77500153 4.59999990
v 9.38705540 35.17499924 4.59999990
v 9.88705540 35.17499924 4.59999990
v 9.38705540 37.42499924 4.59999990
v 9.38705540 37.77500153 4.59999990
v 9.88705540 37.42499924 4.59999990
v 9.88705540 37.77500153 4.59999990
v 9.38705540 40.02500153 4.59999990
v 9.38705540 40.20000076 4.59999990
v 9.43193436 40.20000076 4.59999990
v 9.44798183 40.25074005 4.59999990
v 9.48002529 40.33082199 4.59999990
v 9.50144100 40.37500000 4.59999990
v 8.11294460 35.17499924 5.00000000
v 8.11294460 37.42499924 5.00000000
v 8.11294460 37.77500153 5.00000000
v 8.61294460 35.17499924 5.00000000
v 8.61294460 37.42499924 5.00000000
v 8.61294460 37.77500153 5.00000000
v 7.86843824 39.57703781 5.00000000
v 8.11294460 39.40000153 5.00000000
v 7.86843824 40.82295990 5.00000000
v 8.61294460 39.40000153 5.00000000
v 7.86843824 39.57703781 5.50000000
v 8.11294460 39.40000153 5.50000000
v 7.86843824 40.82295990 5.50000000
v 8.61294460 39.40000153 5.50000000
v 9.38705540 35.17499924 5.00000000
v 9.88705540 35.17499924 5.00000000
v 9.38705540 37.42499924 5.00000000
v 9.38705540 37.77500153 5.00000000
v 9.88705540 37.42499924 5.00000000
v 9.88705540 37.77500153 5.00000000
v 9.88705540 39.14027405 5.00000000
v 9.91972256 39.12276459 5.00000000
v 9.88705540 39.14027405 5.50000000
v 9.91972256 39.12276459 5.50000000
v 9.38705540 40.02500153 5.00000000
v 9.50144100 40.37500000 5.00000000
v 9.51857662 40.41034698 5.00000000
v 9.56347179 40.48896790 5.00000000
v 9.61451912 40.56635284 5.00000000
v 9.67149925 40.64216995 5.00000000
v 9.73416710 40.71609497 5.00000000
v 9.80225658 40.78780746 5.00000000
v 9.87547493 40.85700226 5.00000000
v 9.95350742 40.92338562 5.00000000
v 9.38705540 40.20000076 5.50000000
v 9.43193436 40.20000076 5.50000000
v 9.44798183 40.25074005 5.50000000
v 9.48002529 40.33082199 5.50000000
v 9.51857662 40.41034698 5.50000000
v 9.56347179 40.48896790 5.50000000
v 9.61451912 40.56635284 5.50000000
v 9.67149925 40.64216995 5.50000000
v 9.73416710 40.71609497 5.50000000
v 9.80225658 40.78780746 5.50000000
v 9.87547493 40.85700226 5.50000000
v 9.95350742 40.92338562 5.50000000
v 9.73156166 48.67704010 5.00000000
v 9.73156166 49.92296219 5.00000000
v 9.73156166 48.67704010 5.50000000
v 9.73156166 49.92296219 5.50000000
v 5.99484634 56.50000000 4.59999990
v 5.99484634 60.34999847 4.59999990
v 5.99484634 56.50000000 5.00000000
v 5.99484634 60.34999847 5.00000000
v 5.99484634 61.65000153 4.59999990
v 5.99484634 64.19999695 4.59999990
v 5.99484634 65.50000000 4.59999990
v 5.99484634 61.65000153 5.00000000
v 5.99484634 64.19999695 5.00000000
v 19.39999962 0.60000002 0.00000000
v 19.39999962 0.00000000 0.60000002
v 20.00000000 0.60000002 0.60000002
v 19.39999962 0.00000000 4.40000010
v 20.00000000 0.60000002 4.40000010
v 19.39999962 0.60000002 5.00000000
v 19.79999924 29.62500000 4.59999990
v 19.79999924 29.97500038 4.59999990
v 19.79999924 32.22499847 4.59999990
v 19.79999924 32.57500076 4.59999990
v 19.79999924 34.82500076 4.59999990
v 19.39999962 29.62500000 5.00000000
v 19.39999962 29.97500038 5.00000000
v 19.39999962 32.22499847 5.00000000
v 19.39999962 32.57500076 5.00000000
v 19.39999962 34.82500076 5.00000000
v 19.39999962 69.40000153 0.00000000
v 19.39999962 70.00000000 0.60000002
v 20.00000000 69.40000153 0.60000002
v 12.49855900 40.02500153 4.59999990
v 10.00037193 39.08662415 5.00000000
v 10.08530140 39.05525589 5.00000000
v 10.17414761 39.02878571 5.00000000
v 10.26653099 39.00733185 5.00000000
v 10.36205482 38.99098587 5.00000000
v 10.46030998 38.97982025 5.00000000
v 10.56087685 38.97387695 5.00000000
v 10.66332436 38.97318268 5.00000000
v 10.76721287 38.97774124 5.00000000
v 10.87209797 38.98753738 5.00000000
v 10.97753143 39.00252151 5.00000000
v 11.08306122 39.02263641 5.00000000
v 11.18823433 39.04779053 5.00000000
v 10.00037193 39.08662415 5.50000000
v 10.08530140 39.05525589 5.50000000
v 10.17414761 39.02878571 5.50000000
v 10.26653099 39.00733185 5.50000000
v 10.36205482 38.99098587 5.50000000
v 10.46030998 38.97982025 5.50000000
v 10.56087685 38.97387695 5.50000000
v 10.66332436 38.97318268 5.50000000
v 10.76721287 38.97774124 5.50000000
v 10.87209797 38.98753738 5.50000000
v 10.97753143 39.00252151 5.50000000
v 11.08306122 39.02263641 5.50000000
v 11.18823433 39.04779053 5.50000000
v 10.03602219 40.98667145 5.00000000
v 10.12266541 41.04658890 5.00000000
v 10.21306419 41.10287857 5.00000000
v 10.30683327 41.15530396 5.00000000
v 10.40357113 41.20363617 5.00000000
v 10.50286198 41.24767303 5.00000000
v 10.60428238 41.28722382 5.00000000
v 10.70739746 41.32212067 5.00000000
v 10.81176567 41.35220718 5.00000000
v 10.91693878 41.37736511 5.00000000
v 11.02246857 41.39747620 5.00000000
v 11.12790203 41.41246414 5.00000000
v 11.23278713 41.42225647 5.00000000
v 10.03602219 40.98667145 5.50000000
v 10.12266541 41.04658890 5.50000000
v 10.21306419 41.10287857 5.50000000
v 10.30683327 41.15530396 5.50000000
v 10.40357113 41.20363617 5.50000000
v 10.50286198 41.24767303 5.50000000
v 10.60428238 41.28722382 5.50000000
v 10.70739746 41.32212067 5.50000000
v 10.81176567 41.35220718 5.50000000
v 10.91693878 41.37736511 5.50000000
v 11.02246857 41.39747620 5.50000000
v 11.12790203 41.41246414 5.50000000
v 11.23278713 41.42225647 5.50000000
v 11.29260254 39.07788086 5.00000000
v 11.39571762 39.11277390 5.00000000
v 11.49713802 39.15232468 5.00000000
v 11.59642887 39.19636154 5.00000000
v 11.69316673 39.24469757 5.00000000
v 11.78693581 39.29712296 5.00000000
v 11.87733459 39.35341263 5.00000000
v 11.29260254 39.07788086 5.50000000
v 11.39571762 39.11277390 5.50000000
v 11.49713802 39.15232468 5.50000000
v 11.59642887 39.19636154 5.50000000
v 11.69316673 39.24469757 5.50000000
v 11.78693581 39.29712296 5.50000000
v 11.87733459 39.35341263 5.50000000
v 11.33667564 41.42681885 5.00000000
v 11.43912315 41.42612457 5.00000000
v 11.53969002 41.42018127 5.00000000
v 11.63794518 41.40901184 5.00000000
v 11.73346901 41.39266586 5.00000000
v 11.82585239 41.37121201 5.00000000
v 11.96397781 39.41333008 5.00000000
v 12.04649258 39.47661591 5.00000000
v 12.12452507 39.54299545 5.00000000
v 11.91469860 41.34474564 5.00000000
v 11.99962807 41.31337357 5.00000000
v 12.08027744 41.27723694 5.00000000
v 12.15630054 41.23648453 5.00000000
v 12.19774342 39.61219406 5.00000000
v 12.26583290 39.68390656 5.00000000
v 12.32850075 39.75782776 5.00000000
v 12.38548088 39.83364487 5.00000000
v 12.43652821 39.91102982 5.00000000
v 12.48142338 39.98965454 5.00000000
v 12.49855900 40.02500153 5.00000000
v 12.22737217 41.19129562 5.00000000
v 12.29318810 41.14186096 5.00000000
v 12.45640278 40.97029114 5.00000000
v 12.49862003 40.90616226 5.00000000
v 12.35346699 41.08839417 5.00000000
v 12.40794945 41.03112411 5.00000000
v 12.39999962 42.54999924 5.00000000
v 12.39999962 43.04999924 5.00000000
v 11.33667564 41.42681885 5.50000000
v 11.43912315 41.42612457 5.50000000
v 11.53969002 41.42018127 5.50000000
v 11.63794518 41.40901184 5.50000000
v 11.73346901 41.39266586 5.50000000
v 11.82585239 41.37121201 5.50000000
v 11.96397781 39.41333008 5.50000000
v 12.04649258 39.47661591 5.50000000
v 12.12452507 39.54299545 5.50000000
v 11.91469860 41.34474564 5.50000000
v 11.99962807 41.31337357 5.50000000
v 12.08027744 41.27723694 5.50000000
v 12.15630054 41.23648453 5.50000000
v 12.19774342 39.61219406 5.50000000
v 12.26583290 39.68390656 5.50000000
v 12.32850075 39.75782776 5.50000000
v 12.38548088 39.83364487 5.50000000
v 12.43652821 39.91102982 5.50000000
v 12.48142338 39.98965454 5.50000000
v 12.22737217 41.19129562 5.50000000
v 12.29318810 41.14186096 5.50000000
v 12.45640278 40.97029114 5.50000000
v 12.49862003 40.90616226 5.50000000
v 12.35346699 41.08839417 5.50000000
v 12.40794945 41.03112411 5.50000000
v 12.39999962 42.54999924 5.50000000
v 12.39999962 43.04999924 5.50000000
v 10.17703915 48.23155975 5.00000000
v 10.35452271 49.29999924 5.00000000
v 10.17703915 50.36843872 5.00000000
v 10.80000019 48.85452271 5.00000000
v 10.80000019 49.74547577 5.00000000
v 11.24547768 49.29999924 5.00000000
v 10.17703915 48.23155975 5.50000000
v 10.35452271 49.29999924 5.50000000
v 10.17703915 50.36843872 5.50000000
v 10.80000019 48.85452271 5.50000000
v 10.80000019 49.74547577 5.50000000
v 11.24547768 49.29999924 5.50000000
v 12.39999962 45.15000153 5.00000000
v 12.39999962 45.65000153 5.00000000
v 12.39999962 47.75000000 5.00000000
v 12.39999962 45.15000153 5.50000000
v 12.39999962 45.65000153 5.50000000
v 12.39999962 47.75000000 5.50000000
v 11.42296124 48.23155975 5.00000000
v 11.86843872 48.67704010 5.00000000
v 11.86843872 49.92296219 5.00000000
v 11.42296124 50.36843872 5.00000000
v 12.39999962 48.25000000 5.00000000
v 11.42296124 48.23155975 5.50000000
v 11.86843872 48.67704010 5.50000000
v 11.86843872 49.92296219 5.50000000
v 11.42296124 50.36843872 5.50000000
v 12.39999962 48.25000000 5.50000000
v 12.51997471 40.06917953 4.59999990
v 12.55201817 40.14926147 4.59999990
v 12.57741547 40.22956085 4.59999990
v 12.59605694 40.30973816 4.59999990
v 12.60572529 40.37500000 4.59999990
v 13.38705540 40.20000076 4.59999990
v 13.38705540 40.37500000 4.59999990
v 13.88705540 40.20000076 4.59999990
v 13.88705540 40.37500000 4.59999990
v 12.60572529 40.37500000 5.00000000
v 12.60786533 40.38944244 5.00000000
v 12.61278725 40.46833420 5.00000000
v 12.53441906 40.83901215 5.00000000
v 12.56364822 40.76912308 5.00000000
v 12.61080360 40.54607773 5.00000000
v 12.58618164 40.69679642 5.00000000
v 12.60192299 40.62234116 5.00000000
v 13.38705540 40.37500000 5.00000000
v 13.38705540 42.54999924 5.00000000
v 13.38705540 43.04999924 5.00000000
v 12.51997471 40.06917953 5.50000000
v 12.55201817 40.14926147 5.50000000
v 12.57741547 40.22956085 5.50000000
v 12.59605694 40.30973816 5.50000000
v 12.60786533 40.38944244 5.50000000
v 12.61278725 40.46833420 5.50000000
v 12.53441906 40.83901215 5.50000000
v 12.56364822 40.76912308 5.50000000
v 12.61080360 40.54607773 5.50000000
v 12.58618164 40.69679642 5.50000000
v 12.60192299 40.62234116 5.50000000
v 13.38705540 40.20000076 5.50000000
v 13.38705540 42.54999924 5.50000000
v 13.38705540 43.04999924 5.50000000
v 13.88705540 40.37500000 5.00000000
v 13.88705540 42.54999924 5.00000000
v 13.88705540 43.04999924 5.00000000
v 13.88705540 40.20000076 5.50000000
v 13.88705540 42.54999924 5.50000000
v 13.88705540 43.04999924 5.50000000
v 13.38705540 45.15000153 5.00000000
v 13.38705540 45.65000153 5.00000000
v 13.38705540 47.75000000 5.00000000
v 13.38705540 45.15000153 5.50000000
v 13.38705540 45.65000153 5.50000000
v 13.38705540 47.75000000 5.50000000
v 13.38705540 48.25000000 5.00000000
v 13.38705540 49.29999924 5.00000000
v 13.43193436 49.29999924 5.00000000
v 13.44798183 49.35073853 5.00000000
v 13.48002529 49.43082047 5.00000000
v 13.51857662 49.51034546 5.00000000
v 13.56347179 49.58897018 5.00000000
v 13.61451912 49.66635513 5.00000000
v 13.67149925 49.74217224 5.00000000
v 13.73416710 49.81609344 5.00000000
v 13.38705540 48.25000000 5.50000000
v 13.38705540 49.29999924 5.50000000
v 13.43193436 49.29999924 5.50000000
v 13.44798183 49.35073853 5.50000000
v 13.48002529 49.43082047 5.50000000
v 13.51857662 49.51034546 5.50000000
v 13.56347179 49.58897018 5.50000000
v 13.61451912 49.66635513 5.50000000
v 13.67149925 49.74217224 5.50000000
v 13.73416710 49.81609344 5.50000000
v 13.88705540 45.15000153 5.00000000
v 13.88705540 45.65000153 5.00000000
v 13.88705540 47.75000000 5.00000000
v 13.88705540 45.15000153 5.50000000
v 13.88705540 45.65000153 5.50000000
v 13.88705540 47.75000000 5.50000000
v 13.80225658 49.88780594 5.00000000
v 13.87547493 49.95700455 5.00000000
v 13.95350742 50.02338409 5.00000000
v 14.03602219 50.08666992 5.00000000
v 14.12266541 50.14658737 5.00000000
v 14.21306419 50.20287704 5.00000000
v 14.30683327 50.25530243 5.00000000
v 14.40357113 50.30363846 5.00000000
v 14.50286198 50.34767532 5.00000000
v 14.60428238 50.38722610 5.00000000
v 14.70739746 50.42211914 5.00000000
v 14.81176567 50.45220947 5.00000000
v 14.91693878 50.47736359 5.00000000
v 13.80225658 49.88780594 5.50000000
v 13.87547493 49.95700455 5.50000000
v 13.95350742 50.02338409 5.50000000
v 14.03602219 50.08666992 5.50000000
v 14.12266541 50.14658737 5.50000000
v 14.21306419 50.20287704 5.50000000
v 14.30683327 50.25530243 5.50000000
v 14.40357113 50.30363846 5.50000000
v 14.50286198 50.34767532 5.50000000
v 14.60428238 50.38722610 5.50000000
v 14.70739746 50.42211914 5.50000000
v 14.81176567 50.45220947 5.50000000
v 14.91693878 50.47736359 5.50000000
v 10.99484634 60.34999847 4.59999990
v 12.49484634 60.29090500 4.59999990
v 10.99484634 60.34999847 5.00000000
v 12.49484634 60.29090500 5.00000000
v 10.99484634 61.65000153 4.59999990
v 11.69484615 64.19999695 4.59999990
v 11.69484615 65.50000000 4.59999990
v 12.49484634 61.70909500 4.59999990
v 10.99484634 61.65000153 5.00000000
v 11.69484615 64.19999695 5.00000000
v 11.69484615 65.50000000 5.00000000
v 12.49484634 61.70909500 5.00000000
v 13.19090462 59.59484482 4.59999990
v 13.20394135 61.00000000 4.59999990
v 13.89999962 60.30394363 4.59999990
v 14.60909557 59.59484482 4.59999990
v 14.59605789 61.00000000 4.59999990
v 13.19090462 59.59484482 5.00000000
v 13.20394135 61.00000000 5.00000000
v 13.89999962 60.30394363 5.00000000
v 14.60909557 59.59484482 5.00000000
v 14.59605789 61.00000000 5.00000000
v 13.19090462 62.40515518 4.59999990
v 13.89999962 61.69605637 4.59999990
v 14.60909557 62.40515518 4.59999990
v 13.19090462 62.40515518 5.00000000
v 13.89999962 61.69605637 5.00000000
v 14.60909557 62.40515518 5.00000000
v 15.49713802 48.25232697 5.00000000
v 15.49117374 48.25000000 5.00000000
v 15.59642887 48.29636383 5.00000000
v 15.02246857 50.49747849 5.00000000
v 15.12790203 50.51246262 5.00000000
v 15.23278713 50.52225876 5.00000000
v 15.33667564 50.52681732 5.00000000
v 15.43912315 50.52612305 5.00000000
v 15.53969002 50.52017975 5.00000000
v 15.69316673 48.34469604 5.00000000
v 15.78693581 48.39712143 5.00000000
v 15.87733459 48.45341110 5.00000000
v 15.96397781 48.51332855 5.00000000
v 16.04649162 48.57661438 5.00000000
v 16.12452507 48.64299774 5.00000000
v 16.19774437 48.71219254 5.00000000
v 16.22737312 50.29129791 5.00000000
v 15.63794518 50.50901413 5.00000000
v 15.73346901 50.49266815 5.00000000
v 15.82585239 50.47121429 5.00000000
v 15.91469860 50.44474411 5.00000000
v 15.99962807 50.41337585 5.00000000
v 16.08027840 50.37723541 5.00000000
v 16.15630150 50.33648682 5.00000000
v 15.49117374 48.25000000 5.50000000
v 15.49713802 48.25232697 5.50000000
v 15.59642887 48.29636383 5.50000000
v 15.02246857 50.49747849 5.50000000
v 15.12790203 50.51246262 5.50000000
v 15.23278713 50.52225876 5.50000000
v 15.33667564 50.52681732 5.50000000
v 15.43912315 50.52612305 5.50000000
v 15.53969002 50.52017975 5.50000000
v 15.69316673 48.34469604 5.50000000
v 15.78693581 48.39712143 5.50000000
v 15.87733459 48.45341110 5.50000000
v 15.96397781 48.51332855 5.50000000
v 16.04649162 48.57661438 5.50000000
v 16.12452507 48.64299774 5.50000000
v 16.19774437 48.71219254 5.50000000
v 16.22737312 50.29129791 5.50000000
v 15.63794518 50.50901413 5.50000000
v 15.73346901 50.49266815 5.50000000
v 15.82585239 50.47121429 5.50000000
v 15.91469860 50.44474411 5.50000000
v 15.99962807 50.41337585 5.50000000
v 16.08027840 50.37723541 5.50000000
v 16.15630150 50.33648682 5.50000000
v 16.26583290 48.78390503 5.00000000
v 16.32850075 48.85783005 5.00000000
v 16.38548088 48.93364716 5.00000000
v 16.43652725 49.01103210 5.00000000
v 16.48142242 49.08965302 5.00000000
v 16.51997566 49.16917801 5.00000000
v 16.29318810 50.24186325 5.00000000
v 16.35346603 50.18839645 5.00000000
v 16.55201721 49.24925995 5.00000000
v 16.40794945 50.13112259 5.00000000
v 16.45640373 50.07029343 5.00000000
v 16.49861908 50.00616455 5.00000000
v 16.53442001 49.93901062 5.00000000
v 16.57741547 49.32956314 5.00000000
v 16.59605789 49.40973663 5.00000000
v 16.60786438 49.48944092 5.00000000
v 16.61278725 49.56833649 5.00000000
v 16.61080360 49.64608002 5.00000000
v 16.60192299 49.72233963 5.00000000
v 16.56364822 49.86912155 5.00000000
v 16.58618164 49.79679489 5.00000000
v 16.26583290 48.78390503 5.50000000
v 16.32850075 48.85783005 5.50000000
v 16.38548088 48.93364716 5.50000000
v 16.43652725 49.01103210 5.50000000
v 16.48142242 49.08965302 5.50000000
v 16.51997566 49.16917801 5.50000000
v 16.29318810 50.24186325 5.50000000
v 16.35346603 50.18839645 5.50000000
v 16.55201721 49.24925995 5.50000000
v 16.40794945 50.13112259 5.50000000
v 16.45640373 50.07029343 5.50000000
v 16.49861908 50.00616455 5.50000000
v 16.53442001 49.93901062 5.50000000
v 16.57741547 49.32956314 5.50000000
v 16.59605789 49.40973663 5.50000000
v 16.60786438 49.48944092 5.50000000
v 16.61278725 49.56833649 5.50000000
v 16.61080360 49.64608002 5.50000000
v 16.60192299 49.72233963 5.50000000
v 16.56364822 49.86912155 5.50000000
v 16.58618164 49.79679489 5.50000000
v 19.79999924 35.17499924 4.59999990
v 19.79999924 37.42499924 4.59999990
v 19.79999924 37.77500153 4.59999990
v 19.79999924 40.02500153 4.59999990
v 19.79999924 40.37500000 4.59999990
v 17.60000038 42.54999924 5.00000000
v 17.60000038 43.04999924 5.00000000
v 17.60000038 42.54999924 5.50000000
v 17.60000038 43.04999924 5.50000000
v 19.39999962 35.17499924 5.00000000
v 19.39999962 37.42499924 5.00000000
v 19.39999962 37.77500153 5.00000000
v 19.39999962 40.02500153 5.00000000
v 19.39999962 40.37500000 5.00000000
v 17.60000038 45.15000153 5.00000000
v 17.60000038 45.65000153 5.00000000
v 17.60000038 47.75000000 5.00000000
v 17.60000038 45.15000153 5.50000000
v 17.60000038 45.65000153 5.50000000
v 17.60000038 47.75000000 5.50000000
v 17.60000038 48.25000000 5.00000000
v 17.60000038 48.25000000 5.50000000
v 15.30515385 60.29090500 4.59999990
v 15.30515385 60.29090500 5.00000000
v 15.30515385 61.70909500 4.59999990
v 15.30515385 61.70909500 5.00000000
v 19.39999962 70.00000000 4.40000010
v 20.00000000 69.40000153 4.40000010
v 19.39999962 69.40000153 5.00000000
f 1 3 2
f 2 3 5
f 1 2 243
f 2 4 244
f 1 372 3
f 1 243 371
f 2 5 4
f 4 5 6
f 4 6 7
f 6 12 7
f 4 7 256
f 8 13 9
f 10 15 11
f 9 55 10
f 13 14 9
f 11 15 16
f 13 17 14
f 13 18 17
f 8 75 13
f 14 17 21
f 14 21 22
f 23 21 17
f 9 14 55
f 11 16 171
f 8 42 41
f 8 43 42
f 8 44 43
f 8 45 44
f 8 46 45
f 8 41 75
f 8 47 46
f 10 55 56
f 10 56 57
f 10 57 58
f 10 58 59
f 10 59 60
f 10 60 61
f 10 61 62
f 18 27 29
f 13 75 18
f 10 204 15
f 30 32 22
f 15 205 16
f 14 22 149
f 75 27 18
f 27 66 37
f 27 68 66
f 27 69 68
f 92 37 63
f 63 37 65
f 69 27 70
f 70 27 71
f 64 37 67
f 65 37 64
f 67 37 66
f 37 93 31
f 31 93 39
f 149 22 32
f 14 149 55
f 39 105 32
f 91 37 90
f 93 37 91
f 90 37 92
f 94 39 93
f 95 39 94
f 96 39 95
f 97 39 96
f 98 39 97
f 99 39 98
f 3 374 5
f 5 374 6
f 6 376 12
f 10 62 170
f 10 170 204
f 11 171 294
f 7 377 8
f 7 12 377
f 71 27 72
f 72 27 73
f 73 27 74
f 75 74 27
f 100 39 99
f 101 39 100
f 102 39 101
f 39 102 103
f 106 32 105
f 39 103 104
f 39 104 105
f 107 32 106
f 108 32 107
f 145 32 108
f 146 32 145
f 147 32 146
f 148 32 147
f 150 32 148
f 149 32 150
f 16 205 171
f 15 204 205
f 170 62 163
f 170 163 164
f 170 164 165
f 170 165 168
f 170 168 166
f 170 166 167
f 167 169 170
f 167 199 169
f 8 377 47
f 172 176 173
f 172 175 176
f 172 214 175
f 173 176 235
f 174 179 300
f 174 216 179
f 169 199 203
f 199 200 203
f 203 200 201
f 203 201 202
f 211 213 212
f 173 235 215
f 214 234 175
f 213 234 214
f 234 213 233
f 179 216 239
f 239 216 215
f 215 235 239
f 2 244 243
f 243 244 245
f 244 257 245
f 243 245 388
f 245 257 388
f 4 256 244
f 246 251 247
f 248 253 249
f 7 8 256
f 249 266 250
f 249 254 266
f 250 267 255
f 247 251 252
f 253 254 249
f 253 274 254
f 8 9 256
f 9 10 256
f 10 11 256
f 11 246 256
f 246 247 256
f 247 248 256
f 248 249 256
f 249 250 256
f 250 255 256
f 11 294 246
f 247 296 248
f 247 252 295
f 250 266 267
f 246 312 251
f 251 313 252
f 248 314 253
f 253 272 274
f 253 314 272
f 254 276 266
f 255 267 277
f 254 274 276
f 255 277 275
f 255 275 278
f 255 364 261
f 244 256 257
f 255 258 256
f 255 261 258
f 256 258 257
f 259 260 265
f 259 265 261
f 260 262 265
f 262 263 265
f 263 264 265
f 258 261 265
f 246 294 312
f 247 295 296
f 248 296 314
f 266 268 267
f 251 312 313
f 252 313 295
f 255 278 358
f 272 282 284
f 314 282 272
f 285 288 278
f 255 640 364
f 255 358 359
f 270 309 269
f 271 269 309
f 270 286 306
f 306 307 270
f 174 300 297
f 297 300 326
f 298 303 299
f 302 303 298
f 298 316 302
f 329 299 303
f 270 307 309
f 271 309 310
f 271 310 311
f 271 311 337
f 309 307 308
f 282 319 318
f 314 319 282
f 287 271 337
f 278 288 512
f 306 286 336
f 336 286 318
f 337 320 287
f 320 345 288
f 336 318 319
f 336 319 321
f 326 315 297
f 315 328 316
f 326 328 315
f 329 317 299
f 302 316 328
f 336 321 317
f 329 336 317
f 331 333 332
f 331 391 333
f 331 392 391
f 337 338 320
f 339 320 338
f 340 320 339
f 341 320 340
f 320 341 342
f 320 342 343
f 320 343 344
f 288 345 417
f 288 417 418
f 320 344 345
f 288 418 512
f 278 512 358
f 255 359 658
f 513 359 358
f 259 261 362
f 259 362 260
f 260 362 262
f 262 362 363
f 262 363 366
f 362 364 363
f 261 364 362
f 364 365 363
f 262 366 367
f 262 368 263
f 263 368 264
f 262 367 368
f 366 369 367
f 264 368 648
f 257 258 782
f 367 369 370
f 258 265 648
f 264 648 265
f 363 642 366
f 363 365 638
f 363 638 642
f 255 641 640
f 364 640 365
f 255 655 641
f 255 657 655
f 255 658 657
f 365 640 638
f 367 644 368
f 367 370 643
f 366 642 646
f 367 643 644
f 368 644 648
f 366 646 369
f 369 646 370
f 370 646 647
f 370 647 643
f 1 371 372
f 3 372 374
f 371 373 372
f 372 373 374
f 371 387 373
f 6 374 376
f 377 48 47
f 377 49 48
f 377 50 49
f 377 51 50
f 377 52 51
f 377 53 52
f 377 54 53
f 383 128 54
f 383 129 128
f 383 130 129
f 383 131 130
f 383 181 131
f 383 182 181
f 383 183 182
f 383 184 183
f 383 185 184
f 383 186 185
f 383 187 186
f 383 188 187
f 383 189 188
f 383 206 189
f 383 207 206
f 383 208 207
f 383 209 208
f 383 210 209
f 383 211 210
f 383 213 211
f 383 233 213
f 12 376 382
f 380 178 177
f 379 177 237
f 381 180 240
f 12 382 377
f 385 238 178
f 383 236 233
f 384 237 236
f 386 240 238
f 373 375 374
f 374 375 376
f 375 382 376
f 373 783 375
f 378 383 54
f 377 378 54
f 379 380 177
f 380 385 178
f 381 756 180
f 383 384 236
f 385 386 238
f 379 237 384
f 381 240 386
f 375 377 382
f 375 783 377
f 378 379 384
f 380 381 386
f 378 384 383
f 380 386 385
f 243 387 371
f 243 388 387
f 373 387 389
f 373 389 783
f 387 388 389
f 388 783 389
f 331 393 392
f 331 394 393
f 331 395 394
f 419 512 418
f 420 512 419
f 421 512 420
f 422 524 421
f 423 524 422
f 424 524 423
f 425 524 424
f 426 524 425
f 428 484 427
f 427 524 426
f 429 484 428
f 457 484 429
f 458 483 457
f 459 483 458
f 460 483 459
f 461 483 460
f 462 483 461
f 466 483 462
f 467 483 466
f 468 483 467
f 457 483 484
f 427 484 524
f 469 483 468
f 477 483 469
f 478 483 477
f 481 483 478
f 421 524 512
f 512 530 515
f 516 533 514
f 512 525 530
f 525 512 524
f 530 525 526
f 530 526 534
f 530 534 531
f 517 531 587
f 517 587 532
f 532 614 533
f 756 301 180
f 758 305 304
f 757 304 330
f 541 545 542
f 542 545 543
f 544 543 545
f 544 545 546
f 544 546 557
f 759 540 390
f 759 541 540
f 759 390 476
f 765 327 301
f 766 330 327
f 767 331 305
f 767 395 331
f 767 396 395
f 767 397 396
f 767 398 397
f 767 399 398
f 767 400 399
f 767 401 400
f 549 544 557
f 482 558 481
f 479 558 482
f 480 558 479
f 552 558 480
f 549 557 550
f 557 551 550
f 557 554 551
f 557 556 554
f 553 558 552
f 555 558 553
f 556 558 555
f 483 481 558
f 557 558 556
f 767 402 401
f 767 403 402
f 767 443 403
f 767 444 443
f 767 445 444
f 767 446 445
f 767 447 446
f 767 448 447
f 767 449 448
f 767 463 449
f 767 464 463
f 767 465 464
f 767 470 465
f 767 471 470
f 767 472 471
f 767 473 472
f 767 474 473
f 767 475 474
f 767 476 475
f 524 484 580
f 559 580 484
f 526 525 582
f 581 582 525
f 587 531 534
f 586 587 534
f 588 532 587
f 588 589 532
f 590 532 589
f 591 532 590
f 592 532 591
f 593 532 592
f 594 532 593
f 595 532 594
f 612 532 595
f 613 532 612
f 615 533 614
f 616 533 615
f 532 613 614
f 257 782 388
f 638 640 642
f 640 646 642
f 658 359 514
f 658 514 533
f 640 649 646
f 640 641 649
f 643 647 644
f 258 648 784
f 646 649 647
f 644 647 648
f 647 649 663
f 639 650 651
f 639 641 650
f 639 651 656
f 650 652 651
f 651 652 661
f 650 655 652
f 652 654 661
f 652 657 653
f 652 653 778
f 652 778 654
f 653 658 778
f 658 533 616
f 639 656 641
f 641 655 650
f 649 656 651
f 641 656 649
f 655 657 652
f 658 616 617
f 658 617 618
f 658 618 619
f 658 619 620
f 658 620 621
f 658 621 622
f 658 622 623
f 658 623 624
f 658 624 669
f 658 669 670
f 658 670 671
f 653 657 658
f 654 779 659
f 654 659 781
f 645 649 651
f 645 660 663
f 645 651 661
f 645 661 660
f 660 661 664
f 258 784 782
f 654 662 661
f 661 662 665
f 654 780 662
f 645 663 649
f 647 665 648
f 660 664 663
f 647 663 665
f 661 665 664
f 663 664 665
f 648 665 781
f 662 781 665
f 759 545 541
f 759 547 545
f 760 548 547
f 756 765 301
f 757 758 304
f 758 767 305
f 765 766 327
f 574 761 575
f 769 574 548
f 757 330 766
f 767 768 476
f 759 476 768
f 769 761 574
f 576 762 606
f 607 771 608
f 667 776 666
f 666 776 668
f 606 762 770
f 772 608 771
f 668 776 675
f 675 776 676
f 676 776 677
f 677 776 678
f 678 776 679
f 679 776 680
f 680 776 681
f 681 776 714
f 714 776 715
f 715 776 716
f 716 776 717
f 776 718 717
f 776 719 718
f 776 722 719
f 776 727 722
f 776 728 727
f 776 729 728
f 776 730 729
f 776 731 730
f 776 732 731
f 769 779 776
f 759 760 547
f 760 769 548
f 756 757 766
f 758 759 768
f 377 783 378
f 769 762 761
f 769 770 762
f 769 771 770
f 756 766 765
f 758 768 767
f 378 783 379
f 379 783 380
f 380 783 381
f 381 783 756
f 756 783 757
f 757 783 758
f 758 783 759
f 759 783 760
f 769 772 771
f 769 776 772
f 760 784 769
f 388 782 783
f 654 778 779
f 658 671 672
f 658 672 673
f 658 673 674
f 658 674 683
f 658 683 684
f 658 684 685
f 658 685 686
f 658 686 687
f 658 687 688
f 658 688 689
f 658 689 682
f 658 682 720
f 658 720 721
f 658 734 732
f 658 721 723
f 658 723 724
f 658 724 725
f 658 725 726
f 658 726 733
f 658 733 734
f 658 776 779
f 658 779 778
f 659 779 781
f 658 732 776
f 769 781 779
f 654 781 780
f 662 780 781
f 648 781 784
f 760 783 784
f 769 784 781
f 782 784 783
f 20 17 18
f 19 17 20
f 19 20 26
f 20 18 33
f 20 33 26
f 19 23 17
f 26 21 23
f 24 22 21
f 25 30 22
f 26 24 21
f 19 26 23
f 26 25 24
f 24 25 22
f 26 34 25
f 33 18 29
f 33 29 28
f 28 29 27
f 38 27 37
f 33 28 38
f 28 27 38
f 34 32 30
f 26 33 34
f 25 34 30
f 33 35 34
f 35 37 31
f 40 31 39
f 36 39 32
f 35 36 34
f 33 38 35
f 34 36 32
f 35 31 40
f 35 38 37
f 35 40 36
f 36 40 39
f 75 41 42
f 89 42 43
f 132 43 44
f 88 75 42
f 78 63 65
f 77 65 64
f 79 67 66
f 80 64 67
f 81 66 68
f 78 76 63
f 77 78 65
f 80 77 64
f 79 80 67
f 79 66 81
f 81 68 82
f 78 111 76
f 80 78 77
f 79 81 80
f 80 81 78
f 81 85 78
f 78 85 115
f 82 68 69
f 83 69 70
f 84 70 71
f 86 72 73
f 85 71 72
f 87 73 74
f 88 74 75
f 88 42 89
f 89 43 132
f 82 69 83
f 83 70 84
f 86 85 72
f 84 71 85
f 81 82 83
f 81 83 85
f 83 84 85
f 86 87 85
f 86 73 87
f 87 74 88
f 85 87 89
f 87 88 89
f 85 89 135
f 115 85 143
f 109 91 90
f 110 93 91
f 76 92 63
f 111 90 92
f 112 94 93
f 113 95 94
f 114 96 95
f 115 97 96
f 116 98 97
f 117 99 98
f 118 100 99
f 110 91 109
f 110 112 93
f 76 111 92
f 111 109 90
f 112 113 94
f 113 114 95
f 114 115 96
f 115 116 97
f 116 117 98
f 117 118 99
f 118 119 100
f 78 110 111
f 111 110 109
f 78 115 110
f 110 113 112
f 110 115 113
f 113 115 114
f 115 117 116
f 115 119 117
f 117 119 118
f 119 101 100
f 120 102 101
f 121 103 102
f 122 104 103
f 123 105 104
f 124 106 105
f 125 107 106
f 126 108 107
f 127 145 108
f 119 120 101
f 120 121 102
f 121 122 103
f 115 123 119
f 119 121 120
f 119 123 121
f 121 123 122
f 122 123 104
f 123 124 105
f 115 154 123
f 124 125 106
f 125 126 107
f 126 127 108
f 123 125 124
f 123 127 125
f 125 127 126
f 123 154 127
f 133 44 45
f 134 45 46
f 135 46 47
f 136 47 48
f 137 48 49
f 138 49 50
f 139 50 51
f 140 51 52
f 141 52 53
f 141 53 54
f 141 54 128
f 132 44 133
f 133 45 134
f 134 46 135
f 135 47 136
f 136 48 137
f 137 49 138
f 89 132 133
f 89 133 135
f 133 134 135
f 85 135 143
f 135 136 137
f 135 137 139
f 137 138 139
f 138 50 139
f 139 51 140
f 140 52 141
f 142 128 129
f 143 129 130
f 144 130 131
f 135 139 143
f 139 140 141
f 139 141 143
f 141 128 142
f 142 129 143
f 143 130 144
f 141 142 143
f 143 144 190
f 156 56 55
f 156 57 56
f 156 55 149
f 157 58 57
f 158 59 58
f 159 60 59
f 160 61 60
f 161 62 61
f 162 163 62
f 151 146 145
f 152 147 146
f 153 148 147
f 154 150 148
f 155 149 150
f 127 151 145
f 151 152 146
f 152 153 147
f 127 152 151
f 127 154 152
f 152 154 153
f 153 154 148
f 154 155 150
f 155 156 149
f 154 156 155
f 115 224 154
f 154 158 156
f 156 157 57
f 157 158 58
f 158 159 59
f 159 160 60
f 160 161 61
f 161 162 62
f 115 143 224
f 156 158 157
f 154 162 158
f 158 160 159
f 158 162 160
f 160 162 161
f 154 224 162
f 167 166 199
f 169 204 170
f 214 172 173
f 174 297 216
f 175 235 176
f 237 177 178
f 180 301 240
f 190 131 181
f 191 181 182
f 192 182 183
f 193 183 184
f 194 184 185
f 195 185 186
f 196 186 187
f 144 131 190
f 190 181 191
f 191 182 192
f 143 190 192
f 190 191 192
f 143 192 196
f 192 183 193
f 193 184 194
f 194 185 195
f 195 186 196
f 192 193 194
f 192 194 196
f 194 195 196
f 197 187 188
f 198 188 189
f 196 187 197
f 197 188 198
f 198 189 225
f 196 197 198
f 196 198 226
f 217 164 163
f 218 165 164
f 219 168 165
f 169 203 204
f 221 166 168
f 220 199 166
f 171 205 312
f 214 173 215
f 162 217 163
f 217 218 164
f 218 219 165
f 219 221 168
f 220 200 199
f 221 220 166
f 222 201 200
f 223 202 201
f 224 203 202
f 224 204 203
f 162 218 217
f 162 221 218
f 162 224 221
f 218 221 219
f 143 196 224
f 220 222 200
f 222 223 201
f 223 224 202
f 221 222 220
f 221 224 222
f 222 224 223
f 224 205 204
f 224 312 205
f 224 313 312
f 225 189 206
f 226 206 207
f 227 207 208
f 228 208 209
f 229 209 210
f 230 210 211
f 231 211 212
f 232 212 213
f 232 213 214
f 232 214 215
f 225 206 226
f 226 207 227
f 198 225 226
f 226 227 228
f 227 208 228
f 228 209 229
f 229 210 230
f 230 211 231
f 231 212 232
f 226 228 230
f 228 229 230
f 232 215 216
f 196 226 325
f 196 325 224
f 226 230 325
f 230 231 325
f 231 232 325
f 175 234 235
f 237 178 238
f 179 239 326
f 241 234 233
f 241 235 234
f 242 233 236
f 242 236 237
f 242 237 238
f 241 233 242
f 241 239 235
f 241 326 239
f 241 328 326
f 242 238 240
f 241 242 334
f 267 268 277
f 270 269 286
f 273 274 272
f 289 266 276
f 279 276 274
f 280 275 277
f 280 278 275
f 273 279 274
f 279 289 276
f 280 277 289
f 273 289 279
f 280 281 278
f 280 291 281
f 273 272 290
f 283 284 282
f 289 268 266
f 289 277 268
f 292 269 271
f 292 286 269
f 292 271 287
f 281 285 278
f 290 272 284
f 273 290 289
f 280 289 291
f 290 291 289
f 281 291 285
f 291 288 285
f 290 284 283
f 290 292 291
f 291 292 293
f 290 322 292
f 290 283 322
f 291 293 288
f 171 312 294
f 295 314 296
f 316 298 299
f 300 179 326
f 302 329 303
f 330 304 305
f 311 310 337
f 295 313 314
f 297 315 216
f 316 299 317
f 224 323 313
f 323 314 313
f 323 319 314
f 283 282 322
f 325 216 315
f 224 325 323
f 232 216 325
f 325 315 316
f 325 316 317
f 325 317 321
f 322 282 318
f 322 318 286
f 293 320 288
f 324 287 320
f 322 286 292
f 292 287 324
f 293 324 320
f 292 324 293
f 323 321 319
f 323 325 321
f 301 327 240
f 302 328 329
f 330 305 331
f 334 240 327
f 241 346 328
f 241 347 346
f 241 348 347
f 241 334 348
f 242 240 334
f 346 329 328
f 346 336 329
f 334 327 330
f 334 330 331
f 334 331 332
f 335 332 333
f 404 333 391
f 334 332 335
f 335 333 404
f 334 335 404
f 346 307 306
f 346 308 307
f 347 309 308
f 348 310 309
f 346 306 336
f 349 337 310
f 349 338 337
f 346 347 308
f 347 348 309
f 348 349 310
f 350 339 338
f 351 340 339
f 352 341 340
f 353 342 341
f 354 343 342
f 355 344 343
f 356 345 344
f 357 417 345
f 349 350 338
f 350 351 339
f 348 350 349
f 348 352 350
f 351 352 340
f 352 353 341
f 350 352 351
f 348 356 352
f 352 354 353
f 353 354 342
f 354 355 343
f 355 356 344
f 356 357 345
f 352 356 354
f 354 356 355
f 356 430 357
f 348 436 356
f 360 513 358
f 361 514 359
f 360 358 518
f 361 359 519
f 405 391 392
f 406 392 393
f 407 393 394
f 408 394 395
f 409 395 396
f 410 396 397
f 404 391 405
f 405 392 406
f 406 393 407
f 407 394 408
f 334 404 406
f 404 405 406
f 334 406 410
f 406 407 408
f 408 395 409
f 409 396 410
f 410 397 411
f 406 408 410
f 408 409 410
f 334 410 451
f 411 397 398
f 412 398 399
f 413 399 400
f 414 400 401
f 415 401 402
f 416 402 403
f 411 398 412
f 412 399 413
f 413 400 414
f 410 411 412
f 410 412 414
f 412 413 414
f 414 401 415
f 415 402 416
f 416 403 450
f 410 414 451
f 414 415 416
f 414 416 451
f 430 418 417
f 431 419 418
f 432 420 419
f 433 421 420
f 434 422 421
f 435 423 422
f 348 334 451
f 357 430 417
f 430 431 418
f 431 432 419
f 432 433 420
f 356 432 430
f 430 432 431
f 356 436 432
f 432 434 433
f 433 434 421
f 434 435 422
f 435 436 423
f 432 436 434
f 434 436 435
f 436 424 423
f 437 425 424
f 438 426 425
f 439 427 426
f 440 428 427
f 441 429 428
f 436 437 424
f 437 438 425
f 438 439 426
f 348 497 436
f 436 438 437
f 436 440 438
f 438 440 439
f 348 451 497
f 439 440 427
f 440 441 428
f 441 442 429
f 436 486 440
f 440 442 441
f 440 486 442
f 450 403 443
f 451 443 444
f 452 444 445
f 453 445 446
f 454 446 447
f 455 447 448
f 456 448 449
f 450 443 451
f 451 444 452
f 452 445 453
f 416 450 451
f 451 452 453
f 453 446 454
f 454 447 455
f 455 448 456
f 451 453 455
f 453 454 455
f 451 455 493
f 456 449 491
f 455 456 491
f 442 457 429
f 485 458 457
f 486 459 458
f 487 460 459
f 488 461 460
f 489 462 461
f 490 466 462
f 442 485 457
f 485 486 458
f 486 487 459
f 442 486 485
f 436 497 486
f 486 488 487
f 487 488 460
f 488 489 461
f 489 490 462
f 486 490 488
f 488 490 489
f 486 497 490
f 491 449 463
f 492 463 464
f 493 464 465
f 498 465 470
f 494 467 466
f 495 468 467
f 496 469 468
f 497 477 469
f 499 470 471
f 500 471 472
f 501 472 473
f 502 473 474
f 503 474 475
f 560 475 476
f 504 478 477
f 505 481 478
f 509 479 482
f 506 480 479
f 508 482 481
f 491 463 492
f 492 464 493
f 493 465 498
f 455 491 493
f 451 493 561
f 491 492 493
f 451 561 497
f 490 494 466
f 495 467 494
f 495 496 468
f 496 497 469
f 490 495 494
f 490 497 495
f 495 497 496
f 498 470 499
f 499 471 500
f 500 472 501
f 501 473 502
f 502 474 503
f 503 475 560
f 493 498 499
f 493 499 501
f 499 500 501
f 493 501 561
f 501 502 503
f 501 503 561
f 497 504 477
f 505 478 504
f 505 508 481
f 506 479 509
f 507 480 506
f 508 509 482
f 505 504 497
f 505 497 509
f 567 509 497
f 561 567 497
f 507 506 509
f 567 507 509
f 505 509 508
f 510 484 483
f 510 511 484
f 518 358 512
f 519 359 513
f 521 512 515
f 520 516 514
f 360 519 513
f 360 518 519
f 361 520 514
f 361 519 522
f 361 522 520
f 518 512 521
f 518 521 519
f 520 522 516
f 535 515 530
f 522 533 516
f 519 521 522
f 521 515 535
f 522 538 533
f 521 523 522
f 522 523 538
f 527 525 524
f 527 528 525
f 529 534 526
f 529 539 534
f 523 531 517
f 536 530 531
f 537 517 532
f 538 532 533
f 521 535 536
f 521 536 523
f 523 517 537
f 523 537 538
f 535 530 536
f 523 536 531
f 538 537 532
f 390 540 476
f 546 545 557
f 574 547 548
f 561 540 541
f 562 541 542
f 563 542 543
f 563 543 544
f 560 476 540
f 563 544 549
f 577 545 547
f 571 557 545
f 564 549 550
f 565 550 551
f 560 540 561
f 561 541 562
f 562 542 563
f 507 552 480
f 566 553 552
f 567 555 553
f 568 551 554
f 570 554 556
f 569 556 555
f 563 549 564
f 564 550 565
f 503 560 561
f 561 562 563
f 561 565 567
f 561 563 565
f 563 564 565
f 566 552 507
f 566 567 553
f 565 551 568
f 568 554 570
f 570 556 569
f 567 569 555
f 566 507 567
f 565 568 570
f 565 570 567
f 570 569 567
f 511 559 484
f 572 483 558
f 510 483 572
f 510 573 511
f 511 573 559
f 510 572 573
f 571 558 557
f 571 545 577
f 571 577 572
f 571 572 558
f 572 577 578
f 572 578 573
f 573 578 583
f 577 547 574
f 577 574 578
f 578 574 575
f 528 581 525
f 583 524 580
f 527 524 583
f 527 584 528
f 528 584 581
f 527 583 584
f 585 526 582
f 529 526 585
f 529 596 539
f 529 585 596
f 573 580 559
f 573 583 580
f 583 578 584
f 584 578 579
f 584 582 581
f 584 585 582
f 584 579 603
f 584 603 585
f 539 586 534
f 539 596 586
f 596 587 586
f 597 588 587
f 598 589 588
f 599 590 589
f 600 591 590
f 601 592 591
f 602 593 592
f 603 594 593
f 604 595 594
f 596 597 587
f 596 598 597
f 596 599 598
f 597 598 588
f 585 603 596
f 596 603 599
f 598 599 589
f 599 600 590
f 600 601 591
f 601 602 592
f 602 603 593
f 603 604 594
f 604 605 595
f 599 601 600
f 599 603 601
f 601 603 602
f 603 605 604
f 603 626 605
f 609 576 606
f 579 576 609
f 611 607 608
f 610 607 611
f 603 579 609
f 603 609 610
f 603 610 611
f 605 612 595
f 625 613 612
f 626 614 613
f 627 615 614
f 628 616 615
f 629 617 616
f 630 618 617
f 631 619 618
f 605 625 612
f 625 626 613
f 626 627 614
f 627 628 615
f 605 626 625
f 603 630 626
f 626 628 627
f 626 630 628
f 628 629 616
f 629 630 617
f 630 631 618
f 631 632 619
f 628 630 629
f 603 693 630
f 630 632 631
f 603 611 744
f 630 634 632
f 632 620 619
f 633 621 620
f 634 622 621
f 635 623 622
f 636 624 623
f 637 669 624
f 632 633 620
f 633 634 621
f 634 635 622
f 632 634 633
f 630 693 634
f 635 636 623
f 636 637 624
f 637 693 669
f 634 636 635
f 634 693 636
f 636 693 637
f 579 762 576
f 578 575 763
f 578 764 579
f 763 575 761
f 579 764 762
f 578 763 764
f 610 771 607
f 609 606 773
f 609 774 610
f 611 608 775
f 611 777 690
f 691 667 666
f 692 666 668
f 611 690 700
f 603 744 693
f 690 667 691
f 691 666 692
f 611 700 737
f 690 691 692
f 690 692 700
f 611 737 744
f 693 670 669
f 694 671 670
f 695 672 671
f 696 673 672
f 697 674 673
f 698 683 674
f 693 694 670
f 694 695 671
f 695 696 672
f 693 695 694
f 693 697 695
f 696 697 673
f 697 698 674
f 698 707 683
f 695 697 696
f 693 709 697
f 697 707 698
f 699 668 675
f 700 675 676
f 701 676 677
f 702 677 678
f 703 678 679
f 704 679 680
f 690 776 667
f 705 680 681
f 735 681 714
f 706 720 682
f 692 668 699
f 699 675 700
f 700 676 701
f 701 677 702
f 692 699 700
f 700 701 702
f 702 678 703
f 703 679 704
f 704 680 705
f 705 681 735
f 700 702 704
f 702 703 704
f 700 704 737
f 704 705 735
f 713 706 682
f 713 741 706
f 707 684 683
f 708 685 684
f 709 686 685
f 710 687 686
f 711 688 687
f 712 689 688
f 713 682 689
f 707 708 684
f 708 709 685
f 709 710 686
f 697 709 707
f 707 709 708
f 693 744 709
f 709 711 710
f 710 711 687
f 711 712 688
f 712 713 689
f 709 713 711
f 711 713 712
f 709 744 713
f 773 606 770
f 610 774 771
f 609 773 774
f 775 608 772
f 611 775 777
f 736 714 715
f 737 715 716
f 738 716 717
f 739 717 718
f 740 718 719
f 741 721 720
f 742 723 721
f 743 719 722
f 744 724 723
f 745 725 724
f 746 726 725
f 747 733 726
f 748 722 727
f 749 727 728
f 750 728 729
f 751 729 730
f 752 730 731
f 753 731 732
f 754 734 733
f 755 732 734
f 735 714 736
f 736 715 737
f 737 716 738
f 738 717 739
f 739 718 740
f 740 719 743
f 704 735 737
f 735 736 737
f 737 738 739
f 737 739 743
f 739 740 743
f 706 741 720
f 742 721 741
f 742 744 723
f 743 722 748
f 744 745 724
f 745 746 725
f 747 726 746
f 754 733 747
f 713 744 741
f 742 741 744
f 737 751 744
f 737 743 751
f 744 746 745
f 754 746 744
f 754 744 751
f 754 747 746
f 748 727 749
f 749 728 750
f 753 732 755
f 750 729 751
f 751 730 752
f 753 752 731
f 755 734 754
f 743 748 749
f 743 749 751
f 749 750 751
f 753 754 751
f 753 751 752
f 753 755 754
f 690 777 776
f 764 761 762
f 763 761 764
f 774 770 771
f 773 770 774
f 777 772 776
f 775 772 777

